<?xml version="1.0" encoding="UTF-8"?>
<!DOCTYPE svg PUBLIC "-//W3C//DTD SVG 1.1//EN" "http://www.w3.org/Graphics/SVG/1.1/DTD/svg11.dtd">
<!-- Creator: CorelDRAW -->
<svg xmlns="http://www.w3.org/2000/svg" xml:space="preserve" width="215.9mm" height="279.4mm" style="shape-rendering:geometricPrecision; text-rendering:geometricPrecision; image-rendering:optimizeQuality; fill-rule:evenodd; clip-rule:evenodd"
viewBox="0 0 215.9 279.4">
 <defs>
  <style type="text/css">
   <![CDATA[
    .str1 {stroke:#1F1A17;stroke-width:0.0762}
    .str0 {stroke:#1F1A17;stroke-width:1.4111}
    .fil2 {fill:#0A0B0C}
    .fil0 {fill:white}
    .fil1 {fill:#9E5205}
    .fil3 {fill:white;fill-rule:nonzero}
   ]]>
  </style>
 </defs>
 <g id="ojos">
  <metadata id="CorelCorpID_0Corel-Layer"/>
  <g id="_382273496">
   <path id="_380865704" class="fil0 str0" d="M55.2573 80.5198c10.4557,-19.7664 36.6107,-13.7452 44.8426,3.3354 4.1994,9.4504 5.5171,19.6212 4.4472,30.3892 -0.9891,5.9494 -5.436,11.0754 -11.3648,11.4263l-33.4778 -2.3466c-5.8622,-2.4406 -8.9814,-8.6789 -10.5621,-17.0476 0.3867,-9.1588 1.6057,-17.9994 6.1149,-25.7567z"/>
   <path id="_380865440" class="fil1 str1" d="M101.046 86.1198c3.4475,8.8045 4.4863,18.2117 3.5014,28.1246 -0.9891,5.9494 -5.436,11.0754 -11.3648,11.4263l-21.8566 -1.532c-6.0886,-4.398 -10.0575,-11.5945 -10.0575,-19.7256 0,-13.3858 10.756,-24.2415 24.0192,-24.2415 6.0294,0 11.5401,2.2436 15.7583,5.9482z"/>
   <ellipse id="_380864456" class="fil2 str1" cx="85.3649" cy="104.434" rx="15.7794" ry="15.9255"/>
   <path id="_380864840" class="fil3 str1" d="M92.5026 89.8607c0.6893,-1.1556 1.3786,-1.7333 2.7574,-1.7333 1.5221,0 2.7573,1.0353 2.7573,2.311 0,2.3111 -2.7573,4.6223 -5.5147,6.9333 -2.7574,-2.311 -5.5147,-4.6222 -5.5147,-6.9333 0,-1.2757 1.2352,-2.311 2.7573,-2.311 1.3788,0 2.0681,0.5777 2.7574,1.7333zm1.1201 -1.3m3.5867 0.2438m-0.9155 5.1005m-7.5827 0m-0.9155 -5.1005m3.5867 -0.2438"/>
   <path id="_380864792" class="fil3 str1" d="M80.9613 112.278c0.5146,-0.8726 1.0291,-1.3089 2.0585,-1.3089 1.1362,0 2.0582,0.7819 2.0582,1.7453 0,1.7454 -2.0582,3.4908 -4.1167,5.2361 -2.0583,-1.7453 -4.1165,-3.4907 -4.1165,-5.2361 0,-0.9634 0.922,-1.7453 2.0582,-1.7453 1.0293,0 1.5438,0.4363 2.0583,1.3089zm0.8361 -0.9818m2.6775 0.1842m-0.6834 3.852m-5.6603 0m-0.6834 -3.852m2.6773 -0.1842"/>
   <path id="_381263208" class="fil3 str1" d="M74.5884 107.244c0.2854,-0.5194 0.5708,-0.779 1.1418,-0.779 0.6303,0 1.1417,0.4653 1.1417,1.0386 0,1.0386 -1.1417,2.0774 -2.2835,3.116 -1.1418,-1.0386 -2.2835,-2.0774 -2.2835,-3.116 0,-0.5733 0.5114,-1.0386 1.1417,-1.0386 0.571,0 0.8564,0.2596 1.1418,0.779zm0.4638 -0.5843m1.4852 0.1095m-0.3792 2.2924m-3.1398 0m-0.3791 -2.2924m1.4852 -0.1095"/>
   <path id="_381267072" class="fil0 str0" d="M164.826 80.5198c-10.4557,-19.7664 -36.6107,-13.7452 -44.8426,3.3354 -4.1994,9.4504 -5.5171,19.6212 -4.4472,30.3892 0.9891,5.9494 5.436,11.0754 11.3648,11.4263l33.4778 -2.3466c5.8622,-2.4406 8.9814,-8.6789 10.5621,-17.0476 -0.3867,-9.1588 -1.6057,-17.9994 -6.1149,-25.7567z"/>
   <path id="_381267000" class="fil1 str1" d="M119.038 86.1198c-3.4475,8.8045 -4.4863,18.2117 -3.5014,28.1246 0.9891,5.9494 5.436,11.0754 11.3648,11.4263l21.8566 -1.532c6.0886,-4.398 10.0575,-11.5945 10.0575,-19.7256 0,-13.3858 -10.756,-24.2415 -24.0192,-24.2415 -6.0294,0 -11.5401,2.2436 -15.7583,5.9482z"/>
   <ellipse id="_381267312" class="fil2 str1" cx="134.719" cy="104.434" rx="15.7794" ry="15.9255"/>
   <path id="_381267240" class="fil3 str1" d="M127.581 89.8607c-0.6893,-1.1556 -1.3786,-1.7333 -2.7574,-1.7333 -1.5221,0 -2.7573,1.0353 -2.7573,2.311 0,2.3111 2.7573,4.6223 5.5147,6.9333 2.7574,-2.311 5.5147,-4.6222 5.5147,-6.9333 0,-1.2757 -1.2352,-2.311 -2.7573,-2.311 -1.3788,0 -2.0681,0.5777 -2.7574,1.7333zm-1.1201 -1.3m-3.5867 0.2438m0.9155 5.1005m7.5827 0m0.9155 -5.1005m-3.5867 -0.2438"/>
   <path id="_381266448" class="fil3 str1" d="M139.122 112.278c-0.5146,-0.8726 -1.0291,-1.3089 -2.0585,-1.3089 -1.1362,0 -2.0582,0.7819 -2.0582,1.7453 0,1.7454 2.0582,3.4908 4.1167,5.2361 2.0583,-1.7453 4.1165,-3.4907 4.1165,-5.2361 0,-0.9634 -0.922,-1.7453 -2.0582,-1.7453 -1.0293,0 -1.5438,0.4363 -2.0583,1.3089zm-0.8361 -0.9818m-2.6775 0.1842m0.6834 3.852m5.6603 0m0.6834 -3.852m-2.6773 -0.1842"/>
   <path id="_381266424" class="fil3 str1" d="M145.495 107.244c-0.2854,-0.5194 -0.5708,-0.779 -1.1418,-0.779 -0.6303,0 -1.1417,0.4653 -1.1417,1.0386 0,1.0386 1.1417,2.0774 2.2835,3.116 1.1418,-1.0386 2.2835,-2.0774 2.2835,-3.116 0,-0.5733 -0.5114,-1.0386 -1.1417,-1.0386 -0.571,0 -0.8564,0.2596 -1.1418,0.779zm-0.4638 -0.5843m-1.4852 0.1095m0.3792 2.2924m3.1398 0m0.3791 -2.2924m-1.4852 -0.1095"/>
  </g>
 </g>
</svg>
