<?xml version="1.0" encoding="UTF-8"?>
<!DOCTYPE svg PUBLIC "-//W3C//DTD SVG 1.1//EN" "http://www.w3.org/Graphics/SVG/1.1/DTD/svg11.dtd">
<!-- Creator: CorelDRAW -->
<svg xmlns="http://www.w3.org/2000/svg" xml:space="preserve" width="215.9mm" height="279.4mm" style="shape-rendering:geometricPrecision; text-rendering:geometricPrecision; image-rendering:optimizeQuality; fill-rule:evenodd; clip-rule:evenodd"
viewBox="0 0 215.9 279.4">
 <defs>
  <style type="text/css">
   <![CDATA[
    .fil0 {fill:#0A0B0C}
    .fil1 {fill:#DD137B}
    .fil2 {fill:white}
   ]]>
  </style>
 </defs>
 <g id="cuerpo">
  <metadata id="CorelCorpID_0Corel-Layer"/>
  <path class="fil0" d="M56.594 75.8003l-19.0972 -0.2663 21.9399 -7.8068c14.8379,-4.4277 15.7638,0.7429 27.043,9.066 6.5678,4.8845 13.7236,8.3777 22.0512,6.5829 -1.4258,3.389 -4.5132,6.5562 -9.2623,9.5023 -0.9789,20.4272 -11.0256,28.1079 -27.6441,29.2369 -18.2355,0.3057 -31.2193,-21.8135 -15.0305,-46.315z"/>
  <path class="fil1" d="M69.0155 74.9611l6.6144 5.6571 16.3621 14.0122 4.5256 0.1741c-0.8254,12.5045 -6.0761,22.1071 -21.0618,25.3263 -13.6022,0.5112 -22.3416,-7.3868 -21.845,-20.6266 -0.9992,-13.1183 6.8288,-19.132 15.4047,-24.5431z"/>
  <ellipse class="fil0" cx="78.8676" cy="92.6839" rx="11.9566" ry="12.0234"/>
  <ellipse class="fil2" transform="matrix(0.486323 0 -0.136732 0.560832 72.7984 88.3457)" rx="6.7972" ry="7.353"/>
  <path class="fil2" d="M61.8471 84.4514c-3.4152,-0.2103 -12.6332,26.7279 3.6573,29.8213 -10.0722,-7.1139 -8.1246,-19.9809 -3.6573,-29.8213z"/>
  <path class="fil2" d="M74.3244 104.726c-1.4506,4.671 11.0819,3.1334 13.8381,-1.2184 -5.2484,2.6713 -9.7862,2.8112 -13.8381,1.2184z"/>
  <path class="fil2" d="M159.378 84.4514c3.4152,-0.2103 12.6332,26.7279 -3.6573,29.8213 10.0722,-7.1139 8.1246,-19.9809 3.6573,-29.8213z"/>
 </g>
 <g id="ojos">
  <metadata id="CorelCorpID_1Corel-Layer"/>
  <path class="fil0" d="M160.845 75.8003l19.0972 -0.2663 -21.9398 -7.8068c-14.838,-4.4277 -15.7639,0.7429 -27.043,9.066 -6.5679,4.8845 -13.7237,8.3777 -22.0513,6.5829 1.4258,3.389 4.5132,6.5562 9.2623,9.5023 0.9789,20.4272 11.0256,28.1079 27.6442,29.2369 18.2354,0.3057 31.2192,-21.8135 15.0304,-46.315z"/>
  <path class="fil1" d="M148.424 74.9611l-6.6144 5.6571 -16.3621 14.0122 -4.5256 0.1741c0.8254,12.5045 6.0761,22.1071 21.0618,25.3263 13.6022,0.5112 22.3416,-7.3868 21.8451,-20.6266 0.9991,-13.1183 -6.8289,-19.132 -15.4048,-24.5431z"/>
  <ellipse class="fil0" cx="138.572" cy="92.6839" rx="11.9566" ry="12.0234"/>
  <ellipse class="fil2" transform="matrix(-0.486323 0 0.136732 0.560832 144.641 88.3457)" rx="6.7972" ry="7.353"/>
  <path class="fil2" d="M155.592 84.4514c3.4152,-0.2103 12.6332,26.7279 -3.6573,29.8213 10.0722,-7.1139 8.1246,-19.9809 3.6573,-29.8213z"/>
  <path class="fil2" d="M143.115 104.726c1.4506,4.671 -11.0819,3.1334 -13.8381,-1.2184 5.2484,2.6713 9.7862,2.8112 13.8381,1.2184z"/>
 </g>
</svg>
