<?xml version="1.0" encoding="UTF-8"?>
<!DOCTYPE svg PUBLIC "-//W3C//DTD SVG 1.1//EN" "http://www.w3.org/Graphics/SVG/1.1/DTD/svg11.dtd">
<!-- Creator: CorelDRAW -->
<svg xmlns="http://www.w3.org/2000/svg" xml:space="preserve" width="215.9mm" height="279.4mm" style="shape-rendering:geometricPrecision; text-rendering:geometricPrecision; image-rendering:optimizeQuality; fill-rule:evenodd; clip-rule:evenodd"
viewBox="0 0 215.9 279.4">
 <defs>
  <style type="text/css">
   <![CDATA[
    .str0 {stroke:#1F1A17;stroke-width:0.0762}
    .fil3 {fill:#0A0B0C}
    .fil2 {fill:#974578}
    .fil0 {fill:#DD137B}
    .fil1 {fill:white}
   ]]>
  </style>
 </defs>
 <g id="cuerpo">
  <metadata id="CorelCorpID_0Corel-Layer"/>
  <path class="fil0 str0" d="M60.3904 88.9321c9.5427,-1.141 19.2976,-2.2226 25.437,-4.309 12.8348,4.0766 23.6769,14.6405 21.684,35.445 -15.4291,2.4382 -27.9294,3.9948 -37.186,1.873 -10.1937,-3.5588 -13.1794,-16.3133 -9.935,-33.009z"/>
  <path class="fil1 str0" d="M68.849 102.882c1.8879,20.9483 17.9707,15.9349 36.297,16.6116 -1.4713,-8.9792 -5.7004,-16.2659 -14.8458,-20.5356 -8.953,0.5356 -16.1607,1.819 -21.4512,3.924z"/>
  <ellipse class="fil2 str0" cx="87.9785" cy="105.768" rx="11.4777" ry="11.632"/>
  <ellipse class="fil0 str0" cx="87.7333" cy="105.128" rx="9.69555" ry="9.82587"/>
  <ellipse class="fil3 str0" cx="87.3842" cy="105.222" rx="6.33807" ry="6.42326"/>
  <ellipse class="fil1 str0" cx="83.4415" cy="103.781" rx="2.77622" ry="2.81354"/>
  <polygon class="fil1" points="90.431,106.413 99.5131,113.269 101.068,109.591 "/>
  <path class="fil3 str0" d="M51.8452 84.1563c6.5166,-8.4773 16.3084,-14.3928 21.1204,-12.5452 12.3334,3.5467 24.1374,8.6812 35.4124,15.4036 -0.0861,-4.1221 -1.9786,-7.47 -6.5108,-9.6868 -8.4428,-3.8377 -17.2827,-7.2784 -26.996,-9.8456 -4.076,-0.6881 -7.5167,0.1059 -10.322,2.382 -6.6507,4.2808 -10.2898,9.164 -12.704,14.292z"/>
  <path class="fil3 str0" d="M107.511 120.068c-1.8514,-11.468 -5.1715,-21.7226 -15.568,-26.132 -1.258,-0.0618 -2.5035,-0.096 -3.7369,-0.1032l0.0001 -0.0004c-2.791,-1.7259 -4.96,-4.8522 -6.904,-8.4852 0.0714,3.0308 0.5601,5.9688 2.5391,8.5754l-0.0295 0.0018c-0.666,0.0322 -1.328,0.073 -1.9865,0.1218l-0.0476 0.0029c-3.1956,-1.9525 -4.7524,-6.1153 -6.1923,-11.3221 -1.2386,4.3309 -0.8225,8.3307 3.2332,11.6023l-0.0119 0.0016c-0.8052,0.0927 -1.6044,0.1987 -2.398,0.3172l-0.0296 0.0039c-3.9424,-2.4676 -6.4037,-6.8396 -7.3839,-13.116 -0.7703,4.837 0.0817,9.471 3.8255,13.7434 -9.7064,-2.2727 -13.6287,-6.4435 -14.3063,-11.679 -0.5534,4.2426 0.9376,8.6993 6.926,13.6269l-0.0217 0.0075c-0.7085,0.2323 -1.4119,0.4761 -2.1097,0.7322 -5.5696,-2.2188 -9.3628,-6.038 -11.9406,-10.9524 -0.9927,7.8061 3.8481,12.8261 12.307,16.1182l1.0322 3.8906c-7.0074,-1.2338 -10.9158,0.2128 -12.704,3.4936 4.6716,-2.3237 9.3431,-2.6019 14.0144,-0.8346l0.0119 0.0297c0.1187,0.3156 0.2444,0.6299 0.3779,0.943l0.012 0.0298c-6.524,-0.5182 -10.0326,0.7224 -11.4784,3.1669 3.6643,-1.3648 7.6285,-2.1296 12.4217,-1.2358l0.0044 0.0073c0.2464,0.4443 0.5138,0.8853 0.8028,1.3225l0.0108 0.0178c-3.9424,0.6512 -6.4192,1.9194 -7.6817,3.6994 2.2487,-1.2623 5.0223,-2.0747 9.2468,-1.6429l0.0279 0.0308c0.1628,0.1869 0.3312,0.3729 0.5044,0.558l0.0313 0.0346 -4.1831 3.0198c2.0121,-0.3478 3.9547,-0.8346 5.6485,-1.8181l0.0149 0.0063c0.6257,0.307 1.2936,0.5895 2.0032,0.8479l0.0043 0.0018 -3.4726 3.2398 4.1488 -2.5312 3.4588 0.441 -2.1552 2.9066c1.4478,-0.5043 2.8424,-1.1284 3.8649,-2.5889l0.0006 -0.0006c7.1873,1.1859 16.7521,0.9929 27.8681,-0.0999zm-38.6624 -17.1866c1.8879,20.9483 17.9707,15.9349 36.297,16.6116 -1.4713,-8.9792 -5.7004,-16.2659 -14.8458,-20.5356 -8.953,0.5356 -16.1607,1.819 -21.4512,3.924z"/>
  <path class="fil0 str0" d="M160.189 88.9321c-9.5427,-1.141 -19.2976,-2.2226 -25.437,-4.309 -12.8348,4.0766 -23.6769,14.6405 -21.684,35.445 15.4291,2.4382 27.9294,3.9948 37.186,1.873 10.1937,-3.5588 13.1794,-16.3133 9.935,-33.009z"/>
  <path class="fil1 str0" d="M151.731 102.882c-1.8879,20.9483 -17.9707,15.9349 -36.297,16.6116 1.4713,-8.9792 5.7004,-16.2659 14.8458,-20.5356 8.953,0.5356 16.1607,1.819 21.4512,3.924z"/>
  <ellipse class="fil2 str0" cx="132.601" cy="105.768" rx="11.4777" ry="11.632"/>
  <ellipse class="fil0 str0" cx="132.846" cy="105.128" rx="9.69555" ry="9.82587"/>
  <ellipse class="fil3 str0" cx="133.195" cy="105.222" rx="6.33807" ry="6.42326"/>
  <ellipse class="fil1 str0" cx="137.138" cy="103.781" rx="2.77622" ry="2.81354"/>
  <polygon class="fil1" points="130.149,106.413 121.067,113.269 119.511,109.591 "/>
  <path class="fil3 str0" d="M168.734 84.1563c-6.5166,-8.4773 -16.3084,-14.3928 -21.1204,-12.5452 -12.3334,3.5467 -24.1374,8.6812 -35.4124,15.4036 0.0861,-4.1221 1.9786,-7.47 6.5108,-9.6868 8.4428,-3.8377 17.2827,-7.2784 26.996,-9.8456 4.076,-0.6881 7.5167,0.1059 10.322,2.382 6.6507,4.2808 10.2898,9.164 12.704,14.292z"/>
  <path class="fil3 str0" d="M113.068 120.068c1.8514,-11.468 5.1715,-21.7226 15.568,-26.132 1.258,-0.0618 2.5035,-0.096 3.7369,-0.1032l-0.0001 -0.0004c2.791,-1.7259 4.96,-4.8522 6.904,-8.4852 -0.0714,3.0308 -0.5601,5.9688 -2.5391,8.5754l0.0295 0.0018c0.666,0.0322 1.328,0.073 1.9865,0.1218l0.0476 0.0029c3.1956,-1.9525 4.7524,-6.1153 6.1923,-11.3221 1.2386,4.3309 0.8225,8.3307 -3.2332,11.6023l0.0119 0.0016c0.8052,0.0927 1.6044,0.1987 2.398,0.3172l0.0296 0.0039c3.9424,-2.4676 6.4037,-6.8396 7.3839,-13.116 0.7703,4.837 -0.0817,9.471 -3.8255,13.7434 9.7064,-2.2727 13.6287,-6.4435 14.3063,-11.679 0.5534,4.2426 -0.9376,8.6993 -6.926,13.6269l0.0217 0.0075c0.7085,0.2323 1.4119,0.4761 2.1097,0.7322 5.5696,-2.2188 9.3628,-6.038 11.9406,-10.9524 0.9927,7.8061 -3.8481,12.8261 -12.307,16.1182l-1.0322 3.8906c7.0074,-1.2338 10.9158,0.2128 12.704,3.4936 -4.6716,-2.3237 -9.3431,-2.6019 -14.0144,-0.8346l-0.0119 0.0297c-0.1187,0.3156 -0.2444,0.6299 -0.3779,0.943l-0.012 0.0298c6.524,-0.5182 10.0326,0.7224 11.4784,3.1669 -3.6643,-1.3648 -7.6285,-2.1296 -12.4217,-1.2358l-0.0044 0.0073c-0.2464,0.4443 -0.5138,0.8853 -0.8028,1.3225l-0.0108 0.0178c3.9424,0.6512 6.4192,1.9194 7.6817,3.6994 -2.2487,-1.2623 -5.0223,-2.0747 -9.2468,-1.6429l-0.0279 0.0308c-0.1628,0.1869 -0.3312,0.3729 -0.5044,0.558l-0.0313 0.0346 4.1831 3.0198c-2.0121,-0.3478 -3.9547,-0.8346 -5.6485,-1.8181l-0.0149 0.0063c-0.6257,0.307 -1.2936,0.5895 -2.0032,0.8479l-0.0043 0.0018 3.4726 3.2398 -4.1488 -2.5312 -3.4588 0.441 2.1552 2.9066c-1.4478,-0.5043 -2.8424,-1.1284 -3.8649,-2.5889l-0.0006 -0.0006c-7.1873,1.1859 -16.7521,0.9929 -27.8681,-0.0999zm38.6624 -17.1866c-1.8879,20.9483 -17.9707,15.9349 -36.297,16.6116 1.4713,-8.9792 5.7004,-16.2659 14.8458,-20.5356 8.953,0.5356 16.1607,1.819 21.4512,3.924z"/>
 </g>
</svg>
