<?xml version="1.0" encoding="UTF-8"?>
<!DOCTYPE svg PUBLIC "-//W3C//DTD SVG 1.1//EN" "http://www.w3.org/Graphics/SVG/1.1/DTD/svg11.dtd">
<!-- Creator: CorelDRAW -->
<svg xmlns="http://www.w3.org/2000/svg" xml:space="preserve" width="215.9mm" height="279.4mm" style="shape-rendering:geometricPrecision; text-rendering:geometricPrecision; image-rendering:optimizeQuality; fill-rule:evenodd; clip-rule:evenodd"
viewBox="0 0 215.9 279.4">
 <defs>
  <style type="text/css">
   <![CDATA[
    .str2 {stroke:#1F1A17;stroke-width:0.0762}
    .str1 {stroke:#00ABD1;stroke-width:0.0762}
    .str0 {stroke:#0A0B0C;stroke-width:1.4111}
    .fil2 {fill:#0A0B0C}
    .fil3 {fill:white}
    .fil0 {fill:white}
    .fil1 {fill:#00ABD1}
   ]]>
  </style>
 </defs>
 <g id="cuerpo">
  <metadata id="CorelCorpID_0Corel-Layer"/>
  <path class="fil0 str0" d="M110.423 62.8938c11.9325,0 21.4654,9.6765 21.6091,21.6088 0.1438,11.9323 -9.6766,21.6091 -21.6091,21.6091 -11.9321,0 -21.6088,-9.6767 -21.6088,-21.6091 0,-11.9323 9.6767,-21.6088 21.6088,-21.6088z"/>
  <path class="fil1 str1" d="M88.8565 85.8708c-0.8188,-26.0975 38.0029,-33.2822 43.0759,-3.4548 -4.325,-10.2641 -28.1819,-18.833 -43.0759,3.4548z"/>
  <circle class="fil2 str2" cx="117.46" cy="86.7872" r="9.53218"/>
  <path class="fil3 str2" d="M114.188 83.0077l-0.7309 2.9819c-0.062,-0.0154 -0.1249,-0.0327 -0.1862,-0.0518 -1.6178,-0.5063 -2.5193,-2.2291 -2.013,-3.847 0.5063,-1.6178 2.2292,-2.5193 3.847,-2.013 0.5561,0.1742 1.052,0.5036 1.4281,0.9486l-2.345 1.9813z"/>
  <path class="fil0 str0" d="M151.271 66.5169c-10.7052,0 -19.2576,8.6813 -19.3866,19.3863 -0.1289,10.7051 8.6814,19.3866 19.3866,19.3866 10.7049,0 19.3863,-8.6814 19.3863,-19.3866 0,-10.705 -8.6814,-19.3863 -19.3863,-19.3863z"/>
  <path class="fil1 str1" d="M170.619 87.1307c0.7345,-23.4133 -34.0943,-29.8591 -38.6455,-3.0995 3.8801,-9.2084 25.2833,-16.8959 38.6455,3.0995z"/>
  <circle class="fil2 str2" cx="150.443" cy="89.2176" r="8.02536"/>
  <path class="fil3 str2" d="M147.923 87.3048l-0.7979 3.2544c-0.0674,-0.017 -0.1361,-0.0359 -0.2029,-0.0568 -1.7658,-0.5526 -2.7494,-2.4326 -2.1968,-4.1984 0.5524,-1.7655 2.4324,-2.7494 4.1982,-2.1968 0.607,0.1899 1.1481,0.5497 1.5585,1.0351l-2.5591 2.1625z"/>
  <path class="fil0 str0" d="M70.4126 66.0918c10.1272,0 18.218,8.2126 18.34,18.3397 0.122,10.1271 -8.2128,18.3399 -18.34,18.3399 -10.127,0 -18.3397,-8.2127 -18.3397,-18.3399 0,-10.1271 8.2127,-18.3397 18.3397,-18.3397z"/>
  <path class="fil1 str1" d="M52.1092 85.5927c-0.6949,-22.1493 32.2536,-28.2471 36.5591,-2.9322 -3.6707,-8.7113 -23.9184,-15.9837 -36.5591,2.9322z"/>
  <circle class="fil2 str2" cx="66.4588" cy="85.7853" r="8.0901"/>
  <path class="fil3 str2" d="M63.6825 83.2877l-0.6204 3.2198c-0.0526,-0.0165 -0.1059,-0.0352 -0.1578,-0.0559 -1.3731,-0.5467 -2.1383,-2.407 -1.7084,-4.1541 0.4297,-1.7473 1.8917,-2.7207 3.2648,-2.174 0.472,0.1882 0.8928,0.544 1.212,1.0243l-1.9902 2.1399z"/>
 </g>
</svg>
