<?xml version="1.0" encoding="UTF-8"?>
<!DOCTYPE svg PUBLIC "-//W3C//DTD SVG 1.1//EN" "http://www.w3.org/Graphics/SVG/1.1/DTD/svg11.dtd">
<!-- Creator: CorelDRAW -->
<svg xmlns="http://www.w3.org/2000/svg" xml:space="preserve" width="215.9mm" height="279.4mm" style="shape-rendering:geometricPrecision; text-rendering:geometricPrecision; image-rendering:optimizeQuality; fill-rule:evenodd; clip-rule:evenodd"
viewBox="0 0 215.9 279.4">
 <defs>
  <style type="text/css">
   <![CDATA[
    .fil1 {fill:#211919}
    .fil8 {fill:#423A3A}
    .fil4 {fill:#635A5A}
    .fil6 {fill:#737373}
    .fil3 {fill:#9C9494}
    .fil7 {fill:#ADA5A5}
    .fil0 {fill:#CECECE}
    .fil5 {fill:#DEDEDE}
    .fil2 {fill:white}
   ]]>
  </style>
 </defs>
 <g id="ojos">
  <metadata id="CorelCorpID_0Corel-Layer"/>
  <g id="_456825736">
   <path id="_384442824" class="fil0" d="M64.4016 110.818c0,-0.0102 0.0103,-0.0102 0.0206,-0.0102 10.6276,-0.0205 21.2553,-0.0308 31.8829,-0.0411 0.0103,-1.4977 0.0308,-2.9851 0.0513,-4.4726 0,0 0.0103,0 0.0205,0.0103 -0.0102,1.5079 -0.0205,3.0159 -0.0308,4.5239 -10.6481,-0.0103 -21.2963,-0.0103 -31.9445,-0.0103z"/>
   <path id="_384442608" class="fil1" d="M64.4734 110.756c-0.0205,-1.4977 -0.0307,-2.9954 -0.041,-4.4829 -0.0205,-0.0103 -0.041,-0.0205 -0.0513,-0.0308 -0.0205,-0.0205 -0.041,-0.0308 -0.0513,-0.041 -1.4874,-0.0103 -2.9646,-0.0205 -4.4418,-0.0308 -0.0206,-1.4977 -0.0411,-2.9954 -0.0513,-4.4829 -0.0103,0 -0.0206,0 -0.0206,0 0,-0.0205 0,-0.041 0,-0.0615 -1.4977,0 -2.9851,0 -4.4726,0 -0.0205,-1.4978 -0.041,-2.9955 -0.0513,-4.4829 -0.0102,-0.0206 -0.0205,-0.0411 -0.0205,-0.0616 -1.4977,-0.0103 -2.9954,-0.0103 -4.4829,-0.0103 0,-3.0159 0,-6.0216 0,-9.0273 39.4741,0 78.9483,0 118.422,0 0,3.0057 0,6.0114 0,9.0273 -1.4874,0.0103 -2.9749,0.0206 -4.4521,0.0411 -0.0103,0 -0.0205,0 -0.0308,0.0102 -0.0308,0 -0.0513,0 -0.0718,0 0,1.4978 0,2.9955 0,4.5035 -1.4977,0.0102 -2.9852,0.0205 -4.4726,0.0307 -0.0103,0.0103 -0.0205,0.0205 -0.0205,0.0308 -0.0206,0.0103 -0.0411,0.0205 -0.0513,0.041 -0.0103,1.4772 -0.0206,2.9544 -0.0308,4.4419 -1.4875,0.0103 -2.9749,0.0205 -4.4521,0.0308 -0.0103,0.0102 -0.0103,0.0205 -0.0103,0.041 -0.0205,0 -0.041,0 -0.0513,0.0103 -0.0205,1.4977 -0.0308,2.9954 -0.041,4.5034 -10.6072,0 -21.204,0 -31.8009,0 -0.0103,-1.508 -0.0205,-3.0057 -0.0308,-4.5034 -0.0205,-0.0103 -0.041,-0.0103 -0.0513,-0.0103 -0.0102,-0.0205 -0.0205,-0.0308 -0.0205,-0.041 -1.4875,-0.0103 -2.9647,-0.0205 -4.4419,-0.0308 -0.0102,-1.4875 -0.0205,-2.9647 -0.0307,-4.4419 -0.0206,-0.0205 -0.0411,-0.0307 -0.0513,-0.041 -0.0103,-0.0103 -0.0205,-0.0205 -0.0205,-0.0308 -1.4978,-0.0102 -2.9955,-0.0205 -4.4829,-0.0307 -0.0103,-3.016 -0.0206,-6.032 -0.0308,-9.0479 -0.0103,0 -0.0205,0 -0.0205,0 -0.0206,-0.0205 -0.0411,-0.041 -0.0513,-0.0513 0,-0.0308 -8.9863,-0.0308 -8.9863,0 -0.0206,0.0103 -0.0411,0.0205 -0.0513,0.0308 -0.0513,0.0307 -0.0513,0.0307 -0.0513,0.0718 -0.0205,2.9954 -0.0308,5.9909 -0.0411,8.9966 -1.4977,0 -2.9851,0 -4.4726,0 0,0.0205 0,0.041 0,0.0615 -0.0103,0 -0.0205,0 -0.0205,0 -0.0205,1.4875 -0.0411,2.9852 -0.0513,4.4829 -1.4875,0.0103 -2.9647,0.0205 -4.4419,0.0308 -0.0102,0.0102 -0.0205,0.0205 -0.0205,0.041 -0.041,0 -0.041,0 -0.0718,0.0513 -0.0103,1.4875 -0.0103,2.9749 -0.0103,4.4624 -10.6071,0 -21.204,0 -31.8009,0z"/>
   <path id="_384442176" class="fil2" d="M68.9666 101.729c0.1026,-0.041 0.2462,-0.1128 0.3385,-0.0205 0.2462,-0.0615 0.5129,0.0205 0.7694,-0.041 0.0103,0.0102 0.0308,0.0205 0.0513,0.041 0.2462,-0.0615 0.5129,0.0205 0.7694,-0.041 0.0102,0.0102 0.0307,0.0205 0.0513,0.041 0.2462,-0.0615 0.5129,0.0205 0.7693,-0.041 0.0103,0.0102 0.0308,0.0205 0.0513,0.041 0.2462,-0.0615 0.5129,0.0205 0.7694,-0.041 0.0103,0.0102 0.0308,0.0205 0.0513,0.041 0.277,-0.0615 0.6463,0.0513 0.8925,-0.0205 0.0102,0.0103 0.0308,0.0205 0.0513,0.041 -0.0103,1.4362 -0.0205,2.8724 -0.0205,4.3188 -0.0206,0.0513 -0.0308,0.1026 -0.0411,0.1641 -2.2363,0.0411 -2.2363,0.0411 -4.4213,0.0308 -0.1847,-0.0923 -0.0821,-4.0725 -0.0821,-4.5137z"/>
   <path id="_456796768" class="fil2" d="M78.076 101.729c0.2667,-0.082 0.5437,0 0.8207,-0.0615 0.0102,0.0102 0.0308,0.0205 0.0513,0.041 0.2462,-0.0615 0.5129,0.0205 0.7694,-0.041 0.0102,0.0102 0.0307,0.0205 0.0512,0.041 0.2462,-0.0615 0.513,0.0205 0.7694,-0.041 0.0103,0.0102 0.0308,0.0205 0.0513,0.041 0.2462,-0.0615 0.5129,0.0205 0.7694,-0.041 0.0102,0.0102 0.0308,0.0205 0.0513,0.041 0.2462,-0.0615 0.5129,0.0205 0.7694,-0.041 0.0512,0.0513 0.3385,0.0102 0.4206,0.0102 0,1.508 0.0102,3.016 0.0205,4.5342 -1.4978,0.0103 -2.9955,0.0206 -4.4829,0.0411 -0.0205,-0.0411 -0.0308,-0.0821 -0.0411,-0.1231 -0.0102,-1.467 -0.0205,-2.9339 -0.0205,-4.4009z"/>
   <path id="_456797224" class="fil2" d="M133.389 101.688c0,-0.0103 0,-0.0205 0,-0.0308 0.2256,0.0513 0.6565,0.0718 0.9027,0.0103 0.0615,0.0615 1.1489,0.0718 1.4362,0 0.0102,0.0102 0.0307,0.0205 0.0512,0.041 0.2462,-0.0615 0.513,0.0205 0.7694,-0.041 0.0103,0.0102 0.0308,0.0205 0.0513,0.041 0.2462,-0.0615 0.5129,0.0205 0.7694,-0.041 0.041,0.041 0.4411,0.0205 0.5129,0.0205 0.0103,0.0513 0.0308,0.1026 0.0513,0.1539 -0.0103,1.4259 -0.0103,2.8518 -0.0103,4.2777 -0.041,0.041 -0.082,0.0821 -0.1128,0.1334 -1.4669,-0.0103 -2.9339,-0.0205 -4.4008,-0.0308 -0.1334,-0.1334 -0.1642,-4.3188 -0.0205,-4.5342z"/>
   <path id="_456797200" class="fil2" d="M142.488 101.688c0,-0.0103 0,-0.0205 0,-0.0308 0.3591,0.0205 0.8925,0.0924 1.2413,0.0103 0.0102,0.0102 0.0307,0.0205 0.0513,0.041 0.2462,-0.0615 0.5129,0.0205 0.7693,-0.041 0.0103,0.0102 0.0308,0.0205 0.0513,0.041 0.2462,-0.0615 0.5129,0.0205 0.7694,-0.041 0.0103,0.0102 0.0308,0.0205 0.0513,0.041 0.2462,-0.0615 0.5129,0.0205 0.7694,-0.041 0.0102,0.0102 0.0308,0.0205 0.0513,0.041 0.1641,-0.041 0.7078,-0.0923 0.8104,0.0616 -0.0308,0.0513 -0.0308,0.0513 -0.0411,4.4111 -0.0307,0.0205 -0.0615,0.041 -0.082,0.0615 -1.4772,-0.0102 -2.9544,-0.0205 -4.4316,-0.0205 0.0102,-0.0205 0.0205,-0.0308 0.041,-0.041 -0.041,-0.0206 -0.0718,-0.0308 -0.1026,-0.0411 0,-1.4567 0,-2.9133 0.0103,-4.37 0.0102,-0.0308 0.0205,-0.0616 0.041,-0.0821z"/>
   <path id="_456796792" class="fil1" d="M68.9666 101.729c0,-0.0205 0,-0.0307 0,-0.041 0,-1.5285 0,-3.057 0,-4.5752 1.5182,0.0102 3.0365,0.0205 4.565,0.0308 -0.0205,4.3598 -0.0205,4.3598 -0.0513,4.5444 -0.2462,0.0718 -0.6155,-0.041 -0.8925,0.0205 -0.0205,-0.0205 -0.041,-0.0308 -0.0513,-0.041 -0.2565,0.0615 -0.5232,-0.0205 -0.7694,0.041 -0.0205,-0.0205 -0.041,-0.0308 -0.0513,-0.041 -0.2564,0.0615 -0.5231,-0.0205 -0.7693,0.041 -0.0206,-0.0205 -0.0411,-0.0308 -0.0513,-0.041 -0.2565,0.0615 -0.5232,-0.0205 -0.7694,0.041 -0.0205,-0.0205 -0.041,-0.0308 -0.0513,-0.041 -0.2565,0.0615 -0.5232,-0.0205 -0.7694,0.041 -0.0923,-0.0923 -0.2359,-0.0205 -0.3385,0.0205z"/>
   <path id="_456797176" class="fil2" d="M73.5316 101.729c-0.0205,-0.0205 -0.0411,-0.0307 -0.0513,-0.041 0.0308,-0.1846 0.0308,-0.1846 0.0513,-4.5444 0.4719,-0.0719 0.9643,0.0307 1.4156,-0.0411 0.3591,0.1026 0.8309,-0.082 1.19,0.0308 0.6052,-0.1026 1.2925,0.0615 1.8875,-0.0308 0.0205,0.0308 0.0513,0.0616 0.0821,0.1026 -0.0103,4.3598 -0.0103,4.3598 -0.041,4.4829 -1.5183,0.0103 -3.0263,0.0205 -4.5342,0.041z"/>
   <path id="_456797344" class="fil1" d="M133.389 101.657c-0.0206,-0.041 -0.0308,-0.082 -0.0411,-0.1231 -0.0102,-1.4669 -0.0102,-2.9339 -0.0102,-4.3905 0.0102,-0.0206 0.0307,-0.0411 0.0513,-0.0513 1.4977,0.0102 3.0056,0.0307 4.5136,0.0513 0.0308,0.082 0.0308,0.082 0.0205,4.5444 -0.0205,0 -0.0307,0 -0.041,0 -0.0718,0 -0.4719,0.0205 -0.5129,-0.0205 -0.2565,0.0615 -0.5232,-0.0205 -0.7694,0.041 -0.0205,-0.0205 -0.041,-0.0308 -0.0513,-0.041 -0.2564,0.0615 -0.5232,-0.0205 -0.7694,0.041 -0.0205,-0.0205 -0.041,-0.0308 -0.0512,-0.041 -0.2873,0.0718 -1.3747,0.0615 -1.4362,0 -0.2462,0.0615 -0.6771,0.041 -0.9027,-0.0103z"/>
   <path id="_456797008" class="fil2" d="M64.3811 97.1124c0,-0.0205 0,-0.0308 0,-0.0411 0.554,0.1847 1.2926,-0.1025 1.8465,0.0616 0.2154,-0.0308 0.6155,-0.0616 0.8207,0 0.595,-0.1026 1.3643,0.1231 1.9183,-0.0616 0,0.0103 0,0.0206 0,0.0411 0,1.5182 0,3.0467 0,4.5752 -1.5182,-0.0205 -3.0365,-0.0308 -4.5547,-0.041 -0.0308,-0.0821 0,-0.1642 -0.0308,-4.5342z"/>
   <path id="_456796696" class="fil2" d="M128.824 97.1124c0.4103,0.0205 1.0258,-0.0923 1.4156,0.0205 0.4104,-0.0718 0.8515,0.041 1.2618,-0.0308 0.5437,0.1539 1.2823,-0.1128 1.8363,0.0411 0,1.4566 0,2.9236 0.0102,4.3905 0.0103,0.0411 0.0205,0.0821 0.0411,0.1231 0,0.0103 0,0.0205 0,0.0308 -1.5183,-0.0205 -3.0365,-0.0308 -4.5548,-0.041 -0.0205,-0.0308 -0.0307,-0.0513 -0.041,-0.0718 0.0103,-1.4875 0.0205,-2.975 0.0308,-4.4624z"/>
   <path id="_456795016" class="fil2" d="M137.923 101.688c0.0103,-4.4624 0.0103,-4.4624 -0.0205,-4.5444 0.0103,-0.0103 0.0308,-0.0206 0.0513,-0.0308 0.5129,0.0308 1.3131,0.0718 1.826,-0.0103 0.1847,0.0513 0.6258,0.0308 0.8207,0 0.5437,0.1642 1.313,-0.1539 1.8465,0.0718 0.0308,0.1949 0.0102,4.4009 0.041,4.4829 0,0.0103 0,0.0205 0,0.0308 -1.5285,0 -3.0467,0 -4.565,0z"/>
   <path id="_456794992" class="fil0" d="M114.493 92.6295c0,-0.0103 0.0102,-0.0205 0.0205,-0.0205 0.0102,3.0057 0.0308,6.0114 0.0513,9.0273 0,0.0103 0,0.0205 0,0.041 -0.0308,0 -0.0513,0 -0.0718,0 0,-3.0159 0,-6.0319 0,-9.0478z"/>
   <path id="_456794872" class="fil3" d="M114.514 92.609c0,-0.0103 0,-0.0103 0,-0.0103 0.0102,-0.0103 0.0205,-0.0205 0.0308,-0.0205 0,0 0.0102,0 0.0205,0 0,3.0159 0,6.0319 0,9.0581 -0.0205,-3.0159 -0.0411,-6.0216 -0.0513,-9.0273z"/>
   <path id="_456794560" class="fil4" d="M114.565 101.636c0,-3.0262 0,-6.0422 0,-9.0581 0.0102,3.0159 0.0205,6.0319 0.0308,9.0479 -0.0103,0 -0.0103,0 -0.0103,0.0102 -0.0103,0 -0.0205,0 -0.0205,0z"/>
   <path id="_456795112" class="fil2" d="M68.9666 97.1124c0,-0.0205 0,-0.0308 0,-0.0411 -0.0103,-1.4259 -0.0103,-2.8518 -0.0103,-4.2674 0.0103,-0.0718 0.0308,-0.1436 0.0513,-0.2155 1.4978,0 2.9955,0 4.5035,0 0,1.5183 0.0102,3.0365 0.0205,4.5548 -1.5285,-0.0103 -3.0468,-0.0206 -4.565,-0.0308z"/>
   <path id="_456794536" class="fil2" d="M137.903 97.1432c-1.508,-0.0206 -3.0159,-0.0411 -4.5136,-0.0513 -0.0206,-0.0411 -0.0308,-0.0718 -0.0411,-0.1026 0,-1.467 0,-2.9236 0,-4.3803 1.4977,-0.0103 3.0057,-0.0206 4.5137,-0.0206 0.0205,0.0308 0.0513,0.0616 0.0821,0.1026 0,1.467 0,2.9442 0.0102,4.4214 -0.0205,0.0102 -0.041,0.0205 -0.0513,0.0308z"/>
   <path id="_456795088" class="fil2" d="M64.3811 97.0713c0,0.0103 0,0.0206 0,0.0411 -1.508,-0.0103 -3.0057,-0.0205 -4.5034,-0.0205 -0.0205,-0.0411 -0.041,-0.0718 -0.0616,-0.1026 0.0103,-1.467 0.0206,-2.9339 0.0308,-4.4009 1.508,-0.0102 3.016,-0.0102 4.524,-0.0102 0.0102,0.0308 0.0307,0.0718 0.0513,0.1128 -0.0206,1.4567 -0.0308,2.9134 -0.0411,4.3803z"/>
   <path id="_456794464" class="fil2" d="M128.824 97.1124c-1.5183,-0.0103 -3.0365,-0.0205 -4.5445,-0.0205 -0.1231,-0.1231 -0.0513,-1.9183 -0.0205,-2.1953 -0.1026,-0.6771 0.0718,-1.4259 -0.0308,-2.103 0.0103,-0.0718 0.0206,-0.1436 0.0411,-0.2052 1.4977,0 2.9954,0 4.4931,0 0.0206,1.508 0.0411,3.016 0.0616,4.524z"/>
   <path id="_456794680" class="fil5" d="M105.507 92.6295c-0.0103,-0.0103 -0.0206,-0.0205 -0.0206,-0.0205 0,-0.0103 0.0103,-0.0103 0.0206,-0.0103 2.9954,0 5.9908,0 8.9863,0 0,0 0.0102,0 0.0205,0 0,0 0,0 0,0.0103 -0.0103,0 -0.0205,0.0102 -0.0205,0.0205 -2.9955,0 -5.9909,0 -8.9863,0z"/>
   <path id="_456825160" class="fil6" d="M105.466 92.609c-0.0102,-0.0206 -0.0102,-0.0411 -0.0102,-0.0513 0.0102,-0.0103 0.0307,-0.0205 0.0513,-0.0308 2.9954,0 5.9908,0 8.9863,0 0.0102,0.0103 0.0307,0.0308 0.0513,0.0513 -0.0103,0 -0.0206,0.0102 -0.0308,0.0205 -0.0103,0 -0.0205,0 -0.0205,0 -8.9863,-0.0308 -8.9863,-0.0308 -8.9863,0 -0.0103,0 -0.0206,0 -0.0206,0.0103 -0.0102,0 -0.0205,0 -0.0205,0z"/>
   <path id="_456825136" class="fil7" d="M105.507 92.5987c0,-0.0308 0,-0.0308 8.9863,0 -2.9955,0 -5.9909,0 -8.9863,0z"/>
   <path id="_456825832" class="fil8" d="M105.507 92.5269c0,-0.0308 8.9863,-0.0308 8.9863,0 -2.9955,0 -5.9909,0 -8.9863,0z"/>
  </g>
 </g>
</svg>
