<?xml version="1.0" encoding="UTF-8"?>
<!DOCTYPE svg PUBLIC "-//W3C//DTD SVG 1.1//EN" "http://www.w3.org/Graphics/SVG/1.1/DTD/svg11.dtd">
<!-- Creator: CorelDRAW -->
<svg xmlns="http://www.w3.org/2000/svg" xml:space="preserve" width="215.9mm" height="279.4mm" style="shape-rendering:geometricPrecision; text-rendering:geometricPrecision; image-rendering:optimizeQuality; fill-rule:evenodd; clip-rule:evenodd"
viewBox="0 0 215.9 279.4">
 <defs>
  <style type="text/css">
   <![CDATA[
    .str0 {stroke:#1F1A17;stroke-width:0.0762}
    .fil0 {fill:#0A0B0C}
    .fil1 {fill:#383431}
    .fil2 {fill:#605D5C}
   ]]>
  </style>
 </defs>
 <g id="ojos">
  <metadata id="CorelCorpID_0Corel-Layer"/>
  <g id="_456801304">
   <path id="_456812920" class="fil0 str0" d="M63.8489 86.1415c-12.7829,4.2266 -13.3489,26.4765 -1.4014,38.0158 12.6566,8.1456 29.8229,1.0056 38.9926,-21.745 2.9176,-7.5182 0.4489,-12.9419 -7.406,-16.2708 -10.38,-2.4399 -20.4843,-2.7652 -30.1852,0z"/>
   <path id="_456812176" class="fil1 str0" d="M64.5845 87.5098c-11.986,3.9631 -12.5167,24.8261 -1.3141,35.646 11.8677,7.6378 27.9639,0.9429 36.562,-20.3895 2.7357,-7.0495 0.4209,-12.1351 -6.9444,-15.2565 -9.7329,-2.2878 -19.2073,-2.5928 -28.3035,0z"/>
   <path id="_456812104" class="fil2 str0" d="M55.2443 102.439l15.8676 -16.2965c8.4158,-0.7655 15.6043,-0.2358 21.7762,1.367l-32.7228 31.9886c-3.7071,-5.9682 -4.9931,-11.6062 -4.921,-17.0591z"/>
   <path id="_456807328" class="fil2 str0" d="M63.2704 123.156l33.8969 -33.1815c1.6844,1.3823 3.0079,3.0478 3.5379,5.3357l-30.6387 30.5838c-3.1708,-0.5048 -5.3297,-1.4655 -6.7961,-2.738z"/>
   <rect id="_456801448" class="fil0 str0" x="51.6482" y="102.605" width="2.29839" height="2.92973"/>
   <path id="_456801352" class="fil0 str0" d="M99.6289 106.136c-0.0219,-0.8895 1.9819,-1.7385 1.2096,1.2096 -1.1562,3.1285 -2.8446,5.5729 -5.0653,7.3333 -2.2705,1.2204 -2.8501,0.9433 -1.7388,-0.8316 2.4955,-2.2592 4.3221,-4.8486 5.5945,-7.7113z"/>
   <path id="_456801616" class="fil0 str0" d="M88.6603 85.0682c12.3165,-2.1963 24.8199,-2.1505 37.5287,0.3578l-1.7769 0.8047c-10.7103,-2.0649 -22.7681,-2.018 -33.6192,-0.1819l-2.1326 -0.9806z"/>
   <path id="_456801880" class="fil0 str0" d="M101.69 92.5215c0.7503,-1.6954 2.6768,-2.4108 5.7795,-2.1462 2.7936,-0.1897 5.1241,0.2585 5.8803,2.6951l-0.833 1.9111c0.0357,-2.4595 -1.8489,-3.375 -5.0473,-3.2342 -3.1265,-0.1057 -5.0162,0.6647 -5.0984,2.7154l-0.6811 -1.9412z"/>
   <path id="_456801064" class="fil0 str0" d="M150.829 86.1415c12.7828,4.2266 13.3488,26.4765 1.4014,38.0158 -12.6567,8.1456 -29.823,1.0056 -38.9927,-21.745 -2.9175,-7.5182 -0.4488,-12.9419 7.4061,-16.2708 10.38,-2.4399 20.4842,-2.7652 30.1852,0z"/>
   <path id="_456800920" class="fil1 str0" d="M150.093 87.5098c11.986,3.9631 12.5168,24.8261 1.3141,35.646 -11.8677,7.6378 -27.9639,0.9429 -36.5619,-20.3895 -2.7357,-7.0495 -0.4209,-12.1351 6.9443,-15.2565 9.733,-2.2878 19.2074,-2.5928 28.3035,0z"/>
   <rect id="_456800752" class="fil0 str0" x="160.731" y="102.605" width="2.29839" height="2.92973"/>
   <path id="_456800680" class="fil0 str0" d="M115.049 106.136c0.0219,-0.8895 -1.9819,-1.7385 -1.2097,1.2096 1.1563,3.1285 2.8447,5.5729 5.0653,7.3333 2.2706,1.2204 2.8502,0.9433 1.7389,-0.8316 -2.4956,-2.2592 -4.3221,-4.8486 -5.5945,-7.7113z"/>
   <path id="_456800656" class="fil2 str0" d="M115.464 105.381l19.0137 -19.6614c7.908,-0.0939 14.5937,0.8474 19.1008,3.6341l-28.4615 28.4644c-3.8701,-3.6081 -7.3548,-7.5015 -9.653,-12.4371z"/>
   <path id="_456800584" class="fil2 str0" d="M128.997 120.829l28.0988 -28.032c1.2583,2.1111 2.153,4.3544 2.6092,6.7571l-25.3559 24.8207c-2.0486,-0.8735 -3.8775,-2.0032 -5.3521,-3.5458z"/>
  </g>
 </g>
</svg>
