<?xml version="1.0" encoding="UTF-8"?>
<!DOCTYPE svg PUBLIC "-//W3C//DTD SVG 1.1//EN" "http://www.w3.org/Graphics/SVG/1.1/DTD/svg11.dtd">
<!-- Creator: CorelDRAW -->
<svg xmlns="http://www.w3.org/2000/svg" xml:space="preserve" width="215.9mm" height="279.4mm" style="shape-rendering:geometricPrecision; text-rendering:geometricPrecision; image-rendering:optimizeQuality; fill-rule:evenodd; clip-rule:evenodd"
viewBox="0 0 215.9 279.4">
 <defs>
  <style type="text/css">
   <![CDATA[
    .str0 {stroke:#1F1A17;stroke-width:0.0762}
    .fil3 {fill:#0A0B0C}
    .fil1 {fill:white}
    .fil2 {fill:#008CCC}
    .fil0 {fill:#0091CC}
    .fil4 {fill:#F5E617}
   ]]>
  </style>
 </defs>
 <g id="cuerpo">
  <metadata id="CorelCorpID_0Corel-Layer"/>
  <g id="_384433944">
   <g>
    <ellipse id="_384435600" class="fil0 str0" cx="78.5337" cy="99.2278" rx="18.7404" ry="18.2565"/>
    <ellipse id="_384435528" class="fil1 str0" cx="78.5337" cy="99.2278" rx="13.7513" ry="13.3963"/>
    <ellipse id="_384435312" class="fil2 str0" cx="78.5338" cy="99.2276" rx="8.93531" ry="8.7046"/>
    <ellipse id="_384435264" class="fil3 str0" cx="78.5337" cy="99.2278" rx="6.56397" ry="6.39448"/>
    <g>
     <ellipse id="_384435816" class="fil1" cx="80.8554" cy="95.8462" rx="2.32617" ry="2.26611"/>
     <ellipse id="_384435336" class="fil1" cx="75.5401" cy="103.264" rx="1.65415" ry="1.61144"/>
    </g>
    <g>
     <ellipse id="_384435696" class="fil4" cx="82.9943" cy="83.4374" rx="2.34353" ry="1.65083"/>
     <g>
      <ellipse id="_384435288" class="fil4" cx="63.115" cy="101.706" rx="1.93187" ry="2.72183"/>
      <ellipse id="_384435048" class="fil4" cx="73.3734" cy="114.745" rx="1.93187" ry="1.91987"/>
      <ellipse id="_384435000" class="fil4" cx="92.6766" cy="89.6543" rx="1.32088" ry="1.31267"/>
      <ellipse id="_384434952" class="fil4" cx="94.5633" cy="98.0381" rx="1.32088" ry="1.31267"/>
      <ellipse id="_384434664" class="fil4" cx="93.5684" cy="109.054" rx="2.28687" ry="2.27267"/>
     </g>
    </g>
   </g>
   <g>
    <ellipse id="_384435144" class="fil0 str0" cx="141.024" cy="99.2278" rx="18.7404" ry="18.2565"/>
    <ellipse id="_384434736" class="fil1 str0" cx="141.024" cy="99.2278" rx="13.7513" ry="13.3963"/>
    <ellipse id="_384434424" class="fil2 str0" cx="141.024" cy="99.2276" rx="8.93531" ry="8.7046"/>
    <ellipse id="_384434832" class="fil3 str0" cx="141.024" cy="99.2278" rx="6.56397" ry="6.39448"/>
    <g>
     <ellipse id="_384434472" class="fil1" cx="143.346" cy="95.8462" rx="2.32617" ry="2.26611"/>
     <ellipse id="_384434544" class="fil1" cx="138.031" cy="103.264" rx="1.65415" ry="1.61144"/>
    </g>
    <g>
     <ellipse id="_384433920" class="fil4" cx="145.485" cy="83.4374" rx="2.34353" ry="1.65083"/>
     <g>
      <ellipse id="_384434208" class="fil4" cx="125.605" cy="101.706" rx="1.93187" ry="2.72183"/>
      <ellipse id="_384433752" class="fil4" cx="135.864" cy="114.745" rx="1.93187" ry="1.91987"/>
      <ellipse id="_384433632" class="fil4" cx="155.167" cy="89.6543" rx="1.32088" ry="1.31267"/>
      <ellipse id="_384434352" class="fil4" cx="157.054" cy="98.0381" rx="1.32088" ry="1.31267"/>
      <ellipse id="_384433824" class="fil4" cx="156.059" cy="109.054" rx="2.28687" ry="2.27267"/>
     </g>
    </g>
   </g>
  </g>
  <g id="_384432360">
   <ellipse id="_384434280" class="fil0 str0" cx="109.779" cy="81.4204" rx="23.5369" ry="22.9292"/>
   <ellipse id="_384433992" class="fil1 str0" cx="109.779" cy="81.4204" rx="17.271" ry="16.825"/>
   <ellipse id="_384433704" class="fil2 str0" cx="109.779" cy="81.4202" rx="11.2223" ry="10.9325"/>
   <ellipse id="_384434136" class="fil3 str0" cx="109.779" cy="81.4204" rx="8.244" ry="8.03114"/>
   <g>
    <ellipse id="_384434160" class="fil1" cx="112.695" cy="77.1734" rx="2.92155" ry="2.84612"/>
    <ellipse id="_384433080" class="fil1" cx="106.019" cy="86.4896" rx="2.07753" ry="2.02389"/>
   </g>
   <g>
    <ellipse id="_384432960" class="fil4" cx="115.381" cy="61.5885" rx="2.94335" ry="2.07335"/>
    <g>
     <ellipse id="_384433488" class="fil4" cx="90.4138" cy="84.5335" rx="2.42633" ry="3.41848"/>
     <ellipse id="_384433056" class="fil4" cx="103.298" cy="100.91" rx="2.42633" ry="2.41126"/>
     <ellipse id="_384432912" class="fil4" cx="127.542" cy="69.3965" rx="1.65895" ry="1.64865"/>
     <ellipse id="_384433224" class="fil4" cx="129.911" cy="79.9263" rx="1.65895" ry="1.64865"/>
     <ellipse id="_384433560" class="fil4" cx="128.662" cy="93.7612" rx="2.87219" ry="2.85435"/>
    </g>
   </g>
   <ellipse id="_384433584" class="fil0 str0" cx="109.779" cy="81.4204" rx="23.5369" ry="22.9292"/>
   <ellipse id="_384433608" class="fil1 str0" cx="109.779" cy="81.4204" rx="17.271" ry="16.825"/>
   <ellipse id="_384433152" class="fil2 str0" cx="109.779" cy="81.4202" rx="11.2223" ry="10.9325"/>
   <ellipse id="_384433440" class="fil3 str0" cx="109.779" cy="81.4204" rx="8.244" ry="8.03114"/>
   <g>
    <ellipse id="_384432792" class="fil1" cx="112.695" cy="77.1734" rx="2.92155" ry="2.84612"/>
    <ellipse id="_384432768" class="fil1" cx="106.019" cy="86.4896" rx="2.07753" ry="2.02389"/>
   </g>
   <g>
    <ellipse id="_384432600" class="fil4" cx="115.381" cy="61.5885" rx="2.94335" ry="2.07335"/>
    <g>
     <ellipse id="_384432504" class="fil4" cx="90.4138" cy="84.5335" rx="2.42633" ry="3.41848"/>
     <ellipse id="_384432576" class="fil4" cx="103.298" cy="100.91" rx="2.42633" ry="2.41126"/>
     <ellipse id="_384432168" class="fil4" cx="127.542" cy="69.3965" rx="1.65895" ry="1.64865"/>
     <ellipse id="_384432216" class="fil4" cx="129.911" cy="79.9263" rx="1.65895" ry="1.64865"/>
     <ellipse id="_384432624" class="fil4" cx="128.662" cy="93.7612" rx="2.87219" ry="2.85435"/>
    </g>
   </g>
  </g>
 </g>
</svg>
