<?xml version="1.0" encoding="UTF-8"?>
<!DOCTYPE svg PUBLIC "-//W3C//DTD SVG 1.1//EN" "http://www.w3.org/Graphics/SVG/1.1/DTD/svg11.dtd">
<!-- Creator: CorelDRAW -->
<svg xmlns="http://www.w3.org/2000/svg" xml:space="preserve" width="215.9mm" height="279.4mm" style="shape-rendering:geometricPrecision; text-rendering:geometricPrecision; image-rendering:optimizeQuality; fill-rule:evenodd; clip-rule:evenodd"
viewBox="0 0 215.9 279.4">
 <defs>
  <style type="text/css">
   <![CDATA[
    .str1 {stroke:#1F1A17;stroke-width:0.0762}
    .str0 {stroke:#DA251D;stroke-width:1.4111}
    .fil2 {fill:#0A0B0C}
    .fil1 {fill:#DA251D}
    .fil3 {fill:white}
    .fil0 {fill:white}
   ]]>
  </style>
 </defs>
 <g id="cuerpo">
  <metadata id="CorelCorpID_0Corel-Layer"/>
  <path class="fil0 str0" d="M95.7326 54.3078c12.3655,2.4608 19.5765,18.6114 16.1029,36.0663 -3.4736,17.4552 -16.3184,29.615 -28.6839,27.1542 -12.3652,-2.4607 -19.5762,-18.6116 -16.1026,-36.0668 3.4736,-17.4549 16.3184,-29.6144 28.6836,-27.1537z"/>
  <path class="fil1" d="M66.4319 94.8002c-3.4428,-33.3003 33.2384,-61.0492 45.3177,-21.9379 -17.3065,-0.6798 -33.5342,2.5584 -45.3177,21.9379z"/>
  <ellipse class="fil2 str1" transform="matrix(1.65004 0.231143 -0.49331 1.74499 95.0313 84.9447)" rx="6.0345" ry="5.67"/>
  <path class="fil3 str1" d="M97.1095 80.8253l1.7143 3.1263c0.063,-0.0262 0.1264,-0.0547 0.1874,-0.0848 1.6128,-0.7976 2.069,-2.8064 1.019,-4.4859 -1.05,-1.6795 -3.2095,-2.3947 -4.8223,-1.5971 -0.5545,0.2741 -0.9951,0.708 -1.2696,1.2486l3.1712 1.7929z"/>
  <path class="fil0 str0" d="M95.7326 54.3078c12.3655,2.4608 19.5765,18.6114 16.1029,36.0663 -3.4736,17.4552 -16.3184,29.615 -28.6839,27.1542 -12.3652,-2.4607 -19.5762,-18.6116 -16.1026,-36.0668 3.4736,-17.4549 16.3184,-29.6144 28.6836,-27.1537z"/>
  <path class="fil1" d="M66.4319 94.8002c-3.4428,-33.3003 33.2384,-61.0492 45.3177,-21.9379 -17.3065,-0.6798 -33.5342,2.5584 -45.3177,21.9379z"/>
  <ellipse class="fil2 str1" transform="matrix(1.65004 0.231143 -0.49331 1.74499 95.0313 84.9447)" rx="6.0345" ry="5.67"/>
  <path class="fil3 str1" d="M97.1095 80.8253l1.7143 3.1263c0.063,-0.0262 0.1264,-0.0547 0.1874,-0.0848 1.6128,-0.7976 2.069,-2.8064 1.019,-4.4859 -1.05,-1.6795 -3.2095,-2.3947 -4.8223,-1.5971 -0.5545,0.2741 -0.9951,0.708 -1.2696,1.2486l3.1712 1.7929z"/>
  <path class="fil0 str0" d="M123.197 63.965c9.8757,-3.2535 21.334,6.3133 25.5878,21.3638 4.2538,15.0508 -0.3052,29.8947 -10.1809,33.1482 -9.8754,3.2534 -21.3338,-6.3136 -25.5876,-21.3644 -4.2538,-15.0505 0.3053,-29.8942 10.1807,-33.1476z"/>
  <path class="fil1" d="M117.737 107.762c-15.3812,-24.5028 0.3398,-61.4582 24.2035,-36.0398 -12.7511,6.707 -23.2065,16.0151 -24.2035,36.0398z"/>
  <ellipse class="fil2 str1" transform="matrix(1.28014 -0.509878 0.319866 1.56569 134.556 88.1256)" rx="6.0345" ry="5.67"/>
  <path class="fil3 str1" d="M134.461 84.0475l2.4479 1.7187c0.0353,-0.0469 0.07,-0.0955 0.1023,-0.1445 0.8549,-1.2957 0.4061,-3.0515 -1.0021,-3.9207 -1.4081,-0.8693 -3.2433,-0.5236 -4.0981,0.7722 -0.2939,0.4454 -0.4439,0.9676 -0.4325,1.5035l2.9825 0.0708z"/>
  <path class="fil0 str0" d="M123.197 63.965c9.8757,-3.2535 21.334,6.3133 25.5878,21.3638 4.2538,15.0508 -0.3052,29.8947 -10.1809,33.1482 -9.8754,3.2534 -21.3338,-6.3136 -25.5876,-21.3644 -4.2538,-15.0505 0.3053,-29.8942 10.1807,-33.1476z"/>
  <path class="fil1" d="M117.737 107.762c-15.3812,-24.5028 0.3398,-61.4582 24.2035,-36.0398 -12.7511,6.707 -23.2065,16.0151 -24.2035,36.0398z"/>
  <ellipse class="fil2 str1" transform="matrix(1.28014 -0.509878 0.319866 1.56569 134.556 88.1256)" rx="6.0345" ry="5.67"/>
  <path class="fil3 str1" d="M134.461 84.0475l2.4479 1.7187c0.0353,-0.0469 0.07,-0.0955 0.1023,-0.1445 0.8549,-1.2957 0.4061,-3.0515 -1.0021,-3.9207 -1.4081,-0.8693 -3.2433,-0.5236 -4.0981,0.7722 -0.2939,0.4454 -0.4439,0.9676 -0.4325,1.5035l2.9825 0.0708z"/>
 </g>
</svg>
