<?xml version="1.0" encoding="UTF-8"?>
<!DOCTYPE svg PUBLIC "-//W3C//DTD SVG 1.1//EN" "http://www.w3.org/Graphics/SVG/1.1/DTD/svg11.dtd">
<!-- Creator: CorelDRAW -->
<svg xmlns="http://www.w3.org/2000/svg" xml:space="preserve" width="215.9mm" height="279.4mm" style="shape-rendering:geometricPrecision; text-rendering:geometricPrecision; image-rendering:optimizeQuality; fill-rule:evenodd; clip-rule:evenodd"
viewBox="0 0 215.9 279.4">
 <defs>
  <style type="text/css">
   <![CDATA[
    .str0 {stroke:#1F1A17;stroke-width:0.0762}
    .str1 {stroke:#1F1A17;stroke-width:0.7056}
    .str2 {stroke:#1F1A17;stroke-width:1.4111}
    .fil3 {fill:#0A0B0C}
    .fil2 {fill:#84C225}
    .fil0 {fill:#F8C300}
    .fil1 {fill:white}
   ]]>
  </style>
 </defs>
 <g id="cuerpo">
  <metadata id="CorelCorpID_0Corel-Layer"/>
  <path class="fil0 str0" d="M155.16 88.9437l-10.0923 2.6649c-16.5639,8.1273 -26.8021,9.241 -31.7995,4.5442 -4.7577,24.0157 12.1733,39.928 35.8022,32.2662 13.1784,-8.5912 15.061,-23.9598 6.0896,-39.4753z"/>
  <path class="fil0 str0" d="M65.3486 88.9437l10.0923 2.6649c16.5639,8.1273 26.8021,9.241 31.7995,4.5442 4.7577,24.0157 -12.1733,39.928 -35.8021,32.2662 -13.1784,-8.5912 -15.0611,-23.9598 -6.0897,-39.4753z"/>
  <path class="fil0 str0" d="M162.625 89.5228c-2.0763,-6.87 -1.6104,-8.0208 -11.1738,-7.1425 -16.2389,3.4787 -12.6774,10.5228 -38.1831,13.7725 5.1307,4.3971 14.8053,4.2498 34.4762,-5.8933 6.5318,-1.6209 11.4922,-1.8662 14.8807,-0.7367z"/>
  <path class="fil0 str1" d="M155.16 88.9437l-10.0923 2.6649c-16.5639,8.1273 -26.8021,9.241 -31.7995,4.5442 -4.7577,24.0157 12.1733,39.928 35.8022,32.2662 13.1784,-8.5912 15.061,-23.9598 6.0896,-39.4753z"/>
  <path class="fil1 str0" d="M145.664 91.3136l-27.0703 8.0758c-3.6488,18.4185 9.3362,30.6223 27.4581,24.7461 9.9595,-3.9367 14.7435,-26.8159 -0.3878,-32.8219z"/>
  <circle class="fil2 str0" cx="136.989" cy="107.498" r="12.5365"/>
  <circle class="fil3 str0" cx="137.427" cy="107.059" r="8.99072"/>
  <circle class="fil1 str0" cx="133.306" cy="101.604" r="2.87636"/>
  <circle class="fil1 str0" cx="141.005" cy="111.956" r="2.10112"/>
  <path class="fil0 str0" d="M57.8835 89.5228c2.0763,-6.87 1.6104,-8.0208 11.1738,-7.1425 16.2389,3.4787 12.6774,10.5228 38.1831,13.7725 -5.1306,4.3971 -14.8053,4.2498 -34.4761,-5.8933 -6.5319,-1.6209 -11.4923,-1.8662 -14.8808,-0.7367z"/>
  <path class="fil0 str1" d="M65.3486 88.9437l10.0923 2.6649c16.5639,8.1273 26.8021,9.241 31.7995,4.5442 4.7577,24.0157 -12.1733,39.928 -35.8021,32.2662 -13.1784,-8.5912 -15.0611,-23.9598 -6.0897,-39.4753z"/>
  <path class="fil1 str0" d="M74.8443 91.3136l27.0703 8.0758c3.6488,18.4185 -9.3362,30.6223 -27.458,24.7461 -9.9596,-3.9367 -14.7436,-26.8159 0.3877,-32.8219z"/>
  <circle class="fil2 str0" cx="83.5196" cy="107.498" r="12.5365"/>
  <circle class="fil3 str0" cx="83.081" cy="107.059" r="8.99072"/>
  <circle class="fil1 str0" cx="87.2029" cy="101.604" r="2.87636"/>
  <circle class="fil1 str0" cx="79.5029" cy="111.956" r="2.10112"/>
  <path class="fil0 str2" d="M162.625 89.5228c-2.0763,-6.87 -1.6104,-8.0208 -11.1738,-7.1425 -16.2389,3.4787 -12.6774,10.5228 -38.1831,13.7725 5.1307,4.3971 14.8053,4.2498 34.4762,-5.8933 6.5318,-1.6209 11.4922,-1.8662 14.8807,-0.7367z"/>
  <path class="fil1 str1" d="M145.664 91.3136l-27.0703 8.0758c-3.6488,18.4185 9.3362,30.6223 27.4581,24.7461 9.9595,-3.9367 14.7435,-26.8159 -0.3878,-32.8219z"/>
  <circle class="fil2 str0" cx="136.989" cy="107.498" r="12.5365"/>
  <circle class="fil3 str0" cx="137.427" cy="107.059" r="8.99072"/>
  <circle class="fil1 str0" cx="133.306" cy="101.604" r="2.87636"/>
  <circle class="fil1 str0" cx="141.005" cy="111.956" r="2.10112"/>
  <path class="fil0 str2" d="M57.8835 89.5228c2.0763,-6.87 1.6104,-8.0208 11.1738,-7.1425 16.2389,3.4787 12.6774,10.5228 38.1831,13.7725 -5.1306,4.3971 -14.8053,4.2498 -34.4761,-5.8933 -6.5319,-1.6209 -11.4923,-1.8662 -14.8808,-0.7367z"/>
  <path class="fil1 str1" d="M74.8443 91.3136l27.0703 8.0758c3.6488,18.4185 -9.3362,30.6223 -27.458,24.7461 -9.9596,-3.9367 -14.7436,-26.8159 0.3877,-32.8219z"/>
  <circle class="fil2 str0" cx="83.5196" cy="107.498" r="12.5365"/>
  <circle class="fil3 str0" cx="83.081" cy="107.059" r="8.99072"/>
  <circle class="fil1 str0" cx="87.2029" cy="101.604" r="2.87636"/>
  <circle class="fil1 str0" cx="79.5029" cy="111.956" r="2.10112"/>
 </g>
</svg>
