<?xml version="1.0" encoding="UTF-8"?>
<!DOCTYPE svg PUBLIC "-//W3C//DTD SVG 1.1//EN" "http://www.w3.org/Graphics/SVG/1.1/DTD/svg11.dtd">
<!-- Creator: CorelDRAW -->
<svg xmlns="http://www.w3.org/2000/svg" xml:space="preserve" width="85mm" height="85mm" style="shape-rendering:geometricPrecision; text-rendering:geometricPrecision; image-rendering:optimizeQuality; fill-rule:evenodd; clip-rule:evenodd"
viewBox="0 0 85 85">
 <defs>
  <style type="text/css">
   <![CDATA[
    .fil1 {fill:white}
    .fil0 {fill:#F28000}
   ]]>
  </style>
 </defs>
 <g id="Capa_x0020_1">
  <metadata id="CorelCorpID_0Corel-Layer"/>
  <circle class="fil0" cx="42.5088" cy="42.7887" r="40"/>
  <path class="fil1" d="M21.7569 53.3936l5.0015 -0.2255c0.3259,-0.0055 0.599,-0.0708 0.83,-0.1929 0.2204,-0.1248 0.3796,-0.3672 0.465,-0.7211l6.2897 -26.0583c0.079,-0.3274 0.0309,-0.5918 -0.1314,-0.7996 -0.1626,-0.2077 -0.3653,-0.3878 -0.6211,-0.5338l-4.3373 -2.5264 0.472 -1.9554 9.6299 2.3244 1.8648 -7.7259 4.136 0.9984 -1.8648 7.7258 3.5687 0.8614c0.1654,0.0399 0.3286,0.0801 0.4906,0.1205l1.8652 -7.7278 4.1361 0.9983 -1.9129 7.9248c1.0701,0.3705 2.023,0.7577 2.8589,1.163 1.8732,0.911 3.2869,1.8703 4.2435,2.869 0.9671,1.0011 1.551,2.013 1.7583,3.0556 0.2094,1.0337 0.1882,2.0492 -0.0531,3.0491 -0.267,1.106 -0.7136,2.0751 -1.3588,2.8932 -0.6325,0.8118 -1.4106,1.4855 -2.3451,2.0184 -0.9345,0.5329 -2.0021,0.9213 -3.2259,1.169 -1.2216,0.2388 -2.5423,0.332 -3.9731,0.277l-0.047 0.1947c1.6731,0.4881 3.1681,1.1112 4.4912,1.8893 1.3147,0.7668 2.4028,1.638 3.2535,2.6112 0.8635,0.9669 1.458,2.0281 1.7857,3.1746 0.3403,1.1403 0.3568,2.3241 0.0599,3.5541 -0.3203,1.3272 -0.8286,2.4592 -1.5206,3.3784 -0.6941,0.9281 -1.5105,1.6673 -2.4747,2.2305 -0.9621,0.5544 -2.0444,0.958 -3.2576,1.2082 -1.2005,0.244 -2.4811,0.3563 -3.823,0.3508 -1.3418,-0.0055 -2.7257,-0.1148 -4.1727,-0.333 -0.1889,-0.0273 -0.378,-0.0561 -0.567,-0.086l-1.7827 7.3857 -4.136 -0.9983 1.7473 -7.2391 -4.0597 -0.9799 -1.7473 7.2391 -4.1361 -0.9983 1.7473 -7.2391 -9.6299 -2.3244 0.4827 -1.9997zm19.3276 -13.9033c2.0306,0.4901 3.776,0.771 5.2235,0.8488 1.4474,0.0778 2.6476,-0.0258 3.609,-0.2994 0.9636,-0.2824 1.7074,-0.7209 2.2336,-1.3243 0.5262,-0.6033 0.8855,-1.35 1.0948,-2.2171 0.2798,-1.1591 0.3392,-2.1935 0.1825,-3.1209 -0.1673,-0.93 -0.574,-1.7491 -1.2052,-2.4727 -0.6419,-0.7261 -1.5293,-1.3616 -2.673,-1.9093 -1.1438,-0.5476 -2.5502,-1.0275 -4.2424,-1.4359l-4.3574 -1.0518 -2.9537 12.2372 3.0883 0.7454zm-0.3107 17.1918c3.2681,0.7888 5.8182,0.8894 7.6397,0.299 1.8212,-0.5904 2.9968,-1.9828 3.5243,-4.1684 0.3118,-1.2918 0.3841,-2.426 0.2064,-3.4053 -0.1671,-0.9768 -0.6288,-1.8467 -1.3616,-2.6134 -0.7453,-0.7605 -1.7808,-1.4318 -3.1171,-2.0166 -1.3385,-0.5758 -3.0113,-1.1107 -5.0315,-1.5984l-5.3939 -1.3019 -3.1822 13.184 6.7159 1.621z"/>
 </g>
</svg>
