<?xml version="1.0" encoding="UTF-8"?>
<!DOCTYPE svg PUBLIC "-//W3C//DTD SVG 1.1//EN" "http://www.w3.org/Graphics/SVG/1.1/DTD/svg11.dtd">
<!-- Creator: CorelDRAW 2020 (64-Bit) -->
<svg xmlns="http://www.w3.org/2000/svg" xml:space="preserve" width="165.905mm" height="51.8267mm" version="1.1" style="shape-rendering:geometricPrecision; text-rendering:geometricPrecision; image-rendering:optimizeQuality; fill-rule:evenodd; clip-rule:evenodd"
viewBox="0 0 16829.06 5257.18"
 xmlns:xlink="http://www.w3.org/1999/xlink"
 xmlns:xodm="http://www.corel.com/coreldraw/odm/2003">
 <defs>
  <style type="text/css">
   <![CDATA[
    .fil0 {fill:#ED3237}
   ]]>
  </style>
 </defs>
 <g id="Capa_x0020_1">
  <metadata id="CorelCorpID_0Corel-Layer"/>
  <rect class="fil0" x="6305.33" y="26.01" width="741.73" height="5231.17" rx="370.87" ry="386.25"/>
  <path class="fil0" d="M6143.49 357.86l0 4515.48c-2238.37,200.3 -3296.46,-612.41 -3279.25,-2251.24 142.35,-1739.42 1193.66,-2537.44 3279.25,-2264.24z"/>
  <g id="_2147756260240">
   <rect class="fil0" x="1967.21" y="1984.47" width="696.19" height="1275.26" rx="348.1" ry="348.1"/>
   <path class="fil0" d="M-0 902.97c196.48,-231.06 363.19,-246.09 490.24,26.03 10.91,893.63 309.9,1477.08 1223.22,1398.89 150.74,58.55 132.31,474.96 -26.03,507.49 -1147.01,-14.64 -1668.19,-703.22 -1687.43,-1932.41z"/>
  </g>
  <path class="fil0" d="M10202.04 5231.16l-0.01 0c-203.98,0 -370.86,-166.88 -370.86,-370.86l0 -744.76c-15.63,2.54 -31.63,3.89 -47.94,3.89l-1581.07 0c-164.63,0 -299.3,-134.68 -299.3,-299.3l0 0c0,-164.62 134.67,-299.3 299.3,-299.3l1581.07 0c16.31,0 32.31,1.36 47.94,3.89l0 -1708.44c-15.63,2.54 -31.63,3.89 -47.94,3.89l-1581.07 0c-164.63,0 -299.3,-134.68 -299.3,-299.3l0 0c0,-164.62 134.67,-299.3 299.3,-299.3l1581.07 0c16.31,0 32.31,1.36 47.94,3.89l0 -854.58c0,-203.98 166.88,-370.86 370.86,-370.86l0.01 0c203.99,0 370.87,166.88 370.87,370.86l0 4489.45c0,203.98 -166.88,370.86 -370.87,370.86z"/>
  <path class="fil0" d="M10734.76 4899.32l0 -4515.48c2238.36,-200.29 3296.45,612.41 3279.24,2251.25 -142.35,1739.42 -1193.66,2537.44 -3279.24,2264.23z"/>
  <g id="_2147756258656">
   <rect class="fil0" x="14165.67" y="1997.45" width="696.19" height="1275.26" rx="348.1" ry="348.1"/>
   <path class="fil0" d="M16829.06 4305.04c-196.48,231.06 -363.19,246.09 -490.24,-26.03 -10.91,-893.64 -309.9,-1477.08 -1223.22,-1398.89 -150.73,-58.55 -132.3,-474.96 26.03,-507.5 1147.01,14.65 1668.19,703.23 1687.43,1932.42z"/>
  </g>
 </g>
</svg>
