<?xml version="1.0" encoding="UTF-8"?>
<!DOCTYPE svg PUBLIC "-//W3C//DTD SVG 1.1//EN" "http://www.w3.org/Graphics/SVG/1.1/DTD/svg11.dtd">
<!-- Creator: CorelDRAW -->
<svg xmlns="http://www.w3.org/2000/svg" xml:space="preserve" width="180mm" height="180mm" style="shape-rendering:geometricPrecision; text-rendering:geometricPrecision; image-rendering:optimizeQuality; fill-rule:evenodd; clip-rule:evenodd"
viewBox="0 0 180 180">
 <defs>
  <style type="text/css">
   <![CDATA[
    .str0 {stroke:#9933FF;stroke-width:1.4111}
    .fil3 {fill:white}
    .fil0 {fill:#6633CC}
    .fil1 {fill:#9900FF}
    .fil2 {fill:#9966FF}
   ]]>
  </style>
 </defs>
 <g id="Capa_x0020_1">
  <metadata id="CorelCorpID_0Corel-Layer"/>
  <circle class="fil0" cx="89.8628" cy="90.2709" r="86.0369"/>
  <circle class="fil1" cx="89.8628" cy="90.2709" r="81.5922"/>
  <circle class="fil2" cx="89.8629" cy="90.2709" r="74.7045"/>
  <path class="fil3 str0" d="M115.481 145.034c-0.4671,-0.2336 -0.9343,-0.4672 -1.4015,-0.6891 -8.9578,-5.2089 -17.9157,-10.4177 -26.8619,-15.6149 -1.9854,-1.5767 -2.8847,-3.1651 -3.4103,-5.606 0,-3.9475 0.0117,-7.8951 0.0234,-11.8426 4.0994,-2.3825 8.1987,-4.7534 12.2981,-7.1242 0.0467,3.9241 -0.1051,7.9418 0.2336,11.8426 0.5489,2.5577 1.7635,3.9825 3.8073,5.4658 4.695,2.7212 9.39,5.4541 14.085,8.187 2.0088,0.8643 3.7724,1.0745 5.933,0.7241 0.7591,-0.2569 0.7591,-0.2569 1.7869,-0.7241 4.5432,-2.7095 9.0863,-5.4074 13.6295,-8.1053 2.3358,-1.5883 3.492,-3.3752 4.0059,-6.1432 0,-5.968 0,-11.9243 0,-17.8807 -0.2336,-2.1022 -1.1796,-3.6555 -2.5694,-5.1621 -0.5489,-0.3737 -1.0861,-0.7475 -1.6234,-1.1212 -4.6366,-2.6979 -9.2732,-5.3841 -13.9098,-8.0703 -0.3153,-0.1284 -0.6306,-0.2569 -0.946,-0.3737 -2.5577,-0.7241 -4.4147,-0.6073 -6.8322,0.5606 -15.9887,9.2849 -31.9774,18.5814 -47.9544,27.878 -2.6511,1.2029 -4.7417,1.4132 -7.4746,0.5022 -26.9553,-15.5916 -26.9553,-15.5916 -27.878,-16.1989 -1.6467,-1.4248 -2.6161,-2.8731 -3.0599,-5.022 -0.035,0 -0.0701,0 -0.0934,0 0,-11.1769 0,-22.3538 0,-33.519 0.0233,0 0.0584,0 0.0934,0 0.4438,-2.1606 1.3781,-3.457 3.095,-4.8001 9.3199,-5.4308 18.6398,-10.8615 27.9714,-16.2923 0.327,-0.1402 0.6657,-0.2686 1.0044,-0.3971 1.6934,0 3.3869,0 5.0804,0 0.2803,0.1285 0.5723,0.2569 0.8642,0.3854 8.8528,5.1972 17.7172,10.3944 26.5816,15.6033 2.3008,1.5766 3.3753,3.3402 3.9009,6.0731 0.0116,4.0059 0.0233,8.0118 0.035,12.0178 -4.1578,2.3825 -8.3155,4.765 -12.4616,7.1476 -0.0234,-3.9008 -0.0467,-7.8017 -0.0584,-11.7025 -0.4321,-2.2657 -1.2497,-3.7373 -2.9081,-5.3256 -5.0687,-3.0833 -10.1374,-6.1666 -15.1945,-9.2382 -2.4643,-0.9343 -4.4147,-1.0978 -6.914,-0.2453 -4.4964,2.5461 -4.4964,2.5461 -15.0427,8.701 -0.3153,0.2452 -0.6306,0.4905 -0.9343,0.7357 -1.7635,1.7636 -2.3708,3.2935 -2.6979,5.7578 0,5.606 0,11.212 0,16.8179 0.0351,0.3621 0.0818,0.7241 0.1285,1.0979 0.6073,2.3942 1.6351,3.9125 3.6439,5.3373 4.6132,2.7913 9.2265,5.5826 13.8397,8.3739 2.546,1.273 4.8585,1.5533 7.5797,0.5139 6.5987,-3.9242 13.1974,-7.8484 19.8078,-11.7725 9.8454,-5.4425 19.5624,-11.1185 29.2561,-16.8296 2.546,-1.2029 5.0454,-1.5183 7.6731,-0.3621 18.7567,10.8499 18.7567,10.8499 27.6094,16.0471 1.8687,1.6584 2.6862,3.1884 3.2351,5.6293 0,10.9083 0,21.8166 0,32.7365 -0.5139,2.3826 -1.273,3.7957 -3.0716,5.4658 -2.1022,1.2964 -2.1022,1.2964 -27.3524,15.9303 -0.4905,0.2102 -0.981,0.4205 -1.4716,0.6307 -1.6934,0 -3.3869,0 -5.0804,0z"/>
 </g>
</svg>
