<?xml version="1.0" encoding="UTF-8"?>
<!DOCTYPE svg PUBLIC "-//W3C//DTD SVG 1.1//EN" "http://www.w3.org/Graphics/SVG/1.1/DTD/svg11.dtd">
<!-- Creator: CorelDRAW -->
<svg xmlns="http://www.w3.org/2000/svg" xml:space="preserve" width="180mm" height="180mm" style="shape-rendering:geometricPrecision; text-rendering:geometricPrecision; image-rendering:optimizeQuality; fill-rule:evenodd; clip-rule:evenodd"
viewBox="0 0 180 180">
 <defs>
  <style type="text/css">
   <![CDATA[
    .str1 {stroke:#1F1A17;stroke-width:0.0762}
    .str0 {stroke:#1F1A17;stroke-width:8.4667}
    .str2 {stroke:#1F1A17;stroke-width:8.4667;stroke-linejoin:bevel}
    .str3 {stroke:white;stroke-width:8.4667}
    .fil0 {fill:none}
    .fil1 {fill:#0A0B0C}
    .fil2 {fill:#66CC00}
    .fil3 {fill:white;fill-rule:nonzero}
   ]]>
  </style>
 </defs>
 <g id="Capa_x0020_1">
  <metadata id="CorelCorpID_0Corel-Layer"/>
  <path class="fil0 str0" d="M58.2753 17.7135l79.7492 0c9.3775,0 17.0499,7.6724 17.0499,17.0498l0 114.949c0,9.3774 -7.6724,17.0498 -17.0499,17.0498l-112.251 0c-9.3774,0 -17.0498,-7.6724 -17.0498,-17.0498l0 -78.6493 49.5513 -53.3494z"/>
  <rect class="fil1 str1" x="41.7755" y="125.787" width="84.6992" height="10.4499" rx="8.246" ry="8.246"/>
  <rect class="fil1 str1" x="41.7755" y="95.2082" width="84.6992" height="10.4499" rx="8.246" ry="8.246"/>
  <polygon class="fil0 str2" points="8.724,73.4986 61.0376,72.5208 61.0376,17.7135 "/>
  <circle class="fil2 str3" cx="132.67" cy="45.1777" r="39.6021"/>
  <path class="fil3" d="M126.44 67.3549l12.4592 0 0 -17.7417 15.9476 0 0 -8.8709 -15.9476 0 0 -17.7419 -12.4592 0 0 17.7419 -15.9477 0 0 8.8709 15.9477 0 0 17.7417zm6.2296 0m6.2296 -8.871m7.9737 -8.8707m7.9739 -4.4354m-7.9739 -4.4355m-7.9737 -8.8709m-6.2296 -8.871m-6.2296 8.871m-7.9737 8.8709m-7.974 4.4355m7.974 4.4354m7.9737 8.8707"/>
 </g>
</svg>
