<?xml version="1.0" encoding="UTF-8"?>
<!DOCTYPE svg PUBLIC "-//W3C//DTD SVG 1.1//EN" "http://www.w3.org/Graphics/SVG/1.1/DTD/svg11.dtd">
<!-- Creator: CorelDRAW 2020 (64-Bit) -->
<svg xmlns="http://www.w3.org/2000/svg" xml:space="preserve" width="163.712mm" height="173.57mm" version="1.1" style="shape-rendering:geometricPrecision; text-rendering:geometricPrecision; image-rendering:optimizeQuality; fill-rule:evenodd; clip-rule:evenodd"
viewBox="0 0 15083.73 15991.97"
 xmlns:xlink="http://www.w3.org/1999/xlink"
 xmlns:xodm="http://www.corel.com/coreldraw/odm/2003">
 <defs>
  <style type="text/css">
   <![CDATA[
    .str1 {stroke:#FEFEFE;stroke-width:780.09;stroke-miterlimit:22.9256}
    .str0 {stroke:#373435;stroke-width:780.09;stroke-miterlimit:22.9256}
    .fil2 {fill:none}
    .fil0 {fill:#FEFEFE}
    .fil1 {fill:#201E1E}
    .fil3 {fill:lime}
    .fil4 {fill:#FEFEFE;fill-rule:nonzero}
   ]]>
  </style>
 </defs>
 <g id="Capa_x0020_1">
  <metadata id="CorelCorpID_0Corel-Layer"/>
  <path class="fil0 str0" d="M4571.16 1417.89l5791.78 0 4329.93 3871.45 -39.73 8400.82c-4.97,1051.44 -997.48,1911.77 -2216.6,1911.77l-7865.37 0c-1219.14,0 -2216.6,-860.29 -2216.6,-1911.77l0 -10360.51c0,-1051.47 997.46,-1911.76 2216.6,-1911.76z"/>
  <path class="fil1" d="M5132.79 6744.56l6622.96 0c426.87,0 776.12,260.18 776.12,578.18l0 0c0,317.99 -349.25,578.16 -776.12,578.16l-6622.96 0c-426.87,0 -776.13,-260.17 -776.13,-578.16l0 0c0,-318 349.26,-578.18 776.13,-578.18z"/>
  <path class="fil1" d="M5132.79 11508.21l6622.96 0c426.87,0 776.12,260.17 776.12,578.17l0 0c0,318.01 -349.25,578.18 -776.12,578.18l-6622.96 0c-426.87,0 -776.13,-260.17 -776.13,-578.18l0 0c0,-318 349.26,-578.17 776.13,-578.17z"/>
  <path class="fil1" d="M5006.07 9022.83l5541.67 0c357.17,0 649.41,260.17 649.41,578.17l0 0c0,318 -292.24,578.17 -649.41,578.17l-5541.67 0c-357.18,0 -649.42,-260.17 -649.42,-578.17l0 0c0,-318 292.24,-578.17 649.42,-578.17z"/>
  <path class="fil2 str0" d="M9850.26 1417.89l5.06 3418.45c-85.09,568.85 242.79,818.05 983.65,747.63l3852.05 96.48 1.85 -391.12 -4329.93 -3871.45 -512.68 0z"/>
  <ellipse class="fil3 str1" cx="3365.64" cy="3351.65" rx="2975.59" ry="2961.6"/>
  <path class="fil4" d="M2678.45 5237.4l1374.36 0 0 -1374.35 1374.35 0 0 -1022.78 -1374.35 0 0 -1374.35 -1374.36 0 0 1374.35 -1374.35 0 0 1022.78 1374.35 0 0 1374.35zm687.18 0m687.18 -687.18m687.18 -687.18m687.18 -511.39m-687.18 -511.39m-687.18 -687.18m-687.18 -687.18m-687.18 687.18m-687.18 687.18m-687.18 511.39m687.18 511.39m687.18 687.18"/>
 </g>
</svg>
