<?xml version="1.0" encoding="UTF-8"?>
<!DOCTYPE svg PUBLIC "-//W3C//DTD SVG 1.1//EN" "http://www.w3.org/Graphics/SVG/1.1/DTD/svg11.dtd">
<!-- Creator: CorelDRAW -->
<svg xmlns="http://www.w3.org/2000/svg" xml:space="preserve" width="180mm" height="180mm" style="shape-rendering:geometricPrecision; text-rendering:geometricPrecision; image-rendering:optimizeQuality; fill-rule:evenodd; clip-rule:evenodd"
viewBox="0 0 180 180">
 <defs>
  <style type="text/css">
   <![CDATA[
    .str0 {stroke:#FFFCC8;stroke-width:2.8222}
    .fil4 {fill:none;fill-rule:nonzero}
    .fil0 {fill:#80730F}
    .fil1 {fill:#E6B012}
    .fil2 {fill:#EDCF3D}
    .fil3 {fill:#82660D;fill-rule:nonzero}
   ]]>
  </style>
 </defs>
 <g id="Capa_x0020_1">
  <metadata id="CorelCorpID_0Corel-Layer"/>
  <circle class="fil0" cx="89.0626" cy="91.0724" r="86.0369"/>
  <circle class="fil1" cx="89.0626" cy="91.0724" r="81.5922"/>
  <circle class="fil2" cx="89.0627" cy="91.0724" r="74.7045"/>
  <path class="fil3" d="M43.12 69.8451c4.1419,0 7.3904,0.6061 9.7591,1.8122 1.7934,1.3577 2.6936,2.9396 2.6936,4.7396 0,2.4244 -1.2927,5.0245 -3.8847,7.7943 -1.1506,0.7333 -3.1268,0.503 -5.9285,-0.691 -5.1706,-0.8182 -9.1568,0.2061 -11.9722,3.0729 -0.6768,1.7273 0.0474,2.4183 2.1792,2.0789 1.7935,0 4.6021,-0.4182 8.4056,-1.2486 5.9217,-0.8 10.4899,-0.4788 13.6978,0.9819 3.6749,2.5092 5.4345,5.6184 5.2789,9.3398 -0.0677,2.6243 -0.9746,5.4244 -2.7207,8.3942 -1.719,2.2607 -3.6072,4.2063 -5.6713,5.8245 -4.0132,2.9395 -11.1262,5.679 -21.3318,8.2246 -2.7478,0.4606 -4.9269,0.6909 -6.5445,0.6909 -4.0674,0 -7.255,-0.5091 -9.556,-1.5273 -2.5515,-1.2667 -3.8238,-3.0365 -3.8238,-5.3093 0,-2.3092 0.2368,-4.3032 0.7106,-5.9821 0.264,-1.5394 1.0626,-3.4001 2.4026,-5.576 1.2249,-1.4 2.2672,-2.097 3.1131,-2.097 0.8866,-0.1637 4.4126,0.297 10.5848,1.3879 4.4396,0.4 8.6965,-0.0606 12.7707,-1.3879 4.893,-2.0607 7.2753,-3.6365 7.1602,-4.7396 0,-0.9697 -1.0964,-1.297 -3.2756,-0.9758 -2.4432,0.2849 -6.6458,1.2122 -12.6082,2.788 -2.1048,0.4606 -4.1757,0.6909 -6.2263,0.6909 -3.0929,0.1758 -5.4616,-0.6848 -7.0994,-2.594 -1.3738,-2.2365 -2.1183,-4.8548 -2.2401,-7.8488 0,-6.0972 3.0048,-10.7459 9.0214,-13.9521 1.0151,-0.9394 3.6681,-1.9576 7.952,-3.0547 2.7884,-0.5576 5.1706,-0.8364 7.1535,-0.8364z"/>
  <path class="fil3" d="M79.3274 87.264c5.0081,0.5334 8.3852,3.3153 10.1313,8.3458 1.3061,6.4366 1.0422,11.9702 -0.7918,16.6007 -2.3417,4.6608 -5.5902,6.8851 -9.7388,6.6548 -5.0217,-0.2546 -8.771,-3.3516 -11.2412,-9.2852 -1.6108,-7.0548 -1.0963,-12.6005 1.5499,-16.6371 2.8762,-3.6243 6.2398,-5.5153 10.0906,-5.679zm-0.758 12.1763c-1.5295,0.6424 -2.301,2.3455 -2.3145,5.1153 0.142,2.6547 1.2249,4.0547 3.2485,4.2063 1.9694,-0.2243 2.9777,-2.0607 3.0115,-5.5215 -0.4871,-2.7819 -1.8001,-4.0486 -3.9455,-3.8001z"/>
  <path class="fil3" d="M113.031 71.8513c3.2012,-0.1697 5.5901,0.1758 7.1603,1.0303 0.9271,0.6849 1.4414,1.6607 1.5498,2.9274 0.1963,2.3941 -0.2572,5.2487 -1.3536,8.5761 -0.7918,2.8183 -1.8476,4.2729 -3.1673,4.3699l-1.6513 -0.3212c-3.9523,-0.4243 -7.4513,0.6303 -10.5035,3.1759 -1.7732,1.8243 -2.5718,3.788 -2.4025,5.8972 0.3451,2.3819 1.8611,3.8062 4.5411,4.2789 2.0777,0.0606 4.2974,-1.1455 6.6595,-3.6244l0.4195 -0.0121c1.0422,0.0788 2.1928,2.1274 3.4516,6.1397l-0.0203 0.3575c-1.2453,2.4971 -2.9034,4.4851 -4.9811,5.9639 -3.2079,2.5819 -6.558,3.8608 -10.0501,3.8365 -3.1064,0.0364 -5.9082,-2.0243 -8.4054,-6.182 -1.0558,-2.3516 -1.7394,-5.3215 -2.0439,-8.9095 -0.1828,-3.6971 0.4263,-7.3215 1.8272,-10.8853 1.1641,-2.9152 2.4702,-5.2729 3.9253,-7.0851 4.6359,-5.6851 9.6575,-8.861 15.0447,-9.5337z"/>
  <path class="fil3" d="M138.037 61.8872c3.8846,0 6.2263,2.6486 7.0181,7.9519 0.5143,12.0793 0.8256,19.2795 0.9271,21.613 0.0272,0.1879 0.1354,0.2848 0.3182,0.2848 0.4804,-0.2121 1.8814,-1.5637 4.2027,-4.0486 2.3823,-3.5274 4.0945,-5.8972 5.1366,-7.1033 0.5821,-0.5576 1.2048,-0.8364 1.8679,-0.8364 1.6379,0 3.5599,1.6243 5.7662,4.8668 0.6903,1.5759 1.0963,2.9699 1.2318,4.1881 0,2.3819 -1.0829,3.9638 -3.2554,4.7456 -3.8576,1.1455 -7.4039,2.8608 -10.6456,5.1457 1.6378,-0.697 3.6275,-1.1576 5.9691,-1.3819l1.2453 0c3.2553,0 5.4818,1.1576 6.6866,3.4789 0.3925,0.9334 0.5548,1.8244 0.4736,2.6608 -0.406,2.6182 -2.2265,6.1032 -5.4547,10.461l-1.0896 1.3819 0 0.1454c3.2147,-0.8424 5.1908,-1.2606 5.9285,-1.2606 0.8866,0.0848 1.252,0.6 1.0896,1.5455 -0.6023,3.7032 -2.1657,6.673 -4.6765,8.9094 -3.1064,2.582 -6.5309,3.7941 -10.2734,3.6426 -1.7258,-0.1394 -3.1268,-1.0061 -4.2027,-2.594 -0.352,-0.8122 -0.4062,-1.6728 -0.1557,-2.5698 0,-1.6122 1.137,-4.2184 3.4109,-7.8185 2.3348,-4.1881 3.4313,-6.9276 3.2688,-8.2186 -0.6565,-0.8424 -1.5363,-1.2606 -2.6326,-1.2606 -3.323,0.4 -4.981,0.8243 -4.981,1.2606 -0.6362,7.1034 -1.4145,12.2187 -2.3417,15.3401 -1.5701,4.085 -3.2824,6.1275 -5.1299,6.1275 -2.4635,0 -5.3127,-0.7879 -8.5679,-2.3638 -1.1371,-0.5636 -1.9694,-1.6364 -2.4974,-3.2122l-0.1625 -0.6909c2.2606,-7.5155 3.4043,-15.7461 3.4313,-24.6798 0,-7.4124 -1.0354,-14.7582 -3.1131,-22.0373 -0.6158,-1.6122 -1.0355,-3.194 -1.2453,-4.7396 0,-2.5455 2.6462,-5.0123 7.9521,-7.3881 1.7054,-0.891 3.2011,-1.4062 4.5006,-1.5456z"/>
  <path class="fil4 str0" d="M43.12 69.8451c4.1419,0 7.3904,0.6061 9.7591,1.8122 1.7934,1.3577 2.6936,2.9396 2.6936,4.7396 0,2.4244 -1.2927,5.0245 -3.8847,7.7943 -1.1506,0.7333 -3.1268,0.503 -5.9285,-0.691 -5.1706,-0.8182 -9.1568,0.2061 -11.9722,3.0729 -0.6768,1.7273 0.0474,2.4183 2.1792,2.0789 1.7935,0 4.6021,-0.4182 8.4056,-1.2486 5.9217,-0.8 10.4899,-0.4788 13.6978,0.9819 3.6749,2.5092 5.4345,5.6184 5.2789,9.3398 -0.0677,2.6243 -0.9746,5.4244 -2.7207,8.3942 -1.719,2.2607 -3.6072,4.2063 -5.6713,5.8245 -4.0132,2.9395 -11.1262,5.679 -21.3318,8.2246 -2.7478,0.4606 -4.9269,0.6909 -6.5445,0.6909 -4.0674,0 -7.255,-0.5091 -9.556,-1.5273 -2.5515,-1.2667 -3.8238,-3.0365 -3.8238,-5.3093 0,-2.3092 0.2368,-4.3032 0.7106,-5.9821 0.264,-1.5394 1.0626,-3.4001 2.4026,-5.576 1.2249,-1.4 2.2672,-2.097 3.1131,-2.097 0.8866,-0.1637 4.4126,0.297 10.5848,1.3879 4.4396,0.4 8.6965,-0.0606 12.7707,-1.3879 4.893,-2.0607 7.2753,-3.6365 7.1602,-4.7396 0,-0.9697 -1.0964,-1.297 -3.2756,-0.9758 -2.4432,0.2849 -6.6458,1.2122 -12.6082,2.788 -2.1048,0.4606 -4.1757,0.6909 -6.2263,0.6909 -3.0929,0.1758 -5.4616,-0.6848 -7.0994,-2.594 -1.3738,-2.2365 -2.1183,-4.8548 -2.2401,-7.8488 0,-6.0972 3.0048,-10.7459 9.0214,-13.9521 1.0151,-0.9394 3.6681,-1.9576 7.952,-3.0547 2.7884,-0.5576 5.1706,-0.8364 7.1535,-0.8364z"/>
  <path class="fil4 str0" d="M79.3274 87.264c5.0081,0.5334 8.3852,3.3153 10.1313,8.3458 1.3061,6.4366 1.0422,11.9702 -0.7918,16.6007 -2.3417,4.6608 -5.5902,6.8851 -9.7388,6.6548 -5.0217,-0.2546 -8.771,-3.3516 -11.2412,-9.2852 -1.6108,-7.0548 -1.0963,-12.6005 1.5499,-16.6371 2.8762,-3.6243 6.2398,-5.5153 10.0906,-5.679zm-0.758 12.1763c-1.5295,0.6424 -2.301,2.3455 -2.3145,5.1153 0.142,2.6547 1.2249,4.0547 3.2485,4.2063 1.9694,-0.2243 2.9777,-2.0607 3.0115,-5.5215 -0.4871,-2.7819 -1.8001,-4.0486 -3.9455,-3.8001z"/>
  <path class="fil4 str0" d="M113.031 71.8513c3.2012,-0.1697 5.5901,0.1758 7.1603,1.0303 0.9271,0.6849 1.4414,1.6607 1.5498,2.9274 0.1963,2.3941 -0.2572,5.2487 -1.3536,8.5761 -0.7918,2.8183 -1.8476,4.2729 -3.1673,4.3699l-1.6513 -0.3212c-3.9523,-0.4243 -7.4513,0.6303 -10.5035,3.1759 -1.7732,1.8243 -2.5718,3.788 -2.4025,5.8972 0.3451,2.3819 1.8611,3.8062 4.5411,4.2789 2.0777,0.0606 4.2974,-1.1455 6.6595,-3.6244l0.4195 -0.0121c1.0422,0.0788 2.1928,2.1274 3.4516,6.1397l-0.0203 0.3575c-1.2453,2.4971 -2.9034,4.4851 -4.9811,5.9639 -3.2079,2.5819 -6.558,3.8608 -10.0501,3.8365 -3.1064,0.0364 -5.9082,-2.0243 -8.4054,-6.182 -1.0558,-2.3516 -1.7394,-5.3215 -2.0439,-8.9095 -0.1828,-3.6971 0.4263,-7.3215 1.8272,-10.8853 1.1641,-2.9152 2.4702,-5.2729 3.9253,-7.0851 4.6359,-5.6851 9.6575,-8.861 15.0447,-9.5337z"/>
  <path class="fil4 str0" d="M138.037 61.8872c3.8846,0 6.2263,2.6486 7.0181,7.9519 0.5143,12.0793 0.8256,19.2795 0.9271,21.613 0.0272,0.1879 0.1354,0.2848 0.3182,0.2848 0.4804,-0.2121 1.8814,-1.5637 4.2027,-4.0486 2.3823,-3.5274 4.0945,-5.8972 5.1366,-7.1033 0.5821,-0.5576 1.2048,-0.8364 1.8679,-0.8364 1.6379,0 3.5599,1.6243 5.7662,4.8668 0.6903,1.5759 1.0963,2.9699 1.2318,4.1881 0,2.3819 -1.0829,3.9638 -3.2554,4.7456 -3.8576,1.1455 -7.4039,2.8608 -10.6456,5.1457 1.6378,-0.697 3.6275,-1.1576 5.9691,-1.3819l1.2453 0c3.2553,0 5.4818,1.1576 6.6866,3.4789 0.3925,0.9334 0.5548,1.8244 0.4736,2.6608 -0.406,2.6182 -2.2265,6.1032 -5.4547,10.461l-1.0896 1.3819 0 0.1454c3.2147,-0.8424 5.1908,-1.2606 5.9285,-1.2606 0.8866,0.0848 1.252,0.6 1.0896,1.5455 -0.6023,3.7032 -2.1657,6.673 -4.6765,8.9094 -3.1064,2.582 -6.5309,3.7941 -10.2734,3.6426 -1.7258,-0.1394 -3.1268,-1.0061 -4.2027,-2.594 -0.352,-0.8122 -0.4062,-1.6728 -0.1557,-2.5698 0,-1.6122 1.137,-4.2184 3.4109,-7.8185 2.3348,-4.1881 3.4313,-6.9276 3.2688,-8.2186 -0.6565,-0.8424 -1.5363,-1.2606 -2.6326,-1.2606 -3.323,0.4 -4.981,0.8243 -4.981,1.2606 -0.6362,7.1034 -1.4145,12.2187 -2.3417,15.3401 -1.5701,4.085 -3.2824,6.1275 -5.1299,6.1275 -2.4635,0 -5.3127,-0.7879 -8.5679,-2.3638 -1.1371,-0.5636 -1.9694,-1.6364 -2.4974,-3.2122l-0.1625 -0.6909c2.2606,-7.5155 3.4043,-15.7461 3.4313,-24.6798 0,-7.4124 -1.0354,-14.7582 -3.1131,-22.0373 -0.6158,-1.6122 -1.0355,-3.194 -1.2453,-4.7396 0,-2.5455 2.6462,-5.0123 7.9521,-7.3881 1.7054,-0.891 3.2011,-1.4062 4.5006,-1.5456z"/>
 </g>
</svg>
