<?xml version="1.0" encoding="UTF-8"?>
<!DOCTYPE svg PUBLIC "-//W3C//DTD SVG 1.1//EN" "http://www.w3.org/Graphics/SVG/1.1/DTD/svg11.dtd">
<!-- Creator: CorelDRAW -->
<svg xmlns="http://www.w3.org/2000/svg" xml:space="preserve" width="190mm" height="190mm" style="shape-rendering:geometricPrecision; text-rendering:geometricPrecision; image-rendering:optimizeQuality; fill-rule:evenodd; clip-rule:evenodd"
viewBox="0 0 190 190">
 <defs>
  <style type="text/css">
   <![CDATA[
    .str0 {stroke:#1F1A17;stroke-width:0.0762}
    .str2 {stroke:#0A0B0C;stroke-width:0.7056}
    .str3 {stroke:#969594;stroke-width:1.4111}
    .str1 {stroke:white;stroke-width:1.4111}
    .fil0 {fill:#0A0B0C}
    .fil1 {fill:#C2C1C1}
    .fil2 {fill:#DEDEDD}
    .fil4 {fill:white}
    .fil3 {fill:#00CC00}
    .fil5 {fill:lime}
   ]]>
  </style>
 </defs>
 <g id="Capa_x0020_1">
  <metadata id="CorelCorpID_0Corel-Layer"/>
  <circle class="fil0 str0" cx="94.3735" cy="94.3577" r="90"/>
  <ellipse class="fil1 str1" cx="112.542" cy="112.142" rx="39.0163" ry="38.8329"/>
  <ellipse class="fil2 str2" cx="112.542" cy="112.142" rx="29.4637" ry="29.3252"/>
  <ellipse class="fil3 str1" cx="76.5053" cy="76.2745" rx="39.0163" ry="38.8329"/>
  <path class="fil4 str3" d="M88.5159 31.7701l34.7315 -5.9902c-3.3186,1.8781 -5.6842,4.5862 -7.3977,7.8621 27.008,6.1042 57.3773,23.8459 58.4294,51.9149 -8.9603,-11.4074 -11.905,-1.7295 -13.1654,13.8523 -1.7659,-34.2876 -21.3886,-55.1908 -46.3924,-61.025 0.8504,4.1536 2.0583,7.4773 3.5108,10.2332 -9.7487,-7.3317 -19.6332,-13.1763 -29.7162,-16.8473z"/>
  <path class="fil4 str3" d="M102.205 157.981l-34.7316 5.9901c3.3186,-1.8781 5.6842,-4.5862 7.3977,-7.8621 -27.0079,-6.1042 -57.3773,-23.8458 -58.4293,-51.9149 8.9602,11.4074 11.905,1.7295 13.1654,-13.8523 1.7658,34.2876 21.3886,55.1908 46.3923,61.025 -0.8504,-4.1536 -2.0583,-7.4773 -3.5107,-10.2332 9.7487,7.3318 19.6332,13.1764 29.7162,16.8474z"/>
  <ellipse class="fil5 str2" cx="76.9015" cy="76.282" rx="29.4637" ry="29.3252"/>
 </g>
</svg>
