<?xml version="1.0" encoding="UTF-8"?>
<!DOCTYPE svg PUBLIC "-//W3C//DTD SVG 1.1//EN" "http://www.w3.org/Graphics/SVG/1.1/DTD/svg11.dtd">
<!-- Creator: CorelDRAW 2020 (64-Bit) -->
<svg xmlns="http://www.w3.org/2000/svg" xml:space="preserve" width="816.435mm" height="358.14mm" version="1.1" style="shape-rendering:geometricPrecision; text-rendering:geometricPrecision; image-rendering:optimizeQuality; fill-rule:evenodd; clip-rule:evenodd"
viewBox="0 0 81798.73 35882.12"
 xmlns:xlink="http://www.w3.org/1999/xlink"
 xmlns:xodm="http://www.corel.com/coreldraw/odm/2003">
 <defs>
  <style type="text/css">
   <![CDATA[
    .str11 {stroke:#ED3237;stroke-width:141.38;stroke-miterlimit:22.9256}
    .str7 {stroke:#373435;stroke-width:282.76;stroke-miterlimit:22.9256}
    .str1 {stroke:#FFF212;stroke-width:282.76;stroke-miterlimit:22.9256}
    .str4 {stroke:#91D8F7;stroke-width:282.76;stroke-miterlimit:22.9256}
    .str10 {stroke:#201E1E;stroke-width:282.76;stroke-miterlimit:22.9256}
    .str9 {stroke:#00AFEF;stroke-width:424.14;stroke-miterlimit:22.9256}
    .str5 {stroke:#0098DA;stroke-width:565.51;stroke-miterlimit:22.9256}
    .str3 {stroke:#ED3237;stroke-width:848.28;stroke-miterlimit:22.9256}
    .str0 {stroke:#00AFEF;stroke-width:848.28;stroke-miterlimit:22.9256}
    .str2 {stroke:#67007A;stroke-width:848.28;stroke-miterlimit:22.9256}
    .str6 {stroke:#373435;stroke-width:20.04;stroke-miterlimit:22.9256}
    .str8 {stroke:#373435;stroke-width:7.63;stroke-miterlimit:22.9256}
    .fil10 {fill:none}
    .fil13 {fill:none;fill-rule:nonzero}
    .fil11 {fill:#FEFEFE}
    .fil8 {fill:#FEFEFE}
    .fil0 {fill:#373435}
    .fil9 {fill:#91D8F7}
    .fil7 {fill:#91D8F7}
    .fil5 {fill:#00AFEF}
    .fil6 {fill:#0098DA}
    .fil12 {fill:#FEFEFE;fill-rule:nonzero}
    .fil4 {fill:#00AFEF;fill-rule:nonzero}
    .fil1 {fill:#39D51F;fill-rule:nonzero}
    .fil3 {fill:#F80EC0;fill-rule:nonzero}
    .fil2 {fill:#9D5AC5;fill-rule:nonzero}
   ]]>
  </style>
 </defs>
 <g id="Capa_x0020_1">
  <metadata id="CorelCorpID_0Corel-Layer"/>
  <rect class="fil0 str0" x="424.15" y="424.15" width="80950.44" height="35033.83"/>
  <path class="fil1 str1" d="M59110.7 3538.98l0 4209.09 -4294.21 0 5811.18 3487.54 5811.18 -3487.54 -4294.21 0 0 -4209.09 -1516.97 910.4 -1516.97 -910.4zm0 2104.54m-2147.11 2104.54m758.49 1743.77m5811.18 0m758.48 -1743.77m-2147.11 -2104.54m-758.48 -1649.35m-1516.98 0"/>
  <path class="fil2 str2" d="M63553.81 3517.44l8748.93 0 7249.12 14585.01 -7249.12 14585.01 -8748.93 0 7249.12 -14585.01 -7249.12 -14585.01zm4374.46 0m7999.02 7292.5m0 14585.02m-7999.02 7292.5m-749.9 -7292.5m0 -14585.02"/>
  <path class="fil3 str3" d="M44012.6 3517.44l-8748.93 0 -7249.11 14585.01 7249.11 14585.01 8748.93 0 -7249.11 -14585.01 7249.11 -14585.01zm-4374.46 0m-7999.01 7292.5m0 14585.02m7999.01 7292.5m749.91 -7292.5m0 -14585.02"/>
  <path class="fil4 str4" d="M44817.86 7583.64l0 -2159.06 -2973.85 0 5947.7 -4318.13 5947.7 4318.13 -2973.84 0 0 2159.06 -5947.7 0zm0 1295.44l0 -863.62 5947.7 0 0 863.62 -5947.7 0zm0 863.63l0 -431.81 5947.7 0 0 431.81 -5947.7 0zm0 -3238.6m-1486.93 -1079.53m1486.93 -2159.06m5947.7 0m1486.92 2159.06m-1486.92 1079.53m-2973.85 1079.53m-2973.84 863.63m2973.84 -431.81m2973.85 431.81m-2973.85 431.81m-2973.84 647.72m2973.84 -215.9m2973.85 215.9m-2973.85 215.91"/>
  <g>
   <path class="fil5" d="M16519.26 28180l30.49 1971.93c129.85,867.26 -38.31,1463.3 -762.18,1553.65 -1909.91,1168.84 -4573.67,1171.61 -8170.53,-268.9 -619.91,-278.85 -912.06,-789.28 -853.63,-1195.12 788.4,-1854.28 2453.41,-1681.31 3810.87,-268.9l-1402.4 -1135.36c32.82,-1969.07 492.03,-2718.5 1189,-2688.98 1449.76,1636.2 3631.2,2108.84 6158.38,2031.69z"/>
   <path id="1" class="fil6" d="M17082.57 28173.37l29.71 1921.57c75.17,520.59 53.33,978.81 -106.56,1348.27 -184.1,425.4 -512.19,706.76 -1024.4,803.84 -1025.79,600.68 -2238.54,900.8 -3659.65,865.9 -1422.25,-34.94 -3053.05,-407.24 -4914.48,-1152.73l-22.09 -8.84c-390.93,-175.85 -688.82,-428.93 -888.07,-707.89 -244.29,-342.02 -343.27,-728.74 -292.51,-1081.45l10.42 -72.36 29.35 -69.02c192.44,-452.61 434.83,-809.5 713.89,-1077.72 364.98,-350.78 787.68,-547.53 1242.52,-606.36 140.72,-18.2 283.28,-22.74 426.91,-14.15 48.77,-807.57 181.33,-1404.21 381.64,-1822.1 317.97,-663.35 790.18,-940.04 1373.72,-915.34l240.54 10.18 159.3 179.8c648.9,732.36 1468.78,1206.49 2414.48,1490.46 982.74,295.1 2101.12,388.05 3306.51,351.25l569.9 -17.4 8.87 574.09zm-7403.1 1074.85c304.58,180.59 606.63,424.59 894.82,724.43l-894.82 -724.43zm0 0l-507.58 -410.93c32.82,-1969.07 492.03,-2718.5 1189,-2688.98 1449.76,1636.2 3631.2,2108.84 6158.38,2031.69l30.49 1971.93c129.85,867.26 -38.31,1463.3 -762.18,1553.65 -1909.91,1168.84 -4573.67,1171.61 -8170.53,-268.9 -619.91,-278.85 -912.06,-789.28 -853.63,-1195.12 621.02,-1460.61 1785.96,-1663.39 2916.05,-993.34z"/>
  </g>
  <path id="_336864544" class="fil5 str5" d="M10592.62 25258.65c197.88,-1888.43 824.99,-4264.41 97.53,-6117.17 -1177.07,-2030.03 -2202.62,-3761.22 -2772.81,-5835.79 -286.58,-749.03 -434.35,-1485.38 -335.38,-2156.89 -63.55,-2041.96 -273.44,-4435.11 2449.11,-5029.31 597.86,-557.4 1503.79,-1512.5 2315.7,-1726.09 732.76,-1123.72 3390.41,-1492.93 4726.66,-1048.47 1336.22,-444.46 3993.9,-75.28 4726.62,1048.47 811.87,213.56 1717.91,1168.71 2315.76,1726.09 2722.55,594.2 2512.66,2987.35 2449.11,5029.31 98.98,671.51 -48.76,1407.86 -335.35,2156.89 -570.19,2074.57 -1595.77,3805.75 -2772.84,5835.79 -727.46,1852.76 -100.35,4228.74 97.53,6117.17l-455.46 0 -130.9 0 -64.45 0 -130.98 0 -64.36 0 -131.12 0 -64.2 0 -131.23 0 -64.08 0 -131.37 0 -63.98 0 -131.48 0 -63.86 0 -131.6 0 -63.77 0 -131.68 0 -63.67 0 -131.76 0 -63.61 0 -131.84 0 -63.5 0 -131.96 0 -63.41 0 -132.02 0 -63.33 0 -132.12 0 -63.25 0 -132.18 0 -63.19 0 -132.26 0 -63.11 0 -132.32 0 -63.03 0 -132.43 0 -62.97 0 -132.48 0 -62.89 0 -132.54 0 -62.86 0 -132.59 0 -62.78 0 -132.65 0 -62.78 0 -132.65 0 -62.72 0 -132.71 0 -62.69 0 -132.73 0 -62.64 0 -132.82 0 -62.61 0 -132.79 0 -62.61 0 -132.84 0 -62.59 0 -132.81 0 -62.56 0 -132.87 0 -62.55 0 -132.85 0 -62.55 0 -132.88 0 -62.55 0 -132.87 0 -62.53 0 -132.87 0 -62.59 0 -132.81 0 -62.59 0 -132.84 0 -62.58 0 -132.82 0 -62.61 0 -132.82 0 -62.61 0 -132.76 0 -62.67 0 -132.73 0 -62.72 0 -132.71 0 -62.69 0 -132.71 0 -62.72 0 -132.65 0 -62.8 0 -132.6 0 -62.86 0 -132.51 0 -62.89 0 -132.48 0 -62.97 0 -132.4 0 -63.06 0 -132.32 0 -63.11 0 -132.28 0 -63.14 0 -132.24 0 -63.22 0 -132.15 0 -63.3 0 -132.07 0 -63.36 0 -131.98 0 -63.48 0 -131.87 0 -63.58 0 -131.76 0 -63.67 0 -131.7 0 -63.75 0 -131.6 0 -63.86 0 -131.48 0 -63.97 0 -131.38 0 -64.08 0 -131.23 0 -64.2 0 -131.12 0 -64.33 0 -131.01 0 -64.45 0 -130.87 0 -455.46 0z"/>
  <g>
   <path class="fil5" d="M16857.52 28120.24l-30.5 1971.93c-129.85,867.26 38.31,1463.3 762.19,1553.65 1909.91,1168.84 4573.67,1171.61 8170.52,-268.9 619.91,-278.85 912.06,-789.28 853.63,-1195.12 -788.4,-1854.28 -2453.41,-1681.31 -3810.87,-268.9l1402.41 -1135.36c-32.83,-1969.07 -492.03,-2718.5 -1189,-2688.98 -1449.76,1636.2 -3631.2,2108.84 -6158.38,2031.69z"/>
   <path id="1" class="fil7" d="M23697.33 29188.46c-304.59,180.58 -606.65,424.59 -894.85,724.45l894.85 -724.45zm0 0l507.56 -410.92c-32.83,-1969.07 -492.03,-2718.5 -1189,-2688.98 -1449.76,1636.2 -3631.2,2108.84 -6158.38,2031.69l-30.5 1971.93c-129.85,867.26 38.31,1463.3 762.19,1553.65 1909.91,1168.84 4573.67,1171.61 8170.52,-268.9 619.91,-278.85 912.06,-789.28 853.63,-1195.12 -621.02,-1460.6 -1785.94,-1663.38 -2916.02,-993.35zm-7432.84 846.73l29.72 -1921.57 8.89 -574.09 569.88 17.4c1205.4,36.8 2323.77,-56.15 3306.51,-351.25 945.71,-283.97 1765.58,-758.11 2414.48,-1490.46l159.31 -179.8 240.53 -10.18c583.55,-24.71 1055.72,251.98 1373.72,915.34 200.31,417.89 332.86,1014.53 381.64,1822.1 143.62,-8.6 286.18,-4.06 426.9,14.15 454.84,58.83 877.54,255.59 1242.52,606.36 279.07,268.22 521.46,625.11 713.89,1077.72l29.36 69.02 10.41 72.36c50.77,352.71 -48.21,739.43 -292.51,1081.45 -199.25,278.96 -497.13,532.04 -888.07,707.89l-22.09 8.84c-1861.42,745.48 -3492.22,1117.79 -4914.47,1152.73 -1421.11,34.9 -2633.86,-265.22 -3659.65,-865.9 -512.23,-97.07 -840.31,-378.44 -1024.41,-803.84 -159.89,-369.46 -181.73,-827.68 -106.56,-1348.27z"/>
  </g>
  <g>
   <path class="fil5" d="M23435.02 23720.74c2793.86,210.85 3547.42,-1022.26 4959.2,-3321.14l-889.18 -174.56c1085.39,312.07 2156.39,285.55 3201.15,-358.54 781.6,-634.6 585.22,-784.56 -91.46,-1344.49l-899.38 -776.82c915.26,1010.43 2091.48,130.12 2499.94,-1045.73 333.52,-1349.83 -206.17,-2350.03 -1142.99,-1020.68 -527.12,427.49 -911.16,558.34 -1478.89,706.96 578.87,-161.71 1117.09,-679.55 1533.37,-2235.58 539.52,-1821.72 -1000.77,-2371.39 -1563.87,-1125.67 -207.14,755.05 -722.71,1560.47 -1661.55,2435.03l701.21 -702.11c-129.67,-1696.81 -2502.36,-1460.28 -2103.6,328.64l-167.68 1673.18 655.46 -328.67 -2606.64 2225.9c-2702.64,2781.32 -3201.72,4553.67 -945.1,5064.29z"/>
   <path id="1" class="fil6" d="M28394.21 20399.61c0.01,0 0.01,-0.01 0.01,-0.01l-889.18 -174.56c297.55,85.55 594.03,145.66 889.17,174.57zm0 0c781.47,76.55 1553.64,-65.59 2311.98,-533.11 781.6,-634.6 585.22,-784.56 -91.46,-1344.49l-593.51 -512.63c855.62,551.7 1829.93,-261.68 2194.07,-1309.93 333.52,-1349.83 -206.17,-2350.03 -1142.99,-1020.68 -527.12,427.49 -911.16,558.34 -1478.89,706.96 578.87,-161.71 1117.09,-679.55 1533.37,-2235.58 539.52,-1821.72 -1000.77,-2371.39 -1563.87,-1125.67 -148.41,540.99 -455.15,1107.82 -962.48,1707.42 -151.37,-1668.89 -2498.21,-1425.77 -2101.47,354.14l-167.68 1673.18 655.46 -328.67 -2606.64 2225.9c-2702.64,2781.32 -3201.72,4553.67 -945.1,5064.29 2793.86,210.85 3547.42,-1022.26 4959.19,-3321.13zm1627.01 -2390.24l-305.87 -264.19c99.32,109.65 201.71,197.03 305.87,264.19zm-1420.78 -3277.47c-67.75,80.07 -139.07,160.73 -214.08,241.98l216.21 -216.48c-0.65,-8.55 -1.36,-17.05 -2.13,-25.5zm-214.08 241.98c-147.24,159.52 -308.66,321.36 -485,485.63l485 -485.63zm312.01 6008.08c-1420.21,2305.1 -2292.61,3529.45 -5305.33,3302.09l-81.74 -13.26c-1496.81,-338.68 -2071.26,-1135.86 -1815.73,-2345.55 203.65,-964.08 1054.43,-2194.66 2480.28,-3662l37.56 -35.35 1754.17 -1497.95 2.6 -25.95 159.45 -1591.07c-149.69,-806.08 130.14,-1397.07 578.02,-1741.4 221.37,-170.19 480.68,-275.47 748.51,-313.58 264.24,-37.61 539.83,-10.53 797.63,83.44 247.96,90.36 478.47,239.74 665.08,449.5 139.06,-247.29 237.68,-485.06 300.6,-714.42l28.71 -83.95c265.07,-586.4 706.27,-907.71 1159.4,-986.07 239.87,-41.48 480.82,-14.14 703.01,78.6 216.1,90.18 410.63,241.09 564.09,449.19 311.68,422.63 450.14,1095.68 197.17,1961.55l0.53 0.14c-20.68,77.29 -41.72,152.33 -63.12,225.23 267.86,-72.42 511.76,-30.05 725.34,107.03 185.86,119.26 326.07,304.92 417.1,540.54 155.09,401.41 172.83,1012.06 11.39,1665.46l-15.46 50.81c-178.06,512.6 -482.3,982.85 -852.73,1318.4 -136.43,123.58 -282.2,229.9 -434.83,315.05 28.04,30 54.63,60.3 79.83,91.34 482.2,593.9 392.48,987.23 -478.11,1694.09l-59.64 41.97c-600.98,370.5 -1212.72,563.69 -1832.75,619.57 -157.31,14.18 -314.33,19.46 -471.07,16.54z"/>
  </g>
  <path class="fil5 str6" d="M9725.39 23275.75c-417.29,1930.16 -84.56,3300.31 1205.43,3955.67l2116.92 975.56c2695.44,928.6 5392.75,732.51 8091.06,-63.09l1550.78 -683.56c1385.73,-347.99 1988.62,-1603.59 1834.29,-3737.26l-1768.72 -1769.32c-3517.55,-641.09 -7291.15,-780.24 -11540.42,12.95l-1489.34 1309.04z"/>
  <g>
   <path class="fil5" d="M9941.76 23780.49c-2793.87,210.86 -3547.42,-1022.26 -4959.21,-3321.13l889.18 -174.57c-1085.39,312.08 -2156.39,285.56 -3201.14,-358.53 -781.61,-634.6 -585.22,-784.57 91.46,-1344.5l899.37 -776.81c-915.26,1010.43 -2091.48,130.12 -2499.93,-1045.73 -333.52,-1349.83 206.16,-2350.03 1142.99,-1020.68 527.11,427.49 911.15,558.34 1478.89,706.96 -578.87,-161.71 -1117.09,-679.55 -1533.38,-2235.58 -539.51,-1821.72 1000.77,-2371.39 1563.87,-1125.67 207.15,755.05 722.72,1560.46 1661.55,2435.03l-701.21 -702.12c129.68,-1696.8 2502.36,-1460.27 2103.6,328.65l167.69 1673.17 -655.46 -328.66 2606.64 2225.9c2702.64,2781.32 3201.72,4553.67 945.1,5064.28z"/>
   <path id="1" class="fil6" d="M9983.73 24343.79c-3012.72,227.37 -3885.13,-997 -5305.34,-3302.08 -156.75,2.92 -313.77,-2.36 -471.07,-16.54 -620.03,-55.88 -1231.76,-249.05 -1832.74,-619.57l-59.64 -41.97c-870.59,-706.86 -960.3,-1100.2 -478.12,-1694.09 25.2,-31.04 51.8,-61.35 79.84,-91.33 -152.63,-85.15 -298.4,-191.47 -434.83,-315.06 -370.43,-335.55 -674.66,-805.81 -852.73,-1318.4l-15.46 -50.81c-161.44,-653.4 -143.7,-1264.05 11.38,-1665.46 91.05,-235.63 231.23,-421.28 417.1,-540.54 213.6,-137.07 457.49,-179.45 725.34,-107.03 -21.4,-72.91 -42.44,-147.94 -63.12,-225.23l0.53 -0.14c-252.97,-865.86 -114.49,-1538.92 197.17,-1961.55 153.48,-208.1 348.01,-359.01 564.09,-449.19 222.21,-92.73 463.16,-120.08 703.02,-78.6 453.13,78.37 894.33,399.67 1159.39,986.07l28.71 83.95c62.92,229.35 161.54,467.12 300.61,714.41 186.62,-209.75 417.12,-359.13 665.08,-449.5 257.81,-93.96 533.4,-121.04 797.63,-83.43 267.82,38.1 527.14,143.37 748.5,313.57 447.88,344.33 727.71,935.34 578.02,1741.41l159.46 1591.06 2.6 25.96 1754.17 1497.95 37.56 35.35c1425.84,1467.35 2276.62,2697.92 2480.27,3662 255.54,1209.69 -318.92,2006.86 -1815.72,2345.54l-81.74 13.26zm-5001.18 -3884.44c0,0 0,0 0,0l889.18 -174.57c-297.55,85.55 -594.03,145.67 -889.18,174.57zm0 0c-781.46,76.56 -1553.63,-65.58 -2311.96,-533.1 -781.61,-634.6 -585.22,-784.57 91.46,-1344.5l593.5 -512.62c-855.62,551.7 -1829.93,-261.68 -2194.06,-1309.93 -333.52,-1349.83 206.16,-2350.03 1142.99,-1020.68 527.11,427.49 911.15,558.34 1478.89,706.96 -578.87,-161.71 -1117.09,-679.55 -1533.38,-2235.58 -539.51,-1821.72 1000.77,-2371.39 1563.87,-1125.67 148.42,540.98 455.16,1107.81 962.48,1707.41 151.39,-1668.88 2498.21,-1425.76 2101.47,354.15l167.69 1673.17 -655.46 -328.66 2606.64 2225.9c2702.64,2781.32 3201.72,4553.67 945.1,5064.28 -2793.87,210.86 -3547.42,-1022.26 -4959.21,-3321.13zm-1627 -2390.23l305.87 -264.19c-99.32,109.65 -201.71,197.03 -305.87,264.19zm1420.78 -3277.48c67.75,80.07 139.08,160.75 214.1,242.01l-216.23 -216.51c0.65,-8.55 1.36,-17.05 2.13,-25.5zm214.1 242.01c147.23,159.51 308.65,321.34 484.98,485.61l-484.98 -485.61z"/>
  </g>
  <g>
   <path class="fil5" d="M16971.38 19582.67c4183.93,0 7575.69,2126.91 7575.69,4750.57 0,2623.67 -3391.76,4750.58 -7575.69,4750.58 -4183.93,0 -7575.68,-2126.91 -7575.68,-4750.58 0,-2623.66 3391.75,-4750.57 7575.68,-4750.57z"/>
   <path id="1" class="fil6" d="M16971.38 19017.15c2198.29,0 4199.26,565.5 5657.25,1479.77 1534.7,962.38 2483.95,2317.2 2483.95,3836.31 0,1519.11 -949.25,2873.93 -2483.95,3836.32 -1457.99,914.27 -3458.94,1479.77 -5657.25,1479.77 -2198.29,0 -4199.26,-565.5 -5657.25,-1479.77 -1534.69,-962.38 -2483.94,-2317.21 -2483.94,-3836.32 0,-1519.11 949.25,-2873.93 2483.95,-3836.31 1457.97,-914.27 3458.93,-1479.77 5657.24,-1479.77zm0 565.51c4183.93,0 7575.69,2126.91 7575.69,4750.57 0,2623.67 -3391.76,4750.58 -7575.69,4750.58 -4183.93,0 -7575.68,-2126.91 -7575.68,-4750.58 0,-2623.66 3391.75,-4750.57 7575.68,-4750.57z"/>
  </g>
  <ellipse class="fil8 str7" cx="14100.98" cy="5516.13" rx="3231.63" ry="4182.89"/>
  <ellipse class="fil0 str8" cx="14018.2" cy="7179.17" rx="1324.44" ry="2555.4"/>
  <ellipse class="fil8 str7" cx="20730.09" cy="5523.24" rx="3231.63" ry="4182.89"/>
  <ellipse class="fil0 str8" cx="20812.87" cy="7186.28" rx="1324.44" ry="2555.4"/>
  <g>
   <path class="fil9 str9" d="M11495.65 11408.1c-1826.18,-938.74 -2864.08,-580.71 -2496.87,2088.88 893.06,2558.47 2939.93,4401.4 8851.53,3847.62 3041.09,-629.19 6621.24,-1032.68 7246.16,-4305.19 -194.56,-2957.66 -1449.78,-3521.28 -3430.66,-2446.97 -3621.85,3047.58 -6764.92,3550.74 -10170.16,815.66z"/>
   <path class="fil10 str10" d="M10451.29 12422.11c2002.61,2299.08 4459.59,3703.01 7505.08,3267.34 2391.68,-1307.64 3948.47,-1796.99 5125.79,-1914.34 388.79,-617.31 441.52,-1080.96 264.36,-1439.35"/>
   <polygon class="fil11" points="12457.29,14280.23 12466.14,17198.4 15002.12,15520.45 "/>
   <polygon class="fil11" points="19158.56,15065.55 21450.95,16810.15 21806.03,14020.62 "/>
  </g>
  <path class="fil12" d="M40166.5 18960.38c202.58,-12.02 297.11,-102.2 283.62,-270.54 -27.01,-192.39 -195.83,-348.7 -506.46,-468.94 0,0 -13.5,-6.01 -40.51,-18.04 -148.57,-48.09 -286.99,-96.19 -415.29,-144.28 -128.31,-48.1 -330.9,-150.31 -607.75,-306.62 -276.86,-156.31 -513.2,-318.63 -709.04,-486.97 -195.82,-168.34 -384.9,-396.79 -567.23,-685.37 -182.33,-288.59 -300.5,-595.2 -354.51,-919.86 -54.03,-396.79 -30.4,-995 70.89,-1794.6 101.29,-799.61 219.47,-1367.75 354.52,-1704.43 216.09,-565.13 590.86,-1106.22 1124.32,-1623.26 533.46,-517.04 1117.58,-775.56 1752.33,-775.56 715.79,0 1262.76,60.12 1640.91,180.36 378.16,120.25 736.05,348.7 1073.69,685.38 189.07,192.39 344.38,571.14 465.92,1136.28 121.55,565.14 182.33,1073.16 182.33,1524.06 0,450.91 -40.51,760.53 -121.54,928.87 -175.57,156.31 -621.25,297.59 -1337.04,423.84 -715.79,126.26 -1141.22,111.22 -1276.27,-45.09 -67.53,-72.15 -121.54,-213.44 -162.06,-423.85 -40.52,-210.42 -87.79,-381.76 -141.81,-514.04 -54.02,-132.26 -141.81,-186.37 -263.35,-162.32 -189.08,36.07 -303.88,174.34 -344.39,414.83 -40.52,240.49 13.5,444.89 162.07,613.23 67.52,72.15 283.62,195.39 648.25,369.74 364.65,174.35 766.44,375.75 1205.37,604.22 438.92,228.45 759.67,426.85 962.26,595.19 324.14,276.55 587.49,607.22 790.07,991.99 202.58,384.77 330.88,772.56 384.91,1163.34 54.01,390.78 70.9,763.53 50.64,1118.24 -20.26,354.71 -70.89,676.36 -151.93,964.94 -67.53,216.43 -124.93,396.79 -172.2,541.09 -47.27,144.28 -118.17,312.62 -212.71,505.01 -94.54,192.4 -195.83,348.7 -303.87,468.95 -108.05,120.24 -246.48,234.47 -415.3,342.68 -168.82,108.23 -354.51,180.36 -557.09,216.44 -432.19,72.15 -928.5,123.24 -1488.99,153.3 -560.46,30.07 -1191.85,9.03 -1894.14,-63.12 -702.27,-72.15 -1262.76,-210.43 -1681.42,-414.84 -378.16,-168.34 -736.05,-381.76 -1073.69,-640.29 -337.63,-258.52 -506.45,-453.91 -506.45,-586.17 0,-228.46 209.33,-757.53 628.01,-1587.19 418.66,-829.66 722.54,-1280.57 911.61,-1352.72 202.58,-84.17 476.06,-36.07 820.46,144.29 344.38,180.36 685.39,378.76 1023.04,595.19 337.63,216.44 594.23,318.64 769.8,306.62z"/>
  <path id="1" class="fil12" d="M53557.13 16471.37c27.01,204.42 47.27,429.87 60.77,676.36 13.51,246.5 13.51,571.14 0,973.96 -13.5,402.8 -47.26,787.57 -101.28,1154.31 -54.02,366.74 -158.69,751.52 -314.01,1154.32 -155.3,402.8 -347.76,751.51 -577.35,1046.11 -229.61,294.59 -536.85,541.09 -921.75,739.48 -384.9,198.4 -833.96,309.62 -1347.18,333.66 -1310.03,48.1 -2430.97,-120.24 -3362.85,-505.01 -931.87,-384.77 -1526.11,-967.95 -1782.7,-1749.51 -189.08,-553.12 -314.01,-1253.52 -374.78,-2101.23 -60.78,-847.7 -3.38,-1710.43 172.2,-2588.19 175.57,-877.77 472.69,-1503.02 891.36,-1875.77 1174.97,-1046.1 2883.4,-1340.69 5125.31,-883.78 621.25,132.27 1171.59,580.17 1651.03,1343.7 479.45,763.54 773.19,1524.06 881.23,2281.58zm-4092.14 3156.34c148.55,-12.02 266.72,-132.26 354.5,-360.72 87.79,-228.45 141.81,-514.03 162.08,-856.72 20.25,-342.69 30.38,-628.26 30.38,-856.73 0,-228.45 0,-432.86 0,-613.22 -13.51,-276.56 -74.28,-544.09 -182.33,-802.61 -108.04,-258.52 -222.83,-411.83 -344.38,-459.92 -108.04,-60.12 -263.36,-24.06 -465.93,108.22 -202.58,132.26 -364.64,312.62 -486.2,541.09 -121.55,204.41 -189.07,571.14 -202.58,1100.21 -13.51,529.06 13.52,937.88 81.03,1226.46 40.53,312.63 168.83,559.13 384.91,739.49 216.09,180.36 438.92,258.51 668.53,234.47z"/>
  <path id="2" class="fil12" d="M60059.98 18852.16c202.58,-60.12 509.84,171.35 921.75,694.39 411.91,523.05 624.63,898.81 638.14,1127.27 27,432.86 -341.02,826.66 -1104.08,1181.37 -763.06,354.71 -1563.26,556.12 -2400.6,604.21 -999.4,48.1 -1853.62,-150.3 -2562.65,-595.19 -709.03,-444.89 -1164.83,-1046.11 -1367.42,-1803.62 -67.53,-252.51 -121.56,-712.43 -162.07,-1379.77 -40.52,-667.35 -3.38,-1433.88 111.42,-2299.62 114.79,-865.73 334.25,-1497 658.39,-1893.8 189.07,-240.48 347.76,-429.86 476.06,-568.14 128.29,-138.27 307.24,-309.62 536.84,-514.03 229.6,-204.42 486.19,-372.76 769.81,-505.02 283.62,-132.26 587.49,-222.44 911.62,-270.54 486.19,-72.15 979.15,-60.12 1478.85,36.07 499.69,96.19 918.36,225.46 1256,387.79 337.63,162.32 641.5,339.67 911.61,532.07 256.6,240.48 384.91,679.36 384.91,1316.64 0,637.28 -87.79,1022.05 -263.36,1154.32 -175.57,108.22 -648.26,213.43 -1418.07,315.63 -769.8,102.2 -1222.24,93.19 -1357.3,-27.05 -67.53,-48.1 -111.41,-150.31 -131.68,-306.61 -20.26,-156.32 -67.52,-267.54 -141.81,-333.67 -74.28,-66.14 -219.46,-69.14 -435.55,-9.02 -40.52,12.02 -74.28,54.1 -101.28,126.25 -27.01,72.15 -54.03,183.37 -81.04,333.67 -27,150.31 -47.26,294.59 -60.78,432.87 -13.51,138.27 -37.13,333.66 -70.89,586.17 -33.77,252.51 -57.4,462.93 -70.9,631.27 -54.03,348.7 -47.27,655.31 20.25,919.85 67.54,264.53 165.45,465.93 293.75,604.22 128.3,138.27 259.98,240.49 395.04,306.61 135.05,66.14 256.6,93.19 364.65,81.16 202.57,-12.02 401.77,-81.16 597.6,-207.41 195.83,-126.26 381.52,-258.52 557.1,-396.79 175.58,-138.28 324.14,-225.46 445.68,-261.53z"/>
  <path id="3" class="fil12" d="M68548.15 17210.87c391.66,709.42 742.8,1503.01 1053.42,2380.78 94.54,288.58 216.09,562.13 364.65,820.65 148.56,258.52 259.97,444.89 334.25,559.12 74.29,114.23 111.42,228.46 111.42,342.69 0,114.23 -67.53,231.46 -202.58,351.71 -202.57,192.39 -736.04,351.71 -1600.39,477.96 -864.35,126.25 -1357.3,117.23 -1478.85,-27.05 -189.07,-228.46 -368.03,-508.02 -536.84,-838.69 -168.82,-330.66 -300.49,-649.3 -395.03,-955.91 -94.54,-306.62 -178.95,-598.21 -253.23,-874.76 -74.27,-276.55 -131.68,-495.99 -172.19,-658.32 -40.53,-162.33 -74.28,-237.48 -101.29,-225.46 -40.53,0 -43.9,291.59 -10.14,874.76 33.77,583.18 60.78,1130.28 81.03,1641.3 20.26,511.03 -10.13,844.69 -91.16,1001.01 -162.06,144.29 -746.17,216.44 -1752.33,216.44 -1006.16,0 -1549.74,-54.11 -1630.79,-162.33 -54.01,-60.12 -91.16,-204.41 -111.41,-432.87 -20.26,-228.45 -23.63,-529.06 -10.13,-901.81 13.51,-372.75 30.38,-766.53 50.64,-1181.37 20.27,-414.84 40.53,-913.83 60.79,-1497 20.25,-583.18 23.62,-1127.27 10.12,-1632.28 -13.5,-408.83 -30.38,-964.94 -50.64,-1668.36 -20.27,-703.42 -37.15,-1265.54 -50.65,-1686.38 -13.51,-420.85 -20.26,-874.76 -20.26,-1361.73 0,-486.98 20.26,-880.77 60.78,-1181.37 40.52,-300.61 101.29,-517.04 182.32,-649.31 27.02,-60.11 138.44,-105.21 334.26,-135.27 195.83,-30.06 438.92,-45.1 729.29,-45.1 290.37,0 560.47,0 810.33,0 249.84,0 499.7,6.01 749.54,18.04 249.86,12.02 381.53,18.03 395.04,18.03 351.14,0 472.7,877.76 364.65,2633.29l-101.29 3210.44c27.01,-72.15 70.89,-168.34 131.67,-288.58 60.78,-120.24 172.2,-336.68 334.26,-649.3 162.07,-312.63 317.37,-592.19 465.93,-838.68 148.56,-246.5 307.25,-477.97 476.06,-694.4 168.82,-216.43 307.24,-342.69 415.29,-378.76 310.64,-84.17 877.86,27.05 1701.69,333.66 823.83,306.62 1235.75,538.08 1235.75,694.4 0,324.66 -27.01,583.18 -81.02,775.56 -54.03,192.39 -162.07,480.96 -324.14,865.73 -135.06,288.58 -276.86,547.1 -425.43,775.56 -148.55,228.45 -283.61,399.8 -405.16,514.03 -121.55,114.24 -229.59,210.43 -324.13,288.59 -94.54,78.15 -175.57,123.24 -243.1,135.27l-81.03 36.08z"/>
  <path id="4" class="fil13 str11" d="M40166.5 18960.38c202.58,-12.02 297.11,-102.2 283.62,-270.54 -27.01,-192.39 -195.83,-348.7 -506.46,-468.94 0,0 -13.5,-6.01 -40.51,-18.04 -148.57,-48.09 -286.99,-96.19 -415.29,-144.28 -128.31,-48.1 -330.9,-150.31 -607.75,-306.62 -276.86,-156.31 -513.2,-318.63 -709.04,-486.97 -195.82,-168.34 -384.9,-396.79 -567.23,-685.37 -182.33,-288.59 -300.5,-595.2 -354.51,-919.86 -54.03,-396.79 -30.4,-995 70.89,-1794.6 101.29,-799.61 219.47,-1367.75 354.52,-1704.43 216.09,-565.13 590.86,-1106.22 1124.32,-1623.26 533.46,-517.04 1117.58,-775.56 1752.33,-775.56 715.79,0 1262.76,60.12 1640.91,180.36 378.16,120.25 736.05,348.7 1073.69,685.38 189.07,192.39 344.38,571.14 465.92,1136.28 121.55,565.14 182.33,1073.16 182.33,1524.06 0,450.91 -40.51,760.53 -121.54,928.87 -175.57,156.31 -621.25,297.59 -1337.04,423.84 -715.79,126.26 -1141.22,111.22 -1276.27,-45.09 -67.53,-72.15 -121.54,-213.44 -162.06,-423.85 -40.52,-210.42 -87.79,-381.76 -141.81,-514.04 -54.02,-132.26 -141.81,-186.37 -263.35,-162.32 -189.08,36.07 -303.88,174.34 -344.39,414.83 -40.52,240.49 13.5,444.89 162.07,613.23 67.52,72.15 283.62,195.39 648.25,369.74 364.65,174.35 766.44,375.75 1205.37,604.22 438.92,228.45 759.67,426.85 962.26,595.19 324.14,276.55 587.49,607.22 790.07,991.99 202.58,384.77 330.88,772.56 384.91,1163.34 54.01,390.78 70.9,763.53 50.64,1118.24 -20.26,354.71 -70.89,676.36 -151.93,964.94 -67.53,216.43 -124.93,396.79 -172.2,541.09 -47.27,144.28 -118.17,312.62 -212.71,505.01 -94.54,192.4 -195.83,348.7 -303.87,468.95 -108.05,120.24 -246.48,234.47 -415.3,342.68 -168.82,108.23 -354.51,180.36 -557.09,216.44 -432.19,72.15 -928.5,123.24 -1488.99,153.3 -560.46,30.07 -1191.85,9.03 -1894.14,-63.12 -702.27,-72.15 -1262.76,-210.43 -1681.42,-414.84 -378.16,-168.34 -736.05,-381.76 -1073.69,-640.29 -337.63,-258.52 -506.45,-453.91 -506.45,-586.17 0,-228.46 209.33,-757.53 628.01,-1587.19 418.66,-829.66 722.54,-1280.57 911.61,-1352.72 202.58,-84.17 476.06,-36.07 820.46,144.29 344.38,180.36 685.39,378.76 1023.04,595.19 337.63,216.44 594.23,318.64 769.8,306.62z"/>
  <path id="5" class="fil13 str11" d="M53557.13 16471.37c27.01,204.42 47.27,429.87 60.77,676.36 13.51,246.5 13.51,571.14 0,973.96 -13.5,402.8 -47.26,787.57 -101.28,1154.31 -54.02,366.74 -158.69,751.52 -314.01,1154.32 -155.3,402.8 -347.76,751.51 -577.35,1046.11 -229.61,294.59 -536.85,541.09 -921.75,739.48 -384.9,198.4 -833.96,309.62 -1347.18,333.66 -1310.03,48.1 -2430.97,-120.24 -3362.85,-505.01 -931.87,-384.77 -1526.11,-967.95 -1782.7,-1749.51 -189.08,-553.12 -314.01,-1253.52 -374.78,-2101.23 -60.78,-847.7 -3.38,-1710.43 172.2,-2588.19 175.57,-877.77 472.69,-1503.02 891.36,-1875.77 1174.97,-1046.1 2883.4,-1340.69 5125.31,-883.78 621.25,132.27 1171.59,580.17 1651.03,1343.7 479.45,763.54 773.19,1524.06 881.23,2281.58zm-4092.14 3156.34c148.55,-12.02 266.72,-132.26 354.5,-360.72 87.79,-228.45 141.81,-514.03 162.08,-856.72 20.25,-342.69 30.38,-628.26 30.38,-856.73 0,-228.45 0,-432.86 0,-613.22 -13.51,-276.56 -74.28,-544.09 -182.33,-802.61 -108.04,-258.52 -222.83,-411.83 -344.38,-459.92 -108.04,-60.12 -263.36,-24.06 -465.93,108.22 -202.58,132.26 -364.64,312.62 -486.2,541.09 -121.55,204.41 -189.07,571.14 -202.58,1100.21 -13.51,529.06 13.52,937.88 81.03,1226.46 40.53,312.63 168.83,559.13 384.91,739.49 216.09,180.36 438.92,258.51 668.53,234.47z"/>
  <path id="6" class="fil13 str11" d="M60059.98 18852.16c202.58,-60.12 509.84,171.35 921.75,694.39 411.91,523.05 624.63,898.81 638.14,1127.27 27,432.86 -341.02,826.66 -1104.08,1181.37 -763.06,354.71 -1563.26,556.12 -2400.6,604.21 -999.4,48.1 -1853.62,-150.3 -2562.65,-595.19 -709.03,-444.89 -1164.83,-1046.11 -1367.42,-1803.62 -67.53,-252.51 -121.56,-712.43 -162.07,-1379.77 -40.52,-667.35 -3.38,-1433.88 111.42,-2299.62 114.79,-865.73 334.25,-1497 658.39,-1893.8 189.07,-240.48 347.76,-429.86 476.06,-568.14 128.29,-138.27 307.24,-309.62 536.84,-514.03 229.6,-204.42 486.19,-372.76 769.81,-505.02 283.62,-132.26 587.49,-222.44 911.62,-270.54 486.19,-72.15 979.15,-60.12 1478.85,36.07 499.69,96.19 918.36,225.46 1256,387.79 337.63,162.32 641.5,339.67 911.61,532.07 256.6,240.48 384.91,679.36 384.91,1316.64 0,637.28 -87.79,1022.05 -263.36,1154.32 -175.57,108.22 -648.26,213.43 -1418.07,315.63 -769.8,102.2 -1222.24,93.19 -1357.3,-27.05 -67.53,-48.1 -111.41,-150.31 -131.68,-306.61 -20.26,-156.32 -67.52,-267.54 -141.81,-333.67 -74.28,-66.14 -219.46,-69.14 -435.55,-9.02 -40.52,12.02 -74.28,54.1 -101.28,126.25 -27.01,72.15 -54.03,183.37 -81.04,333.67 -27,150.31 -47.26,294.59 -60.78,432.87 -13.51,138.27 -37.13,333.66 -70.89,586.17 -33.77,252.51 -57.4,462.93 -70.9,631.27 -54.03,348.7 -47.27,655.31 20.25,919.85 67.54,264.53 165.45,465.93 293.75,604.22 128.3,138.27 259.98,240.49 395.04,306.61 135.05,66.14 256.6,93.19 364.65,81.16 202.57,-12.02 401.77,-81.16 597.6,-207.41 195.83,-126.26 381.52,-258.52 557.1,-396.79 175.58,-138.28 324.14,-225.46 445.68,-261.53z"/>
  <path id="7" class="fil13 str11" d="M68548.15 17210.87c391.66,709.42 742.8,1503.01 1053.42,2380.78 94.54,288.58 216.09,562.13 364.65,820.65 148.56,258.52 259.97,444.89 334.25,559.12 74.29,114.23 111.42,228.46 111.42,342.69 0,114.23 -67.53,231.46 -202.58,351.71 -202.57,192.39 -736.04,351.71 -1600.39,477.96 -864.35,126.25 -1357.3,117.23 -1478.85,-27.05 -189.07,-228.46 -368.03,-508.02 -536.84,-838.69 -168.82,-330.66 -300.49,-649.3 -395.03,-955.91 -94.54,-306.62 -178.95,-598.21 -253.23,-874.76 -74.27,-276.55 -131.68,-495.99 -172.19,-658.32 -40.53,-162.33 -74.28,-237.48 -101.29,-225.46 -40.53,0 -43.9,291.59 -10.14,874.76 33.77,583.18 60.78,1130.28 81.03,1641.3 20.26,511.03 -10.13,844.69 -91.16,1001.01 -162.06,144.29 -746.17,216.44 -1752.33,216.44 -1006.16,0 -1549.74,-54.11 -1630.79,-162.33 -54.01,-60.12 -91.16,-204.41 -111.41,-432.87 -20.26,-228.45 -23.63,-529.06 -10.13,-901.81 13.51,-372.75 30.38,-766.53 50.64,-1181.37 20.27,-414.84 40.53,-913.83 60.79,-1497 20.25,-583.18 23.62,-1127.27 10.12,-1632.28 -13.5,-408.83 -30.38,-964.94 -50.64,-1668.36 -20.27,-703.42 -37.15,-1265.54 -50.65,-1686.38 -13.51,-420.85 -20.26,-874.76 -20.26,-1361.73 0,-486.98 20.26,-880.77 60.78,-1181.37 40.52,-300.61 101.29,-517.04 182.32,-649.31 27.02,-60.11 138.44,-105.21 334.26,-135.27 195.83,-30.06 438.92,-45.1 729.29,-45.1 290.37,0 560.47,0 810.33,0 249.84,0 499.7,6.01 749.54,18.04 249.86,12.02 381.53,18.03 395.04,18.03 351.14,0 472.7,877.76 364.65,2633.29l-101.29 3210.44c27.01,-72.15 70.89,-168.34 131.67,-288.58 60.78,-120.24 172.2,-336.68 334.26,-649.3 162.07,-312.63 317.37,-592.19 465.93,-838.68 148.56,-246.5 307.25,-477.97 476.06,-694.4 168.82,-216.43 307.24,-342.69 415.29,-378.76 310.64,-84.17 877.86,27.05 1701.69,333.66 823.83,306.62 1235.75,538.08 1235.75,694.4 0,324.66 -27.01,583.18 -81.02,775.56 -54.03,192.39 -162.07,480.96 -324.14,865.73 -135.06,288.58 -276.86,547.1 -425.43,775.56 -148.55,228.45 -283.61,399.8 -405.16,514.03 -121.55,114.24 -229.59,210.43 -324.13,288.59 -94.54,78.15 -175.57,123.24 -243.1,135.27l-81.03 36.08z"/>
  <path class="fil12" d="M15776.24 33287.58c-112.98,-147.7 -177.19,-595.75 -192.6,-1344.13 -15.4,-748.39 -10.27,-1555.85 15.41,-2422.41 25.68,-866.54 28.24,-1393.36 7.7,-1580.46 0,-9.85 -10.28,-145.25 -30.82,-406.2 -20.54,-260.95 -33.38,-443.12 -38.51,-546.52 -5.14,-103.4 -15.41,-292.96 -30.82,-568.67 -15.41,-275.72 -23.11,-487.44 -23.11,-635.15 0,-147.71 0,-344.64 0,-590.83 0,-246.18 12.84,-443.12 38.52,-590.82 25.68,-147.71 53.92,-305.27 84.74,-472.67 30.82,-167.4 74.47,-302.8 130.97,-406.2 56.49,-103.39 120.69,-179.7 192.6,-228.94 421.14,-285.56 1484.26,-329.88 3189.37,-132.93 657.39,78.78 1186.39,364.34 1586.99,856.71 400.6,492.35 652.25,1285.05 754.97,2378.08 30.81,315.11 30.81,615.45 0,901.01 -30.83,285.57 -84.75,531.75 -161.79,738.54 -77.04,206.79 -161.78,398.81 -254.22,576.06 -92.45,177.25 -192.6,322.49 -300.45,435.73 -107.85,113.24 -202.87,211.72 -285.04,295.42 -82.17,83.7 -154.07,140.32 -215.7,169.86l-77.05 59.08c30.82,39.38 77.05,96.01 138.67,169.86 61.63,73.86 166.92,211.71 315.85,413.58 148.94,201.86 279.91,391.42 392.9,568.67 112.98,177.25 218.28,366.81 315.86,568.68 97.59,201.86 146.37,366.81 146.37,494.82 20.55,295.41 -182.32,585.9 -608.6,871.46 -426.29,285.57 -721.59,428.35 -885.94,428.35 -174.61,0 -493.05,-216.63 -955.27,-649.91 -143.81,-137.85 -300.45,-384.04 -469.93,-738.53 -169.48,-354.5 -305.59,-674.53 -408.3,-960.1l-154.07 -443.12c10.27,59.08 20.54,137.86 30.82,236.34 10.27,98.47 28.24,278.18 53.92,539.12 25.68,260.96 46.22,499.75 61.64,716.39 15.4,216.63 23.1,433.27 23.1,649.9 0,216.64 -15.41,369.27 -46.23,457.9 -41.08,147.71 -233.67,265.87 -577.79,354.49 -344.09,88.63 -701.04,118.16 -1070.83,88.63 -369.77,-29.55 -600.89,-113.24 -693.34,-251.11zm2049.21 -7104.72c-30.81,177.26 -28.24,425.9 7.7,745.93 35.96,320.04 84.75,534.21 146.38,642.53 71.91,88.62 195.16,128.01 369.78,118.16 174.62,-9.85 336.41,-93.55 485.34,-251.11 148.94,-157.55 197.74,-344.64 146.37,-561.29 -82.17,-344.64 -297.88,-605.6 -647.12,-782.85 -277.34,-137.86 -441.68,-123.09 -493.05,44.31 -10.26,9.84 -15.41,24.62 -15.41,44.3z"/>
  <path id="1" class="fil12" d="M26037.72 29875.54l-1355.87 132.93c-41.08,236.34 -15.4,521.9 77.05,856.71 92.45,334.81 179.75,507.13 261.93,516.97 92.45,9.85 172.06,-41.85 238.81,-155.08 66.78,-113.24 130.98,-251.11 192.61,-413.58 61.63,-162.48 112.98,-268.33 154.06,-317.57 102.72,-108.32 441.7,-59.08 1016.91,147.71 575.22,206.79 888.51,403.74 939.87,590.83 51.36,147.7 0,440.66 -154.08,878.86 -154.08,438.2 -328.69,745.92 -523.85,923.17 -410.87,364.34 -1294.25,546.52 -2650.12,546.52 -451.96,0 -834.57,-140.33 -1147.87,-420.97 -313.29,-280.64 -557.24,-598.22 -731.86,-952.71 -267.07,-571.13 -441.69,-1299.83 -523.86,-2186.07 -82.18,-886.25 -71.9,-1536.16 30.82,-1949.74 41.09,-157.56 102.71,-339.72 184.89,-546.52 82.18,-206.79 208,-438.2 377.5,-694.23 169.48,-256.03 367.21,-487.44 593.19,-694.22 225.98,-206.79 511.02,-381.58 855.12,-524.37 344.1,-142.78 716.46,-214.18 1117.06,-214.18 534.12,0 1024.6,118.16 1471.42,354.5 446.82,236.33 778.09,521.89 993.8,856.7 133.53,206.79 213.13,576.06 238.81,1107.81 25.68,531.74 -7.7,930.56 -100.15,1196.42 -51.36,137.86 -110.42,253.57 -177.19,347.12 -66.77,93.55 -156.64,184.63 -269.64,273.26 -112.98,88.62 -261.92,160.01 -446.81,214.18 -184.9,54.15 -405.74,96 -662.54,125.55zm-1494.54 -1137.35c41.09,118.16 195.16,108.32 462.23,-29.54 236.25,-137.86 380.05,-295.42 431.41,-472.67 30.82,-118.16 -20.53,-211.71 -154.06,-280.64 -133.53,-68.93 -277.35,-100.93 -431.42,-96.01 -154.08,4.93 -251.67,36.93 -292.75,96.01 -30.82,68.93 -51.36,189.56 -61.63,361.88 -10.28,172.33 5.13,312.65 46.22,420.97z"/>
  <path id="2" class="fil12" d="M34481.11 26049.92c123.25,128.01 125.83,519.44 7.7,1174.27 -118.13,654.84 -290.17,1405.69 -516.16,2252.55 -225.98,846.85 -344.09,1280.13 -354.37,1299.82 -71.91,374.2 -416.01,1127.5 -1032.31,2259.93 -112.99,196.94 -308.15,342.19 -585.5,435.74 -277.33,93.55 -562.37,135.4 -855.12,125.55 -292.74,-9.85 -603.46,-49.23 -932.16,-118.16 -205.43,-39.39 -382.62,-174.79 -531.56,-406.2 -148.94,-231.4 -261.93,-487.43 -338.96,-768.08 -77.05,-280.64 -174.63,-635.14 -292.75,-1063.49 -118.12,-428.35 -233.68,-780.39 -346.67,-1056.1 -225.99,-561.3 -428.85,-1321.99 -608.61,-2282.08 -179.76,-960.1 -223.41,-1528.77 -130.97,-1706.02 92.45,-167.41 508.46,-329.89 1248.01,-487.44 739.57,-157.56 1160.71,-192.02 1263.44,-103.4 41.09,29.54 82.17,137.86 123.26,324.96 41.08,187.1 69.33,379.11 84.73,576.05 15.42,196.94 30.82,388.97 46.23,576.06 15.41,187.1 23.1,285.56 23.1,295.41 10.28,78.78 43.66,445.59 100.16,1100.42 56.5,654.84 118.12,1230.9 184.88,1728.18 66.78,497.28 141.25,750.85 223.41,760.69 82.18,9.85 159.22,-224.03 231.12,-701.61 71.9,-477.59 136.1,-1041.34 192.6,-1691.25 56.49,-649.91 89.88,-1004.41 100.15,-1063.49 174.62,-1230.9 333.83,-1880.81 477.64,-1949.74 61.63,-39.38 200.29,-46.77 416,-22.15 215.71,24.62 441.7,56.62 677.94,96 236.26,39.39 464.8,98.48 685.64,177.26 220.84,78.77 367.22,157.55 439.12,236.33z"/>
  <path id="3" class="fil12" d="M41368.31 28723.43c20.55,167.4 35.95,352.04 46.23,553.9 10.27,201.86 10.27,467.74 0,797.62 -10.28,329.88 -35.96,644.98 -77.04,945.32 -41.1,300.34 -120.7,615.45 -238.82,945.32 -118.12,329.89 -264.5,615.45 -439.11,856.71 -174.63,241.26 -408.3,443.12 -701.06,605.6 -292.74,162.48 -634.26,253.56 -1024.6,273.26 -996.36,39.38 -1848.91,-98.48 -2557.65,-413.58 -708.76,-315.11 -1160.71,-792.69 -1355.87,-1432.76 -143.8,-452.97 -238.81,-1026.57 -285.04,-1720.79 -46.23,-694.23 -2.57,-1400.76 130.96,-2119.6 133.53,-718.84 359.51,-1230.9 677.94,-1536.16 893.65,-856.71 2193.02,-1097.96 3898.13,-723.76 472.5,108.32 891.07,475.12 1255.72,1100.42 364.64,625.29 588.06,1248.13 670.23,1868.5zm-3112.34 2584.88c112.98,-9.85 202.87,-108.32 269.63,-295.41 66.77,-187.1 107.85,-420.97 123.25,-701.61 15.42,-280.64 23.12,-514.52 23.12,-701.61 0,-187.1 0,-354.49 0,-502.2 -10.28,-226.49 -56.51,-445.59 -138.68,-657.3 -82.17,-211.71 -169.48,-337.27 -261.92,-376.65 -82.18,-49.23 -200.31,-19.7 -354.37,88.63 -154.08,108.32 -277.35,256.03 -369.79,443.12 -92.45,167.4 -143.8,467.74 -154.08,901.01 -10.26,433.27 10.28,768.08 61.64,1004.42 30.82,256.03 128.39,457.89 292.75,605.6 164.34,147.7 333.83,211.71 508.46,192.01z"/>
  <path id="4" class="fil12" d="M44542.28 26596.44c0,246.18 10.28,600.68 30.82,1063.49 20.54,462.82 43.65,925.64 69.33,1388.46 25.68,462.82 51.36,950.25 77.04,1462.31 25.68,512.05 41.1,965.02 46.23,1358.9 5.13,393.89 -10.27,731.16 -46.23,1011.8 -35.95,280.64 -89.88,435.74 -161.78,465.27 -112.98,78.78 -521.29,105.86 -1224.9,81.24 -703.62,-24.62 -1081.1,-91.08 -1132.46,-199.41 -30.81,-78.78 -92.46,-785.31 -184.89,-2119.6 -92.46,-1334.28 -148.94,-2459.32 -169.48,-3375.11 -71.91,-2550.41 -66.78,-3993.03 15.4,-4327.82 20.55,-118.16 444.25,-192.02 1271.13,-221.56 826.88,-29.55 1271.13,19.69 1332.76,147.7 92.45,177.26 146.37,460.35 161.79,849.32 15.4,388.96 5.13,861.63 -30.82,1417.99 -35.96,556.37 -53.93,888.71 -53.93,997.02z"/>
  <path id="5" class="fil12" d="M51275.42 28930.22c-20.54,433.27 -20.54,913.32 0,1440.14 20.54,526.82 43.65,969.94 69.34,1329.36 25.68,359.42 35.95,691.76 30.81,997.03 -5.13,305.26 -33.38,512.05 -84.74,620.37 -51.37,98.47 -449.39,160.01 -1194.09,184.63 -744.71,24.62 -1168.42,2.46 -1271.14,-66.47 -123.25,-68.93 -187.46,-174.78 -192.59,-317.57 -5.14,-142.78 12.84,-258.49 53.92,-347.11 41.09,-88.63 35.95,-142.78 -15.4,-162.48 -10.28,19.7 -23.12,49.23 -38.52,88.63 -15.41,39.38 -59.06,108.32 -130.97,206.78 -71.9,98.48 -151.51,187.1 -238.81,265.87 -87.32,78.78 -205.44,150.18 -354.38,214.18 -148.94,64.01 -315.85,96.01 -500.74,96.01 -205.44,0 -403.17,-34.47 -593.2,-103.4 -190.02,-68.93 -346.68,-150.17 -469.93,-243.72 -123.26,-93.55 -236.26,-201.86 -338.97,-324.95 -102.71,-123.09 -177.19,-224.03 -223.41,-302.8 -46.22,-78.78 -84.73,-152.63 -115.55,-221.56 -164.34,-354.5 -274.77,-1041.34 -331.27,-2060.52 -56.49,-1019.17 -74.46,-1949.73 -53.93,-2791.67 20.55,-841.93 46.23,-1312.13 77.05,-1410.61 41.09,-98.47 410.87,-204.33 1109.35,-317.56 698.49,-113.24 1109.36,-115.71 1232.62,-7.38 30.81,29.54 61.63,142.78 92.44,339.72 30.82,196.94 56.5,462.82 77.05,797.61 20.54,334.81 20.54,659.76 0,974.87 -20.55,472.67 -25.68,947.79 -15.42,1425.38 10.28,477.59 23.12,893.64 38.52,1248.13 15.41,354.5 28.25,546.52 38.52,576.06 61.64,128.01 174.62,155.08 338.97,81.23 164.34,-73.85 282.47,-179.71 354.37,-317.57 41.08,-78.78 59.05,-354.49 53.92,-827.16 -5.14,-472.67 -20.54,-969.94 -46.22,-1491.84 -25.68,-521.9 -25.68,-1056.1 0,-1602.62 25.68,-546.52 95.01,-933.02 208,-1159.51 61.63,-118.16 472.5,-162.48 1232.6,-132.93 760.11,29.54 1176.12,98.47 1248.02,206.79 51.36,59.08 84.75,128.01 100.15,206.78 15.41,78.78 17.98,199.41 7.7,361.89 -10.27,162.48 -23.1,334.81 -38.52,516.98 -15.4,182.17 -33.37,465.27 -53.92,849.31 -20.54,384.04 -41.09,777.93 -61.63,1181.66z"/>
  <path id="6" class="fil12" d="M56175.04 30540.23c164.35,-39.38 482.78,160.01 955.28,598.22 472.5,438.2 698.48,745.93 677.94,923.17 -30.83,246.18 -426.28,654.83 -1186.39,1225.97 -184.89,137.86 -500.75,236.34 -947.57,295.42 -446.82,59.08 -919.32,39.38 -1417.5,-59.08 -498.18,-98.48 -860.26,-285.57 -1086.23,-561.3 -225.99,-256.03 -367.23,-642.52 -423.72,-1159.5 -56.49,-516.97 -64.2,-1036.41 -23.1,-1558.31 41.09,-521.9 41.09,-1078.27 0,-1669.1 -82.18,0 -177.19,4.93 -285.04,14.77 -107.85,9.85 -190.03,19.7 -246.52,29.55 -56.5,9.85 -115.57,4.92 -177.2,-14.77 -61.63,-19.7 -107.84,-54.16 -138.66,-103.4 -102.71,-157.56 -148.94,-475.13 -138.66,-952.72 10.26,-477.59 66.76,-760.68 169.48,-849.31 82.17,-39.38 146.37,-56.62 192.6,-51.7 46.22,4.92 138.66,17.23 277.34,36.93 138.66,19.69 264.49,24.62 377.48,14.77 82.18,-177.25 125.83,-433.27 130.98,-768.08 5.13,-334.81 -10.28,-652.38 -46.23,-952.72 -35.96,-300.33 -64.2,-585.9 -84.75,-856.7 -20.54,-270.8 -20.54,-430.82 0,-480.05 71.91,-206.79 349.24,-359.42 832.02,-457.89 482.78,-98.48 960.4,-118.17 1432.91,-59.08 472.5,59.08 724.15,172.32 754.97,339.72 20.54,98.47 10.27,317.57 -30.82,657.3 -41.09,339.72 -97.58,773 -169.48,1299.83 -71.9,526.82 -123.25,972.41 -154.07,1336.75 482.77,19.7 754.96,34.47 816.6,44.31 82.18,19.69 154.07,64 215.71,132.93 61.63,68.93 110.42,162.48 146.38,280.64 35.95,118.17 53.92,251.11 53.92,398.82 0,492.35 -41.1,773 -123.26,841.93 -41.09,29.55 -421.14,59.08 -1140.16,88.63 -102.71,403.73 -156.65,829.61 -161.78,1277.67 -5.14,448.05 12.83,800.08 53.92,1056.1 41.09,256.03 77.04,388.97 107.85,398.82 71.9,19.69 133.53,0 184.89,-59.08 51.36,-59.09 95.01,-132.94 130.97,-221.57 35.95,-88.62 95.01,-177.25 177.19,-265.86 82.18,-88.63 179.75,-152.64 292.74,-192.02z"/>
  <path id="7" class="fil12" d="M60504.6 26714.6c123.26,49.23 213.13,332.34 269.63,849.32 56.5,516.97 82.18,1041.34 77.04,1573.08 -5.14,531.75 -28.24,901.02 -69.34,1107.81 -41.08,256.03 -61.63,627.75 -61.63,1115.19 0,487.44 -5.13,920.71 -15.4,1299.83 -10.28,379.11 -56.51,622.83 -138.67,731.15 -61.63,88.63 -472.5,123.09 -1232.61,103.4 -760.11,-19.7 -1155.57,-68.93 -1186.39,-147.71 -20.54,-59.08 -41.08,-196.94 -61.63,-413.57 -20.54,-216.64 -43.65,-553.9 -69.33,-1011.8 -25.68,-457.89 -23.11,-992.09 7.7,-1602.62 30.82,-768.08 84.74,-1514 161.78,-2237.77 77.04,-723.76 166.92,-1154.58 269.64,-1292.43 51.35,-59.09 380.05,-98.48 986.08,-118.17 606.03,-19.69 960.4,-4.92 1063.13,44.31zm123.26 -2570.11c328.69,315.11 421.13,777.93 277.34,1388.46 -20.55,88.62 -71.91,174.78 -154.08,258.48 -82.18,83.7 -179.75,152.63 -292.75,206.79 -112.99,54.16 -228.55,100.93 -346.67,140.33 -118.12,39.38 -233.68,68.93 -346.67,88.62 -82.18,29.55 -225.99,36.93 -431.42,22.16 -205.44,-14.78 -413.43,-36.93 -624.01,-66.48 -210.56,-29.54 -400.59,-115.7 -570.08,-258.48 -169.48,-142.79 -259.36,-332.34 -269.63,-568.68 -10.26,-354.49 43.66,-659.75 161.78,-915.78 118.13,-256.03 300.46,-418.5 546.98,-487.44 225.97,-88.63 580.35,-120.63 1063.12,-96.01 482.78,24.62 811.47,120.63 986.1,288.03z"/>
  <path id="8" class="fil12" d="M67900.26 28723.43c20.55,167.4 35.95,352.04 46.23,553.9 10.27,201.86 10.27,467.74 0,797.62 -10.28,329.88 -35.96,644.98 -77.04,945.32 -41.1,300.34 -120.7,615.45 -238.82,945.32 -118.12,329.89 -264.5,615.45 -439.11,856.71 -174.63,241.26 -408.3,443.12 -701.06,605.6 -292.74,162.48 -634.26,253.56 -1024.6,273.26 -996.36,39.38 -1848.91,-98.48 -2557.65,-413.58 -708.76,-315.11 -1160.71,-792.69 -1355.87,-1432.76 -143.81,-452.97 -238.82,-1026.57 -285.04,-1720.79 -46.23,-694.23 -2.57,-1400.76 130.96,-2119.6 133.53,-718.84 359.51,-1230.9 677.94,-1536.16 893.65,-856.71 2193.02,-1097.96 3898.13,-723.76 472.5,108.32 891.07,475.12 1255.72,1100.42 364.64,625.29 588.06,1248.13 670.23,1868.5zm-3112.34 2584.88c112.98,-9.85 202.87,-108.32 269.63,-295.41 66.77,-187.1 107.85,-420.97 123.25,-701.61 15.42,-280.64 23.12,-514.52 23.12,-701.61 0,-187.1 0,-354.49 0,-502.2 -10.28,-226.49 -56.51,-445.59 -138.68,-657.3 -82.17,-211.71 -169.48,-337.27 -261.92,-376.65 -82.18,-49.23 -200.31,-19.7 -354.37,88.63 -154.08,108.32 -277.35,256.03 -369.79,443.12 -92.45,167.4 -143.8,467.74 -154.08,901.01 -10.26,433.27 10.28,768.08 61.64,1004.42 30.82,256.03 128.39,457.89 292.75,605.6 164.34,147.7 333.83,211.71 508.46,192.01z"/>
  <path id="9" class="fil12" d="M74094.13 26744.15c164.35,354.49 261.93,1053.64 292.74,2097.44 30.82,1043.8 20.55,1996.51 -30.81,2858.13 -51.37,861.63 -92.45,1341.68 -123.26,1440.15 -30.81,98.47 -369.78,184.63 -1016.9,258.48 -647.13,73.86 -1032.31,51.7 -1155.58,-66.47 -20.53,-29.54 -48.78,-142.78 -84.73,-339.72 -35.95,-196.94 -61.63,-462.82 -77.04,-797.62 -15.42,-334.8 -17.97,-659.75 -7.71,-974.86 20.55,-462.82 28.25,-908.4 23.12,-1336.76 -5.15,-428.35 -15.41,-790.23 -30.83,-1085.65 -15.4,-295.41 -28.24,-452.97 -38.5,-472.66 -61.64,-128.01 -177.19,-155.09 -346.68,-81.24 -169.48,73.85 -285.04,179.71 -346.68,317.57 -61.63,118.16 -89.87,881.32 -84.74,2289.47 5.13,1408.14 -38.52,2220.53 -130.96,2437.17 -61.63,128.01 -464.8,174.79 -1209.51,140.33 -744.7,-34.47 -1147.87,-105.86 -1209.5,-214.18 -51.36,-59.08 -84.74,-142.78 -100.14,-251.11 -15.42,-108.32 -20.55,-280.64 -15.42,-516.97 5.14,-236.33 12.84,-477.59 23.11,-723.76 10.28,-246.18 25.68,-617.91 46.22,-1115.2 20.55,-497.27 35.95,-982.25 46.23,-1454.91 10.27,-433.28 5.14,-864.09 -15.41,-1292.44 -20.55,-428.35 -43.65,-763.16 -69.33,-1004.41 -25.68,-241.26 -38.52,-465.28 -38.52,-672.08 0,-206.78 25.68,-364.34 77.04,-472.66 51.37,-88.63 451.97,-147.71 1201.8,-177.25 749.83,-29.55 1176.11,-9.85 1278.84,59.08 112.98,68.93 172.05,177.25 177.19,324.96 5.13,147.7 -12.83,263.41 -53.93,347.11 -41.08,83.7 -35.95,135.4 15.41,155.09 10.27,-19.7 23.11,-49.23 38.52,-88.63 15.4,-39.38 59.05,-108.32 130.96,-206.79 71.91,-98.47 151.51,-187.1 238.82,-265.86 87.31,-78.78 207.99,-147.71 362.08,-206.79 154.08,-59.08 318.42,-88.63 493.05,-88.63 215.7,0 418.57,34.47 608.6,103.4 190.03,68.93 344.11,147.71 462.23,236.33 118.13,88.63 231.12,194.49 338.97,317.57 107.85,123.09 182.33,224.03 223.41,302.8 41.09,78.77 77.04,152.63 107.85,221.56z"/>
  <path id="10" class="fil12" d="M79933.61 29521.04c236.26,167.41 428.84,374.2 577.79,620.38 148.94,246.18 241.39,494.82 277.34,745.92 35.95,251.11 46.23,487.44 30.82,709 -15.4,221.56 -53.92,425.9 -115.56,612.99 -51.35,167.4 -102.71,307.72 -154.07,420.96 -51.36,113.24 -123.26,238.79 -215.71,376.65 -92.45,137.86 -207.99,248.64 -346.68,332.34 -138.66,83.7 -300.44,140.33 -485.33,169.86 -318.42,49.24 -680.51,83.71 -1086.24,103.4 -405.74,19.7 -867.97,7.38 -1386.69,-36.92 -518.71,-44.31 -932.16,-130.48 -1240.3,-258.49 -267.07,-118.16 -526.43,-256.03 -778.09,-413.58 -251.66,-157.55 -377.5,-280.64 -377.5,-369.26 0,-147.71 154.08,-482.52 462.24,-1004.42 308.15,-521.9 528.99,-807.46 662.53,-856.7 195.16,-68.93 531.56,27.07 1009.21,288.03 477.63,260.95 783.22,386.5 916.75,376.65 143.8,-9.85 210.57,-68.93 200.29,-177.26 -10.26,-118.16 -133.53,-216.63 -369.77,-295.41 -1201.8,-374.19 -1859.19,-915.79 -1972.18,-1624.78 -41.09,-246.18 -25.68,-622.83 46.23,-1129.95 71.9,-507.13 159.21,-864.09 261.93,-1070.88 30.81,-88.63 77.04,-179.71 138.66,-273.26 61.64,-93.55 133.53,-192.01 215.71,-295.41 82.18,-103.4 169.49,-199.41 261.94,-288.04 92.44,-88.62 195.16,-174.78 308.14,-258.48 112.99,-83.7 231.12,-155.09 354.38,-214.18 123.25,-59.08 256.79,-105.86 400.59,-140.33 143.81,-34.47 287.62,-51.7 431.42,-51.7 523.86,0 924.45,36.93 1201.8,110.78 277.34,73.86 539.25,219.11 785.79,435.74 205.43,177.26 351.8,578.53 439.1,1203.81 87.32,625.3 69.34,977.33 -53.92,1056.11 -133.53,98.47 -459.66,187.1 -978.39,265.86 -518.72,78.78 -829.44,73.86 -932.16,-14.77 -51.36,-49.23 -92.45,-140.32 -123.25,-273.26 -30.82,-132.93 -66.78,-241.26 -107.85,-324.96 -41.1,-83.7 -102.72,-120.63 -184.89,-110.78 -143.8,29.55 -228.55,120.63 -254.23,273.26 -25.68,152.63 12.84,278.19 115.56,376.65 51.36,49.23 210.58,130.48 477.64,243.72 267.07,113.23 559.81,241.25 878.24,384.04 318.42,142.78 554.67,268.33 708.75,376.64z"/>
  <path id="11" class="fil13 str11" d="M15776.24 33287.58c-112.98,-147.7 -177.19,-595.75 -192.6,-1344.13 -15.4,-748.39 -10.27,-1555.85 15.41,-2422.41 25.68,-866.54 28.24,-1393.36 7.7,-1580.46 0,-9.85 -10.28,-145.25 -30.82,-406.2 -20.54,-260.95 -33.38,-443.12 -38.51,-546.52 -5.14,-103.4 -15.41,-292.96 -30.82,-568.67 -15.41,-275.72 -23.11,-487.44 -23.11,-635.15 0,-147.71 0,-344.64 0,-590.83 0,-246.18 12.84,-443.12 38.52,-590.82 25.68,-147.71 53.92,-305.27 84.74,-472.67 30.82,-167.4 74.47,-302.8 130.97,-406.2 56.49,-103.39 120.69,-179.7 192.6,-228.94 421.14,-285.56 1484.26,-329.88 3189.37,-132.93 657.39,78.78 1186.39,364.34 1586.99,856.71 400.6,492.35 652.25,1285.05 754.97,2378.08 30.81,315.11 30.81,615.45 0,901.01 -30.83,285.57 -84.75,531.75 -161.79,738.54 -77.04,206.79 -161.78,398.81 -254.22,576.06 -92.45,177.25 -192.6,322.49 -300.45,435.73 -107.85,113.24 -202.87,211.72 -285.04,295.42 -82.17,83.7 -154.07,140.32 -215.7,169.86l-77.05 59.08c30.82,39.38 77.05,96.01 138.67,169.86 61.63,73.86 166.92,211.71 315.85,413.58 148.94,201.86 279.91,391.42 392.9,568.67 112.98,177.25 218.28,366.81 315.86,568.68 97.59,201.86 146.37,366.81 146.37,494.82 20.55,295.41 -182.32,585.9 -608.6,871.46 -426.29,285.57 -721.59,428.35 -885.94,428.35 -174.61,0 -493.05,-216.63 -955.27,-649.91 -143.81,-137.85 -300.45,-384.04 -469.93,-738.53 -169.48,-354.5 -305.59,-674.53 -408.3,-960.1l-154.07 -443.12c10.27,59.08 20.54,137.86 30.82,236.34 10.27,98.47 28.24,278.18 53.92,539.12 25.68,260.96 46.22,499.75 61.64,716.39 15.4,216.63 23.1,433.27 23.1,649.9 0,216.64 -15.41,369.27 -46.23,457.9 -41.08,147.71 -233.67,265.87 -577.79,354.49 -344.09,88.63 -701.04,118.16 -1070.83,88.63 -369.77,-29.55 -600.89,-113.24 -693.34,-251.11zm2049.21 -7104.72c-30.81,177.26 -28.24,425.9 7.7,745.93 35.96,320.04 84.75,534.21 146.38,642.53 71.91,88.62 195.16,128.01 369.78,118.16 174.62,-9.85 336.41,-93.55 485.34,-251.11 148.94,-157.55 197.74,-344.64 146.37,-561.29 -82.17,-344.64 -297.88,-605.6 -647.12,-782.85 -277.34,-137.86 -441.68,-123.09 -493.05,44.31 -10.26,9.84 -15.41,24.62 -15.41,44.3z"/>
  <path id="12" class="fil13 str11" d="M26037.72 29875.54l-1355.87 132.93c-41.08,236.34 -15.4,521.9 77.05,856.71 92.45,334.81 179.75,507.13 261.93,516.97 92.45,9.85 172.06,-41.85 238.81,-155.08 66.78,-113.24 130.98,-251.11 192.61,-413.58 61.63,-162.48 112.98,-268.33 154.06,-317.57 102.72,-108.32 441.7,-59.08 1016.91,147.71 575.22,206.79 888.51,403.74 939.87,590.83 51.36,147.7 0,440.66 -154.08,878.86 -154.08,438.2 -328.69,745.92 -523.85,923.17 -410.87,364.34 -1294.25,546.52 -2650.12,546.52 -451.96,0 -834.57,-140.33 -1147.87,-420.97 -313.29,-280.64 -557.24,-598.22 -731.86,-952.71 -267.07,-571.13 -441.69,-1299.83 -523.86,-2186.07 -82.18,-886.25 -71.9,-1536.16 30.82,-1949.74 41.09,-157.56 102.71,-339.72 184.89,-546.52 82.18,-206.79 208,-438.2 377.5,-694.23 169.48,-256.03 367.21,-487.44 593.19,-694.22 225.98,-206.79 511.02,-381.58 855.12,-524.37 344.1,-142.78 716.46,-214.18 1117.06,-214.18 534.12,0 1024.6,118.16 1471.42,354.5 446.82,236.33 778.09,521.89 993.8,856.7 133.53,206.79 213.13,576.06 238.81,1107.81 25.68,531.74 -7.7,930.56 -100.15,1196.42 -51.36,137.86 -110.42,253.57 -177.19,347.12 -66.77,93.55 -156.64,184.63 -269.64,273.26 -112.98,88.62 -261.92,160.01 -446.81,214.18 -184.9,54.15 -405.74,96 -662.54,125.55zm-1494.54 -1137.35c41.09,118.16 195.16,108.32 462.23,-29.54 236.25,-137.86 380.05,-295.42 431.41,-472.67 30.82,-118.16 -20.53,-211.71 -154.06,-280.64 -133.53,-68.93 -277.35,-100.93 -431.42,-96.01 -154.08,4.93 -251.67,36.93 -292.75,96.01 -30.82,68.93 -51.36,189.56 -61.63,361.88 -10.28,172.33 5.13,312.65 46.22,420.97z"/>
  <path id="13" class="fil13 str11" d="M34481.11 26049.92c123.25,128.01 125.83,519.44 7.7,1174.27 -118.13,654.84 -290.17,1405.69 -516.16,2252.55 -225.98,846.85 -344.09,1280.13 -354.37,1299.82 -71.91,374.2 -416.01,1127.5 -1032.31,2259.93 -112.99,196.94 -308.15,342.19 -585.5,435.74 -277.33,93.55 -562.37,135.4 -855.12,125.55 -292.74,-9.85 -603.46,-49.23 -932.16,-118.16 -205.43,-39.39 -382.62,-174.79 -531.56,-406.2 -148.94,-231.4 -261.93,-487.43 -338.96,-768.08 -77.05,-280.64 -174.63,-635.14 -292.75,-1063.49 -118.12,-428.35 -233.68,-780.39 -346.67,-1056.1 -225.99,-561.3 -428.85,-1321.99 -608.61,-2282.08 -179.76,-960.1 -223.41,-1528.77 -130.97,-1706.02 92.45,-167.41 508.46,-329.89 1248.01,-487.44 739.57,-157.56 1160.71,-192.02 1263.44,-103.4 41.09,29.54 82.17,137.86 123.26,324.96 41.08,187.1 69.33,379.11 84.73,576.05 15.42,196.94 30.82,388.97 46.23,576.06 15.41,187.1 23.1,285.56 23.1,295.41 10.28,78.78 43.66,445.59 100.16,1100.42 56.5,654.84 118.12,1230.9 184.88,1728.18 66.78,497.28 141.25,750.85 223.41,760.69 82.18,9.85 159.22,-224.03 231.12,-701.61 71.9,-477.59 136.1,-1041.34 192.6,-1691.25 56.49,-649.91 89.88,-1004.41 100.15,-1063.49 174.62,-1230.9 333.83,-1880.81 477.64,-1949.74 61.63,-39.38 200.29,-46.77 416,-22.15 215.71,24.62 441.7,56.62 677.94,96 236.26,39.39 464.8,98.48 685.64,177.26 220.84,78.77 367.22,157.55 439.12,236.33z"/>
  <path id="14" class="fil13 str11" d="M41368.31 28723.43c20.55,167.4 35.95,352.04 46.23,553.9 10.27,201.86 10.27,467.74 0,797.62 -10.28,329.88 -35.96,644.98 -77.04,945.32 -41.1,300.34 -120.7,615.45 -238.82,945.32 -118.12,329.89 -264.5,615.45 -439.11,856.71 -174.63,241.26 -408.3,443.12 -701.06,605.6 -292.74,162.48 -634.26,253.56 -1024.6,273.26 -996.36,39.38 -1848.91,-98.48 -2557.65,-413.58 -708.76,-315.11 -1160.71,-792.69 -1355.87,-1432.76 -143.8,-452.97 -238.81,-1026.57 -285.04,-1720.79 -46.23,-694.23 -2.57,-1400.76 130.96,-2119.6 133.53,-718.84 359.51,-1230.9 677.94,-1536.16 893.65,-856.71 2193.02,-1097.96 3898.13,-723.76 472.5,108.32 891.07,475.12 1255.72,1100.42 364.64,625.29 588.06,1248.13 670.23,1868.5zm-3112.34 2584.88c112.98,-9.85 202.87,-108.32 269.63,-295.41 66.77,-187.1 107.85,-420.97 123.25,-701.61 15.42,-280.64 23.12,-514.52 23.12,-701.61 0,-187.1 0,-354.49 0,-502.2 -10.28,-226.49 -56.51,-445.59 -138.68,-657.3 -82.17,-211.71 -169.48,-337.27 -261.92,-376.65 -82.18,-49.23 -200.31,-19.7 -354.37,88.63 -154.08,108.32 -277.35,256.03 -369.79,443.12 -92.45,167.4 -143.8,467.74 -154.08,901.01 -10.26,433.27 10.28,768.08 61.64,1004.42 30.82,256.03 128.39,457.89 292.75,605.6 164.34,147.7 333.83,211.71 508.46,192.01z"/>
  <path id="15" class="fil13 str11" d="M44542.28 26596.44c0,246.18 10.28,600.68 30.82,1063.49 20.54,462.82 43.65,925.64 69.33,1388.46 25.68,462.82 51.36,950.25 77.04,1462.31 25.68,512.05 41.1,965.02 46.23,1358.9 5.13,393.89 -10.27,731.16 -46.23,1011.8 -35.95,280.64 -89.88,435.74 -161.78,465.27 -112.98,78.78 -521.29,105.86 -1224.9,81.24 -703.62,-24.62 -1081.1,-91.08 -1132.46,-199.41 -30.81,-78.78 -92.46,-785.31 -184.89,-2119.6 -92.46,-1334.28 -148.94,-2459.32 -169.48,-3375.11 -71.91,-2550.41 -66.78,-3993.03 15.4,-4327.82 20.55,-118.16 444.25,-192.02 1271.13,-221.56 826.88,-29.55 1271.13,19.69 1332.76,147.7 92.45,177.26 146.37,460.35 161.79,849.32 15.4,388.96 5.13,861.63 -30.82,1417.99 -35.96,556.37 -53.93,888.71 -53.93,997.02z"/>
  <path id="16" class="fil13 str11" d="M51275.42 28930.22c-20.54,433.27 -20.54,913.32 0,1440.14 20.54,526.82 43.65,969.94 69.34,1329.36 25.68,359.42 35.95,691.76 30.81,997.03 -5.13,305.26 -33.38,512.05 -84.74,620.37 -51.37,98.47 -449.39,160.01 -1194.09,184.63 -744.71,24.62 -1168.42,2.46 -1271.14,-66.47 -123.25,-68.93 -187.46,-174.78 -192.59,-317.57 -5.14,-142.78 12.84,-258.49 53.92,-347.11 41.09,-88.63 35.95,-142.78 -15.4,-162.48 -10.28,19.7 -23.12,49.23 -38.52,88.63 -15.41,39.38 -59.06,108.32 -130.97,206.78 -71.9,98.48 -151.51,187.1 -238.81,265.87 -87.32,78.78 -205.44,150.18 -354.38,214.18 -148.94,64.01 -315.85,96.01 -500.74,96.01 -205.44,0 -403.17,-34.47 -593.2,-103.4 -190.02,-68.93 -346.68,-150.17 -469.93,-243.72 -123.26,-93.55 -236.26,-201.86 -338.97,-324.95 -102.71,-123.09 -177.19,-224.03 -223.41,-302.8 -46.22,-78.78 -84.73,-152.63 -115.55,-221.56 -164.34,-354.5 -274.77,-1041.34 -331.27,-2060.52 -56.49,-1019.17 -74.46,-1949.73 -53.93,-2791.67 20.55,-841.93 46.23,-1312.13 77.05,-1410.61 41.09,-98.47 410.87,-204.33 1109.35,-317.56 698.49,-113.24 1109.36,-115.71 1232.62,-7.38 30.81,29.54 61.63,142.78 92.44,339.72 30.82,196.94 56.5,462.82 77.05,797.61 20.54,334.81 20.54,659.76 0,974.87 -20.55,472.67 -25.68,947.79 -15.42,1425.38 10.28,477.59 23.12,893.64 38.52,1248.13 15.41,354.5 28.25,546.52 38.52,576.06 61.64,128.01 174.62,155.08 338.97,81.23 164.34,-73.85 282.47,-179.71 354.37,-317.57 41.08,-78.78 59.05,-354.49 53.92,-827.16 -5.14,-472.67 -20.54,-969.94 -46.22,-1491.84 -25.68,-521.9 -25.68,-1056.1 0,-1602.62 25.68,-546.52 95.01,-933.02 208,-1159.51 61.63,-118.16 472.5,-162.48 1232.6,-132.93 760.11,29.54 1176.12,98.47 1248.02,206.79 51.36,59.08 84.75,128.01 100.15,206.78 15.41,78.78 17.98,199.41 7.7,361.89 -10.27,162.48 -23.1,334.81 -38.52,516.98 -15.4,182.17 -33.37,465.27 -53.92,849.31 -20.54,384.04 -41.09,777.93 -61.63,1181.66z"/>
  <path id="17" class="fil13 str11" d="M56175.04 30540.23c164.35,-39.38 482.78,160.01 955.28,598.22 472.5,438.2 698.48,745.93 677.94,923.17 -30.83,246.18 -426.28,654.83 -1186.39,1225.97 -184.89,137.86 -500.75,236.34 -947.57,295.42 -446.82,59.08 -919.32,39.38 -1417.5,-59.08 -498.18,-98.48 -860.26,-285.57 -1086.23,-561.3 -225.99,-256.03 -367.23,-642.52 -423.72,-1159.5 -56.49,-516.97 -64.2,-1036.41 -23.1,-1558.31 41.09,-521.9 41.09,-1078.27 0,-1669.1 -82.18,0 -177.19,4.93 -285.04,14.77 -107.85,9.85 -190.03,19.7 -246.52,29.55 -56.5,9.85 -115.57,4.92 -177.2,-14.77 -61.63,-19.7 -107.84,-54.16 -138.66,-103.4 -102.71,-157.56 -148.94,-475.13 -138.66,-952.72 10.26,-477.59 66.76,-760.68 169.48,-849.31 82.17,-39.38 146.37,-56.62 192.6,-51.7 46.22,4.92 138.66,17.23 277.34,36.93 138.66,19.69 264.49,24.62 377.48,14.77 82.18,-177.25 125.83,-433.27 130.98,-768.08 5.13,-334.81 -10.28,-652.38 -46.23,-952.72 -35.96,-300.33 -64.2,-585.9 -84.75,-856.7 -20.54,-270.8 -20.54,-430.82 0,-480.05 71.91,-206.79 349.24,-359.42 832.02,-457.89 482.78,-98.48 960.4,-118.17 1432.91,-59.08 472.5,59.08 724.15,172.32 754.97,339.72 20.54,98.47 10.27,317.57 -30.82,657.3 -41.09,339.72 -97.58,773 -169.48,1299.83 -71.9,526.82 -123.25,972.41 -154.07,1336.75 482.77,19.7 754.96,34.47 816.6,44.31 82.18,19.69 154.07,64 215.71,132.93 61.63,68.93 110.42,162.48 146.38,280.64 35.95,118.17 53.92,251.11 53.92,398.82 0,492.35 -41.1,773 -123.26,841.93 -41.09,29.55 -421.14,59.08 -1140.16,88.63 -102.71,403.73 -156.65,829.61 -161.78,1277.67 -5.14,448.05 12.83,800.08 53.92,1056.1 41.09,256.03 77.04,388.97 107.85,398.82 71.9,19.69 133.53,0 184.89,-59.08 51.36,-59.09 95.01,-132.94 130.97,-221.57 35.95,-88.62 95.01,-177.25 177.19,-265.86 82.18,-88.63 179.75,-152.64 292.74,-192.02z"/>
  <path id="18" class="fil13 str11" d="M60504.6 26714.6c123.26,49.23 213.13,332.34 269.63,849.32 56.5,516.97 82.18,1041.34 77.04,1573.08 -5.14,531.75 -28.24,901.02 -69.34,1107.81 -41.08,256.03 -61.63,627.75 -61.63,1115.19 0,487.44 -5.13,920.71 -15.4,1299.83 -10.28,379.11 -56.51,622.83 -138.67,731.15 -61.63,88.63 -472.5,123.09 -1232.61,103.4 -760.11,-19.7 -1155.57,-68.93 -1186.39,-147.71 -20.54,-59.08 -41.08,-196.94 -61.63,-413.57 -20.54,-216.64 -43.65,-553.9 -69.33,-1011.8 -25.68,-457.89 -23.11,-992.09 7.7,-1602.62 30.82,-768.08 84.74,-1514 161.78,-2237.77 77.04,-723.76 166.92,-1154.58 269.64,-1292.43 51.35,-59.09 380.05,-98.48 986.08,-118.17 606.03,-19.69 960.4,-4.92 1063.13,44.31zm123.26 -2570.11c328.69,315.11 421.13,777.93 277.34,1388.46 -20.55,88.62 -71.91,174.78 -154.08,258.48 -82.18,83.7 -179.75,152.63 -292.75,206.79 -112.99,54.16 -228.55,100.93 -346.67,140.33 -118.12,39.38 -233.68,68.93 -346.67,88.62 -82.18,29.55 -225.99,36.93 -431.42,22.16 -205.44,-14.78 -413.43,-36.93 -624.01,-66.48 -210.56,-29.54 -400.59,-115.7 -570.08,-258.48 -169.48,-142.79 -259.36,-332.34 -269.63,-568.68 -10.26,-354.49 43.66,-659.75 161.78,-915.78 118.13,-256.03 300.46,-418.5 546.98,-487.44 225.97,-88.63 580.35,-120.63 1063.12,-96.01 482.78,24.62 811.47,120.63 986.1,288.03z"/>
  <path id="19" class="fil13 str11" d="M67900.26 28723.43c20.55,167.4 35.95,352.04 46.23,553.9 10.27,201.86 10.27,467.74 0,797.62 -10.28,329.88 -35.96,644.98 -77.04,945.32 -41.1,300.34 -120.7,615.45 -238.82,945.32 -118.12,329.89 -264.5,615.45 -439.11,856.71 -174.63,241.26 -408.3,443.12 -701.06,605.6 -292.74,162.48 -634.26,253.56 -1024.6,273.26 -996.36,39.38 -1848.91,-98.48 -2557.65,-413.58 -708.76,-315.11 -1160.71,-792.69 -1355.87,-1432.76 -143.81,-452.97 -238.82,-1026.57 -285.04,-1720.79 -46.23,-694.23 -2.57,-1400.76 130.96,-2119.6 133.53,-718.84 359.51,-1230.9 677.94,-1536.16 893.65,-856.71 2193.02,-1097.96 3898.13,-723.76 472.5,108.32 891.07,475.12 1255.72,1100.42 364.64,625.29 588.06,1248.13 670.23,1868.5zm-3112.34 2584.88c112.98,-9.85 202.87,-108.32 269.63,-295.41 66.77,-187.1 107.85,-420.97 123.25,-701.61 15.42,-280.64 23.12,-514.52 23.12,-701.61 0,-187.1 0,-354.49 0,-502.2 -10.28,-226.49 -56.51,-445.59 -138.68,-657.3 -82.17,-211.71 -169.48,-337.27 -261.92,-376.65 -82.18,-49.23 -200.31,-19.7 -354.37,88.63 -154.08,108.32 -277.35,256.03 -369.79,443.12 -92.45,167.4 -143.8,467.74 -154.08,901.01 -10.26,433.27 10.28,768.08 61.64,1004.42 30.82,256.03 128.39,457.89 292.75,605.6 164.34,147.7 333.83,211.71 508.46,192.01z"/>
  <path id="20" class="fil13 str11" d="M74094.13 26744.15c164.35,354.49 261.93,1053.64 292.74,2097.44 30.82,1043.8 20.55,1996.51 -30.81,2858.13 -51.37,861.63 -92.45,1341.68 -123.26,1440.15 -30.81,98.47 -369.78,184.63 -1016.9,258.48 -647.13,73.86 -1032.31,51.7 -1155.58,-66.47 -20.53,-29.54 -48.78,-142.78 -84.73,-339.72 -35.95,-196.94 -61.63,-462.82 -77.04,-797.62 -15.42,-334.8 -17.97,-659.75 -7.71,-974.86 20.55,-462.82 28.25,-908.4 23.12,-1336.76 -5.15,-428.35 -15.41,-790.23 -30.83,-1085.65 -15.4,-295.41 -28.24,-452.97 -38.5,-472.66 -61.64,-128.01 -177.19,-155.09 -346.68,-81.24 -169.48,73.85 -285.04,179.71 -346.68,317.57 -61.63,118.16 -89.87,881.32 -84.74,2289.47 5.13,1408.14 -38.52,2220.53 -130.96,2437.17 -61.63,128.01 -464.8,174.79 -1209.51,140.33 -744.7,-34.47 -1147.87,-105.86 -1209.5,-214.18 -51.36,-59.08 -84.74,-142.78 -100.14,-251.11 -15.42,-108.32 -20.55,-280.64 -15.42,-516.97 5.14,-236.33 12.84,-477.59 23.11,-723.76 10.28,-246.18 25.68,-617.91 46.22,-1115.2 20.55,-497.27 35.95,-982.25 46.23,-1454.91 10.27,-433.28 5.14,-864.09 -15.41,-1292.44 -20.55,-428.35 -43.65,-763.16 -69.33,-1004.41 -25.68,-241.26 -38.52,-465.28 -38.52,-672.08 0,-206.78 25.68,-364.34 77.04,-472.66 51.37,-88.63 451.97,-147.71 1201.8,-177.25 749.83,-29.55 1176.11,-9.85 1278.84,59.08 112.98,68.93 172.05,177.25 177.19,324.96 5.13,147.7 -12.83,263.41 -53.93,347.11 -41.08,83.7 -35.95,135.4 15.41,155.09 10.27,-19.7 23.11,-49.23 38.52,-88.63 15.4,-39.38 59.05,-108.32 130.96,-206.79 71.91,-98.47 151.51,-187.1 238.82,-265.86 87.31,-78.78 207.99,-147.71 362.08,-206.79 154.08,-59.08 318.42,-88.63 493.05,-88.63 215.7,0 418.57,34.47 608.6,103.4 190.03,68.93 344.11,147.71 462.23,236.33 118.13,88.63 231.12,194.49 338.97,317.57 107.85,123.09 182.33,224.03 223.41,302.8 41.09,78.77 77.04,152.63 107.85,221.56z"/>
  <path id="21" class="fil13 str11" d="M79933.61 29521.04c236.26,167.41 428.84,374.2 577.79,620.38 148.94,246.18 241.39,494.82 277.34,745.92 35.95,251.11 46.23,487.44 30.82,709 -15.4,221.56 -53.92,425.9 -115.56,612.99 -51.35,167.4 -102.71,307.72 -154.07,420.96 -51.36,113.24 -123.26,238.79 -215.71,376.65 -92.45,137.86 -207.99,248.64 -346.68,332.34 -138.66,83.7 -300.44,140.33 -485.33,169.86 -318.42,49.24 -680.51,83.71 -1086.24,103.4 -405.74,19.7 -867.97,7.38 -1386.69,-36.92 -518.71,-44.31 -932.16,-130.48 -1240.3,-258.49 -267.07,-118.16 -526.43,-256.03 -778.09,-413.58 -251.66,-157.55 -377.5,-280.64 -377.5,-369.26 0,-147.71 154.08,-482.52 462.24,-1004.42 308.15,-521.9 528.99,-807.46 662.53,-856.7 195.16,-68.93 531.56,27.07 1009.21,288.03 477.63,260.95 783.22,386.5 916.75,376.65 143.8,-9.85 210.57,-68.93 200.29,-177.26 -10.26,-118.16 -133.53,-216.63 -369.77,-295.41 -1201.8,-374.19 -1859.19,-915.79 -1972.18,-1624.78 -41.09,-246.18 -25.68,-622.83 46.23,-1129.95 71.9,-507.13 159.21,-864.09 261.93,-1070.88 30.81,-88.63 77.04,-179.71 138.66,-273.26 61.64,-93.55 133.53,-192.01 215.71,-295.41 82.18,-103.4 169.49,-199.41 261.94,-288.04 92.44,-88.62 195.16,-174.78 308.14,-258.48 112.99,-83.7 231.12,-155.09 354.38,-214.18 123.25,-59.08 256.79,-105.86 400.59,-140.33 143.81,-34.47 287.62,-51.7 431.42,-51.7 523.86,0 924.45,36.93 1201.8,110.78 277.34,73.86 539.25,219.11 785.79,435.74 205.43,177.26 351.8,578.53 439.1,1203.81 87.32,625.3 69.34,977.33 -53.92,1056.11 -133.53,98.47 -459.66,187.1 -978.39,265.86 -518.72,78.78 -829.44,73.86 -932.16,-14.77 -51.36,-49.23 -92.45,-140.32 -123.25,-273.26 -30.82,-132.93 -66.78,-241.26 -107.85,-324.96 -41.1,-83.7 -102.72,-120.63 -184.89,-110.78 -143.8,29.55 -228.55,120.63 -254.23,273.26 -25.68,152.63 12.84,278.19 115.56,376.65 51.36,49.23 210.58,130.48 477.64,243.72 267.07,113.23 559.81,241.25 878.24,384.04 318.42,142.78 554.67,268.33 708.75,376.64z"/>
 </g>
</svg>
