<?xml version="1.0" encoding="UTF-8"?>
<!DOCTYPE svg PUBLIC "-//W3C//DTD SVG 1.1//EN" "http://www.w3.org/Graphics/SVG/1.1/DTD/svg11.dtd">
<!-- Creator: CorelDRAW -->
<svg xmlns="http://www.w3.org/2000/svg" xml:space="preserve" width="175mm" height="165mm" style="shape-rendering:geometricPrecision; text-rendering:geometricPrecision; image-rendering:optimizeQuality; fill-rule:evenodd; clip-rule:evenodd"
viewBox="0 0 175 165">
 <defs>
  <style type="text/css">
   <![CDATA[
    .str0 {stroke:#1F1A17;stroke-width:0.0762}
    .str1 {stroke:#1F1A17;stroke-width:1.4111}
    .fil0 {fill:#0A0B0C}
    .fil3 {fill:#DA251D}
    .fil5 {fill:#E77817}
    .fil2 {fill:#F8C300}
    .fil4 {fill:#FFF500}
    .fil1 {fill:#ED6E00}
   ]]>
  </style>
 </defs>
 <g id="Capa_x0020_1">
  <metadata id="CorelCorpID_0Corel-Layer"/>
  <polygon class="fil0 str0" points="124.412,86.5251 167.853,81.2556 123.895,82.9567 "/>
  <polygon class="fil0 str0" points="93.7284,118.579 81.795,160.679 90.2832,117.515 "/>
  <polygon class="fil0 str0" points="129.174,65.4605 172.135,57.1453 129.777,69.0155 "/>
  <polygon class="fil0 str0" points="129.293,99.4108 165.249,124.351 127.17,102.325 "/>
  <polygon class="fil0 str0" points="64.8494,119.047 33.6082,149.687 62.3853,116.415 "/>
  <polygon class="fil0 str0" points="122.555,54.619 161.312,34.3037 124.154,57.8507 "/>
  <polygon class="fil0 str0" points="105.991,42.3216 131.116,6.4948 108.895,44.4601 "/>
  <polygon class="fil0 str0" points="84.6842,46.6431 92.4634,3.5814 88.2166,47.3666 "/>
  <polygon class="fil0 str0" points="110.213,116.703 125.819,157.584 106.816,117.91 "/>
  <polygon class="fil0 str0" points="77.7601,121.539 55.6141,159.28 74.6936,119.642 "/>
  <polygon class="fil0 str0" points="56.5003,111.867 18.5934,133.728 54.7722,108.703 "/>
  <polygon class="fil0 str0" points="48.793,99.8484 5.8637,108.328 48.1768,96.2957 "/>
  <polygon class="fil0 str0" points="45.4151,86.5251 1.9748,81.2556 45.9326,82.9567 "/>
  <polygon class="fil0 str0" points="121.855,111.356 148.024,146.427 118.916,113.444 "/>
  <polygon class="fil0 str0" points="46.9599,70.424 8.4096,49.7188 48.7395,67.288 "/>
  <polygon class="fil0 str0" points="53.5127,56.9829 24.1961,24.4965 56.2451,54.6302 "/>
  <polygon class="fil0 str0" points="64.4716,46.36 48.1102,5.7751 67.8463,45.09 "/>
  <path class="fil1 str1" d="M136.796 56.1207c4.0877,-1.6619 -1.5956,-13.6407 -5.6469,-11.2938 -3.9181,-10.9399 -12.0263,-13.0586 -21.9737,-11.2176 -8.7102,-17.2188 -36.4816,-8.7414 -39.9254,12.9551l0.2172 -3.9094c-19.3287,-14.5291 -33.6746,12.7735 -23.4565,24.7596 -32.4184,2.9304 -19.5926,39.8751 1.5203,43.4379 -6.6663,15.5944 13.4714,35.6521 23.8909,23.0221 -1.9049,-3.5712 -1.76,-6.5396 0.4344,-8.9047 2.6201,13.6673 15.5043,21.3025 26.4971,5.6469 -0.0531,1.9783 -1.5033,3.8492 -3.9094,5.6469 9.2998,8.0928 29.3731,5.2032 24.7596,-8.6876 9.507,-2.2112 10.9431,-9.1913 6.2985,-19.7642 16.2345,12.4825 40.2659,-21.6021 15.2033,-29.1034 1.1696,-6.3697 -0.3058,-11.1719 -5.6469,-13.683 3.3977,-0.9186 3.6453,-4.128 1.7375,-8.9048z"/>
  <path class="fil2 str1" d="M41.8136 100.505c-14.9299,-10.4495 -7.2609,-31.4534 12.9662,-30.0436 4.3742,-11.7296 10.0663,-17.7914 18.6586,-11.385 10.1994,-14.4976 19.2125,-20.2963 25.6162,-6.9575 12.44,-1.7665 21.7169,-0.7652 24.0349,6.325 -5.9405,-9.7923 -4.3593,-12.3223 4.7437,-7.59 8.306,7.8728 8.7064,13.7446 1.2018,17.6151 1.3131,22.7365 -3.0405,38.9231 -23.6554,45.6347 -12.1757,30.4652 -39.9531,5.6922 -15.4962,-12.65 -11.5428,-0.5404 -9.5622,-14.9337 -3.795,-33.2061 -7.4319,9.5403 -23.0862,5.0073 -18.0262,11.0687 16.0571,14.9039 15.3003,25.986 -5.7488,32.4563 -14.7612,-7.1596 -20.7805,-17.1206 -2.6318,-34.8281 -14.2446,-10.3706 -20.912,2.3058 -17.868,23.5605z"/>
  <path class="fil3 str1" d="M58.2816 93.2059c-12.8167,-8.9705 -6.2332,-27.0016 11.131,-25.7913 3.7551,-10.0694 8.6416,-15.2732 16.0177,-9.7735 8.7558,-12.4457 16.4932,-17.4237 21.9905,-5.9728 10.6793,-1.5165 18.6431,-0.6569 20.633,5.4298 -5.0997,-8.4064 -3.7422,-10.5783 4.0723,-6.5157 7.1304,6.7585 7.4741,11.7991 1.0317,15.1218 1.1272,19.5184 -2.6101,33.414 -20.3073,39.1756 -10.4523,26.1532 -34.2981,4.8866 -13.3028,-10.8595 -9.909,-0.4639 -8.2088,-12.82 -3.2579,-28.5061 -6.3799,8.1899 -19.8185,4.2986 -15.4748,9.502 13.7845,12.7944 13.1348,22.308 -4.9351,27.8625 -12.6719,-6.1462 -17.8392,-14.6974 -2.2593,-29.8986 -12.2284,-8.9028 -17.9521,1.9795 -15.339,20.2258z"/>
  <ellipse class="fil4 str1" transform="matrix(0.923428 -0.317764 0.317764 0.923428 106.031 85.5813)" rx="7.8153" ry="10.4967"/>
  <ellipse class="fil5" transform="matrix(0.628187 -0.216168 0.216168 0.628187 105.68 82.3559)" rx="7.8153" ry="10.4967"/>
  <ellipse class="fil3" transform="matrix(0.589691 -0.202921 0.202921 0.589691 116.061 72.7321)" rx="7.8153" ry="10.4967"/>
  <ellipse class="fil5 str1" transform="matrix(0.401153 -0.138042 0.138042 0.401153 115.837 70.6724)" rx="7.8153" ry="10.4967"/>
  <ellipse class="fil4 str1" transform="matrix(0.279812 -0.517152 0.517152 0.279812 75.9148 92.5281)" rx="7.8153" ry="10.4967"/>
  <ellipse class="fil5" transform="matrix(0.190349 -0.351807 0.351807 0.190349 74.4447 91.2416)" rx="7.8153" ry="10.4967"/>
  <ellipse class="fil4 str1" transform="matrix(0.279812 -0.517152 0.517152 0.279812 76.5299 81.9846)" rx="7.8153" ry="10.4967"/>
  <ellipse class="fil5" transform="matrix(0.190349 -0.351807 0.351807 0.190349 75.0598 80.6981)" rx="7.8153" ry="10.4967"/>
  <path class="fil4 str1" d="M101.491 105.033c-6.977,-0.6582 -8.2606,8.8935 0.7899,9.0833 4.5744,-1.9088 6.6478,-4.3442 6.2201,-7.3061 1.0471,-1.9027 0.4122,-2.8876 -0.9873,-3.4556 -1.198,1.5209 -3.0455,2.2706 -6.0227,1.6784z"/>
  <path class="fil4 str1" d="M117.398 88.8253c-6.977,1.3624 -8.2606,11.2858 0.7899,8.8545 4.5744,-3.2336 6.6478,-6.2694 6.2201,-9.1075 1.0471,-2.2059 0.4122,-3.007 -0.9874,-3.1697 -1.1979,1.8679 -3.0454,3.1527 -6.0226,3.4227z"/>
  <path class="fil3" d="M75.497 111.048c-3.9659,-0.3741 -4.6955,5.0553 0.449,5.1632 2.6002,-1.085 3.7788,-2.4694 3.5356,-4.153 0.5953,-1.0815 0.2343,-1.6414 -0.5612,-1.9643 -0.6809,0.8646 -1.7311,1.2907 -3.4234,0.9541z"/>
  <path class="fil3" d="M59.9516 121.617c0.5455,-7.5205 -9.7591,-8.6787 -9.7525,1.0613 2.1599,4.8762 4.8279,7.0498 8.0041,6.5207 2.0711,1.0821 3.1158,0.3761 3.6942,-1.1426 -1.664,-1.2532 -2.5135,-3.2231 -1.9458,-6.4394z"/>
  <path class="fil3" d="M109.911 117.72c-7.4014,1.4402 -5.8245,11.6891 3.5748,9.1355 4.1417,-3.36 5.5419,-6.5036 4.2005,-9.4308 0.5029,-2.282 -0.4518,-3.1058 -2.0689,-3.2668 -0.7744,1.9337 -2.4535,3.2688 -5.7064,3.5621z"/>
  <path class="fil3" d="M138.242 89.2922c-7.0282,2.7353 -5.5308,22.1994 3.3945,17.3497 3.9328,-6.381 5.2624,-12.3512 3.9887,-17.9105 0.4775,-4.3338 -0.429,-5.8982 -1.9646,-6.2041 -0.7354,3.6725 -2.3298,6.2081 -5.4186,6.7649z"/>
  <path class="fil3" d="M61.0219 41.819c-14.8229,2.5327 -17.5369,11.7858 -14.5775,20.9358 1.9193,-7.6086 6.8686,-14.568 14.5775,-20.9358z"/>
  <path class="fil3" d="M99.3189 31.9279c-16.2012,-1.417 -21.5788,7.5182 -20.9931,17.902 4.0952,-7.4329 11.1819,-13.3555 20.9931,-17.902z"/>
  <path class="fil3" d="M126.178 49.9118c-4.6264,-15.5911 -14.9116,-17.315 -24.3562,-12.9601 8.4171,1.0822 16.5268,5.5014 24.3562,12.9601z"/>
  <ellipse class="fil3" transform="matrix(0.401153 -0.138042 0.138042 0.401153 46.7546 104.936)" rx="7.8153" ry="10.4967"/>
  <ellipse class="fil4 str0" transform="matrix(0.209582 -0.07212 0.07212 0.209582 64.2785 49.8832)" rx="7.8153" ry="10.4967"/>
  <ellipse class="fil4 str0" transform="matrix(0.276493 -0.0951451 0.0951451 0.276493 65.0981 58.4627)" rx="7.8153" ry="10.4967"/>
  <ellipse class="fil4 str0" transform="matrix(0.276493 -0.0951451 0.0951451 0.276493 59.4325 61.1692)" rx="7.8153" ry="10.4967"/>
  <ellipse class="fil4 str1" transform="matrix(-0.187331 -0.471365 0.471365 -0.187331 94.1754 62.5854)" rx="7.8153" ry="10.4967"/>
  <ellipse class="fil5" transform="matrix(-0.127437 -0.320659 0.320659 -0.127437 92.5106 62.8461)" rx="7.8153" ry="10.4967"/>
  <ellipse class="fil4 str1" transform="matrix(-0.432201 -0.325851 0.325851 -0.432201 104.51 67.9086)" rx="7.8153" ry="10.4967"/>
  <path class="fil3" d="M118.126 67.2083c-10.302,-2.0116 -12.1973,-16.6641 1.1663,-13.0743 6.7545,4.7747 9.8159,9.2573 9.1844,13.4479 1.5462,3.2571 0.6086,4.44 -1.4579,4.6802 -1.7688,-2.758 -4.4968,-4.6551 -8.8928,-5.0538z"/>
  <path class="fil4 str1" d="M114.537 61.1648c-4.806,-0.9384 -5.6901,-7.7739 0.544,-6.0992 3.151,2.2274 4.5792,4.3185 4.2846,6.2735 0.7213,1.5195 0.2839,2.0713 -0.6801,2.1833 -0.8252,-1.2866 -2.0978,-2.1716 -4.1485,-2.3576z"/>
  <ellipse class="fil4 str1" transform="matrix(0.104254 -0.411231 0.411231 0.104254 96.0893 52.9342)" rx="7.8153" ry="10.4967"/>
  <ellipse class="fil4 str0" transform="matrix(0.052127 -0.205615 0.205615 0.052127 103.089 32.4989)" rx="7.8153" ry="10.4967"/>
  <path class="fil3" d="M109.587 130.163c-5.2232,-2.4688 -11.1748,1.6931 -4.0568,4.5786 4.6321,0.5017 7.5417,-0.0202 8.7289,-1.5658 1.8166,-0.5846 1.8185,-1.2507 0.9957,-1.954 -1.7399,0.3559 -3.5997,0.1432 -5.6678,-1.0588z"/>
  <path class="fil3" d="M121.153 116.322c-2.2646,-5.3149 2.1247,-11.1008 4.7323,-3.8764 0.322,4.6481 -0.3123,7.5353 -1.9027,8.6617 -0.6545,1.7926 -1.3202,1.7687 -1.9911,0.9193 0.423,-1.7248 0.2825,-3.5914 -0.8385,-5.7046z"/>
  <path class="fil3" d="M64.3327 119.585c-3.9659,-0.3741 -4.6955,5.0553 0.449,5.1632 2.6003,-1.085 3.7788,-2.4694 3.5357,-4.153 0.5952,-1.0815 0.2343,-1.6414 -0.5612,-1.9642 -0.681,0.8645 -1.7312,1.2906 -3.4235,0.954z"/>
  <path class="fil3" d="M69.7725 107.499c-6.5583,-0.3742 -7.7649,5.0552 0.7424,5.1631 4.2999,-1.085 6.2489,-2.4693 5.8468,-4.153 0.9843,-1.0815 0.3875,-1.6414 -0.9281,-1.9642 -1.126,0.8645 -2.8626,1.2907 -5.6611,0.9541z"/>
 </g>
</svg>
