<?xml version="1.0" encoding="UTF-8"?>
<!DOCTYPE svg PUBLIC "-//W3C//DTD SVG 1.1//EN" "http://www.w3.org/Graphics/SVG/1.1/DTD/svg11.dtd">
<!-- Creator: CorelDRAW -->
<svg xmlns="http://www.w3.org/2000/svg" xml:space="preserve" width="175mm" height="165mm" style="shape-rendering:geometricPrecision; text-rendering:geometricPrecision; image-rendering:optimizeQuality; fill-rule:evenodd; clip-rule:evenodd"
viewBox="0 0 175 165">
 <defs>
  <style type="text/css">
   <![CDATA[
    .str2 {stroke:#1F1A17;stroke-width:0.0762}
    .str4 {stroke:#1F1A17;stroke-width:0.7056}
    .str3 {stroke:#1F1A17;stroke-width:1.4111}
    .str5 {stroke:#DA251D;stroke-width:1.4111;stroke-linejoin:bevel}
    .str0 {stroke:#0A0B0C;stroke-width:2.8222;stroke-linejoin:bevel}
    .str1 {stroke:#1F1A17;stroke-width:2.8222}
    .fil5 {fill:none}
    .fil3 {fill:#0A0B0C}
    .fil1 {fill:#4D4948}
    .fil4 {fill:#DEDEDD}
    .fil0 {fill:#F8C300}
    .fil2 {fill:white}
   ]]>
  </style>
 </defs>
 <g id="Capa_x0020_1">
  <metadata id="CorelCorpID_0Corel-Layer"/>
  <polygon class="fil0 str0" points="119.582,44.1138 85.194,35.5536 116.483,37.0295 106.594,25.0748 121.649,33.0446 120.615,23.1561 127.995,29.5024 127.109,5.7213 133.308,29.5024 138.179,20.0567 138.916,29.9452 148.362,24.3368 142.016,35.2584 163.121,30.2404 144.672,41.7523 157.217,45.2945 148.51,47.5083 161.055,55.4781 140.392,51.4932 148.51,68.7611 137.588,59.7582 134.932,85.5863 131.242,55.4781 113.679,75.4026 122.534,55.7733 112.203,60.9389 121.649,49.427 109.103,49.427 "/>
  <ellipse class="fil1 str1" cx="66.7396" cy="105.818" rx="52.5179" ry="52.5179"/>
  <ellipse class="fil2 str2" transform="matrix(0.229217 0 0.0780914 0.27585 94.2163 95.8852)" rx="45.2132" ry="48.2706"/>
  <ellipse class="fil2 str2" transform="matrix(0.124527 0 0.042425 0.149862 93.7541 116.816)" rx="45.2132" ry="48.2706"/>
  <path class="fil3 str2" d="M37.08 69.8238c-35.0793,22.2993 -13.762,95.9087 44.867,80.7607 -40.7549,-12.9286 -59.5281,-40.3605 -44.867,-80.7607z"/>
  <path class="fil1 str1" d="M76.988 51.6408l-4.959 12.0433c3.3847,11.7283 12.7515,17.4743 28.101,17.2384l7.7927 -12.0433c0.1574,-14.0114 -16.5302,-22.8271 -30.9347,-17.2384z"/>
  <path class="fil3 str2" d="M78.4049 56.5998c0.9912,4.2305 2.8349,6.8878 7.4977,9.5449l-4.3795 7.2982c-3.2966,-2.0338 -6.3679,-4.1585 -7.8293,-8.5518l4.7111 -8.2913z"/>
  <path class="fil3 str2" d="M90.9081 69.4201l-4.2899 8.2178c1.6041,1.3507 3.2086,2.0285 4.8128,1.723l4.6019 -8.7085c-2.279,0.167 -4.1712,0.0913 -5.1248,-1.2323z"/>
  <path class="fil4 str3" d="M87.2602 59.6106c7.9414,-17.8647 23.9804,-21.8478 42.9484,-20.81l1.6235 10.774c-15.5341,-2.2786 -27.9564,1.3857 -34.831,15.6444 -4.8213,0.6887 -8.0682,-1.1809 -9.7409,-5.6084z"/>
  <path class="fil5 str4" d="M97.0011 65.219c-4.5138,-2.2606 -6.3174,-7.2179 -6.0949,-12.106"/>
  <path class="fil5 str4" d="M100.531 60.5681c-4.5138,-2.2605 -6.3174,-7.2178 -6.0949,-12.106"/>
  <path class="fil5 str4" d="M103.57 56.3333c-4.1894,-2.5491 -4.7668,-6.2613 -4.5443,-11.1495"/>
  <path class="fil5 str4" d="M107.519 53.0406c-4.0883,-2.9613 -4.5229,-5.8802 -3.512,-10.6679"/>
  <path class="fil5 str4" d="M111.622 51.0152c-4.0883,-2.9614 -4.2073,-4.891 -3.1965,-9.6787"/>
  <path class="fil5 str4" d="M116.184 49.7333c-3.7216,-3.1935 -3.933,-5.7079 -2.9222,-10.4956"/>
  <polygon class="fil0 str5" points="119.582,44.1138 85.194,35.5536 116.483,37.0295 106.594,25.0748 121.649,33.0446 120.615,23.1561 127.995,29.5024 127.109,5.7213 133.308,29.5024 138.179,20.0567 138.916,29.9452 148.362,24.3368 142.016,35.2584 163.121,30.2404 144.672,41.7523 157.217,45.2945 148.51,47.5083 161.055,55.4781 140.392,51.4932 148.51,68.7611 137.588,59.7582 134.932,85.5863 131.242,55.4781 113.679,75.4026 122.534,55.7733 112.203,60.9389 121.649,49.427 109.103,49.427 "/>
 </g>
</svg>
