<?xml version="1.0" encoding="UTF-8"?>
<!DOCTYPE svg PUBLIC "-//W3C//DTD SVG 1.1//EN" "http://www.w3.org/Graphics/SVG/1.1/DTD/svg11.dtd">
<!-- Creator: CorelDRAW -->
<svg xmlns="http://www.w3.org/2000/svg" xml:space="preserve" width="175mm" height="165mm" style="shape-rendering:geometricPrecision; text-rendering:geometricPrecision; image-rendering:optimizeQuality; fill-rule:evenodd; clip-rule:evenodd"
viewBox="0 0 175 165">
 <defs>
  <style type="text/css">
   <![CDATA[
    .str1 {stroke:#1F1A17;stroke-width:0.0762}
    .str0 {stroke:#1F1A17;stroke-width:1.4111}
    .fil3 {fill:#75C5F0}
    .fil6 {fill:#DA251D}
    .fil8 {fill:#330000}
    .fil7 {fill:#33CC00}
    .fil0 {fill:#33FF00}
    .fil9 {fill:#660000}
    .fil1 {fill:#990000}
    .fil4 {fill:red}
    .fil5 {fill:#4FA800}
    .fil2 {fill:#996640}
   ]]>
  </style>
 </defs>
 <g id="Capa_x0020_1">
  <metadata id="CorelCorpID_0Corel-Layer"/>
  <rect class="fil0 str0" transform="matrix(0.964297 0.388671 0 0.818307 17.6297 49.4066)" width="74.8554" height="98.9097"/>
  <rect class="fil1 str1" transform="matrix(1.01546 0.375979 0 0.128713 10.1053 54.6478)" width="71.877" height="37.4205"/>
  <rect class="fil2 str1" transform="matrix(0.627911 0.243235 0 0.451009 28.1362 75.4616)" width="74.8554" height="98.9097"/>
  <rect class="fil3 str1" transform="matrix(0.498039 0.188621 0 0.34934 33.2158 82.9485)" width="74.8554" height="98.9097"/>
  <polygon class="fil4 str0" points="10.1053,54.6478 50.7984,3.6375 123.251,32.7296 83.0938,81.6721 "/>
  <polygon class="fil1 str1" points="83.0938,86.4886 123.108,37.3578 160.528,54.4008 160.281,49.5843 123.251,32.7296 83.0938,81.6721 "/>
  <polygon class="fil5 str0" points="89.8125,159.439 89.8125,78.5007 123.108,37.3578 156.796,52.7009 156.315,132.389 "/>
  <polygon class="fil6 str1" points="25.215,21.1142 40.391,27.3472 56.1632,21.1684 40.662,15.0438 "/>
  <polygon class="fil1 str1" points="25.215,21.1142 25.3234,27.7266 40.5536,33.7428 40.391,27.3472 "/>
  <polygon class="fil1 str1" points="56.1632,21.1684 56.1632,27.835 40.5536,33.7428 40.391,27.3472 "/>
  <polygon class="fil0 str1" points="28.1035,28.8248 27.9792,44.9622 40.3806,49.8378 40.5536,33.7428 "/>
  <polygon class="fil7 str1" points="40.3806,49.8378 53.6158,34.9352 53.5052,28.841 40.5536,33.7428 "/>
  <polygon class="fil8 str1" points="109.333,88.8928 113.086,89.8658 144.778,77.3558 141.025,75.4098 "/>
  <rect class="fil2 str1" transform="matrix(0.983266 -0.411647 0 1 113.086 89.8658)" width="31.97" height="63.94"/>
  <polygon class="fil8 str1" points="109.333,88.8928 113.086,89.8658 113.086,153.806 109.402,152.416 "/>
  <rect class="fil8 str1" transform="matrix(1.04494 -0.428298 0 1.05427 131.611 88.653)" width="9.8968" height="24.0192"/>
  <rect class="fil8 str1" transform="matrix(1.04494 -0.428298 0 1.05427 131.611 116.593)" width="9.8968" height="24.0192"/>
  <rect class="fil8 str1" transform="matrix(1.04494 -0.428298 0 1.05427 116.371 93.733)" width="9.8968" height="24.0192"/>
  <rect class="fil8 str1" transform="matrix(1.04494 -0.428298 0 1.05427 116.371 121.673)" width="9.8968" height="24.0192"/>
  <polygon class="fil2 str1" points="70.4967,111.362 32.4864,95.797 32.3556,101.225 70.4967,116.725 "/>
  <polygon class="fil2 str1" points="48.9864,88.9213 53.3601,90.5777 53.3529,125.128 48.7582,123.388 "/>
  <polygon class="fil9 str1" points="40.7162,17.2118 30.4182,21.1142 40.391,25.396 50.96,21.1684 "/>
 </g>
</svg>
