<?xml version="1.0" encoding="UTF-8"?>
<!DOCTYPE svg PUBLIC "-//W3C//DTD SVG 1.1//EN" "http://www.w3.org/Graphics/SVG/1.1/DTD/svg11.dtd">
<!-- Creator: CorelDRAW -->
<svg xmlns="http://www.w3.org/2000/svg" xml:space="preserve" width="827mm" height="365mm" style="shape-rendering:geometricPrecision; text-rendering:geometricPrecision; image-rendering:optimizeQuality; fill-rule:evenodd; clip-rule:evenodd"
viewBox="0 0 827 365">
 <defs>
  <style type="text/css">
   <![CDATA[
    .str5 {stroke:#1F1A17;stroke-width:0.0762}
    .str10 {stroke:#1F1A17;stroke-width:0.0762}
    .str7 {stroke:#1F1A17;stroke-width:0.7056}
    .str6 {stroke:#1F1A17;stroke-width:1.4111}
    .str8 {stroke:#DA251D;stroke-width:1.4111;stroke-linejoin:bevel}
    .str1 {stroke:#0A0B0C;stroke-width:2.8222}
    .str3 {stroke:#0A0B0C;stroke-width:2.8222;stroke-linejoin:bevel}
    .str4 {stroke:#1F1A17;stroke-width:2.8222}
    .str11 {stroke:#F8C300;stroke-width:2.8222}
    .str0 {stroke:#0A0B0C;stroke-width:5.6444}
    .str9 {stroke:#1F1A17;stroke-width:5.6444}
    .str2 {stroke:#521C78;stroke-width:5.6444;stroke-dasharray:5 5}
    .fil5 {fill:none}
    .fil9 {fill:none;fill-rule:nonzero}
    .fil3 {fill:#0A0B0C}
    .fil0 {fill:#383431}
    .fil2 {fill:#4D4948}
    .fil4 {fill:#DEDEDD}
    .fil1 {fill:#F8C300}
    .fil7 {fill:#0A0B0C}
    .fil6 {fill:white}
    .fil8 {fill:#1F1A17;fill-rule:nonzero}
   ]]>
  </style>
 </defs>
 <g id="Capa_x0020_1">
  <metadata id="CorelCorpID_0Corel-Layer"/>
  <path id="_274134912" class="fil0 str0" d="M63.1775 312.109c1.8453,-17.9677 7.6929,-40.5743 0.9097,-58.2025 -10.9759,-19.3152 -20.5387,-35.7867 -25.8554,-55.5256 -2.6723,-7.1267 -4.0501,-14.1326 -3.1271,-20.5219 -0.5926,-19.4286 -2.5496,-42.1986 22.8367,-47.852 5.5749,-5.3034 14.0222,-14.391 21.5928,-16.423 6.8325,-10.6921 31.6138,-14.2049 44.0736,-9.9758 12.4597,-4.229 37.2411,-0.7164 44.0735,9.9757 7.5702,2.0318 16.0187,11.1198 21.5933,16.4231 25.3863,5.6534 23.4293,28.4234 22.8367,47.852 0.9231,6.3893 -0.4549,13.3952 -3.1271,20.5219 -5.3167,19.7389 -14.8795,36.2104 -25.8554,55.5256 -6.7831,17.6282 -0.9356,40.2348 0.9096,58.2025l-4.2471 0 -1.2205 0 -0.6009 0 -1.2214 0 -0.6001 0 -1.2226 0 -0.5989 0 -1.2236 0 -0.5975 0 -1.2249 0 -0.5967 0 -1.2257 0 -0.5957 0 -1.2271 0 -0.5944 0 -1.228 0 -0.5936 0 -1.2288 0 -0.5929 0 -1.2295 0 -0.592 0 -1.2304 0 -0.5914 0 -1.231 0 -0.5904 0 -1.2321 0 -0.5897 0 -1.2327 0 -0.5891 0 -1.2333 0 -0.5884 0 -1.2341 0 -0.5875 0 -1.2349 0 -0.5872 0 -1.2351 0 -0.5867 0 -1.2358 0 -0.586 0 -1.2364 0 -0.5855 0 -1.2369 0 -0.5852 0 -1.237 0 -0.5849 0 -1.2375 0 -0.5845 0 -1.2376 0 -0.5842 0 -1.2383 0 -0.5839 0 -1.2382 0 -0.5839 0 -1.2385 0 -0.5835 0 -1.2387 0 -0.5833 0 -1.2389 0 -0.5833 0 -1.2387 0 -0.5834 0 -1.239 0 -0.5832 0 -1.2389 0 -0.5831 0 -1.239 0 -0.5834 0 -1.2388 0 -0.5834 0 -1.2386 0 -0.5837 0 -1.2384 0 -0.5837 0 -1.2385 0 -0.584 0 -1.2379 0 -0.5842 0 -1.2378 0 -0.5846 0 -1.2375 0 -0.5847 0 -1.2374 0 -0.585 0 -1.2369 0 -0.5855 0 -1.2363 0 -0.5862 0 -1.2356 0 -0.5865 0 -1.2354 0 -0.587 0 -1.2348 0 -0.5877 0 -1.234 0 -0.5884 0 -1.2335 0 -0.5887 0 -1.2331 0 -0.5896 0 -1.232 0 -0.5904 0 -1.2315 0 -0.5908 0 -1.2307 0 -0.5918 0 -1.2297 0 -0.5928 0 -1.2288 0 -0.5936 0 -1.228 0 -0.5945 0 -1.2269 0 -0.5955 0 -1.2261 0 -0.5966 0 -1.2248 0 -0.5977 0 -1.2237 0 -0.5986 0 -1.2227 0 -0.5997 0 -1.2216 0 -0.6011 0 -1.2201 0 -4.2472 0z"/>
  <g id="_355056520">
   <path id="_355055704" class="fil0 str1" d="M66.79 287.301l113.636 0c3.9283,-0.0001 7.1323,3.2038 7.1323,7.1321l0 26.6636c0,3.9282 -3.204,7.1322 -7.1323,7.1322l-113.636 0.0001c-3.9282,-0.0001 -7.1321,-3.2041 -7.1321,-7.1324l-0.0001 -26.6634c0.0001,-3.9284 3.204,-7.1323 7.1323,-7.1323z"/>
   <rect id="_274135032" class="fil0 str1" x="68.1842" y="287.301" width="8.52663" height="40.928"/>
   <rect id="_274141200" class="fil0 str1" x="76.7115" y="287.301" width="8.52663" height="40.928"/>
   <rect id="_274142208" class="fil0 str1" x="85.2379" y="287.301" width="8.52663" height="40.928"/>
   <rect id="_274140984" class="fil0 str1" x="93.7642" y="287.301" width="8.52663" height="40.928"/>
   <rect id="_274140744" class="fil0 str1" x="102.292" y="287.301" width="8.52663" height="40.928"/>
   <rect id="_274140768" class="fil0 str1" x="110.818" y="287.301" width="8.52663" height="40.928"/>
   <rect id="_274141416" class="fil0 str1" x="119.344" y="287.301" width="8.52663" height="40.928"/>
   <rect id="_274141128" class="fil0 str1" x="127.871" y="287.301" width="8.52663" height="40.928"/>
   <rect id="_274141728" class="fil0 str1" x="136.398" y="287.301" width="8.52663" height="40.928"/>
   <rect id="_274142160" class="fil0 str1" x="144.924" y="287.301" width="8.52663" height="40.928"/>
   <rect id="_274141752" class="fil0 str1" x="153.451" y="287.301" width="8.52663" height="40.928"/>
   <rect id="_274141776" class="fil0 str1" x="161.978" y="287.301" width="8.52663" height="40.928"/>
   <rect id="_274141512" class="fil0 str1" x="170.504" y="287.301" width="8.52663" height="40.928"/>
  </g>
  <path id="_218248880" class="fil0 str2" d="M34.8268 177.402l20.0314 34.9353 68.7137 20.3972 69.4187 -20.3972 19.3356 -36.462m-177.499 1.5267z"/>
  <polygon class="fil1 str3" points="216.729,59.3732 156.241,44.316 211.277,46.912 193.884,25.8838 220.364,39.9026 218.546,22.5089 231.527,33.6721 229.969,-8.1587 240.873,33.6721 249.44,17.0572 250.738,34.4509 267.352,24.5858 256.189,43.7967 293.313,34.9701 260.862,55.2195 282.929,61.45 267.612,65.3441 289.679,79.3629 253.334,72.3535 267.612,102.728 248.401,86.8915 243.728,132.323 237.238,79.3629 206.345,114.41 221.921,79.8821 203.749,88.9684 220.364,68.719 198.297,68.719 "/>
  <ellipse class="fil2 str4" cx="123.78" cy="167.91" rx="92.3783" ry="92.3782"/>
  <path class="fil3 str5" d="M71.6086 104.597c-61.704,39.2242 -24.2072,168.702 78.9206,142.057 -71.6875,-22.7412 -104.709,-70.9936 -78.9206,-142.057z"/>
  <path class="fil2 str4" d="M141.806 72.6131l-8.7228 21.184c5.9536,20.63 22.4297,30.7371 49.4292,30.3221l13.7073 -21.1839c0.2767,-24.6459 -29.0764,-40.1527 -54.4137,-30.3222z"/>
  <path class="fil3 str5" d="M144.299 81.3359c1.7435,7.4414 4.9865,12.1157 13.1884,16.7894l-7.7036 12.8374c-5.7986,-3.5773 -11.201,-7.3147 -13.7715,-15.0424l8.2867 -14.5844z"/>
  <path class="fil3 str5" d="M166.292 103.887l-7.5459 14.455c2.8216,2.3759 5.6439,3.5681 8.4656,3.0307l8.0947 -15.3181c-4.0086,0.2938 -7.337,0.1606 -9.0144,-2.1676z"/>
  <path class="fil4 str6" d="M159.875 86.6319c13.9688,-31.4238 42.1812,-38.4301 75.5458,-36.6046l2.8556 18.9513c-27.3243,-4.008 -49.175,2.4375 -61.2673,27.5184 -8.4805,1.2114 -14.1919,-2.0772 -17.1341,-9.8651z"/>
  <path class="fil5 str7" d="M177.009 96.497c-7.9397,-3.9763 -11.1123,-12.6961 -10.7208,-21.2943"/>
  <path class="fil5 str7" d="M183.217 88.3162c-7.9397,-3.9763 -11.1123,-12.6961 -10.7209,-21.2943"/>
  <path class="fil5 str7" d="M188.563 80.8672c-7.3691,-4.4838 -8.3848,-11.0136 -7.9933,-19.6118"/>
  <path class="fil5 str7" d="M195.51 75.0754c-7.1913,-5.2089 -7.9557,-10.3432 -6.1776,-18.7647"/>
  <path class="fil5 str7" d="M202.727 71.5126c-7.1914,-5.2089 -7.4006,-8.6031 -5.6226,-17.0246"/>
  <path class="fil5 str7" d="M210.752 69.2579c-6.5462,-5.6174 -6.9181,-10.0402 -5.1401,-18.4617"/>
  <polygon class="fil1 str8" points="216.729,59.3732 156.241,44.316 211.277,46.912 193.884,25.8838 220.364,39.9026 218.546,22.5089 231.527,33.6721 229.969,-8.1587 240.873,33.6721 249.44,17.0572 250.738,34.4509 267.352,24.5858 256.189,43.7967 293.313,34.9701 260.862,55.2195 282.929,61.45 267.612,65.3441 289.679,79.3629 253.334,72.3535 267.612,102.728 248.401,86.8915 243.728,132.323 237.238,79.3629 206.345,114.41 221.921,79.8821 203.749,88.9684 220.364,68.719 198.297,68.719 "/>
  <g id="_351947704">
   <path id="_354869112" class="fil6 str9" d="M68.2336 125.628c-38.9232,44.8572 29.0097,80.3349 51.6893,34.4595l-51.6893 -34.4595z"/>
   <path id="_354862848" class="fil7 str10" d="M84.6632 137.121c-17.4225,20.0787 12.9851,35.9591 23.1369,15.4246l-23.1369 -15.4246z"/>
   <circle id="_354863400" class="fil6 str10" cx="97.9492" cy="150.665" r="3.26564"/>
   <path id="_354248408" class="fil6 str9" d="M184.39 125.628c38.9233,44.8572 -29.0096,80.3349 -51.6894,34.4595l51.6894 -34.4595z"/>
   <path id="_354249224" class="fil7 str10" d="M167.961 137.121c17.4226,20.0787 -12.9852,35.9591 -23.1368,15.4246l23.1368 -15.4246z"/>
   <circle id="_354249488" class="fil6 str10" cx="154.675" cy="150.665" r="3.26564"/>
  </g>
  <path class="fil8" d="M309.528 127.576l0 -23.8706 71.0709 0c1.646,0 3.05,-0.732 4.2361,-2.2279 1.1861,-1.6232 1.7913,-3.5328 1.7913,-5.6971 0,-2.1643 -0.6052,-4.0421 -1.7913,-5.6016 -1.1861,-1.5596 -2.5901,-2.3234 -4.2361,-2.3234l-56.0385 0c-3.3164,0 -6.1727,-1.5596 -8.5692,-4.6787 -2.3239,-3.0872 -3.4858,-6.8429 -3.4858,-11.2669l0 -31.7956c0,-4.3603 1.1619,-8.116 3.4858,-11.2987 2.3965,-3.0873 5.2528,-4.6468 8.5692,-4.6468l81.6975 0 0 23.8705 -63.5426 0c-1.646,0 -3.0742,0.7639 -4.2603,2.3234 -1.1861,1.5596 -1.7671,3.4374 -1.7671,5.6017 0,2.2279 0.581,4.1375 1.7671,5.6971 1.1861,1.5595 2.6143,2.3234 4.2603,2.3234l56.0385 0c3.2922,0 6.1244,1.5595 8.4966,4.6468 2.3723,3.1191 3.5584,6.8429 3.5584,11.2033l0 31.891c0,4.3604 -1.1861,8.116 -3.5584,11.2669 -2.3722,3.0555 -5.2044,4.5832 -8.4966,4.5832l-89.2258 0z"/>
  <path class="fil8" d="M491.005 103.705c3.3164,0 6.1727,-1.5277 8.5934,-4.5831 2.348,-3.1509 3.5342,-6.9066 3.5342,-11.2669l0 -23.8706c0,-4.424 -1.1862,-8.1797 -3.5342,-11.2988 -2.4207,-3.0872 -5.277,-4.6468 -8.5934,-4.6468l-33.26 0c-3.3647,0 -6.2211,1.5596 -8.5692,4.6468 -2.3722,3.1191 -3.5583,6.8748 -3.5583,11.2988l0 23.8706c0,4.3603 1.1861,8.116 3.5583,11.2669 2.3481,3.0554 5.2045,4.5831 8.5692,4.5831l33.26 0zm-45.3875 23.8706c-6.7053,0 -12.4181,-3.1191 -17.09,-9.3254 -4.7202,-6.2064 -7.0925,-13.7177 -7.0925,-22.4702l0 -39.8161c0,-8.7526 2.3723,-16.2638 7.0925,-22.4702 4.7204,-6.2063 10.4332,-9.3254 17.09,-9.3254l57.5151 0c6.6568,0 12.3696,3.1191 17.09,9.3254 4.7202,6.2064 7.0925,13.7176 7.0925,22.4702l0 39.8161c0,8.8162 -2.3723,16.3275 -7.0925,22.4702 -4.7204,6.2063 -10.4332,9.3254 -17.09,9.3254l-57.5151 0z"/>
  <path class="fil8" d="M563.625 127.576c-6.7053,0 -12.4181,-3.1191 -17.09,-9.3254 -4.7202,-6.2064 -7.0925,-13.7177 -7.0925,-22.4702l0 -39.8161c0,-8.7526 2.3723,-16.2638 7.0925,-22.4702 4.7204,-6.2063 10.4332,-9.3254 17.09,-9.3254l63.5426 0 0 23.8705 -51.4151 0c-3.3647,0 -6.2211,1.5596 -8.5692,4.6468 -2.3722,3.1191 -3.5583,6.8748 -3.5583,11.2988l0 23.8706c0,4.3603 1.1861,8.116 3.5583,11.2669 2.3481,3.0554 5.2045,4.5831 8.5692,4.5831l51.4151 0 0 23.8706 -63.5426 0z"/>
  <polygon class="fil8" points="636.245,127.576 636.245,24.1683 660.428,24.1683 660.428,63.9844 671.006,63.9844 708.865,24.1683 739.075,24.1683 691.412,74.3283 742.125,127.576 708.865,127.576 671.006,87.855 660.428,87.855 660.428,127.576 "/>
  <path class="fil9 str11" d="M309.528 127.576l0 -23.8706 71.0709 0c1.646,0 3.05,-0.732 4.2361,-2.2279 1.1861,-1.6232 1.7913,-3.5328 1.7913,-5.6971 0,-2.1643 -0.6052,-4.0421 -1.7913,-5.6016 -1.1861,-1.5596 -2.5901,-2.3234 -4.2361,-2.3234l-56.0385 0c-3.3164,0 -6.1727,-1.5596 -8.5692,-4.6787 -2.3239,-3.0872 -3.4858,-6.8429 -3.4858,-11.2669l0 -31.7956c0,-4.3603 1.1619,-8.116 3.4858,-11.2987 2.3965,-3.0873 5.2528,-4.6468 8.5692,-4.6468l81.6975 0 0 23.8705 -63.5426 0c-1.646,0 -3.0742,0.7639 -4.2603,2.3234 -1.1861,1.5596 -1.7671,3.4374 -1.7671,5.6017 0,2.2279 0.581,4.1375 1.7671,5.6971 1.1861,1.5595 2.6143,2.3234 4.2603,2.3234l56.0385 0c3.2922,0 6.1244,1.5595 8.4966,4.6468 2.3723,3.1191 3.5584,6.8429 3.5584,11.2033l0 31.891c0,4.3604 -1.1861,8.116 -3.5584,11.2669 -2.3722,3.0555 -5.2044,4.5832 -8.4966,4.5832l-89.2258 0z"/>
  <path class="fil9 str11" d="M491.005 103.705c3.3164,0 6.1727,-1.5277 8.5934,-4.5831 2.348,-3.1509 3.5342,-6.9066 3.5342,-11.2669l0 -23.8706c0,-4.424 -1.1862,-8.1797 -3.5342,-11.2988 -2.4207,-3.0872 -5.277,-4.6468 -8.5934,-4.6468l-33.26 0c-3.3647,0 -6.2211,1.5596 -8.5692,4.6468 -2.3722,3.1191 -3.5583,6.8748 -3.5583,11.2988l0 23.8706c0,4.3603 1.1861,8.116 3.5583,11.2669 2.3481,3.0554 5.2045,4.5831 8.5692,4.5831l33.26 0zm-45.3875 23.8706c-6.7053,0 -12.4181,-3.1191 -17.09,-9.3254 -4.7202,-6.2064 -7.0925,-13.7177 -7.0925,-22.4702l0 -39.8161c0,-8.7526 2.3723,-16.2638 7.0925,-22.4702 4.7204,-6.2063 10.4332,-9.3254 17.09,-9.3254l57.5151 0c6.6568,0 12.3696,3.1191 17.09,9.3254 4.7202,6.2064 7.0925,13.7176 7.0925,22.4702l0 39.8161c0,8.8162 -2.3723,16.3275 -7.0925,22.4702 -4.7204,6.2063 -10.4332,9.3254 -17.09,9.3254l-57.5151 0z"/>
  <path class="fil9 str11" d="M563.625 127.576c-6.7053,0 -12.4181,-3.1191 -17.09,-9.3254 -4.7202,-6.2064 -7.0925,-13.7177 -7.0925,-22.4702l0 -39.8161c0,-8.7526 2.3723,-16.2638 7.0925,-22.4702 4.7204,-6.2063 10.4332,-9.3254 17.09,-9.3254l63.5426 0 0 23.8705 -51.4151 0c-3.3647,0 -6.2211,1.5596 -8.5692,4.6468 -2.3722,3.1191 -3.5583,6.8748 -3.5583,11.2988l0 23.8706c0,4.3603 1.1861,8.116 3.5583,11.2669 2.3481,3.0554 5.2045,4.5831 8.5692,4.5831l51.4151 0 0 23.8706 -63.5426 0z"/>
  <polygon class="fil9 str11" points="636.245,127.576 636.245,24.1683 660.428,24.1683 660.428,63.9844 671.006,63.9844 708.865,24.1683 739.075,24.1683 691.412,74.3283 742.125,127.576 708.865,127.576 671.006,87.855 660.428,87.855 660.428,127.576 "/>
  <path class="fil8" d="M308.528 304.772c-7.904,0 -14.637,-3.6351 -20.2316,-10.9055 -2.0167,-2.6943 -3.6756,-5.5597 -4.9441,-8.6817 -0.9434,-1.7535 -1.8216,-4.1056 -2.5697,-7.1421l-34.8688 -114.872 34.1207 0 27.5177 90.5804 0.0976 -0.1283c0.3903,1.0264 0.8132,1.7534 1.236,2.2666 0.5205,0.5988 1.0409,0.8554 1.6264,0.8554 1.1384,0 2.0817,-0.5132 2.8624,-1.6252 0.1951,-0.2138 0.3903,-0.5132 0.5854,-0.8553l19.8088 -91.0936 36.8855 0 19.7113 91.0936c0.1952,0.3421 0.3903,0.6415 0.5855,0.8553 0.8132,1.112 1.789,1.6252 2.9599,1.6252 0.4879,0 1.0084,-0.2566 1.4963,-0.8554 0.5203,-0.5132 0.9758,-1.2402 1.3335,-2.2666l0 0.1283 27.6479 -90.5804 34.1206 0 -34.9663 114.872c-0.7806,3.0365 -1.6264,5.3886 -2.5696,7.1421 -1.3011,3.122 -2.9274,5.9874 -4.9767,8.6817 -5.5946,7.2704 -12.2951,10.9055 -20.1015,10.9055 -9.01,0 -16.6864,-4.1483 -22.964,-12.4451 -3.9358,-5.1748 -6.668,-10.9484 -8.1968,-17.4062 -0.1952,-0.727 -0.4228,-1.5396 -0.6505,-2.3522 -0.5205,-2.01 -0.9758,-4.1483 -1.3336,-6.415l-10.6038 -48.8398 -10.5712 48.8398c-0.3903,2.2667 -0.8132,4.405 -1.3336,6.415 -0.1952,0.8126 -0.4228,1.5824 -0.6505,2.2239 -1.4637,6.5434 -4.1635,12.3597 -8.0992,17.5345 -6.3753,8.2968 -14.0191,12.4451 -22.964,12.4451z"/>
  <path class="fil8" d="M564.677 270.046c2.2118,0 4.1309,-0.9836 5.7247,-2.9937 1.5938,-2.1811 2.3745,-4.7471 2.3745,-7.6553 0,-2.9081 -0.7807,-5.4314 -2.3745,-7.5269 -1.5938,-2.0956 -3.5129,-3.122 -5.7247,-3.122l-58.9712 0c-2.2444,0 -4.1635,1.0264 -5.8223,3.122 -1.5288,2.0955 -2.2769,4.6188 -2.2769,7.5269 0,2.9082 0.7481,5.4742 2.2769,7.6553 1.6588,2.0101 3.5779,2.9937 5.8223,2.9937l58.9712 0zm-83.3663 32.0752c-4.5213,0 -8.3595,-2.0528 -11.5471,-6.1584 -3.1225,-4.234 -4.6838,-9.2805 -4.6838,-15.1395l0 -42.7242c0,-5.9446 1.5613,-10.9911 4.6838,-15.1823 3.1876,-4.1484 7.0258,-6.2439 11.5471,-6.2439l83.3663 0c4.4562,0 8.2618,2.0955 11.4494,6.2439 0.2277,0.2566 0.4879,0.556 0.7481,0.8981l0 -7.142c0,-5.9446 -1.6263,-10.9911 -4.8465,-15.1823 -3.1876,-4.1484 -6.9933,-6.244 -11.4494,-6.244l-93.4822 0 0 -32.0752 109.778 0c8.9449,0 16.6212,4.1912 22.964,12.5307 6.3427,8.3396 9.5304,18.4326 9.5304,30.1935l0 96.2256 -32.4944 0 0 -7.1421c-0.2602,0.3422 -0.5204,0.6843 -0.7481,0.9837 -3.1876,4.1056 -6.9932,6.1584 -11.4494,6.1584l-83.3663 0z"/>
  <path class="fil8" d="M719.147 216.673c2.2118,0 4.1309,-1.0264 5.7247,-3.122 1.5938,-2.0956 2.3744,-4.6616 2.3744,-7.6553 0,-2.9082 -0.7806,-5.4314 -2.3744,-7.527 -1.5938,-2.0956 -3.5129,-3.122 -5.7247,-3.122l-60.9879 0 0 21.4263 60.9879 0zm46.8061 128.173l-73.1854 -96.0973 -34.6086 0 0 53.3731 -32.4943 0 0 -138.95 117.877 0c4.4562,0 8.2943,2.0956 11.547,6.244 3.1551,4.1912 4.749,9.2377 4.749,15.1823l0 42.7241c0,5.9446 -1.5939,10.9911 -4.749,15.1395 -3.2527,4.1912 -7.0908,6.2868 -11.547,6.2868l-10.1809 0 73.1854 96.0973 -40.5935 0z"/>
  <path class="fil9 str11" d="M308.528 304.772c-7.904,0 -14.637,-3.6351 -20.2316,-10.9055 -2.0167,-2.6943 -3.6756,-5.5597 -4.9441,-8.6817 -0.9434,-1.7535 -1.8216,-4.1056 -2.5697,-7.1421l-34.8688 -114.872 34.1207 0 27.5177 90.5804 0.0976 -0.1283c0.3903,1.0264 0.8132,1.7534 1.236,2.2666 0.5205,0.5988 1.0409,0.8554 1.6264,0.8554 1.1384,0 2.0817,-0.5132 2.8624,-1.6252 0.1951,-0.2138 0.3903,-0.5132 0.5854,-0.8553l19.8088 -91.0936 36.8855 0 19.7113 91.0936c0.1952,0.3421 0.3903,0.6415 0.5855,0.8553 0.8132,1.112 1.789,1.6252 2.9599,1.6252 0.4879,0 1.0084,-0.2566 1.4963,-0.8554 0.5203,-0.5132 0.9758,-1.2402 1.3335,-2.2666l0 0.1283 27.6479 -90.5804 34.1206 0 -34.9663 114.872c-0.7806,3.0365 -1.6264,5.3886 -2.5696,7.1421 -1.3011,3.122 -2.9274,5.9874 -4.9767,8.6817 -5.5946,7.2704 -12.2951,10.9055 -20.1015,10.9055 -9.01,0 -16.6864,-4.1483 -22.964,-12.4451 -3.9358,-5.1748 -6.668,-10.9484 -8.1968,-17.4062 -0.1952,-0.727 -0.4228,-1.5396 -0.6505,-2.3522 -0.5205,-2.01 -0.9758,-4.1483 -1.3336,-6.415l-10.6038 -48.8398 -10.5712 48.8398c-0.3903,2.2667 -0.8132,4.405 -1.3336,6.415 -0.1952,0.8126 -0.4228,1.5824 -0.6505,2.2239 -1.4637,6.5434 -4.1635,12.3597 -8.0992,17.5345 -6.3753,8.2968 -14.0191,12.4451 -22.964,12.4451z"/>
  <path class="fil9 str11" d="M564.677 270.046c2.2118,0 4.1309,-0.9836 5.7247,-2.9937 1.5938,-2.1811 2.3745,-4.7471 2.3745,-7.6553 0,-2.9081 -0.7807,-5.4314 -2.3745,-7.5269 -1.5938,-2.0956 -3.5129,-3.122 -5.7247,-3.122l-58.9712 0c-2.2444,0 -4.1635,1.0264 -5.8223,3.122 -1.5288,2.0955 -2.2769,4.6188 -2.2769,7.5269 0,2.9082 0.7481,5.4742 2.2769,7.6553 1.6588,2.0101 3.5779,2.9937 5.8223,2.9937l58.9712 0zm-83.3663 32.0752c-4.5213,0 -8.3595,-2.0528 -11.5471,-6.1584 -3.1225,-4.234 -4.6838,-9.2805 -4.6838,-15.1395l0 -42.7242c0,-5.9446 1.5613,-10.9911 4.6838,-15.1823 3.1876,-4.1484 7.0258,-6.2439 11.5471,-6.2439l83.3663 0c4.4562,0 8.2618,2.0955 11.4494,6.2439 0.2277,0.2566 0.4879,0.556 0.7481,0.8981l0 -7.142c0,-5.9446 -1.6263,-10.9911 -4.8465,-15.1823 -3.1876,-4.1484 -6.9933,-6.244 -11.4494,-6.244l-93.4822 0 0 -32.0752 109.778 0c8.9449,0 16.6212,4.1912 22.964,12.5307 6.3427,8.3396 9.5304,18.4326 9.5304,30.1935l0 96.2256 -32.4944 0 0 -7.1421c-0.2602,0.3422 -0.5204,0.6843 -0.7481,0.9837 -3.1876,4.1056 -6.9932,6.1584 -11.4494,6.1584l-83.3663 0z"/>
  <path class="fil9 str11" d="M719.147 216.673c2.2118,0 4.1309,-1.0264 5.7247,-3.122 1.5938,-2.0956 2.3744,-4.6616 2.3744,-7.6553 0,-2.9082 -0.7806,-5.4314 -2.3744,-7.527 -1.5938,-2.0956 -3.5129,-3.122 -5.7247,-3.122l-60.9879 0 0 21.4263 60.9879 0zm46.8061 128.173l-73.1854 -96.0973 -34.6086 0 0 53.3731 -32.4943 0 0 -138.95 117.877 0c4.4562,0 8.2943,2.0956 11.547,6.244 3.1551,4.1912 4.749,9.2377 4.749,15.1823l0 42.7241c0,5.9446 -1.5939,10.9911 -4.749,15.1395 -3.2527,4.1912 -7.0908,6.2868 -11.547,6.2868l-10.1809 0 73.1854 96.0973 -40.5935 0z"/>
 </g>
</svg>
