<?xml version="1.0" encoding="UTF-8"?>
<!DOCTYPE svg PUBLIC "-//W3C//DTD SVG 1.1//EN" "http://www.w3.org/Graphics/SVG/1.1/DTD/svg11.dtd">
<!-- Creator: CorelDRAW -->
<svg xmlns="http://www.w3.org/2000/svg" xml:space="preserve" width="420mm" height="420mm" style="shape-rendering:geometricPrecision; text-rendering:geometricPrecision; image-rendering:optimizeQuality; fill-rule:evenodd; clip-rule:evenodd"
viewBox="0 0 420 420">
 <defs>
  <style type="text/css">
   <![CDATA[
    .str0 {stroke:#613314;stroke-width:8.4667}
    .fil0 {fill:#B35408}
    .fil2 {fill:#EDBA8F}
    .fil1 {fill:white;fill-rule:nonzero}
   ]]>
  </style>
 </defs>
 <g id="base">
  <metadata id="CorelCorpID_0Corel-Layer"/>
  <path class="fil0 str0" d="M209.636 11.4727c110.438,0 200,89.5617 200,200 0,110.438 -89.5617,200 -200,200 -110.438,0 -200,-89.5617 -200,-200 0,-110.438 89.5618,-200 200,-200zm0.0912 48.7891c83.3322,0 150.912,67.5797 150.912,150.912 0,83.3322 -67.5797,150.912 -150.912,150.912 -83.3323,0 -150.912,-67.5796 -150.912,-150.912 0,-83.3322 67.5796,-150.912 150.912,-150.912z"/>
  <g id="_274118136">
   <path id="_274118160" class="fil1" d="M64.741 280.908c0.6362,1.4288 0.9161,2.785 0.8404,4.0526 -0.0757,1.2677 -0.4985,2.3968 -1.2654,3.3938 -0.7669,0.9969 -1.8601,1.8153 -3.2826,2.4486l-1.4674 0.6534 -2.1134 -4.6426 1.4675 -0.6534c0.6952,-0.3095 1.1497,-0.7433 1.374,-1.3136 0.2208,-0.561 0.1795,-1.1905 -0.1299,-1.8856 -0.301,-0.6758 -0.7291,-1.1177 -1.285,-1.3096 -0.5524,-0.2015 -1.1697,-0.1503 -1.8519,0.1535l-2.3943 1.066c-0.5021,0.2235 -0.8767,0.5599 -1.1239,1.0094 -0.2409,0.4466 -0.3992,0.9566 -0.4718,1.5211 -0.0697,0.5709 -0.1222,1.3192 -0.161,2.2542 -0.0028,0.063 -0.0085,0.1195 -0.0141,0.176 0.0007,0.0537 -0.005,0.1102 -0.0078,0.1731l-0.007 0.2961c-0.0621,1.2463 -0.2094,2.353 -0.4513,3.3166 -0.2391,0.9703 -0.7155,1.892 -1.421,2.7844 -0.7019,0.8833 -1.7288,1.6258 -3.0739,2.2247l-1.416 0.6304c-1.3902,0.619 -2.7077,0.8817 -3.9496,0.7945 -1.2355,-0.09 -2.3452,-0.5214 -3.3259,-1.3034 -0.9833,-0.7883 -1.7917,-1.8937 -2.4307,-3.3291 -0.619,-1.3902 -0.8909,-2.7112 -0.8102,-3.9503 0.0779,-1.2454 0.5093,-2.3552 1.2848,-3.333 0.7754,-0.9776 1.8744,-1.7831 3.2969,-2.4164l1.5447 -0.6877 2.1326 4.634 -1.5641 0.6964c-0.7014,0.3124 -1.1748,0.739 -1.4098,1.2678 -0.2385,0.5381 -0.2146,1.129 0.0691,1.7662 0.3037,0.6822 0.7161,1.1233 1.2428,1.3362 0.5202,0.2156 1.096,0.1752 1.7268,-0.1056l1.8278 -0.8139c0.5149,-0.2292 0.8989,-0.562 1.1583,-1.0015 0.2594,-0.4394 0.4257,-0.9145 0.4998,-1.441 0.0769,-0.5201 0.1308,-1.2306 0.1738,-2.1212 0.0042,-0.1637 0.0055,-0.3341 0.0169,-0.5164 0.0142,-0.1761 0.0256,-0.3584 0.0274,-0.5445 0.0015,-0.0315 0.0057,-0.0566 0.01,-0.0815 0.0043,-0.0251 0.0086,-0.0501 0.01,-0.0816 0.0893,-1.2891 0.2288,-2.3616 0.4121,-3.2143 0.1862,-0.8463 0.6056,-1.6886 1.2581,-2.5267 0.6554,-0.8317 1.6492,-1.5441 2.9816,-2.1373l2.2784 -1.0145c1.4225,-0.6332 2.7564,-0.9109 4.0047,-0.8267 1.2483,0.0844 2.3675,0.5193 3.3545,1.2984 0.987,0.7791 1.8017,1.8815 2.435,3.304zm-6.8471 -17.3278c0.4984,1.5344 0.6572,2.9349 0.4827,4.1989 -0.1745,1.2643 -0.6684,2.3434 -1.4795,3.244 -0.8178,0.9028 -1.9303,1.5828 -3.3441,2.0421l-15.7061 5.1032c-1.4138,0.4595 -2.7135,0.5632 -3.9126,0.3157 -1.1923,-0.2497 -2.2261,-0.8323 -3.1104,-1.7526 -0.8774,-0.9223 -1.5655,-2.1507 -2.0641,-3.6851 -0.4964,-1.5278 -0.6617,-2.9259 -0.494,-4.188 0.1745,-1.2642 0.6662,-2.3499 1.4841,-3.2527 0.8267,-0.8984 1.9392,-1.5783 3.353,-2.0377l15.7061 -5.1032c1.4138,-0.4594 2.7135,-0.5632 3.9036,-0.3202 1.1856,0.2518 2.2216,0.8412 3.1059,1.7614 0.8842,0.9202 1.5789,2.1464 2.0754,3.6742zm-4.8713 1.5828c-0.1612,-0.496 -0.3943,-0.8943 -0.7108,-1.1841 -0.3118,-0.2987 -0.6824,-0.4819 -1.1098,-0.5431 -0.4206,-0.0633 -0.9,-0.0113 -1.4226,0.1585l-14.4866 4.707c-0.5094,0.1654 -0.9144,0.4008 -1.2241,0.7015 -0.3098,0.3006 -0.5019,0.6667 -0.5787,1.0917 -0.0789,0.4183 -0.0402,0.8797 0.121,1.3757 0.1633,0.5025 0.401,0.8919 0.7107,1.184 0.3097,0.2919 0.6782,0.4685 1.1055,0.5296 0.4273,0.0612 0.8933,0.0135 1.4027,-0.1519l14.4866 -4.7071c0.5225,-0.1697 0.941,-0.4095 1.2441,-0.7079 0.3097,-0.3007 0.504,-0.6601 0.5829,-1.0784 0.0857,-0.4205 0.0424,-0.873 -0.1209,-1.3755zm-0.3923 -19.5179c0.3149,1.4816 0.2867,2.8057 -0.068,3.9831 -0.3631,1.1721 -1.0463,2.16 -2.0441,2.9556 -0.9977,0.7954 -2.2899,1.3582 -3.8611,1.6922l-15.0233 3.1933c-1.5713,0.3339 -2.9805,0.3454 -4.2157,0.0245 -1.235,-0.3209 -2.2541,-0.9471 -3.0624,-1.87 -0.81,-0.93 -1.3744,-2.128 -1.6893,-3.6097 -0.3149,-1.4817 -0.2881,-2.8127 0.0735,-3.9916 0.3602,-1.1857 1.0449,-2.1667 2.0495,-2.9638 1.0061,-0.79 2.2982,-1.3528 3.8696,-1.6867l2.3636 -0.5025 1.0781 5.0721 -2.3637 0.5024c-0.4962,0.1055 -0.9157,0.2667 -1.2418,0.4945 -0.3344,0.2223 -0.5687,0.5098 -0.6972,0.854 -0.1285,0.3443 -0.1488,0.7231 -0.0595,1.1434 0.085,0.3999 0.2492,0.7323 0.5053,0.9875 0.249,0.2568 0.573,0.4256 0.9705,0.4996 0.3989,0.0809 0.8422,0.0659 1.3384,-0.0395l15.0233 -3.1934c0.4962,-0.1055 0.9074,-0.272 1.2321,-0.5068 0.326,-0.2278 0.5465,-0.5123 0.6765,-0.8496 0.1231,-0.3359 0.1448,-0.7079 0.0598,-1.1076 -0.0923,-0.4342 -0.2648,-0.7721 -0.5139,-1.0287 -0.256,-0.2553 -0.5731,-0.4257 -0.9622,-0.4942 -0.3905,-0.0755 -0.8394,-0.0521 -1.3493,0.0563l-2.3638 0.5024 -1.0781 -5.0721 2.3638 -0.5024c1.5782,-0.3355 2.9805,-0.3454 4.221,-0.0328 1.2488,0.3179 2.2734,0.9357 3.0847,1.8725 0.803,0.9314 1.3688,2.1363 1.6837,3.618zm-16.5633 -13.3475l-16.509 -4.7004 -0.403 -5.7632 25.9925 9.8287 -9.0805 0.6349zm-15.818 5.1813l-0.3569 -5.1025 29.9402 -2.0935 0.3568 5.1024 -29.9401 2.0936zm13.1777 -6.8823l-3.3161 -3.2853 18.9182 -8.5197 0.3917 5.6016 -15.9938 6.2034zm17.1522 -37.3711c-0.2108,1.5001 -0.6901,2.7347 -1.4262,3.7198 -0.742,0.9772 -1.7219,1.6719 -2.9316,2.0781 -1.2096,0.4063 -2.6164,0.4932 -4.2071,0.2696l-15.2095 -2.1375c-1.5907,-0.2236 -2.9189,-0.6948 -3.9697,-1.4188 -1.0508,-0.724 -1.7944,-1.6609 -2.2383,-2.8047 -0.443,-1.1509 -0.5636,-2.4698 -0.3527,-3.9698 0.2108,-1.4999 0.6912,-2.7416 1.4342,-3.7256 0.7441,-0.9912 1.7229,-1.6788 2.9396,-2.0841 1.2156,-0.3985 2.6223,-0.4853 4.2131,-0.2617l2.393 0.3363 -0.7217 5.135 -2.3931 -0.3364c-0.5022,-0.0706 -0.9516,-0.0627 -1.3359,0.04 -0.3904,0.0944 -0.7088,0.2846 -0.9474,0.564 -0.2384,0.2796 -0.3871,0.6286 -0.4469,1.0541 -0.0568,0.4048 -0.0162,0.7733 0.1371,1.1009 0.1462,0.3264 0.3928,0.5958 0.741,0.8012 0.3473,0.2125 0.769,0.35 1.2714,0.4206l15.2094 2.1376c0.5023,0.0706 0.9458,0.0546 1.3311,-0.0548 0.3843,-0.1026 0.6887,-0.2945 0.9263,-0.5671 0.2305,-0.2735 0.3781,-0.6156 0.4351,-1.0203 0.0618,-0.4396 0.0151,-0.816 -0.1312,-1.1425 -0.1531,-0.3274 -0.3929,-0.596 -0.735,-0.7934 -0.3413,-0.2045 -0.771,-0.336 -1.2872,-0.4086l-2.3932 -0.3364 0.7217 -5.1348 2.3931 0.3363c1.5977,0.2245 2.9189,0.6948 3.9777,1.4127 1.0647,0.726 1.8162,1.6568 2.2582,2.8147 0.4361,1.1498 0.5555,2.4757 0.3447,3.9756zm2.9073 -17.6281c-0.3629,1.572 -0.9481,2.8542 -1.7487,3.8478 -0.8008,0.9939 -1.7799,1.6644 -2.939,2.0186 -1.166,0.3527 -2.4698,0.3626 -3.9183,0.0282l-16.091 -3.715c-1.4485,-0.3344 -2.6161,-0.9148 -3.5164,-1.7446 -0.8935,-0.828 -1.4795,-1.8599 -1.7634,-3.1041 -0.2772,-1.2426 -0.2343,-2.6498 0.1286,-4.2219 0.3614,-1.5652 0.9398,-2.8489 1.7336,-3.8443 0.8006,-0.9937 1.7813,-1.6712 2.9473,-2.0237 1.1714,-0.3443 2.4752,-0.3541 3.9237,-0.0197l16.0911 3.7149c1.4484,0.3344 2.6159,0.9147 3.5109,1.7361 0.8866,0.8265 1.4711,1.8653 1.7551,3.1094 0.284,1.2442 0.2479,2.6531 -0.1135,4.2183zm-4.9907 -1.1522c0.1174,-0.508 0.1227,-0.9696 0.0007,-1.381 -0.1135,-0.4167 -0.3368,-0.7646 -0.6716,-1.0371 -0.3279,-0.271 -0.7657,-0.4733 -1.3011,-0.5969l-14.8417 -3.4265c-0.5219,-0.1204 -0.9902,-0.1273 -1.4105,-0.0291 -0.4204,0.0981 -0.7737,0.313 -1.0583,0.6378 -0.2831,0.3179 -0.4875,0.7334 -0.6049,1.2415 -0.1188,0.5147 -0.1156,0.9711 -0.0006,1.3809 0.1152,0.4097 0.34,0.7509 0.6749,1.0234 0.3347,0.2725 0.7587,0.4716 1.2805,0.5921l14.8417 3.4265c0.5354,0.1236 1.0175,0.1336 1.431,0.0338 0.4204,-0.0981 0.7721,-0.3061 1.0552,-0.624 0.29,-0.3163 0.4859,-0.7266 0.6047,-1.2414zm9.3355 -14.4316l-1.6676 4.8429 -28.3782 -9.7713 1.6676 -4.843 28.3782 9.7714zm-27.2199 -14.3685l1.5071 -3.73 21.2095 0.9553 0.5362 0.8169 -19.3097 -7.8016 1.7472 -4.3244 27.8082 11.2352 -1.5228 3.7693 -20.1065 -0.6009 -0.5638 -0.8052 18.258 7.3767 -1.7551 4.3439 -27.8083 -11.2352zm53.7215 -33.1292c-0.9843,1.2156 -2.0655,2.0806 -3.2293,2.5887 -1.1639,0.5081 -2.3618,0.6439 -3.5983,0.4132 -1.2365,-0.2307 -2.4621,-0.8332 -3.6721,-1.8131l-1.2483 -1.0109 3.1772 -3.9907 1.2484 1.0109c0.5913,0.4789 1.1842,0.687 1.7942,0.6279 0.6,-0.0581 1.1421,-0.3805 1.6211,-0.9718 0.4655,-0.5749 0.6648,-1.157 0.5834,-1.7395 -0.0713,-0.5836 -0.3971,-1.1104 -0.9775,-1.5803l-2.0368 -1.6495c-0.4271,-0.3458 -0.8969,-0.5269 -1.4096,-0.5431 -0.5072,-0.0119 -1.0336,0.0786 -1.5695,0.2701 -0.5404,0.1971 -1.231,0.4901 -2.0816,0.8801 -0.0575,0.026 -0.1104,0.0467 -0.1633,0.0673 -0.0474,0.025 -0.1004,0.0456 -0.1577,0.0717l-0.2671 0.1282c-1.1385,0.5103 -2.1915,0.8815 -3.16,1.1035 -0.973,0.2276 -2.0105,0.2215 -3.126,-0.002 -1.1057,-0.2244 -2.2334,-0.8023 -3.3777,-1.7289l-1.2046 -0.9754c-1.1826,-0.9577 -2.0148,-2.0123 -2.501,-3.1585 -0.4806,-1.1416 -0.6001,-2.3263 -0.3486,-3.555 0.256,-1.2341 0.874,-2.4563 1.8627,-3.6772 0.9577,-1.1827 2.0113,-2.0247 3.152,-2.5154 1.145,-0.496 2.3297,-0.6154 3.5529,-0.3684 1.2233,0.2471 2.4398,0.8607 3.6499,1.8406l1.314 1.0641 -3.1608 4.004 -1.3304 -1.0775c-0.5969,-0.4832 -1.1918,-0.7112 -1.7697,-0.6806 -0.5877,0.0318 -1.1034,0.3213 -1.5423,0.8634 -0.47,0.5804 -0.6758,1.1481 -0.6264,1.714 0.0441,0.5614 0.3415,1.0561 0.8781,1.4905l1.5549 1.2592c0.4381,0.3548 0.9089,0.5457 1.4182,0.5774 0.5093,0.0316 1.0081,-0.0359 1.5108,-0.2089 0.4984,-0.1676 1.1558,-0.4421 1.969,-0.808 0.1478,-0.0707 0.3001,-0.1468 0.4678,-0.2195 0.1633,-0.0673 0.3309,-0.14 0.4976,-0.2227 0.0286,-0.013 0.0529,-0.0206 0.0772,-0.0282 0.0242,-0.0076 0.0485,-0.015 0.0772,-0.028 1.1891,-0.5058 2.208,-0.8684 3.051,-1.0922 0.8386,-0.2183 1.7795,-0.2271 2.8226,-0.0262 1.0386,0.2065 2.1244,0.7686 3.2579,1.6864l1.9382 1.5696c1.21,0.9799 2.0631,2.0423 2.5547,3.1929 0.4916,1.1505 0.6122,2.3451 0.3661,3.5782 -0.2461,1.2331 -0.8586,2.4596 -1.8385,3.6696zm12.3366 -13.8733c-1.18,1.1004 -2.382,1.8361 -3.6015,2.2122 -1.2195,0.3761 -2.4062,0.3846 -3.5652,0.03 -1.164,-0.3597 -2.2504,-1.0805 -3.2642,-2.1678l-11.2628 -12.0777c-1.0138,-1.0873 -1.6571,-2.2213 -1.9396,-3.4127 -0.2777,-1.1861 -0.1864,-2.3693 0.2738,-3.5596 0.4652,-1.1851 1.2877,-2.3278 2.4677,-3.4281 1.1748,-1.0955 2.3721,-1.8364 3.5868,-2.2177 1.2194,-0.3761 2.4113,-0.3894 3.5751,-0.0296 1.1636,0.3696 2.25,1.0905 3.2638,2.1777l11.2629 12.0778c1.0137,1.0873 1.6572,2.2212 1.9399,3.4026 0.2728,1.1809 0.1764,2.369 -0.2838,3.5592 -0.4604,1.1903 -1.2781,2.3382 -2.4529,3.4337zm-3.4931 -3.7459c0.3813,-0.3556 0.6437,-0.7352 0.7727,-1.1445 0.1389,-0.4089 0.1483,-0.8223 0.0231,-1.2354 -0.1203,-0.408 -0.3701,-0.8205 -0.7448,-1.2224l-10.3883 -11.1401c-0.3652,-0.3916 -0.7496,-0.6592 -1.1531,-0.8129 -0.4034,-0.1537 -0.8164,-0.1731 -1.234,-0.063 -0.4124,0.1052 -0.8143,0.3354 -1.1957,0.691 -0.3863,0.3603 -0.6388,0.7403 -0.7726,1.1444 -0.1338,0.4042 -0.138,0.8127 -0.0128,1.2259 0.125,0.4131 0.3652,0.8153 0.7304,1.2069l10.3883 11.1401c0.3748,0.4019 0.7688,0.6798 1.1674,0.8284 0.4035,0.1536 0.8114,0.1778 1.2237,0.0726 0.4174,-0.1001 0.8092,-0.3307 1.1957,-0.691zm17.1685 -8.8374c-1.1937,0.9327 -2.3961,1.4878 -3.6099,1.685 -1.2126,0.1875 -2.4,0.0066 -3.5524,-0.5415 -1.1524,-0.5481 -2.2247,-1.4627 -3.2136,-2.7286l-9.4559 -12.103c-0.989,-1.2658 -1.6171,-2.5275 -1.8701,-3.7782 -0.2529,-1.2507 -0.1369,-2.4412 0.3383,-3.5724 0.4807,-1.1355 1.3101,-2.168 2.5039,-3.1007 1.1936,-0.9325 2.4016,-1.4918 3.6197,-1.6836 1.2237,-0.1961 2.4056,-0.0108 3.5623,0.5428 1.1512,0.5579 2.2234,1.4726 3.2124,2.7384l1.4877 1.9043 -4.0861 3.1924 -1.4877 -1.9042c-0.3124,-0.3997 -0.6411,-0.7062 -0.9889,-0.8994 -0.3464,-0.2032 -0.7075,-0.2877 -1.0732,-0.2523 -0.3657,0.0355 -0.7151,0.1832 -1.0538,0.4478 -0.322,0.2517 -0.5488,0.5451 -0.6661,0.8871 -0.1216,0.3364 -0.1313,0.7016 -0.0235,1.0912 0.1021,0.394 0.31,0.786 0.6223,1.1857l9.4559 12.1029c0.3123,0.3998 0.6424,0.6963 0.9956,0.8852 0.3477,0.1933 0.7,0.2667 1.0603,0.2357 0.3558,-0.0367 0.6996,-0.1801 1.0217,-0.4318 0.3497,-0.2733 0.5778,-0.5766 0.6993,-0.9129 0.1172,-0.342 0.1313,-0.7017 0.0224,-1.0814 -0.1034,-0.3841 -0.3212,-0.7773 -0.6421,-1.1881l-1.4879 -1.9043 4.0862 -3.1924 1.4878 1.9042c0.9933,1.2714 1.6171,2.5275 1.8799,3.7795 0.2617,1.2618 0.1556,2.4534 -0.3307,3.5933 -0.4851,1.13 -1.3202,2.1668 -2.5138,3.0993zm4.6298 -20.1402l-3.6003 -16.7833 4.8994 -3.0615 3.5246 27.5642 -4.8237 -7.7194zm-12.0009 -11.5341l4.3378 -2.7105 15.9045 25.4527 -4.3376 2.7106 -15.9047 -25.4528zm12.2633 8.4043l1.3439 -4.4704 16.404 12.7041 -4.7619 2.9755 -12.986 -11.2092zm41.1753 -1.8073c-1.4407,0.4681 -2.7604,0.5785 -3.9685,0.3487 -1.2036,-0.2386 -2.2575,-0.8147 -3.153,-1.7239 -0.8954,-0.9091 -1.5901,-2.1354 -2.0865,-3.6631l-4.7463 -14.6072c-0.4962,-1.5277 -0.655,-2.9281 -0.465,-4.19 0.1901,-1.2618 0.7063,-2.3407 1.5397,-3.2412 0.8402,-0.9026 1.9726,-1.5892 3.4134,-2.0573 1.4406,-0.4681 2.7671,-0.5805 3.9773,-0.3441 1.217,0.2342 2.2642,0.8126 3.1618,1.7284 0.891,0.918 1.5857,2.1443 2.0821,3.672l0.7467 2.2982 -4.9316 1.6024 -0.7467 -2.2982c-0.1568,-0.4825 -0.3609,-0.8828 -0.6216,-1.1834 -0.2561,-0.3093 -0.5665,-0.5122 -0.9223,-0.6041 -0.3558,-0.0918 -0.7346,-0.0724 -1.1433,0.0604 -0.3888,0.1263 -0.7021,0.3245 -0.9293,0.6058 -0.2294,0.2745 -0.3634,0.6143 -0.3954,1.0173 -0.0387,0.4052 0.0225,0.8446 0.1793,1.327l4.7462 14.6072c0.1567,0.4825 0.3654,0.874 0.6327,1.1724 0.2607,0.3005 0.5666,0.4899 0.9157,0.584 0.347,0.0872 0.7191,0.07 1.1078,-0.0564 0.4222,-0.1371 0.7402,-0.3441 0.9694,-0.6186 0.2272,-0.2812 0.3634,-0.6144 0.3909,-1.0085 0.0343,-0.3963 -0.0359,-0.8402 -0.1971,-1.3361l-0.7467 -2.2983 4.9316 -1.6024 0.7468 2.2983c0.4985,1.5345 0.6551,2.9281 0.4738,4.1946 -0.1856,1.2751 -0.6929,2.3586 -1.5397,3.2634 -0.8423,0.896 -1.9817,1.5846 -3.4222,2.0527zm17.4758 -4.836c-1.572,0.363 -2.9809,0.399 -4.225,0.115 -1.2442,-0.284 -2.2761,-0.87 -3.1026,-1.7567 -0.8281,-0.8934 -1.4086,-2.0609 -1.743,-3.5093l-3.715 -16.0911c-0.3344,-1.4485 -0.3244,-2.7523 0.0267,-3.9252 0.3525,-1.166 1.0231,-2.1451 2.0169,-2.9458 0.9952,-0.7937 2.279,-1.3722 3.851,-1.735 1.5653,-0.3614 2.9725,-0.4043 4.2151,-0.1273 1.2442,0.2841 2.2831,0.8685 3.1111,1.762 0.8229,0.9019 1.4032,2.0694 1.7376,3.5179l3.715 16.0911c0.3344,1.4484 0.3245,2.7522 -0.0213,3.9166 -0.3542,1.1592 -1.0317,2.1399 -2.0254,2.9406 -0.9937,0.8006 -2.2759,1.3858 -3.8411,1.7472zm-1.1522 -4.9906c0.5081,-0.1174 0.9252,-0.3149 1.2416,-0.6048 0.3247,-0.2847 0.5395,-0.638 0.6376,-1.0584 0.0999,-0.4135 0.0898,-0.8956 -0.0338,-1.4311l-3.4265 -14.8416c-0.1205,-0.5219 -0.3196,-0.9459 -0.5921,-1.2806 -0.2725,-0.3348 -0.6205,-0.5581 -1.0371,-0.6716 -0.4099,-0.1151 -0.873,-0.1166 -1.381,0.0007 -0.5149,0.1188 -0.9235,0.3216 -1.2414,0.6047 -0.3179,0.2831 -0.5259,0.6348 -0.6241,1.0552 -0.0982,0.4203 -0.0913,0.8887 0.0291,1.4105l3.4266 14.8417c0.1236,0.5355 0.3259,0.9731 0.5968,1.3011 0.2725,0.3348 0.6136,0.5596 1.0234,0.6748 0.4114,0.1219 0.8661,0.1182 1.3809,-0.0006zm16.9112 1.8049l-5.0837 0.6242 -3.6577 -29.7896 5.0838 -0.6242 3.6576 29.7896zm1.2128 -30.5389l4.0131 -0.2807 8.439 19.4816 -0.4993 0.8402 -1.4527 -20.7754 4.6527 -0.3254 2.0922 29.9191 -4.0553 0.2836 -8.2741 -18.335 0.4766 -0.8597 1.3736 19.6438 -4.6737 0.3269 -2.0921 -29.919zm52.9098 33.5015c-1.5298,-0.3252 -2.7915,-0.8958 -3.7725,-1.7022 -0.9811,-0.8064 -1.646,-1.812 -2.0019,-3.0185 -0.3558,-1.2064 -0.3753,-2.5719 -0.0515,-4.095l0.334 -1.5712 4.9982 1.0192 -0.3341 1.5713c-0.1581,0.7443 -0.0745,1.367 0.2552,1.8836 0.324,0.5084 0.8575,0.845 1.6019,1.0032 0.7235,0.1539 1.3325,0.0672 1.8146,-0.2697 0.4877,-0.3286 0.8092,-0.858 0.9644,-1.5885l0.545 -2.5636c0.1142,-0.5376 0.0622,-1.0384 -0.1561,-1.5026 -0.2197,-0.4573 -0.5393,-0.8853 -0.9532,-1.2758 -0.4209,-0.392 -0.9955,-0.8743 -1.7292,-1.4552 -0.0493,-0.0393 -0.0916,-0.077 -0.134,-0.1149 -0.0439,-0.0309 -0.0862,-0.0688 -0.1356,-0.108l-0.2354 -0.1796c-0.9717,-0.7829 -1.7804,-1.5526 -2.4179,-2.3147 -0.6445,-0.7637 -1.11,-1.6909 -1.4174,-2.7863 -0.3019,-1.087 -0.299,-2.3541 0.007,-3.7944l0.3223 -1.5161c0.3164,-1.4886 0.8783,-2.7088 1.6787,-3.6623 0.7991,-0.9466 1.8004,-1.5908 3.0094,-1.9246 1.2158,-0.3321 2.5853,-0.3364 4.122,-0.0097 1.4886,0.3164 2.7172,0.8729 3.6721,1.6665 0.9618,0.795 1.6061,1.7964 1.9413,2.9984 0.3351,1.2021 0.3408,2.5646 0.0171,4.0876l-0.3516 1.6539 -5.0026 -0.9985 0.356 -1.6746c0.1597,-0.7511 0.0928,-1.3848 -0.197,-1.8858 -0.2951,-0.5092 -0.7872,-0.8372 -1.4694,-0.9822 -0.7305,-0.1552 -1.3298,-0.0809 -1.8116,0.22 -0.4802,0.2942 -0.7858,0.7837 -0.9294,1.4591l-0.416 1.9571c-0.1172,0.5514 -0.0736,1.0576 0.1295,1.5258 0.2029,0.4681 0.4895,0.8819 0.8719,1.2513 0.3756,0.368 0.9187,0.8291 1.6139,1.3875 0.13,0.0996 0.2671,0.2008 0.4079,0.3172 0.1341,0.1149 0.275,0.2313 0.4243,0.3422 0.0247,0.0197 0.0424,0.0379 0.0601,0.056 0.0178,0.0182 0.0356,0.0364 0.0601,0.0561 0.9905,0.8299 1.7762,1.5731 2.3583,2.2227 0.5753,0.648 1.0102,1.4823 1.3047,2.5029 0.2876,1.0192 0.2797,2.2419 -0.0235,3.6685l-0.5186 2.4395c-0.3237,1.523 -0.8831,2.7654 -1.685,3.7259 -0.802,0.9603 -1.8116,1.61 -3.0221,1.9505 -1.2104,0.3406 -2.5813,0.3517 -4.1043,0.028zm18.0659 4.8757c-1.5345,-0.4986 -2.7607,-1.1933 -3.6809,-2.0775 -0.9202,-0.8844 -1.5029,-1.9182 -1.7547,-3.1038 -0.2497,-1.1922 -0.146,-2.492 0.3135,-3.9057l5.1032 -15.7062c0.4593,-1.4137 1.1394,-2.5262 2.0444,-3.3508 0.9027,-0.8179 1.9818,-1.3118 3.2461,-1.4863 1.2618,-0.1677 2.6601,-0.0024 4.1945,0.4962 1.5278,0.4964 2.7562,1.1845 3.6786,2.062 0.9202,0.8843 1.5096,1.9203 1.7592,3.1125 0.2408,1.1969 0.137,2.4966 -0.3224,3.9104l-5.1032 15.7061c-0.4593,1.4138 -1.1393,2.5264 -2.0355,3.3463 -0.9006,0.8112 -1.9863,1.3029 -3.2505,1.4774 -1.2643,0.1744 -2.6646,0.0157 -4.1923,-0.4806zm1.5827 -4.8713c0.4959,0.1612 0.9552,0.2066 1.3757,0.121 0.425,-0.0768 0.7911,-0.2689 1.0917,-0.5787 0.2985,-0.303 0.5382,-0.7215 0.708,-1.2441l4.7069 -14.4866c0.1656,-0.5093 0.2132,-0.9753 0.152,-1.4026 -0.0611,-0.4273 -0.2443,-0.798 -0.543,-1.1098 -0.2921,-0.3098 -0.6882,-0.5496 -1.1841,-0.7108 -0.5025,-0.1633 -0.9573,-0.1998 -1.3756,-0.1209 -0.4182,0.0789 -0.7777,0.2732 -1.0784,0.583 -0.3005,0.3097 -0.5359,0.7147 -0.7015,1.2241l-4.7069 14.4866c-0.1698,0.5226 -0.2218,1.0019 -0.1584,1.4226 0.0611,0.4273 0.2376,0.7958 0.5296,1.1055 0.2899,0.3165 0.6815,0.5474 1.184,0.7107zm15.6332 12.2172c-1.3615,-0.6642 -2.3875,-1.5015 -3.0969,-2.506 -0.7001,-1.0077 -1.058,-2.1543 -1.0706,-3.4303 -0.0125,-1.276 0.3396,-2.6407 1.0437,-4.0845l6.7329 -13.8046c0.7042,-1.4437 1.5629,-2.5613 2.5761,-3.3369 1.0132,-0.7757 2.134,-1.1933 3.3592,-1.262 1.2313,-0.0657 2.5228,0.2272 3.8844,0.8912 1.3614,0.664 2.3937,1.5046 3.1001,2.5154 0.7127,1.0138 1.0641,2.1573 1.0736,3.4397 0.0033,1.2792 -0.3488,2.6439 -1.0529,4.0877l-1.0594 2.172 -4.6606 -2.2733 1.0593 -2.1718c0.2224,-0.456 0.3537,-0.8857 0.3749,-1.2831 0.0308,-0.4004 -0.0516,-0.762 -0.2437,-1.0752 -0.1922,-0.3132 -0.4782,-0.5624 -0.8645,-0.7508 -0.3673,-0.1792 -0.7304,-0.2544 -1.0892,-0.2098 -0.3557,0.0381 -0.6881,0.1895 -0.9911,0.4571 -0.3094,0.2646 -0.5704,0.6233 -0.7928,1.0792l-6.733 13.8045c-0.2224,0.456 -0.3442,0.8826 -0.3592,1.2829 -0.0213,0.3971 0.0672,0.746 0.253,1.0562 0.189,0.3038 0.4687,0.5499 0.836,0.729 0.399,0.1946 0.7714,0.2666 1.127,0.2285 0.3589,-0.0446 0.6883,-0.1897 0.9818,-0.4541 0.3001,-0.2612 0.5579,-0.6294 0.7865,-1.0979l1.0593 -2.172 4.6606 2.2731 -1.0594 2.172c-0.7072,1.4501 -1.5627,2.5613 -2.5728,3.3465 -1.0195,0.7883 -2.137,1.2153 -3.3747,1.2779 -1.2283,0.0594 -2.5261,-0.2367 -3.8876,-0.9006zm20.3486 -5.2679l13.5065 -10.5932 4.8993 3.0614 -23.2295 15.2512 4.8237 -7.7194zm5.1059 -15.8426l4.3376 2.7105 -15.9046 25.4528 -4.3376 -2.7106 15.9046 -25.4527zm-2.1779 14.7064l4.607 -0.7518 -4.2272 20.3129 -4.7619 -2.9755 4.3821 -16.5856zm13.336 30.6149c-1.1603,-0.9737 -1.9533,-2.0344 -2.3986,-3.1807 -0.4355,-1.1471 -0.5054,-2.3462 -0.2089,-3.5874 0.2964,-1.2411 0.9683,-2.4801 2.0008,-3.7107l9.8725 -11.7656c1.0325,-1.2305 2.136,-2.1071 3.3069,-2.6147 1.1708,-0.5075 2.3593,-0.6415 3.5646,-0.4118 1.2107,0.2342 2.3931,0.8307 3.5535,1.8045 1.1603,0.9736 1.9586,2.0389 2.3994,3.1906 0.4463,1.1561 0.5108,2.3507 0.2097,3.5973 -0.3063,1.242 -0.9781,2.4809 -2.0107,3.7115l-1.5532 1.8512 -3.9723 -3.3331 1.5533 -1.8513c0.3261,-0.3885 0.5574,-0.7737 0.6741,-1.1541 0.1267,-0.381 0.1343,-0.7519 0.0236,-1.1023 -0.1107,-0.3503 -0.3279,-0.6613 -0.6571,-0.9375 -0.3131,-0.2628 -0.6472,-0.4236 -1.0061,-0.4672 -0.3543,-0.049 -0.7135,0.0174 -1.0722,0.2038 -0.3643,0.182 -0.7044,0.4668 -1.0304,0.8553l-9.8726 11.7656c-0.326,0.3887 -0.5475,0.7731 -0.6588,1.1579 -0.1168,0.3802 -0.1154,0.7402 -0.0101,1.0861 0.1098,0.3404 0.3217,0.6468 0.6348,0.9096 0.34,0.2853 0.684,0.4452 1.0383,0.4943 0.359,0.0435 0.7137,-0.0175 1.0624,-0.2031 0.3543,-0.1809 0.6935,-0.4757 1.0287,-0.8751l1.5533 -1.8512 3.9723 3.3332 -1.5534 1.8512c-1.037,1.2359 -2.1359,2.1072 -3.3059,2.6246 -1.1799,0.5183 -2.3675,0.6623 -3.5836,0.4235 -1.2062,-0.2395 -2.3939,-0.8408 -3.5543,-1.8144zm12.728 12.7526c-1.0584,-1.2176 -1.7517,-2.4447 -2.0851,-3.6765 -0.3333,-1.2319 -0.3003,-2.4181 0.0945,-3.564 0.4,-1.1507 1.1583,-2.2113 2.2803,-3.1865l12.4635 -10.8345c1.1219,-0.9752 2.2778,-1.5786 3.4782,-1.8193 1.1951,-0.2361 2.3744,-0.1036 3.548,0.3979 1.168,0.5062 2.2814,1.3681 3.3399,2.5857 1.0539,1.2124 1.7524,2.4348 2.0912,3.662 0.3333,1.2319 0.3049,2.4235 -0.0952,3.5741 -0.41,1.15 -1.1684,2.2106 -2.2903,3.1858l-12.4636 10.8344c-1.1219,0.9752 -2.2777,1.5787 -3.4682,1.82 -1.1898,0.2315 -2.3737,0.0937 -3.5472,-0.4078 -1.1735,-0.5016 -2.2921,-1.3589 -3.346,-2.5713zm3.8656 -3.3602c0.3421,0.3935 0.7123,0.6691 1.1168,0.8122 0.4039,0.1531 0.8167,0.1769 1.2339,0.0663 0.412,-0.1061 0.8329,-0.3413 1.2476,-0.7018l11.4959 -9.9932c0.4041,-0.3513 0.685,-0.7262 0.8526,-1.1239 0.1677,-0.3979 0.2016,-0.8099 0.1061,-1.2311 -0.0908,-0.4159 -0.3068,-0.8255 -0.6489,-1.219 -0.3466,-0.3988 -0.7176,-0.6644 -1.1169,-0.8122 -0.3991,-0.1477 -0.8072,-0.1663 -1.2245,-0.0557 -0.4172,0.1107 -0.8275,0.3367 -1.2317,0.6879l-11.4958 9.9932c-0.4147,0.3606 -0.7063,0.7448 -0.8686,1.1379 -0.1676,0.3978 -0.2061,0.8045 -0.1153,1.2204 0.0855,0.4205 0.3022,0.8202 0.6488,1.219zm6.5087 15.4325l-3.2234 -3.9806 23.3248 -18.8879 3.2233 3.9804 -23.3247 18.8881zm27.063 -13.55l2.191 3.374 -12.9477 16.8258 -0.9768 -0.0294 17.4663 -11.3427 2.5403 3.9117 -25.1535 16.3349 -2.2141 -3.4095 12.0247 -16.1256 0.983 0.0001 -16.515 10.7249 -2.5517 -3.9292 25.1535 -16.335zm-8.8387 46.8956c-0.5859,-1.4502 -0.8184,-2.8153 -0.6984,-4.0795 0.1199,-1.2642 0.5818,-2.3778 1.383,-3.3475 0.8012,-0.9696 1.9224,-1.7494 3.366,-2.3327l1.4895 -0.6017 1.95 4.7136 -1.4895 0.6017c-0.7055,0.2851 -1.175,0.7027 -1.419,1.2649 -0.2402,0.5529 -0.2209,1.1835 0.0642,1.889 0.2771,0.6858 0.6895,1.1423 1.2384,1.3536 0.545,0.2206 1.1637,0.1911 1.8561,-0.0887l2.4301 -0.9818c0.5095,-0.2059 0.8957,-0.5291 1.1583,-0.9696 0.2563,-0.4379 0.4324,-0.9422 0.5248,-1.5037 0.0895,-0.5681 0.1681,-1.3141 0.2394,-2.2473 0.005,-0.0628 0.0127,-0.119 0.0203,-0.1753 0.0012,-0.0537 0.0088,-0.11 0.0138,-0.1728l0.0172 -0.2957c0.1057,-1.2433 0.2916,-2.3442 0.5669,-3.2988 0.2728,-0.9614 0.7811,-1.8658 1.5174,-2.7332 0.7323,-0.8581 1.7844,-1.5643 3.1496,-2.1159l1.4371 -0.5807c1.411,-0.5701 2.7368,-0.7866 3.975,-0.6561 1.2315,0.1331 2.3256,0.6029 3.2782,1.4186 0.9553,0.8222 1.7247,1.9552 2.3132,3.4119 0.5701,1.411 0.7958,2.7406 0.6718,3.9762 -0.1213,1.242 -0.5911,2.336 -1.4002,3.2861 -0.8092,0.95 -1.9356,1.7166 -3.3793,2.2999l-1.5677 0.6334 -1.9697 -4.7057 1.5875 -0.6413c0.7119,-0.2877 1.1998,-0.6975 1.4532,-1.2178 0.2571,-0.5295 0.2539,-1.1208 -0.0074,-1.7675 -0.2798,-0.6924 -0.6766,-1.1476 -1.1954,-1.3788 -0.5125,-0.2337 -1.0892,-0.2133 -1.7294,0.0453l-1.8551 0.7496c-0.5227,0.2111 -0.918,0.5303 -1.1926,0.9605 -0.2746,0.43 -0.4574,0.8991 -0.5498,1.4226 -0.095,0.5171 -0.1737,1.2252 -0.2478,2.1139 -0.0099,0.1634 -0.0171,0.3337 -0.0349,0.5155 -0.0202,0.1755 -0.038,0.3573 -0.0464,0.5431 -0.0025,0.0314 -0.0076,0.0564 -0.0128,0.0811 -0.0051,0.025 -0.0103,0.0498 -0.0129,0.0813 -0.1341,1.2851 -0.3111,2.3521 -0.524,3.1979 -0.2155,0.8394 -0.664,1.6665 -1.3454,2.4813 -0.6841,0.8083 -1.7022,1.4856 -3.0544,2.0319l-2.3125 0.9343c-1.4437,0.5833 -2.7865,0.8142 -4.0312,0.6864 -1.2446,-0.1278 -2.3478,-0.6014 -3.307,-1.4145 -0.9592,-0.8132 -1.735,-1.9434 -2.3182,-3.387zm6.0714 17.3024c-0.4447,-1.5509 -0.5545,-2.9559 -0.3359,-4.2132 0.2185,-1.2574 0.7497,-2.3186 1.5918,-3.1903 0.8488,-0.8738 1.9843,-1.5145 3.4133,-1.9242l15.8747 -4.5521c1.4289,-0.4097 2.7314,-0.468 3.9211,-0.1788 1.183,0.2911 2.1958,0.9095 3.0474,1.86 0.8447,0.9524 1.4896,2.204 1.9342,3.7549 0.4428,1.5441 0.5593,2.9473 0.3476,4.2027 -0.2185,1.2573 -0.7478,2.3254 -1.5967,3.199 -0.8575,0.8689 -1.9931,1.5096 -3.4221,1.9194l-15.8746 4.552c-1.429,0.4098 -2.7315,0.4682 -3.9125,0.1837 -1.1761,-0.293 -2.1908,-0.9183 -3.0424,-1.8687 -0.8516,-0.9505 -1.5031,-2.2002 -1.9459,-3.7444zm4.9235 -1.4118c0.1437,0.5012 0.3629,0.9074 0.6689,1.2082 0.3013,0.3093 0.6654,0.5055 1.0904,0.5814 0.4181,0.078 0.899,0.0428 1.4272,-0.1087l14.6421 -4.1985c0.5147,-0.1476 0.9277,-0.3687 1.2478,-0.6584 0.32,-0.2897 0.5248,-0.6488 0.6164,-1.0708 0.0934,-0.4153 0.0708,-0.8779 -0.0729,-1.3791 -0.1457,-0.5079 -0.3697,-0.9053 -0.6689,-1.2081 -0.2994,-0.3026 -0.6615,-0.4919 -1.0864,-0.5679 -0.4249,-0.0761 -0.8923,-0.0447 -1.4071,0.103l-14.642 4.1985c-0.5283,0.1514 -0.9547,0.3764 -1.2681,0.6641 -0.32,0.2896 -0.5268,0.6421 -0.6203,1.0573 -0.1003,0.4173 -0.0727,0.8712 0.0729,1.379zm-0.7489 19.7089c-0.2891,-1.487 -0.2378,-2.8104 0.1375,-3.9814 0.3835,-1.1656 1.0838,-2.1414 2.0953,-2.9194 1.0115,-0.7779 2.3132,-1.3181 3.8901,-1.6246l15.0768 -2.9306c1.5767,-0.3064 2.986,-0.2934 4.2153,0.049 1.2292,0.3425 2.2373,0.9862 3.0294,1.9233 0.7936,0.9439 1.337,2.1516 1.626,3.6386 0.2891,1.4869 0.239,2.8172 -0.1432,3.9896 -0.3808,1.1794 -1.0824,2.1483 -2.1009,2.9275 -1.0196,0.7725 -2.3214,1.3126 -3.8982,1.6191l-2.3722 0.4611 -0.9894 -5.0901 2.3721 -0.4611c0.498,-0.0968 0.9203,-0.2506 1.2503,-0.4727 0.3383,-0.2165 0.5774,-0.4999 0.7119,-0.8418 0.1346,-0.342 0.1615,-0.7203 0.0794,-1.1422 -0.078,-0.4012 -0.2363,-0.7364 -0.4879,-0.9962 -0.2445,-0.2611 -0.5654,-0.4354 -0.9616,-0.5163 -0.3975,-0.0879 -0.841,-0.0806 -1.3389,0.0162l-15.0768 2.9306c-0.498,0.0968 -0.912,0.2563 -1.2407,0.4852 -0.33,0.222 -0.5554,0.5027 -0.6913,0.8377 -0.1289,0.3337 -0.1571,0.7052 -0.0791,1.1064 0.0847,0.4357 0.2514,0.7765 0.4959,1.0375 0.2514,0.2597 0.5656,0.4356 0.9533,0.5109 0.3893,0.0824 0.8384,0.0668 1.3502,-0.0328l2.3723 -0.461 0.9893 5.0901 -2.3722 0.4611c-1.5837,0.3078 -2.986,0.2934 -4.221,-0.0409 -1.2431,-0.3397 -2.2566,-0.9752 -3.0515,-1.926 -0.7866,-0.9452 -1.3312,-2.16 -1.6202,-3.6468zm15.7882 13.0719l16.5885 4.4116 0.5035 5.7552 -26.1601 -9.3734 9.0681 -0.7934zm15.7251 -5.4565l0.4459 5.0954 -29.8992 2.6159 -0.4458 -5.0955 29.8991 -2.6158zm-13.0556 7.1112l3.3729 3.2269 -18.7665 8.8486 -0.4894 -5.5938 15.883 -6.4817z"/>
   <path id="_274117704" class="fil1" d="M367.203 238.459c0.263,-1.4919 0.7852,-2.7089 1.5553,-3.6678 0.7757,-0.9506 1.7791,-1.6107 3.0023,-1.9745 1.2231,-0.3639 2.632,-0.4015 4.2139,-0.1226l15.1256 2.667c1.5819,0.2789 2.8929,0.7963 3.9178,1.5565 1.0249,0.7602 1.7353,1.7225 2.139,2.8811 0.4026,1.1655 0.4771,2.4878 0.214,3.9797 -0.263,1.4916 -0.7865,2.7157 -1.5633,3.6733 -0.7782,0.9645 -1.7805,1.6176 -3.0106,1.9802 -1.2287,0.3557 -2.6376,0.3934 -4.2196,0.1145l-2.3798 -0.4196 0.9004 -5.1067 2.3798 0.4196c0.4996,0.0881 0.9489,0.0959 1.3367,0.0068 0.3933,-0.0809 0.7182,-0.2597 0.9664,-0.5307 0.248,-0.271 0.4088,-0.6146 0.4834,-1.0379 0.071,-0.4025 0.0432,-0.7722 -0.0985,-1.1048 -0.1348,-0.3315 -0.3719,-0.6094 -0.7127,-0.8267 -0.3396,-0.2245 -0.7563,-0.3767 -1.2559,-0.4648l-15.1255 -2.667c-0.4996,-0.0881 -0.9433,-0.0877 -1.3323,0.0084 -0.3875,0.0889 -0.6986,0.2702 -0.9455,0.5343 -0.24,0.2653 -0.3994,0.602 -0.4704,1.0045 -0.0771,0.4371 -0.0436,0.8151 0.0911,1.1463 0.1417,0.3326 0.372,0.6094 0.707,0.8186 0.3339,0.2164 0.7588,0.3628 1.2723,0.4534l2.3798 0.4196 -0.9004 5.1066 -2.3799 -0.4196c-1.5889,-0.2802 -2.8929,-0.7963 -3.926,-1.5508 -1.0388,-0.7627 -1.7572,-1.7192 -2.1586,-2.8917 -0.3956,-1.1643 -0.4688,-2.4936 -0.2058,-3.9852zm-3.9316 17.5973c0.4176,-1.5585 1.0472,-2.8194 1.882,-3.7846 0.8349,-0.9652 1.8368,-1.6012 3.0076,-1.9147 1.1775,-0.3118 2.481,-0.2761 3.9169,0.1086l15.9516 4.2743c1.4359,0.3847 2.5824,1.0055 3.4533,1.8662 0.864,0.8587 1.4137,1.9104 1.6541,3.1638 0.2336,1.2514 0.1416,2.6564 -0.276,4.2148 -0.4158,1.5517 -1.0386,2.8144 -1.8666,3.7815 -0.8349,0.9652 -1.8386,1.6079 -3.0163,1.9196 -1.1825,0.3031 -2.486,0.2675 -3.9218,-0.1172l-15.9517 -4.2743c-1.4359,-0.3847 -2.5824,-1.0055 -3.4482,-1.8575 -0.8573,-0.857 -1.4051,-1.9155 -1.6454,-3.1688 -0.2405,-1.2533 -0.1552,-2.6601 0.2605,-4.2117zm4.9474 1.3255c-0.1349,0.5037 -0.1563,0.9647 -0.0489,1.3802 0.099,0.4203 0.31,0.7759 0.6351,1.0599 0.3183,0.2823 0.7486,0.4997 1.2795,0.642l14.713 3.9423c0.5173,0.1386 0.9852,0.1619 1.4087,0.0784 0.4235,-0.0835 0.7841,-0.2858 1.0798,-0.6004 0.2941,-0.3079 0.5129,-0.716 0.6479,-1.2197 0.1367,-0.5103 0.1495,-0.9664 0.0487,-1.3801 -0.1006,-0.4135 -0.3135,-0.7622 -0.6386,-1.0463 -0.325,-0.284 -0.7418,-0.4979 -1.2591,-0.6365l-14.7131 -3.9423c-0.5307,-0.1422 -1.0122,-0.1691 -1.4289,-0.0839 -0.4236,0.0835 -0.7824,0.2791 -1.0764,0.5869 -0.3007,0.3061 -0.5109,0.7093 -0.6477,1.2195zm-10.0185 13.8482l1.8357 -4.7818 28.0197 10.7558 -1.8355 4.7818 -28.0199 -10.7558zm26.6548 14.9184l-1.5719 3.7031 -21.1896 -1.3253 -0.5218 -0.8262 19.1705 8.1374 -1.8224 4.2933 -27.6078 -11.7188 1.5884 -3.742 20.0929 0.9516 0.5496 0.8149 -18.1265 -7.6942 1.8307 -4.3127 27.6079 11.7189z"/>
  </g>
  <ellipse class="fil2" cx="209.636" cy="211.473" rx="151.56" ry="151.56"/>
 </g>
</svg>
