<?xml version="1.0" encoding="UTF-8"?>
<!DOCTYPE svg PUBLIC "-//W3C//DTD SVG 1.1//EN" "http://www.w3.org/Graphics/SVG/1.1/DTD/svg11.dtd">
<!-- Creator: CorelDRAW -->
<svg xmlns="http://www.w3.org/2000/svg" xml:space="preserve" width="215.9mm" height="279.4mm" style="shape-rendering:geometricPrecision; text-rendering:geometricPrecision; image-rendering:optimizeQuality; fill-rule:evenodd; clip-rule:evenodd"
viewBox="0 0 215.9 279.4">
 <defs>
  <style type="text/css">
   <![CDATA[
    .str0 {stroke:#1F1A17;stroke-width:0.0762}
    .fil0 {fill:#0A0B0C}
    .fil1 {fill:#DA251D}
    .fil2 {fill:#E60094}
    .fil3 {fill:#F5E617}
   ]]>
  </style>
 </defs>
 <g id="cuerpo">
  <metadata id="CorelCorpID_0Corel-Layer"/>
  <path class="fil0 str0" d="M144.956 123.668c6.3419,-0.49 9.9939,4.0476 7.8848,11.0213 -0.8494,-6.4693 -3.7827,-9.6639 -7.8848,-11.0213z"/>
  <path class="fil0 str0" d="M69.1536 123.668c-6.3419,-0.49 -9.9939,4.0476 -7.8848,11.0213 0.8494,-6.4693 3.7827,-9.6639 7.8848,-11.0213z"/>
  <path class="fil0 str0" d="M85.9802 171.107c-5.9583,5.9004 -18.0493,3.9529 -17.9622,-4.0109 2.9357,6.5397 11.0199,7.316 17.9622,4.0109z"/>
  <path class="fil1" d="M90.8728 132.796c10.8157,3.5455 21.2827,3.7766 31.4008,0.6935l17.3251 -5.9158c5.3569,-1.5194 9.187,-0.5305 9.6585,5.9762 -0.1101,9.5253 -1.9211,18.6256 -6.2177,27.1044 -2.9307,5.6016 -7.257,7.1912 -12.9787,4.7689 -13.1045,-5.5472 -26.9614,-7.0821 -42.1592,-1.4643 -5.4227,3.6747 -10.2327,3.826 -14.2602,-0.5233 -4.2956,-5.1077 -6.8685,-14.9525 -8.3731,-27.7356 -0.2942,-7.7407 3.3471,-10.0955 9.6813,-8.7655l15.9232 5.8615z"/>
  <path class="fil0 str0" d="M76.9121 134.653c-3.1208,-1.5715 -5.0458,-0.5103 -5.6257,3.2707 -0.4579,6.5631 0.5015,12.8428 3.5324,18.7084 2.1057,3.2272 4.6225,3.576 7.3264,2.6166 17.3565,-6.934 33.4919,-6.8903 48.4065,0.1308 3.84,0.8121 6.8503,0.3034 8.6481,-2.1352 3.8995,-4.1062 4.7233,-11.2881 4.4347,-19.5823 -0.9228,-3.2965 -3.0416,-4.2012 -6.3562,-2.7139 -19.5988,8.2745 -39.7209,8.1762 -60.3662,-0.2951z"/>
  <path class="fil2" d="M90.9849 159.48c10.3147,-5.3163 21.3398,-4.7744 32.8507,-0.2243 -10.9503,-1.6864 -21.9006,-1.9761 -32.8507,0.2243z"/>
  <path class="fil2" d="M67.3279 139.859l0.5606 -9.0816c0.6727,-1.7938 2.2424,-2.5413 4.709,-2.2424 25.0669,12.8797 46.2096,11.714 68.3922,-0.3363 3.7116,-0.9848 6.1671,0.5428 7.3665,4.5827 0.5412,3.6996 -0.0086,6.7174 -0.8636,9.5442 -0.2797,-7.9429 -2.7087,-12.6147 -9.8665,-10.0907 -22.4144,10.6047 -41.1569,9.5396 -62.6741,0.1121 -3.4384,-0.9342 -5.9798,1.5698 -7.6241,7.512z"/>
  <path class="fil0 str0" d="M128.991 171.107c5.9583,5.9004 18.0493,3.9529 17.9622,-4.0109 -2.9357,6.5397 -11.0198,7.316 -17.9622,4.0109z"/>
  <path class="fil3 str0" d="M128.066 156.763c0.7545,-4.0475 5.6363,-8.8545 12.0362,-14.7836 1.4857,-0.6382 2.4397,-0.5402 2.2241,1.1774 0.3935,8.5283 -1.6024,13.52 -5.2331,16.0919 -3.9905,0.4799 -6.9996,-0.3487 -9.0272,-2.4857z"/>
  <path class="fil3 str0" d="M126.382 156.78l-0.5069 -4.6936c-0.5124,-1.4065 -1.2536,-1.3411 -2.5185,-0.2943l-2.6165 3.2707c1.9462,-0.1471 3.8269,0.4254 5.6419,1.7172z"/>
  <path class="fil3 str0" d="M119.055 154.441l-0.5069 -3.9086c-0.4905,-1.761 -1.5043,-2.0825 -3.0419,-0.9649l-3.1236 4.2847c1.6723,-0.1104 3.8229,0.0449 6.6724,0.5888z"/>
  <path class="fil3 str0" d="M108.18 142.241l11.2513 -0.5233c-1.1484,2.4886 -2.6448,4.838 -5.1023,6.8031 -1.0331,0.7417 -2.3033,1.2706 -3.467,-0.0817 -0.9167,-1.2241 -1.8332,-3.506 -2.682,-6.1981z"/>
  <path class="fil3 str0" d="M121.655 141.456c1.0885,-2.2542 4.2747,-3.11 8.8964,-3.009 0.4528,3.4942 -0.7237,6.8201 -4.8407,9.9429 -0.9377,0.7633 -1.5483,0.676 -1.8316,-0.2616 -1.7229,-2.7761 -2.595,-5.0739 -2.2241,-6.6723z"/>
  <path class="fil3 str0" d="M141.018 137.139c-0.7982,3.7478 -2.995,6.7186 -6.1489,9.158 -0.9158,0.4581 -1.5699,-0.0652 -1.9624,-1.5699 -0.7849,-2.2569 -1.1773,-4.5139 -1.1773,-6.7705 0.2997,-1.1067 1.1392,-1.6735 2.2239,-1.995 4.195,-1.693 6.7954,-1.5785 7.0647,1.1774z"/>
  <path class="fil3 str0" d="M86.6221 156.763c-0.7545,-4.0475 -5.6363,-8.8545 -12.0362,-14.7836 -1.4857,-0.6382 -2.4396,-0.5402 -2.2241,1.1774 -0.3935,8.5283 1.6024,13.52 5.2331,16.0919 3.9905,0.4799 6.9996,-0.3487 9.0272,-2.4857z"/>
  <path class="fil3 str0" d="M88.3065 156.78l0.5069 -4.6936c0.5124,-1.4065 1.2536,-1.3411 2.5185,-0.2943l2.6166 3.2707c-1.9463,-0.1471 -3.8269,0.4254 -5.642,1.7172z"/>
  <path class="fil3 str0" d="M95.6328 154.441l0.5069 -3.9086c0.4905,-1.761 1.5044,-2.0825 3.0419,-0.9649l3.1236 4.2847c-1.6723,-0.1104 -3.8229,0.0449 -6.6724,0.5888z"/>
  <path class="fil3 str0" d="M106.508 142.241l-11.2512 -0.5233c1.1483,2.4886 2.6447,4.838 5.1023,6.8031 1.033,0.7417 2.3033,1.2706 3.467,-0.0817 0.9166,-1.2241 1.8331,-3.506 2.6819,-6.1981z"/>
  <path class="fil3 str0" d="M93.0327 141.456c-1.0885,-2.2542 -4.2747,-3.11 -8.8963,-3.009 -0.4529,3.4942 0.7236,6.8201 4.8406,9.9429 0.9378,0.7633 1.5483,0.676 1.8316,-0.2616 1.7229,-2.7761 2.595,-5.0739 2.2241,-6.6723z"/>
  <path class="fil3 str0" d="M73.6701 137.139c0.7982,3.7478 2.9951,6.7186 6.1489,9.158 0.9158,0.4581 1.57,-0.0652 1.9624,-1.5699 0.7849,-2.2569 1.1773,-4.5139 1.1773,-6.7705 -0.2997,-1.1067 -1.1391,-1.6735 -2.2239,-1.995 -4.195,-1.693 -6.7954,-1.5785 -7.0647,1.1774z"/>
 </g>
</svg>
