<?xml version="1.0" encoding="UTF-8"?>
<!DOCTYPE svg PUBLIC "-//W3C//DTD SVG 1.1//EN" "http://www.w3.org/Graphics/SVG/1.1/DTD/svg11.dtd">
<!-- Creator: CorelDRAW -->
<svg xmlns="http://www.w3.org/2000/svg" xml:space="preserve" width="215.9mm" height="279.4mm" style="shape-rendering:geometricPrecision; text-rendering:geometricPrecision; image-rendering:optimizeQuality; fill-rule:evenodd; clip-rule:evenodd"
viewBox="0 0 215.9 279.4">
 <defs>
  <style type="text/css">
   <![CDATA[
    .str1 {stroke:#1F1A17;stroke-width:0.7056}
    .str2 {stroke:#1F1A17;stroke-width:1.4111}
    .str0 {stroke:#0A0B0C;stroke-width:2.8222}
    .fil2 {fill:none}
    .fil1 {fill:#DA251D}
    .fil3 {fill:white}
    .fil0 {fill:#990033}
   ]]>
  </style>
 </defs>
 <g id="cuerpo">
  <metadata id="CorelCorpID_0Corel-Layer"/>
  <path class="fil0 str0" d="M86.4216 127.42c13.6955,4.328 28.2708,6.3958 44.0604,1.339 6.8388,-1.7801 12.7439,-1.0514 15.8543,7.1898 2.5601,4.8973 4.9015,11.0323 6.7632,19.8898 0.1223,6.6363 -2.2684,9.0047 -6.9378,13.0609 -29.3955,20.4174 -53.0248,13.9423 -75.0415,-2.1638 -4.9881,-5.2004 -6.2556,-10.8387 -4.9775,-16.7761l7.9272 -17.1448c2.2745,-4.3014 5.2858,-5.5172 12.3517,-5.3948z"/>
  <path class="fil1 str1" d="M83.3216 150.485l9.4844 3.1036 8.9945 4.2789 -2.0958 9.1691c-0.8456,3.9437 -4.3984,5.4421 -7.6016,5.4561 -7.8814,-1.732 -12.0539,-4.1899 -13.1818,-8.2505 -0.269,-6.0329 1.6424,-10.752 4.4003,-13.7572z"/>
  <line class="fil2 str1" x1="92.806" y1="153.588" x2="89.313" y2= "165.028" />
  <path class="fil2 str2" d="M80.9298 144.594c-0.6715,2.9227 -0.1353,5.2132 3.0563,6.1127 6.0574,1.9385 12.0868,3.9828 17.7874,7.2795 2.1777,1.071 5.5416,2.4836 9.3977,2.1449 8.1872,-0.528 17.5107,-4.3086 26.6073,-15.6245"/>
  <path class="fil3 str1" d="M120.584 158.425l11.2655 9.0539 -1.0001 -15.7581c-3.0545,2.6529 -6.5579,4.7949 -10.2654,6.7042z"/>
 </g>
</svg>
