<?xml version="1.0" encoding="UTF-8"?>
<!DOCTYPE svg PUBLIC "-//W3C//DTD SVG 1.1//EN" "http://www.w3.org/Graphics/SVG/1.1/DTD/svg11.dtd">
<!-- Creator: CorelDRAW -->
<svg xmlns="http://www.w3.org/2000/svg" xml:space="preserve" width="215.9mm" height="279.4mm" style="shape-rendering:geometricPrecision; text-rendering:geometricPrecision; image-rendering:optimizeQuality; fill-rule:evenodd; clip-rule:evenodd"
viewBox="0 0 215.9 279.4">
 <defs>
  <style type="text/css">
   <![CDATA[
    .str0 {stroke:#1F1A17;stroke-width:0.0762}
    .fil3 {fill:#0A0B0C}
    .fil1 {fill:#974578}
    .fil4 {fill:#DD137B}
    .fil0 {fill:#F8C300}
    .fil2 {fill:white}
   ]]>
  </style>
 </defs>
 <g id="cuerpo">
  <metadata id="CorelCorpID_0Corel-Layer"/>
  <path class="fil0 str0" d="M95.649 124.442c-6.9311,-1.7632 -9.568,-0.4815 -13.4974,8.5727 -5.6246,14.0365 -10.6704,29.3119 -13.8622,47.241 -1.763,5.1071 1.0945,8.5119 8.5727,10.2142 22.9978,3.5035 45.5241,4.5308 66.5751,-2.1887 3.7086,-1.3376 5.2286,-5.1072 4.5599,-11.3087 -1.1223,-15.5947 -6.2955,-31.7682 -14.227,-48.3354 -2.7967,-5.3503 -6.8095,-7.2959 -12.0382,-5.8367 -9.6065,2.8272 -18.4224,3.6783 -26.0829,1.6416z"/>
  <path class="fil1 str0" d="M97.9027 133.642c-5.4777,-1.3935 -7.5616,-0.3806 -10.667,6.775 -4.4451,11.093 -8.4328,23.1651 -10.9553,37.3344 -1.3933,4.0362 0.865,6.7269 6.775,8.0723 18.1751,2.7688 35.9776,3.5806 52.6141,-1.7298 2.9309,-1.0571 4.1322,-4.0361 3.6038,-8.9372 -0.887,-12.3244 -4.9754,-25.1063 -11.2436,-38.1993 -2.2103,-4.2284 -5.3816,-5.7659 -9.5138,-4.6128 -7.592,2.2344 -14.5591,2.907 -20.6132,1.2974z"/>
  <path class="fil2 str0" d="M124.719 133.043l-5.217 11.8107c-2.8653,-1.0328 -6.4207,-3.7253 -6.854,-11.0808 4.0237,-0.2432 8.1904,-3.2967 12.071,-0.7299z"/>
  <path class="fil3 str0" d="M88.5442 160.696c-0.8543,-11.0327 -0.5685,-16.1425 11.898,-15.2403 5.0799,0.4013 5.7929,2.4066 3.3422,9.2244 -0.6239,4.2334 6.6397,4.7236 6.1495,0.2674 -1.9277,-6.0884 -0.6577,-8.751 2.4064,-9.4918 8.5153,-2.6226 18.8548,1.2664 13.3654,16.4925l-8.2853 11.4479 -28.8762 -12.7001z"/>
  <path class="fil4 str0" d="M79.6065 162.918c6.1911,-10.8131 29.8936,-3.7422 27.716,4.4818l-1.3811 3.861 2.9898 -4.6269c7.3995,-11.0932 25.3522,-8.6336 28.7784,-2.3536l1.6827 12.733c0.2631,6.0162 -2.4606,6.4335 -8.4814,8.428 -11.5053,2.9725 -29.1856,3.2334 -47.8558,0.3817 -6.1519,-1.4081 -8.41,-4.0991 -6.7749,-8.0724l3.3263 -14.8326z"/>
  <path class="fil2 str0" d="M80.6294 185.123l7.1765 -10.609c2.8653,1.0329 4.5147,5.2269 4.948,12.5824 -4.6144,-0.4395 -9.1525,-1.1898 -12.1245,-1.9734z"/>
  <path class="fil0 str0" d="M95.649 124.442c-6.9311,-1.7632 -9.568,-0.4815 -13.4974,8.5727 -5.6246,14.0365 -10.6704,29.3119 -13.8622,47.241 -1.763,5.1071 1.0945,8.5119 8.5727,10.2142 22.9978,3.5035 45.5241,4.5308 66.5751,-2.1887 3.7086,-1.3376 5.2286,-5.1072 4.5599,-11.3087 -1.1223,-15.5947 -6.2955,-31.7682 -14.227,-48.3354 -2.7967,-5.3503 -6.8095,-7.2959 -12.0382,-5.8367 -9.6065,2.8272 -18.4224,3.6783 -26.0829,1.6416z"/>
  <path class="fil1 str0" d="M97.9027 133.642c-5.4777,-1.3935 -7.5616,-0.3806 -10.667,6.775 -4.4451,11.093 -8.4328,23.1651 -10.9553,37.3344 -1.3933,4.0362 0.865,6.7269 6.775,8.0723 18.1751,2.7688 35.9776,3.5806 52.6141,-1.7298 2.9309,-1.0571 4.1322,-4.0361 3.6038,-8.9372 -0.887,-12.3244 -4.9754,-25.1063 -11.2436,-38.1993 -2.2103,-4.2284 -5.3816,-5.7659 -9.5138,-4.6128 -7.592,2.2344 -14.5591,2.907 -20.6132,1.2974z"/>
  <path class="fil2 str0" d="M124.719 133.043l-5.217 11.8107c-2.8653,-1.0328 -6.4207,-3.7253 -6.854,-11.0808 4.0237,-0.2432 8.1904,-3.2967 12.071,-0.7299z"/>
  <path class="fil3 str0" d="M88.5442 160.696c-0.8543,-11.0327 -0.5685,-16.1425 11.898,-15.2403 5.0799,0.4013 5.7929,2.4066 3.3422,9.2244 -0.6239,4.2334 6.6397,4.7236 6.1495,0.2674 -1.9277,-6.0884 -0.6577,-8.751 2.4064,-9.4918 8.5153,-2.6226 18.8548,1.2664 13.3654,16.4925l-8.2853 11.4479 -28.8762 -12.7001z"/>
  <path class="fil4 str0" d="M79.6065 162.918c6.1911,-10.8131 29.8936,-3.7422 27.716,4.4818l-1.3811 3.861 2.9898 -4.6269c7.3995,-11.0932 25.3522,-8.6336 28.7784,-2.3536l1.6827 12.733c0.2631,6.0162 -2.4606,6.4335 -8.4814,8.428 -11.5053,2.9725 -29.1856,3.2334 -47.8558,0.3817 -6.1519,-1.4081 -8.41,-4.0991 -6.7749,-8.0724l3.3263 -14.8326z"/>
  <path class="fil2 str0" d="M80.6294 185.123l7.1765 -10.609c2.8653,1.0329 4.5147,5.2269 4.948,12.5824 -4.6144,-0.4395 -9.1525,-1.1898 -12.1245,-1.9734z"/>
 </g>
</svg>
