<?xml version="1.0" encoding="UTF-8"?>
<!DOCTYPE svg PUBLIC "-//W3C//DTD SVG 1.1//EN" "http://www.w3.org/Graphics/SVG/1.1/DTD/svg11.dtd">
<!-- Creator: CorelDRAW -->
<svg xmlns="http://www.w3.org/2000/svg" xml:space="preserve" width="215.9mm" height="279.4mm" style="shape-rendering:geometricPrecision; text-rendering:geometricPrecision; image-rendering:optimizeQuality; fill-rule:evenodd; clip-rule:evenodd"
viewBox="0 0 215.9 279.4">
 <defs>
  <style type="text/css">
   <![CDATA[
    .str1 {stroke:#1F1A17;stroke-width:0.0762}
    .str0 {stroke:#1F1A17;stroke-width:1.4111}
    .fil0 {fill:#0A0B0C}
    .fil1 {fill:#DA251D}
    .fil2 {fill:white}
   ]]>
  </style>
 </defs>
 <g id="cuerpo">
  <metadata id="CorelCorpID_0Corel-Layer"/>
  <path class="fil0 str0" d="M66.4531 116.535c-0.3458,12.3808 2.6227,22.5081 12.884,27.6768 8.5357,4.0566 19.1734,3.5631 28.5104,3.8891l0 0.0043c9.3359,-0.3255 19.9718,0.1672 28.5061,-3.8889 10.2613,-5.1687 13.2298,-15.2961 12.884,-27.6768 5.8632,7.9504 9.6831,17.0157 6.2035,30.0627 -5.4258,12.3192 -17.8943,19.4583 -47.6105,18.3733l0 -0.0034c-29.6949,1.0792 -42.157,-6.0594 -47.5809,-18.3743 -3.4797,-13.0471 0.3402,-22.1123 6.2034,-30.0628z"/>
  <path class="fil1 str1" d="M132.222 157.891c-1.9366,-6.1827 -25.7636,-9.5867 -31.2652,-0.1109 2.4665,-2.9124 1.4313,-3.9679 -0.1253,-4.4854 -17.3015,-2.2774 -29.4134,-2.762 -33.1355,3.1549 13.6527,13.0726 56.9664,11.0109 64.526,1.4414z"/>
  <path class="fil2 str1" d="M66.6996 123.909l-4.1485 2.6532c-0.5165,3.5955 0.021,6.5134 2.877,7.9408l3.9637 -0.3642c-1.8326,-3.7101 -2.6738,-7.1017 -2.6922,-10.2298z"/>
  <path class="fil2 str1" d="M70.204 135.689l-2.5105 3.3759c-1.173,3.0435 3.237,7.7337 7.4814,6.3119l1.7668 -2.5452c-3.0748,-1.8977 -5.2706,-4.3082 -6.7377,-7.1426z"/>
  <path class="fil2 str1" d="M78.5221 143.783l-0.4912 3.5104c-0.7021,1.5016 5.3394,5.0789 7.2666,2.6556l1.4553 -3.1789c-3.5932,-0.6971 -6.0686,-1.7873 -8.2307,-2.9871z"/>
  <path class="fil2 str1" d="M88.6494 147.158l0.3218 4.3368c-0.5069,1.7642 10.5932,2.9958 10.5613,0.0619l0.0435 -3.7146 -10.9266 -0.6841z"/>
  <path class="fil2 str1" d="M68.4793 157.137l1.7565 -5.5601c2.1039,-2.1015 9.3715,0.9288 7.5207,3.6569l-1.973 5.9211c-2.5842,-0.6352 -5.0015,-2.0573 -7.3042,-4.0179z"/>
  <path class="fil2 str1" d="M80.2546 157.528c0.4904,-3.4538 8.4525,-2.6846 8.2176,0.6407l-0.7511 5.9949c-3.458,-0.0337 -6.1782,-0.7371 -8.484,-1.8155l1.0175 -4.8201z"/>
  <path class="fil2 str1" d="M91.1712 158.847c0.5056,-1.4492 7.5012,-1.819 7.8006,0.9414l-0.1514 5.2504c-2.7243,0.3787 -5.2575,0.0456 -7.7469,-0.4993l0.0977 -5.6925z"/>
  <polygon class="fil2 str1" points="103.16,165.076 103.286,157.994 107.855,157.994 107.855,157.998 112.405,157.998 112.531,165.081 107.831,164.976 107.831,164.972 "/>
  <path class="fil2 str1" d="M148.991 123.913l4.1486 2.6532c0.5164,3.5955 -0.0211,6.5134 -2.8771,7.9408l-3.9637 -0.3643c1.8327,-3.71 2.6738,-7.1017 2.6922,-10.2297z"/>
  <path class="fil2 str1" d="M145.487 135.694l2.5105 3.3759c1.1729,3.0435 -3.2371,7.7337 -7.4815,6.3119l-1.7668 -2.5453c3.0748,-1.8977 5.2706,-4.3081 6.7378,-7.1425z"/>
  <path class="fil2 str1" d="M137.169 143.787l0.4912 3.5105c0.7021,1.5016 -5.3394,5.0789 -7.2666,2.6556l-1.4552 -3.1789c3.5931,-0.6971 6.0686,-1.7873 8.2306,-2.9872z"/>
  <path class="fil2 str1" d="M127.041 147.162l-0.3218 4.3369c0.507,1.7641 -10.5932,2.9958 -10.5613,0.0619l-0.0434 -3.7146 10.9265 -0.6842z"/>
  <path class="fil2 str1" d="M147.211 157.142l-1.7565 -5.5601c-2.1039,-2.1015 -9.3715,0.9288 -7.5207,3.6568l1.973 5.9212c2.6569,-1.0202 5.1063,-2.3391 7.3042,-4.0179z"/>
  <path class="fil2 str1" d="M135.436 157.533c-0.4904,-3.4538 -8.4524,-2.6846 -8.2175,0.6407l0.751 5.9949c2.9145,-0.4324 5.7279,-1.0674 8.4841,-1.8155l-1.0176 -4.8201z"/>
  <path class="fil2 str1" d="M124.52 158.852c-0.5056,-1.4492 -7.5012,-1.8189 -7.8006,0.9415l0.1514 5.2504c2.5827,-0.0532 5.165,-0.2297 7.7469,-0.4993l-0.0977 -5.6926z"/>
  <path class="fil2 str1" d="M113.651 147.964l-0.2713 3.2903c-1.165,1.6293 -3.1788,1.923 -5.5408,1.7763l0 -0.0037c-2.3567,0.1449 -4.3658,-0.1506 -5.5287,-1.7771l-0.2713 -3.2902 5.8082 0.1416 0 0.0045 5.8039 -0.1417z"/>
 </g>
</svg>
