<?xml version="1.0" encoding="UTF-8"?>
<!DOCTYPE svg PUBLIC "-//W3C//DTD SVG 1.1//EN" "http://www.w3.org/Graphics/SVG/1.1/DTD/svg11.dtd">
<!-- Creator: CorelDRAW -->
<svg xmlns="http://www.w3.org/2000/svg" xml:space="preserve" width="215.9mm" height="279.4mm" style="shape-rendering:geometricPrecision; text-rendering:geometricPrecision; image-rendering:optimizeQuality; fill-rule:evenodd; clip-rule:evenodd"
viewBox="0 0 215.9 279.4">
 <defs>
  <style type="text/css">
   <![CDATA[
    .str0 {stroke:#1F1A17;stroke-width:0.0762}
    .fil0 {fill:#0A0B0C}
    .fil2 {fill:#DA251D}
    .fil1 {fill:white}
   ]]>
  </style>
 </defs>
 <g id="cuerpo">
  <metadata id="CorelCorpID_0Corel-Layer"/>
  <path class="fil0 str0" d="M65.7122 129.545c31.5948,11.6512 61.9493,10.5479 90.7449,-6.5996 -4.2936,11.9616 -10.4559,23.6357 -19.9489,34.7981l-21.7488 13.3492c-28.5595,2.1764 -39.7832,-18.4 -49.0472,-41.5477z"/>
  <path class="fil1 str0" d="M80.9013 134.173l1.3757 8.879c1.3236,4.7782 4.797,5.1836 6.5947,0.7026l2.4296 -7.5866 -10.4 -1.995z"/>
  <path class="fil1 str0" d="M142.662 129.684l-2.1519 9.5971c-1.4018,3.9078 -3.0663,5.2275 -5.2547,1.3839l-2.3851 -6.9482 9.7917 -4.0328z"/>
  <path class="fil2" d="M102.775 170.559c6.8638,-10.7495 23.9086,-17.8126 40.9356,-11.2064 12.8648,6.5179 26.1596,-7.7668 17.3255,10.3984 -4.9569,6.912 -13.1057,8.2729 -22.7049,7.1107 -11.677,-4.1978 -16.8384,-7.4178 -22.8964,-6.1835 -4.3954,0.8989 -8.5765,0.6506 -12.6598,-0.1192z"/>
 </g>
</svg>
