<?xml version="1.0" encoding="UTF-8"?>
<!DOCTYPE svg PUBLIC "-//W3C//DTD SVG 1.1//EN" "http://www.w3.org/Graphics/SVG/1.1/DTD/svg11.dtd">
<!-- Creator: CorelDRAW -->
<svg xmlns="http://www.w3.org/2000/svg" xml:space="preserve" width="215.9mm" height="279.4mm" style="shape-rendering:geometricPrecision; text-rendering:geometricPrecision; image-rendering:optimizeQuality; fill-rule:evenodd; clip-rule:evenodd"
viewBox="0 0 215.9 279.4">
 <defs>
  <style type="text/css">
   <![CDATA[
    .str0 {stroke:#0A0B0C;stroke-width:0.0762}
    .str1 {stroke:#1F1A17;stroke-width:0.0762}
    .fil0 {fill:#0A0B0C}
    .fil1 {fill:white}
   ]]>
  </style>
 </defs>
 <g id="cuerpo">
  <metadata id="CorelCorpID_0Corel-Layer"/>
  <path class="fil0 str0" d="M57.2234 135.623c13.0652,-4.5227 25.457,-4.3371 40.4147,1.5455 6.1278,2.5946 12.4107,1.6285 18.8004,-1.7736 16.63,-6.3199 31.2882,-1.8805 45.0499,7.4492 -11.4942,-1.9636 -23.4778,-0.6663 -36.5366,7.8039 -6.6595,3.963 -17.5887,3.9577 -26.7249,3.8473l-19.0344 -0.3001c-18.7522,-2.9999 -20.7933,-9.9607 -21.9691,-18.5722z"/>
  <polygon class="fil1 str1" points="64.8347,133.517 64.0521,140.075 74.1239,140.662 74.6069,132.468 "/>
  <polygon class="fil1 str1" points="78.4064,132.576 76.2751,139.977 85.7602,142.422 86.6722,133.769 "/>
  <polygon class="fil1 str1" points="89.9725,134.589 88.4003,143.986 98.4721,144.573 98.9851,137.681 "/>
  <path class="fil1 str1" d="M100.943 138.225l-0.6128 5.6633 9.026 -0.405 0.5671 -5.4985c-3.0766,0.7412 -6.0811,0.9094 -8.9803,0.2402z"/>
  <polygon class="fil1 str1" points="113.06,136.964 122.435,133.552 123.016,142.226 113.042,142.813 "/>
  <polygon class="fil1 str1" points="127.613,132.67 128.003,140.662 138.466,137.533 136.022,132.647 "/>
  <polygon class="fil1 str1" points="111.87,154.161 111.477,146.235 119.3,146.822 118.163,153.204 "/>
  <polygon class="fil1 str1" points="105.515,154.494 107.077,147.213 98.961,147.018 99.0497,154.504 "/>
  <polygon class="fil1 str1" points="94.5595,154.437 94.5607,147.213 86.4446,148.582 87.7194,154.329 "/>
  <polygon class="fil1 str1" points="84.4887,154.278 81.5555,144.769 74.3194,147.115 77.1693,153.844 "/>
 </g>
</svg>
