<?xml version="1.0" encoding="UTF-8"?>
<!DOCTYPE svg PUBLIC "-//W3C//DTD SVG 1.1//EN" "http://www.w3.org/Graphics/SVG/1.1/DTD/svg11.dtd">
<!-- Creator: CorelDRAW -->
<svg xmlns="http://www.w3.org/2000/svg" xml:space="preserve" width="215.9mm" height="279.4mm" style="shape-rendering:geometricPrecision; text-rendering:geometricPrecision; image-rendering:optimizeQuality; fill-rule:evenodd; clip-rule:evenodd"
viewBox="0 0 215.9 279.4">
 <defs>
  <style type="text/css">
   <![CDATA[
    .str16 {stroke:#0A0B0C;stroke-width:0.0762}
    .str3 {stroke:#1F1A17;stroke-width:0.0762}
    .str7 {stroke:#00CC00;stroke-width:0.0762}
    .str5 {stroke:#BA1FB5;stroke-width:0.0762}
    .str14 {stroke:#1F1A17;stroke-width:0.3528}
    .str10 {stroke:#0A0B0C;stroke-width:0.7056}
    .str6 {stroke:#1F1A17;stroke-width:0.7056}
    .str8 {stroke:#0093DD;stroke-width:1.4111}
    .str9 {stroke:#0A0B0C;stroke-width:1.4111}
    .str0 {stroke:#1F1A17;stroke-width:1.4111}
    .str1 {stroke:#1F1A17;stroke-width:1.4111;stroke-linejoin:bevel}
    .str12 {stroke:#DA251D;stroke-width:1.4111}
    .str11 {stroke:#66CCFF;stroke-width:1.4111}
    .str4 {stroke:#BA1FB5;stroke-width:1.4111}
    .str13 {stroke:#0A0B0C;stroke-width:2.8222}
    .str2 {stroke:#1F1A17;stroke-width:2.8222}
    .str17 {stroke:#DA251D;stroke-width:2.8222}
    .str15 {stroke:white;stroke-width:5.6444}
    .fil2 {fill:none}
    .fil25 {fill:#00923F}
    .fil6 {fill:#0A0B0C}
    .fil23 {fill:#383431}
    .fil26 {fill:#4D4948}
    .fil20 {fill:#605D5C}
    .fil19 {fill:#75C5F0}
    .fil16 {fill:#84C225}
    .fil9 {fill:#974578}
    .fil5 {fill:#DA251D}
    .fil8 {fill:#DD137B}
    .fil28 {fill:#DEDEDD}
    .fil27 {fill:#F19ABE}
    .fil4 {fill:#F8C300}
    .fil24 {fill:#FFF500}
    .fil3 {fill:white}
    .fil29 {fill:#6633FF}
    .fil10 {fill:#990000}
    .fil1 {fill:#FFCC99}
    .fil11 {fill:white}
    .fil18 {fill:#008CCC}
    .fil17 {fill:#0091CC}
    .fil22 {fill:#00AB59}
    .fil12 {fill:#6600A1}
    .fil21 {fill:#8C214A}
    .fil30 {fill:#9E5205}
    .fil13 {fill:#BA1FB5}
    .fil14 {fill:#E60094}
    .fil0 {fill:#F57D00}
    .fil15 {fill:#F5E617}
    .fil7 {fill:#DA251D;fill-rule:nonzero}
    .fil31 {fill:white;fill-rule:nonzero}
   ]]>
  </style>
 </defs>
 <g id="base" visibility="hidden">
  <metadata id="CorelCorpID_0Corel-Layer"/>
  <rect class="fil0" x="5" y="4.4" width="205" height="270" rx="33.8081" ry="33.8081"/>
 </g>
 <g id="brazo" visibility="hidden">
  <metadata id="CorelCorpID_1Corel-Layer"/>
  <path class="fil1 str0" d="M70.919 234.284c25.702,4.9426 50.8507,5.7824 75.8014,0l4.0057 34.6912c-28.8691,4.036 -56.8668,4.2963 -83.8128,0l4.0057 -34.6912z"/>
  <polyline class="fil2 str1" points="70.791,266.241 94.3462,264.318 72.2332,259.751 95.0673,258.069 73.1946,253.502 95.3077,251.339 73.1946,247.493 95.7884,245.81 "/>
 </g>
 <g id="cuerpo">
  <metadata id="CorelCorpID_2Corel-Layer"/>
  <path class="fil3 str2" d="M310.086 278.241c21.7265,48.8892 79.1641,3.9456 47.4039,-23.7019l-47.4039 23.7019z"/>
  <path class="fil3 str2" d="M301.882 277.834c-13.9361,31.3594 -50.7788,2.5308 -30.4066,-15.2033l30.4066 15.2033z"/>
  <path class="fil4 str3" d="M465.25 -151.031l-10.0923 2.6649c-16.5639,8.1273 -26.8021,9.241 -31.7995,4.5442 -4.7577,24.0157 12.1733,39.928 35.8022,32.2662 13.1784,-8.5912 15.061,-23.9598 6.0896,-39.4753z"/>
  <path class="fil4 str3" d="M375.438 -151.031l10.0923 2.6649c16.5639,8.1273 26.8021,9.241 31.7995,4.5442 4.7577,24.0157 -12.1733,39.928 -35.8021,32.2662 -13.1784,-8.5912 -15.0611,-23.9598 -6.0897,-39.4753z"/>
  <g id="_384440280">
   <ellipse id="_384440568" class="fil5" cx="-80.6804" cy="-214.185" rx="19.0068" ry="13.5519"/>
   <path id="_384440016" class="fil6 str3" d="M-45.8861 -209.238c7.7373,24.9469 -24.5486,25.357 -29.9166,7.7628l-4.215 0.8343 -4.2032 -0.8443c-5.368,17.5942 -37.6539,17.1841 -29.9165,-7.7627 0.7517,-2.9679 -2.0368,-3.8377 -4.2354,-2.216 -6.5453,10.7106 -7.9885,21.3827 9.664,27.1301 10.3911,22.7259 12.3725,35.1981 28.682,37.5848l0 0.0147c16.3375,-2.3756 18.3145,-14.8495 28.712,-37.5895 17.6526,-5.7474 16.2093,-16.4196 9.6641,-27.1302 -2.1986,-1.6217 -4.9872,-0.7519 -4.2354,2.216z"/>
   <path id="_384439800" class="fil7 str3" d="M-79.6654 -167.591c1.746,-2.7305 3.4921,-4.0957 6.9845,-4.0957 3.8553,0 6.9844,2.4466 6.9844,5.4611 0,5.4615 -6.9844,10.9228 -13.9689,16.3843 -6.9845,-5.4615 -13.969,-10.9228 -13.969,-16.3843 0,-3.0145 3.1291,-5.4611 6.9845,-5.4611 3.4923,0 5.2385,1.3652 6.9845,4.0957zm2.8372 -3.072m9.0852 0.5763m-2.3189 12.0532m-19.2072 0m-2.3188 -12.0532m9.0851 -0.5763"/>
  </g>
  <path class="fil8 str3" d="M379.784 100.77c9.5427,-1.141 19.2976,-2.2226 25.437,-4.309 12.8348,4.0766 23.6769,14.6405 21.684,35.445 -15.4291,2.4382 -27.9294,3.9948 -37.186,1.873 -10.1937,-3.5588 -13.1794,-16.3133 -9.935,-33.009z"/>
  <path class="fil3 str3" d="M388.242 114.72c1.8879,20.9483 17.9707,15.9349 36.297,16.6116 -1.4713,-8.9792 -5.7004,-16.2659 -14.8458,-20.5356 -8.953,0.5356 -16.1607,1.819 -21.4512,3.924z"/>
  <ellipse class="fil9 str3" cx="407.372" cy="117.606" rx="11.4777" ry="11.632"/>
  <ellipse class="fil8 str3" cx="407.127" cy="116.966" rx="9.69555" ry="9.82587"/>
  <ellipse class="fil6 str3" cx="406.778" cy="117.06" rx="6.33807" ry="6.42326"/>
  <ellipse class="fil3 str3" cx="402.835" cy="115.619" rx="2.77622" ry="2.81354"/>
  <polygon class="fil3" points="409.824,118.251 418.906,125.107 420.462,121.429 "/>
  <path class="fil6 str3" d="M371.239 95.9944c6.5166,-8.4773 16.3084,-14.3928 21.1204,-12.5452 12.3334,3.5467 24.1374,8.6812 35.4124,15.4036 -0.0861,-4.1221 -1.9786,-7.47 -6.5108,-9.6868 -8.4428,-3.8377 -17.2827,-7.2784 -26.996,-9.8456 -4.076,-0.6881 -7.5167,0.1059 -10.322,2.382 -6.6507,4.2808 -10.2898,9.164 -12.704,14.292z"/>
  <polygon class="fil3 str3" points="113.609,-36.2664 129.376,-40.0124 145.017,-36.2002 141.833,-28.4529 115.676,-28.8234 "/>
  <path class="fil5 str3" d="M129.371 -45.0301c4.0984,-2.5004 8.5215,-2.0606 12.8301,1.9772 1.7599,2.2166 4.2741,3.5531 7.3048,4.2876 -3.176,3.0437 -7.0402,4.3669 -11.91,3.176 -2.5673,-0.9264 -4.926,-2.9173 -8.21,-2.8021l-0.0149 -2.4428 -0.0149 2.4428c-3.284,-0.1152 -5.6427,1.8757 -8.21,2.8021 -4.8698,1.1909 -8.734,-0.1323 -11.91,-3.176 3.0307,-0.7345 5.5449,-2.071 7.3048,-4.2876 4.3086,-4.0378 8.7317,-4.4776 12.8301,-1.9772z"/>
  <path class="fil10 str3" d="M129.371 -20.5645c6.4706,0.9006 14.8761,-3.7945 16.396,-8.8889 0.8842,-5.2384 1.9813,-6.3435 3.7389,-9.3119l-5.558 3.176c-0.0904,2.1258 -0.7341,4.093 -2.3026,5.7962 -1.4207,-0.1047 -1.9635,-1.6306 -1.9056,-4.1288 -1.3686,1.0861 -5.0093,1.6779 -10.3687,1.7466 -5.3594,-0.0687 -9.0001,-0.6605 -10.3687,-1.7466 0.0579,2.4982 -0.4849,4.0241 -1.9056,4.1288 -1.5685,-1.7032 -2.2122,-3.6704 -2.3026,-5.7962l-5.558 -3.176c1.7576,2.9684 2.8547,4.0735 3.7389,9.3119 1.5199,5.0944 9.9254,9.7895 16.396,8.8889z"/>
  <path class="fil6 str3" d="M426.905 131.906c-1.8514,-11.468 -5.1715,-21.7226 -15.568,-26.132 -1.258,-0.0618 -2.5035,-0.096 -3.7369,-0.1032l0.0001 -0.0004c-2.791,-1.7259 -4.96,-4.8522 -6.904,-8.4852 0.0714,3.0308 0.5601,5.9688 2.5391,8.5754l-0.0295 0.0018c-0.666,0.0322 -1.328,0.073 -1.9865,0.1218l-0.0476 0.0029c-3.1956,-1.9525 -4.7524,-6.1153 -6.1923,-11.3221 -1.2386,4.3309 -0.8225,8.3307 3.2332,11.6023l-0.0119 0.0016c-0.8052,0.0927 -1.6044,0.1987 -2.398,0.3172l-0.0296 0.0039c-3.9424,-2.4676 -6.4037,-6.8396 -7.3839,-13.116 -0.7703,4.837 0.0817,9.471 3.8255,13.7434 -9.7064,-2.2727 -13.6287,-6.4435 -14.3063,-11.679 -0.5534,4.2426 0.9376,8.6993 6.926,13.6269l-0.0217 0.0075c-0.7085,0.2323 -1.4119,0.4761 -2.1097,0.7322 -5.5696,-2.2188 -9.3628,-6.038 -11.9406,-10.9524 -0.9927,7.8061 3.8481,12.8261 12.307,16.1182l1.0322 3.8906c-7.0074,-1.2338 -10.9158,0.2128 -12.704,3.4936 4.6716,-2.3237 9.3431,-2.6019 14.0144,-0.8346l0.0119 0.0297c0.1187,0.3156 0.2444,0.6299 0.3779,0.943l0.012 0.0298c-6.524,-0.5182 -10.0326,0.7224 -11.4784,3.1669 3.6643,-1.3648 7.6285,-2.1296 12.4217,-1.2358l0.0044 0.0073c0.2464,0.4443 0.5138,0.8853 0.8028,1.3225l0.0108 0.0178c-3.9424,0.6512 -6.4192,1.9194 -7.6817,3.6994 2.2487,-1.2623 5.0223,-2.0747 9.2468,-1.6429l0.0279 0.0308c0.1628,0.1869 0.3312,0.3729 0.5044,0.558l0.0313 0.0346 -4.1831 3.0198c2.0121,-0.3478 3.9547,-0.8346 5.6485,-1.8181l0.0149 0.0063c0.6257,0.307 1.2936,0.5895 2.0032,0.8479l0.0043 0.0018 -3.4726 3.2398 4.1488 -2.5312 3.4588 0.441 -2.1552 2.9066c1.4478,-0.5043 2.8424,-1.1284 3.8649,-2.5889l0.0006 -0.0006c7.1873,1.1859 16.7521,0.9929 27.8681,-0.0999zm-38.6624 -17.1866c1.8879,20.9483 17.9707,15.9349 36.297,16.6116 -1.4713,-8.9792 -5.7004,-16.2659 -14.8458,-20.5356 -8.953,0.5356 -16.1607,1.819 -21.4512,3.924z"/>
  <path class="fil8 str3" d="M479.583 100.77c-9.5427,-1.141 -19.2976,-2.2226 -25.437,-4.309 -12.8348,4.0766 -23.6769,14.6405 -21.684,35.445 15.4291,2.4382 27.9294,3.9948 37.186,1.873 10.1937,-3.5588 13.1794,-16.3133 9.935,-33.009z"/>
  <path class="fil3 str3" d="M471.124 114.72c-1.8879,20.9483 -17.9707,15.9349 -36.297,16.6116 1.4713,-8.9792 5.7004,-16.2659 14.8458,-20.5356 8.953,0.5356 16.1607,1.819 21.4512,3.924z"/>
  <ellipse class="fil9 str3" cx="451.995" cy="117.606" rx="11.4777" ry="11.632"/>
  <ellipse class="fil8 str3" cx="452.24" cy="116.966" rx="9.69555" ry="9.82587"/>
  <ellipse class="fil6 str3" cx="452.589" cy="117.06" rx="6.33807" ry="6.42326"/>
  <ellipse class="fil3 str3" cx="456.531" cy="115.619" rx="2.77622" ry="2.81354"/>
  <polygon class="fil3" points="449.542,118.251 440.46,125.107 438.905,121.429 "/>
  <path class="fil6 str3" d="M488.128 95.9944c-6.5166,-8.4773 -16.3084,-14.3928 -21.1204,-12.5452 -12.3334,3.5467 -24.1374,8.6812 -35.4124,15.4036 0.0861,-4.1221 1.9786,-7.47 6.5108,-9.6868 8.4428,-3.8377 17.2827,-7.2784 26.996,-9.8456 4.076,-0.6881 7.5167,0.1059 10.322,2.382 6.6507,4.2808 10.2898,9.164 12.704,14.292z"/>
  <path class="fil6 str3" d="M432.462 131.906c1.8514,-11.468 5.1715,-21.7226 15.568,-26.132 1.258,-0.0618 2.5035,-0.096 3.7369,-0.1032l-0.0001 -0.0004c2.791,-1.7259 4.96,-4.8522 6.904,-8.4852 -0.0714,3.0308 -0.5601,5.9688 -2.5391,8.5754l0.0295 0.0018c0.666,0.0322 1.328,0.073 1.9865,0.1218l0.0476 0.0029c3.1956,-1.9525 4.7524,-6.1153 6.1923,-11.3221 1.2386,4.3309 0.8225,8.3307 -3.2332,11.6023l0.0119 0.0016c0.8052,0.0927 1.6044,0.1987 2.398,0.3172l0.0296 0.0039c3.9424,-2.4676 6.4037,-6.8396 7.3839,-13.116 0.7703,4.837 -0.0817,9.471 -3.8255,13.7434 9.7064,-2.2727 13.6287,-6.4435 14.3063,-11.679 0.5534,4.2426 -0.9376,8.6993 -6.926,13.6269l0.0217 0.0075c0.7085,0.2323 1.4119,0.4761 2.1097,0.7322 5.5696,-2.2188 9.3628,-6.038 11.9406,-10.9524 0.9927,7.8061 -3.8481,12.8261 -12.307,16.1182l-1.0322 3.8906c7.0074,-1.2338 10.9158,0.2128 12.704,3.4936 -4.6716,-2.3237 -9.3431,-2.6019 -14.0144,-0.8346l-0.0119 0.0297c-0.1187,0.3156 -0.2444,0.6299 -0.3779,0.943l-0.012 0.0298c6.524,-0.5182 10.0326,0.7224 11.4784,3.1669 -3.6643,-1.3648 -7.6285,-2.1296 -12.4217,-1.2358l-0.0044 0.0073c-0.2464,0.4443 -0.5138,0.8853 -0.8028,1.3225l-0.0108 0.0178c3.9424,0.6512 6.4192,1.9194 7.6817,3.6994 -2.2487,-1.2623 -5.0223,-2.0747 -9.2468,-1.6429l-0.0279 0.0308c-0.1628,0.1869 -0.3312,0.3729 -0.5044,0.558l-0.0313 0.0346 4.1831 3.0198c-2.0121,-0.3478 -3.9547,-0.8346 -5.6485,-1.8181l-0.0149 0.0063c-0.6257,0.307 -1.2936,0.5895 -2.0032,0.8479l-0.0043 0.0018 3.4726 3.2398 -4.1488 -2.5312 -3.4588 0.441 2.1552 2.9066c-1.4478,-0.5043 -2.8424,-1.1284 -3.8649,-2.5889l-0.0006 -0.0006c-7.1873,1.1859 -16.7521,0.9929 -27.8681,-0.0999zm38.6624 -17.1866c-1.8879,20.9483 -17.9707,15.9349 -36.297,16.6116 1.4713,-8.9792 5.7004,-16.2659 14.8458,-20.5356 8.953,0.5356 16.1607,1.819 21.4512,3.924z"/>
  <path class="fil11 str3" d="M604.58 -57.0905c13.9977,-6.4844 28.5112,-6.9312 43.5911,-0.7464 12.4965,-15.7015 12.423,-31.0689 -0.2203,-46.1024 -14.2313,4.6493 -29.2753,4.4 -45.0591,-0.3096 -11.84,15.4231 -13.8433,31.0815 1.6883,47.1584z"/>
  <circle class="fil12 str3" cx="626.355" cy="-81.4771" r="19.0877"/>
  <circle class="fil13 str4" cx="626.355" cy="-81.4771" r="12.3314"/>
  <path class="fil2 str2" d="M647.951 -103.939c6.0632,5.997 9.4789,14.1775 9.4789,22.7089 0,8.7615 -3.6067,17.1487 -9.9624,23.1768"/>
  <path class="fil6 str3" d="M592.69 -110.579c18.9827,15.5802 49.2919,14.0976 67.3294,-0.4933 -24.1953,10.9956 -46.7515,11.8588 -67.3294,0.4933z"/>
  <path class="fil6 str3" d="M606.135 -114.16c11.12,9.1269 28.8751,8.2584 39.4415,-0.2889 -14.1736,6.4412 -27.387,6.9469 -39.4415,0.2889z"/>
  <path class="fil6 str3" d="M601.087 -54.5688c14.8119,-12.157 38.4617,-11.0002 52.5361,0.3849 -18.8792,-8.5797 -36.4795,-9.2533 -52.5361,-0.3849z"/>
  <path class="fil6 str3" d="M-29.7314 -291.056c6.3419,-0.49 9.9939,4.0476 7.8848,11.0213 -0.8494,-6.4693 -3.7827,-9.6639 -7.8848,-11.0213z"/>
  <path class="fil6 str3" d="M-105.534 -291.056c-6.3419,-0.49 -9.9939,4.0476 -7.8848,11.0213 0.8494,-6.4693 3.7827,-9.6639 7.8848,-11.0213z"/>
  <path class="fil6 str3" d="M-88.7074 -243.617c-5.9583,5.9004 -18.0493,3.9529 -17.9622,-4.0109 2.9357,6.5397 11.0199,7.316 17.9622,4.0109z"/>
  <path class="fil5" d="M-83.8148 -281.928c10.8157,3.5455 21.2827,3.7766 31.4008,0.6935l17.3251 -5.9158c5.3569,-1.5194 9.187,-0.5305 9.6585,5.9762 -0.1101,9.5253 -1.9211,18.6256 -6.2177,27.1044 -2.9307,5.6016 -7.257,7.1912 -12.9787,4.7689 -13.1045,-5.5472 -26.9614,-7.0821 -42.1592,-1.4643 -5.4227,3.6747 -10.2327,3.826 -14.2602,-0.5233 -4.2956,-5.1077 -6.8685,-14.9525 -8.3731,-27.7356 -0.2942,-7.7407 3.3471,-10.0955 9.6813,-8.7655l15.9232 5.8615z"/>
  <path class="fil6 str3" d="M-97.7755 -280.071c-3.1208,-1.5715 -5.0458,-0.5103 -5.6257,3.2707 -0.4579,6.5631 0.5015,12.8428 3.5324,18.7084 2.1057,3.2272 4.6225,3.576 7.3264,2.6166 17.3565,-6.934 33.4919,-6.8903 48.4065,0.1308 3.84,0.8121 6.8503,0.3034 8.6481,-2.1352 3.8995,-4.1062 4.7233,-11.2881 4.4347,-19.5823 -0.9228,-3.2965 -3.0416,-4.2012 -6.3562,-2.7139 -19.5988,8.2745 -39.7209,8.1762 -60.3662,-0.2951z"/>
  <path class="fil14" d="M-83.7027 -255.244c10.3147,-5.3163 21.3398,-4.7744 32.8507,-0.2243 -10.9503,-1.6864 -21.9006,-1.9761 -32.8507,0.2243z"/>
  <path class="fil14" d="M-107.36 -274.864l0.5606 -9.0816c0.6727,-1.7938 2.2424,-2.5413 4.709,-2.2424 25.0669,12.8797 46.2096,11.714 68.3922,-0.3363 3.7116,-0.9848 6.1671,0.5428 7.3665,4.5827 0.5412,3.6996 -0.0086,6.7174 -0.8636,9.5442 -0.2797,-7.9429 -2.7087,-12.6147 -9.8665,-10.0907 -22.4144,10.6047 -41.1569,9.5396 -62.6741,0.1121 -3.4384,-0.9342 -5.9798,1.5698 -7.6241,7.512z"/>
  <path class="fil2 str2" d="M604.58 -57.0905c-6.999,-6.0632 -11.0269,-14.8754 -11.0269,-24.1399 0,-8.3599 3.2831,-16.3961 9.1357,-22.3619"/>
  <path class="fil6 str3" d="M-45.6964 -243.617c5.9583,5.9004 18.0493,3.9529 17.9622,-4.0109 -2.9357,6.5397 -11.0198,7.316 -17.9622,4.0109z"/>
  <circle class="fil13" cx="635.859" cy="-76.0668" r="7.39951"/>
  <path class="fil15 str3" d="M-46.6217 -257.961c0.7545,-4.0475 5.6363,-8.8545 12.0362,-14.7836 1.4857,-0.6382 2.4397,-0.5402 2.2241,1.1774 0.3935,8.5283 -1.6024,13.52 -5.2331,16.0919 -3.9905,0.4799 -6.9996,-0.3487 -9.0272,-2.4857z"/>
  <path class="fil15 str3" d="M-48.3061 -257.944l-0.5069 -4.6936c-0.5124,-1.4065 -1.2536,-1.3411 -2.5185,-0.2943l-2.6165 3.2707c1.9462,-0.1471 3.8269,0.4254 5.6419,1.7172z"/>
  <path class="fil15 str3" d="M-55.6324 -260.283l-0.5069 -3.9086c-0.4905,-1.761 -1.5043,-2.0825 -3.0419,-0.9649l-3.1236 4.2847c1.6723,-0.1104 3.8229,0.0449 6.6724,0.5888z"/>
  <path class="fil15 str3" d="M-66.5076 -272.482l11.2513 -0.5233c-1.1484,2.4886 -2.6448,4.838 -5.1023,6.8031 -1.0331,0.7417 -2.3033,1.2706 -3.467,-0.0817 -0.9167,-1.2241 -1.8332,-3.506 -2.682,-6.1981z"/>
  <path class="fil15 str3" d="M-53.0323 -273.268c1.0885,-2.2542 4.2747,-3.11 8.8964,-3.009 0.4528,3.4942 -0.7237,6.8201 -4.8407,9.9429 -0.9377,0.7633 -1.5483,0.676 -1.8316,-0.2616 -1.7229,-2.7761 -2.595,-5.0739 -2.2241,-6.6723z"/>
  <path class="fil15 str3" d="M-33.6697 -277.585c-0.7982,3.7478 -2.995,6.7186 -6.1489,9.158 -0.9158,0.4581 -1.5699,-0.0652 -1.9624,-1.5699 -0.7849,-2.2569 -1.1773,-4.5139 -1.1773,-6.7705 0.2997,-1.1067 1.1392,-1.6735 2.2239,-1.995 4.195,-1.693 6.7954,-1.5785 7.0647,1.1774z"/>
  <path class="fil15 str3" d="M-88.0655 -257.961c-0.7545,-4.0475 -5.6363,-8.8545 -12.0362,-14.7836 -1.4857,-0.6382 -2.4396,-0.5402 -2.2241,1.1774 -0.3935,8.5283 1.6024,13.52 5.2331,16.0919 3.9905,0.4799 6.9996,-0.3487 9.0272,-2.4857z"/>
  <path class="fil15 str3" d="M-86.3811 -257.944l0.5069 -4.6936c0.5124,-1.4065 1.2536,-1.3411 2.5185,-0.2943l2.6166 3.2707c-1.9463,-0.1471 -3.8269,0.4254 -5.642,1.7172z"/>
  <path class="fil15 str3" d="M-79.0548 -260.283l0.5069 -3.9086c0.4905,-1.761 1.5044,-2.0825 3.0419,-0.9649l3.1236 4.2847c-1.6723,-0.1104 -3.8229,0.0449 -6.6724,0.5888z"/>
  <path class="fil15 str3" d="M-68.1796 -272.482l-11.2512 -0.5233c1.1483,2.4886 2.6447,4.838 5.1023,6.8031 1.033,0.7417 2.3033,1.2706 3.467,-0.0817 0.9166,-1.2241 1.8331,-3.506 2.6819,-6.1981z"/>
  <path class="fil15 str3" d="M-81.6549 -273.268c-1.0885,-2.2542 -4.2747,-3.11 -8.8963,-3.009 -0.4529,3.4942 0.7236,6.8201 4.8406,9.9429 0.9378,0.7633 1.5483,0.676 1.8316,-0.2616 1.7229,-2.7761 2.595,-5.0739 2.2241,-6.6723z"/>
  <path class="fil15 str3" d="M-101.018 -277.585c0.7982,3.7478 2.9951,6.7186 6.1489,9.158 0.9158,0.4581 1.57,-0.0652 1.9624,-1.5699 0.7849,-2.2569 1.1773,-4.5139 1.1773,-6.7705 -0.2997,-1.1067 -1.1391,-1.6735 -2.2239,-1.995 -4.195,-1.693 -6.7954,-1.5785 -7.0647,1.1774z"/>
  <circle class="fil6 str5" cx="626.355" cy="-81.4771" r="11.4065"/>
  <circle class="fil11 str3" cx="615.807" cy="-86.2782" r="4.5058"/>
  <path class="fil2 str2" d="M647.951 -103.939c6.0632,5.997 9.4789,14.1775 9.4789,22.7089 0,8.7615 -3.6067,17.1487 -9.9624,23.1768"/>
  <path class="fil4 str3" d="M472.715 -150.452c-2.0763,-6.87 -1.6104,-8.0208 -11.1738,-7.1425 -16.2389,3.4787 -12.6774,10.5228 -38.1831,13.7725 5.1307,4.3971 14.8053,4.2498 34.4762,-5.8933 6.5318,-1.6209 11.4922,-1.8662 14.8807,-0.7367z"/>
  <path class="fil4 str6" d="M465.25 -151.031l-10.0923 2.6649c-16.5639,8.1273 -26.8021,9.241 -31.7995,4.5442 -4.7577,24.0157 12.1733,39.928 35.8022,32.2662 13.1784,-8.5912 15.061,-23.9598 6.0896,-39.4753z"/>
  <path class="fil3 str3" d="M455.754 -148.661l-27.0703 8.0758c-3.6488,18.4185 9.3362,30.6223 27.4581,24.7461 9.9595,-3.9367 14.7435,-26.8159 -0.3878,-32.8219z"/>
  <circle class="fil16 str3" cx="447.079" cy="-132.477" r="12.5365"/>
  <circle class="fil6 str3" cx="447.517" cy="-132.916" r="8.99072"/>
  <circle class="fil3 str3" cx="443.395" cy="-138.371" r="2.87636"/>
  <circle class="fil3 str3" cx="451.095" cy="-128.019" r="2.10112"/>
  <path class="fil4 str3" d="M-301.659 -288.481c-6.9311,-1.7632 -9.568,-0.4815 -13.4974,8.5727 -5.6246,14.0365 -10.6704,29.3119 -13.8622,47.241 -1.763,5.1071 1.0945,8.5119 8.5727,10.2142 22.9978,3.5035 45.5241,4.5308 66.5751,-2.1887 3.7086,-1.3376 5.2286,-5.1072 4.5599,-11.3087 -1.1223,-15.5947 -6.2955,-31.7682 -14.227,-48.3354 -2.7967,-5.3503 -6.8095,-7.2959 -12.0382,-5.8367 -9.6065,2.8272 -18.4224,3.6783 -26.0829,1.6416z"/>
  <path class="fil9 str3" d="M-299.405 -279.281c-5.4777,-1.3935 -7.5616,-0.3806 -10.667,6.775 -4.4451,11.093 -8.4328,23.1651 -10.9553,37.3344 -1.3933,4.0362 0.865,6.7269 6.775,8.0723 18.1751,2.7688 35.9776,3.5806 52.6141,-1.7298 2.9309,-1.0571 4.1322,-4.0361 3.6038,-8.9372 -0.887,-12.3244 -4.9754,-25.1063 -11.2436,-38.1993 -2.2103,-4.2284 -5.3816,-5.7659 -9.5138,-4.6128 -7.592,2.2344 -14.5591,2.907 -20.6132,1.2974z"/>
  <path class="fil3 str3" d="M-272.588 -279.88l-5.217 11.8107c-2.8653,-1.0328 -6.4207,-3.7253 -6.854,-11.0808 4.0237,-0.2432 8.1904,-3.2967 12.071,-0.7299z"/>
  <path class="fil6 str3" d="M-308.763 -252.227c-0.8543,-11.0327 -0.5685,-16.1425 11.898,-15.2403 5.0799,0.4013 5.7929,2.4066 3.3422,9.2244 -0.6239,4.2334 6.6397,4.7236 6.1495,0.2674 -1.9277,-6.0884 -0.6577,-8.751 2.4064,-9.4918 8.5153,-2.6226 18.8548,1.2664 13.3654,16.4925l-8.2853 11.4479 -28.8762 -12.7001z"/>
  <path class="fil8 str3" d="M-317.701 -250.004c6.1911,-10.8131 29.8936,-3.7422 27.716,4.4818l-1.3811 3.861 2.9898 -4.6269c7.3995,-11.0932 25.3522,-8.6336 28.7784,-2.3536l1.6827 12.733c0.2631,6.0162 -2.4606,6.4335 -8.4814,8.428 -11.5053,2.9725 -29.1856,3.2334 -47.8558,0.3817 -6.1519,-1.4081 -8.41,-4.0991 -6.7749,-8.0724l3.3263 -14.8326z"/>
  <path class="fil3 str3" d="M-316.678 -227.8l7.1765 -10.609c2.8653,1.0329 4.5147,5.2269 4.948,12.5824 -4.6144,-0.4395 -9.1525,-1.1898 -12.1245,-1.9734z"/>
  <path class="fil4 str3" d="M367.973 -150.452c2.0763,-6.87 1.6104,-8.0208 11.1738,-7.1425 16.2389,3.4787 12.6774,10.5228 38.1831,13.7725 -5.1306,4.3971 -14.8053,4.2498 -34.4761,-5.8933 -6.5319,-1.6209 -11.4923,-1.8662 -14.8808,-0.7367z"/>
  <path class="fil4 str6" d="M375.438 -151.031l10.0923 2.6649c16.5639,8.1273 26.8021,9.241 31.7995,4.5442 4.7577,24.0157 -12.1733,39.928 -35.8021,32.2662 -13.1784,-8.5912 -15.0611,-23.9598 -6.0897,-39.4753z"/>
  <path class="fil3 str3" d="M384.934 -148.661l27.0703 8.0758c3.6488,18.4185 -9.3362,30.6223 -27.458,24.7461 -9.9596,-3.9367 -14.7436,-26.8159 0.3877,-32.8219z"/>
  <circle class="fil16 str3" cx="393.61" cy="-132.477" r="12.5365"/>
  <circle class="fil6 str3" cx="393.171" cy="-132.916" r="8.99072"/>
  <circle class="fil3 str3" cx="397.293" cy="-138.371" r="2.87636"/>
  <circle class="fil3 str3" cx="389.593" cy="-128.019" r="2.10112"/>
  <path class="fil4 str0" d="M472.715 -150.452c-2.0763,-6.87 -1.6104,-8.0208 -11.1738,-7.1425 -16.2389,3.4787 -12.6774,10.5228 -38.1831,13.7725 5.1307,4.3971 14.8053,4.2498 34.4762,-5.8933 6.5318,-1.6209 11.4922,-1.8662 14.8807,-0.7367z"/>
  <path class="fil3 str6" d="M455.754 -148.661l-27.0703 8.0758c-3.6488,18.4185 9.3362,30.6223 27.4581,24.7461 9.9595,-3.9367 14.7435,-26.8159 -0.3878,-32.8219z"/>
  <circle class="fil16 str3" cx="447.079" cy="-132.477" r="12.5365"/>
  <circle class="fil6 str3" cx="447.517" cy="-132.916" r="8.99072"/>
  <circle class="fil3 str3" cx="443.395" cy="-138.371" r="2.87636"/>
  <circle class="fil3 str3" cx="451.095" cy="-128.019" r="2.10112"/>
  <path class="fil4 str3" d="M-301.659 -288.481c-6.9311,-1.7632 -9.568,-0.4815 -13.4974,8.5727 -5.6246,14.0365 -10.6704,29.3119 -13.8622,47.241 -1.763,5.1071 1.0945,8.5119 8.5727,10.2142 22.9978,3.5035 45.5241,4.5308 66.5751,-2.1887 3.7086,-1.3376 5.2286,-5.1072 4.5599,-11.3087 -1.1223,-15.5947 -6.2955,-31.7682 -14.227,-48.3354 -2.7967,-5.3503 -6.8095,-7.2959 -12.0382,-5.8367 -9.6065,2.8272 -18.4224,3.6783 -26.0829,1.6416z"/>
  <path class="fil9 str3" d="M-299.405 -279.281c-5.4777,-1.3935 -7.5616,-0.3806 -10.667,6.775 -4.4451,11.093 -8.4328,23.1651 -10.9553,37.3344 -1.3933,4.0362 0.865,6.7269 6.775,8.0723 18.1751,2.7688 35.9776,3.5806 52.6141,-1.7298 2.9309,-1.0571 4.1322,-4.0361 3.6038,-8.9372 -0.887,-12.3244 -4.9754,-25.1063 -11.2436,-38.1993 -2.2103,-4.2284 -5.3816,-5.7659 -9.5138,-4.6128 -7.592,2.2344 -14.5591,2.907 -20.6132,1.2974z"/>
  <path class="fil3 str3" d="M-272.588 -279.88l-5.217 11.8107c-2.8653,-1.0328 -6.4207,-3.7253 -6.854,-11.0808 4.0237,-0.2432 8.1904,-3.2967 12.071,-0.7299z"/>
  <path class="fil6 str3" d="M-308.763 -252.227c-0.8543,-11.0327 -0.5685,-16.1425 11.898,-15.2403 5.0799,0.4013 5.7929,2.4066 3.3422,9.2244 -0.6239,4.2334 6.6397,4.7236 6.1495,0.2674 -1.9277,-6.0884 -0.6577,-8.751 2.4064,-9.4918 8.5153,-2.6226 18.8548,1.2664 13.3654,16.4925l-8.2853 11.4479 -28.8762 -12.7001z"/>
  <path class="fil8 str3" d="M-317.701 -250.004c6.1911,-10.8131 29.8936,-3.7422 27.716,4.4818l-1.3811 3.861 2.9898 -4.6269c7.3995,-11.0932 25.3522,-8.6336 28.7784,-2.3536l1.6827 12.733c0.2631,6.0162 -2.4606,6.4335 -8.4814,8.428 -11.5053,2.9725 -29.1856,3.2334 -47.8558,0.3817 -6.1519,-1.4081 -8.41,-4.0991 -6.7749,-8.0724l3.3263 -14.8326z"/>
  <path class="fil3 str3" d="M-316.678 -227.8l7.1765 -10.609c2.8653,1.0329 4.5147,5.2269 4.948,12.5824 -4.6144,-0.4395 -9.1525,-1.1898 -12.1245,-1.9734z"/>
  <path class="fil4 str0" d="M367.973 -150.452c2.0763,-6.87 1.6104,-8.0208 11.1738,-7.1425 16.2389,3.4787 12.6774,10.5228 38.1831,13.7725 -5.1306,4.3971 -14.8053,4.2498 -34.4761,-5.8933 -6.5319,-1.6209 -11.4923,-1.8662 -14.8808,-0.7367z"/>
  <path class="fil3 str6" d="M384.934 -148.661l27.0703 8.0758c3.6488,18.4185 -9.3362,30.6223 -27.458,24.7461 -9.9596,-3.9367 -14.7436,-26.8159 0.3877,-32.8219z"/>
  <circle class="fil16 str3" cx="393.61" cy="-132.477" r="12.5365"/>
  <circle class="fil6 str3" cx="393.171" cy="-132.916" r="8.99072"/>
  <circle class="fil3 str3" cx="397.293" cy="-138.371" r="2.87636"/>
  <circle class="fil3 str3" cx="389.593" cy="-128.019" r="2.10112"/>
  <g id="_384433944">
   <g>
    <ellipse id="_384435600" class="fil17 str3" cx="470.537" cy="-39.2897" rx="18.7404" ry="18.2565"/>
    <ellipse id="_384435528" class="fil3 str3" cx="470.537" cy="-39.2897" rx="13.7513" ry="13.3963"/>
    <ellipse id="_384435312" class="fil18 str3" cx="470.538" cy="-39.2899" rx="8.93531" ry="8.7046"/>
    <ellipse id="_384435264" class="fil6 str3" cx="470.537" cy="-39.2897" rx="6.56397" ry="6.39448"/>
    <g>
     <ellipse id="_384435816" class="fil3" cx="472.859" cy="-42.6713" rx="2.32617" ry="2.26611"/>
     <ellipse id="_384435336" class="fil3" cx="467.544" cy="-35.2536" rx="1.65415" ry="1.61144"/>
    </g>
    <g>
     <ellipse id="_384435696" class="fil15" cx="474.998" cy="-55.0801" rx="2.34353" ry="1.65083"/>
     <g>
      <ellipse id="_384435288" class="fil15" cx="455.119" cy="-36.811" rx="1.93187" ry="2.72183"/>
      <ellipse id="_384435048" class="fil15" cx="465.377" cy="-23.7721" rx="1.93187" ry="1.91987"/>
      <ellipse id="_384435000" class="fil15" cx="484.68" cy="-48.8632" rx="1.32088" ry="1.31267"/>
      <ellipse id="_384434952" class="fil15" cx="486.567" cy="-40.4794" rx="1.32088" ry="1.31267"/>
      <ellipse id="_384434664" class="fil15" cx="485.572" cy="-29.4638" rx="2.28687" ry="2.27267"/>
     </g>
    </g>
   </g>
   <g>
    <ellipse id="_384435144" class="fil17 str3" cx="533.028" cy="-39.2897" rx="18.7404" ry="18.2565"/>
    <ellipse id="_384434736" class="fil3 str3" cx="533.028" cy="-39.2897" rx="13.7513" ry="13.3963"/>
    <ellipse id="_384434424" class="fil18 str3" cx="533.028" cy="-39.2899" rx="8.93531" ry="8.7046"/>
    <ellipse id="_384434832" class="fil6 str3" cx="533.028" cy="-39.2897" rx="6.56397" ry="6.39448"/>
    <g>
     <ellipse id="_384434472" class="fil3" cx="535.35" cy="-42.6713" rx="2.32617" ry="2.26611"/>
     <ellipse id="_384434544" class="fil3" cx="530.034" cy="-35.2536" rx="1.65415" ry="1.61144"/>
    </g>
    <g>
     <ellipse id="_384433920" class="fil15" cx="537.489" cy="-55.0801" rx="2.34353" ry="1.65083"/>
     <g>
      <ellipse id="_384434208" class="fil15" cx="517.609" cy="-36.811" rx="1.93187" ry="2.72183"/>
      <ellipse id="_384433752" class="fil15" cx="527.868" cy="-23.7721" rx="1.93187" ry="1.91987"/>
      <ellipse id="_384433632" class="fil15" cx="547.171" cy="-48.8632" rx="1.32088" ry="1.31267"/>
      <ellipse id="_384434352" class="fil15" cx="549.058" cy="-40.4794" rx="1.32088" ry="1.31267"/>
      <ellipse id="_384433824" class="fil15" cx="548.063" cy="-29.4638" rx="2.28687" ry="2.27267"/>
     </g>
    </g>
   </g>
  </g>
  <g id="_384432360">
   <ellipse id="_384434280" class="fil17 str3" cx="501.783" cy="-57.0971" rx="23.5369" ry="22.9292"/>
   <ellipse id="_384433992" class="fil3 str3" cx="501.783" cy="-57.0971" rx="17.271" ry="16.825"/>
   <ellipse id="_384433704" class="fil18 str3" cx="501.783" cy="-57.0973" rx="11.2223" ry="10.9325"/>
   <ellipse id="_384434136" class="fil6 str3" cx="501.783" cy="-57.0971" rx="8.244" ry="8.03114"/>
   <g>
    <ellipse id="_384434160" class="fil3" cx="504.699" cy="-61.3441" rx="2.92155" ry="2.84612"/>
    <ellipse id="_384433080" class="fil3" cx="498.023" cy="-52.0279" rx="2.07753" ry="2.02389"/>
   </g>
   <g>
    <ellipse id="_384432960" class="fil15" cx="507.385" cy="-76.929" rx="2.94335" ry="2.07335"/>
    <g>
     <ellipse id="_384433488" class="fil15" cx="482.418" cy="-53.984" rx="2.42633" ry="3.41848"/>
     <ellipse id="_384433056" class="fil15" cx="495.302" cy="-37.6077" rx="2.42633" ry="2.41126"/>
     <ellipse id="_384432912" class="fil15" cx="519.546" cy="-69.121" rx="1.65895" ry="1.64865"/>
     <ellipse id="_384433224" class="fil15" cx="521.915" cy="-58.5912" rx="1.65895" ry="1.64865"/>
     <ellipse id="_384433560" class="fil15" cx="520.666" cy="-44.7563" rx="2.87219" ry="2.85435"/>
    </g>
   </g>
   <ellipse id="_384433584" class="fil17 str3" cx="501.783" cy="-57.0971" rx="23.5369" ry="22.9292"/>
   <ellipse id="_384433608" class="fil3 str3" cx="501.783" cy="-57.0971" rx="17.271" ry="16.825"/>
   <ellipse id="_384433152" class="fil18 str3" cx="501.783" cy="-57.0973" rx="11.2223" ry="10.9325"/>
   <ellipse id="_384433440" class="fil6 str3" cx="501.783" cy="-57.0971" rx="8.244" ry="8.03114"/>
   <g>
    <ellipse id="_384432792" class="fil3" cx="504.699" cy="-61.3441" rx="2.92155" ry="2.84612"/>
    <ellipse id="_384432768" class="fil3" cx="498.023" cy="-52.0279" rx="2.07753" ry="2.02389"/>
   </g>
   <g>
    <ellipse id="_384432600" class="fil15" cx="507.385" cy="-76.929" rx="2.94335" ry="2.07335"/>
    <g>
     <ellipse id="_384432504" class="fil15" cx="482.418" cy="-53.984" rx="2.42633" ry="3.41848"/>
     <ellipse id="_384432576" class="fil15" cx="495.302" cy="-37.6077" rx="2.42633" ry="2.41126"/>
     <ellipse id="_384432168" class="fil15" cx="519.546" cy="-69.121" rx="1.65895" ry="1.64865"/>
     <ellipse id="_384432216" class="fil15" cx="521.915" cy="-58.5912" rx="1.65895" ry="1.64865"/>
     <ellipse id="_384432624" class="fil15" cx="520.666" cy="-44.7563" rx="2.87219" ry="2.85435"/>
    </g>
   </g>
  </g>
  <path class="fil2 str7" d="M-65.8295 29.9946c18.9844,0.2164 34.7236,-7.5525 37.508,-17.5662"/>
  <g id="_384431784">
   <path id="_384431544" class="fil14 str3" d="M-118.677 9.8831c23.8084,15.9837 52.4318,14.646 78.648,2.4076 9.9646,-5.3502 12.5728,-2.9427 9.2291,7.8246 -15.0474,37.9196 -81.6575,39.1234 -98.7113,0 -2.9091,-10.4331 -0.1669,-14.7799 10.8342,-10.2322z"/>
   <path id="_384431808" class="fil2 str2" d="M-43.8554 18.6299c3.1103,0.6222 4.6374,3.5063 4.5812,8.6535"/>
   <path id="_384431976" class="fil2 str2" d="M-114.883 18.6299c-3.1103,0.6222 -4.6374,3.5063 -4.5812,8.6535"/>
   <polygon id="_384431736" class="fil3" points="-106.568,30.347 -106.368,39.7528 -97.1652,42.3721 -95.5409,33.5214 "/>
   <path id="_384431376" class="fil2 str2" d="M-118.706 22.0173c23.1496,19.207 57.6923,17.0992 78.6727,0"/>
   <polygon id="_384431832" class="fil3" points="-53.1589,30.5731 -53.3589,39.9788 -62.5615,42.5981 -64.1858,33.7475 "/>
  </g>
  <g id="_384429936">
   <ellipse id="_384430656" class="fil14" cx="337.692" cy="-55.9962" rx="22.7381" ry="30.0509"/>
   <ellipse id="_384430680" class="fil3" cx="338.89" cy="-55.9233" rx="17.884" ry="22.1255"/>
   <ellipse id="_384431304" class="fil19" cx="338.39" cy="-56.5424" rx="11.8588" ry="14.6713"/>
   <ellipse id="_384431184" class="fil6" cx="338.559" cy="-56.3323" rx="8.06964" ry="9.98351"/>
   <ellipse id="_384430944" class="fil2" cx="341.798" cy="-62.1088" rx="3.04645" ry="3.9512"/>
   <ellipse id="_384431232" class="fil3" cx="334.595" cy="-50.54" rx="1.61709" ry="2.09734"/>
   <path id="_384430560" class="fil13" d="M321.087 -58.0333c-0.4337,-16.4567 18.4685,-27.9141 29.7028,-14.4055 -9.2882,8.6844 -19.2262,13.2511 -29.7028,14.4055z"/>
   <ellipse id="_384430776" class="fil2" cx="341.798" cy="-62.1088" rx="3.04645" ry="3.9512"/>
   <ellipse id="_384431064" class="fil3" cx="341.798" cy="-62.1088" rx="3.04645" ry="3.9512"/>
   <ellipse id="_384430896" class="fil14" cx="385.215" cy="-55.9962" rx="22.7381" ry="30.0509"/>
   <ellipse id="_384430848" class="fil3" cx="384.017" cy="-55.9233" rx="17.884" ry="22.1255"/>
   <ellipse id="_384430032" class="fil19" cx="384.517" cy="-56.5424" rx="11.8588" ry="14.6713"/>
   <ellipse id="_384430536" class="fil6" cx="384.348" cy="-56.3323" rx="8.06964" ry="9.98351"/>
   <ellipse id="_384429984" class="fil2" cx="381.109" cy="-62.1088" rx="3.04645" ry="3.9512"/>
   <ellipse id="_384430392" class="fil3" cx="388.312" cy="-50.54" rx="1.61709" ry="2.09734"/>
   <path id="_384430344" class="fil13" d="M401.82 -58.0333c0.4338,-16.4567 -18.4685,-27.9141 -29.7028,-14.4055 9.2882,8.6844 19.2262,13.2511 29.7028,14.4055z"/>
   <ellipse id="_384430248" class="fil2" cx="381.109" cy="-62.1088" rx="3.04645" ry="3.9512"/>
   <ellipse id="_384430272" class="fil3" cx="381.109" cy="-62.1088" rx="3.04645" ry="3.9512"/>
  </g>
  <path class="fil6" d="M421.008 -240.314l-19.0972 -0.2663 21.9399 -7.8068c14.8379,-4.4277 15.7638,0.7429 27.043,9.066 6.5678,4.8845 13.7236,8.3777 22.0512,6.5829 -1.4258,3.389 -4.5132,6.5562 -9.2623,9.5023 -0.9789,20.4272 -11.0256,28.1079 -27.6441,29.2369 -18.2355,0.3057 -31.2193,-21.8135 -15.0305,-46.315z"/>
  <path class="fil8" d="M433.43 -241.153l6.6144 5.6571 16.3621 14.0122 4.5256 0.1741c-0.8254,12.5045 -6.0761,22.1071 -21.0618,25.3263 -13.6022,0.5112 -22.3416,-7.3868 -21.845,-20.6266 -0.9992,-13.1183 6.8288,-19.132 15.4047,-24.5431z"/>
  <path class="fil19 str8" d="M-748.65 -177.612c14.8335,4.8477 36.3454,5.6503 56.1168,0.6454 0.6727,16.7458 -3.8875,27.0979 -26.1449,27.96 -22.3431,-0.8021 -34.3866,-13.7423 -29.9719,-28.6054z"/>
  <path class="fil2 str0" d="M-746.023 -166.576c1.7394,-1.539 2.7188,-3.2471 3.0687,-5.0952"/>
  <path class="fil2 str9" d="M-696.187 -167.268c-1.7394,-1.539 -2.7188,-3.2471 -3.0687,-5.0952"/>
  <path class="fil2 str0" d="M-743.731 -169.431c19.7354,7.8493 35.0713,8.0575 45.5754,-0.1269"/>
  <polygon class="fil11 str10" points="-735.795,-166.614 -738.994,-160.394 -731.523,-157.479 -729.47,-164.923 "/>
  <polygon class="fil11 str10" points="-727.246,-164.465 -729.246,-158.117 -721.138,-157.023 -720.689,-163.6 "/>
  <polygon class="fil11 str10" points="-703.358,-165.804 -700.306,-159.511 -707.843,-156.772 -709.721,-164.262 "/>
  <polygon class="fil11 str10" points="-711.956,-163.856 -710.105,-157.463 -718.236,-156.56 -718.531,-163.145 "/>
  <path class="fil3 str11" d="M275.422 106.778c18.3959,0 33.3141,14.918 33.3141,33.3137 0,18.3959 -14.9182,33.3141 -33.3141,33.3141 -18.3955,0 -33.3137,-14.9182 -33.3137,-33.3141 0,-18.3957 14.9182,-33.3137 33.3137,-33.3137z"/>
  <path class="fil18" d="M245.024 153.738c-14.4096,-33.0637 30.1792,-68.5941 58.6026,-31.382 -24.9592,2.8023 -47.2591,9.3588 -58.6026,31.382z"/>
  <circle class="fil6 str3" cx="271.87" cy="143.036" r="15.4984"/>
  <path class="fil3 str3" d="M266.552 136.892l-1.1884 4.8482c-0.1006,-0.0252 -0.203,-0.0534 -0.3025,-0.0845 -2.6304,-0.8231 -4.0962,-3.624 -3.2729,-6.2545 0.8232,-2.6305 3.6241,-4.0963 6.2546,-3.2731 0.9044,0.283 1.7104,0.8187 2.3219,1.5421l-3.8127 3.2218z"/>
  <path class="fil19 str8" d="M-829.132 -166.326c-5.4336,-2.8501 -8.5218,-1.7631 -7.4292,6.342 2.6572,7.7677 8.7475,13.363 26.3369,11.6817 9.0485,-1.9103 19.7009,-3.1353 21.5603,-13.0709 -0.5789,-8.9797 -4.3137,-10.6909 -10.2076,-7.4292 -10.7765,9.2527 -20.1284,10.7803 -30.2604,2.4764z"/>
  <path class="fil2 str9" d="M-832.239 -163.247c5.9586,6.9802 13.2691,11.2426 22.3307,9.9199 7.1162,-3.9701 11.7483,-5.4558 15.2513,-5.8121 1.1568,-1.8742 1.3137,-3.2819 0.7866,-4.37"/>
  <polygon class="fil3 str10" points="-826.271,-157.606 -826.244,-148.746 -818.699,-153.84 "/>
  <polygon class="fil3 str10" points="-806.332,-155.222 -799.511,-149.925 -798.454,-158.394 "/>
  <path class="fil11 str12" d="M94.474 -231.869c11.9325,0 21.4654,9.6765 21.6091,21.6088 0.1438,11.9323 -9.6766,21.6091 -21.6091,21.6091 -11.9321,0 -21.6088,-9.6767 -21.6088,-21.6091 0,-11.9323 9.6767,-21.6088 21.6088,-21.6088z"/>
  <path class="fil5" d="M72.908 -208.892c-0.8188,-26.0975 38.0029,-33.2822 43.0759,-3.4548 -4.325,-10.2641 -28.1819,-18.833 -43.0759,3.4548z"/>
  <circle class="fil6 str3" cx="101.511" cy="-207.976" r="9.53218"/>
  <path class="fil3 str3" d="M98.2399 -211.755l-0.7309 2.9819c-0.062,-0.0154 -0.1249,-0.0327 -0.1862,-0.0518 -1.6178,-0.5063 -2.5193,-2.2291 -2.013,-3.847 0.5063,-1.6178 2.2292,-2.5193 3.847,-2.013 0.5561,0.1742 1.052,0.5036 1.4281,0.9486l-2.345 1.9813z"/>
  <path class="fil11 str12" d="M135.323 -228.246c-10.7052,0 -19.2576,8.6813 -19.3866,19.3863 -0.1289,10.7051 8.6814,19.3866 19.3866,19.3866 10.7049,0 19.3863,-8.6814 19.3863,-19.3866 0,-10.705 -8.6814,-19.3863 -19.3863,-19.3863z"/>
  <path class="fil5" d="M154.671 -207.632c0.7345,-23.4133 -34.0943,-29.8591 -38.6455,-3.0995 3.8801,-9.2084 25.2833,-16.8959 38.6455,3.0995z"/>
  <circle class="fil6 str3" cx="134.495" cy="-205.545" r="8.02536"/>
  <path class="fil3 str3" d="M131.975 -207.458l-0.7979 3.2544c-0.0674,-0.017 -0.1361,-0.0359 -0.2029,-0.0568 -1.7658,-0.5526 -2.7494,-2.4326 -2.1968,-4.1984 0.5524,-1.7655 2.4324,-2.7494 4.1982,-2.1968 0.607,0.1899 1.1481,0.5497 1.5585,1.0351l-2.5591 2.1625z"/>
  <path class="fil11 str12" d="M54.4641 -228.671c10.1272,0 18.218,8.2126 18.34,18.3397 0.122,10.1271 -8.2128,18.3399 -18.34,18.3399 -10.127,0 -18.3397,-8.2127 -18.3397,-18.3399 0,-10.1271 8.2127,-18.3397 18.3397,-18.3397z"/>
  <path class="fil5" d="M36.1607 -209.17c-0.6949,-22.1493 32.2536,-28.2471 36.5591,-2.9322 -3.6707,-8.7113 -23.9184,-15.9837 -36.5591,2.9322z"/>
  <circle class="fil6 str3" cx="50.5103" cy="-208.977" r="8.0901"/>
  <path class="fil3 str3" d="M47.734 -211.475l-0.6204 3.2198c-0.0526,-0.0165 -0.1059,-0.0352 -0.1578,-0.0559 -1.3731,-0.5467 -2.1383,-2.407 -1.7084,-4.1541 0.4297,-1.7473 1.8917,-2.7207 3.2648,-2.174 0.472,0.1882 0.8928,0.544 1.212,1.0243l-1.9902 2.1399z"/>
  <path class="fil20 str13" d="M-308.701 -64.678c13.6955,4.328 28.2708,6.3958 44.0604,1.339 6.8388,-1.7801 12.7439,-1.0514 15.8543,7.1898 2.5601,4.8973 4.9015,11.0323 6.7632,19.8898 0.1223,6.6363 -2.2684,9.0047 -6.9378,13.0609 -29.3955,20.4174 -53.0248,13.9423 -75.0415,-2.1638 -4.9881,-5.2004 -6.2556,-10.8387 -4.9775,-16.7761l7.9272 -17.1448c2.2745,-4.3014 5.2858,-5.5172 12.3517,-5.3948z"/>
  <path class="fil5 str6" d="M-311.801 -41.6131l9.4844 3.1036 8.9945 4.2789 -2.0958 9.1691c-0.8456,3.9437 -4.3984,5.4421 -7.6016,5.4561 -7.8814,-1.732 -12.0539,-4.1899 -13.1818,-8.2505 -0.269,-6.0329 1.6424,-10.752 4.4003,-13.7572z"/>
  <line class="fil2 str6" x1="-302.317" y1="-38.5095" x2="-305.81" y2= "-27.0699" />
  <path class="fil2 str0" d="M-314.193 -47.504c-0.6715,2.9227 -0.1353,5.2132 3.0563,6.1127 6.0574,1.9385 12.0868,3.9828 17.7874,7.2795 2.1777,1.071 5.5416,2.4836 9.3977,2.1449 8.1872,-0.528 17.5107,-4.3086 26.6073,-15.6245"/>
  <path class="fil3 str6" d="M-274.539 -33.6734l11.2655 9.0539 -1.0001 -15.7581c-3.0545,2.6529 -6.5579,4.7949 -10.2654,6.7042z"/>
  <path class="fil11 str12" d="M252.642 -294.517c12.3655,2.4608 19.5765,18.6114 16.1029,36.0663 -3.4736,17.4552 -16.3184,29.615 -28.6839,27.1542 -12.3652,-2.4607 -19.5762,-18.6116 -16.1026,-36.0668 3.4736,-17.4549 16.3184,-29.6144 28.6836,-27.1537z"/>
  <path class="fil5" d="M223.342 -254.025c-3.4428,-33.3003 33.2384,-61.0492 45.3177,-21.9379 -17.3065,-0.6798 -33.5342,2.5584 -45.3177,21.9379z"/>
  <ellipse class="fil6 str3" transform="matrix(1.65004 0.231143 -0.49331 1.74499 251.941 -263.88)" rx="6.0345" ry="5.67"/>
  <path class="fil3 str3" d="M254.019 -268l1.7143 3.1263c0.063,-0.0262 0.1264,-0.0547 0.1874,-0.0848 1.6128,-0.7976 2.069,-2.8064 1.019,-4.4859 -1.05,-1.6795 -3.2095,-2.3947 -4.8223,-1.5971 -0.5545,0.2741 -0.9951,0.708 -1.2696,1.2486l3.1712 1.7929z"/>
  <path class="fil11 str12" d="M252.642 -294.517c12.3655,2.4608 19.5765,18.6114 16.1029,36.0663 -3.4736,17.4552 -16.3184,29.615 -28.6839,27.1542 -12.3652,-2.4607 -19.5762,-18.6116 -16.1026,-36.0668 3.4736,-17.4549 16.3184,-29.6144 28.6836,-27.1537z"/>
  <path class="fil5" d="M223.342 -254.025c-3.4428,-33.3003 33.2384,-61.0492 45.3177,-21.9379 -17.3065,-0.6798 -33.5342,2.5584 -45.3177,21.9379z"/>
  <ellipse class="fil6 str3" transform="matrix(1.65004 0.231143 -0.49331 1.74499 251.941 -263.88)" rx="6.0345" ry="5.67"/>
  <path class="fil3 str3" d="M254.019 -268l1.7143 3.1263c0.063,-0.0262 0.1264,-0.0547 0.1874,-0.0848 1.6128,-0.7976 2.069,-2.8064 1.019,-4.4859 -1.05,-1.6795 -3.2095,-2.3947 -4.8223,-1.5971 -0.5545,0.2741 -0.9951,0.708 -1.2696,1.2486l3.1712 1.7929z"/>
  <path class="fil11 str12" d="M280.107 -284.86c9.8757,-3.2535 21.334,6.3133 25.5878,21.3638 4.2538,15.0508 -0.3052,29.8947 -10.1809,33.1482 -9.8754,3.2534 -21.3338,-6.3136 -25.5876,-21.3644 -4.2538,-15.0505 0.3053,-29.8942 10.1807,-33.1476z"/>
  <path class="fil5" d="M274.647 -241.063c-15.3812,-24.5028 0.3398,-61.4582 24.2035,-36.0398 -12.7511,6.707 -23.2065,16.0151 -24.2035,36.0398z"/>
  <ellipse class="fil6 str3" transform="matrix(1.28014 -0.509878 0.319866 1.56569 291.466 -260.699)" rx="6.0345" ry="5.67"/>
  <path class="fil3 str3" d="M291.37 -264.777l2.4479 1.7187c0.0353,-0.0469 0.07,-0.0955 0.1023,-0.1445 0.8549,-1.2957 0.4061,-3.0515 -1.0021,-3.9207 -1.4081,-0.8693 -3.2433,-0.5236 -4.0981,0.7722 -0.2939,0.4454 -0.4439,0.9676 -0.4325,1.5035l2.9825 0.0708z"/>
  <path class="fil11 str12" d="M280.107 -284.86c9.8757,-3.2535 21.334,6.3133 25.5878,21.3638 4.2538,15.0508 -0.3052,29.8947 -10.1809,33.1482 -9.8754,3.2534 -21.3338,-6.3136 -25.5876,-21.3644 -4.2538,-15.0505 0.3053,-29.8942 10.1807,-33.1476z"/>
  <path class="fil5" d="M274.647 -241.063c-15.3812,-24.5028 0.3398,-61.4582 24.2035,-36.0398 -12.7511,6.707 -23.2065,16.0151 -24.2035,36.0398z"/>
  <ellipse class="fil6 str3" transform="matrix(1.28014 -0.509878 0.319866 1.56569 291.466 -260.699)" rx="6.0345" ry="5.67"/>
  <path class="fil3 str3" d="M291.37 -264.777l2.4479 1.7187c0.0353,-0.0469 0.07,-0.0955 0.1023,-0.1445 0.8549,-1.2957 0.4061,-3.0515 -1.0021,-3.9207 -1.4081,-0.8693 -3.2433,-0.5236 -4.0981,0.7722 -0.2939,0.4454 -0.4439,0.9676 -0.4325,1.5035l2.9825 0.0708z"/>
  <path class="fil21 str9" d="M-372.263 -139.33c-8.0102,-2.2685 -9.0071,0.3613 -6.0701,5.739 1.4767,5.7202 0.6625,10.9237 -1.2205,16.0224 -1.985,4.6975 -0.8424,7.7444 3.4278,9.1409 28.2762,11.928 56.2905,9.4777 82.774,-3.8628 2.816,-2.0051 4.6917,-4.3343 3.2103,-7.8211 -2.1555,-3.024 -3.7175,-10.0282 -2.7643,-14.5321 0.1128,-6.786 -3.0769,-6.9485 -6.4131,-5.01 -25.7938,8.0589 -49.2112,8.7478 -72.9441,0.3237z"/>
  <path class="fil2 str0" d="M73.7009 145.684c0.8592,2.1264 5.117,5.9448 12.0219,8.6535 20.9106,4.2686 41.0981,1.8682 62.3187,-7.4919"/>
  <path class="fil3 str6" d="M84.0284 153.629l0.9841 -10.5008c3.8848,1.4207 8.1683,2.2448 12.9324,2.3476l-3.3255 10.2797c-5.0507,-0.6027 -8.1704,-1.3401 -10.591,-2.1265z"/>
  <path class="fil3 str6" d="M139.559 149.753l-2.3615 -10.279c-3.6633,1.9211 -7.8006,3.3032 -12.5094,4.0339l4.6531 9.7509c4.9271,-1.264 7.9221,-2.4068 10.2178,-3.5058z"/>
  <circle class="fil3 str14" cx="570.083" cy="150.192" r="17.9056"/>
  <circle class="fil6 str3" cx="578.201" cy="149.432" r="6.62225"/>
  <circle class="fil3 str3" cx="575.732" cy="150.302" r="1.94449"/>
  <circle class="fil3 str14" cx="608.548" cy="150.541" r="15.0963"/>
  <circle class="fil6 str3" cx="604.249" cy="149.219" r="7.28149"/>
  <circle class="fil3 str3" cx="602.048" cy="150.725" r="2.13807"/>
  <ellipse class="fil22 str3" cx="342.923" cy="275.821" rx="15.5397" ry="13.597"/>
  <ellipse class="fil6 str3" cx="342.73" cy="275.388" rx="9.00366" ry="7.87804"/>
  <ellipse class="fil3 str3" cx="343.886" cy="278.892" rx="3.51054" ry="3.07167"/>
  <ellipse class="fil22 str3" cx="281.745" cy="276.755" rx="9.96778" ry="8.72163"/>
  <ellipse class="fil6 str3" cx="281.869" cy="276.477" rx="5.77529" ry="5.05328"/>
  <ellipse class="fil3 str3" cx="281.127" cy="278.724" rx="2.2518" ry="1.97028"/>
  <ellipse class="fil23" cx="222.997" cy="-126.866" rx="21.7781" ry="21.778"/>
  <ellipse class="fil6" cx="223.108" cy="-126.977" rx="18.427" ry="18.427"/>
  <ellipse class="fil23" cx="223.108" cy="-126.977" rx="14.1814" ry="14.1814"/>
  <g id="_384422688">
   <circle id="_384422568" class="fil3" cx="219.597" cy="-130.489" r="2.38141"/>
   <circle id="_384422544" class="fil3" cx="226.62" cy="-130.489" r="2.38141"/>
   <circle id="_384422304" class="fil3" cx="219.597" cy="-123.466" r="2.38141"/>
   <circle id="_384422352" class="fil3" cx="226.62" cy="-123.466" r="2.38141"/>
  </g>
  <g id="_384422736">
   <line id="_384422232" class="fil2 str15" x1="219.34" y1="-130.475" x2="226.748" y2= "-123.391" />
   <line id="_384422496" class="fil2 str15" x1="219.502" y1="-123.229" x2="226.586" y2= "-130.637" />
  </g>
  <ellipse class="fil23" cx="278.115" cy="-126.866" rx="21.7781" ry="21.778"/>
  <ellipse class="fil6" cx="278.226" cy="-126.977" rx="18.427" ry="18.427"/>
  <ellipse class="fil23" cx="278.226" cy="-126.977" rx="14.1814" ry="14.1814"/>
  <g id="_226176296">
   <circle id="_384422616" class="fil3" cx="274.714" cy="-130.489" r="2.38141"/>
   <circle id="_456818080" class="fil3" cx="281.738" cy="-130.489" r="2.38141"/>
   <circle id="_226487720" class="fil3" cx="274.714" cy="-123.466" r="2.38141"/>
   <circle id="_226176392" class="fil3" cx="281.738" cy="-123.466" r="2.38141"/>
  </g>
  <g id="_226252776">
   <line id="_226466240" class="fil2 str15" x1="274.458" y1="-130.475" x2="281.866" y2= "-123.391" />
   <line id="_226253064" class="fil2 str15" x1="274.62" y1="-123.229" x2="281.704" y2= "-130.637" />
  </g>
  <g id="_381828792">
   <path id="_226254432" class="fil24 str3" d="M24.9875 -94.6692l26.1234 4.139c-3.0962,7.2804 -8.2086,10.6988 -15.8986,9.1803 -9.0468,-3.2839 -13.0607,-9.9229 -10.2248,-13.3193z"/>
   <path id="_226253784" class="fil6 str3" d="M24.9875 -94.6692c-5.1186,6.5943 16.1561,24.1639 26.1234,4.139l-26.1234 -4.139zm27.1341 4.2991c-3.5216,15.7873 -26.9796,13.8246 -33.0788,-5.241l-12.4353 -1.9703 8.151 -10.0035 39.273 14.82 0.1235 2.717 -2.0334 -0.3222z"/>
   <path id="_226098984" class="fil6 str3" d="M32.3599 -93.5012c-2.0464,5.7042 10.0392,10.6671 11.425,1.8102l-11.425 -1.8102z"/>
   <ellipse id="_226098720" class="fil3 str3" cx="33.7162" cy="-92.1536" rx="1.1096" ry="1.0804"/>
   <path id="_226102320" class="fil24 str3" d="M91.6551 -94.6692l-26.1234 4.139c3.0962,7.2804 8.2086,10.6988 15.8986,9.1803 9.0468,-3.2839 13.0607,-9.9229 10.2248,-13.3193z"/>
   <path id="_226100424" class="fil6 str3" d="M91.6551 -94.6692c5.1186,6.5943 -16.1561,24.1639 -26.1234,4.139l26.1234 -4.139zm-27.1341 4.2991c3.5216,15.7873 26.9796,13.8246 33.0788,-5.241l12.4353 -1.9703 -8.151 -10.0035 -39.273 14.82 -0.1235 2.717 2.0334 -0.3222z"/>
   <path id="_381824184" class="fil6 str3" d="M84.2827 -93.5012c2.0464,5.7042 -10.0392,10.6671 -11.425,1.8102l11.425 -1.8102z"/>
   <ellipse id="_381828816" class="fil3 str3" cx="82.9264" cy="-92.1536" rx="1.1096" ry="1.0804"/>
  </g>
  <ellipse class="fil6" cx="443.282" cy="-223.43" rx="11.9566" ry="12.0234"/>
  <ellipse class="fil3" transform="matrix(0.486323 0 -0.136732 0.560832 437.213 -227.768)" rx="6.7972" ry="7.353"/>
  <path class="fil3" d="M426.261 -231.663c-3.4152,-0.2103 -12.6332,26.7279 3.6573,29.8213 -10.0722,-7.1139 -8.1246,-19.9809 -3.6573,-29.8213z"/>
  <path class="fil3" d="M438.739 -211.388c-1.4506,4.671 11.0819,3.1334 13.8381,-1.2184 -5.2484,2.6713 -9.7862,2.8112 -13.8381,1.2184z"/>
  <path class="fil3" d="M523.793 -231.663c3.4152,-0.2103 12.6332,26.7279 -3.6573,29.8213 10.0722,-7.1139 8.1246,-19.9809 3.6573,-29.8213z"/>
  <path class="fil6 str3" d="M67.2526 -379.916c31.5948,11.6512 61.9493,10.5479 90.7449,-6.5996 -4.2936,11.9616 -10.4559,23.6357 -19.9489,34.7981l-21.7488 13.3492c-28.5595,2.1764 -39.7832,-18.4 -49.0472,-41.5477z"/>
  <path class="fil3 str3" d="M82.4417 -375.288l1.3757 8.879c1.3236,4.7782 4.797,5.1836 6.5947,0.7026l2.4296 -7.5866 -10.4 -1.995z"/>
  <path class="fil3 str3" d="M144.202 -379.777l-2.1519 9.5971c-1.4018,3.9078 -3.0663,5.2275 -5.2547,1.3839l-2.3851 -6.9482 9.7917 -4.0328z"/>
  <path class="fil5" d="M104.315 -338.902c6.8638,-10.7495 23.9086,-17.8126 40.9356,-11.2064 12.8648,6.5179 26.1596,-7.7668 17.3255,10.3984 -4.9569,6.912 -13.1057,8.2729 -22.7049,7.1107 -11.677,-4.1978 -16.8384,-7.4178 -22.8964,-6.1835 -4.3954,0.8989 -8.5765,0.6506 -12.6598,-0.1192z"/>
  <path class="fil3 str0" d="M558.977 54.5622c-25.1001,28.9267 18.7072,51.8049 33.3324,22.2216l-33.3324 -22.2216z"/>
  <path class="fil6 str3" d="M569.572 61.9735c-11.2352,12.948 8.3735,23.1886 14.92,9.9467l-14.92 -9.9467z"/>
  <circle class="fil3 str3" cx="578.139" cy="70.7079" r="2.10593"/>
  <path class="fil6 str16" d="M-347.48 -180.991c13.0652,-4.5227 25.457,-4.3371 40.4147,1.5455 6.1278,2.5946 12.4107,1.6285 18.8004,-1.7736 16.63,-6.3199 31.2882,-1.8805 45.0499,7.4492 -11.4942,-1.9636 -23.4778,-0.6663 -36.5366,7.8039 -6.6595,3.963 -17.5887,3.9577 -26.7249,3.8473l-19.0344 -0.3001c-18.7522,-2.9999 -20.7933,-9.9607 -21.9691,-18.5722z"/>
  <polygon class="fil3 str3" points="-339.869,-183.097 -340.652,-176.539 -330.58,-175.952 -330.097,-184.145 "/>
  <polygon class="fil3 str3" points="-326.297,-184.037 -328.429,-176.636 -318.944,-174.192 -318.032,-182.844 "/>
  <polygon class="fil3 str3" points="-314.731,-182.025 -316.304,-172.627 -306.232,-172.041 -305.719,-178.933 "/>
  <path class="fil3 str3" d="M-303.761 -178.388l-0.6128 5.6633 9.026 -0.405 0.5671 -5.4985c-3.0766,0.7412 -6.0811,0.9094 -8.9803,0.2402z"/>
  <polygon class="fil3 str3" points="-291.644,-179.649 -282.269,-183.061 -281.688,-174.387 -291.662,-173.801 "/>
  <polygon class="fil3 str3" points="-277.091,-183.944 -276.701,-175.952 -266.238,-179.081 -268.682,-183.966 "/>
  <polygon class="fil3 str3" points="-292.834,-162.452 -293.227,-170.378 -285.404,-169.792 -286.541,-163.41 "/>
  <polygon class="fil3 str3" points="-299.189,-162.12 -297.627,-169.4 -305.743,-169.596 -305.654,-162.109 "/>
  <polygon class="fil3 str3" points="-310.144,-162.176 -310.143,-169.4 -318.259,-168.031 -316.984,-162.285 "/>
  <polygon class="fil3 str3" points="-320.215,-162.335 -323.148,-171.845 -330.384,-169.498 -327.535,-162.77 "/>
  <path class="fil3 str0" d="M645.63 54.5622c25.1001,28.9267 -18.7072,51.8049 -33.3325,22.2216l33.3325 -22.2216z"/>
  <path class="fil6 str3" d="M635.036 61.9735c11.2352,12.948 -8.3736,23.1886 -14.92,9.9467l14.92 -9.9467z"/>
  <circle class="fil3 str3" cx="626.468" cy="70.7079" r="2.10593"/>
 </g>
 <g id="ojos">
  <metadata id="CorelCorpID_3Corel-Layer"/>
  <g id="_456817696">
   <path id="_384424440" class="fil6 str6" d="M76.6911 -69.9619l-15.1581 0c-24.7779,7.8485 -45.8468,9.4295 -56.6623,-6.3159 0.0965,45.9499 24.4292,72.2969 69.9024,57.763l-2.7738 -15.5369 -1.4436 -7.94 -1.0827 -9.9249 7.2181 -18.0453z"/>
   <polygon id="_384424896" class="fil3 str3" points="76.6911,-69.9619 69.473,-51.9166 63.2856,-69.9619 "/>
   <polygon id="_384425112" class="fil3 str3" points="60.4342,-69.6174 52.9569,-50.6132 47.185,-65.043 "/>
   <polygon id="_384425040" class="fil3 str3" points="43.8452,-65.4413 27.3133,-64.3167 36.7045,-41.044 "/>
   <path id="_384425064" class="fil3 str3" d="M22.8672 -64.8916l-3.9342 14.886 -9.4866 -21.1128c3.5454,3.184 8.1284,5.1293 13.4208,6.2268z"/>
   <path id="_384424512" class="fil3 str3" d="M74.7731 -18.5148l-2.7738 -15.5369 -7.3466 16.8548 -5.3163 -15.493 -6.8105 18.3564 -3.8219 -18.5083c0,0 -10.4227,18.4218 -10.0719,17.4131 0.3507,-1.0087 -4.5098,-16.6536 -4.5098,-16.6536l-7.8984 10.3287c5.3876,7.6707 25.6778,10.1137 48.5492,3.2388z"/>
  </g>
  <g id="_382275896">
   <path id="_384425760" class="fil6 str6" d="M-265.748 -162.573c26.6988,20.2806 53.3973,19.8024 80.0967,0.4249 -4.1556,30.8676 -14.0331,53.0015 -39.7296,50.99 -25.9102,3.5082 -35.9999,-19.2101 -40.3671,-51.4149z"/>
   <path id="_384425232" class="fil5 str6" d="M-226.868 -122.631c-9.2166,-4.9857 -24.4768,-0.3325 -15.7219,14.6596 -3.2477,21.4857 1.4343,32.8392 13.0792,29.1209 23.5399,-2.9326 25.105,-14.117 25.063,-37.8773 -2.8303,-10.353 -12.1422,-9.8746 -22.4203,-5.9032z"/>
   <path id="_384425256" class="fil2 str6" d="M-223.275 -118.251c3.9964,8.1223 3.4505,18.9076 -0.8592,31.8996"/>
   <path id="_384425448" class="fil3 str3" d="M-257.977 -157.255l8.8512 22.0194 8.0239 -14.4586c-5.5086,-1.165 -11.1475,-3.8448 -16.8751,-7.5608z"/>
   <path id="_384425616" class="fil3 str3" d="M-192.827 -157.589l-8.8511 22.0194 -8.024 -14.4586c5.5086,-1.165 11.1476,-3.8448 16.8751,-7.5608z"/>
  </g>
  <g id="_382269176">
   <path id="_384432816" class="fil25" d="M-226.292 -36.6035c11.2985,1.8287 21.0622,2.5075 25.3461,-0.9183 7.8358,-3.1199 15.2061,-4.9664 19.3188,2.099 1.5757,5.4722 1.1653,13.0133 -6.3366,27.9428 -1.1063,4.5297 -4.7515,3.7947 -1.0818,18.235 4.7908,8.4831 4.43,13.2933 -1.0819,14.4305 -13.6525,-0.1409 -23.3631,-1.1191 -43.8692,-0.4185 -8.0658,0.8155 -5.6311,-3.3669 -3.3631,-10.507 0.7313,-19.2273 -2.4815,-22.6872 -4.9695,-30.6554 -5.0661,-16.0228 1.6208,-23.8023 16.0372,-20.2081z"/>
   <path id="_384431760" class="fil26" d="M-224.445 -30.5373c10.3908,2.9423 19.4816,2.7865 26.8983,-1.3598 2.994,-1.4767 6.1242,-0.6125 9.4192,3.0773 0.1072,7.7854 -1.5496,15.0544 -5.5475,21.6384 -2.2645,3.9665 -3.2058,8.138 -1.2356,12.7608 1.06,5.6228 0.0958,10.1225 -2.3081,10.3925 -0.7823,1.7479 -10.9795,-0.4567 -31.6715,1.0572 -3.7843,-1.369 -3.673,-5.0001 -2.4712,-9.2647 0.393,-11.248 -1.8457,-18.9854 -4.8216,-25.7393 -2.5468,-9.2046 2.4732,-12.532 11.738,-12.5624z"/>
   <path id="_384431688" class="fil6" d="M-227.561 -1.3304c0.0538,-5.1029 1.4293,-9.48 10.998,-6.3941 1.5231,0.6609 2.0923,1.9965 2.0088,3.7938 -1.2911,3.6891 -1.6438,6.5316 1.3559,6.3515 2.3918,-0.0684 3.7571,-1.2327 1.4563,-6.3089 0.2009,-2.7707 2.7453,-4.3906 4.821,-4.0922 5.7723,-0.398 8.2652,0.3623 9.4914,6.6073l-0.8208 6.9591 -14.8475 7.4489 -14.2622 -7.545 -0.2009 -6.8204z"/>
   <path id="_384431472" class="fil8" d="M-227.942 18.4963c-9.3685,-12.9041 7.0978,-23.4907 14.6032,-10.3818 4.9587,-5.1833 19.0611,-3.3054 18.8425,1.0604 0.632,10.0091 -9.396,9.3695 -13.1862,20.7905 -5.0131,11.6569 -11.1967,14.869 -13.2173,4.8058 -2.0353,-10.1577 -1.6314,-9.1024 -7.0422,-16.2749z"/>
   <path id="_384431952" class="fil3" d="M-235.669 -26.7739c4.9869,3.7995 9.281,4.2464 12.0516,-2.6809 -0.4642,5.3091 10.8253,6.0027 11.3867,1.4816 6.4436,3.7823 10.5857,2.0028 12.5956,-2.3553 2.9871,5.2361 8.0489,4.716 11.5076,1.5087 -5.7474,-7.0821 -10.8921,-2.0407 -11.2205,-1.9754 -4.1833,1.3507 -8.3671,2.5535 -12.5503,2.0107 -3.8166,0.3002 -7.7644,-0.4054 -11.8022,-1.7991 -5.1535,0.2821 -9.4754,1.2699 -11.9685,3.8097z"/>
  </g>
  <g id="_382263392">
   <path id="_384424344" class="fil6 str0" d="M-137.487 -79.4734c-0.3458,12.3808 2.6227,22.5081 12.884,27.6768 8.5357,4.0566 19.1734,3.5631 28.5104,3.8891l0 0.0043c9.3359,-0.3255 19.9718,0.1672 28.5061,-3.8889 10.2613,-5.1687 13.2298,-15.2961 12.884,-27.6768 5.8632,7.9504 9.6831,17.0157 6.2035,30.0627 -5.4258,12.3192 -17.8943,19.4583 -47.6105,18.3733l0 -0.0034c-29.6949,1.0792 -42.157,-6.0594 -47.5809,-18.3743 -3.4797,-13.0471 0.3402,-22.1123 6.2034,-30.0628z"/>
   <path id="_384424272" class="fil5 str3" d="M-71.7179 -38.1177c-1.9366,-6.1827 -25.7636,-9.5867 -31.2652,-0.1109 2.4665,-2.9124 1.4313,-3.9679 -0.1253,-4.4854 -17.3015,-2.2774 -29.4134,-2.762 -33.1355,3.1549 13.6527,13.0726 56.9664,11.0109 64.526,1.4414z"/>
   <path id="_384423936" class="fil3 str3" d="M-137.241 -72.1002l-4.1485 2.6532c-0.5165,3.5955 0.021,6.5134 2.877,7.9408l3.9637 -0.3642c-1.8326,-3.7101 -2.6738,-7.1017 -2.6922,-10.2298z"/>
   <path id="_384423816" class="fil3 str3" d="M-133.736 -60.3196l-2.5105 3.3759c-1.173,3.0435 3.237,7.7337 7.4814,6.3119l1.7668 -2.5452c-3.0748,-1.8977 -5.2706,-4.3082 -6.7377,-7.1426z"/>
   <path id="_384423840" class="fil3 str3" d="M-125.418 -52.2258l-0.4912 3.5104c-0.7021,1.5016 5.3394,5.0789 7.2666,2.6556l1.4553 -3.1789c-3.5932,-0.6971 -6.0686,-1.7873 -8.2307,-2.9871z"/>
   <path id="_384424320" class="fil3 str3" d="M-115.291 -48.851l0.3218 4.3368c-0.5069,1.7642 10.5932,2.9958 10.5613,0.0619l0.0435 -3.7146 -10.9266 -0.6841z"/>
   <path id="_384424176" class="fil3 str3" d="M-135.461 -38.8717l1.7565 -5.5601c2.1039,-2.1015 9.3715,0.9288 7.5207,3.6569l-1.973 5.9211c-2.5842,-0.6352 -5.0015,-2.0573 -7.3042,-4.0179z"/>
   <path id="_384423864" class="fil3 str3" d="M-123.686 -38.4804c0.4904,-3.4538 8.4525,-2.6846 8.2176,0.6407l-0.7511 5.9949c-3.458,-0.0337 -6.1782,-0.7371 -8.484,-1.8155l1.0175 -4.8201z"/>
   <path id="_384422904" class="fil3 str3" d="M-112.769 -37.1615c0.5056,-1.4492 7.5012,-1.819 7.8006,0.9414l-0.1514 5.2504c-2.7243,0.3787 -5.2575,0.0456 -7.7469,-0.4993l0.0977 -5.6925z"/>
   <polygon id="_384423624" class="fil3 str3" points="-100.78,-30.9326 -100.655,-38.015 -96.0852,-38.015 -96.0852,-38.0106 -91.5351,-38.0106 -91.4097,-30.9281 -96.1097,-31.0329 -96.1097,-31.0368 "/>
   <path id="_384423408" class="fil3 str3" d="M-54.9492 -72.0957l4.1486 2.6532c0.5164,3.5955 -0.0211,6.5134 -2.8771,7.9408l-3.9637 -0.3643c1.8327,-3.71 2.6738,-7.1017 2.6922,-10.2297z"/>
   <path id="_384423288" class="fil3 str3" d="M-58.4535 -60.3151l2.5105 3.3759c1.1729,3.0435 -3.2371,7.7337 -7.4815,6.3119l-1.7668 -2.5453c3.0748,-1.8977 5.2706,-4.3081 6.7378,-7.1425z"/>
   <path id="_384423240" class="fil3 str3" d="M-66.7717 -52.2214l0.4912 3.5105c0.7021,1.5016 -5.3394,5.0789 -7.2666,2.6556l-1.4552 -3.1789c3.5931,-0.6971 6.0686,-1.7873 8.2306,-2.9872z"/>
   <path id="_384423168" class="fil3 str3" d="M-76.899 -48.8466l-0.3218 4.3369c0.507,1.7641 -10.5932,2.9958 -10.5613,0.0619l-0.0434 -3.7146 10.9265 -0.6842z"/>
   <path id="_384422928" class="fil3 str3" d="M-56.7289 -38.8672l-1.7565 -5.5601c-2.1039,-2.1015 -9.3715,0.9288 -7.5207,3.6568l1.973 5.9212c2.6569,-1.0202 5.1063,-2.3391 7.3042,-4.0179z"/>
   <path id="_384423000" class="fil3 str3" d="M-68.5042 -38.4759c-0.4904,-3.4538 -8.4524,-2.6846 -8.2175,0.6407l0.751 5.9949c2.9145,-0.4324 5.7279,-1.0674 8.4841,-1.8155l-1.0176 -4.8201z"/>
   <path id="_384423216" class="fil3 str3" d="M-79.4208 -37.1571c-0.5056,-1.4492 -7.5012,-1.8189 -7.8006,0.9415l0.1514 5.2504c2.5827,-0.0532 5.165,-0.2297 7.7469,-0.4993l-0.0977 -5.6926z"/>
   <path id="_384423576" class="fil3 str3" d="M-90.2889 -48.0447l-0.2713 3.2903c-1.165,1.6293 -3.1788,1.923 -5.5408,1.7763l0 -0.0037c-2.3567,0.1449 -4.3658,-0.1506 -5.5287,-1.7771l-0.2713 -3.2902 5.8082 0.1416 0 0.0045 5.8039 -0.1417z"/>
  </g>
  <g id="_382261256">
   <path id="_384429432" class="fil11 str12" d="M260.881 43.9114c15.7084,0 28.4472,12.7386 28.4472,28.4468 0,15.7084 -12.7388,28.4472 -28.4472,28.4472 -15.708,0 -28.4468,-12.7388 -28.4468,-28.4472 0,-15.7082 12.7388,-28.4468 28.4468,-28.4468z"/>
   <path id="_384429288" class="fil5" d="M234.924 84.0111c-12.3045,-28.2333 25.7703,-58.573 50.0413,-26.7973 -21.313,2.393 -40.355,7.9915 -50.0413,26.7973z"/>
   <circle id="_384429192" class="fil6 str3" cx="264.243" cy="81.2676" r="13.2342"/>
   <path id="_384429408" class="fil3 str3" d="M259.701 76.0205l-1.0148 4.1398c-0.0859,-0.0213 -0.1731,-0.0453 -0.2582,-0.0721 -2.2461,-0.7029 -3.4978,-3.0947 -2.7949,-5.3409 0.703,-2.2461 3.0946,-3.4978 5.3409,-2.7947 0.7723,0.2416 1.4607,0.6991 1.9827,1.3167l-3.2557 2.7512z"/>
   <path id="_384429120" class="fil11 str12" d="M325.299 32.2332c-18.9093,0 -34.2438,15.3342 -34.2438,34.2433 0,18.9093 15.3345,34.2438 34.2438,34.2438 18.9087,0 34.2433,-15.3345 34.2433,-34.2438 0,-18.9091 -15.3346,-34.2433 -34.2433,-34.2433z"/>
   <path id="_384429624" class="fil5" d="M356.546 80.5039c14.8117,-33.9863 -31.0214,-70.5082 -60.238,-32.2577 25.6558,2.8805 48.5779,9.6199 60.238,32.2577z"/>
   <circle id="_384429072" class="fil6 str3" cx="321.252" cy="77.2013" r="15.9309"/>
   <path id="_384429576" class="fil3 str3" d="M315.785 70.8851l-1.2215 4.9835c-0.1034,-0.026 -0.2086,-0.0548 -0.3108,-0.0869 -2.7039,-0.8463 -4.2105,-3.7252 -3.3643,-6.4293 0.8463,-2.7038 3.7253,-4.2103 6.4293,-3.3642 0.9294,0.291 1.7582,0.8416 2.3865,1.5852l-3.9192 3.3117z"/>
  </g>
  <g id="_382274000">
   <path id="_384423096" class="fil3 str17" d="M214.434 -66.2518c-15.635,0 -28.3141,12.679 -28.3141,28.3137 0,15.6349 12.6791,28.314 28.3141,28.314 15.6345,0 28.3136,-12.6791 28.3136,-28.314 0,-15.6347 -12.6791,-28.3137 -28.3136,-28.3137z"/>
   <circle id="_384424392" class="fil27" cx="214.698" cy="-41.7218" r="14.8244"/>
   <path id="_384424008" class="fil28" d="M192.187 -52.4165c-18.7071,31.4745 25.8537,59.2978 45.9096,26.6894 -28.0614,13.7664 -44.3027,-0.1129 -45.9096,-26.6894z"/>
   <circle id="_384423744" class="fil6 str3" cx="214.793" cy="-41.5337" r="8.24256"/>
   <ellipse id="_384423912" class="fil3 str3" transform="matrix(0.345124 0.108006 -0.114949 0.367311 217.643 -43.9087)" rx="6.0345" ry="5.67"/>
  </g>
  <g id="_382271672">
   <circle id="_381265440" class="fil3 str2" cx="414.976" cy="208.533" r="25.7074"/>
   <circle id="_382275680" class="fil29" cx="417.472" cy="211.029" r="23.2117"/>
   <circle id="_382275392" class="fil6 str3" cx="418.946" cy="212.503" r="21.7374"/>
   <ellipse id="_382275248" class="fil3 str3" transform="matrix(0.659791 0.412613 -0.412613 0.659791 411.064 202.708)" rx="6.5209" ry="11.2245"/>
   <ellipse id="_382275320" class="fil3 str3" transform="matrix(0.239102 0.149527 -0.149527 0.239102 404.787 218.208)" rx="6.5209" ry="11.2245"/>
   <path id="_382274888" class="fil6 str3" d="M391.504 198.037c-5.3645,-1.185 -7.7736,-4.3922 -8.8396,-8.5187 3.0657,1.9678 6.6971,3.4407 11.5727,3.8246l-2.7331 4.6941z"/>
   <path id="_382275152" class="fil6 str3" d="M396.854 189.949c-4.3077,-2.5303 -5.4916,-5.9805 -5.2557,-9.849 2.0996,2.5624 4.8274,4.8554 8.9371,6.5556l-3.6814 3.2934z"/>
   <path id="_382275272" class="fil6 str3" d="M407.124 184.048c-3.2047,-3.8327 -4.0023,-6.6908 -2.478,-10.2542 0.2045,4.1125 3.939,6.9064 8.4067,8.6142l-5.9287 1.64z"/>
   <path id="_382274840" class="fil6 str3" d="M394.742 169.457c-2.3169,1.8187 -1.3886,3.3633 0.9272,2.241 4.044,-2.3183 8.6031,-3.4001 13.6775,-3.2455 2.6024,-0.777 3.1392,-3.622 0.0773,-4.3274 -5.0872,-0.4443 -10.007,1.0368 -14.682,5.3319z"/>
   <circle id="_382275440" class="fil3 str2" cx="473.599" cy="208.533" r="25.7074"/>
   <circle id="_382275416" class="fil29" cx="471.103" cy="211.029" r="23.2117"/>
   <circle id="_382274264" class="fil6 str3" cx="469.629" cy="212.503" r="21.7374"/>
   <ellipse id="_382274168" class="fil3 str3" transform="matrix(0.659791 0.412613 -0.412613 0.659791 461.969 200.731)" rx="6.5209" ry="11.2245"/>
   <ellipse id="_382274312" class="fil3 str3" transform="matrix(0.239102 0.149527 -0.149527 0.239102 455.692 216.232)" rx="6.5209" ry="11.2245"/>
   <path id="_382274576" class="fil6 str3" d="M481.451 184.048c3.2047,-3.8327 4.0023,-6.6908 2.478,-10.2542 -0.2045,4.1125 -3.939,6.9064 -8.4067,8.6142l5.9287 1.64z"/>
   <path id="_382274216" class="fil6 str3" d="M493.834 169.457c2.3169,1.8187 1.3885,3.3633 -0.9273,2.241 -4.0439,-2.3183 -8.603,-3.4001 -13.6774,-3.2455 -2.6025,-0.777 -3.1392,-3.622 -0.0773,-4.3274 5.0872,-0.4443 10.007,1.0368 14.682,5.3319z"/>
   <path id="_382274528" class="fil6 str3" d="M498.431 198.037c5.3646,-1.185 7.7737,-4.3922 8.8396,-8.5187 -3.0657,1.9678 -6.6971,3.4407 -11.5727,3.8246l2.7331 4.6941z"/>
   <path id="_382274408" class="fil6 str3" d="M493.081 189.949c4.3078,-2.5303 5.4917,-5.9805 5.2558,-9.849 -2.0997,2.5624 -4.8275,4.8554 -8.9372,6.5556l3.6814 3.2934z"/>
  </g>
  <g id="_382273496">
   <path id="_380865704" class="fil3 str0" d="M388.839 12.1024c10.4557,-19.7664 36.6107,-13.7452 44.8426,3.3354 4.1994,9.4504 5.5171,19.6212 4.4472,30.3892 -0.9891,5.9494 -5.436,11.0754 -11.3648,11.4263l-33.4778 -2.3466c-5.8622,-2.4406 -8.9814,-8.6789 -10.5621,-17.0476 0.3867,-9.1588 1.6057,-17.9994 6.1149,-25.7567z"/>
   <path id="_380865440" class="fil30 str3" d="M434.628 17.7024c3.4475,8.8045 4.4863,18.2117 3.5014,28.1246 -0.9891,5.9494 -5.436,11.0754 -11.3648,11.4263l-21.8566 -1.532c-6.0886,-4.398 -10.0575,-11.5945 -10.0575,-19.7256 0,-13.3858 10.756,-24.2415 24.0192,-24.2415 6.0294,0 11.5401,2.2436 15.7583,5.9482z"/>
   <ellipse id="_380864456" class="fil6 str3" cx="418.947" cy="36.0165" rx="15.7794" ry="15.9255"/>
   <path id="_380864840" class="fil31 str3" d="M426.084 21.4433c0.6893,-1.1556 1.3786,-1.7333 2.7574,-1.7333 1.5221,0 2.7573,1.0353 2.7573,2.311 0,2.3111 -2.7573,4.6223 -5.5147,6.9333 -2.7574,-2.311 -5.5147,-4.6222 -5.5147,-6.9333 0,-1.2757 1.2352,-2.311 2.7573,-2.311 1.3788,0 2.0681,0.5777 2.7574,1.7333zm1.1201 -1.3m3.5867 0.2438m-0.9155 5.1005m-7.5827 0m-0.9155 -5.1005m3.5867 -0.2438"/>
   <path id="_380864792" class="fil31 str3" d="M414.543 43.8605c0.5146,-0.8726 1.0291,-1.3089 2.0585,-1.3089 1.1362,0 2.0582,0.7819 2.0582,1.7453 0,1.7454 -2.0582,3.4908 -4.1167,5.2361 -2.0583,-1.7453 -4.1165,-3.4907 -4.1165,-5.2361 0,-0.9634 0.922,-1.7453 2.0582,-1.7453 1.0293,0 1.5438,0.4363 2.0583,1.3089zm0.8361 -0.9818m2.6775 0.1842m-0.6834 3.852m-5.6603 0m-0.6834 -3.852m2.6773 -0.1842"/>
   <path id="_381263208" class="fil31 str3" d="M408.17 38.8265c0.2854,-0.5194 0.5708,-0.779 1.1418,-0.779 0.6303,0 1.1417,0.4653 1.1417,1.0386 0,1.0386 -1.1417,2.0774 -2.2835,3.116 -1.1418,-1.0386 -2.2835,-2.0774 -2.2835,-3.116 0,-0.5733 0.5114,-1.0386 1.1417,-1.0386 0.571,0 0.8564,0.2596 1.1418,0.779zm0.4638 -0.5843m1.4852 0.1095m-0.3792 2.2924m-3.1398 0m-0.3791 -2.2924m1.4852 -0.1095"/>
   <path id="_381267072" class="fil3 str0" d="M498.408 12.1024c-10.4557,-19.7664 -36.6107,-13.7452 -44.8426,3.3354 -4.1994,9.4504 -5.5171,19.6212 -4.4472,30.3892 0.9891,5.9494 5.436,11.0754 11.3648,11.4263l33.4778 -2.3466c5.8622,-2.4406 8.9814,-8.6789 10.5621,-17.0476 -0.3867,-9.1588 -1.6057,-17.9994 -6.1149,-25.7567z"/>
   <path id="_381267000" class="fil30 str3" d="M452.62 17.7024c-3.4475,8.8045 -4.4863,18.2117 -3.5014,28.1246 0.9891,5.9494 5.436,11.0754 11.3648,11.4263l21.8566 -1.532c6.0886,-4.398 10.0575,-11.5945 10.0575,-19.7256 0,-13.3858 -10.756,-24.2415 -24.0192,-24.2415 -6.0294,0 -11.5401,2.2436 -15.7583,5.9482z"/>
   <ellipse id="_381267312" class="fil6 str3" cx="468.301" cy="36.0165" rx="15.7794" ry="15.9255"/>
   <path id="_381267240" class="fil31 str3" d="M461.163 21.4433c-0.6893,-1.1556 -1.3786,-1.7333 -2.7574,-1.7333 -1.5221,0 -2.7573,1.0353 -2.7573,2.311 0,2.3111 2.7573,4.6223 5.5147,6.9333 2.7574,-2.311 5.5147,-4.6222 5.5147,-6.9333 0,-1.2757 -1.2352,-2.311 -2.7573,-2.311 -1.3788,0 -2.0681,0.5777 -2.7574,1.7333zm-1.1201 -1.3m-3.5867 0.2438m0.9155 5.1005m7.5827 0m0.9155 -5.1005m-3.5867 -0.2438"/>
   <path id="_381266448" class="fil31 str3" d="M472.704 43.8605c-0.5146,-0.8726 -1.0291,-1.3089 -2.0585,-1.3089 -1.1362,0 -2.0582,0.7819 -2.0582,1.7453 0,1.7454 2.0582,3.4908 4.1167,5.2361 2.0583,-1.7453 4.1165,-3.4907 4.1165,-5.2361 0,-0.9634 -0.922,-1.7453 -2.0582,-1.7453 -1.0293,0 -1.5438,0.4363 -2.0583,1.3089zm-0.8361 -0.9818m-2.6775 0.1842m0.6834 3.852m5.6603 0m0.6834 -3.852m-2.6773 -0.1842"/>
   <path id="_381266424" class="fil31 str3" d="M479.077 38.8265c-0.2854,-0.5194 -0.5708,-0.779 -1.1418,-0.779 -0.6303,0 -1.1417,0.4653 -1.1417,1.0386 0,1.0386 1.1417,2.0774 2.2835,3.116 1.1418,-1.0386 2.2835,-2.0774 2.2835,-3.116 0,-0.5733 -0.5114,-1.0386 -1.1417,-1.0386 -0.571,0 -0.8564,0.2596 -1.1418,0.779zm-0.4638 -0.5843m-1.4852 0.1095m0.3792 2.2924m3.1398 0m0.3791 -2.2924m-1.4852 -0.1095"/>
  </g>
  <path class="fil6" d="M525.26 -240.314l19.0972 -0.2663 -21.9398 -7.8068c-14.838,-4.4277 -15.7639,0.7429 -27.043,9.066 -6.5679,4.8845 -13.7237,8.3777 -22.0513,6.5829 1.4258,3.389 4.5132,6.5562 9.2623,9.5023 0.9789,20.4272 11.0256,28.1079 27.6442,29.2369 18.2354,0.3057 31.2192,-21.8135 15.0304,-46.315z"/>
  <path class="fil8" d="M512.838 -241.153l-6.6144 5.6571 -16.3621 14.0122 -4.5256 0.1741c0.8254,12.5045 6.0761,22.1071 21.0618,25.3263 13.6022,0.5112 22.3416,-7.3868 21.8451,-20.6266 0.9991,-13.1183 -6.8289,-19.132 -15.4048,-24.5431z"/>
  <ellipse class="fil6" cx="502.986" cy="-223.43" rx="11.9566" ry="12.0234"/>
  <ellipse class="fil3" transform="matrix(-0.486323 0 0.136732 0.560832 509.055 -227.768)" rx="6.7972" ry="7.353"/>
  <path class="fil3" d="M520.007 -231.663c3.4152,-0.2103 12.6332,26.7279 -3.6573,29.8213 10.0722,-7.1139 8.1246,-19.9809 3.6573,-29.8213z"/>
  <path class="fil3" d="M507.529 -211.388c1.4506,4.671 -11.0819,3.1334 -13.8381,-1.2184 5.2484,2.6713 9.7862,2.8112 13.8381,1.2184z"/>
 </g>
</svg>
