<?xml version="1.0" encoding="UTF-8"?>
<!DOCTYPE svg PUBLIC "-//W3C//DTD SVG 1.1//EN" "http://www.w3.org/Graphics/SVG/1.1/DTD/svg11.dtd">
<!-- Creator: CorelDRAW -->
<svg xmlns="http://www.w3.org/2000/svg" xml:space="preserve" width="215.9mm" height="279.4mm" style="shape-rendering:geometricPrecision; text-rendering:geometricPrecision; image-rendering:optimizeQuality; fill-rule:evenodd; clip-rule:evenodd"
viewBox="0 0 215.9 279.4">
 <defs>
  <style type="text/css">
   <![CDATA[
    .fil0 {fill:#00923F}
    .fil2 {fill:#0A0B0C}
    .fil1 {fill:#4D4948}
    .fil3 {fill:#DD137B}
    .fil4 {fill:white}
   ]]>
  </style>
 </defs>
 <g id="cuerpo">
  <metadata id="CorelCorpID_0Corel-Layer"/>
  <path class="fil0" d="M96.8945 120.756c11.2985,1.8287 21.0622,2.5075 25.3461,-0.9183 7.8358,-3.1199 15.2061,-4.9664 19.3188,2.099 1.5757,5.4722 1.1653,13.0133 -6.3366,27.9428 -1.1063,4.5297 -4.7515,3.7947 -1.0818,18.235 4.7908,8.4831 4.43,13.2933 -1.0819,14.4305 -13.6525,-0.1409 -23.3631,-1.1191 -43.8692,-0.4185 -8.0658,0.8155 -5.6311,-3.3669 -3.3631,-10.507 0.7313,-19.2273 -2.4815,-22.6872 -4.9695,-30.6554 -5.0661,-16.0228 1.6208,-23.8023 16.0372,-20.2081z"/>
  <path class="fil1" d="M98.7413 126.823c10.3908,2.9423 19.4816,2.7865 26.8983,-1.3598 2.994,-1.4767 6.1242,-0.6125 9.4192,3.0773 0.1072,7.7854 -1.5496,15.0544 -5.5475,21.6384 -2.2645,3.9665 -3.2058,8.138 -1.2356,12.7608 1.06,5.6228 0.0958,10.1225 -2.3081,10.3925 -0.7823,1.7479 -10.9795,-0.4567 -31.6715,1.0572 -3.7843,-1.369 -3.673,-5.0001 -2.4712,-9.2647 0.393,-11.248 -1.8457,-18.9854 -4.8216,-25.7393 -2.5468,-9.2046 2.4732,-12.532 11.738,-12.5624z"/>
  <path class="fil2" d="M95.6261 156.029c0.0538,-5.1029 1.4293,-9.48 10.998,-6.3941 1.5231,0.6609 2.0923,1.9965 2.0088,3.7938 -1.2911,3.6891 -1.6438,6.5316 1.3559,6.3515 2.3918,-0.0684 3.7571,-1.2327 1.4563,-6.3089 0.2009,-2.7707 2.7453,-4.3906 4.821,-4.0922 5.7723,-0.398 8.2652,0.3623 9.4914,6.6073l-0.8208 6.9591 -14.8475 7.4489 -14.2622 -7.545 -0.2009 -6.8204z"/>
  <path class="fil3" d="M95.2448 175.856c-9.3685,-12.9041 7.0978,-23.4907 14.6032,-10.3818 4.9587,-5.1833 19.0611,-3.3054 18.8425,1.0604 0.632,10.0091 -9.396,9.3695 -13.1862,20.7905 -5.0131,11.6569 -11.1967,14.869 -13.2173,4.8058 -2.0353,-10.1577 -1.6314,-9.1024 -7.0422,-16.2749z"/>
  <path class="fil4" d="M87.5173 130.586c4.9869,3.7995 9.281,4.2464 12.0516,-2.6809 -0.4642,5.3091 10.8253,6.0027 11.3867,1.4816 6.4436,3.7823 10.5857,2.0028 12.5956,-2.3553 2.9871,5.2361 8.0489,4.716 11.5076,1.5087 -5.7474,-7.0821 -10.8921,-2.0407 -11.2205,-1.9754 -4.1833,1.3507 -8.3671,2.5535 -12.5503,2.0107 -3.8166,0.3002 -7.7644,-0.4054 -11.8022,-1.7991 -5.1535,0.2821 -9.4754,1.2699 -11.9685,3.8097z"/>
 </g>
</svg>
