<?xml version="1.0" encoding="UTF-8"?>
<!DOCTYPE svg PUBLIC "-//W3C//DTD SVG 1.1//EN" "http://www.w3.org/Graphics/SVG/1.1/DTD/svg11.dtd">
<!-- Creator: CorelDRAW -->
<svg xmlns="http://www.w3.org/2000/svg" xml:space="preserve" width="215.9mm" height="279.4mm" style="shape-rendering:geometricPrecision; text-rendering:geometricPrecision; image-rendering:optimizeQuality; fill-rule:evenodd; clip-rule:evenodd"
viewBox="0 0 215.9 279.4">
 <defs>
  <style type="text/css">
   <![CDATA[
    .str1 {stroke:#1F1A17;stroke-width:0.0762}
    .str0 {stroke:#1F1A17;stroke-width:0.7056}
    .fil2 {fill:none}
    .fil0 {fill:#0A0B0C}
    .fil3 {fill:white}
    .fil1 {fill:#66FF33}
   ]]>
  </style>
 </defs>
 <g id="cuerpo">
  <metadata id="CorelCorpID_0Corel-Layer"/>
  <path class="fil0 str0" d="M67.958 120.89c26.6988,20.2806 53.3973,19.8024 80.0967,0.4249 -4.1556,30.8676 -14.0331,53.0015 -39.7296,50.99 -25.9102,3.5082 -35.9999,-19.2101 -40.3671,-51.4149z"/>
  <path class="fil1 str0" d="M106.838 160.832c-9.2166,-4.9857 -24.4768,-0.3325 -15.7219,14.6596 -3.2477,21.4857 1.4343,32.8392 13.0792,29.1209 23.5399,-2.9326 25.105,-14.117 25.063,-37.8773 -2.8303,-10.353 -12.1422,-9.8746 -22.4203,-5.9032z"/>
  <path class="fil2 str0" d="M110.431 165.213c3.9964,8.1223 3.4505,18.9076 -0.8592,31.8996"/>
  <path class="fil3 str1" d="M75.7286 126.208l8.8512 22.0194 8.0239 -14.4586c-5.5086,-1.165 -11.1475,-3.8448 -16.8751,-7.5608z"/>
  <path class="fil3 str1" d="M140.879 125.874l-8.8511 22.0194 -8.024 -14.4586c5.5086,-1.165 11.1476,-3.8448 16.8751,-7.5608z"/>
 </g>
</svg>
