<?xml version="1.0" encoding="UTF-8"?>
<!DOCTYPE svg PUBLIC "-//W3C//DTD SVG 1.1//EN" "http://www.w3.org/Graphics/SVG/1.1/DTD/svg11.dtd">
<!-- Creator: CorelDRAW -->
<svg xmlns="http://www.w3.org/2000/svg" xml:space="preserve" width="215.9mm" height="279.4mm" style="shape-rendering:geometricPrecision; text-rendering:geometricPrecision; image-rendering:optimizeQuality; fill-rule:evenodd; clip-rule:evenodd"
viewBox="0 0 215.9 279.4">
 <defs>
  <style type="text/css">
   <![CDATA[
    .str1 {stroke:#1F1A17;stroke-width:0.0762}
    .str0 {stroke:#00CC00;stroke-width:0.0762}
    .str2 {stroke:#1F1A17;stroke-width:2.8222}
    .fil0 {fill:none}
    .fil2 {fill:white}
    .fil1 {fill:#E60094}
   ]]>
  </style>
 </defs>
 <g id="cuerpo">
  <metadata id="CorelCorpID_0Corel-Layer"/>
  <path class="fil0 str0" d="M122.347 141.957c18.9844,0.2164 34.7236,-7.5525 37.508,-17.5662"/>
  <g id="_384431784">
   <path id="_384431544" class="fil1 str1" d="M69.4992 121.846c23.8084,15.9837 52.4318,14.646 78.648,2.4076 9.9646,-5.3502 12.5728,-2.9427 9.2291,7.8246 -15.0474,37.9196 -81.6575,39.1234 -98.7113,0 -2.9091,-10.4331 -0.1669,-14.7799 10.8342,-10.2322z"/>
   <path id="_384431808" class="fil0 str2" d="M144.321 130.593c3.1103,0.6222 4.6374,3.5063 4.5812,8.6535"/>
   <path id="_384431976" class="fil0 str2" d="M73.2933 130.593c-3.1103,0.6222 -4.6374,3.5063 -4.5812,8.6535"/>
   <polygon id="_384431736" class="fil2" points="81.6086,142.31 81.8086,151.715 91.0111,154.335 92.6354,145.484 "/>
   <path id="_384431376" class="fil0 str2" d="M69.4708 133.98c23.1496,19.207 57.6923,17.0992 78.6727,0"/>
   <polygon id="_384431832" class="fil2" points="135.017,142.536 134.817,151.941 125.615,154.561 123.991,145.71 "/>
  </g>
 </g>
</svg>
