<?xml version="1.0" encoding="UTF-8"?>
<!DOCTYPE svg PUBLIC "-//W3C//DTD SVG 1.1//EN" "http://www.w3.org/Graphics/SVG/1.1/DTD/svg11.dtd">
<!-- Creator: CorelDRAW 2020 (64-Bit) -->
<svg xmlns="http://www.w3.org/2000/svg" xml:space="preserve" width="794.891mm" height="333.667mm" version="1.1" style="shape-rendering:geometricPrecision; text-rendering:geometricPrecision; image-rendering:optimizeQuality; fill-rule:evenodd; clip-rule:evenodd"
viewBox="0 0 80208.63 33668.77"
 xmlns:xlink="http://www.w3.org/1999/xlink"
 xmlns:xodm="http://www.corel.com/coreldraw/odm/2003">
 <defs>
  <style type="text/css">
   <![CDATA[
    .str4 {stroke:#373435;stroke-width:284.77;stroke-miterlimit:22.9256}
    .str1 {stroke:#FFCC29;stroke-width:284.77;stroke-miterlimit:22.9256}
    .str7 {stroke:#373435;stroke-width:569.55;stroke-miterlimit:22.9256}
    .str5 {stroke:#1F1A17;stroke-width:569.55;stroke-miterlimit:22.9256}
    .str2 {stroke:#373435;stroke-width:7.69;stroke-miterlimit:22.9256}
    .str6 {stroke:#1F1A17;stroke-width:7.69;stroke-miterlimit:22.9256}
    .str0 {stroke:#ED3237;stroke-width:284.77;stroke-linejoin:bevel;stroke-miterlimit:22.9256}
    .str3 {stroke:#521C78;stroke-width:569.55;stroke-miterlimit:22.9256;stroke-dasharray:569.549307 569.549307}
    .fil10 {fill:none}
    .fil2 {fill:none;fill-rule:nonzero}
    .fil4 {fill:#FEFEFE}
    .fil11 {fill:#606062}
    .fil9 {fill:#4B4B4D}
    .fil0 {fill:#FFCC29}
    .fil7 {fill:#ED3237}
    .fil12 {fill:#201E1E}
    .fil14 {fill:#0A0B0C}
    .fil13 {fill:white}
    .fil3 {fill:#0097CD}
    .fil5 {fill:#FFE90D}
    .fil6 {fill:#FFA946}
    .fil8 {fill:#9DE6D7}
    .fil1 {fill:#373435;fill-rule:nonzero}
   ]]>
  </style>
 </defs>
 <g id="Capa_x0020_1">
  <metadata id="CorelCorpID_0Corel-Layer"/>
  <polygon class="fil0 str0" points="14006.26,28205.6 5065.94,30571.05 12779.6,27458.38 9575.87,26694.32 13771.17,26301.18 12860.45,24906.98 15079.62,25085.42 13278.6,21561.88 16372.78,24518.72 16928.42,22562.21 17767.3,23987.9 19692.34,22127.21 18875.87,24465.67 23678.03,21451.2 19955.4,25170.28 23244.84,24371.14 21273.1,25636.7 24857.73,25511.17 19563.11,27108.73 22690.03,28870.03 19431.64,28665.23 20507.01,32877.97 17601.68,28690.95 14655.44,33595.44 15502.02,29664.6 13331.94,31552.39 14863.38,28793.55 11810.09,30131.57 "/>
  <path class="fil1" d="M26239.4 10506.95c-591.4,0 -1095.26,-306.77 -1507.32,-917.19 -416.32,-610.42 -625.55,-1349.18 -625.55,-2210.03l0 -3916.06c0,-860.84 209.23,-1599.6 625.55,-2210.02 416.32,-610.42 920.19,-917.19 1507.32,-917.19l5604.41 0 0 2347.75 -5072.79 0c-145.18,0 -271.15,75.13 -375.76,228.52 -104.62,153.39 -155.86,338.07 -155.86,550.93l0 788.85 5474.17 0 0 2347.76 -5474.17 0 0 779.45c0,212.87 51.24,400.68 155.86,560.34 104.61,147.12 230.58,219.12 375.76,219.12l5205.15 0 0 2347.76 -5736.77 0z"/>
  <path id="1" class="fil1" d="M40514.08 10701.03c-587.13,-3.13 -1090.99,-303.64 -1507.32,-910.93 -17.07,-15.65 -32.02,-37.56 -44.82,-62.6l-4.28 0 -76.86 -137.74c-14.94,-25.04 -29.89,-50.09 -42.69,-72l-2551.34 -4485.78 -965.04 -1696.65c-10.68,-12.52 -25.61,-25.04 -42.69,-37.56 -34.17,-18.79 -66.18,-28.18 -100.35,-28.18 -74.72,0 -138.77,40.7 -194.28,122.09 -49.11,72 -74.72,162.78 -74.72,272.34l0 6842.93 -2132.88 0 0 -7631.77c0,-751.28 181.48,-1396.13 544.43,-1934.55 367.22,-532.15 807.03,-798.23 1319.43,-798.23l138.79 0c587.13,0 1088.85,306.77 1507.32,917.19 10.67,18.78 23.48,37.57 36.29,56.35l6.41 0 81.14 137.74c12.8,25.04 25.61,50.09 38.42,72l3514.23 6182.42c12.81,18.79 27.76,31.31 44.83,37.57 32.03,18.79 68.32,25.04 106.76,25.04 70.45,0 132.37,-34.43 185.74,-109.56 55.52,-78.26 83.27,-169.04 83.27,-275.47l0 -6849.18 2132.88 0 0 7628.63c0,760.67 -183.61,1405.53 -550.83,1937.68 -362.96,532.16 -802.76,795.11 -1319.44,798.24l-132.38 0z"/>
  <path id="2" class="fil1" d="M48390.15 10701.03c-591.41,-3.13 -1097.4,-303.64 -1513.73,-910.93 -179.34,-269.2 -320.25,-557.2 -424.87,-870.24l-3341.28 -8583.39 2339.97 0 1144.36 2933.12 1658.91 4257.27c36.3,31.3 83.27,43.82 136.65,43.82 49.1,0 93.93,-12.52 132.37,-43.82l2801.13 -7190.39 2346.38 0 -3347.69 8583.39c-104.62,313.04 -245.53,601.03 -424.87,870.24 -416.32,607.29 -920.18,907.8 -1507.31,910.93z"/>
  <polygon id="3" class="fil1" points="54257.16,10506.95 54257.16,336.47 56390.03,336.47 56390.03,10506.95 "/>
  <path id="4" class="fil1" d="M63064.07 8159.18c292.5,0 542.3,-150.25 751.53,-450.76 207.1,-309.9 311.71,-679.28 311.71,-1108.14l0 -2347.76c0,-435.11 -104.61,-804.5 -311.71,-1111.27 -209.23,-303.64 -459.03,-457.03 -751.53,-457.03l-3471.52 0 0 5474.96 3471.52 0zm-5604.4 2347.76l0 -10170.48 6667.63 0c591.4,0 1095.27,306.77 1507.32,917.19 420.59,610.42 631.96,1349.17 631.96,2210.02l0 3916.06c0,867.11 -211.37,1605.87 -631.96,2210.03 -416.32,610.42 -920.19,917.19 -1507.32,917.19l-6667.63 0z"/>
  <polygon id="5" class="fil1" points="67329.83,10506.95 67329.83,336.47 69462.72,336.47 69462.72,10506.95 "/>
  <path id="6" class="fil1" d="M76668.38 8159.18c292.49,0 544.42,-150.25 757.93,-450.76 207.1,-309.9 311.72,-679.28 311.72,-1108.14l0 -2347.76c0,-435.11 -104.62,-804.5 -311.72,-1111.27 -213.51,-303.64 -465.44,-457.03 -757.93,-457.03l-2933.51 0c-296.76,0 -548.7,153.39 -755.79,457.03 -209.24,306.77 -313.85,676.16 -313.85,1111.27l0 2347.76c0,428.86 104.61,798.24 313.85,1108.14 207.09,300.52 459.03,450.76 755.79,450.76l2933.51 0zm-4003.14 2347.76c-591.41,0 -1095.27,-306.77 -1507.32,-917.19 -416.33,-610.42 -625.56,-1349.18 -625.56,-2210.03l0 -3916.06c0,-860.84 209.23,-1599.6 625.56,-2210.02 416.32,-610.42 920.19,-917.19 1507.32,-917.19l5072.79 0c587.13,0 1090.99,306.77 1507.31,917.19 416.32,610.42 625.56,1349.17 625.56,2210.02l0 3916.06c0,867.11 -209.24,1605.87 -625.56,2210.03 -416.32,610.42 -920.18,917.19 -1507.31,917.19l-5072.79 0z"/>
  <path id="7" class="fil2 str1" d="M26239.4 10506.95c-591.4,0 -1095.26,-306.77 -1507.32,-917.19 -416.32,-610.42 -625.55,-1349.18 -625.55,-2210.03l0 -3916.06c0,-860.84 209.23,-1599.6 625.55,-2210.02 416.32,-610.42 920.19,-917.19 1507.32,-917.19l5604.41 0 0 2347.75 -5072.79 0c-145.18,0 -271.15,75.13 -375.76,228.52 -104.62,153.39 -155.86,338.07 -155.86,550.93l0 788.85 5474.17 0 0 2347.76 -5474.17 0 0 779.45c0,212.87 51.24,400.68 155.86,560.34 104.61,147.12 230.58,219.12 375.76,219.12l5205.15 0 0 2347.76 -5736.77 0z"/>
  <path id="8" class="fil2 str1" d="M40514.08 10701.03c-587.13,-3.13 -1090.99,-303.64 -1507.32,-910.93 -17.07,-15.65 -32.02,-37.56 -44.82,-62.6l-4.28 0 -76.86 -137.74c-14.94,-25.04 -29.89,-50.09 -42.69,-72l-2551.34 -4485.78 -965.04 -1696.65c-10.68,-12.52 -25.61,-25.04 -42.69,-37.56 -34.17,-18.79 -66.18,-28.18 -100.35,-28.18 -74.72,0 -138.77,40.7 -194.28,122.09 -49.11,72 -74.72,162.78 -74.72,272.34l0 6842.93 -2132.88 0 0 -7631.77c0,-751.28 181.48,-1396.13 544.43,-1934.55 367.22,-532.15 807.03,-798.23 1319.43,-798.23l138.79 0c587.13,0 1088.85,306.77 1507.32,917.19 10.67,18.78 23.48,37.57 36.29,56.35l6.41 0 81.14 137.74c12.8,25.04 25.61,50.09 38.42,72l3514.23 6182.42c12.81,18.79 27.76,31.31 44.83,37.57 32.03,18.79 68.32,25.04 106.76,25.04 70.45,0 132.37,-34.43 185.74,-109.56 55.52,-78.26 83.27,-169.04 83.27,-275.47l0 -6849.18 2132.88 0 0 7628.63c0,760.67 -183.61,1405.53 -550.83,1937.68 -362.96,532.16 -802.76,795.11 -1319.44,798.24l-132.38 0z"/>
  <path id="9" class="fil2 str1" d="M48390.15 10701.03c-591.41,-3.13 -1097.4,-303.64 -1513.73,-910.93 -179.34,-269.2 -320.25,-557.2 -424.87,-870.24l-3341.28 -8583.39 2339.97 0 1144.36 2933.12 1658.91 4257.27c36.3,31.3 83.27,43.82 136.65,43.82 49.1,0 93.93,-12.52 132.37,-43.82l2801.13 -7190.39 2346.38 0 -3347.69 8583.39c-104.62,313.04 -245.53,601.03 -424.87,870.24 -416.32,607.29 -920.18,907.8 -1507.31,910.93z"/>
  <polygon id="10" class="fil2 str1" points="54257.16,10506.95 54257.16,336.47 56390.03,336.47 56390.03,10506.95 "/>
  <path id="11" class="fil2 str1" d="M63064.07 8159.18c292.5,0 542.3,-150.25 751.53,-450.76 207.1,-309.9 311.71,-679.28 311.71,-1108.14l0 -2347.76c0,-435.11 -104.61,-804.5 -311.71,-1111.27 -209.23,-303.64 -459.03,-457.03 -751.53,-457.03l-3471.52 0 0 5474.96 3471.52 0zm-5604.4 2347.76l0 -10170.48 6667.63 0c591.4,0 1095.27,306.77 1507.32,917.19 420.59,610.42 631.96,1349.17 631.96,2210.02l0 3916.06c0,867.11 -211.37,1605.87 -631.96,2210.03 -416.32,610.42 -920.19,917.19 -1507.32,917.19l-6667.63 0z"/>
  <polygon id="12" class="fil2 str1" points="67329.83,10506.95 67329.83,336.47 69462.72,336.47 69462.72,10506.95 "/>
  <path id="13" class="fil2 str1" d="M76668.38 8159.18c292.49,0 544.42,-150.25 757.93,-450.76 207.1,-309.9 311.72,-679.28 311.72,-1108.14l0 -2347.76c0,-435.11 -104.62,-804.5 -311.72,-1111.27 -213.51,-303.64 -465.44,-457.03 -757.93,-457.03l-2933.51 0c-296.76,0 -548.7,153.39 -755.79,457.03 -209.24,306.77 -313.85,676.16 -313.85,1111.27l0 2347.76c0,428.86 104.61,798.24 313.85,1108.14 207.09,300.52 459.03,450.76 755.79,450.76l2933.51 0zm-4003.14 2347.76c-591.41,0 -1095.27,-306.77 -1507.32,-917.19 -416.33,-610.42 -625.56,-1349.18 -625.56,-2210.03l0 -3916.06c0,-860.84 209.23,-1599.6 625.56,-2210.02 416.32,-610.42 920.19,-917.19 1507.32,-917.19l5072.79 0c587.13,0 1090.99,306.77 1507.31,917.19 416.32,610.42 625.56,1349.17 625.56,2210.02l0 3916.06c0,867.11 -209.24,1605.87 -625.56,2210.03 -416.32,610.42 -920.18,917.19 -1507.31,917.19l-5072.79 0z"/>
  <ellipse class="fil3" transform="matrix(0.857152 -0.375625 0.375625 0.857152 16565.5 23517.4)" rx="17599.21" ry="4100.79"/>
  <ellipse class="fil4 str2" transform="matrix(0.857152 -0.375625 0.375625 0.857152 5708.06 28721.2)" rx="1281.5" ry="1452.36"/>
  <ellipse class="fil5 str2" transform="matrix(0.857152 -0.375625 0.375625 0.857152 12162.1 27115)" rx="1281.5" ry="1452.36"/>
  <ellipse class="fil6 str2" transform="matrix(0.857152 -0.375625 0.375625 0.857152 19613.4 24198.8)" rx="1281.5" ry="1452.36"/>
  <ellipse class="fil7 str2" transform="matrix(0.897475 -0.438576 0.393296 1.0008 26853.5 18782.6)" rx="1281.5" ry="1452.36"/>
  <ellipse class="fil8" transform="matrix(0.857152 -0.375625 0.375625 0.857152 15293.5 19719.6)" rx="17599.21" ry="4100.79"/>
  <g>
   <polygon id="_218248880" class="fil9" points="4862.43,17921.23 7919.1,20183.57 14635.33,19343.32 19866.33,14948.02 20156.68,11061.5 "/>
   <path id="1" class="fil10 str3" d="M4862.43 17921.23l3056.67 2262.35 6716.23 -840.25 5231 -4395.31 290.35 -3886.52m-15294.25 6859.73z"/>
  </g>
  <ellipse class="fil11 str4" transform="matrix(1.75131 -0.767466 0.718855 1.64038 12196.3 13728.7)" rx="4562.25" ry="4870.75"/>
  <path class="fil12 str2" d="M5284.23 10230.12c-3850.14,5731.28 4300.54,15508.75 12210.26,9295.38 -7062.27,750.23 -11747.24,-2171.57 -12210.26,-9295.38z"/>
  <g>
   <path class="fil13 str5" d="M5789.46 12177.02c-1666.32,5355.04 5553.97,5848.72 5776.76,1021.29l-5776.76 -1021.29z"/>
   <path class="fil14 str6" d="M7646.09 12548.35c-745.86,2396.99 2486.03,2617.98 2585.76,457.14l-2585.76 -457.14z"/>
   <circle class="fil13 str6" transform="matrix(0.878302 -0.384894 0.384894 0.878302 9308.56 13216.2)" r="321.58"/>
   <path class="fil13 str5" d="M15835.92 7774.41c5066.72,2404.45 535.83,8047.78 -3164.56,4939.59l3164.56 -4939.59z"/>
   <path class="fil14 str6" d="M14850.61 9391.16c2267.94,1076.26 239.84,3602.31 -1416.5,2211.02l1416.5 -2211.02z"/>
   <circle class="fil13 str6" transform="matrix(0.878302 -0.384894 0.384894 0.878302 14214.9 11066.2)" r="321.58"/>
  </g>
  <ellipse class="fil10 str7" transform="matrix(0.909499 -0.398565 0.380505 0.868288 11296 12240.6)" rx="11191.73" ry="11020.87"/>
  <path class="fil1" d="M23021.85 31100.01l0 -3675.3 7592.81 0c175.86,0 325.85,-112.71 452.57,-343.03 126.72,-249.92 191.38,-543.94 191.38,-877.17 0,-333.23 -64.66,-622.35 -191.38,-862.47 -126.72,-240.12 -276.71,-357.73 -452.57,-357.73l-5986.84 0c-354.3,0 -659.46,-240.12 -915.48,-720.36 -248.27,-475.34 -372.4,-1053.59 -372.4,-1734.74l0 -4895.5c0,-671.35 124.13,-1249.6 372.4,-1739.65 256.03,-475.33 561.18,-715.46 915.48,-715.46l8728.12 0 0 3675.3 -6788.54 0c-175.85,0 -328.44,117.62 -455.15,357.73 -126.72,240.12 -188.78,529.25 -188.78,862.47 0,343.04 62.07,637.05 188.78,877.18 126.72,235.22 279.31,357.73 455.15,357.73l5986.85 0c351.71,0 654.28,240.11 907.72,715.46 253.43,480.24 380.16,1053.58 380.16,1724.93l0 4910.2c0,671.36 -126.73,1249.61 -380.16,1734.74 -253.44,470.44 -556.02,705.66 -907.72,705.66l-9532.4 0z"/>
  <path id="1" class="fil1" d="M42409.91 27424.71c354.3,0 659.46,-235.22 918.08,-705.66 250.85,-485.13 377.57,-1063.38 377.57,-1734.73l0 -3675.3c0,-681.16 -126.72,-1259.41 -377.57,-1739.65 -258.62,-475.33 -563.78,-715.46 -918.08,-715.46l-3553.31 0c-359.47,0 -664.63,240.12 -915.48,715.46 -253.44,480.24 -380.16,1058.49 -380.16,1739.65l0 3675.3c0,671.35 126.72,1249.6 380.16,1734.73 250.85,470.44 556.01,705.66 915.48,705.66l3553.31 0zm-4848.95 3675.3c-716.36,0 -1326.67,-480.24 -1825.79,-1435.82 -504.29,-955.57 -757.74,-2112.07 -757.74,-3459.68l0 -6130.4c0,-1347.61 253.44,-2504.1 757.74,-3459.68 504.28,-955.58 1114.61,-1435.82 1825.79,-1435.82l6144.59 0c711.18,0 1321.5,480.24 1825.79,1435.82 504.29,955.57 757.74,2112.07 757.74,3459.68l0 6130.4c0,1357.41 -253.44,2513.9 -757.74,3459.68 -504.28,955.58 -1114.61,1435.82 -1825.79,1435.82l-6144.59 0z"/>
  <path id="2" class="fil1" d="M50168.24 31100.01c-716.35,0 -1326.67,-480.24 -1825.79,-1435.82 -504.29,-955.57 -757.73,-2112.07 -757.73,-3459.68l0 -6130.4c0,-1347.61 253.43,-2504.1 757.73,-3459.68 504.28,-955.58 1114.61,-1435.82 1825.79,-1435.82l6788.54 0 0 3675.3 -5492.9 0c-359.47,0 -664.63,240.12 -915.48,715.46 -253.43,480.24 -380.16,1058.49 -380.16,1739.65l0 3675.3c0,671.35 126.73,1249.6 380.16,1734.73 250.85,470.44 556.01,705.66 915.48,705.66l5492.9 0 0 3675.3 -6788.54 0z"/>
  <polygon id="3" class="fil1" points="57926.57,31100.01 57926.57,15178.61 60510.09,15178.61 60510.09,21309.02 61640.22,21309.02 65684.9,15178.61 68912.36,15178.61 63820.31,22901.65 69238.21,31100.01 65684.9,31100.01 61640.22,24984.32 60510.09,24984.32 60510.09,31100.01 "/>
  <path id="4" class="fil1" d="M69245.96 31100.01l0 -3675.3 7592.81 0c175.86,0 325.85,-112.71 452.58,-343.03 126.72,-249.92 191.37,-543.94 191.37,-877.17 0,-333.23 -64.65,-622.35 -191.37,-862.47 -126.73,-240.12 -276.72,-357.73 -452.58,-357.73l-5986.84 0c-354.3,0 -659.46,-240.12 -915.48,-720.36 -248.27,-475.34 -372.4,-1053.59 -372.4,-1734.74l0 -4895.5c0,-671.35 124.13,-1249.6 372.4,-1739.65 256.03,-475.33 561.18,-715.46 915.48,-715.46l8728.12 0 0 3675.3 -6788.54 0c-175.85,0 -328.44,117.62 -455.15,357.73 -126.72,240.12 -188.78,529.25 -188.78,862.47 0,343.04 62.07,637.05 188.78,877.18 126.72,235.22 279.31,357.73 455.15,357.73l5986.85 0c351.71,0 654.28,240.11 907.72,715.46 253.43,480.24 380.16,1053.58 380.16,1724.93l0 4910.2c0,671.36 -126.73,1249.61 -380.16,1734.74 -253.44,470.44 -556.02,705.66 -907.72,705.66l-9532.4 0z"/>
  <path id="5" class="fil2 str1" d="M23021.85 31100.01l0 -3675.3 7592.81 0c175.86,0 325.85,-112.71 452.57,-343.03 126.72,-249.92 191.38,-543.94 191.38,-877.17 0,-333.23 -64.66,-622.35 -191.38,-862.47 -126.72,-240.12 -276.71,-357.73 -452.57,-357.73l-5986.84 0c-354.3,0 -659.46,-240.12 -915.48,-720.36 -248.27,-475.34 -372.4,-1053.59 -372.4,-1734.74l0 -4895.5c0,-671.35 124.13,-1249.6 372.4,-1739.65 256.03,-475.33 561.18,-715.46 915.48,-715.46l8728.12 0 0 3675.3 -6788.54 0c-175.85,0 -328.44,117.62 -455.15,357.73 -126.72,240.12 -188.78,529.25 -188.78,862.47 0,343.04 62.07,637.05 188.78,877.18 126.72,235.22 279.31,357.73 455.15,357.73l5986.85 0c351.71,0 654.28,240.11 907.72,715.46 253.43,480.24 380.16,1053.58 380.16,1724.93l0 4910.2c0,671.36 -126.73,1249.61 -380.16,1734.74 -253.44,470.44 -556.02,705.66 -907.72,705.66l-9532.4 0z"/>
  <path id="6" class="fil2 str1" d="M42409.91 27424.71c354.3,0 659.46,-235.22 918.08,-705.66 250.85,-485.13 377.57,-1063.38 377.57,-1734.73l0 -3675.3c0,-681.16 -126.72,-1259.41 -377.57,-1739.65 -258.62,-475.33 -563.78,-715.46 -918.08,-715.46l-3553.31 0c-359.47,0 -664.63,240.12 -915.48,715.46 -253.44,480.24 -380.16,1058.49 -380.16,1739.65l0 3675.3c0,671.35 126.72,1249.6 380.16,1734.73 250.85,470.44 556.01,705.66 915.48,705.66l3553.31 0zm-4848.95 3675.3c-716.36,0 -1326.67,-480.24 -1825.79,-1435.82 -504.29,-955.57 -757.74,-2112.07 -757.74,-3459.68l0 -6130.4c0,-1347.61 253.44,-2504.1 757.74,-3459.68 504.28,-955.58 1114.61,-1435.82 1825.79,-1435.82l6144.59 0c711.18,0 1321.5,480.24 1825.79,1435.82 504.29,955.57 757.74,2112.07 757.74,3459.68l0 6130.4c0,1357.41 -253.44,2513.9 -757.74,3459.68 -504.28,955.58 -1114.61,1435.82 -1825.79,1435.82l-6144.59 0z"/>
  <path id="7" class="fil2 str1" d="M50168.24 31100.01c-716.35,0 -1326.67,-480.24 -1825.79,-1435.82 -504.29,-955.57 -757.73,-2112.07 -757.73,-3459.68l0 -6130.4c0,-1347.61 253.43,-2504.1 757.73,-3459.68 504.28,-955.58 1114.61,-1435.82 1825.79,-1435.82l6788.54 0 0 3675.3 -5492.9 0c-359.47,0 -664.63,240.12 -915.48,715.46 -253.43,480.24 -380.16,1058.49 -380.16,1739.65l0 3675.3c0,671.35 126.73,1249.6 380.16,1734.73 250.85,470.44 556.01,705.66 915.48,705.66l5492.9 0 0 3675.3 -6788.54 0z"/>
  <polygon id="8" class="fil2 str1" points="57926.57,31100.01 57926.57,15178.61 60510.09,15178.61 60510.09,21309.02 61640.22,21309.02 65684.9,15178.61 68912.36,15178.61 63820.31,22901.65 69238.21,31100.01 65684.9,31100.01 61640.22,24984.32 60510.09,24984.32 60510.09,31100.01 "/>
  <path id="9" class="fil2 str1" d="M69245.96 31100.01l0 -3675.3 7592.81 0c175.86,0 325.85,-112.71 452.58,-343.03 126.72,-249.92 191.37,-543.94 191.37,-877.17 0,-333.23 -64.65,-622.35 -191.37,-862.47 -126.73,-240.12 -276.72,-357.73 -452.58,-357.73l-5986.84 0c-354.3,0 -659.46,-240.12 -915.48,-720.36 -248.27,-475.34 -372.4,-1053.59 -372.4,-1734.74l0 -4895.5c0,-671.35 124.13,-1249.6 372.4,-1739.65 256.03,-475.33 561.18,-715.46 915.48,-715.46l8728.12 0 0 3675.3 -6788.54 0c-175.85,0 -328.44,117.62 -455.15,357.73 -126.72,240.12 -188.78,529.25 -188.78,862.47 0,343.04 62.07,637.05 188.78,877.18 126.72,235.22 279.31,357.73 455.15,357.73l5986.85 0c351.71,0 654.28,240.11 907.72,715.46 253.43,480.24 380.16,1053.58 380.16,1724.93l0 4910.2c0,671.36 -126.73,1249.61 -380.16,1734.74 -253.44,470.44 -556.02,705.66 -907.72,705.66l-9532.4 0z"/>
 </g>
</svg>
