<?xml version="1.0" encoding="UTF-8"?>
<!DOCTYPE svg PUBLIC "-//W3C//DTD SVG 1.1//EN" "http://www.w3.org/Graphics/SVG/1.1/DTD/svg11.dtd">
<!-- Creator: CorelDRAW -->
<svg xmlns="http://www.w3.org/2000/svg" xml:space="preserve" width="420mm" height="420mm" style="shape-rendering:geometricPrecision; text-rendering:geometricPrecision; image-rendering:optimizeQuality; fill-rule:evenodd; clip-rule:evenodd"
viewBox="0 0 420 420">
 <defs>
  <style type="text/css">
   <![CDATA[
    .str1 {stroke:#8C42AD;stroke-width:2.8222}
    .str0 {stroke:#8C42AD;stroke-width:5.6444}
    .str2 {stroke:#8C42AD;stroke-width:5.6444;stroke-dasharray:5 5}
    .fil4 {fill:none}
    .fil1 {fill:#00923F}
    .fil0 {fill:#DA251D}
    .fil2 {fill:#F8C300}
    .fil3 {fill:#FFCCFF}
   ]]>
  </style>
 </defs>
 <g id="Capa_x0020_1">
  <metadata id="CorelCorpID_0Corel-Layer"/>
  <rect class="fil0" x="155.772" y="239.136" width="107.402" height="7.37546" rx="3.693" ry="3.693"/>
  <rect class="fil1" x="157.168" y="255.506" width="105.201" height="3.68778" rx="3.693" ry="3.693"/>
  <rect class="fil0" x="156.557" y="264.5" width="106.498" height="7.37546" rx="3.693" ry="3.693"/>
  <rect class="fil2" x="155.522" y="278.333" width="108.102" height="3.68778" rx="3.693" ry="3.693"/>
  <g id="_218249888">
   <path id="_274134912" class="fil3 str0" d="M150.661 298.434c1.8008,-20.1385 7.5076,-45.4765 0.8878,-65.2346 -10.7116,-21.6488 -20.0441,-40.1104 -25.2328,-62.2342 -2.6079,-7.9878 -3.9526,-15.8401 -3.0518,-23.0013 -0.5783,-21.7761 -2.4882,-47.2971 22.2868,-53.6336 5.4406,-5.9442 13.6845,-16.1297 21.0728,-18.4072 6.668,-11.9839 30.8525,-15.9211 43.0122,-11.1812 12.1597,-4.7398 36.3443,-0.8028 43.0122,11.1811 7.3879,2.2773 15.6329,12.4633 21.0733,18.4073 24.775,6.3365 22.8651,31.8575 22.2868,53.6336 0.9008,7.1612 -0.444,15.0135 -3.0518,23.0013 -5.1887,22.1238 -14.5212,40.5854 -25.2328,62.2342 -6.6198,19.7581 -0.9131,45.0961 0.8877,65.2346l-4.1448 0 -1.1911 0 -0.5865 0 -1.192 0 -0.5856 0 -1.1932 0 -0.5844 0 -1.1942 0 -0.5831 0 -1.1954 0 -0.5823 0 -1.1962 0 -0.5814 0 -1.1975 0 -0.5801 0 -1.1984 0 -0.5793 0 -1.1992 0 -0.5787 0 -1.1999 0 -0.5777 0 -1.2008 0 -0.5771 0 -1.2014 0 -0.5762 0 -1.2024 0 -0.5755 0 -1.203 0 -0.5749 0 -1.2036 0 -0.5743 0 -1.2043 0 -0.5734 0 -1.2051 0 -0.5731 0 -1.2054 0 -0.5725 0 -1.2061 0 -0.5719 0 -1.2066 0 -0.5714 0 -1.2071 0 -0.5711 0 -1.2072 0 -0.5708 0 -1.2077 0 -0.5705 0 -1.2078 0 -0.5701 0 -1.2085 0 -0.5698 0 -1.2084 0 -0.5698 0 -1.2087 0 -0.5695 0 -1.2088 0 -0.5693 0 -1.209 0 -0.5693 0 -1.2089 0 -0.5693 0 -1.2092 0 -0.5691 0 -1.2091 0 -0.5691 0 -1.2091 0 -0.5694 0 -1.2089 0 -0.5694 0 -1.2088 0 -0.5696 0 -1.2086 0 -0.5696 0 -1.2087 0 -0.5699 0 -1.2081 0 -0.5702 0 -1.208 0 -0.5705 0 -1.2077 0 -0.5706 0 -1.2076 0 -0.5709 0 -1.2071 0 -0.5714 0 -1.2066 0 -0.572 0 -1.2059 0 -0.5724 0 -1.2056 0 -0.5729 0 -1.205 0 -0.5736 0 -1.2043 0 -0.5742 0 -1.2038 0 -0.5745 0 -1.2034 0 -0.5754 0 -1.2024 0 -0.5761 0 -1.2019 0 -0.5766 0 -1.201 0 -0.5776 0 -1.2001 0 -0.5785 0 -1.1992 0 -0.5793 0 -1.1984 0 -0.5802 0 -1.1974 0 -0.5811 0 -1.1966 0 -0.5822 0 -1.1953 0 -0.5833 0 -1.1943 0 -0.5842 0 -1.1932 0 -0.5853 0 -1.1922 0 -0.5866 0 -1.1907 0 -4.1449 0z"/>
   <g>
    <rect id="_274134840" class="fil3 str1" x="147.226" y="289.464" width="124.82" height="39.9424" rx="6.9605" ry="6.9605"/>
    <rect id="_274135032" class="fil3 str1" x="155.547" y="289.464" width="8.32133" height="39.9424"/>
    <rect id="_274141200" class="fil3 str1" x="163.869" y="289.464" width="8.32133" height="39.9424"/>
    <rect id="_274142208" class="fil3 str1" x="172.19" y="289.464" width="8.32133" height="39.9424"/>
    <rect id="_274140984" class="fil3 str1" x="180.511" y="289.464" width="8.32133" height="39.9424"/>
    <rect id="_274140744" class="fil3 str1" x="188.833" y="289.464" width="8.32133" height="39.9424"/>
    <rect id="_274140768" class="fil3 str1" x="197.154" y="289.464" width="8.32133" height="39.9424"/>
    <rect id="_274141416" class="fil3 str1" x="205.475" y="289.464" width="8.32133" height="39.9424"/>
    <rect id="_274141128" class="fil3 str1" x="213.796" y="289.464" width="8.32133" height="39.9424"/>
    <rect id="_274141728" class="fil3 str1" x="222.118" y="289.464" width="8.32133" height="39.9424"/>
    <rect id="_274142160" class="fil3 str1" x="230.439" y="289.464" width="8.32133" height="39.9424"/>
    <rect id="_274141752" class="fil3 str1" x="238.76" y="289.464" width="8.32133" height="39.9424"/>
    <rect id="_274141776" class="fil3 str1" x="247.082" y="289.464" width="8.32133" height="39.9424"/>
    <rect id="_274141512" class="fil3 str1" x="255.403" y="289.464" width="8.32133" height="39.9424"/>
   </g>
   <polyline id="_218248880" class="fil4 str2" points="122.993,151.731 142.542,185.825 209.601,205.731 277.348,185.825 296.218,150.241 "/>
  </g>
 </g>
</svg>
