<?xml version="1.0" encoding="UTF-8"?>
<!DOCTYPE svg PUBLIC "-//W3C//DTD SVG 1.1//EN" "http://www.w3.org/Graphics/SVG/1.1/DTD/svg11.dtd">
<!-- Creator: CorelDRAW -->
<svg xmlns="http://www.w3.org/2000/svg" xml:space="preserve" width="420mm" height="420mm" style="shape-rendering:geometricPrecision; text-rendering:geometricPrecision; image-rendering:optimizeQuality; fill-rule:evenodd; clip-rule:evenodd"
viewBox="0 0 420 420">
 <defs>
  <style type="text/css">
   <![CDATA[
    .str1 {stroke:#0A0B0C;stroke-width:2.8222}
    .str0 {stroke:#0A0B0C;stroke-width:5.6444}
    .str2 {stroke:#0A0B0C;stroke-width:5.6444;stroke-dasharray:5 5}
    .fil1 {fill:none}
    .fil0 {fill:#FFF500}
   ]]>
  </style>
 </defs>
 <g id="Capa_x0020_1">
  <metadata id="CorelCorpID_0Corel-Layer"/>
  <g id="_218249096">
   <path id="_274134912" class="fil0 str0" d="M150.661 318.754c1.8008,-17.535 7.5076,-39.5972 0.8878,-56.8009 -10.7116,-18.85 -20.0441,-34.9249 -25.2328,-54.1884 -2.6079,-6.9551 -3.9526,-13.7923 -3.0518,-20.0277 -0.5783,-18.9608 -2.4882,-41.1824 22.2868,-46.6997 5.4406,-5.1757 13.6845,-14.0444 21.0728,-16.0275 6.668,-10.4346 30.8525,-13.8628 43.0122,-9.7356 12.1597,-4.1271 36.3443,-0.6991 43.0122,9.7355 7.3879,1.9829 15.6329,10.852 21.0733,16.0276 24.775,5.5173 22.8651,27.7389 22.2868,46.6997 0.9008,6.2354 -0.444,13.0726 -3.0518,20.0277 -5.1887,19.2635 -14.5212,35.3384 -25.2328,54.1884 -6.6198,17.2037 -0.9131,39.2659 0.8877,56.8009l-4.1448 0 -1.1911 0 -0.5865 0 -1.192 0 -0.5856 0 -1.1932 0 -0.5844 0 -1.1942 0 -0.5831 0 -1.1954 0 -0.5823 0 -1.1962 0 -0.5814 0 -1.1975 0 -0.5801 0 -1.1984 0 -0.5793 0 -1.1992 0 -0.5787 0 -1.1999 0 -0.5777 0 -1.2008 0 -0.5771 0 -1.2014 0 -0.5762 0 -1.2024 0 -0.5755 0 -1.203 0 -0.5749 0 -1.2036 0 -0.5743 0 -1.2043 0 -0.5734 0 -1.2051 0 -0.5731 0 -1.2054 0 -0.5725 0 -1.2061 0 -0.5719 0 -1.2066 0 -0.5714 0 -1.2071 0 -0.5711 0 -1.2072 0 -0.5708 0 -1.2077 0 -0.5705 0 -1.2078 0 -0.5701 0 -1.2085 0 -0.5698 0 -1.2084 0 -0.5698 0 -1.2087 0 -0.5695 0 -1.2088 0 -0.5693 0 -1.209 0 -0.5693 0 -1.2089 0 -0.5693 0 -1.2092 0 -0.5691 0 -1.2091 0 -0.5691 0 -1.2091 0 -0.5694 0 -1.2089 0 -0.5694 0 -1.2088 0 -0.5696 0 -1.2086 0 -0.5696 0 -1.2087 0 -0.5699 0 -1.2081 0 -0.5702 0 -1.208 0 -0.5705 0 -1.2077 0 -0.5706 0 -1.2076 0 -0.5709 0 -1.2071 0 -0.5714 0 -1.2066 0 -0.572 0 -1.2059 0 -0.5724 0 -1.2056 0 -0.5729 0 -1.205 0 -0.5736 0 -1.2043 0 -0.5742 0 -1.2038 0 -0.5745 0 -1.2034 0 -0.5754 0 -1.2024 0 -0.5761 0 -1.2019 0 -0.5766 0 -1.201 0 -0.5776 0 -1.2001 0 -0.5785 0 -1.1992 0 -0.5793 0 -1.1984 0 -0.5802 0 -1.1974 0 -0.5811 0 -1.1966 0 -0.5822 0 -1.1953 0 -0.5833 0 -1.1943 0 -0.5842 0 -1.1932 0 -0.5853 0 -1.1922 0 -0.5866 0 -1.1907 0 -4.1449 0z"/>
   <g>
    <rect id="_274134840" class="fil0 str1" x="147.226" y="294.544" width="124.82" height="39.9424" rx="6.9605" ry="6.9605"/>
    <rect id="_274135032" class="fil0 str1" x="155.547" y="294.544" width="8.32133" height="39.9424"/>
    <rect id="_274141200" class="fil0 str1" x="163.869" y="294.544" width="8.32133" height="39.9424"/>
    <rect id="_274142208" class="fil0 str1" x="172.19" y="294.544" width="8.32133" height="39.9424"/>
    <rect id="_274140984" class="fil0 str1" x="180.511" y="294.544" width="8.32133" height="39.9424"/>
    <rect id="_274140744" class="fil0 str1" x="188.833" y="294.544" width="8.32133" height="39.9424"/>
    <rect id="_274140768" class="fil0 str1" x="197.154" y="294.544" width="8.32133" height="39.9424"/>
    <rect id="_274141416" class="fil0 str1" x="205.475" y="294.544" width="8.32133" height="39.9424"/>
    <rect id="_274141128" class="fil0 str1" x="213.796" y="294.544" width="8.32133" height="39.9424"/>
    <rect id="_274141728" class="fil0 str1" x="222.118" y="294.544" width="8.32133" height="39.9424"/>
    <rect id="_274142160" class="fil0 str1" x="230.439" y="294.544" width="8.32133" height="39.9424"/>
    <rect id="_274141752" class="fil0 str1" x="238.76" y="294.544" width="8.32133" height="39.9424"/>
    <rect id="_274141776" class="fil0 str1" x="247.082" y="294.544" width="8.32133" height="39.9424"/>
    <rect id="_274141512" class="fil0 str1" x="255.403" y="294.544" width="8.32133" height="39.9424"/>
   </g>
   <polyline id="_218248880" class="fil1 str2" points="122.993,187.291 142.542,221.385 209.601,241.291 277.348,221.385 296.218,185.801 "/>
  </g>
 </g>
</svg>
