<?xml version="1.0" encoding="UTF-8"?>
<!DOCTYPE svg PUBLIC "-//W3C//DTD SVG 1.1//EN" "http://www.w3.org/Graphics/SVG/1.1/DTD/svg11.dtd">
<!-- Creator: CorelDRAW -->
<svg xmlns="http://www.w3.org/2000/svg" xml:space="preserve" width="215.9mm" height="279.4mm" style="shape-rendering:geometricPrecision; text-rendering:geometricPrecision; image-rendering:optimizeQuality; fill-rule:evenodd; clip-rule:evenodd"
viewBox="0 0 215.9 279.4">
 <defs>
  <style type="text/css">
   <![CDATA[
    .str0 {stroke:#1F1A17;stroke-width:0.0762}
    .fil1 {fill:none}
    .fil0 {fill:#5EE045}
   ]]>
  </style>
 </defs>
 <g id="ojos">
  <metadata id="CorelCorpID_0Corel-Layer"/>
  <g id="_456820960">
   <path id="_382277744" class="fil0 str0" d="M107.815 73.5965c-0.307,1.2281 -5.2809,1.4494 -5.2809,1.4494l-5.0177 0.6063 -6.0709 0.6575 -3.5273 1.9897 -10.1292 4.522 -8.3205 4.8837 -3.4367 -1.8088 6.3308 -3.6176 8.8631 -3.2558 5.6073 -3.6176 -5.4264 -1.0853 -4.8838 -0.1809 -8.8631 1.2662 -5.4263 1.2662 -1.8088 -3.6176 7.7778 -1.9897 7.0543 -0.3618 3.7984 -0.1809 -19.8967 0.5427 -7.2352 1.6279 -5.969 0.7235 0 -3.9793 9.7675 -1.2662 7.9587 -0.9044 8.6822 -1.0853 8.5013 -0.5426 -14.6512 -0.5426 -7.4161 0.3617 -8.8631 0.7235 -0.5426 -3.4367 8.1396 -0.1808 12.1189 -1.8088 4.7029 -1.2662 -5.969 -2.3514 -5.4264 -2.8941 -7.9587 -2.7132 -6.1499 -2.5323 0 -2.5323 6.5116 1.447 5.7882 2.7132 8.8631 1.8088 7.5969 1.6279 -14.6512 -6.6925 -9.4058 -2.7132 -5.969 -1.9897 -0.7235 -2.8941 13.3851 3.6176 6.5116 2.1706 11.0337 3.9793 -8.8631 -5.0646 -10.1293 -4.8837 -0.7235 -3.2559 5.2455 2.3515 10.8528 5.0646 7.5969 2.7132 -7.5969 -5.6073 -8.8631 -5.969 1.6279 -1.9897 8.6822 5.6073 7.9587 5.2455 -7.416 -11.7572 -3.9794 -3.9793 0.9044 -2.8941 2.8941 2.5323 4.7029 5.969 6.3307 9.2249 -2.894 -9.5866 -4.8838 -7.0543 -3.0749 -4.8838 -1.2662 -2.894 2.1706 -1.0853 1.9896 3.4367 5.0647 6.1499 5.2455 6.6925 3.0749 7.0543 -3.9793 -11.0336 -4.3411 -6.8734 1.2661 -3.2559 2.5323 4.1603 3.7985 4.3411 1.6279 7.2351 0.3618 -5.7881 -1.4471 -4.522 1.8088 -1.447 1.8088 7.9587 0.1809 4.522 0.3618 -10.8528 0.5426 -2.8941 2.8941 0 -1.447 11.9381 2.3514 4.7028 -0.5427 -6.3307 -0.3617 -10.3102 4.1602 -0.5426 -0.9044 8.8631 1.0853 6.8734 0.9044 3.4367 0 -11.5763 0.5426 -8.5013 2.1706 0.1809 -0.9044 8.5013 1.2661 5.969 0.7236 6.5117 1.9896 4.522 0.5427 6.8734 -1.0853 7.9587 -0.9044 5.7881 -1.6279 6.5117z"/>
   <polyline id="_382277264" class="fil1 str0" points="105.34,74.7337 99.7263,72.143 93.0522,71.3527 87.4319,71.0014 81.1969,70.738 "/>
   <polyline id="_382277432" class="fil1 str0" points="107.366,71.2649 103.239,69.5085 97.6187,67.9278 92.7887,66.5227 86.2903,65.9958 82.075,65.5568 "/>
   <path id="_382276472" class="fil1 str0" d="M105.259 69.3329c-0.8782,-0.5269 -3.7762,-1.7564 -4.3031,-2.2833 -0.5269,-0.5269 -9.2208,-4.1274 -9.2208,-4.1274l-8.9573 -0.439 -9.2208 0.0878 -5.0056 0.2634"/>
   <polyline id="_382262672" class="fil1 str0" points="107.191,69.0694 104.732,66.9618 100.868,63.976 95.9501,60.9903 91.9984,58.1801 82.8654,51.6817 78.5624,50.1009 "/>
   <path id="_382276664" class="fil1 str0" d="M105.171 68.4547l-4.6543 -2.8101 -5.6203 -3.5127c0,0 -3.7761,-1.4051 -4.2152,-1.5807 -0.4391,-0.1757 -6.8497,-2.2833 -6.8497,-2.2833l-6.2237 -4.2064"/>
   <polyline id="_382276616" class="fil1 str0" points="88.9248,61.4294 83.1288,59.8486 79.1771,58.8827 72.6786,57.0385 68.8147,55.9847 "/>
   <path id="_382277048" class="fil1 str0" d="M108.069 66.6984c-0.0878,-0.4391 0,-7.0254 0,-7.0254l-0.966 -5.5325 -0.1756 -6.235 0 -3.7761 -1.8259 -3.2721"/>
   <path id="_382276112" class="fil1 str0" d="M106.664 66.3471l-0.4391 -3.4249c0,0 -1.9319,-4.303 -2.1954,-5.0933 -0.2634,-0.7904 -0.6147,-4.4787 -0.6147,-4.4787l0.4391 -5.0056 -0.1757 -3.9518 -1.405 -3.7761"/>
   <path id="_382276064" class="fil1 str0" d="M104.908 65.6446l-1.5807 -3.4249 -1.932 -3.8639c0,0 -0.5269,-4.7422 -0.4391,-5.2691 0.0878,-0.5269 -0.5269,-5.6203 -0.5269,-5.6203l0 -4.0395 -2.0198 -2.4589 -1.6685 -4.2152"/>
   <polyline id="_456825232" class="fil1 str0" points="102.624,64.4151 99.9019,61.3415 96.8283,56.2481 98.0578,49.0471 97.3552,45.9735 94.106,42.0218 "/>
   <polyline id="_456825520" class="fil1 str0" points="87.0806,44.9197 90.8568,48.8715 94.4573,52.9111 96.1258,55.1065 "/>
   <polyline id="_456825592" class="fil1 str0" points="83.3923,44.7441 86.2903,46.9395 90.0664,50.4522 92.2618,53.9649 95.072,57.0385 97.5308,60.1999 "/>
   <polyline id="_456825304" class="fil1 str0" points="82.9532,47.4664 88.0466,51.7695 93.6669,56.5994 "/>
   <polyline id="_456822136" class="fil1 str0" points="86.7293,52.0329 83.1288,49.4862 78.1233,46.5004 74.171,43.7514 "/>
   <polyline id="_456822760" class="fil1 str0" points="88.837,58.4436 83.2167,54.8431 78.693,52.5241 71.0979,49.2228 "/>
   <path id="_456821536" class="fil1 str0" d="M82.2507 57.741c-0.0127,-0.55 -5.3569,-2.1954 -5.3569,-2.1954l-9.4842 -2.4589 -7.7279 -2.6345"/>
   <path id="_456821272" class="fil1 str0" d="M80.4065 61.2537c-1.3172,-0.3513 -4.1274,-0.7903 -4.1274,-0.7903l-6.6301 0.2907"/>
   <polyline id="_456821056" class="fil1 str0" points="97.7923,50.6028 94.5441,48.168 91.7329,44.1675 89.2461,38.6533 87.6243,34.5446 85.1375,31.0847 "/>
   <polyline id="_456820984" class="fil1 str0" points="97.443,52.6476 92.4897,49.3573 89.0299,44.9243 87.0134,42.847 "/>
  </g>
  <g id="_456825928">
   <path id="_456820720" class="fil0 str0" d="M109.741 73.5965c0.3069,1.2281 5.2808,1.4494 5.2808,1.4494l5.0178 0.6063 6.0709 0.6575 3.5272 1.9897 10.1293 4.522 8.3204 4.8837 3.4367 -1.8088 -6.3308 -3.6176 -8.863 -3.2558 -5.6073 -3.6176 5.4264 -1.0853 4.8837 -0.1809 8.8631 1.2662 5.4264 1.2662 1.8088 -3.6176 -7.7778 -1.9897 -7.0543 -0.3618 -3.7985 -0.1809 19.8967 0.5427 7.2352 1.6279 5.9691 0.7235 0 -3.9793 -9.7675 -1.2662 -7.9587 -0.9044 -8.6823 -1.0853 -8.5013 -0.5426 14.6512 -0.5426 7.4161 0.3617 8.8631 0.7235 0.5426 -3.4367 -8.1395 -0.1808 -12.119 -1.8088 -4.7028 -1.2662 5.969 -2.3514 5.4264 -2.8941 7.9587 -2.7132 6.1499 -2.5323 0 -2.5323 -6.5117 1.447 -5.7881 2.7132 -8.8631 1.8088 -7.597 1.6279 14.6513 -6.6925 9.4057 -2.7132 5.969 -1.9897 0.7236 -2.8941 -13.3851 3.6176 -6.5117 2.1706 -11.0336 3.9793 8.8631 -5.0646 10.1292 -4.8837 0.7235 -3.2559 -5.2455 2.3515 -10.8527 5.0646 -7.597 2.7132 7.597 -5.6073 8.863 -5.969 -1.6279 -1.9897 -8.6822 5.6073 -7.9587 5.2455 7.4161 -11.7572 3.9793 -3.9793 -0.9044 -2.8941 -2.894 2.5323 -4.7029 5.969 -6.3308 9.2249 2.8941 -9.5866 4.8837 -7.0543 3.075 -4.8838 1.2661 -2.894 -2.1705 -1.0853 -1.9897 3.4367 -5.0646 6.1499 -5.2455 6.6925 -3.075 7.0543 3.9794 -11.0336 4.3411 -6.8734 -1.2662 -3.2559 -2.5323 4.1603 -3.7985 4.3411 -1.6279 7.2351 -0.3617 -5.7881 1.447 -4.522 -1.8088 -1.447 -1.8088 7.9587 -0.1809 4.522 -0.3617 -10.8528 -0.5427 -2.8941 -2.894 0 1.447 11.9381 -2.3514 4.7028 0.5426 -6.3307 0.3618 -10.3102 -4.1603 -0.5426 0.9044 8.8631 -1.0852 6.8734 -0.9044 3.4367 0 -11.5763 -0.5427 -8.5013 -2.1705 0.1809 0.9044 8.5013 -1.2662 5.969 -0.7235 6.5117 -1.9897 4.522 -0.5426 6.8734 1.0853 7.9587 0.9044 5.7881 1.6279 6.5117z"/>
   <polyline id="_456820648" class="fil1 str0" points="112.215,74.7337 117.829,72.143 124.503,71.3527 130.123,71.0014 136.358,70.738 "/>
   <polyline id="_456821008" class="fil1 str0" points="110.189,71.2649 114.316,69.5085 119.936,67.9278 124.766,66.5227 131.265,65.9958 135.48,65.5568 "/>
   <path id="_456820912" class="fil1 str0" d="M112.296 69.3329c0.8782,-0.5269 3.7761,-1.7564 4.303,-2.2833 0.5269,-0.5269 9.2208,-4.1274 9.2208,-4.1274l8.9574 -0.439 9.2208 0.0878 5.0055 0.2634"/>
   <polyline id="_456821176" class="fil1 str0" points="110.364,69.0694 112.823,66.9618 116.687,63.976 121.605,60.9903 125.557,58.1801 134.69,51.6817 138.993,50.1009 "/>
   <path id="_456820696" class="fil1 str0" d="M112.384 68.4547l4.6543 -2.8101 5.6203 -3.5127c0,0 3.7761,-1.4051 4.2152,-1.5807 0.4391,-0.1757 6.8498,-2.2833 6.8498,-2.2833l6.2236 -4.2064"/>
   <polyline id="_456817912" class="fil1 str0" points="128.63,61.4294 134.426,59.8486 138.378,58.8827 144.876,57.0385 148.74,55.9847 "/>
   <path id="_456817840" class="fil1 str0" d="M109.486 66.6984c0.0878,-0.4391 0,-7.0254 0,-7.0254l0.9659 -5.5325 0.1757 -6.235 0 -3.7761 1.8259 -3.2721"/>
   <path id="_456817192" class="fil1 str0" d="M110.891 66.3471l0.4391 -3.4249c0,0 1.932,-4.303 2.1954,-5.0933 0.2635,-0.7904 0.6148,-4.4787 0.6148,-4.4787l-0.4391 -5.0056 0.1756 -3.9518 1.4051 -3.7761"/>
   <path id="_456794656" class="fil1 str0" d="M112.648 65.6446l1.5807 -3.4249 1.932 -3.8639c0,0 0.5269,-4.7422 0.439,-5.2691 -0.0878,-0.5269 0.5269,-5.6203 0.5269,-5.6203l0 -4.0395 2.0198 -2.4589 1.6686 -4.2152"/>
   <polyline id="_456794944" class="fil1 str0" points="114.931,64.4151 117.653,61.3415 120.727,56.2481 119.497,49.0471 120.2,45.9735 123.449,42.0218 "/>
   <polyline id="_456795136" class="fil1 str0" points="130.474,44.9197 126.698,48.8715 123.098,52.9111 121.429,55.1065 "/>
   <polyline id="_456794584" class="fil1 str0" points="134.163,44.7441 131.265,46.9395 127.489,50.4522 125.293,53.9649 122.483,57.0385 120.024,60.1999 "/>
   <polyline id="_456794728" class="fil1 str0" points="134.602,47.4664 129.508,51.7695 123.888,56.5994 "/>
   <polyline id="_456795160" class="fil1 str0" points="130.826,52.0329 134.426,49.4862 139.432,46.5004 143.384,43.7514 "/>
   <polyline id="_456794968" class="fil1 str0" points="128.718,58.4436 134.338,54.8431 138.862,52.5241 146.457,49.2228 "/>
   <path id="_456826744" class="fil1 str0" d="M135.304 57.741c0.0127,-0.55 5.3568,-2.1954 5.3568,-2.1954l9.4843 -2.4589 7.7279 -2.6345"/>
   <path id="_456826888" class="fil1 str0" d="M137.149 61.2537c1.3173,-0.3513 4.1274,-0.7903 4.1274,-0.7903l6.6301 0.2907"/>
   <polyline id="_456826864" class="fil1 str0" points="119.763,50.6028 123.011,48.168 125.822,44.1675 128.309,38.6533 129.931,34.5446 132.418,31.0847 "/>
   <polyline id="_456826672" class="fil1 str0" points="120.112,52.6476 125.065,49.3573 128.525,44.9243 130.542,42.847 "/>
  </g>
 </g>
</svg>
