<?xml version="1.0" encoding="UTF-8"?>
<!DOCTYPE svg PUBLIC "-//W3C//DTD SVG 1.1//EN" "http://www.w3.org/Graphics/SVG/1.1/DTD/svg11.dtd">
<!-- Creator: CorelDRAW -->
<svg xmlns="http://www.w3.org/2000/svg" xml:space="preserve" width="215.9mm" height="279.4mm" style="shape-rendering:geometricPrecision; text-rendering:geometricPrecision; image-rendering:optimizeQuality; fill-rule:evenodd; clip-rule:evenodd"
viewBox="0 0 215.9 279.4">
 <defs>
  <style type="text/css">
   <![CDATA[
    .str0 {stroke:#1F1A17;stroke-width:0.7056}
    .fil2 {fill:#00923F}
    .fil1 {fill:white}
    .fil0 {fill:#66FF33}
   ]]>
  </style>
 </defs>
 <g id="ojos">
  <metadata id="CorelCorpID_0Corel-Layer"/>
  <g id="_456801976">
   <path id="_388316056" class="fil0 str0" d="M47.4927 93.0215c5.6042,-3.8107 13.2147,-6.9049 22.8313,-9.283 13.8962,22.2833 44.4443,24.5034 95.0885,2.5089 11.8357,10.9255 35.5811,13.9919 35.5438,1.9476 2.0935,-7.6732 -14.7217,-12.3254 -37.2566,-19.5436l-7.8211 -33.3353c-2.4246,-6.4101 -6.3579,-10.9 -11.5411,-13.7991 -12.1894,-6.5021 -26.2814,-10.5581 -43.1536,-11.0393 -13.4227,2.4242 -27.4727,7.7766 -42.9028,19.5696 -14.6359,13.4022 -17.5627,34.8537 -10.7884,62.9742z"/>
   <path id="_388316608" class="fil0 str0" d="M91.8714 12.6412c-2.2282,-6.5256 14.4161,-11.36 15.1819,-1.9679 -5.3455,-0.503 -10.3577,0.3519 -15.1819,1.9679z"/>
  </g>
  <path class="fil1 str0" d="M70.324 83.7385c22.8299,-1.5296 44.2594,-13.9521 67.0895,-17.4268 10.4091,-0.7401 20.0271,1.4153 26.2862,2.3397l-7.8211 -33.3353c-1.1052,-7.3417 -5.2751,-11.6187 -11.5411,-13.7991 -12.6221,-7.424 -27.0873,-10.9331 -43.1536,-11.0393 -11.5708,4.2377 -22.8118,10.2872 -33.5216,19.2562 -3.1877,5.5903 -5.5274,11.9344 -4.8391,20.9694l7.5008 33.0352z"/>
  <path class="fil2 str0" d="M165.413 86.2474c17.9837,-6.4682 31.1262,-7.6662 33.6189,2.7283 -1.8887,11.5994 -21.4799,6.6137 -33.6189,-2.7283z"/>
 </g>
</svg>
