<?xml version="1.0" encoding="UTF-8"?>
<!DOCTYPE svg PUBLIC "-//W3C//DTD SVG 1.1//EN" "http://www.w3.org/Graphics/SVG/1.1/DTD/svg11.dtd">
<!-- Creator: CorelDRAW -->
<svg xmlns="http://www.w3.org/2000/svg" xml:space="preserve" width="215.9mm" height="279.4mm" style="shape-rendering:geometricPrecision; text-rendering:geometricPrecision; image-rendering:optimizeQuality; fill-rule:evenodd; clip-rule:evenodd"
viewBox="0 0 215.9 279.4">
 <defs>
  <style type="text/css">
   <![CDATA[
    .str0 {stroke:#0A0B0C;stroke-width:0.0762}
    .fil1 {fill:none}
    .fil0 {fill:#996640}
   ]]>
  </style>
 </defs>
 <g id="ojos">
  <metadata id="CorelCorpID_0Corel-Layer"/>
  <g id="_456802888">
   <path id="_456819880" class="fil0 str0" d="M113.597 50.6027l-5.7017 0.788 -6.842 2.3642 -7.7543 5.5163 -7.7543 8.0774 -5.7017 7.0924 -6.6139 8.4715 -1.3684 13.5938 0.2281 7.4864 -2.7368 0.394 -0.2361 -8.1244 2.3011 -14.0189 3.6333 -5.8587 4.4811 -7.114 -6.1767 5.3355 -5.571 2.9294 -4.4811 1.36c0,0 -4.1178,3.2432 -4.8445,3.6617 -0.7266,0.4184 -6.9033,6.8002 -6.9033,6.8002l-4.9655 -0.6277 7.5089 -7.0095 4.4811 -5.2309 5.8133 -2.4063 -8.72 2.0924 -3.27 3.034c0,0 -3.6333,3.3478 -4.2388,4.1847 -0.6056,0.837 -5.3289,4.7079 -5.3289,4.7079l-6.6611 7.4279 -2.3011 -2.197 8.4777 -9.6249 3.0278 -3.034 -6.6611 3.6617 -2.5433 -1.4647 6.7822 -5.5448 5.5711 -2.9293 6.2977 -3.1386 -7.9933 1.5693 -3.6333 1.9878 -4.6022 3.4524 -3.9966 2.9293 -4.4811 3.7663 -1.6956 -2.3016 3.9967 -3.3478 5.5711 -4.394 4.8444 -2.7201 4.1177 -2.6155 -3.7544 0.1046 -3.0277 2.197 -2.9067 1.3601 -0.7267 -1.5693 5.0867 -2.9293 -5.5711 1.2554 -2.5433 2.5108 -6.7822 4.2894 -3.5122 2.7201 -2.3011 -1.9877 3.6333 -2.6155 4.2389 -2.8247 7.8722 -5.231 6.7821 -4.1847 3.9967 -3.1386 -3.6333 0.7323 -5.9344 3.5571 -4.36 1.9877 -4.9655 3.3478 -3.1489 2.5109 -7.0244 5.754 -1.9378 -1.7785 5.0866 -4.9171 7.2667 -4.6032 6.2977 -4.9171 4.4811 -2.197 -5.8133 1.2554 -5.6922 2.5109 -5.3289 3.4524 -3.5122 -2.4062 4.4811 -1.7785 8.3567 -3.034 3.9966 -1.9877 -3.9966 0.4184 -4.7234 1.1508 -7.3877 2.6155 -3.5122 1.9878 0.3633 -2.5109 3.8756 -3.1385 7.9933 -2.8248 4.6022 -1.0461 7.0244 -1.6739 -4.6022 -0.6278 -4.9656 0.2093 -5.2077 0.6277 -3.0278 1.9878 -3.3911 0.7323 1.9378 -3.7663 2.9067 -2.3016 5.6921 -2.6155 6.2978 -1.1508 -9.1438 2.4586 -3.9361 0.4707 -0.2423 -1.8831 2.4222 -1.1508 4.9656 -1.5693 7.0244 -1.7785 3.3911 -1.5693 1.4533 -1.36 -2.9066 0.2092 -5.6922 0.837 -5.45 1.1508 -3.5122 0.5231 -1.3322 -2.4063 3.6333 -1.6739 7.3877 -1.9877 3.9967 -0.837 -5.6526 1.2825 -5.7318 1.5422 -3.3911 -1.2554 0.6055 -1.9878 4.2389 -0.4184 3.8755 -1.1508 -3.6333 -0.1047 -4.2388 -0.3138 -3.8756 -1.0462 1.9378 -2.3016 6.1766 0.8369 5.5711 -0.1046 6.0555 -1.7785 -6.5399 0.3138 -3.6333 -0.6277 -0.3634 -1.1508 6.6611 -2.3016 7.5089 -1.5693 9.3255 -2.4062 3.2699 -1.7785 -5.3288 0 -5.5711 0.5231 -6.4189 1.6739 -8.4777 1.5692 -4.8444 1.9878 -2.18 -3.0339 12.111 -1.8832 6.4189 -1.6739 9.2044 -1.8831 7.5089 -0.9416 6.661 0.6277 -4.8444 -1.5693 5.9344 -1.7785 5.3289 -1.6739 5.45 -0.1046 6.2977 1.5693 1.4533 -1.7785 3.1489 1.2554 2.0589 -1.3601 2.7855 -3.0339 4.36 -2.7201c0,0 8.72,2.4062 9.3255,2.5109 0.6056,0.1046 3.27,1.7785 3.27,1.7785l0.2422 4.6032 -0.9689 3.4524 2.0589 2.4063 -0.9689 5.5448 1.3322 3.557 0.4845 4.9171 0.2422 4.7078 -1.3322 2.9294 2.5433 3.557 0.1547 6.6498z"/>
   <polyline id="_456819616" class="fil1 str0" points="104.717,24.5241 107.888,18.8927 107.184,14.0223 103.66,11.7393 102.955,8.3909 96.0834,8.8475 93.4405,9.6085 "/>
   <polyline id="_456819568" class="fil1 str0" points="99.7835,21.3279 102.603,15.6965 97.3168,13.1091 88.6834,13.2613 "/>
   <polyline id="_456818320" class="fil1 str0" points="98.9025,19.8059 95.643,17.2185 90.078,13.2367 84.1332,10.7365 "/>
   <polyline id="_456818704" class="fil1 str0" points="82.0163,11.2793 85.5119,13.4135 92.2072,19.0449 96.7882,23.7631 102.25,26.8071 104.65,26.6507 107.625,26.4949 109.519,26.4171 "/>
   <polyline id="_456818296" class="fil1 str0" points="110.86,28.407 108.531,28.1069 102.94,28.4243 96.0834,26.5027 89.5643,21.1757 85.5119,15.8487 81.1071,13.7179 71.0641,12.6525 64.601,12.3531 "/>
   <polyline id="_456818824" class="fil1 str0" points="109.044,30.2321 99.9597,30.0033 93.2644,26.3505 86.2167,21.1757 82.6928,18.2839 77.5832,15.3921 68.0688,14.7833 "/>
   <polyline id="_456818512" class="fil1 str0" points="111.06,31.589 105.552,32.0989 100.136,31.9819 94.6739,29.3945 88.331,26.0461 81.8118,21.9367 75.1165,18.5883 67.1879,16.6097 "/>
   <polyline id="_456798856" class="fil1 str0" points="111.989,32.7587 106.268,34.0857 101.369,34.5693 95.3787,32.5907 86.569,27.7203 80.2261,24.3719 72.2975,22.2411 66.6593,21.3279 60.1402,21.7845 52.9163,23.3065 43.5612,22.4014 "/>
   <polyline id="_456797488" class="fil1 str0" points="73.5308,19.8059 67.1879,18.7405 61.9021,17.8273 56.1566,18.2167 "/>
   <path id="_456797992" class="fil1 str0" d="M111.298 34.7002c0,0 -3.4065,0.9837 -4.3808,1.0551 -1.9949,0.1462 -5.1321,0.386 -5.7239,0.4882 -0.8809,0.1522 -7.9286,-1.9786 -7.9286,-1.9786l-7.0477 -4.8704c0,0 -5.2858,-2.5874 -6.1668,-2.5874 -0.8809,0 -8.9858,-1.6742 -8.9858,-1.6742l-9.8668 -0.761 -10.7477 1.8264 -8.281 1.3698"/>
   <path id="_456797968" class="fil1 str0" d="M33.8875 32.2863l7.5763 -1.8264c0,0 8.1048,-2.1308 9.3382,-2.1308 1.2333,0 9.8668,-0.3044 10.9239,-0.3044 1.0572,0 7.0477,1.3698 8.1049,1.3698 1.0571,0 8.1048,1.0654 8.9858,1.522 0.8809,0.4566 8.6334,1.522 8.6334,1.522"/>
   <polyline id="_456797752" class="fil1 str0" points="41.4638,34.1127 52.0353,30.9165 65.0736,30.3077 "/>
   <path id="_456797944" class="fil1 str0" d="M41.8656 38.722l10.6983 -3.6961 10.043 -1.522 7.0477 0.761 5.6381 0.6088 6.8715 1.0654c0,0 6.5192,0.6088 7.4001,0.761 0.881,0.1522 11.9811,1.2176 11.9811,1.2176l3.344 -2.0099"/>
   <polyline id="_456797728" class="fil1 str0" points="35.9312,45.1037 45.34,42.0271 53.4449,39.8963 62.9593,38.0699 67.1879,37.4611 79.169,38.0699 90.0929,39.1353 95.5514,37.3329 "/>
   <path id="_456798088" class="fil1 str0" d="M25.5157 52.2178c-1.1426,-0.9065 8.548,-5.0159 8.548,-5.0159l6.8715 -1.9786c0,0 10.9239,-1.0654 12.1573,-1.2176 1.2333,-0.1522 12.6488,-2.7873 12.6488,-2.7873l11.3134 -1.3221 11.1001 0.4566 9.8668 -0.1522 10.3727 -2.207 3.7587 -2.0407"/>
   <polyline id="_456797776" class="fil1 str0" points="33.2062,51.4855 41.4638,47.8107 49.7448,46.4409 60.4926,44.9189 70.7117,43.2447 81.2833,42.7881 89.7405,43.0925 98.5501,43.2447 106.126,41.2661 110.899,40.3959 "/>
   <polyline id="_456798064" class="fil1 str0" points="40.2912,52.0086 48.1591,49.4849 59.964,48.5717 72.0524,45.9407 79.169,45.3755 88.8595,45.6799 96.4358,45.6799 101.898,44.1579 109.403,40.6687 "/>
   <polyline id="_456797920" class="fil1 str0" points="36.0523,57.0303 42.3447,53.8987 50.0972,51.4635 59.4354,50.7025 68.5974,49.3327 80.2261,47.2019 89.5643,47.3541 98.5501,47.6585 106.831,45.0711 109.826,44.0057 113.442,43.9529 "/>
   <polyline id="_456798112" class="fil1 str0" points="39.5645,59.018 43.0495,56.3339 55.2068,53.7465 65.0145,54.1876 72.2975,50.0937 81.1071,48.8761 94.8501,49.6371 104.188,48.8761 111.634,43.9793 "/>
   <polyline id="_456797680" class="fil1 str0" points="54.8244,71.2584 66.8355,65.0094 72.2975,58.1603 79.5213,54.2031 86.2167,52.5289 97.0875,49.4548 "/>
   <polyline id="_456797608" class="fil1 str0" points="46.9522,69.5845 53.0925,66.8358 61.3735,63.4874 64.545,60.139 69.6546,56.7905 77.7594,52.8333 87.9786,49.2567 "/>
   <polyline id="_456797896" class="fil1 str0" points="43.1978,69.6891 47.8067,66.5314 53.6211,63.3352 56.9687,60.139 61.5497,57.2471 67.5403,55.7251 75.5994,51.4987 "/>
   <polyline id="_456797584" class="fil1 str0" points="41.6234,68.7476 46.221,63.944 50.9782,61.5088 55.383,58.617 59.6116,56.9427 "/>
   <polyline id="_456797632" class="fil1 str0" points="47.4367,59.5411 50.6258,57.5515 56.4401,56.4861 64.545,56.4861 "/>
   <polyline id="_456797392" class="fil1 str0" points="64.3922,74.0831 68.5974,72.9238 76.1737,68.6622 78.8166,65.9226 83.0452,61.3566 91.3262,56.0295 97.3168,52.2245 106.655,50.0937 113.519,47.2778 "/>
   <polyline id="_456797296" class="fil1 str0" points="79.531,69.2707 81.1071,68.3578 85.3357,64.8572 88.9557,60.6805 91.3262,57.8559 96.9644,54.2031 104.747,50.5291 "/>
   <polyline id="_382265960" class="fil1 str0" points="61.4855,75.2863 68.7736,68.8144 75.4689,65.3138 80.0499,60.7478 83.9262,57.2471 91.3262,56.0295 "/>
   <polyline id="_456799504" class="fil1 str0" points="45.3778,80.6741 48.5115,78.2508 51.3306,75.8156 57.6735,72.9238 63.1355,70.6408 65.7783,68.2056 69.8308,65.7704 73.5308,62.422 76.7023,58.617 81.8118,55.8773 87.6262,54.3553 94.3215,54.1271 "/>
   <path id="_456799408" class="fil1 str0" d="M57.233 65.1616c-0.9691,-1.6742 5.0215,-5.7836 5.0215,-5.7836"/>
   <polyline id="_456799600" class="fil1 str0" points="50.8278,72.0431 59.083,67.2924 63.3116,64.8572 66.4831,61.8132 70.007,58.617 "/>
   <polyline id="_456799288" class="fil1 str0" points="29.5729,26.8478 38.2923,25.8939 44.9876,25.2851 53.7031,25.6455 "/>
   <polyline id="_456799360" class="fil1 str0" points="23.6385,40.239 36.3542,36.5479 43.7543,35.1781 53.2687,32.2102 61.7823,33.6289 "/>
   <polyline id="_456799648" class="fil1 str0" points="102.558,22.5628 104.496,19.3331 105.327,17.0604 104.635,14.4289 102.281,13.2327 99.7882,11.4385 95.911,10.96 92.8646,11.0796 89.0382,10.4226 "/>
   <polyline id="_456799744" class="fil1 str0" points="92.8531,6.7086 97.5727,7.4912 100.342,6.8931 104.635,7.3715 107.127,8.3285 107.404,10.1227 107.184,14.0223 "/>
   <polyline id="_456799240" class="fil1 str0" points="99.074,24.7159 101.982,22.4432 104.057,18.7398 "/>
   <polyline id="_456799384" class="fil1 str0" points="67.1089,31.4144 73.7555,31.7732 81.233,32.8498 88.1566,33.8067 93.2644,34.2649 "/>
   <polyline id="_456798976" class="fil1 str0" points="87.3581,30.1833 81.5099,29.022 74.5864,27.9455 65.5857,26.3905 58.1082,25.5532 "/>
   <path id="_456798352" class="fil1 str0" d="M37.9461 41.2234l9.9152 -1.6751 5.5389 -2.6316c0,0 5.8158,-0.3588 6.5082,-0.5981 0.6923,-0.2392 7.339,-0.3588 7.339,-0.3588l6.1301 0.1531 5.351 -0.7065"/>
   <path id="_456798448" class="fil0 str0" d="M104.982 50.6027l5.7017 0.788 6.842 2.3642 7.7542 5.5163 7.7543 8.0774 5.7017 7.0924 6.6139 8.4715 1.3684 13.5938 -0.228 7.4864 2.7368 0.394 0.2361 -8.1244 -2.3011 -14.0189 -3.6333 -5.8587 -4.4811 -7.114 6.1766 5.3355 5.5711 2.9294 4.4811 1.36c0,0 4.1177,3.2432 4.8444,3.6617 0.7267,0.4184 6.9033,6.8002 6.9033,6.8002l4.9655 -0.6277 -7.5088 -7.0095 -4.4811 -5.2309 -5.8133 -2.4063 8.7199 2.0924 3.27 3.034c0,0 3.6333,3.3478 4.2389,4.1847 0.6055,0.837 5.3288,4.7079 5.3288,4.7079l6.6611 7.4279 2.3011 -2.197 -8.4777 -9.6249 -3.0278 -3.034 6.6611 3.6617 2.5433 -1.4647 -6.7822 -5.5448 -5.571 -2.9293 -6.2978 -3.1386 7.9933 1.5693 3.6333 1.9878 4.6022 3.4524 3.9967 2.9293 4.4811 3.7663 1.6955 -2.3016 -3.9966 -3.3478 -5.5711 -4.394 -4.8445 -2.7201 -4.1177 -2.6155 3.7544 0.1046 3.0278 2.197 2.9066 1.3601 0.7267 -1.5693 -5.0866 -2.9293 5.571 1.2554 2.5434 2.5108 6.7821 4.2894 3.5122 2.7201 2.3011 -1.9877 -3.6333 -2.6155 -4.2388 -2.8247 -7.8722 -5.231 -6.7822 -4.1847 -3.9967 -3.1386 3.6334 0.7323 5.9344 3.5571 4.36 1.9877 4.9655 3.3478 3.1489 2.5109 7.0244 5.754 1.9377 -1.7785 -5.0866 -4.9171 -7.2666 -4.6032 -6.2978 -4.9171 -4.4811 -2.197 5.8133 1.2554 5.6922 2.5109 5.3289 3.4524 3.5122 -2.4062 -4.4811 -1.7785 -8.3566 -3.034 -3.9967 -1.9877 3.9967 0.4184 4.7233 1.1508 7.3877 2.6155 3.5122 1.9878 -0.3633 -2.5109 -3.8755 -3.1385 -7.9933 -2.8248 -4.6022 -1.0461 -7.0244 -1.6739 4.6022 -0.6278 4.9655 0.2093 5.2077 0.6277 3.0278 1.9878 3.3911 0.7323 -1.9378 -3.7663 -2.9066 -2.3016 -5.6922 -2.6155 -6.2978 -1.1508 9.1439 2.4586 3.9361 0.4707 0.2422 -1.8831 -2.4222 -1.1508 -4.9655 -1.5693 -7.0244 -1.7785 -3.3911 -1.5693 -1.4534 -1.36 2.9067 0.2092 5.6922 0.837 5.4499 1.1508 3.5123 0.5231 1.3322 -2.4063 -3.6333 -1.6739 -7.3878 -1.9877 -3.9966 -0.837 5.6526 1.2825 5.7318 1.5422 3.391 -1.2554 -0.6055 -1.9878 -4.2389 -0.4184 -3.8755 -1.1508 3.6333 -0.1047 4.2389 -0.3138 3.8755 -1.0462 -1.9378 -2.3016 -6.1766 0.8369 -5.5711 -0.1046 -6.0555 -1.7785 6.54 0.3138 3.6333 -0.6277 0.3633 -1.1508 -6.6611 -2.3016 -7.5088 -1.5693 -9.3255 -2.4062 -3.27 -1.7785 5.3289 0 5.571 0.5231 6.4189 1.6739 8.4777 1.5692 4.8444 1.9878 2.18 -3.0339 -12.111 -1.8832 -6.4189 -1.6739 -9.2044 -1.8831 -7.5088 -0.9416 -6.6611 0.6277 4.8444 -1.5693 -5.9344 -1.7785 -5.3288 -1.6739 -5.45 -0.1046 -6.2978 1.5693 -1.4533 -1.7785 -3.1489 1.2554 -2.0588 -1.3601 -2.7856 -3.0339 -4.36 -2.7201c0,0 -8.7199,2.4062 -9.3255,2.5109 -0.6055,0.1046 -3.27,1.7785 -3.27,1.7785l-0.2422 4.6032 0.9689 3.4524 -2.0589 2.4063 0.9689 5.5448 -1.3322 3.557 -0.4844 4.9171 -0.2423 4.7078 1.3323 2.9294 -2.5434 3.557 -0.1546 6.6498z"/>
   <polyline id="_456798640" class="fil1 str0" points="113.862,24.5241 110.69,18.8927 111.395,14.0223 114.919,11.7393 115.624,8.3909 122.495,8.8475 125.138,9.6085 "/>
   <polyline id="_456798616" class="fil1 str0" points="118.795,21.3279 115.976,15.6965 121.262,13.1091 129.895,13.2613 "/>
   <polyline id="_456798904" class="fil1 str0" points="119.676,19.8059 122.936,17.2185 128.5,13.2367 134.445,10.7365 "/>
   <polyline id="_456798736" class="fil1 str0" points="136.562,11.2793 133.067,13.4135 126.371,19.0449 121.79,23.7631 116.328,26.8071 113.928,26.6507 110.953,26.4949 109.06,26.4171 "/>
   <polyline id="_456798832" class="fil1 str0" points="107.719,28.407 110.048,28.1069 115.638,28.4243 122.495,26.5027 129.014,21.1757 133.067,15.8487 137.471,13.7179 147.514,12.6525 153.978,12.3531 "/>
   <polyline id="_456798376" class="fil1 str0" points="109.534,30.2321 118.619,30.0033 125.314,26.3505 132.362,21.1757 135.886,18.2839 140.995,15.3921 150.51,14.7833 "/>
   <polyline id="_456798760" class="fil1 str0" points="107.518,31.589 113.027,32.0989 118.443,31.9819 123.905,29.3945 130.248,26.0461 136.767,21.9367 143.462,18.5883 151.391,16.6097 "/>
   <polyline id="_382259624" class="fil1 str0" points="106.59,32.7587 112.311,34.0857 117.209,34.5693 123.2,32.5907 132.009,27.7203 138.352,24.3719 146.281,22.2411 151.919,21.3279 158.438,21.7845 165.662,23.3065 175.017,22.4014 "/>
   <polyline id="_456801088" class="fil1 str0" points="145.048,19.8059 151.391,18.7405 156.676,17.8273 162.422,18.2167 "/>
   <path id="_456800488" class="fil1 str0" d="M107.281 34.7002c0,0 3.4065,0.9837 4.3807,1.0551 1.9949,0.1462 5.1321,0.386 5.7239,0.4882 0.881,0.1522 7.9287,-1.9786 7.9287,-1.9786l7.0477 -4.8704c0,0 5.2858,-2.5874 6.1667,-2.5874 0.881,0 8.9858,-1.6742 8.9858,-1.6742l9.8668 -0.761 10.7477 1.8264 8.2811 1.3698"/>
   <path id="_456800464" class="fil1 str0" d="M184.691 32.2863l-7.5762 -1.8264c0,0 -8.1049,-2.1308 -9.3382,-2.1308 -1.2334,0 -9.8668,-0.3044 -10.924,-0.3044 -1.0571,0 -7.0477,1.3698 -8.1048,1.3698 -1.0572,0 -8.1049,1.0654 -8.9858,1.522 -0.881,0.4566 -8.6335,1.522 -8.6335,1.522"/>
   <polyline id="_456800104" class="fil1 str0" points="177.115,34.1127 166.543,30.9165 153.505,30.3077 "/>
   <path id="_456799864" class="fil1 str0" d="M176.713 38.722l-10.6983 -3.6961 -10.0429 -1.522 -7.0477 0.761 -5.6382 0.6088 -6.8715 1.0654c0,0 -6.5191,0.6088 -7.4001,0.761 -0.8809,0.1522 -11.9811,1.2176 -11.9811,1.2176l-3.3439 -2.0099"/>
   <polyline id="_456799888" class="fil1 str0" points="182.647,45.1037 173.238,42.0271 165.134,39.8963 155.619,38.0699 151.391,37.4611 139.41,38.0699 128.486,39.1353 123.027,37.3329 "/>
   <path id="_456799840" class="fil1 str0" d="M193.063 52.2178c1.1426,-0.9065 -8.548,-5.0159 -8.548,-5.0159l-6.8715 -1.9786c0,0 -10.9239,-1.0654 -12.1572,-1.2176 -1.2334,-0.1522 -12.6489,-2.7873 -12.6489,-2.7873l-11.3133 -1.3221 -11.1001 0.4566 -9.8668 -0.1522 -10.3728 -2.207 -3.7587 -2.0407"/>
   <polyline id="_456800032" class="fil1 str0" points="185.372,51.4855 177.115,47.8107 168.834,46.4409 158.086,44.9189 147.867,43.2447 137.295,42.7881 128.838,43.0925 120.028,43.2447 112.452,41.2661 107.68,40.3959 "/>
   <polyline id="_456800344" class="fil1 str0" points="178.287,52.0086 170.419,49.4849 158.614,48.5717 146.526,45.9407 139.41,45.3755 129.719,45.6799 122.143,45.6799 116.681,44.1579 109.176,40.6687 "/>
   <polyline id="_456799936" class="fil1 str0" points="182.526,57.0303 176.234,53.8987 168.481,51.4635 159.143,50.7025 149.981,49.3327 138.352,47.2019 129.014,47.3541 120.028,47.6585 111.747,45.0711 108.752,44.0057 105.137,43.9529 "/>
   <polyline id="_456800440" class="fil1 str0" points="179.014,59.018 175.529,56.3339 163.372,53.7465 153.564,54.1876 146.281,50.0937 137.471,48.8761 123.728,49.6371 114.39,48.8761 106.944,43.9793 "/>
   <polyline id="_456800296" class="fil1 str0" points="163.754,71.2584 151.743,65.0094 146.281,58.1603 139.057,54.2031 132.362,52.5289 121.491,49.4548 "/>
   <polyline id="_456800272" class="fil1 str0" points="171.626,69.5845 165.486,66.8358 157.205,63.4874 154.033,60.139 148.924,56.7905 140.819,52.8333 130.6,49.2567 "/>
   <polyline id="_456800248" class="fil1 str0" points="175.381,69.6891 170.772,66.5314 164.957,63.3352 161.61,60.139 157.029,57.2471 151.038,55.7251 142.979,51.4987 "/>
   <polyline id="_456799960" class="fil1 str0" points="176.955,68.7476 172.358,63.944 167.6,61.5088 163.196,58.617 158.967,56.9427 "/>
   <polyline id="_456799816" class="fil1 str0" points="171.142,59.5411 167.953,57.5515 162.138,56.4861 154.033,56.4861 "/>
   <polyline id="_456800008" class="fil1 str0" points="154.186,74.0831 149.981,72.9238 142.405,68.6622 139.762,65.9226 135.533,61.3566 127.252,56.0295 121.262,52.2245 111.924,50.0937 105.059,47.2778 "/>
   <polyline id="_456799168" class="fil1 str0" points="139.048,69.2707 137.471,68.3578 133.243,64.8572 129.623,60.6805 127.252,57.8559 121.614,54.2031 113.832,50.5291 "/>
   <polyline id="_456799072" class="fil1 str0" points="157.093,75.2863 149.805,68.8144 143.11,65.3138 138.529,60.7478 134.652,57.2471 127.252,56.0295 "/>
   <polyline id="_382265792" class="fil1 str0" points="173.201,80.6741 170.067,78.2508 167.248,75.8156 160.905,72.9238 155.443,70.6408 152.8,68.2056 148.748,65.7704 145.048,62.422 141.876,58.617 136.767,55.8773 130.952,54.3553 124.257,54.1271 "/>
   <path id="_382979616" class="fil1 str0" d="M161.345 65.1616c0.9691,-1.6742 -5.0215,-5.7836 -5.0215,-5.7836"/>
   <polyline id="_382979160" class="fil1 str0" points="167.751,72.0431 159.495,67.2924 155.267,64.8572 152.095,61.8132 148.572,58.617 "/>
   <polyline id="_456813952" class="fil1 str0" points="189.006,26.8478 180.286,25.8939 173.591,25.2851 164.875,25.6455 "/>
   <polyline id="_456812992" class="fil1 str0" points="194.94,40.239 182.224,36.5479 174.824,35.1781 165.31,32.2102 156.796,33.6289 "/>
   <polyline id="_456813544" class="fil1 str0" points="116.021,22.5628 114.082,19.3331 113.251,17.0604 113.944,14.4289 116.298,13.2327 118.79,11.4385 122.667,10.96 125.714,11.0796 129.54,10.4226 "/>
   <polyline id="_456812368" class="fil1 str0" points="125.725,6.7086 121.006,7.4912 118.236,6.8931 113.944,7.3715 111.451,8.3285 111.174,10.1227 111.395,14.0223 "/>
   <polyline id="_382263896" class="fil1 str0" points="112.421,24.7159 109.513,22.4432 107.438,18.7398 "/>
   <polyline id="_456802312" class="fil1 str0" points="151.47,31.4144 144.823,31.7732 137.345,32.8498 130.422,33.8067 125.314,34.2649 "/>
   <polyline id="_456803056" class="fil1 str0" points="131.22,30.1833 137.069,29.022 143.992,27.9455 152.993,26.3905 160.47,25.5532 "/>
   <path id="_456802864" class="fil1 str0" d="M180.632 41.2234l-9.9153 -1.6751 -5.5388 -2.6316c0,0 -5.8159,-0.3588 -6.5082,-0.5981 -0.6924,-0.2392 -7.339,-0.3588 -7.339,-0.3588l-6.1301 0.1531 -5.3511 -0.7065"/>
  </g>
 </g>
</svg>
