<?xml version="1.0" encoding="UTF-8"?>
<!DOCTYPE svg PUBLIC "-//W3C//DTD SVG 1.1//EN" "http://www.w3.org/Graphics/SVG/1.1/DTD/svg11.dtd">
<!-- Creator: CorelDRAW -->
<svg xmlns="http://www.w3.org/2000/svg" xml:space="preserve" width="215.9mm" height="279.4mm" style="shape-rendering:geometricPrecision; text-rendering:geometricPrecision; image-rendering:optimizeQuality; fill-rule:evenodd; clip-rule:evenodd"
viewBox="0 0 215.9 279.4">
 <defs>
  <style type="text/css">
   <![CDATA[
    .str0 {stroke:#DA251D;stroke-width:0.3528}
    .fil1 {fill:none}
    .fil0 {fill:#C2C1C1}
   ]]>
  </style>
 </defs>
 <g id="ojos">
  <metadata id="CorelCorpID_0Corel-Layer"/>
  <g id="_456819856">
   <path id="_456795712" class="fil0 str0" d="M116.835 40.2938l8.811 -3.204 7.6095 -2.403 10.0125 5.2065 10.8135 7.209 10.8135 8.01c0,0 1.2015,0.4005 4.806,8.4105 3.6045,8.01 8.811,17.622 9.612,20.025 0.801,2.403 2.403,6.8085 3.204,10.8135 0.801,4.005 2.0025,12.015 2.0025,12.015 0,0 0.801,0.801 0.801,8.811 0,8.01 0.801,26.0325 0.801,28.836 0,2.8035 2.0025,10.0125 1.2015,15.6195 -0.801,5.607 1.602,9.612 0.4005,17.2215 -1.2015,7.6095 -5.2065,28.4355 -5.2065,28.4355l2.8035 12.816 -9.612 2.403 -4.005 -6.0075 -5.2065 10.8135 -9.2115 -1.2015 -2.403 -8.4105 -4.806 9.612 -12.015 -4.005 0.801 -10.0125 -6.0075 11.6145 -7.209 -1.602 -6.0075 -2.403c0,0 2.0025,-12.015 4.005,-12.816 2.0025,-0.801 6.408,-18.423 6.408,-18.423 0,0 4.005,-14.418 4.005,-16.4205 0,-2.0025 3.6045,-14.0175 3.6045,-14.0175l3.204 -10.0125 6.408 -18.0225 4.005 -14.418c0,0 1.602,-12.4155 0.801,-14.8185 -0.801,-2.403 -4.806,-14.8185 -4.806,-14.8185l-4.005 -13.2165 -8.01 -8.811 -7.209 -2.403 -14.8185 -2.8035 -6.0075 -3.6045 2.0025 -14.0175 7.6095 0z"/>
   <path id="_456795424" class="fil1 str0" d="M125.646 37.0898l9.0765 0.1508 13.5608 9.1327 19.0957 19.6493 5.535 17.1585c0,0 5.8118,18.2655 6.0885,21.033 0.2768,2.7675 2.4908,21.033 2.4908,23.247 0,2.214 1.9372,18.5422 1.9372,18.5422l-0.2767 12.7305c0,0 -0.8303,14.1143 -1.107,15.7748 -0.2768,1.6605 -0.5535,10.2397 -0.5535,10.2397l-3.0443 11.6235 -0.8302 9.963 1.9372 7.1955 0.9585 5.787"/>
   <path id="_456795400" class="fil1 str0" d="M173.706 217.515l-2.4525 -12.2873c0,0 2.4908,-14.6677 2.7675,-16.3282 0.2768,-1.6605 2.214,-15.498 2.214,-18.2655 0,-2.7675 0.8303,-10.5165 1.107,-13.0073 0.2768,-2.4907 1.6605,-15.2212 1.6605,-15.2212 0,0 -1.107,-22.6935 -2.214,-26.0145 -1.107,-3.321 -3.8745,-15.2213 -3.8745,-15.2213l-5.8117 -15.2212c0,0 -1.9373,-5.8118 -2.214,-7.749 -0.2768,-1.9373 -4.428,-10.2398 -4.428,-10.2398l-5.8118 -8.856 -5.535 -6.0885 -7.749 -4.9815 -6.642 -4.7047 -9.0765 -6.2393"/>
   <path id="_456795616" class="fil1 str0" d="M119.726 39.2431l8.9077 4.6395 11.3468 7.4722 7.1955 8.5793c0,0 5.535,6.9187 5.8117,8.3025 0.2768,1.3837 6.0885,11.6235 6.642,14.391 0.5535,2.7675 6.9188,12.4537 6.9188,12.4537l4.7047 17.9888 3.321 11.3467c0,0 1.3838,13.0073 0.5535,16.0515 -0.8302,3.0443 -3.8745,17.4353 -3.8745,17.4353l0.5535 18.5422 -2.7675 14.1143c0,0 -2.7675,10.2397 -3.5977,11.9002 -0.8303,1.6605 -1.6605,12.4538 -1.6605,12.4538l-1.89 9.81"/>
   <polyline id="_456795544" class="fil1 str0" points="113.03,40.2938 127.365,46.8863 137.89,54.2219 145.225,62.5142 150.009,73.0392 155.112,84.8399 163.086,96.6406 164.362,105.252 166.275,117.053 168.827,124.069 170.74,133.956 169.146,147.352 166.594,157.239 165.637,167.445 165.637,179.245 161.491,191.046 158.621,200.933 154.882,215.713 "/>
   <path id="_456794440" class="fil1 str0" d="M108.659 44.26l7.2242 3.2642 7.0166 3.5083 7.3356 5.4219 10.8438 7.9735 6.6977 11.8007 11.3226 14.5119 0.1592 12.5977c0,0 9.887,13.0765 7.0166,13.7144 -2.8704,0.6378 -0.3189,20.412 -0.3189,20.412l-1.2758 12.1196 -3.5083 17.5415 -2.2326 12.7575c0,0 -4.1461,8.9303 -4.4651,10.8439 -0.3189,1.9136 -2.8704,15.9469 -2.8704,15.9469l-5.103 10.206 -2.4323 6.4423"/>
   <polyline id="_456794920" class="fil1 str0" points="107.753,50.6005 120.64,59.3176 135.258,63.1223 144.048,74.5079 152.88,92.1754 156.707,109.398 159.897,118.009 160.853,133.318 160.534,142.249 159.259,153.093 155.75,168.72 151.604,180.521 146.82,193.279 143.95,201.89 138.862,211.307 "/>
   <path id="_456795064" class="fil1 str0" d="M151.714 111.003l1.8034 7.6443 1.0204 9.5564c0,0 1.85,8.942 0.5743,12.4503 -1.2758,3.5083 -3.1894,14.9901 -3.1894,14.9901l-1.9136 13.7143 -5.4219 12.7575 -4.1462 13.7143 -5.422 11.8007 -5.769 14.49"/>
   <polyline id="_456794488" class="fil1 str0" points="148.83,123.6 147.56,131.984 147.777,136.508 147.139,154.049 145.863,162.023 140.122,177.97 137.89,187.538 133.106,198.382 124.494,214.329 122.642,220.118 "/>
   <polyline id="_456820168" class="fil1 str0" points="139.775,150.634 139.166,163.936 135.736,171.859 130.051,187.678 "/>
   <path id="_456820072" class="fil0 str0" d="M92.7295 40.2938l-8.811 -3.204 -7.6095 -2.403 -10.0125 5.2065 -10.8135 7.209 -10.8135 8.01c0,0 -1.2015,0.4005 -4.806,8.4105 -3.6045,8.01 -8.811,17.622 -9.612,20.025 -0.801,2.403 -2.403,6.8085 -3.204,10.8135 -0.801,4.005 -2.0025,12.015 -2.0025,12.015 0,0 -0.801,0.801 -0.801,8.811 0,8.01 -0.801,26.0325 -0.801,28.836 0,2.8035 -2.0025,10.0125 -1.2015,15.6195 0.801,5.607 -1.602,9.612 -0.4005,17.2215 1.2015,7.6095 5.2065,28.4355 5.2065,28.4355l-2.8035 12.816 9.612 2.403 4.005 -6.0075 5.2065 10.8135 9.2115 -1.2015 2.403 -8.4105 4.806 9.612 12.015 -4.005 -0.801 -10.0125 6.0075 11.6145 7.209 -1.602 6.0075 -2.403c0,0 -2.0025,-12.015 -4.005,-12.816 -2.0025,-0.801 -6.408,-18.423 -6.408,-18.423 0,0 -4.005,-14.418 -4.005,-16.4205 0,-2.0025 -3.6045,-14.0175 -3.6045,-14.0175l-3.204 -10.0125 -6.408 -18.0225 -4.005 -14.418c0,0 -1.602,-12.4155 -0.801,-14.8185 0.801,-2.403 4.806,-14.8185 4.806,-14.8185l4.005 -13.2165 8.01 -8.811 7.209 -2.403 14.8185 -2.8035 6.0075 -3.6045 -2.0025 -14.0175 -7.6095 0z"/>
   <path id="_456820120" class="fil1 str0" d="M83.9185 37.0898l-9.0765 0.1508 -13.5608 9.1327 -19.0957 19.6493 -5.535 17.1585c0,0 -5.8118,18.2655 -6.0885,21.033 -0.2768,2.7675 -2.4908,21.033 -2.4908,23.247 0,2.214 -1.9372,18.5422 -1.9372,18.5422l0.2767 12.7305c0,0 0.8303,14.1143 1.107,15.7748 0.2768,1.6605 0.5535,10.2397 0.5535,10.2397l3.0443 11.6235 0.8302 9.963 -1.9372 7.1955 -0.9585 5.787"/>
   <path id="_456820144" class="fil1 str0" d="M35.8585 217.515l2.4525 -12.2873c0,0 -2.4908,-14.6677 -2.7675,-16.3282 -0.2768,-1.6605 -2.214,-15.498 -2.214,-18.2655 0,-2.7675 -0.8303,-10.5165 -1.107,-13.0073 -0.2768,-2.4907 -1.6605,-15.2212 -1.6605,-15.2212 0,0 1.107,-22.6935 2.214,-26.0145 1.107,-3.321 3.8745,-15.2213 3.8745,-15.2213l5.8117 -15.2212c0,0 1.9373,-5.8118 2.214,-7.749 0.2768,-1.9373 4.428,-10.2398 4.428,-10.2398l5.8118 -8.856 5.535 -6.0885 7.749 -4.9815 6.642 -4.7047 9.0765 -6.2393"/>
   <path id="_456820048" class="fil1 str0" d="M89.8382 39.2431l-8.9077 4.6395 -11.3468 7.4722 -7.1955 8.5793c0,0 -5.535,6.9187 -5.8117,8.3025 -0.2768,1.3837 -6.0885,11.6235 -6.642,14.391 -0.5535,2.7675 -6.9188,12.4537 -6.9188,12.4537l-4.7047 17.9888 -3.321 11.3467c0,0 -1.3838,13.0073 -0.5535,16.0515 0.8302,3.0443 3.8745,17.4353 3.8745,17.4353l-0.5535 18.5422 2.7675 14.1143c0,0 2.7675,10.2397 3.5977,11.9002 0.8303,1.6605 1.6605,12.4538 1.6605,12.4538l1.89 9.81"/>
   <polyline id="_456820000" class="fil1 str0" points="96.5342,40.2938 82.1995,46.8863 71.6745,54.2219 64.339,62.5142 59.5549,73.0392 54.4519,84.8399 46.4785,96.6406 45.2027,105.252 43.2891,117.053 40.7376,124.069 38.824,133.956 40.4186,147.352 42.9701,157.239 43.927,167.445 43.927,179.245 48.0731,191.046 50.9436,200.933 54.682,215.713 "/>
   <path id="_456820432" class="fil1 str0" d="M100.905 44.26l-7.2242 3.2642 -7.0166 3.5083 -7.3356 5.4219 -10.8439 7.9735 -6.6976 11.8007 -11.3226 14.5119 -0.1592 12.5977c0,0 -9.8871,13.0765 -7.0166,13.7144 2.8704,0.6378 0.3189,20.412 0.3189,20.412l1.2758 12.1196 3.5083 17.5415 2.2325 12.7575c0,0 4.1462,8.9303 4.4652,10.8439 0.3189,1.9136 2.8704,15.9469 2.8704,15.9469l5.103 10.206 2.4323 6.4423"/>
   <polyline id="_456819976" class="fil1 str0" points="101.811,50.6005 88.9247,59.3176 74.3065,63.1223 65.5163,74.5079 56.6845,92.1754 52.8572,109.398 49.6678,118.009 48.711,133.318 49.03,142.249 50.3057,153.093 53.814,168.72 57.9602,180.521 62.7443,193.279 65.6147,201.89 70.702,211.307 "/>
   <path id="_456820360" class="fil1 str0" d="M57.85 111.003l-1.8034 7.6443 -1.0204 9.5564c0,0 -1.8501,8.942 -0.5743,12.4503 1.2757,3.5083 3.1894,14.9901 3.1894,14.9901l1.9136 13.7143 5.4219 12.7575 4.1462 13.7143 5.422 11.8007 5.769 14.49"/>
   <polyline id="_456819928" class="fil1 str0" points="60.7345,123.6 62.0046,131.984 61.7875,136.508 62.4253,154.049 63.7011,162.023 69.442,177.97 71.6745,187.538 76.4586,198.382 85.0699,214.329 86.9222,220.118 "/>
   <polyline id="_456820264" class="fil1 str0" points="69.789,150.634 70.3988,163.936 73.8283,171.859 79.513,187.678 "/>
  </g>
 </g>
</svg>
