<?xml version="1.0" encoding="UTF-8"?>
<!DOCTYPE svg PUBLIC "-//W3C//DTD SVG 1.1//EN" "http://www.w3.org/Graphics/SVG/1.1/DTD/svg11.dtd">
<!-- Creator: CorelDRAW -->
<svg xmlns="http://www.w3.org/2000/svg" xml:space="preserve" width="215.9mm" height="279.4mm" style="shape-rendering:geometricPrecision; text-rendering:geometricPrecision; image-rendering:optimizeQuality; fill-rule:evenodd; clip-rule:evenodd"
viewBox="0 0 215.9 279.4">
 <defs>
  <style type="text/css">
   <![CDATA[
    .str0 {stroke:#FFF500;stroke-width:0.3528;stroke-linejoin:bevel}
    .fil1 {fill:none}
    .fil2 {fill:#0093DD}
    .fil0 {fill:#42929D}
    .fil7 {fill:#DA251D}
    .fil6 {fill:#33FF00}
    .fil3 {fill:#6600FF}
    .fil4 {fill:#FF66FF}
    .fil5 {fill:#5E3812}
   ]]>
  </style>
 </defs>
 <g id="ojos">
  <metadata id="CorelCorpID_0Corel-Layer"/>
  <g id="_456795520">
   <path id="_456826072" class="fil0 str0" d="M103.886 47.2527l-0.3771 -3.9604 1.5087 -2.2631 3.7718 -1.3202 2.8289 0.7544 2.2631 1.3201 1.3201 -3.5832 4.9034 -0.943 2.6403 1.3202 3.9604 2.6403c0,0 4.3376,-0.1886 5.6578,0 1.3201,0.1885 6.6007,0.1885 6.6007,0.1885l5.4691 2.0746 8.4867 3.206c0,0 2.2631,0.3772 3.3946,3.2061 1.1316,2.8288 11.5041,12.447 11.5041,12.447l6.2235 7.3551 3.7718 3.206 2.2631 5.2806 5.2806 6.4121 5.2806 5.092 3.0174 3.2061 3.2061 3.9604 -3.2061 1.5087 -4.2358 -2.6463 2.1613 5.2866 -2.4517 2.4517 -5.4691 -7.1665 9.6182 14.8987 -3.3947 2.0745 -2.6403 -3.206 -2.6403 1.1315 -3.0174 -3.9604 -3.2061 1.1316 4.9034 11.8812 -4.7148 1.886 -5.6577 -12.0699 2.8288 6.0349 -3.7718 1.3202 -2.0745 -6.035 4.149 13.2014 -3.9604 0.943 -5.092 -13.7672 -4.3376 -7.5437 -4.7148 -3.5832 5.2806 10.184 1.3201 7.355 -2.8288 -0.3772 -2.0746 -6.2235 -5.2805 -11.3155 0.7543 15.4645 -2.8288 -1.1315 -1.6973 -14.5216 -1.886 -7.355 -0.3771 20.745 -4.7148 -1.1315 1.8859 -20.3679 -2.6403 -4.5262 -1.1316 -2.8289 -1.3201 -3.5832 -0.943 -6.7893 1.3202 -4.7148 -4.9034 -2.8289 -6.2235 -6.9779 -4.7148 -3.3946 -10.9383 -3.5833 -6.2235 0.5658 -1.886 -6.0349z"/>
   <path id="_456826168" class="fil1 str0" d="M110.588 52.8499c1.4078,-0.1281 -2.0943,-6.0076 -2.0943,-6.0076l-0.688 -3.9562 4.9444 -1.7626"/>
   <polyline id="_456826600" class="fil1 str0" points="115.718,53.0346 113.481,47.5304 112.105,43.5742 112.75,41.1235 "/>
   <path id="_456826288" class="fil2 str0" d="M112.793 45.5524l4.9882 -3.0103 4.9883 -0.344 5.6762 2.2361 8.2564 0.6881 4.4723 1.72c0,0 6.7083,4.8163 7.7403,5.3323 1.0321,0.516 5.8483,4.6442 6.5363,6.1923 0.6881,1.5481 6.3643,8.9444 6.3643,8.9444l3.9562 6.0203 5.5043 7.2244 5.3323 9.2884 7.0516 6.4421 9.6182 14.8987 -2.725 1.6654 -5.6884 -6.4934 -6.8804 -9.8045 -3.2681 -2.7521 -3.2682 -7.0524 -3.7842 -7.2243 -5.6762 -5.8483 -3.4402 -5.3322 -6.8803 -7.9124 -5.6763 -6.0203 -6.0203 -2.7521 -7.2243 -2.9242 -6.5364 -2.4081 -6.8803 -1.8921 -6.5363 1.1182z"/>
   <path id="_456826528" class="fil3 str0" d="M113.841 48.4163l4.2844 -1.0579 7.9123 1.376c0,0 6.1923,2.5802 7.0524,2.9242 0.86,0.344 8.2564,3.9562 8.2564,3.9562l3.9562 3.2681 3.6121 5.1603 5.6763 6.3643 4.4722 5.1602 3.9562 6.7083 3.7842 4.6443 4.3002 4.8162 5.2463 3.4402 3.3541 7.0523 1.881 4.9958 -3.2061 1.1316 -3.4911 -8.3635 -1.8921 -3.2682c0,0 -3.9562,-3.2681 -4.8162,-4.3002 -0.8601,-1.032 -4.6443,-3.9562 -4.6443,-3.9562l-3.6121 -6.0203c0,0 -3.0962,-4.3002 -3.4402,-5.1602 -0.344,-0.86 -3.7842,-5.3323 -3.7842,-5.3323l-5.3322 -5.3322 -5.5043 -4.8162 -8.6004 -5.8483 -6.3643 -3.6122 -5.1603 -2.0641 -8.2564 -2.7521 0.3599 0.8859z"/>
   <path id="_456826216" class="fil4 str0" d="M114.6 50.2825l10.5784 4.3002c0,0 7.2243,-0.516 8.0844,1.3761 0.86,1.8921 8.6004,9.1164 8.6004,9.1164 0,0 6.0203,6.1923 7.5684,7.5684 1.548,1.376 5.8482,7.3963 5.8482,7.3963l3.9562 6.7083 3.9562 6.0203 4.4722 6.1923 5.5043 6.8804 1.1566 7.23 -2.9709 2.5531 -1.4611 -4.2505 -3.949 -8.4568 -3.2681 -6.5363 -3.9562 -5.5043 -3.2682 -5.8482 -3.7841 -4.8163 -5.5043 -5.1602 -4.4722 -5.6763 -6.8803 -6.0203 -3.9562 -4.8162 -4.6443 -2.0641 -8.0843 -3.6122 -3.5261 -2.5801z"/>
   <polygon id="_456825784" class="fil5 str0" points="138.775,69.5065 143.239,76.2557 150.291,85.5442 154.763,93.1126 159.408,99.9929 160.652,104.207 155.937,100.624 152.011,94.3166 147.195,87.0923 143.755,80.556 "/>
   <path id="_456825688" class="fil6 str0" d="M137.927 77.6159c-0.1388,-0.9996 4.6241,6.5522 4.6241,6.5522l2.2361 4.1282 1.7201 2.2361 0.1692 3.2745 -0.1687 9.2689 -1.8926 6.5495 -3.0107 2.6915 0.3771 -4.0725 1.1586 -12.513 0.3502 -3.7824 -4.4318 -9.1466 -1.1316 -5.1864z"/>
   <path id="_456796336" class="fil7 str0" d="M113.881 41.7835l6.3946 0.5866c0,0 5.5551,1.9131 5.3323,0.9462 -0.2228,-0.967 10.0532,-1.9422 10.0532,-1.9422l6.0372 1.0696 6.8836 6.1291 5.7893 3.3273 4.6546 5.819 5.1148 6.3939 5.4642 6.831 3.3054 6.2948 7.4575 7.1601 3.0357 3.7951 4.0659 5.0828 4.9822 4.3323 2.8069 -0.0025 -4.6206 -7.9208 -7.9209 -8.298 -4.9034 -8.4867 -8.298 -4.7147 -2.5448 -6.6419 -7.6926 -7.7375 -4.8499 -4.2912 -5.4044 -4.3006 -10.0601 -3.8089 -12.2585 -0.1885 -9.2457 -1.6324 -3.5785 2.1981z"/>
   <path id="_456796408" class="fil0 str0" d="M115.826 47.2527l0.3771 -3.9604 -1.5087 -2.2631 -3.7718 -1.3202 -2.8289 0.7544 -2.2631 1.3201 -1.3201 -3.5832 -4.9034 -0.943 -2.6403 1.3202 -3.9604 2.6403c0,0 -4.3376,-0.1886 -5.6578,0 -1.3201,0.1885 -6.6007,0.1885 -6.6007,0.1885l-5.4691 2.0746 -8.4867 3.206c0,0 -2.2631,0.3772 -3.3946,3.2061 -1.1316,2.8288 -11.5041,12.447 -11.5041,12.447l-6.2235 7.3551 -3.7718 3.206 -2.2631 5.2806 -5.2806 6.4121 -5.2806 5.092 -3.0174 3.2061 -3.2061 3.9604 3.2061 1.5087 4.2358 -2.6463 -2.1613 5.2866 2.4517 2.4517 5.4691 -7.1665 -9.6182 14.8987 3.3947 2.0745 2.6403 -3.206 2.6403 1.1315 3.0174 -3.9604 3.2061 1.1316 -4.9034 11.8812 4.7148 1.886 5.6577 -12.0699 -2.8288 6.0349 3.7718 1.3202 2.0745 -6.035 -4.149 13.2014 3.9604 0.943 5.092 -13.7672 4.3376 -7.5437 4.7148 -3.5832 -5.2806 10.184 -1.3201 7.355 2.8288 -0.3772 2.0746 -6.2235 5.2805 -11.3155 -0.7543 15.4645 2.8288 -1.1315 1.6973 -14.5216 1.886 -7.355 0.3771 20.745 4.7148 -1.1315 -1.8859 -20.3679 2.6403 -4.5262 1.1316 -2.8289 1.3201 -3.5832 0.943 -6.7893 -1.3202 -4.7148 4.9034 -2.8289 6.2235 -6.9779 4.7148 -3.3946 10.9383 -3.5833 6.2235 0.5658 1.886 -6.0349z"/>
   <path id="_456796456" class="fil1 str0" d="M109.124 52.8499c-1.4078,-0.1281 2.0943,-6.0076 2.0943,-6.0076l0.688 -3.9562 -4.9444 -1.7626"/>
   <polyline id="_456796216" class="fil1 str0" points="103.994,53.0346 106.23,47.5304 107.606,43.5742 106.962,41.1235 "/>
   <path id="_456796024" class="fil2 str0" d="M106.918 45.5524l-4.9882 -3.0103 -4.9883 -0.344 -5.6762 2.2361 -8.2564 0.6881 -4.4723 1.72c0,0 -6.7083,4.8163 -7.7403,5.3323 -1.0321,0.516 -5.8483,4.6442 -6.5363,6.1923 -0.6881,1.5481 -6.3643,8.9444 -6.3643,8.9444l-3.9562 6.0203 -5.5043 7.2244 -5.3323 9.2884 -7.0516 6.4421 -9.6182 14.8987 2.725 1.6654 5.6884 -6.4934 6.8804 -9.8045 3.2681 -2.7521 3.2682 -7.0524 3.7842 -7.2243 5.6762 -5.8483 3.4402 -5.3322 6.8803 -7.9124 5.6763 -6.0203 6.0203 -2.7521 7.2243 -2.9242 6.5364 -2.4081 6.8803 -1.8921 6.5363 1.1182z"/>
   <path id="_456796048" class="fil3 str0" d="M105.87 48.4163l-4.2844 -1.0579 -7.9123 1.376c0,0 -6.1923,2.5802 -7.0524,2.9242 -0.86,0.344 -8.2564,3.9562 -8.2564,3.9562l-3.9562 3.2681 -3.6121 5.1603 -5.6763 6.3643 -4.4722 5.1602 -3.9562 6.7083 -3.7842 4.6443 -4.3002 4.8162 -5.2463 3.4402 -3.3541 7.0523 -1.881 4.9958 3.2061 1.1316 3.4911 -8.3635 1.8921 -3.2682c0,0 3.9562,-3.2681 4.8162,-4.3002 0.8601,-1.032 4.6443,-3.9562 4.6443,-3.9562l3.6121 -6.0203c0,0 3.0962,-4.3002 3.4402,-5.1602 0.344,-0.86 3.7842,-5.3323 3.7842,-5.3323l5.3322 -5.3322 5.5043 -4.8162 8.6004 -5.8483 6.3643 -3.6122 5.1603 -2.0641 8.2564 -2.7521 -0.3599 0.8859z"/>
   <path id="_456795856" class="fil4 str0" d="M105.112 50.2825l-10.5784 4.3002c0,0 -7.2243,-0.516 -8.0844,1.3761 -0.86,1.8921 -8.6004,9.1164 -8.6004,9.1164 0,0 -6.0203,6.1923 -7.5684,7.5684 -1.548,1.376 -5.8482,7.3963 -5.8482,7.3963l-3.9562 6.7083 -3.9562 6.0203 -4.4722 6.1923 -5.5043 6.8804 -1.1566 7.23 2.9709 2.5531 1.4611 -4.2505 3.949 -8.4568 3.2681 -6.5363 3.9562 -5.5043 3.2682 -5.8482 3.7841 -4.8163 5.5043 -5.1602 4.4722 -5.6763 6.8803 -6.0203 3.9562 -4.8162 4.6443 -2.0641 8.0843 -3.6122 3.5261 -2.5801z"/>
   <polygon id="_456795832" class="fil5 str0" points="80.9364,69.5065 76.4728,76.2557 69.4205,85.5442 64.9483,93.1126 60.3041,99.9929 59.0598,104.207 63.7746,100.624 67.7004,94.3166 72.5167,87.0923 75.9568,80.556 "/>
   <path id="_456795448" class="fil6 str0" d="M81.785 77.6159c0.1388,-0.9996 -4.6241,6.5522 -4.6241,6.5522l-2.2361 4.1282 -1.7201 2.2361 -0.1692 3.2745 0.1687 9.2689 1.8926 6.5495 3.0107 2.6915 -0.3771 -4.0725 -1.1586 -12.513 -0.3502 -3.7824 4.4318 -9.1466 1.1316 -5.1864z"/>
   <path id="_456795808" class="fil7 str0" d="M105.831 41.7835l-6.3946 0.5866c0,0 -5.5551,1.9131 -5.3323,0.9462 0.2228,-0.967 -10.0532,-1.9422 -10.0532,-1.9422l-6.0372 1.0696 -6.8836 6.1291 -5.7893 3.3273 -4.6546 5.819 -5.1148 6.3939 -5.4642 6.831 -3.3054 6.2948 -7.4575 7.1601 -3.0357 3.7951 -4.0659 5.0828 -4.9822 4.3323 -2.8069 -0.0025 4.6206 -7.9208 7.9209 -8.298 4.9034 -8.4867 8.298 -4.7147 2.5448 -6.6419 7.6926 -7.7375 4.8499 -4.2912 5.4044 -4.3006 10.0601 -3.8089 12.2585 -0.1885 9.2457 -1.6324 3.5785 2.1981z"/>
  </g>
 </g>
</svg>
