<?xml version="1.0" encoding="UTF-8"?>
<!DOCTYPE svg PUBLIC "-//W3C//DTD SVG 1.1//EN" "http://www.w3.org/Graphics/SVG/1.1/DTD/svg11.dtd">
<!-- Creator: CorelDRAW -->
<svg xmlns="http://www.w3.org/2000/svg" xml:space="preserve" width="215.9mm" height="279.4mm" style="shape-rendering:geometricPrecision; text-rendering:geometricPrecision; image-rendering:optimizeQuality; fill-rule:evenodd; clip-rule:evenodd"
viewBox="0 0 215.9 279.4">
 <defs>
  <style type="text/css">
   <![CDATA[
    .fil1 {fill:#A16345}
    .fil0 {fill:#FFC2A3}
   ]]>
  </style>
 </defs>
 <g id="ojos">
  <metadata id="CorelCorpID_0Corel-Layer"/>
  <path class="fil0" d="M82.7404 53.0066c-13.5195,-34.4218 -52.2995,-41.8932 -63.5068,-12.8081 -3.6539,14.4418 6.1021,23.2752 3.4688,44.0279 -0.8923,9.7458 4.5334,12.9479 16.277,9.6061l10.6734 -4.0026c6.3407,-22.6156 18.6919,-31.2674 33.0876,-36.8233z"/>
  <path class="fil1" d="M82.7404 53.0066c-13.5195,-34.4218 -52.2995,-41.8932 -63.5068,-12.8081 -0.9508,3.7932 -0.9825,7.3169 -0.5496,10.704 11.6342,-24.8521 39.9415,-19.0594 51.8979,7.6233l12.1585 -5.5192z"/>
  <path class="fil1" d="M110.056 45.9055c37.8451,-1.4143 61.9426,28.1015 63.1675,59.9343 -10.9498,-29.5422 -30.6751,-47.384 -63.1675,-48.2021 -32.4924,0.8181 -52.2176,18.6599 -63.1673,48.2021 1.2249,-31.8328 25.3222,-61.3486 63.1673,-59.9343z"/>
  <path class="fil0" d="M135.697 53.0066c13.5195,-34.4218 52.2995,-41.8932 63.5069,-12.8081 3.6538,14.4418 -6.1022,23.2752 -3.4689,44.0279 0.8924,9.7458 -4.5333,12.9479 -16.277,9.6061l-10.6734 -4.0026c-4.6896,-23.0246 -17.9947,-31.44 -33.0876,-36.8233z"/>
  <path class="fil1" d="M135.697 53.0066c13.5195,-34.4218 52.2995,-41.8932 63.5069,-12.8081 0.9507,3.7932 0.9824,7.3169 0.5495,10.704 -11.6342,-24.8521 -39.9415,-19.0594 -51.8979,7.6233l-12.1585 -5.5192z"/>
 </g>
</svg>
