<?xml version="1.0" encoding="UTF-8"?>
<!DOCTYPE svg PUBLIC "-//W3C//DTD SVG 1.1//EN" "http://www.w3.org/Graphics/SVG/1.1/DTD/svg11.dtd">
<!-- Creator: CorelDRAW -->
<svg xmlns="http://www.w3.org/2000/svg" xml:space="preserve" width="215.9mm" height="279.4mm" style="shape-rendering:geometricPrecision; text-rendering:geometricPrecision; image-rendering:optimizeQuality; fill-rule:evenodd; clip-rule:evenodd"
viewBox="0 0 215.9 279.4">
 <defs>
  <style type="text/css">
   <![CDATA[
    .fil0 {fill:#E77817}
    .fil1 {fill:white}
   ]]>
  </style>
 </defs>
 <g id="ojos">
  <metadata id="CorelCorpID_0Corel-Layer"/>
  <g id="_388318456">
   <path id="_388318576" class="fil0" d="M93.9123 47.6303c-11.5108,-17.6959 -27.6202,-27.523 -46.8759,-31.9663 4.3328,19.7575 -4.5958,34.0589 9.5834,57.7741 8.9713,-12.8352 20.941,-22.0022 37.2925,-25.8078z"/>
   <path id="_388318552" class="fil1" d="M60.523 32.9823c11.5275,1.9897 19.2175,9.8715 23.1211,17.9613 -8.384,3.5764 -14.5485,8.3118 -19.7038,13.574 -3.548,-12.0852 -4.8426,-22.6986 -3.4173,-31.5353z"/>
   <path id="_388318936" class="fil0" d="M127.462 47.6303c11.5108,-17.6959 27.6202,-27.523 46.8759,-31.9663 -4.3328,19.7575 4.5958,34.0589 -9.5834,57.7741 -8.9713,-12.8352 -20.941,-22.0022 -37.2925,-25.8078z"/>
   <path id="_388318408" class="fil1" d="M160.851 32.9823c-11.5275,1.9897 -19.2175,9.8715 -23.1211,17.9613 8.384,3.5764 14.5485,8.3118 19.7038,13.574 3.548,-12.0852 4.8426,-22.6986 3.4173,-31.5353z"/>
   <path id="_388318792" class="fil0" d="M110.553 45.2508c38.4053,-1.4353 62.8596,28.5174 64.1026,60.8215 -11.1118,-29.9796 -31.1292,-48.0855 -64.1026,-48.9157 -32.9734,0.8302 -52.9906,18.9361 -64.1024,48.9157 1.243,-32.3041 25.697,-62.2568 64.1024,-60.8215z"/>
  </g>
 </g>
</svg>
