<?xml version="1.0" encoding="UTF-8"?>
<!DOCTYPE svg PUBLIC "-//W3C//DTD SVG 1.1//EN" "http://www.w3.org/Graphics/SVG/1.1/DTD/svg11.dtd">
<!-- Creator: CorelDRAW -->
<svg xmlns="http://www.w3.org/2000/svg" xml:space="preserve" width="215.9mm" height="279.4mm" style="shape-rendering:geometricPrecision; text-rendering:geometricPrecision; image-rendering:optimizeQuality; fill-rule:evenodd; clip-rule:evenodd"
viewBox="0 0 215.9 279.4">
 <defs>
  <style type="text/css">
   <![CDATA[
    .str0 {stroke:#1F1A17;stroke-width:0.7056}
    .fil0 {fill:#823D0A}
    .fil1 {fill:#F57000}
   ]]>
  </style>
 </defs>
 <g id="ojos">
  <metadata id="CorelCorpID_0Corel-Layer"/>
  <g id="_388318672">
   <path id="_388319080" class="fil0 str0" d="M86.0051 48.6791c-10.0338,-15.6988 -20.4365,-21.8106 -31.2081,-18.3355 -17.9724,7.4733 -23.2543,35.2882 -2.2949,50.8122 7.3927,-16.0124 18.5604,-26.8381 33.503,-32.4767z"/>
   <path id="_388319440" class="fil1 str0" d="M75.8181 53.6853c-7.7549,-7.9404 -15.3827,-12.8739 -22.3987,-3.3213 -4.4091,7.6872 -2.7956,14.5139 4.8406,20.4803 4.5686,-7.0744 10.4608,-12.7526 17.5581,-17.159z"/>
   <path id="_388319584" class="fil0 str0" d="M134.299 48.6791c10.0338,-15.6988 20.4366,-21.8106 31.2082,-18.3355 17.9724,7.4733 23.2543,35.2882 2.2949,50.8122 -7.3927,-16.0124 -18.5604,-26.8381 -33.5031,-32.4767z"/>
   <path id="_388318336" class="fil1 str0" d="M144.486 53.6853c7.7548,-7.9404 15.3826,-12.8739 22.3986,-3.3213 4.4091,7.6872 2.7956,14.5139 -4.8405,20.4803 -4.5686,-7.0744 -10.4609,-12.7526 -17.5581,-17.159z"/>
   <path id="_388319008" class="fil0 str0" d="M110.152 44.9587c37.7231,-1.4098 61.7429,28.0108 62.9638,59.741 -10.9144,-29.447 -30.5762,-47.2312 -62.9638,-48.0467 -32.3876,0.8155 -52.0491,18.5997 -62.9636,48.0467 1.2209,-31.7302 25.2405,-61.1508 62.9636,-59.741z"/>
  </g>
 </g>
</svg>
