<?xml version="1.0" encoding="UTF-8"?>
<!DOCTYPE svg PUBLIC "-//W3C//DTD SVG 1.1//EN" "http://www.w3.org/Graphics/SVG/1.1/DTD/svg11.dtd">
<!-- Creator: CorelDRAW -->
<svg xmlns="http://www.w3.org/2000/svg" xml:space="preserve" width="215.9mm" height="279.4mm" style="shape-rendering:geometricPrecision; text-rendering:geometricPrecision; image-rendering:optimizeQuality; fill-rule:evenodd; clip-rule:evenodd"
viewBox="0 0 215.9 279.4">
 <defs>
  <style type="text/css">
   <![CDATA[
    .str0 {stroke:#1F1A17;stroke-width:0.0762}
    .fil1 {fill:none}
    .fil0 {fill:#9933FF}
   ]]>
  </style>
 </defs>
 <g id="ojos">
  <metadata id="CorelCorpID_0Corel-Layer"/>
  <g id="_388326208">
   <path id="_388325992" class="fil0 str0" d="M186.375 121.157c3.9491,-5.2217 3.1239,-9.9171 -2.4758,-14.0866 -4.7803,-4.5594 -10.2424,-5.2356 -14.8809,-5.5497 -2.5032,-1.1907 -2.7831,8.608 5.0196,11.0053 5.3138,1.4211 10.2274,3.3273 12.3371,8.631z"/>
   <path id="_388326640" class="fil1 str0" d="M169.486 101.553c0.9668,4.6939 3.4055,8.6228 7.3167,11.7871"/>
   <path id="_388326040" class="fil1 str0" d="M172.059 101.802c1.6703,5.4642 4.4255,9.5029 7.7897,12.7419"/>
   <path id="_388326112" class="fil1 str0" d="M175.281 102.392c2.2228,5.4281 6.6365,8.1076 7.4932,13.941"/>
   <path id="_388326280" class="fil1 str0" d="M183.432 116.889c3.4106,-3.0875 0.6148,-7.6744 -4.4261,-12.8035"/>
   <path id="_388326232" class="fil1 str0" d="M185.704 119.742c2.5183,-5.4316 1.1778,-9.6677 -4.021,-12.7084"/>
  </g>
  <g id="_388326376">
   <path id="_388326088" class="fil0 str0" d="M184.916 109.496c3.3387,-5.6316 1.9922,-10.2049 -4.0396,-13.7202 -5.2615,-3.9946 -10.7649,-4.0542 -15.4094,-3.8462 -2.6209,-0.9026 -1.8003,8.8657 6.2219,10.3731 5.4397,0.8163 10.536,2.1596 13.2271,7.1933z"/>
   <path id="_388326184" class="fil1 str0" d="M165.936 91.9102c1.4871,4.5559 4.3509,8.1866 8.5922,10.8924"/>
   <path id="_388326616" class="fil1 str0" d="M168.52 91.8687c2.2724,5.2425 5.463,8.9468 9.1691,11.7882"/>
   <path id="_388326736" class="fil1 str0" d="M171.789 92.0939c2.8174,5.1446 7.5037,7.3124 9.009,13.013"/>
   <path id="_388326496" class="fil1 str0" d="M181.513 105.586c3.0429,-3.4505 -0.2496,-7.695 -5.8338,-12.2266"/>
   <path id="_388326568" class="fil1 str0" d="M184.091 108.166c1.8933,-5.6797 0.0863,-9.7388 -5.4206,-12.1774"/>
  </g>
  <g id="_388326544">
   <path id="_388326472" class="fil0 str0" d="M191.63 139.297c3.9491,-5.2218 3.1239,-9.9172 -2.4757,-14.0867 -4.7804,-4.5593 -10.2425,-5.2356 -14.881,-5.5497 -2.5031,-1.1907 -2.783,8.608 5.0196,11.0053 5.3139,1.4212 10.2274,3.3274 12.3371,8.6311z"/>
   <path id="_388326592" class="fil1 str0" d="M174.741 119.693c0.9668,4.6939 3.4056,8.6228 7.3167,11.7871"/>
   <path id="_388326064" class="fil1 str0" d="M177.314 119.942c1.6703,5.4643 4.4255,9.5029 7.7896,12.7419"/>
   <path id="_388326712" class="fil1 str0" d="M180.536 120.532c2.2228,5.428 6.6364,8.1075 7.4932,13.941"/>
   <path id="_388326520" class="fil1 str0" d="M188.687 135.029c3.4107,-3.0875 0.6148,-7.6744 -4.4261,-12.8035"/>
   <path id="_388326424" class="fil1 str0" d="M190.959 137.882c2.5182,-5.4317 1.1778,-9.6678 -4.021,-12.7085"/>
  </g>
  <g id="_388325560">
   <path id="_388326448" class="fil0 str0" d="M190.171 127.636c3.3387,-5.6317 1.9923,-10.205 -4.0396,-13.7203 -5.2614,-3.9946 -10.7649,-4.0542 -15.4093,-3.8462 -2.6209,-0.9025 -1.8004,8.8658 6.2219,10.3731 5.4396,0.8164 10.536,2.1596 13.227,7.1934z"/>
   <path id="_388326352" class="fil1 str0" d="M171.191 110.05c1.487,4.5559 4.3509,8.1866 8.5922,10.8924"/>
   <path id="_388326016" class="fil1 str0" d="M173.775 110.009c2.2725,5.2425 5.4631,8.9467 9.1692,11.7881"/>
   <path id="_388326160" class="fil1 str0" d="M177.044 110.234c2.8174,5.1446 7.5036,7.3123 9.009,13.0129"/>
   <path id="_388326328" class="fil1 str0" d="M186.768 123.725c3.043,-3.4505 -0.2495,-7.6949 -5.8337,-12.2265"/>
   <path id="_388325584" class="fil1 str0" d="M189.346 126.306c1.8934,-5.6798 0.0864,-9.7388 -5.4206,-12.1775"/>
  </g>
  <g id="_388325752">
   <path id="_388325464" class="fil0 str0" d="M191.516 161.185c4.8215,-4.429 4.8516,-9.1963 0.0904,-14.3023 -3.8853,-5.3427 -9.1376,-6.9874 -13.6446,-8.1282 -2.2491,-1.6203 -4.2815,7.9694 2.9648,11.727 4.9728,2.351 9.465,5.1074 10.5894,10.7035z"/>
   <path id="_388325920" class="fil1 str0" d="M178.416 138.871c0.1095,4.7912 1.8041,9.0937 5.0845,12.9081"/>
   <path id="_388325896" class="fil1 str0" d="M180.903 139.577c0.6634,5.6753 2.6497,10.1425 5.3785,13.9322"/>
   <path id="_388325440" class="fil1 str0" d="M183.967 140.736c1.2135,5.7386 5.0751,9.1662 4.8718,15.0587"/>
   <path id="_388325368" class="fil1 str0" d="M189.386 156.459c3.909,-2.4259 1.981,-7.4397 -2.0584,-13.3897"/>
   <path id="_388325872" class="fil1 str0" d="M191.11 159.674c3.4515,-4.8921 2.8923,-9.2998 -1.6769,-13.2235"/>
  </g>
  <g id="_388325800">
   <path id="_388325488" class="fil0 str0" d="M192.172 149.452c4.2944,-4.9417 3.7899,-9.6823 -1.5138,-14.2222 -4.4599,-4.8734 -9.8635,-5.9189 -14.4699,-6.5471 -2.4166,-1.3579 -3.361,8.3992 4.2609,11.3206 5.2051,1.7786 9.978,4.014 11.7228,9.4487z"/>
   <path id="_388325608" class="fil1 str0" d="M176.653 128.748c0.646,4.7486 2.8124,8.8341 6.4997,12.2566"/>
   <path id="_388325728" class="fil1 str0" d="M179.203 129.17c1.2955,5.5651 3.7702,9.7814 6.9067,13.2413"/>
   <path id="_388325272" class="fil1 str0" d="M182.378 129.978c1.8492,5.5664 6.0708,8.5394 6.5295,14.4175"/>
   <path id="_388325248" class="fil1 str0" d="M189.525 144.995c3.6124,-2.8489 1.1344,-7.615 -3.5467,-13.0745"/>
   <path id="_388325704" class="fil1 str0" d="M191.598 147.996c2.8811,-5.2482 1.8313,-9.5655 -3.1491,-12.9521"/>
  </g>
  <g id="_388323832">
   <path id="_388325416" class="fil0 str0" d="M193.479 179.461c4.8215,-4.429 4.8516,-9.1963 0.0904,-14.3023 -3.8853,-5.3427 -9.1376,-6.9874 -13.6445,-8.1282 -2.2491,-1.6203 -4.2816,7.9694 2.9647,11.727 4.9729,2.351 9.465,5.1074 10.5894,10.7035z"/>
   <path id="_388325680" class="fil1 str0" d="M180.38 157.147c0.1094,4.7912 1.8041,9.0938 5.0844,12.9081"/>
   <path id="_388325824" class="fil1 str0" d="M182.866 157.853c0.6633,5.6752 2.6496,10.1424 5.3784,13.9321"/>
   <path id="_388325632" class="fil1 str0" d="M185.931 159.012c1.2134,5.7387 5.075,9.1662 4.8718,15.0587"/>
   <path id="_388325536" class="fil1 str0" d="M191.349 174.735c3.9091,-2.4259 1.981,-7.4398 -2.0584,-13.3897"/>
   <path id="_388325128" class="fil1 str0" d="M193.073 177.95c3.4514,-4.892 2.8923,-9.2998 -1.677,-13.2235"/>
  </g>
  <g id="_388321120">
   <path id="_388321360" class="fil0 str0" d="M194.135 167.728c4.2945,-4.9417 3.7899,-9.6823 -1.5138,-14.2222 -4.4598,-4.8734 -9.8634,-5.9189 -14.4699,-6.5471 -2.4166,-1.3579 -3.361,8.3992 4.2609,11.3207 5.2051,1.7785 9.978,4.0139 11.7228,9.4486z"/>
   <path id="_388321216" class="fil1 str0" d="M178.616 147.024c0.6459,4.7487 2.8123,8.8341 6.4997,12.2566"/>
   <path id="_388320640" class="fil1 str0" d="M181.166 147.446c1.2956,5.565 3.7702,9.7814 6.9067,13.2412"/>
   <path id="_388320616" class="fil1 str0" d="M184.341 148.254c1.8492,5.5664 6.0708,8.5394 6.5296,14.4175"/>
   <path id="_388321144" class="fil1 str0" d="M191.488 163.271c3.6124,-2.8489 1.1343,-7.615 -3.5468,-13.0745"/>
   <path id="_388320808" class="fil1 str0" d="M193.562 166.272c2.8812,-5.2482 1.8313,-9.5655 -3.1491,-12.9521"/>
  </g>
  <g id="_388319344">
   <path id="_388320736" class="fil0 str0" d="M131.373 50.9405c-1.1267,-6.4493 -5.1239,-9.0474 -11.992,-7.7946 -6.5947,0.3877 -10.8139,3.9219 -14.2065,7.1006 -2.5778,1.019 4.3987,7.9053 11.4727,3.8327 4.6629,-2.9178 9.4077,-5.2121 14.7258,-3.1387z"/>
   <path id="_388321096" class="fil1 str0" d="M105.518 49.9266c4.0926,2.4934 8.6294,3.3887 13.6109,2.6855"/>
   <path id="_388320040" class="fil1 str0" d="M107.455 48.214c5.1358,2.5042 9.9686,3.2428 14.6317,2.9907"/>
   <path id="_456807760" class="fil1 str0" d="M110.084 46.2594c5.4861,2.0754 10.4556,0.6741 15.3067,4.0252"/>
   <path id="_388319176" class="fil1 str0" d="M126.245 50.1831c0.0672,-4.6002 -5.1943,-5.6828 -12.3834,-5.493"/>
   <path id="_388319200" class="fil1 str0" d="M129.881 50.4668c-2.2559,-5.5458 -6.2684,-7.4538 -12.0376,-5.7245"/>
  </g>
  <g id="_388308784">
   <path id="_388319656" class="fil0 str0" d="M118.994 46.9124c-1.8427,-6.2823 -6.106,-8.4158 -12.7903,-6.4008 -6.5096,1.1246 -10.3059,5.1096 -13.3208,8.6487 -2.4473,1.3016 5.2574,7.3622 11.8302,2.5221 4.3063,-3.4222 8.764,-6.234 14.2809,-4.77z"/>
   <path id="_388319224" class="fil1 str0" d="M93.1879 48.8039c4.3464,2.0188 8.9549,2.3998 13.8262,1.1424"/>
   <path id="_388319152" class="fil1 str0" d="M94.9199 46.885c5.3843,1.9126 10.2694,2.1047 14.8749,1.3313"/>
   <path id="_456804712" class="fil1 str0" d="M97.3133 44.6479c5.6842,1.4472 10.4653,-0.5024 15.6616,2.2836"/>
   <path id="_388309840" class="fil1 str0" d="M113.813 46.7348c-0.4489,-4.5786 -5.7987,-5.0645 -12.9212,-4.0699"/>
   <path id="_382272920" class="fil1 str0" d="M117.458 46.609c-2.8635,-5.2579 -7.0647,-6.704 -12.6036,-4.3387"/>
  </g>
  <g id="_226106112">
   <path id="_382270952" class="fil0 str0" d="M149.703 62.4588c0.7117,-6.5081 -2.4051,-10.1155 -9.3506,-10.8225 -6.4423,-1.462 -11.478,0.7591 -15.6209,2.8687 -2.7596,0.2618 2.0262,8.8169 9.9538,6.8727 5.2906,-1.5057 10.4863,-2.3896 15.0177,1.0811z"/>
   <path id="_382263968" class="fil1 str0" d="M125.15 54.2932c3.2375,3.5334 7.3463,5.6553 12.3268,6.3655"/>
   <path id="_382272776" class="fil1 str0" d="M127.487 53.1868c4.2366,3.834 8.6732,5.8877 13.2225,6.9426"/>
   <path id="_382267976" class="fil1 str0" d="M130.556 52.0406c4.6923,3.5195 9.8555,3.5558 13.583,8.124"/>
   <path id="_382269992" class="fil1 str0" d="M144.988 60.3048c1.3441,-4.3999 -3.4087,-6.9033 -10.3668,-8.7208"/>
   <path id="_382272104" class="fil1 str0" d="M148.402 61.5888c-0.6243,-5.9544 -3.9478,-8.9032 -9.9703,-8.8468"/>
  </g>
  <g id="_382273160">
   <path id="_456817120" class="fil0 str0" d="M139.61 51.8151c-1.8428,-6.2823 -6.1061,-8.4158 -12.7904,-6.4008 -6.5096,1.1246 -10.3059,5.1096 -13.3207,8.6487 -2.4473,1.3016 5.2573,7.3622 11.8301,2.5221 4.3063,-3.4222 8.764,-6.234 14.281,-4.77z"/>
   <path id="_382265000" class="fil1 str0" d="M113.804 53.7066c4.3464,2.0188 8.955,2.3998 13.8262,1.1424"/>
   <path id="_456825568" class="fil1 str0" d="M115.536 51.7877c5.3842,1.9126 10.2693,2.1047 14.8748,1.3313"/>
   <path id="_382274048" class="fil1 str0" d="M117.93 49.5506c5.6842,1.4472 10.4653,-0.5024 15.6616,2.2836"/>
   <path id="_226106616" class="fil1 str0" d="M134.429 51.6375c-0.449,-4.5786 -5.7988,-5.0645 -12.9212,-4.0699"/>
   <path id="_381266352" class="fil1 str0" d="M138.074 51.5117c-2.8635,-5.2579 -7.0647,-6.704 -12.6036,-4.3387"/>
  </g>
  <g id="_382272680">
   <path id="_382273184" class="fil0 str0" d="M168.996 79.8421c1.8671,-6.275 -0.5522,-10.3828 -7.2584,-12.3239 -6.0757,-2.5934 -11.4281,-1.3113 -15.8821,0.0211 -2.7618,-0.2372 0.4123,9.0373 8.5601,8.5462 5.4747,-0.5325 10.7447,-0.4704 14.5804,3.7566z"/>
   <path id="_382272848" class="fil1 str0" d="M146.305 67.406c2.5514,4.0568 6.213,6.881 10.9855,8.4728"/>
   <path id="_382264232" class="fil1 str0" d="M148.802 66.7365c3.4804,4.5316 7.4769,7.3476 11.7632,9.2011"/>
   <path id="_382263464" class="fil1 str0" d="M152.027 66.1592c3.9851,4.3039 9.0581,5.2655 11.9061,10.4281"/>
   <path id="_382271480" class="fil1 str0" d="M164.743 76.8774c2.1114,-4.0875 -2.1155,-7.4026 -8.6349,-10.4383"/>
   <path id="_382265384" class="fil1 str0" d="M167.872 78.7529c0.4536,-5.9698 -2.2872,-9.4668 -8.2222,-10.4913"/>
  </g>
  <g id="_382271240">
   <path id="_456794608" class="fil0 str0" d="M161.089 70.8987c1.1518,-6.4448 -1.7129,-10.2555 -8.5944,-11.4323 -6.3281,-1.896 -11.503,-0.0218 -15.7796,1.8017 -2.7709,0.0738 1.423,8.9341 9.4644,7.5325 5.3805,-1.1431 10.6243,-1.6723 14.9096,2.0981z"/>
   <path id="_382272656" class="fil1 str0" d="M137.147 61.0852c2.9903,3.745 6.9455,6.1409 11.8663,7.1875"/>
   <path id="_382261184" class="fil1 str0" d="M139.553 60.1399c3.9665,4.1128 8.2535,6.4629 12.7207,7.8242"/>
   <path id="_382271072" class="fil1 str0" d="M142.693 59.2047c4.4425,3.8299 9.5914,4.2166 13.0002,9.0273"/>
   <path id="_382271576" class="fil1 str0" d="M156.531 68.4295c1.6397,-4.2985 -2.9322,-7.1188 -9.7509,-9.4043"/>
   <path id="_382271120" class="fil1 str0" d="M159.85 69.9424c-0.2187,-5.9831 -3.3343,-9.1507 -9.3467,-9.5033"/>
  </g>
  <g id="_382271768">
   <path id="_382271264" class="fil0 str0" d="M181.342 100.154c2.5707,-6.0211 0.6357,-10.3781 -5.8054,-13.0713 -5.7402,-3.2696 -11.2039,-2.6063 -15.7808,-1.7906 -2.7167,-0.5507 -0.6212,9.0254 7.5295,9.4668 5.4997,0.0954 10.7283,0.7581 14.0567,5.3951z"/>
   <path id="_382272176" class="fil1 str0" d="M160.218 85.2105c2.0721,4.3213 5.3877,7.5447 9.9475,9.6705"/>
   <path id="_382272392" class="fil1 str0" d="M162.775 84.8302c2.9408,4.8989 6.59,8.1523 10.637,10.4827"/>
   <path id="_382272224" class="fil1 str0" d="M166.044 84.6245c3.4682,4.7303 8.3984,6.2642 10.639,11.7179"/>
   <path id="_382272320" class="fil1 str0" d="M177.455 96.7231c2.5637,-3.8201 -1.2574,-7.5957 -7.388,-11.3552"/>
   <path id="_382272272" class="fil1 str0" d="M180.349 98.9431c1.1315,-5.8791 -1.1926,-9.6658 -6.972,-11.3606"/>
  </g>
  <g id="_382268648">
   <path id="_382272368" class="fil0 str0" d="M177.109 89.191c1.8794,-6.2714 -0.532,-10.384 -7.2344,-12.338 -6.0706,-2.6054 -11.4255,-1.3337 -15.8821,-0.0099 -2.7613,-0.2426 0.3947,9.0381 8.5434,8.5629 5.4758,-0.5219 10.7457,-0.4496 14.5731,3.785z"/>
   <path id="_382272008" class="fil1 str0" d="M154.443 76.7107c2.5436,4.0617 6.1997,6.8931 10.9691,8.4941"/>
   <path id="_382272056" class="fil1 str0" d="M156.941 76.0461c3.4716,4.5382 7.4625,7.362 11.7453,9.2239"/>
   <path id="_382272824" class="fil1 str0" d="M160.167 75.475c3.9767,4.3117 9.0478,5.2831 11.8857,10.4512"/>
   <path id="_382272608" class="fil1 str0" d="M172.862 86.218c2.1193,-4.0835 -2.101,-7.4068 -8.6146,-10.4552"/>
   <path id="_382268792" class="fil1 str0" d="M175.987 88.0995c0.4652,-5.9689 -2.2688,-9.4712 -8.2018,-10.5073"/>
  </g>
  <polygon class="fil0 str0" points="188.472,171.587 194.917,172.954 204.487,180.571 204.096,183.11 203.315,186.43 206.635,191.312 204.878,193.07 200.776,189.164 207.807,206.936 206.245,209.085 207.026,211.233 209.76,222.951 207.612,223.537 204.682,212.795 202.729,209.866 201.753,212.209 202.143,215.334 199.995,214.748 199.8,206.546 197.456,198.929 198.628,202.738 195.308,203.616 196.48,206.741 199.897,210.647 198.628,220.803 197.261,222.951 196.87,217.483 194.917,221.389 194.527,227.638 191.988,229.786 189.644,229.396 190.23,222.756 187.105,222.365 189.644,229.396 186.324,230.177 185.348,223.537 185.836,226.857 181.832,227.052 180.66,222.756 177.731,214.748 175.192,222.17 171.872,230.568 169.138,229.396 173.825,220.412 169.138,229.396 165.232,227.833 172.653,217.873 174.802,208.303 171.481,213.772 167.771,213.967 168.943,209.671 165.427,209.671 163.669,212.209 160.154,212.209 158.201,214.748 153.709,220.607 150.584,220.021 154.686,213.772 152.733,212.6 159.568,205.179 158.982,201.077 155.467,205.374 152.342,204.398 149.217,205.96 146.678,204.788 142.382,208.694 139.648,208.108 145.897,201.663 151.952,195.609 157.029,190.727 162.107,183.305 169.919,177.837 176.95,173.736 183.004,172.173 "/>
  <polyline class="fil1 str0" points="185.967,173.634 191.177,178.993 191.177,192.471 191.475,202.067 191.475,212.487 190.23,222.756 "/>
  <polyline class="fil1 str0" points="188.944,173.187 193.416,178.249 193.416,192.471 194.155,199.834 194.155,206.533 194.452,212.636 194.917,221.389 "/>
  <line class="fil1 str0" x1="194.75" y1="179.439" x2="200.853" y2= "184.947" />
  <polyline class="fil1 str0" points="191.695,172.271 194.601,175.569 198.323,178.397 201.895,182.119 204.096,183.11 "/>
  <polyline class="fil1 str0" points="184.478,175.867 188.647,181.97 188.647,193.284 189.093,202.513 189.093,209.51 189.093,219.484 188.668,222.56 "/>
  <polyline class="fil1 str0" points="185.223,180.035 186.86,186.287 187.158,196.857 187.753,208.319 187.158,220.377 "/>
  <polyline class="fil1 str0" points="182.692,176.313 183.436,180.63 183.734,187.925 184.999,201.248 185.223,215.464 184.627,221.866 "/>
  <polyline class="fil1 str0" points="178.202,173.412 167.955,181.97 160.214,188.669 157.981,194.772 151.282,200.132 147.709,202.96 "/>
  <polyline class="fil1 str0" points="178.524,175.271 174.356,180.035 172.569,190.902 169.146,192.471 163.935,205.639 163.042,209.51 "/>
  <polyline class="fil1 str0" points="180.459,176.165 176.886,180.482 174.653,192.471 171.676,195.368 166.913,206.83 "/>
  <polyline class="fil1 str0" points="180.906,179.142 179.566,191.051 180.161,199.089 180.757,207.277 180.906,215.316 180.66,222.756 "/>
  <polyline class="fil1 str0" points="181.948,184.501 182.394,197.452 183.139,212.189 183.585,224.843 "/>
  <polyline class="fil1 str0" points="179.119,183.31 177.333,190.902 172.569,201.322 168.848,207.426 "/>
  <polyline class="fil1 str0" points="178.226,194.475 174.653,202.96 171.081,209.063 "/>
  <line class="fil1 str0" x1="178.524" y1="199.238" x2="174.802" y2= "208.303" />
  <polyline class="fil1 str0" points="179.268,205.193 176.886,209.659 175.398,215.911 173.825,220.412 "/>
  <line class="fil1 str0" x1="178.673" y1="209.063" x2="177.731" y2= "214.748" />
  <polyline class="fil1 str0" points="175.547,175.63 167.955,181.97 162.596,190.455 158.725,196.261 152.919,202.662 "/>
  <polyline class="fil1 str0" points="171.751,178.8 172.569,181.672 170.039,184.799 167.061,188.371 163.191,194.326 160.511,198.643 158.982,201.077 "/>
  <polyline class="fil1 str0" points="171.527,186.585 167.508,191.497 164.68,195.963 162.149,201.174 158.711,206.109 "/>
  <polyline class="fil1 str0" points="162.596,204.3 159.172,209.212 154.686,213.772 "/>
  <polyline class="fil1 str0" points="194.835,182.439 198.384,189.03 203.116,199.338 205.482,206.942 "/>
  <polyline class="fil1 str0" points="194.497,187.847 198.046,194.606 200.75,201.197 202.947,207.28 "/>
  <line class="fil1 str0" x1="195.173" y1="193.592" x2="197.456" y2= "198.929" />
  <line class="fil1 str0" x1="194.303" y1="209.584" x2="196.87" y2= "217.483" />
  <line class="fil1 str0" x1="196.48" y1="206.741" x2="198.046" y2= "214.547" />
  <line class="fil1 str0" x1="196.968" y1="203.177" x2="195.511" y2= "197.986" />
  <g id="_382268672">
   <path id="_382268528" class="fil0 str0" d="M32.9846 121.157c-3.9491,-5.2217 -3.1239,-9.9171 2.4758,-14.0866 4.7803,-4.5594 10.2424,-5.2356 14.8809,-5.5497 2.5032,-1.1907 2.783,8.608 -5.0196,11.0053 -5.3138,1.4211 -10.2274,3.3273 -12.3371,8.631z"/>
   <path id="_382268000" class="fil1 str0" d="M49.8732 101.553c-0.9668,4.6939 -3.4055,8.6228 -7.3167,11.7871"/>
   <path id="_382268312" class="fil1 str0" d="M47.3002 101.802c-1.6703,5.4642 -4.4254,9.5029 -7.7896,12.7419"/>
   <path id="_384441000" class="fil1 str0" d="M44.0777 102.392c-2.2228,5.4281 -6.6364,8.1076 -7.4931,13.941"/>
   <path id="_382269368" class="fil1 str0" d="M35.9277 116.889c-3.4106,-3.0875 -0.6148,-7.6744 4.4261,-12.8035"/>
   <path id="_382268960" class="fil1 str0" d="M33.6555 119.742c-2.5183,-5.4316 -1.1778,-9.6677 4.021,-12.7084"/>
  </g>
  <g id="_382264328">
   <path id="_382269200" class="fil0 str0" d="M34.4434 109.496c-3.3387,-5.6316 -1.9922,-10.2049 4.0396,-13.7202 5.2614,-3.9946 10.7649,-4.0542 15.4094,-3.8462 2.6209,-0.9026 1.8003,8.8657 -6.2219,10.3731 -5.4397,0.8163 -10.536,2.1596 -13.2271,7.1933z"/>
   <path id="_382272872" class="fil1 str0" d="M53.4235 91.9102c-1.487,4.5559 -4.3508,8.1866 -8.5922,10.8924"/>
   <path id="_382264640" class="fil1 str0" d="M50.8389 91.8687c-2.2724,5.2425 -5.463,8.9468 -9.1692,11.7882"/>
   <path id="_382265288" class="fil1 str0" d="M47.5706 92.0939c-2.8174,5.1446 -7.5037,7.3124 -9.0091,13.013"/>
   <path id="_382268504" class="fil1 str0" d="M37.8465 105.586c-3.043,-3.4505 0.2496,-7.695 5.8338,-12.2266"/>
   <path id="_382261160" class="fil1 str0" d="M35.2686 108.166c-1.8933,-5.6797 -0.0864,-9.7388 5.4206,-12.1774"/>
  </g>
  <g id="_382268096">
   <path id="_382268192" class="fil0 str0" d="M27.7295 139.297c-3.9491,-5.2218 -3.1239,-9.9172 2.4758,-14.0867 4.7803,-4.5593 10.2425,-5.2356 14.8809,-5.5497 2.5032,-1.1907 2.7831,8.608 -5.0195,11.0053 -5.3139,1.4212 -10.2275,3.3274 -12.3372,8.6311z"/>
   <path id="_382265624" class="fil1 str0" d="M44.6182 119.693c-0.9669,4.6939 -3.4056,8.6228 -7.3168,11.7871"/>
   <path id="_382267376" class="fil1 str0" d="M42.0452 119.942c-1.6703,5.4643 -4.4255,9.5029 -7.7896,12.7419"/>
   <path id="_382265744" class="fil1 str0" d="M38.8227 120.532c-2.2228,5.428 -6.6365,8.1075 -7.4932,13.941"/>
   <path id="_382267784" class="fil1 str0" d="M30.6727 135.029c-3.4107,-3.0875 -0.6149,-7.6744 4.4261,-12.8035"/>
   <path id="_382264184" class="fil1 str0" d="M28.4004 137.882c-2.5183,-5.4317 -1.1778,-9.6678 4.021,-12.7085"/>
  </g>
  <g id="_382264280">
   <path id="_382265168" class="fil0 str0" d="M29.1883 127.636c-3.3387,-5.6317 -1.9922,-10.205 4.0396,-13.7203 5.2615,-3.9946 10.7649,-4.0542 15.4094,-3.8462 2.6209,-0.9025 1.8003,8.8658 -6.2219,10.3731 -5.4397,0.8164 -10.536,2.1596 -13.2271,7.1934z"/>
   <path id="_382268480" class="fil1 str0" d="M48.1685 110.05c-1.487,4.5559 -4.3509,8.1866 -8.5922,10.8924"/>
   <path id="_382264088" class="fil1 str0" d="M45.5838 110.009c-2.2724,5.2425 -5.463,8.9467 -9.1691,11.7881"/>
   <path id="_382268168" class="fil1 str0" d="M42.3155 110.234c-2.8174,5.1446 -7.5036,7.3123 -9.009,13.0129"/>
   <path id="_382263440" class="fil1 str0" d="M32.5914 123.725c-3.0429,-3.4505 0.2496,-7.6949 5.8338,-12.2265"/>
   <path id="_382264928" class="fil1 str0" d="M30.0135 126.306c-1.8933,-5.6798 -0.0863,-9.7388 5.4206,-12.1775"/>
  </g>
  <g id="_382281560">
   <path id="_382273424" class="fil0 str0" d="M27.8433 161.185c-4.8215,-4.429 -4.8516,-9.1963 -0.0904,-14.3023 3.8853,-5.3427 9.1376,-6.9874 13.6445,-8.1282 2.2491,-1.6203 4.2816,7.9694 -2.9647,11.727 -4.9729,2.351 -9.465,5.1074 -10.5894,10.7035z"/>
   <path id="_382264136" class="fil1 str0" d="M40.9429 138.871c-0.1095,4.7912 -1.8041,9.0937 -5.0845,12.9081"/>
   <path id="_382280264" class="fil1 str0" d="M38.4562 139.577c-0.6634,5.6753 -2.6497,10.1425 -5.3785,13.9322"/>
   <path id="_382281128" class="fil1 str0" d="M35.3917 140.736c-1.2134,5.7386 -5.075,9.1662 -4.8718,15.0587"/>
   <path id="_382281488" class="fil1 str0" d="M29.9734 156.459c-3.9091,-2.4259 -1.981,-7.4397 2.0584,-13.3897"/>
   <path id="_382281536" class="fil1 str0" d="M28.2496 159.674c-3.4514,-4.8921 -2.8923,-9.2998 1.677,-13.2235"/>
  </g>
  <g id="_382261472">
   <path id="_382281824" class="fil0 str0" d="M27.1875 149.452c-4.2944,-4.9417 -3.7899,-9.6823 1.5138,-14.2222 4.4598,-4.8734 9.8634,-5.9189 14.4699,-6.5471 2.4166,-1.3579 3.361,8.3992 -4.2609,11.3206 -5.2051,1.7786 -9.978,4.014 -11.7228,9.4487z"/>
   <path id="_382282016" class="fil1 str0" d="M42.7064 128.748c-0.6459,4.7486 -2.8123,8.8341 -6.4997,12.2566"/>
   <path id="_382283192" class="fil1 str0" d="M40.1563 129.17c-1.2956,5.5651 -3.7702,9.7814 -6.9067,13.2413"/>
   <path id="_382259504" class="fil1 str0" d="M36.9813 129.978c-1.8492,5.5664 -6.0708,8.5394 -6.5296,14.4175"/>
   <path id="_382259600" class="fil1 str0" d="M29.8341 144.995c-3.6124,-2.8489 -1.1343,-7.615 3.5468,-13.0745"/>
   <path id="_382975680" class="fil1 str0" d="M27.7608 147.996c-2.8811,-5.2482 -1.8313,-9.5655 3.1491,-12.9521"/>
  </g>
  <g id="_382263176">
   <path id="_382261544" class="fil0 str0" d="M25.8799 179.461c-4.8214,-4.429 -4.8516,-9.1963 -0.0903,-14.3023 3.8852,-5.3427 9.1375,-6.9874 13.6445,-8.1282 2.2491,-1.6203 4.2815,7.9694 -2.9647,11.727 -4.9729,2.351 -9.465,5.1074 -10.5895,10.7035z"/>
   <path id="_382261088" class="fil1 str0" d="M38.9795 157.147c-0.1094,4.7912 -1.8041,9.0938 -5.0845,12.9081"/>
   <path id="_382262336" class="fil1 str0" d="M36.4928 157.853c-0.6634,5.6752 -2.6497,10.1424 -5.3785,13.9321"/>
   <path id="_382262168" class="fil1 str0" d="M33.4284 159.012c-1.2134,5.7387 -5.075,9.1662 -4.8718,15.0587"/>
   <path id="_382262408" class="fil1 str0" d="M28.01 174.735c-3.909,-2.4259 -1.981,-7.4398 2.0585,-13.3897"/>
   <path id="_382262696" class="fil1 str0" d="M26.2863 177.95c-3.4514,-4.892 -2.8923,-9.2998 1.677,-13.2235"/>
  </g>
  <g id="_382264808">
   <path id="_382275560" class="fil0 str0" d="M25.2242 167.728c-4.2945,-4.9417 -3.7899,-9.6823 1.5138,-14.2222 4.4598,-4.8734 9.8634,-5.9189 14.4699,-6.5471 2.4165,-1.3579 3.3609,8.3992 -4.261,11.3207 -5.2051,1.7785 -9.9779,4.0139 -11.7227,9.4486z"/>
   <path id="_382264376" class="fil1 str0" d="M40.7431 147.024c-0.646,4.7487 -2.8123,8.8341 -6.4997,12.2566"/>
   <path id="_382264472" class="fil1 str0" d="M38.1929 147.446c-1.2955,5.565 -3.7701,9.7814 -6.9067,13.2412"/>
   <path id="_382264976" class="fil1 str0" d="M35.0179 148.254c-1.8492,5.5664 -6.0707,8.5394 -6.5295,14.4175"/>
   <path id="_382265528" class="fil1 str0" d="M27.8708 163.271c-3.6124,-2.8489 -1.1343,-7.615 3.5467,-13.0745"/>
   <path id="_382265312" class="fil1 str0" d="M25.7975 166.272c-2.8812,-5.2482 -1.8314,-9.5655 3.1491,-12.9521"/>
  </g>
  <g id="_382266392">
   <path id="_382265096" class="fil0 str0" d="M87.9858 50.9405c1.1267,-6.4493 5.1239,-9.0474 11.992,-7.7946 6.5947,0.3877 10.8138,3.9219 14.2065,7.1006 2.5778,1.019 -4.3987,7.9053 -11.4727,3.8327 -4.663,-2.9178 -9.4078,-5.2121 -14.7258,-3.1387z"/>
   <path id="_382265144" class="fil1 str0" d="M113.841 49.9266c-4.0926,2.4934 -8.6294,3.3887 -13.6109,2.6855"/>
   <path id="_382265888" class="fil1 str0" d="M111.905 48.214c-5.1358,2.5042 -9.9686,3.2428 -14.6318,2.9907"/>
   <path id="_382265768" class="fil1 str0" d="M109.276 46.2594c-5.4861,2.0754 -10.4556,0.6741 -15.3068,4.0252"/>
   <path id="_382267088" class="fil1 str0" d="M93.1144 50.1831c-0.0672,-4.6002 5.1943,-5.6828 12.3834,-5.493"/>
   <path id="_382266536" class="fil1 str0" d="M89.4778 50.4668c2.2558,-5.5458 6.2684,-7.4538 12.0376,-5.7245"/>
  </g>
  <g id="_382264352">
   <path id="_382266560" class="fil0 str0" d="M100.365 46.9124c1.8428,-6.2823 6.1061,-8.4158 12.7904,-6.4008 6.5096,1.1246 10.3059,5.1096 13.3207,8.6487 2.4473,1.3016 -5.2573,7.3622 -11.8301,2.5221 -4.3063,-3.4222 -8.764,-6.234 -14.281,-4.77z"/>
   <path id="_382266824" class="fil1 str0" d="M126.171 48.8039c-4.3464,2.0188 -8.955,2.3998 -13.8262,1.1424"/>
   <path id="_382266848" class="fil1 str0" d="M124.439 46.885c-5.3842,1.9126 -10.2693,2.1047 -14.8748,1.3313"/>
   <path id="_382267112" class="fil1 str0" d="M122.046 44.6479c-5.6842,1.4472 -10.4653,-0.5024 -15.6616,2.2836"/>
   <path id="_382267136" class="fil1 str0" d="M105.547 46.7348c0.449,-4.5786 5.7988,-5.0645 12.9212,-4.0699"/>
   <path id="_382268552" class="fil1 str0" d="M101.901 46.609c2.8635,-5.2579 7.0647,-6.704 12.6036,-4.3387"/>
  </g>
  <g id="_381830616">
   <path id="_382264304" class="fil0 str0" d="M69.6559 62.4588c-0.7116,-6.5081 2.4052,-10.1155 9.3507,-10.8225 6.4422,-1.462 11.478,0.7591 15.6209,2.8687 2.7596,0.2618 -2.0262,8.8169 -9.9539,6.8727 -5.2905,-1.5057 -10.4862,-2.3896 -15.0177,1.0811z"/>
   <path id="_382262816" class="fil1 str0" d="M94.2088 54.2932c-3.2376,3.5334 -7.3463,5.6553 -12.3268,6.3655"/>
   <path id="_382978224" class="fil1 str0" d="M91.8726 53.1868c-4.2366,3.834 -8.6733,5.8877 -13.2225,6.9426"/>
   <path id="_382977960" class="fil1 str0" d="M88.8035 52.0406c-4.6923,3.5195 -9.8555,3.5558 -13.5831,8.124"/>
   <path id="_382977624" class="fil1 str0" d="M74.3715 60.3048c-1.3441,-4.3999 3.4086,-6.9033 10.3668,-8.7208"/>
   <path id="_382978008" class="fil1 str0" d="M70.9573 61.5888c0.6242,-5.9544 3.9477,-8.9032 9.9702,-8.8468"/>
  </g>
  <g id="_381830256">
   <path id="_381830088" class="fil0 str0" d="M79.7491 51.8151c1.8427,-6.2823 6.106,-8.4158 12.7903,-6.4008 6.5097,1.1246 10.306,5.1096 13.3208,8.6487 2.4473,1.3016 -5.2573,7.3622 -11.8301,2.5221 -4.3064,-3.4222 -8.764,-6.234 -14.281,-4.77z"/>
   <path id="_381830568" class="fil1 str0" d="M105.555 53.7066c-4.3464,2.0188 -8.955,2.3998 -13.8262,1.1424"/>
   <path id="_381830376" class="fil1 str0" d="M103.823 51.7877c-5.3842,1.9126 -10.2694,2.1047 -14.8748,1.3313"/>
   <path id="_381830112" class="fil1 str0" d="M101.43 49.5506c-5.6842,1.4472 -10.4653,-0.5024 -15.6615,2.2836"/>
   <path id="_381830424" class="fil1 str0" d="M84.9303 51.6375c0.449,-4.5786 5.7987,-5.0645 12.9212,-4.0699"/>
   <path id="_381830808" class="fil1 str0" d="M81.2848 51.5117c2.8635,-5.2579 7.0646,-6.704 12.6035,-4.3387"/>
  </g>
  <g id="_382264592">
   <path id="_381830304" class="fil0 str0" d="M50.3632 79.8421c-1.8671,-6.275 0.5522,-10.3828 7.2584,-12.3239 6.0757,-2.5934 11.4281,-1.3113 15.8821,0.0211 2.7618,-0.2372 -0.4123,9.0373 -8.5601,8.5462 -5.4748,-0.5325 -10.7448,-0.4704 -14.5804,3.7566z"/>
   <path id="_381830856" class="fil1 str0" d="M73.0538 67.406c-2.5514,4.0568 -6.2131,6.881 -10.9855,8.4728"/>
   <path id="_381831144" class="fil1 str0" d="M70.5571 66.7365c-3.4805,4.5316 -7.4769,7.3476 -11.7633,9.2011"/>
   <path id="_381831240" class="fil1 str0" d="M67.3322 66.1592c-3.9851,4.3039 -9.0581,5.2655 -11.9061,10.4281"/>
   <path id="_382263608" class="fil1 str0" d="M54.6161 76.8774c-2.1114,-4.0875 2.1154,-7.4026 8.6349,-10.4383"/>
   <path id="_382267568" class="fil1 str0" d="M51.4874 78.7529c-0.4535,-5.9698 2.2873,-9.4668 8.2223,-10.4913"/>
  </g>
  <g id="_382976544">
   <path id="_382975800" class="fil0 str0" d="M58.2699 70.8987c-1.1518,-6.4448 1.7129,-10.2555 8.5945,-11.4323 6.3281,-1.896 11.503,-0.0218 15.7795,1.8017 2.771,0.0738 -1.423,8.9341 -9.4643,7.5325 -5.3805,-1.1431 -10.6243,-1.6723 -14.9097,2.0981z"/>
   <path id="_382975440" class="fil1 str0" d="M82.2118 61.0852c-2.9902,3.745 -6.9454,6.1409 -11.8662,7.1875"/>
   <path id="_382975416" class="fil1 str0" d="M79.8059 60.1399c-3.9666,4.1128 -8.2536,6.4629 -12.7207,7.8242"/>
   <path id="_382975248" class="fil1 str0" d="M76.6661 59.2047c-4.4426,3.8299 -9.5914,4.2166 -13.0002,9.0273"/>
   <path id="_382975272" class="fil1 str0" d="M62.8284 68.4295c-1.6397,-4.2985 2.9321,-7.1188 9.7509,-9.4043"/>
   <path id="_382976472" class="fil1 str0" d="M59.5092 69.9424c0.2186,-5.9831 3.3343,-9.1507 9.3467,-9.5033"/>
  </g>
  <g id="_382977000">
   <path id="_382977168" class="fil0 str0" d="M38.0174 100.154c-2.5707,-6.0211 -0.6357,-10.3781 5.8053,-13.0713 5.7402,-3.2696 11.2039,-2.6063 15.7809,-1.7906 2.7167,-0.5507 0.6212,9.0254 -7.5295,9.4668 -5.4997,0.0954 -10.7283,0.7581 -14.0567,5.3951z"/>
   <path id="_382976952" class="fil1 str0" d="M59.1415 85.2105c-2.0722,4.3213 -5.3878,7.5447 -9.9475,9.6705"/>
   <path id="_382976928" class="fil1 str0" d="M56.5846 84.8302c-2.9408,4.8989 -6.59,8.1523 -10.637,10.4827"/>
   <path id="_382976976" class="fil1 str0" d="M53.315 84.6245c-3.4683,4.7303 -8.3985,6.2642 -10.639,11.7179"/>
   <path id="_382976832" class="fil1 str0" d="M41.9043 96.7231c-2.5638,-3.8201 1.2573,-7.5957 7.388,-11.3552"/>
   <path id="_382977192" class="fil1 str0" d="M39.01 98.9431c-1.1315,-5.8791 1.1926,-9.6658 6.972,-11.3606"/>
  </g>
  <g id="_382988328">
   <path id="_382977024" class="fil0 str0" d="M42.2498 89.191c-1.8794,-6.2714 0.532,-10.384 7.2344,-12.338 6.0706,-2.6054 11.4254,-1.3337 15.8821,-0.0099 2.7613,-0.2426 -0.3947,9.0381 -8.5435,8.5629 -5.4757,-0.5219 -10.7456,-0.4496 -14.573,3.785z"/>
   <path id="_382977240" class="fil1 str0" d="M64.9161 76.7107c-2.5435,4.0617 -6.1996,6.8931 -10.969,8.4941"/>
   <path id="_382977504" class="fil1 str0" d="M62.4181 76.0461c-3.4716,4.5382 -7.4626,7.362 -11.7453,9.2239"/>
   <path id="_382976760" class="fil1 str0" d="M59.1921 75.475c-3.9767,4.3117 -9.0478,5.2831 -11.8858,10.4512"/>
   <path id="_382261064" class="fil1 str0" d="M46.4969 86.218c-2.1193,-4.0835 2.101,-7.4068 8.6146,-10.4552"/>
   <path id="_382266632" class="fil1 str0" d="M43.3719 88.0995c-0.4652,-5.9689 2.2688,-9.4712 8.2018,-10.5073"/>
  </g>
  <polygon class="fil0 str0" points="30.8868,171.587 24.4419,172.954 14.8723,180.571 15.2629,183.11 16.0441,186.43 12.724,191.312 14.4817,193.07 18.5829,189.164 11.5522,206.936 13.1146,209.085 12.3334,211.233 9.5992,222.951 11.7475,223.537 14.677,212.795 16.63,209.866 17.6065,212.209 17.2159,215.334 19.3641,214.748 19.5594,206.546 21.903,198.929 20.7312,202.738 24.0513,203.616 22.8795,206.741 19.4618,210.647 20.7312,220.803 22.0983,222.951 22.4889,217.483 24.4419,221.389 24.8325,227.638 27.3714,229.786 29.715,229.396 29.1291,222.756 32.2539,222.365 29.715,229.396 33.0351,230.177 34.0116,223.537 33.5234,226.857 37.5269,227.052 38.6987,222.756 41.6282,214.748 44.1671,222.17 47.4872,230.568 50.2214,229.396 45.5342,220.412 50.2214,229.396 54.1273,227.833 46.706,217.873 44.5577,208.303 47.8778,213.772 51.5885,213.967 50.4167,209.671 53.932,209.671 55.6897,212.209 59.2051,212.209 61.1581,214.748 65.65,220.607 68.7748,220.021 64.6735,213.772 66.6265,212.6 59.791,205.179 60.3769,201.077 63.8923,205.374 67.0171,204.398 70.1419,205.96 72.6807,204.788 76.9773,208.694 79.7115,208.108 73.4619,201.663 67.4077,195.609 62.3299,190.727 57.2521,183.305 49.4402,177.837 42.4094,173.736 36.3551,172.173 "/>
  <polyline class="fil1 str0" points="33.3922,173.634 28.1819,178.993 28.1819,192.471 27.8842,202.067 27.8842,212.487 29.1291,222.756 "/>
  <polyline class="fil1 str0" points="30.4149,173.187 25.9436,178.249 25.9436,192.471 25.2047,199.834 25.2047,206.533 24.9069,212.636 24.4419,221.389 "/>
  <line class="fil1 str0" x1="24.6092" y1="179.439" x2="18.5058" y2= "184.947" />
  <polyline class="fil1 str0" points="27.6644,172.271 24.7581,175.569 21.0365,178.397 17.4638,182.119 15.2629,183.11 "/>
  <polyline class="fil1 str0" points="34.8808,175.867 30.7126,181.97 30.7126,193.284 30.266,202.513 30.266,209.51 30.266,219.484 30.6915,222.56 "/>
  <polyline class="fil1 str0" points="34.1365,180.035 32.499,186.287 32.2013,196.857 31.6058,208.319 32.2013,220.377 "/>
  <polyline class="fil1 str0" points="36.6672,176.313 35.9228,180.63 35.6251,187.925 34.3598,201.248 34.1365,215.464 34.7319,221.866 "/>
  <polyline class="fil1 str0" points="41.1567,173.412 51.4046,181.97 59.1455,188.669 61.3785,194.772 68.0773,200.132 71.65,202.96 "/>
  <polyline class="fil1 str0" points="40.8353,175.271 45.0035,180.035 46.7899,190.902 50.2137,192.471 55.4239,205.639 56.3171,209.51 "/>
  <polyline class="fil1 str0" points="38.9001,176.165 42.4728,180.482 44.7058,192.471 47.683,195.368 52.4467,206.83 "/>
  <polyline class="fil1 str0" points="38.4535,179.142 39.7933,191.051 39.1978,199.089 38.6024,207.277 38.4535,215.316 38.6987,222.756 "/>
  <polyline class="fil1 str0" points="37.4115,184.501 36.9649,197.452 36.2206,212.189 35.774,224.843 "/>
  <polyline class="fil1 str0" points="40.2399,183.31 42.0262,190.902 46.7899,201.322 50.5114,207.426 "/>
  <polyline class="fil1 str0" points="41.1331,194.475 44.7058,202.96 48.2785,209.063 "/>
  <line class="fil1 str0" x1="40.8353" y1="199.238" x2="44.5577" y2= "208.303" />
  <polyline class="fil1 str0" points="40.091,205.193 42.4728,209.659 43.9615,215.911 45.5342,220.412 "/>
  <line class="fil1 str0" x1="40.6865" y1="209.063" x2="41.6282" y2= "214.748" />
  <polyline class="fil1 str0" points="43.8124,175.63 51.4046,181.97 56.7637,190.455 60.6342,196.261 66.4398,202.662 "/>
  <polyline class="fil1 str0" points="47.6085,178.8 46.7899,181.672 49.3205,184.799 52.2978,188.371 56.1683,194.326 58.8478,198.643 60.3769,201.077 "/>
  <polyline class="fil1 str0" points="47.8319,186.585 51.8512,191.497 54.6796,195.963 57.2103,201.174 60.6478,206.109 "/>
  <polyline class="fil1 str0" points="56.7637,204.3 60.1876,209.212 64.6735,213.772 "/>
  <polyline class="fil1 str0" points="24.5239,182.439 20.9751,189.03 16.2434,199.338 13.8776,206.942 "/>
  <polyline class="fil1 str0" points="24.8619,187.847 21.3131,194.606 18.6093,201.197 16.4124,207.28 "/>
  <line class="fil1 str0" x1="24.1859" y1="193.592" x2="21.903" y2= "198.929" />
  <line class="fil1 str0" x1="25.0558" y1="209.584" x2="22.4889" y2= "217.483" />
  <line class="fil1 str0" x1="22.8795" y1="206.741" x2="21.3131" y2= "214.547" />
  <line class="fil1 str0" x1="22.3913" y1="203.177" x2="23.8479" y2= "197.986" />
 </g>
</svg>
