<?xml version="1.0" encoding="UTF-8"?>
<!DOCTYPE svg PUBLIC "-//W3C//DTD SVG 1.1//EN" "http://www.w3.org/Graphics/SVG/1.1/DTD/svg11.dtd">
<!-- Creator: CorelDRAW -->
<svg xmlns="http://www.w3.org/2000/svg" xml:space="preserve" width="215.9mm" height="279.4mm" style="shape-rendering:geometricPrecision; text-rendering:geometricPrecision; image-rendering:optimizeQuality; fill-rule:evenodd; clip-rule:evenodd"
viewBox="0 0 215.9 279.4">
 <defs>
  <style type="text/css">
   <![CDATA[
    .str1 {stroke:#1F1A17;stroke-width:0.0762}
    .str0 {stroke:#1F1A17;stroke-width:0.7056}
    .fil2 {fill:#0A0B0C}
    .fil1 {fill:#6B300D}
    .fil3 {fill:#85360F}
    .fil0 {fill:#BA5205}
   ]]>
  </style>
 </defs>
 <g id="ojos">
  <metadata id="CorelCorpID_0Corel-Layer"/>
  <g id="_388316824">
   <path id="_388317736" class="fil0 str0" d="M107.806 20.9743c-4.6771,0.5158 -10.1842,-1.2249 -16.2616,-4.5107 -5.5282,-3.6356 -11.756,-1.3799 -18.6835,6.766 -6.281,12.0639 -11.5969,26.5315 -12.748,40.8769 15.617,6.1647 25.4078,9.4137 47.3533,9.5199l0.6335 0.0664c21.9456,-0.1062 31.7363,-3.3553 47.3534,-9.52 -1.1511,-14.3453 -6.467,-28.8129 -12.748,-40.8768 -6.9275,-8.1459 -13.1554,-10.4016 -18.6835,-6.766 -6.0578,3.2752 -11.5486,5.0148 -16.2161,4.5154l0.0005 -0.0711z"/>
   <path id="_388318072" class="fil0 str0" d="M107.361 72.9548c20.3238,0.3354 42.3216,-7.1928 69.6208,-22.1851 19.2572,-7.0878 24.7581,3.2963 20.5856,10.272 -7.3674,15.0291 -27.6343,21.8123 -48.0329,18.3336l-37.4696 11.0279c-3.8222,1.2636 -5.8794,1 -9.0911,0.0949l-0.324 -0.0952 -17.4006 -5.1214 -19.7771 -5.8203c-20.3986,3.4787 -40.6655,-3.3045 -48.0329,-18.3336 -4.1725,-6.9757 1.3284,-17.3598 20.5856,-10.272 27.4497,15.0314 49.7335,22.6435 69.3376,22.2175l-0.0014 -0.1183z"/>
   <path id="_388317616" class="fil1 str0" d="M65.4722 79.4612c-27.5312,6.2721 -63.9135,-15.5836 -43.8388,-30.2023 11.0578,-2.6985 27.1124,17.3891 43.8388,30.2023z"/>
   <path id="_388317448" class="fil1 str1" d="M87.1747 21.3398c3.2582,9.4805 0.4658,16.3067 -7.3405,20.9341 -4.7342,-5.1577 2.8192,-22.7978 7.3405,-20.9341z"/>
   <path id="_388317400" class="fil2 str1" d="M87.1747 21.3398c3.2582,9.4805 0.4658,16.3067 -7.3405,20.9341 2.8551,-5.6883 5.4184,-12.2982 7.3405,-20.9341z"/>
   <path id="_388317112" class="fil3 str0" d="M149.535 79.3753c27.5312,6.2721 63.9135,-15.5836 43.8388,-30.2023 -11.0578,-2.6985 -27.1124,17.3891 -43.8388,30.2023z"/>
   <path id="_388317088" class="fil1 str1" d="M134.052 21.3398c-3.2581,9.4805 -0.4658,16.3067 7.3406,20.9341 4.7341,-5.1577 -2.8192,-22.7978 -7.3406,-20.9341z"/>
   <path id="_388316800" class="fil2 str1" d="M134.052 21.3398c-3.2581,9.4805 -0.4658,16.3067 7.3406,20.9341 -2.8552,-5.6883 -5.4185,-12.2982 -7.3406,-20.9341z"/>
   <path id="_388317352" class="fil1 str0" d="M61.949 52.4893l-1.5641 9.9772c30.9954,13.9748 62.6962,13.8128 95.102,-0.4846l-1.5531 -9.6234c-30.6001,13.7019 -61.262,13.7452 -91.9848,0.1308z"/>
  </g>
 </g>
</svg>
