<?xml version="1.0" encoding="UTF-8"?>
<!DOCTYPE svg PUBLIC "-//W3C//DTD SVG 1.1//EN" "http://www.w3.org/Graphics/SVG/1.1/DTD/svg11.dtd">
<!-- Creator: CorelDRAW -->
<svg xmlns="http://www.w3.org/2000/svg" xml:space="preserve" width="420mm" height="420mm" style="shape-rendering:geometricPrecision; text-rendering:geometricPrecision; image-rendering:optimizeQuality; fill-rule:evenodd; clip-rule:evenodd"
viewBox="0 0 420 420">
 <defs>
  <style type="text/css">
   <![CDATA[
    .str0 {stroke:#1F1A17;stroke-width:0.0762}
    .fil1 {fill:none}
    .fil2 {fill:#DA251D}
    .fil0 {fill:yellow}
   ]]>
  </style>
 </defs>
 <g id="Capa_x0020_1">
  <metadata id="CorelCorpID_0Corel-Layer"/>
  <g id="_275226632">
   <g>
    <path id="_215421968" class="fil0 str0" d="M300.189 135.267c4.7412,-6.2692 3.7505,-11.9065 -2.9724,-16.9122 -5.7392,-5.474 -12.2969,-6.2859 -17.8658,-6.663 -3.0053,-1.4295 -3.3413,10.3347 6.0264,13.2128 6.3797,1.7062 12.2789,3.9948 14.8118,10.3624z"/>
    <path id="_215422496" class="fil1 str0" d="M279.913 111.731c1.1608,5.6353 4.0887,10.3524 8.7844,14.1514"/>
    <path id="_215422232" class="fil1 str0" d="M283.002 112.03c2.0054,6.5603 5.3132,11.409 9.3521,15.2977"/>
    <path id="_215421920" class="fil1 str0" d="M286.871 112.738c2.6687,6.5169 7.9676,9.7339 8.9962,16.7374"/>
    <path id="_215421824" class="fil1 str0" d="M296.656 130.143c4.0948,-3.7069 0.7381,-9.2138 -5.3139,-15.3718"/>
    <path id="_215421632" class="fil1 str0" d="M299.384 133.569c3.0234,-6.5211 1.4141,-11.6069 -4.8276,-15.2575"/>
   </g>
   <g>
    <path id="_215421584" class="fil0 str0" d="M298.438 121.268c4.0084,-6.7613 2.3919,-12.2519 -4.8498,-16.4723 -6.3168,-4.7959 -12.9242,-4.8674 -18.5003,-4.6178 -3.1466,-1.0835 -2.1614,10.6441 7.4699,12.4538 6.5308,0.9802 12.6494,2.5928 15.8802,8.6363z"/>
    <path id="_215421416" class="fil1 str0" d="M275.651 100.154c1.7853,5.4697 5.2236,9.8287 10.3156,13.0772"/>
    <path id="_215421872" class="fil1 str0" d="M278.754 100.104c2.7283,6.2941 6.5589,10.7414 11.0084,14.1527"/>
    <path id="_215421944" class="fil1 str0" d="M282.678 100.375c3.3825,6.1765 9.0087,8.7791 10.8161,15.6231"/>
    <path id="_215421224" class="fil1 str0" d="M294.352 116.572c3.6534,-4.1427 -0.2996,-9.2385 -7.0039,-14.679"/>
    <path id="_215421344" class="fil1 str0" d="M297.447 119.671c2.2731,-6.8191 0.1037,-11.6923 -6.5079,-14.6201"/>
   </g>
   <g>
    <path id="_215421728" class="fil0 str0" d="M306.499 157.045c4.7412,-6.2692 3.7505,-11.9064 -2.9724,-16.9122 -5.7392,-5.4739 -12.2969,-6.2858 -17.8658,-6.6629 -3.0053,-1.4296 -3.3413,10.3346 6.0264,13.2128 6.3797,1.7062 12.2789,3.9947 14.8118,10.3623z"/>
    <path id="_215420936" class="fil1 str0" d="M286.222 133.51c1.1607,5.6354 4.0886,10.3524 8.7843,14.1514"/>
    <path id="_215420648" class="fil1 str0" d="M289.311 133.808c2.0053,6.5603 5.3131,11.409 9.3521,15.2977"/>
    <path id="_215420600" class="fil1 str0" d="M293.18 134.517c2.6687,6.5168 7.9676,9.7338 8.9962,16.7373"/>
    <path id="_215420456" class="fil1 str0" d="M302.965 151.921c4.0948,-3.7069 0.7382,-9.2138 -5.3139,-15.3718"/>
    <path id="_215420912" class="fil1 str0" d="M305.693 155.347c3.0234,-6.5212 1.414,-11.6069 -4.8276,-15.2576"/>
   </g>
   <g>
    <path id="_215420768" class="fil0 str0" d="M304.747 143.046c4.0084,-6.7613 2.3918,-12.2519 -4.8499,-16.4723 -6.3168,-4.7959 -12.9242,-4.8674 -18.5002,-4.6177 -3.1466,-1.0836 -2.1615,10.6441 7.4699,12.4538 6.5307,0.9801 12.6493,2.5928 15.8802,8.6362z"/>
    <path id="_215421128" class="fil1 str0" d="M281.96 121.932c1.7853,5.4697 5.2236,9.8287 10.3157,13.0773"/>
    <path id="_215421152" class="fil1 str0" d="M285.063 121.883c2.7282,6.2941 6.5588,10.7414 11.0083,14.1527"/>
    <path id="_215420840" class="fil1 str0" d="M288.987 122.153c3.3825,6.1765 9.0088,8.7791 10.8161,15.6232"/>
    <path id="_215421032" class="fil1 str0" d="M300.661 138.351c3.6533,-4.1426 -0.2996,-9.2385 -7.0039,-14.679"/>
    <path id="_215424416" class="fil1 str0" d="M303.756 141.449c2.2731,-6.819 0.1036,-11.6923 -6.5079,-14.6201"/>
   </g>
   <g>
    <path id="_215424344" class="fil0 str0" d="M306.362 183.324c5.7885,-5.3174 5.8247,-11.0409 0.1085,-17.1711 -4.6646,-6.4144 -10.9705,-8.389 -16.3815,-9.7586 -2.7002,-1.9453 -5.1403,9.5679 3.5595,14.0793 5.9703,2.8225 11.3635,6.1318 12.7135,12.8504z"/>
    <path id="_215424272" class="fil1 str0" d="M290.635 156.534c0.1314,5.7522 2.166,10.9178 6.1043,15.4972"/>
    <path id="_215424224" class="fil1 str0" d="M293.62 157.382c0.7964,6.8135 3.1811,12.1768 6.4573,16.7267"/>
    <path id="_215424152" class="fil1 str0" d="M297.299 158.773c1.4568,6.8897 6.093,11.0048 5.849,18.0792"/>
    <path id="_215424128" class="fil1 str0" d="M303.805 177.65c4.6931,-2.9125 2.3783,-8.9321 -2.4713,-16.0755"/>
    <path id="_215423768" class="fil1 str0" d="M305.874 181.509c4.1437,-5.8733 3.4724,-11.1652 -2.0134,-15.8759"/>
   </g>
   <g>
    <path id="_215424056" class="fil0 str0" d="M307.149 169.238c5.1558,-5.9329 4.55,-11.6244 -1.8175,-17.0749 -5.3544,-5.8509 -11.8419,-7.1061 -17.3723,-7.8604 -2.9013,-1.6302 -4.0351,10.084 5.1156,13.5914 6.2491,2.1354 11.9794,4.8191 14.0742,11.3439z"/>
    <path id="_215424032" class="fil1 str0" d="M288.517 144.38c0.7755,5.7012 3.3764,10.6061 7.8034,14.7151"/>
    <path id="_215423504" class="fil1 str0" d="M291.579 144.888c1.5553,6.6814 4.5264,11.7434 8.292,15.8973"/>
    <path id="_215423720" class="fil1 str0" d="M295.391 145.857c2.2201,6.6829 7.2885,10.2522 7.8393,17.3094"/>
    <path id="_215423672" class="fil1 str0" d="M303.972 163.886c4.3369,-3.4204 1.3618,-9.1424 -4.2582,-15.697"/>
    <path id="_215423936" class="fil1 str0" d="M306.461 167.489c3.459,-6.3008 2.1986,-11.4841 -3.7808,-15.55"/>
   </g>
   <g>
    <path id="_215423552" class="fil0 str0" d="M308.719 205.266c5.7886,-5.3174 5.8248,-11.0409 0.1085,-17.1711 -4.6646,-6.4143 -10.9704,-8.389 -16.3814,-9.7586 -2.7002,-1.9453 -5.1404,9.568 3.5594,14.0793 5.9703,2.8226 11.3635,6.1319 12.7135,12.8504z"/>
    <path id="_215423576" class="fil1 str0" d="M292.992 178.476c0.1314,5.7522 2.166,10.9177 6.1044,15.4972"/>
    <path id="_215424248" class="fil1 str0" d="M295.977 179.324c0.7965,6.8136 3.1812,12.1768 6.4574,16.7268"/>
    <path id="_215423528" class="fil1 str0" d="M299.656 180.715c1.4568,6.8898 6.093,11.0048 5.849,18.0793"/>
    <path id="_218239952" class="fil1 str0" d="M306.162 199.592c4.6932,-2.9125 2.3784,-8.932 -2.4713,-16.0754"/>
    <path id="_218239904" class="fil1 str0" d="M308.231 203.452c4.1438,-5.8733 3.4725,-11.1652 -2.0133,-15.876"/>
   </g>
   <g>
    <path id="_218250608" class="fil0 str0" d="M309.506 191.18c5.1559,-5.9329 4.5501,-11.6244 -1.8175,-17.075 -5.3544,-5.8509 -11.8418,-7.1061 -17.3723,-7.8603 -2.9013,-1.6303 -4.0351,10.0839 5.1156,13.5914 6.2492,2.1353 11.9794,4.819 14.0742,11.3439z"/>
    <path id="_218250104" class="fil1 str0" d="M290.875 166.322c0.7755,5.7012 3.3765,10.6061 7.8035,14.7151"/>
    <path id="_218249912" class="fil1 str0" d="M293.936 166.83c1.5554,6.6813 4.5264,11.7434 8.2921,15.8972"/>
    <path id="_218249624" class="fil1 str0" d="M297.748 167.799c2.2201,6.683 7.2884,10.2523 7.8392,17.3095"/>
    <path id="_218250296" class="fil1 str0" d="M306.329 185.828c4.337,-3.4203 1.3619,-9.1424 -4.2582,-15.697"/>
    <path id="_218250080" class="fil1 str0" d="M308.818 189.431c3.4591,-6.3009 2.1987,-11.4842 -3.7807,-15.5501"/>
   </g>
   <g>
    <path id="_218250056" class="fil0 str0" d="M234.156 50.9663c-1.3527,-7.7429 -6.1517,-10.8622 -14.3974,-9.358 -7.9175,0.4654 -12.983,4.7085 -17.0561,8.5248 -3.0949,1.2235 5.281,9.491 13.7739,4.6015 5.5983,-3.5031 11.2948,-6.2576 17.6796,-3.7683z"/>
    <path id="_218250176" class="fil1 str0" d="M203.114 49.749c4.9135,2.9936 10.3603,4.0684 16.3411,3.2242"/>
    <path id="_218250152" class="fil1 str0" d="M205.439 47.6929c6.166,3.0066 11.9682,3.8933 17.5667,3.5906"/>
    <path id="_218249840" class="fil1 str0" d="M208.595 45.3462c6.5866,2.4917 12.5529,0.8094 18.3771,4.8326"/>
    <path id="_218250248" class="fil1 str0" d="M227.998 50.057c0.0808,-5.5229 -6.2362,-6.8227 -14.8673,-6.5949"/>
    <path id="_218249720" class="fil1 str0" d="M232.364 50.3976c-2.7083,-6.6582 -7.5258,-8.9489 -14.4521,-6.8727"/>
   </g>
   <g>
    <path id="_218249984" class="fil0 str0" d="M219.293 46.1302c-2.2124,-7.5424 -7.3308,-10.1039 -15.3559,-7.6847 -7.8154,1.3503 -12.3731,6.1346 -15.9927,10.3835 -2.9382,1.5627 6.3119,8.839 14.203,3.0281 5.1702,-4.1087 10.522,-7.4845 17.1456,-5.7269z"/>
    <path id="_218249384" class="fil1 str0" d="M188.311 48.4011c5.2183,2.4238 10.7512,2.8812 16.5996,1.3716"/>
    <path id="_218249288" class="fil1 str0" d="M190.39 46.0974c6.4643,2.2962 12.3293,2.5268 17.8586,1.5982"/>
    <path id="_218249144" class="fil1 str0" d="M193.264 43.4115c6.8243,1.7375 12.5644,-0.6032 18.803,2.7416"/>
    <path id="_218249096" class="fil1 str0" d="M213.072 45.917c-0.539,-5.497 -6.9619,-6.0804 -15.513,-4.8862"/>
    <path id="_218249312" class="fil1 str0" d="M217.449 45.7659c-3.4379,-6.3124 -8.4818,-8.0486 -15.1317,-5.2089"/>
   </g>
   <g>
    <path id="_218249408" class="fil0 str0" d="M256.162 64.7951c0.8544,-7.8136 -2.8875,-12.1447 -11.2263,-12.9935 -7.7344,-1.7552 -13.7802,0.9115 -18.7542,3.4442 -3.313,0.3143 2.4327,10.5854 11.9505,8.2512 6.3517,-1.8076 12.5896,-2.8689 18.03,1.2981z"/>
    <path id="_218249360" class="fil1 str0" d="M226.685 54.9915c3.887,4.2422 8.8199,6.7897 14.7994,7.6423"/>
    <path id="_218248880" class="fil1 str0" d="M229.489 53.6632c5.0864,4.603 10.4129,7.0686 15.8747,8.3351"/>
    <path id="_218249072" class="fil1 str0" d="M233.174 52.2871c5.6335,4.2254 11.8324,4.269 16.3076,9.7535"/>
    <path id="_218249432" class="fil1 str0" d="M250.501 62.2089c1.6137,-5.2824 -4.0924,-8.288 -12.4462,-10.47"/>
    <path id="_218249552" class="fil1 str0" d="M254.6 63.7505c-0.7494,-7.1487 -4.7396,-10.689 -11.9701,-10.6214"/>
   </g>
   <g>
    <path id="_218248256" class="fil0 str0" d="M244.045 52.0163c-2.2123,-7.5424 -7.3308,-10.1039 -15.3559,-7.6847 -7.8153,1.3503 -12.3731,6.1346 -15.9927,10.3835 -2.9382,1.5628 6.3119,8.839 14.2031,3.0281 5.1701,-4.1087 10.5219,-7.4845 17.1455,-5.7269z"/>
    <path id="_218248352" class="fil1 str0" d="M213.063 54.2872c5.2182,2.4238 10.7512,2.8812 16.5995,1.3716"/>
    <path id="_218248592" class="fil1 str0" d="M215.142 51.9835c6.4642,2.2962 12.3292,2.5268 17.8585,1.5982"/>
    <path id="_218248568" class="fil1 str0" d="M218.015 49.2976c6.8244,1.7375 12.5645,-0.6032 18.803,2.7416"/>
    <path id="_218248448" class="fil1 str0" d="M237.824 51.8031c-0.539,-5.497 -6.9618,-6.0803 -15.513,-4.8862"/>
    <path id="_218248184" class="fil1 str0" d="M242.201 51.652c-3.4378,-6.3124 -8.4817,-8.0486 -15.1316,-5.2089"/>
   </g>
   <g>
    <path id="_218248520" class="fil0 str0" d="M279.325 85.6652c2.2416,-7.5337 -0.663,-12.4656 -8.7144,-14.7959 -7.2943,-3.1137 -13.7203,-1.5744 -19.0678,0.0253 -3.3157,-0.2849 0.495,10.8501 10.2772,10.2605 6.5729,-0.6394 12.9,-0.5649 17.505,4.5101z"/>
    <path id="_218248736" class="fil1 str0" d="M252.083 70.7346c3.0632,4.8704 7.4593,8.2612 13.189,10.1722"/>
    <path id="_218248424" class="fil1 str0" d="M255.08 69.9308c4.1786,5.4405 8.9767,8.8213 14.1228,11.0467"/>
    <path id="_218247824" class="fil1 str0" d="M258.952 69.2377c4.7845,5.1672 10.8751,6.3217 14.2943,12.5197"/>
    <path id="_218247632" class="fil1 str0" d="M274.219 82.1058c2.5348,-4.9074 -2.5399,-8.8875 -10.367,-12.5321"/>
    <path id="_218247512" class="fil1 str0" d="M277.975 84.3574c0.5446,-7.1672 -2.746,-11.3656 -9.8715,-12.5957"/>
   </g>
   <g>
    <path id="_218247272" class="fil0 str0" d="M269.832 74.9278c1.3828,-7.7375 -2.0565,-12.3126 -10.3184,-13.7255 -7.5974,-2.2762 -13.8103,-0.0261 -18.9447,2.1631 -3.3268,0.0887 1.7084,10.7262 11.3628,9.0435 6.4597,-1.3724 12.7553,-2.0077 17.9003,2.5189z"/>
    <path id="_218247920" class="fil1 str0" d="M241.088 63.1458c3.59,4.4963 8.3386,7.3728 14.2464,8.6294"/>
    <path id="_218247248" class="fil1 str0" d="M243.976 62.011c4.7622,4.9377 9.9091,7.7592 15.2723,9.3936"/>
    <path id="_218246168" class="fil1 str0" d="M247.746 60.8882c5.3337,4.5981 11.5153,5.0624 15.6079,10.8381"/>
    <path id="_218246072" class="fil1 str0" d="M264.359 71.9634c1.9686,-5.1607 -3.5203,-8.5467 -11.7068,-11.2908"/>
    <path id="_218245904" class="fil1 str0" d="M268.344 73.7797c-0.2625,-7.1832 -4.0031,-10.9862 -11.2215,-11.4095"/>
   </g>
   <g>
    <path id="_218245208" class="fil0 str0" d="M294.147 110.051c3.0863,-7.2289 0.7631,-12.4598 -6.9699,-15.6933 -6.8916,-3.9253 -13.4512,-3.129 -18.9462,-2.1496 -3.2616,-0.6612 -0.7458,10.8357 9.0398,11.3656 6.6029,0.1145 12.8802,0.9102 16.8763,6.4773z"/>
    <path id="_218245712" class="fil1 str0" d="M268.786 92.1104c2.4878,5.188 6.4684,9.0581 11.9428,11.6102"/>
    <path id="_218245304" class="fil1 str0" d="M271.856 91.6537c3.5308,5.8816 7.9119,9.7876 12.7706,12.5854"/>
    <path id="_218243816" class="fil1 str0" d="M275.781 91.4068c4.1639,5.6791 10.0831,7.5207 12.773,14.0684"/>
    <path id="_218242808" class="fil1 str0" d="M289.481 105.932c3.078,-4.5863 -1.5096,-9.1192 -8.8699,-13.6328"/>
    <path id="_218243096" class="fil1 str0" d="M292.955 108.598c1.3585,-7.0584 -1.4317,-11.6048 -8.3704,-13.6395"/>
   </g>
   <g>
    <path id="_218242256" class="fil0 str0" d="M289.066 96.8892c2.2564,-7.5293 -0.6387,-12.4668 -8.6855,-14.8128 -7.2882,-3.1279 -13.7172,-1.6011 -19.0678,-0.0118 -3.3152,-0.2913 0.4739,10.851 10.2571,10.2804 6.5742,-0.6265 12.9011,-0.5397 17.4962,4.5442z"/>
    <path id="_218242088" class="fil1 str0" d="M261.853 81.9056c3.0538,4.8764 7.4433,8.2757 13.1693,10.1979"/>
    <path id="_218242232" class="fil1 str0" d="M264.852 81.1077c4.1679,5.4486 8.9594,8.8387 14.1012,11.0741"/>
    <path id="_218242520" class="fil1 str0" d="M268.725 80.4221c4.7744,5.1765 10.8627,6.3428 14.2699,12.5476"/>
    <path id="_218241176" class="fil1 str0" d="M283.967 93.3199c2.5444,-4.9025 -2.5225,-8.8925 -10.3425,-12.5523"/>
    <path id="_218240912" class="fil1 str0" d="M287.719 95.5789c0.5586,-7.1662 -2.7239,-11.371 -9.8469,-12.615"/>
   </g>
   <polygon id="_218240696" class="fil0 str0" points="302.708,195.813 310.446,197.454 321.935,206.599 321.466,209.647 320.528,213.633 324.514,219.495 322.404,221.605 317.48,216.916 325.921,238.253 324.045,240.832 324.983,243.411 328.265,257.479 325.686,258.183 322.169,245.287 319.825,241.77 318.652,244.583 319.121,248.335 316.542,247.631 316.307,237.784 313.494,228.639 314.901,233.211 310.914,234.267 312.321,238.018 316.425,242.708 314.901,254.9 313.259,257.479 312.79,250.914 310.446,255.604 309.977,263.107 306.928,265.686 304.115,265.217 304.818,257.245 301.067,256.776 304.115,265.217 300.129,266.155 298.956,258.183 299.543,262.169 294.736,262.403 293.329,257.245 289.812,247.631 286.764,256.541 282.778,266.624 279.495,265.217 285.123,254.431 279.495,265.217 274.806,263.341 283.716,251.383 286.295,239.894 282.309,246.459 277.854,246.694 279.261,241.535 275.04,241.535 272.93,244.583 268.709,244.583 266.365,247.631 260.972,254.666 257.22,253.962 262.144,246.459 259.799,245.052 268.006,236.142 267.303,231.218 263.082,236.377 259.331,235.204 255.579,237.08 252.531,235.673 247.372,240.363 244.09,239.659 251.593,231.922 258.861,224.653 264.958,218.791 271.054,209.881 280.433,203.316 288.874,198.392 296.143,196.516 "/>
   <polyline id="_218240576" class="fil1 str0" points="299.7,198.27 305.955,204.704 305.955,220.886 306.313,232.406 306.313,244.917 304.818,257.245 "/>
   <polyline id="_218240384" class="fil1 str0" points="303.274,197.734 308.643,203.81 308.643,220.886 309.53,229.725 309.53,237.768 309.887,245.095 310.446,255.604 "/>
   <line id="_218241104" class="fil1 str0" x1="310.245" y1="205.24" x2="317.572" y2= "211.853" />
   <polyline id="_218240840" class="fil1 str0" points="306.577,196.634 310.066,200.593 314.534,203.989 318.823,208.457 321.466,209.647 "/>
   <polyline id="_218240528" class="fil1 str0" points="297.913,200.951 302.917,208.279 302.917,221.861 303.453,232.942 303.453,241.342 303.453,253.317 302.942,257.01 "/>
   <polyline id="_218240648" class="fil1 str0" points="298.806,205.955 300.772,213.461 301.13,226.151 301.845,239.912 301.13,254.389 "/>
   <polyline id="_218241008" class="fil1 str0" points="295.768,201.487 296.662,206.67 297.019,215.427 298.538,231.423 298.806,248.491 298.092,256.176 "/>
   <polyline id="_218241080" class="fil1 str0" points="290.378,198.004 278.075,208.279 268.781,216.321 266.1,223.649 258.058,230.083 253.768,233.478 "/>
   <polyline id="_218240768" class="fil1 str0" points="290.764,200.236 285.76,205.955 283.615,219.002 279.504,220.886 273.249,236.695 272.177,241.342 "/>
   <polyline id="_218240504" class="fil1 str0" points="293.087,201.308 288.798,206.491 286.117,220.886 282.543,224.363 276.824,238.125 "/>
   <polyline id="_218240408" class="fil1 str0" points="293.624,204.883 292.015,219.181 292.73,228.832 293.445,238.661 293.624,248.312 293.329,257.245 "/>
   <polyline id="_275224568" class="fil1 str0" points="294.875,211.317 295.411,226.866 296.304,244.559 296.841,259.751 "/>
   <polyline id="_275224520" class="fil1 str0" points="291.479,209.887 289.334,219.002 283.615,231.512 279.147,238.84 "/>
   <polyline id="_275224400" class="fil1 str0" points="290.406,223.291 286.117,233.478 281.828,240.806 "/>
   <line id="_275224640" class="fil1 str0" x1="290.764" y1="229.01" x2="286.295" y2= "239.894" />
   <polyline id="_275224352" class="fil1 str0" points="291.658,236.159 288.798,241.521 287.011,249.027 285.123,254.431 "/>
   <line id="_275224136" class="fil1 str0" x1="290.943" y1="240.806" x2="289.812" y2= "247.631" />
   <polyline id="_275224064" class="fil1 str0" points="287.19,200.667 278.075,208.279 271.64,218.466 266.994,225.436 260.024,233.121 "/>
   <polyline id="_275224016" class="fil1 str0" points="282.632,204.473 283.615,207.921 280.577,211.674 277.002,215.964 272.355,223.113 269.138,228.296 267.303,231.218 "/>
   <polyline id="_275223992" class="fil1 str0" points="282.364,213.819 277.538,219.717 274.143,225.078 271.104,231.334 266.977,237.259 "/>
   <polyline id="_275224256" class="fil1 str0" points="271.64,235.087 267.53,240.985 262.144,246.459 "/>
   <polyline id="_275223944" class="fil1 str0" points="310.347,208.841 314.608,216.754 320.289,229.13 323.129,238.26 "/>
   <polyline id="_275222048" class="fil1 str0" points="309.941,215.334 314.202,223.449 317.448,231.362 320.086,238.666 "/>
   <line id="_275238104" class="fil1 str0" x1="310.753" y1="222.232" x2="313.494" y2= "228.639" />
   <line id="_275237480" class="fil1 str0" x1="309.709" y1="241.432" x2="312.79" y2= "250.914" />
   <line id="_275235896" class="fil1 str0" x1="312.321" y1="238.018" x2="314.202" y2= "247.39" />
   <line id="_275235536" class="fil1 str0" x1="312.908" y1="233.739" x2="311.159" y2= "227.507" />
   <rect id="_275235824" class="fil2 str0" x="289.343" y="187.687" width="23.1685" height="9.76687"/>
   <g>
    <path id="_275236016" class="fil0 str0" d="M116.032 135.267c-4.7412,-6.2692 -3.7505,-11.9065 2.9724,-16.9122 5.7392,-5.474 12.2969,-6.2859 17.8658,-6.663 3.0053,-1.4295 3.3413,10.3347 -6.0264,13.2128 -6.3797,1.7062 -12.2789,3.9948 -14.8118,10.3624z"/>
    <path id="_275235800" class="fil1 str0" d="M136.308 111.731c-1.1607,5.6353 -4.0886,10.3524 -8.7843,14.1514"/>
    <path id="_275235776" class="fil1 str0" d="M133.219 112.03c-2.0053,6.5603 -5.3131,11.409 -9.352,15.2977"/>
    <path id="_275234768" class="fil1 str0" d="M129.35 112.738c-2.6687,6.5169 -7.9676,9.7339 -8.9962,16.7374"/>
    <path id="_275235440" class="fil1 str0" d="M119.565 130.143c-4.0948,-3.7069 -0.7381,-9.2138 5.3139,-15.3718"/>
    <path id="_275235272" class="fil1 str0" d="M116.837 133.569c-3.0233,-6.5211 -1.414,-11.6069 4.8276,-15.2575"/>
   </g>
   <g>
    <path id="_275235200" class="fil0 str0" d="M117.783 121.268c-4.0084,-6.7613 -2.3918,-12.2519 4.8499,-16.4723 6.3168,-4.7959 12.9242,-4.8674 18.5002,-4.6178 3.1467,-1.0835 2.1615,10.6441 -7.4698,12.4538 -6.5308,0.9802 -12.6494,2.5928 -15.8803,8.6363z"/>
    <path id="_275235320" class="fil1 str0" d="M140.57 100.154c-1.7853,5.4697 -5.2236,9.8287 -10.3157,13.0772"/>
    <path id="_275234960" class="fil1 str0" d="M137.467 100.104c-2.7282,6.2941 -6.5588,10.7414 -11.0083,14.1527"/>
    <path id="_275235344" class="fil1 str0" d="M133.543 100.375c-3.3825,6.1765 -9.0088,8.7791 -10.8161,15.6231"/>
    <path id="_275234816" class="fil1 str0" d="M121.869 116.572c-3.6533,-4.1427 0.2996,-9.2385 7.004,-14.679"/>
    <path id="_275235416" class="fil1 str0" d="M118.774 119.671c-2.2732,-6.8191 -0.1037,-11.6923 6.5079,-14.6201"/>
   </g>
   <g>
    <path id="_275235128" class="fil0 str0" d="M109.723 157.045c-4.7413,-6.2692 -3.7505,-11.9064 2.9723,-16.9122 5.7392,-5.4739 12.297,-6.2858 17.8658,-6.6629 3.0053,-1.4296 3.3413,10.3346 -6.0264,13.2128 -6.3797,1.7062 -12.2789,3.9947 -14.8117,10.3623z"/>
    <path id="_275235392" class="fil1 str0" d="M129.999 133.51c-1.1608,5.6354 -4.0887,10.3524 -8.7844,14.1514"/>
    <path id="_275235056" class="fil1 str0" d="M126.91 133.808c-2.0053,6.5603 -5.3131,11.409 -9.3521,15.2977"/>
    <path id="_275235080" class="fil1 str0" d="M123.041 134.517c-2.6686,6.5168 -7.9676,9.7338 -8.9961,16.7373"/>
    <path id="_275234552" class="fil1 str0" d="M113.256 151.921c-4.0948,-3.7069 -0.7381,-9.2138 5.3139,-15.3718"/>
    <path id="_275234312" class="fil1 str0" d="M110.528 155.347c-3.0234,-6.5212 -1.414,-11.6069 4.8276,-15.2576"/>
   </g>
   <g>
    <path id="_275234000" class="fil0 str0" d="M111.474 143.046c-4.0084,-6.7613 -2.3919,-12.2519 4.8499,-16.4723 6.3168,-4.7959 12.9241,-4.8674 18.5002,-4.6177 3.1466,-1.0836 2.1615,10.6441 -7.4699,12.4538 -6.5308,0.9801 -12.6494,2.5928 -15.8802,8.6362z"/>
    <path id="_275234120" class="fil1 str0" d="M134.261 121.932c-1.7853,5.4697 -5.2236,9.8287 -10.3156,13.0773"/>
    <path id="_275234504" class="fil1 str0" d="M131.158 121.883c-2.7283,6.2941 -6.5589,10.7414 -11.0084,14.1527"/>
    <path id="_275234480" class="fil1 str0" d="M127.234 122.153c-3.3825,6.1765 -9.0087,8.7791 -10.8161,15.6232"/>
    <path id="_275234648" class="fil1 str0" d="M115.56 138.351c-3.6534,-4.1426 0.2996,-9.2385 7.0039,-14.679"/>
    <path id="_275234024" class="fil1 str0" d="M112.465 141.449c-2.2731,-6.819 -0.1037,-11.6923 6.5079,-14.6201"/>
   </g>
   <g>
    <path id="_275234360" class="fil0 str0" d="M109.859 183.324c-5.7885,-5.3174 -5.8248,-11.0409 -0.1085,-17.1711 4.6646,-6.4144 10.9704,-8.389 16.3814,-9.7586 2.7003,-1.9453 5.1404,9.5679 -3.5594,14.0793 -5.9703,2.8225 -11.3635,6.1318 -12.7135,12.8504z"/>
    <path id="_275234456" class="fil1 str0" d="M125.586 156.534c-0.1314,5.7522 -2.166,10.9178 -6.1044,15.4972"/>
    <path id="_275233928" class="fil1 str0" d="M122.601 157.382c-0.7965,6.8135 -3.1812,12.1768 -6.4573,16.7267"/>
    <path id="_275234672" class="fil1 str0" d="M118.922 158.773c-1.4568,6.8897 -6.093,11.0048 -5.849,18.0792"/>
    <path id="_275233280" class="fil1 str0" d="M112.417 177.65c-4.6931,-2.9125 -2.3784,-8.9321 2.4713,-16.0755"/>
    <path id="_275233232" class="fil1 str0" d="M110.347 181.509c-4.1437,-5.8733 -3.4725,-11.1652 2.0133,-15.8759"/>
   </g>
   <g>
    <path id="_275233832" class="fil0 str0" d="M109.072 169.238c-5.1558,-5.9329 -4.5501,-11.6244 1.8175,-17.0749 5.3544,-5.8509 11.8419,-7.1061 17.3723,-7.8604 2.9013,-1.6302 4.0351,10.084 -5.1156,13.5914 -6.2492,2.1354 -11.9794,4.8191 -14.0742,11.3439z"/>
    <path id="_275233400" class="fil1 str0" d="M127.704 144.38c-0.7755,5.7012 -3.3765,10.6061 -7.8034,14.7151"/>
    <path id="_275233784" class="fil1 str0" d="M124.642 144.888c-1.5554,6.6814 -4.5264,11.7434 -8.2921,15.8973"/>
    <path id="_275233808" class="fil1 str0" d="M120.83 145.857c-2.2202,6.6829 -7.2885,10.2522 -7.8393,17.3094"/>
    <path id="_275233352" class="fil1 str0" d="M112.249 163.886c-4.337,-3.4204 -1.3619,-9.1424 4.2582,-15.697"/>
    <path id="_275233664" class="fil1 str0" d="M109.76 167.489c-3.4591,-6.3008 -2.1987,-11.4841 3.7807,-15.55"/>
   </g>
   <g>
    <path id="_275233424" class="fil0 str0" d="M107.502 205.266c-5.7886,-5.3174 -5.8248,-11.0409 -0.1085,-17.1711 4.6646,-6.4143 10.9704,-8.389 16.3814,-9.7586 2.7002,-1.9453 5.1403,9.568 -3.5594,14.0793 -5.9704,2.8226 -11.3635,6.1319 -12.7135,12.8504z"/>
    <path id="_275233904" class="fil1 str0" d="M123.229 178.476c-0.1314,5.7522 -2.166,10.9177 -6.1043,15.4972"/>
    <path id="_275233856" class="fil1 str0" d="M120.244 179.324c-0.7964,6.8136 -3.1811,12.1768 -6.4573,16.7268"/>
    <path id="_275233520" class="fil1 str0" d="M116.565 180.715c-1.4568,6.8898 -6.0929,11.0048 -5.849,18.0793"/>
    <path id="_275233544" class="fil1 str0" d="M110.059 199.592c-4.6931,-2.9125 -2.3783,-8.932 2.4714,-16.0754"/>
    <path id="_275233592" class="fil1 str0" d="M107.99 203.452c-4.1437,-5.8733 -3.4724,-11.1652 2.0134,-15.876"/>
   </g>
   <g>
    <path id="_275233064" class="fil0 str0" d="M106.715 191.18c-5.1559,-5.9329 -4.5501,-11.6244 1.8174,-17.075 5.3544,-5.8509 11.8419,-7.1061 17.3723,-7.8603 2.9013,-1.6303 4.0352,10.0839 -5.1156,13.5914 -6.2491,2.1353 -11.9793,4.819 -14.0741,11.3439z"/>
    <path id="_275232920" class="fil1 str0" d="M125.346 166.322c-0.7756,5.7012 -3.3765,10.6061 -7.8035,14.7151"/>
    <path id="_275232704" class="fil1 str0" d="M122.285 166.83c-1.5554,6.6813 -4.5265,11.7434 -8.2921,15.8972"/>
    <path id="_275232872" class="fil1 str0" d="M118.473 167.799c-2.2201,6.683 -7.2884,10.2523 -7.8392,17.3095"/>
    <path id="_275232440" class="fil1 str0" d="M109.892 185.828c-4.337,-3.4203 -1.3619,-9.1424 4.2581,-15.697"/>
    <path id="_275232752" class="fil1 str0" d="M107.403 189.431c-3.4591,-6.3009 -2.1987,-11.4842 3.7807,-15.5501"/>
   </g>
   <g>
    <path id="_275232800" class="fil0 str0" d="M182.065 50.9663c1.3527,-7.7429 6.1517,-10.8622 14.3974,-9.358 7.9175,0.4654 12.9829,4.7085 17.0561,8.5248 3.0949,1.2235 -5.281,9.491 -13.774,4.6015 -5.5982,-3.5031 -11.2948,-6.2576 -17.6795,-3.7683z"/>
    <path id="_275233040" class="fil1 str0" d="M213.107 49.749c-4.9136,2.9936 -10.3604,4.0684 -16.3411,3.2242"/>
    <path id="_275232848" class="fil1 str0" d="M210.782 47.6929c-6.166,3.0066 -11.9682,3.8933 -17.5667,3.5906"/>
    <path id="_275232992" class="fil1 str0" d="M207.625 45.3462c-6.5865,2.4917 -12.5529,0.8094 -18.377,4.8326"/>
    <path id="_275232968" class="fil1 str0" d="M188.223 50.057c-0.0807,-5.5229 6.2362,-6.8227 14.8673,-6.5949"/>
    <path id="_275231720" class="fil1 str0" d="M183.857 50.3976c2.7084,-6.6582 7.5258,-8.9489 14.4522,-6.8727"/>
   </g>
   <g>
    <path id="_275231648" class="fil0 str0" d="M196.928 46.1302c2.2123,-7.5424 7.3308,-10.1039 15.3559,-7.6847 7.8153,1.3503 12.3731,6.1346 15.9927,10.3835 2.9382,1.5627 -6.3119,8.839 -14.2031,3.0281 -5.1701,-4.1087 -10.5219,-7.4845 -17.1455,-5.7269z"/>
    <path id="_275231840" class="fil1 str0" d="M227.91 48.4011c-5.2182,2.4238 -10.7512,2.8812 -16.5995,1.3716"/>
    <path id="_275231624" class="fil1 str0" d="M225.831 46.0974c-6.4642,2.2962 -12.3292,2.5268 -17.8585,1.5982"/>
    <path id="_275232056" class="fil1 str0" d="M222.957 43.4115c-6.8244,1.7375 -12.5645,-0.6032 -18.803,2.7416"/>
    <path id="_275232152" class="fil1 str0" d="M203.149 45.917c0.539,-5.497 6.9618,-6.0804 15.513,-4.8862"/>
    <path id="_275231912" class="fil1 str0" d="M198.772 45.7659c3.4378,-6.3124 8.4817,-8.0486 15.1316,-5.2089"/>
   </g>
   <g>
    <path id="_275232344" class="fil0 str0" d="M160.059 64.7951c-0.8544,-7.8136 2.8875,-12.1447 11.2262,-12.9935 7.7345,-1.7552 13.7803,0.9115 18.7542,3.4442 3.3131,0.3143 -2.4326,10.5854 -11.9504,8.2512 -6.3517,-1.8076 -12.5896,-2.8689 -18.03,1.2981z"/>
    <path id="_275232320" class="fil1 str0" d="M189.536 54.9915c-3.8869,4.2422 -8.8198,6.7897 -14.7993,7.6423"/>
    <path id="_275232296" class="fil1 str0" d="M186.732 53.6632c-5.0864,4.603 -10.413,7.0686 -15.8747,8.3351"/>
    <path id="_275231888" class="fil1 str0" d="M183.047 52.2871c-5.6335,4.2254 -11.8323,4.269 -16.3076,9.7535"/>
    <path id="_275231864" class="fil1 str0" d="M165.72 62.2089c-1.6138,-5.2824 4.0923,-8.288 12.4462,-10.47"/>
    <path id="_275232272" class="fil1 str0" d="M161.621 63.7505c0.7495,-7.1487 4.7396,-10.689 11.9702,-10.6214"/>
   </g>
   <g>
    <path id="_275231264" class="fil0 str0" d="M172.177 52.0163c2.2123,-7.5424 7.3308,-10.1039 15.3558,-7.6847 7.8154,1.3503 12.3732,6.1346 15.9927,10.3835 2.9383,1.5628 -6.3118,8.839 -14.203,3.0281 -5.1702,-4.1087 -10.5219,-7.4845 -17.1455,-5.7269z"/>
    <path id="_275231552" class="fil1 str0" d="M203.159 54.2872c-5.2182,2.4238 -10.7512,2.8812 -16.5996,1.3716"/>
    <path id="_275231192" class="fil1 str0" d="M201.079 51.9835c-6.4642,2.2962 -12.3293,2.5268 -17.8585,1.5982"/>
    <path id="_275231504" class="fil1 str0" d="M198.206 49.2976c-6.8244,1.7375 -12.5645,-0.6032 -18.8031,2.7416"/>
    <path id="_275231240" class="fil1 str0" d="M178.397 51.8031c0.539,-5.497 6.9619,-6.0803 15.513,-4.8862"/>
    <path id="_275231432" class="fil1 str0" d="M174.02 51.652c3.4378,-6.3124 8.4817,-8.0486 15.1316,-5.2089"/>
   </g>
   <g>
    <path id="_275231024" class="fil0 str0" d="M136.896 85.6652c-2.2417,-7.5337 0.663,-12.4656 8.7143,-14.7959 7.2944,-3.1137 13.7204,-1.5744 19.0678,0.0253 3.3158,-0.2849 -0.495,10.8501 -10.2771,10.2605 -6.5729,-0.6394 -12.9,-0.5649 -17.505,4.5101z"/>
    <path id="_275230928" class="fil1 str0" d="M164.138 70.7346c-3.0632,4.8704 -7.4593,8.2612 -13.1891,10.1722"/>
    <path id="_275230904" class="fil1 str0" d="M161.141 69.9308c-4.1785,5.4405 -8.9766,8.8213 -14.1227,11.0467"/>
    <path id="_275231000" class="fil1 str0" d="M157.269 69.2377c-4.7845,5.1672 -10.875,6.3217 -14.2942,12.5197"/>
    <path id="_275230856" class="fil1 str0" d="M142.002 82.1058c-2.5348,-4.9074 2.5398,-8.8875 10.367,-12.5321"/>
    <path id="_275231480" class="fil1 str0" d="M138.246 84.3574c-0.5445,-7.1672 2.7461,-11.3656 9.8715,-12.5957"/>
   </g>
   <g>
    <path id="_275230424" class="fil0 str0" d="M146.389 74.9278c-1.3828,-7.7375 2.0565,-12.3126 10.3183,-13.7255 7.5975,-2.2762 13.8104,-0.0261 18.9448,2.1631 3.3267,0.0887 -1.7085,10.7262 -11.3628,9.0435 -6.4598,-1.3724 -12.7553,-2.0077 -17.9003,2.5189z"/>
    <path id="_275230352" class="fil1 str0" d="M175.133 63.1458c-3.59,4.4963 -8.3386,7.3728 -14.2465,8.6294"/>
    <path id="_275230496" class="fil1 str0" d="M172.245 62.011c-4.7622,4.9377 -9.9091,7.7592 -15.2723,9.3936"/>
    <path id="_275230112" class="fil1 str0" d="M168.475 60.8882c-5.3337,4.5981 -11.5153,5.0624 -15.6079,10.8381"/>
    <path id="_275229344" class="fil1 str0" d="M151.862 71.9634c-1.9686,-5.1607 3.5203,-8.5467 11.7067,-11.2908"/>
    <path id="_275230064" class="fil1 str0" d="M147.877 73.7797c0.2625,-7.1832 4.0031,-10.9862 11.2216,-11.4095"/>
   </g>
   <g>
    <path id="_275229272" class="fil0 str0" d="M122.074 110.051c-3.0864,-7.2289 -0.7632,-12.4598 6.9698,-15.6933 6.8916,-3.9253 13.4513,-3.129 18.9463,-2.1496 3.2616,-0.6612 0.7458,10.8357 -9.0398,11.3656 -6.6029,0.1145 -12.8802,0.9102 -16.8763,6.4773z"/>
    <path id="_275229224" class="fil1 str0" d="M147.435 92.1104c-2.4877,5.188 -6.4684,9.0581 -11.9427,11.6102"/>
    <path id="_275229176" class="fil1 str0" d="M144.366 91.6537c-3.5307,5.8816 -7.9118,9.7876 -12.7706,12.5854"/>
    <path id="_275229080" class="fil1 str0" d="M140.44 91.4068c-4.164,5.6791 -10.0831,7.5207 -12.7731,14.0684"/>
    <path id="_275228744" class="fil1 str0" d="M126.741 105.932c-3.0781,-4.5863 1.5095,-9.1192 8.8699,-13.6328"/>
    <path id="_275228984" class="fil1 str0" d="M123.266 108.598c-1.3585,-7.0584 1.4318,-11.6048 8.3705,-13.6395"/>
   </g>
   <g>
    <path id="_275228600" class="fil0 str0" d="M127.155 96.8892c-2.2564,-7.5293 0.6387,-12.4668 8.6854,-14.8128 7.2883,-3.1279 13.7173,-1.6011 19.0679,-0.0118 3.3152,-0.2913 -0.4739,10.851 -10.2572,10.2804 -6.5741,-0.6265 -12.9011,-0.5397 -17.4961,4.5442z"/>
    <path id="_275228456" class="fil1 str0" d="M154.368 81.9056c-3.0537,4.8764 -7.4432,8.2757 -13.1692,10.1979"/>
    <path id="_275228288" class="fil1 str0" d="M151.369 81.1077c-4.1679,5.4486 -8.9594,8.8387 -14.1012,11.0741"/>
    <path id="_275228384" class="fil1 str0" d="M147.496 80.4221c-4.7745,5.1765 -10.8628,6.3428 -14.2699,12.5476"/>
    <path id="_275228072" class="fil1 str0" d="M132.254 93.3199c-2.5444,-4.9025 2.5225,-8.8925 10.3426,-12.5523"/>
    <path id="_275228048" class="fil1 str0" d="M128.503 95.5789c-0.5585,-7.1662 2.7239,-11.371 9.847,-12.615"/>
   </g>
   <polygon id="_275228024" class="fil0 str0" points="113.513,195.813 105.775,197.454 94.2863,206.599 94.7553,209.647 95.6932,213.633 91.7071,219.495 93.8174,221.605 98.7413,216.916 90.3003,238.253 92.1761,240.832 91.2382,243.411 87.9556,257.479 90.5348,258.183 94.0519,245.287 96.3966,241.77 97.569,244.583 97.1,248.335 99.6792,247.631 99.9137,237.784 102.727,228.639 101.321,233.211 105.307,234.267 103.9,238.018 99.7965,242.708 101.321,254.9 102.962,257.479 103.431,250.914 105.775,255.604 106.244,263.107 109.293,265.686 112.106,265.217 111.403,257.245 115.154,256.776 112.106,265.217 116.092,266.155 117.265,258.183 116.679,262.169 121.485,262.403 122.892,257.245 126.409,247.631 129.457,256.541 133.443,266.624 136.726,265.217 131.099,254.431 136.726,265.217 141.415,263.341 132.505,251.383 129.926,239.894 133.912,246.459 138.367,246.694 136.96,241.535 141.181,241.535 143.291,244.583 147.512,244.583 149.856,247.631 155.249,254.666 159.001,253.962 154.077,246.459 156.422,245.052 148.215,236.142 148.918,231.218 153.139,236.377 156.891,235.204 160.642,237.08 163.69,235.673 168.849,240.363 172.131,239.659 164.628,231.922 157.36,224.653 151.263,218.791 145.167,209.881 135.788,203.316 127.347,198.392 120.078,196.516 "/>
   <polyline id="_275228096" class="fil1 str0" points="116.521,198.27 110.266,204.704 110.266,220.886 109.908,232.406 109.908,244.917 111.403,257.245 "/>
   <polyline id="_275228312" class="fil1 str0" points="112.947,197.734 107.578,203.81 107.578,220.886 106.691,229.725 106.691,237.768 106.334,245.095 105.775,255.604 "/>
   <line id="_275228528" class="fil1 str0" x1="105.976" y1="205.24" x2="98.6487" y2= "211.853" />
   <polyline id="_275227976" class="fil1 str0" points="109.644,196.634 106.155,200.593 101.687,203.989 97.3977,208.457 94.7553,209.647 "/>
   <polyline id="_275227592" class="fil1 str0" points="118.308,200.951 113.304,208.279 113.304,221.861 112.768,232.942 112.768,241.342 112.768,253.317 113.279,257.01 "/>
   <polyline id="_275227304" class="fil1 str0" points="117.415,205.955 115.449,213.461 115.091,226.151 114.376,239.912 115.091,254.389 "/>
   <polyline id="_275227760" class="fil1 str0" points="120.453,201.487 119.559,206.67 119.202,215.427 117.683,231.423 117.415,248.491 118.129,256.176 "/>
   <polyline id="_275227520" class="fil1 str0" points="125.843,198.004 138.147,208.279 147.44,216.321 150.121,223.649 158.164,230.083 162.453,233.478 "/>
   <polyline id="_275227016" class="fil1 str0" points="125.457,200.236 130.461,205.955 132.606,219.002 136.717,220.886 142.972,236.695 144.044,241.342 "/>
   <polyline id="_275227664" class="fil1 str0" points="123.134,201.308 127.423,206.491 130.104,220.886 133.678,224.363 139.398,238.125 "/>
   <polyline id="_275227736" class="fil1 str0" points="122.598,204.883 124.206,219.181 123.491,228.832 122.776,238.661 122.598,248.312 122.892,257.245 "/>
   <polyline id="_275227568" class="fil1 str0" points="121.346,211.317 120.81,226.866 119.917,244.559 119.381,259.751 "/>
   <polyline id="_275227448" class="fil1 str0" points="124.742,209.887 126.887,219.002 132.606,231.512 137.074,238.84 "/>
   <polyline id="_275227208" class="fil1 str0" points="125.815,223.291 130.104,233.478 134.393,240.806 "/>
   <line id="_275227424" class="fil1 str0" x1="125.457" y1="229.01" x2="129.926" y2= "239.894" />
   <polyline id="_275227064" class="fil1 str0" points="124.564,236.159 127.423,241.521 129.21,249.027 131.099,254.431 "/>
   <line id="_275227160" class="fil1 str0" x1="125.278" y1="240.806" x2="126.409" y2= "247.631" />
   <polyline id="_275227712" class="fil1 str0" points="129.031,200.667 138.147,208.279 144.581,218.466 149.227,225.436 156.198,233.121 "/>
   <polyline id="_275227136" class="fil1 str0" points="133.589,204.473 132.606,207.921 135.644,211.674 139.219,215.964 143.866,223.113 147.083,228.296 148.918,231.218 "/>
   <polyline id="_275227328" class="fil1 str0" points="133.857,213.819 138.683,219.717 142.078,225.078 145.117,231.334 149.244,237.259 "/>
   <polyline id="_275226320" class="fil1 str0" points="144.581,235.087 148.691,240.985 154.077,246.459 "/>
   <polyline id="_275226896" class="fil1 str0" points="105.874,208.841 101.613,216.754 95.9325,229.13 93.0921,238.26 "/>
   <polyline id="_275226848" class="fil1 str0" points="106.28,215.334 102.019,223.449 98.7729,231.362 96.1354,238.666 "/>
   <line id="_275226800" class="fil1 str0" x1="105.468" y1="222.232" x2="102.727" y2= "228.639" />
   <line id="_275226704" class="fil1 str0" x1="106.512" y1="241.432" x2="103.431" y2= "250.914" />
   <line id="_275226536" class="fil1 str0" x1="103.9" y1="238.018" x2="102.019" y2= "247.39" />
   <line id="_275226488" class="fil1 str0" x1="103.314" y1="233.739" x2="105.062" y2= "227.507" />
   <rect id="_275226344" class="fil2 str0" x="103.71" y="187.687" width="23.1685" height="9.76687"/>
  </g>
 </g>
</svg>
