<?xml version="1.0" encoding="UTF-8"?>
<!DOCTYPE svg PUBLIC "-//W3C//DTD SVG 1.1//EN" "http://www.w3.org/Graphics/SVG/1.1/DTD/svg11.dtd">
<!-- Creator: CorelDRAW -->
<svg xmlns="http://www.w3.org/2000/svg" xml:space="preserve" width="420mm" height="420mm" style="shape-rendering:geometricPrecision; text-rendering:geometricPrecision; image-rendering:optimizeQuality; fill-rule:evenodd; clip-rule:evenodd"
viewBox="0 0 420 420">
 <defs>
  <style type="text/css">
   <![CDATA[
    .str0 {stroke:#1F1A17;stroke-width:0.0762}
    .fil1 {fill:none}
    .fil2 {fill:#F8C300}
    .fil0 {fill:#995905}
   ]]>
  </style>
 </defs>
 <g id="Capa_x0020_1">
  <metadata id="CorelCorpID_0Corel-Layer"/>
  <g id="_510929304">
   <g>
    <path id="_510941424" class="fil0 str0" d="M299.763 135.444c4.7412,-6.2692 3.7505,-11.9064 -2.9724,-16.9122 -5.7392,-5.4739 -12.2969,-6.2858 -17.8658,-6.6629 -3.0053,-1.4295 -3.3413,10.3346 6.0264,13.2128 6.3797,1.7062 12.2789,3.9948 14.8118,10.3623z"/>
    <path id="_510941304" class="fil1 str0" d="M279.486 111.909c1.1607,5.6354 4.0886,10.3524 8.7843,14.1514"/>
    <path id="_510941088" class="fil1 str0" d="M282.576 112.207c2.0053,6.5603 5.3131,11.409 9.352,15.2977"/>
    <path id="_510940944" class="fil1 str0" d="M286.444 112.916c2.6687,6.5169 7.9676,9.7338 8.9962,16.7374"/>
    <path id="_510940920" class="fil1 str0" d="M296.229 130.32c4.0948,-3.7068 0.7381,-9.2137 -5.3139,-15.3717"/>
    <path id="_510941256" class="fil1 str0" d="M298.957 133.746c3.0233,-6.5211 1.414,-11.6069 -4.8276,-15.2576"/>
   </g>
   <g>
    <path id="_510941064" class="fil0 str0" d="M298.011 121.445c4.0084,-6.7612 2.3918,-12.2518 -4.8499,-16.4722 -6.3168,-4.796 -12.9242,-4.8675 -18.5002,-4.6178 -3.1467,-1.0835 -2.1615,10.6441 7.4698,12.4538 6.5308,0.9801 12.6494,2.5928 15.8803,8.6362z"/>
    <path id="_510941544" class="fil1 str0" d="M275.224 100.331c1.7853,5.4697 5.2236,9.8287 10.3157,13.0772"/>
    <path id="_510941352" class="fil1 str0" d="M278.327 100.281c2.7282,6.2941 6.5588,10.7413 11.0083,14.1526"/>
    <path id="_510941496" class="fil1 str0" d="M282.251 100.552c3.3825,6.1765 9.0088,8.7791 10.8161,15.6231"/>
    <path id="_510941472" class="fil1 str0" d="M293.926 116.75c3.6533,-4.1426 -0.2996,-9.2384 -7.004,-14.679"/>
    <path id="_510940680" class="fil1 str0" d="M297.02 119.848c2.2732,-6.819 0.1037,-11.6922 -6.5079,-14.62"/>
   </g>
   <g>
    <path id="_510940584" class="fil0 str0" d="M306.072 157.223c4.7413,-6.2692 3.7505,-11.9065 -2.9723,-16.9122 -5.7392,-5.474 -12.297,-6.2859 -17.8658,-6.663 -3.0053,-1.4295 -3.3413,10.3347 6.0264,13.2128 6.3797,1.7062 12.2789,3.9948 14.8117,10.3624z"/>
    <path id="_510940416" class="fil1 str0" d="M285.796 133.687c1.1608,5.6353 4.0887,10.3524 8.7844,14.1514"/>
    <path id="_510940872" class="fil1 str0" d="M288.885 133.986c2.0053,6.5603 5.3131,11.409 9.3521,15.2977"/>
    <path id="_510940392" class="fil1 str0" d="M292.754 134.694c2.6686,6.5169 7.9676,9.7339 8.9961,16.7374"/>
    <path id="_510940512" class="fil1 str0" d="M302.538 152.099c4.0948,-3.7069 0.7381,-9.2138 -5.3139,-15.3718"/>
    <path id="_510940824" class="fil1 str0" d="M305.266 155.525c3.0234,-6.5211 1.414,-11.6069 -4.8276,-15.2575"/>
   </g>
   <g>
    <path id="_510940704" class="fil0 str0" d="M304.32 143.224c4.0084,-6.7613 2.3919,-12.2519 -4.8499,-16.4723 -6.3168,-4.7959 -12.9241,-4.8674 -18.5002,-4.6178 -3.1466,-1.0835 -2.1615,10.6441 7.4699,12.4538 6.5308,0.9802 12.6494,2.5928 15.8802,8.6363z"/>
    <path id="_510940800" class="fil1 str0" d="M281.533 122.11c1.7853,5.4697 5.2236,9.8287 10.3156,13.0772"/>
    <path id="_510940464" class="fil1 str0" d="M284.636 122.06c2.7283,6.2941 6.5589,10.7414 11.0084,14.1527"/>
    <path id="_510940200" class="fil1 str0" d="M288.56 122.33c3.3825,6.1765 9.0087,8.7791 10.8161,15.6231"/>
    <path id="_510940128" class="fil1 str0" d="M300.235 138.528c3.6534,-4.1427 -0.2996,-9.2385 -7.0039,-14.679"/>
    <path id="_510940296" class="fil1 str0" d="M303.33 141.627c2.2731,-6.8191 0.1037,-11.6923 -6.5079,-14.6201"/>
   </g>
   <g>
    <path id="_510940656" class="fil0 str0" d="M305.935 183.502c5.7885,-5.3173 5.8248,-11.0409 0.1085,-17.171 -4.6646,-6.4144 -10.9704,-8.3891 -16.3814,-9.7586 -2.7003,-1.9453 -5.1404,9.5679 3.5594,14.0792 5.9703,2.8226 11.3635,6.1319 12.7135,12.8504z"/>
    <path id="_510940560" class="fil1 str0" d="M290.208 156.712c0.1314,5.7522 2.166,10.9178 6.1044,15.4972"/>
    <path id="_510939888" class="fil1 str0" d="M293.194 157.559c0.7965,6.8136 3.1812,12.1769 6.4573,16.7268"/>
    <path id="_510939864" class="fil1 str0" d="M296.873 158.95c1.4568,6.8897 6.093,11.0048 5.849,18.0792"/>
    <path id="_510939984" class="fil1 str0" d="M303.378 177.827c4.6931,-2.9125 2.3784,-8.9321 -2.4713,-16.0755"/>
    <path id="_510939816" class="fil1 str0" d="M305.447 181.687c4.1437,-5.8733 3.4725,-11.1652 -2.0133,-15.8759"/>
   </g>
   <g>
    <path id="_510939408" class="fil0 str0" d="M306.723 169.415c5.1558,-5.9329 4.5501,-11.6244 -1.8175,-17.075 -5.3544,-5.8509 -11.8419,-7.1061 -17.3723,-7.8603 -2.9013,-1.6303 -4.0351,10.084 5.1156,13.5914 6.2492,2.1353 11.9794,4.8191 14.0742,11.3439z"/>
    <path id="_510939744" class="fil1 str0" d="M288.091 144.558c0.7755,5.7012 3.3765,10.6061 7.8034,14.715"/>
    <path id="_510939960" class="fil1 str0" d="M291.153 145.065c1.5554,6.6813 4.5264,11.7434 8.2921,15.8973"/>
    <path id="_510940056" class="fil1 str0" d="M294.964 146.035c2.2202,6.6829 7.2885,10.2522 7.8393,17.3094"/>
    <path id="_510939720" class="fil1 str0" d="M303.545 164.064c4.337,-3.4204 1.3619,-9.1425 -4.2582,-15.6971"/>
    <path id="_510940104" class="fil1 str0" d="M306.034 167.667c3.4591,-6.3009 2.1987,-11.4841 -3.7807,-15.5501"/>
   </g>
   <g>
    <path id="_510939912" class="fil0 str0" d="M308.292 205.444c5.7886,-5.3174 5.8248,-11.0409 0.1085,-17.1711 -4.6646,-6.4144 -10.9704,-8.389 -16.3814,-9.7586 -2.7002,-1.9453 -5.1403,9.5679 3.5594,14.0793 5.9704,2.8225 11.3635,6.1318 12.7135,12.8504z"/>
    <path id="_510939648" class="fil1 str0" d="M292.565 178.654c0.1314,5.7522 2.166,10.9178 6.1043,15.4973"/>
    <path id="_510939552" class="fil1 str0" d="M295.551 179.501c0.7964,6.8135 3.1811,12.1768 6.4573,16.7267"/>
    <path id="_510939696" class="fil1 str0" d="M299.23 180.892c1.4568,6.8898 6.0929,11.0048 5.849,18.0793"/>
    <path id="_510939528" class="fil1 str0" d="M305.735 199.769c4.6931,-2.9125 2.3783,-8.9321 -2.4714,-16.0755"/>
    <path id="_510938736" class="fil1 str0" d="M307.805 203.629c4.1437,-5.8733 3.4724,-11.1652 -2.0134,-15.876"/>
   </g>
   <g>
    <path id="_510938664" class="fil0 str0" d="M309.08 191.357c5.1559,-5.9329 4.5501,-11.6243 -1.8174,-17.0749 -5.3544,-5.8509 -11.8419,-7.1061 -17.3723,-7.8604 -2.9013,-1.6302 -4.0352,10.084 5.1156,13.5915 6.2491,2.1353 11.9793,4.819 14.0741,11.3438z"/>
    <path id="_510938976" class="fil1 str0" d="M290.448 166.5c0.7756,5.7012 3.3765,10.6061 7.8035,14.7151"/>
    <path id="_510938952" class="fil1 str0" d="M293.51 167.007c1.5554,6.6813 4.5265,11.7433 8.2921,15.8972"/>
    <path id="_510938640" class="fil1 str0" d="M297.322 167.977c2.2201,6.683 7.2884,10.2522 7.8392,17.3094"/>
    <path id="_510939192" class="fil1 str0" d="M305.902 186.005c4.337,-3.4204 1.3619,-9.1424 -4.2581,-15.697"/>
    <path id="_510938592" class="fil1 str0" d="M308.391 189.609c3.4591,-6.3009 2.1987,-11.4842 -3.7807,-15.5501"/>
   </g>
   <g>
    <path id="_510938760" class="fil0 str0" d="M233.729 51.1436c-1.3527,-7.7428 -6.1517,-10.8621 -14.3974,-9.3579 -7.9175,0.4654 -12.9829,4.7085 -17.0561,8.5248 -3.0949,1.2234 5.281,9.491 13.774,4.6015 5.5982,-3.5031 11.2948,-6.2576 17.6795,-3.7684z"/>
    <path id="_510939288" class="fil1 str0" d="M202.688 49.9264c4.9136,2.9936 10.3604,4.0684 16.3411,3.2242"/>
    <path id="_510939240" class="fil1 str0" d="M205.012 47.8703c6.166,3.0066 11.9682,3.8933 17.5667,3.5906"/>
    <path id="_510939120" class="fil1 str0" d="M208.169 45.5236c6.5865,2.4917 12.5529,0.8094 18.377,4.8326"/>
    <path id="_510939336" class="fil1 str0" d="M227.572 50.2343c0.0807,-5.5228 -6.2362,-6.8226 -14.8673,-6.5948"/>
    <path id="_510938928" class="fil1 str0" d="M231.938 50.5749c-2.7084,-6.6581 -7.5258,-8.9488 -14.4522,-6.8727"/>
   </g>
   <g>
    <path id="_510938880" class="fil0 str0" d="M218.866 46.3076c-2.2123,-7.5424 -7.3308,-10.1039 -15.3559,-7.6847 -7.8153,1.3503 -12.3731,6.1345 -15.9927,10.3835 -2.9382,1.5627 6.3119,8.839 14.2031,3.0281 5.1701,-4.1087 10.5219,-7.4846 17.1455,-5.7269z"/>
    <path id="_510938304" class="fil1 str0" d="M187.884 48.5785c5.2182,2.4238 10.7512,2.8811 16.5995,1.3716"/>
    <path id="_510938256" class="fil1 str0" d="M189.964 46.2747c6.4642,2.2963 12.3292,2.5268 17.8585,1.5983"/>
    <path id="_510938064" class="fil1 str0" d="M192.837 43.5889c6.8244,1.7375 12.5645,-0.6032 18.803,2.7416"/>
    <path id="_510937896" class="fil1 str0" d="M212.646 46.0944c-0.539,-5.497 -6.9618,-6.0804 -15.513,-4.8863"/>
    <path id="_510938568" class="fil1 str0" d="M217.023 45.9433c-3.4378,-6.3125 -8.4817,-8.0486 -15.1316,-5.2089"/>
   </g>
   <g>
    <path id="_510937968" class="fil0 str0" d="M255.736 64.9724c0.8544,-7.8135 -2.8875,-12.1446 -11.2262,-12.9934 -7.7345,-1.7552 -13.7803,0.9115 -18.7542,3.4442 -3.3131,0.3143 2.4326,10.5854 11.9504,8.2512 6.3517,-1.8077 12.5896,-2.8689 18.03,1.298z"/>
    <path id="_510938544" class="fil1 str0" d="M226.258 55.1688c3.8869,4.2423 8.8198,6.7897 14.7993,7.6424"/>
    <path id="_510938088" class="fil1 str0" d="M229.063 53.8406c5.0864,4.603 10.413,7.0686 15.8747,8.3351"/>
    <path id="_510938160" class="fil1 str0" d="M232.747 52.4645c5.6335,4.2254 11.8323,4.269 16.3076,9.7535"/>
    <path id="_510938376" class="fil1 str0" d="M250.074 62.3863c1.6138,-5.2824 -4.0923,-8.288 -12.4462,-10.47"/>
    <path id="_510938280" class="fil1 str0" d="M254.173 63.9279c-0.7495,-7.1487 -4.7396,-10.689 -11.9702,-10.6214"/>
   </g>
   <g>
    <path id="_510937872" class="fil0 str0" d="M243.618 52.1937c-2.2123,-7.5424 -7.3308,-10.1039 -15.3558,-7.6847 -7.8154,1.3503 -12.3732,6.1345 -15.9927,10.3835 -2.9383,1.5627 6.3118,8.839 14.203,3.0281 5.1702,-4.1087 10.5219,-7.4846 17.1455,-5.7269z"/>
    <path id="_510938016" class="fil1 str0" d="M212.636 54.4646c5.2182,2.4238 10.7512,2.8811 16.5996,1.3716"/>
    <path id="_510938400" class="fil1 str0" d="M214.715 52.1608c6.4642,2.2963 12.3293,2.5268 17.8585,1.5983"/>
    <path id="_510938520" class="fil1 str0" d="M217.589 49.475c6.8244,1.7375 12.5645,-0.6032 18.8031,2.7416"/>
    <path id="_510937680" class="fil1 str0" d="M237.398 51.9805c-0.539,-5.497 -6.9619,-6.0804 -15.513,-4.8862"/>
    <path id="_510937632" class="fil1 str0" d="M241.774 51.8294c-3.4378,-6.3125 -8.4817,-8.0486 -15.1316,-5.2089"/>
   </g>
   <g>
    <path id="_510937536" class="fil0 str0" d="M278.898 85.8426c2.2417,-7.5337 -0.663,-12.4656 -8.7143,-14.7959 -7.2944,-3.1137 -13.7204,-1.5744 -19.0678,0.0253 -3.3158,-0.2849 0.495,10.8501 10.2771,10.2604 6.5729,-0.6393 12.9,-0.5648 17.505,4.5102z"/>
    <path id="_510937344" class="fil1 str0" d="M251.656 70.912c3.0632,4.8704 7.4593,8.2612 13.1891,10.1722"/>
    <path id="_510937272" class="fil1 str0" d="M254.654 70.1082c4.1785,5.4405 8.9766,8.8213 14.1227,11.0467"/>
    <path id="_510937512" class="fil1 str0" d="M258.526 69.4151c4.7845,5.1672 10.875,6.3216 14.2942,12.5197"/>
    <path id="_510937128" class="fil1 str0" d="M273.792 82.2832c2.5348,-4.9075 -2.5398,-8.8876 -10.367,-12.5322"/>
    <path id="_510937464" class="fil1 str0" d="M277.548 84.5348c0.5445,-7.1672 -2.7461,-11.3657 -9.8715,-12.5957"/>
   </g>
   <g>
    <path id="_510937152" class="fil0 str0" d="M269.406 75.1052c1.3828,-7.7376 -2.0565,-12.3126 -10.3183,-13.7255 -7.5975,-2.2762 -13.8104,-0.0261 -18.9448,2.1631 -3.3267,0.0887 1.7085,10.7261 11.3628,9.0434 6.4598,-1.3723 12.7553,-2.0077 17.9003,2.519z"/>
    <path id="_510937200" class="fil1 str0" d="M240.661 63.3232c3.59,4.4963 8.3386,7.3728 14.2465,8.6293"/>
    <path id="_510937416" class="fil1 str0" d="M243.55 62.1884c4.7622,4.9377 9.9091,7.7592 15.2723,9.3935"/>
    <path id="_510937056" class="fil1 str0" d="M247.319 61.0656c5.3337,4.5981 11.5153,5.0624 15.6079,10.838"/>
    <path id="_510937728" class="fil1 str0" d="M263.933 72.1407c1.9686,-5.1607 -3.5203,-8.5467 -11.7067,-11.2907"/>
    <path id="_510937800" class="fil1 str0" d="M267.918 73.957c-0.2625,-7.1831 -4.0031,-10.9861 -11.2216,-11.4094"/>
   </g>
   <g>
    <path id="_510937176" class="fil0 str0" d="M293.72 110.228c3.0864,-7.2289 0.7632,-12.4598 -6.9698,-15.6933 -6.8916,-3.9253 -13.4513,-3.129 -18.9463,-2.1497 -3.2616,-0.6612 -0.7458,10.8357 9.0398,11.3657 6.6029,0.1145 12.8802,0.9102 16.8763,6.4773z"/>
    <path id="_510936744" class="fil1 str0" d="M268.359 92.2877c2.4877,5.1881 6.4684,9.0581 11.9427,11.6102"/>
    <path id="_510936432" class="fil1 str0" d="M271.429 91.8311c3.5307,5.8816 7.9118,9.7876 12.7706,12.5854"/>
    <path id="_510936720" class="fil1 str0" d="M275.354 91.5841c4.164,5.6792 10.0831,7.5208 12.7731,14.0684"/>
    <path id="_510936312" class="fil1 str0" d="M289.054 106.11c3.0781,-4.5862 -1.5095,-9.1192 -8.8699,-13.6327"/>
    <path id="_510936288" class="fil1 str0" d="M292.529 108.775c1.3585,-7.0583 -1.4318,-11.6047 -8.3705,-13.6394"/>
   </g>
   <g>
    <path id="_510936696" class="fil0 str0" d="M288.639 97.0666c2.2564,-7.5293 -0.6387,-12.4668 -8.6854,-14.8128 -7.2883,-3.1279 -13.7173,-1.6011 -19.0679,-0.0118 -3.3152,-0.2914 0.4739,10.851 10.2572,10.2804 6.5741,-0.6266 12.9011,-0.5397 17.4961,4.5442z"/>
    <path id="_510936672" class="fil1 str0" d="M261.426 82.083c3.0537,4.8764 7.4432,8.2757 13.1692,10.1979"/>
    <path id="_510936576" class="fil1 str0" d="M264.425 81.285c4.1679,5.4486 8.9594,8.8388 14.1012,11.0742"/>
    <path id="_510936984" class="fil1 str0" d="M268.298 80.5995c4.7745,5.1765 10.8628,6.3428 14.2699,12.5475"/>
    <path id="_510936768" class="fil1 str0" d="M283.54 93.4973c2.5444,-4.9025 -2.5225,-8.8925 -10.3426,-12.5523"/>
    <path id="_510936960" class="fil1 str0" d="M287.292 95.7562c0.5585,-7.1661 -2.7239,-11.371 -9.847,-12.6149"/>
   </g>
   <polygon id="_510936360" class="fil0 str0" points="302.281,195.99 310.019,197.632 321.508,206.776 321.039,209.824 320.101,213.81 324.087,219.672 321.977,221.782 317.053,217.093 325.494,238.43 323.618,241.009 324.556,243.588 327.839,257.657 325.26,258.36 321.743,245.464 319.398,241.947 318.225,244.761 318.694,248.512 316.115,247.809 315.881,237.961 313.067,228.816 314.474,233.389 310.488,234.444 311.895,238.195 315.998,242.885 314.474,255.077 312.833,257.657 312.364,251.091 310.019,255.781 309.55,263.284 306.502,265.863 303.688,265.394 304.392,257.422 300.64,256.953 303.688,265.394 299.702,266.332 298.53,258.36 299.116,262.346 294.309,262.581 292.902,257.422 289.385,247.809 286.337,256.719 282.351,266.801 279.068,265.394 284.696,254.608 279.068,265.394 274.379,263.519 283.289,251.56 285.868,240.071 281.882,246.636 277.427,246.871 278.834,241.713 274.613,241.713 272.503,244.761 268.283,244.761 265.938,247.809 260.545,254.843 256.794,254.14 261.717,246.636 259.373,245.23 267.579,236.32 266.876,231.396 262.655,236.554 258.904,235.382 255.152,237.257 252.104,235.851 246.946,240.54 243.663,239.837 251.166,232.099 258.435,224.831 264.531,218.969 270.628,210.059 280.006,203.493 288.447,198.57 295.716,196.694 "/>
   <polyline id="_510937032" class="fil1 str0" points="299.273,198.447 305.529,204.881 305.529,221.063 305.886,232.584 305.886,245.094 304.392,257.422 "/>
   <polyline id="_510936936" class="fil1 str0" points="302.848,197.911 308.216,203.988 308.216,221.063 309.103,229.903 309.103,237.945 309.461,245.273 310.019,255.781 "/>
   <line id="_510936792" class="fil1 str0" x1="309.818" y1="205.417" x2="317.146" y2= "212.03" />
   <polyline id="_510936048" class="fil1 str0" points="306.15,196.811 309.639,200.771 314.107,204.167 318.397,208.635 321.039,209.824 "/>
   <polyline id="_510935976" class="fil1 str0" points="297.486,201.128 302.49,208.456 302.49,222.039 303.027,233.12 303.027,241.52 303.027,253.494 302.516,257.188 "/>
   <polyline id="_510935880" class="fil1 str0" points="298.38,206.132 300.346,213.639 300.703,226.328 301.418,240.09 300.703,254.566 "/>
   <polyline id="_510935832" class="fil1 str0" points="295.342,201.664 296.235,206.847 296.592,215.605 298.112,231.601 298.38,248.668 297.665,256.354 "/>
   <polyline id="_510935664" class="fil1 str0" points="289.951,198.181 277.648,208.456 268.354,216.498 265.673,223.826 257.631,230.26 253.342,233.656 "/>
   <polyline id="_510936120" class="fil1 str0" points="290.337,200.413 285.333,206.132 283.188,219.179 279.078,221.063 272.822,236.873 271.75,241.52 "/>
   <polyline id="_510936216" class="fil1 str0" points="292.661,201.486 288.371,206.669 285.69,221.063 282.116,224.541 276.397,238.303 "/>
   <polyline id="_510935712" class="fil1 str0" points="293.197,205.06 291.588,219.358 292.303,229.009 293.018,238.839 293.197,248.49 292.902,257.422 "/>
   <polyline id="_510936072" class="fil1 str0" points="294.448,211.494 294.984,227.043 295.878,244.737 296.414,259.928 "/>
   <polyline id="_510935808" class="fil1 str0" points="291.052,210.064 288.907,219.179 283.188,231.69 278.72,239.018 "/>
   <polyline id="_510935688" class="fil1 str0" points="289.98,223.469 285.69,233.656 281.401,240.983 "/>
   <line id="_510935856" class="fil1 str0" x1="290.337" y1="229.188" x2="285.868" y2= "240.071" />
   <polyline id="_510935568" class="fil1 str0" points="291.231,236.337 288.371,241.698 286.584,249.205 284.696,254.608 "/>
   <line id="_510935928" class="fil1 str0" x1="290.516" y1="240.983" x2="289.385" y2= "247.809" />
   <polyline id="_510936144" class="fil1 str0" points="286.763,200.844 277.648,208.456 271.214,218.643 266.567,225.613 259.597,233.298 "/>
   <polyline id="_510935544" class="fil1 str0" points="282.206,204.65 283.188,208.098 280.15,211.852 276.576,216.141 271.929,223.29 268.712,228.473 266.876,231.396 "/>
   <polyline id="_510935112" class="fil1 str0" points="281.937,213.996 277.112,219.894 273.716,225.256 270.678,231.511 266.551,237.436 "/>
   <polyline id="_510934848" class="fil1 str0" points="271.214,235.264 267.103,241.162 261.717,246.636 "/>
   <polyline id="_510934824" class="fil1 str0" points="309.921,209.019 314.181,216.931 319.862,229.307 322.702,238.437 "/>
   <polyline id="_510935448" class="fil1 str0" points="309.515,215.511 313.775,223.626 317.022,231.539 319.659,238.843 "/>
   <line id="_510935328" class="fil1 str0" x1="310.326" y1="222.409" x2="313.067" y2= "228.816" />
   <line id="_510935208" class="fil1 str0" x1="309.282" y1="241.609" x2="312.364" y2= "251.091" />
   <line id="_510934992" class="fil1 str0" x1="311.895" y1="238.195" x2="313.775" y2= "247.567" />
   <line id="_510934968" class="fil1 str0" x1="312.481" y1="233.916" x2="310.732" y2= "227.684" />
   <rect id="_510935256" class="fil2 str0" x="288.916" y="187.865" width="23.1685" height="9.76687"/>
   <g>
    <path id="_510935352" class="fil0 str0" d="M115.605 135.444c-4.7412,-6.2692 -3.7505,-11.9064 2.9724,-16.9122 5.7392,-5.4739 12.2969,-6.2858 17.8658,-6.6629 3.0053,-1.4295 3.3413,10.3346 -6.0264,13.2128 -6.3797,1.7062 -12.2789,3.9948 -14.8118,10.3623z"/>
    <path id="_510934896" class="fil1 str0" d="M135.881 111.909c-1.1608,5.6354 -4.0887,10.3524 -8.7844,14.1514"/>
    <path id="_510934944" class="fil1 str0" d="M132.792 112.207c-2.0054,6.5603 -5.3132,11.409 -9.3521,15.2977"/>
    <path id="_510935040" class="fil1 str0" d="M128.923 112.916c-2.6687,6.5169 -7.9676,9.7338 -8.9962,16.7374"/>
    <path id="_510934872" class="fil1 str0" d="M119.138 130.32c-4.0948,-3.7068 -0.7381,-9.2137 5.3139,-15.3717"/>
    <path id="_510934752" class="fil1 str0" d="M116.411 133.746c-3.0234,-6.5211 -1.4141,-11.6069 4.8276,-15.2576"/>
   </g>
   <g>
    <path id="_510934536" class="fil0 str0" d="M117.357 121.445c-4.0084,-6.7612 -2.3919,-12.2518 4.8498,-16.4722 6.3168,-4.796 12.9242,-4.8675 18.5003,-4.6178 3.1466,-1.0835 2.1614,10.6441 -7.4699,12.4538 -6.5308,0.9801 -12.6494,2.5928 -15.8802,8.6362z"/>
    <path id="_510934488" class="fil1 str0" d="M140.144 100.331c-1.7853,5.4697 -5.2236,9.8287 -10.3156,13.0772"/>
    <path id="_510934416" class="fil1 str0" d="M137.041 100.281c-2.7283,6.2941 -6.5589,10.7413 -11.0084,14.1526"/>
    <path id="_510934296" class="fil1 str0" d="M133.117 100.552c-3.3825,6.1765 -9.0087,8.7791 -10.8161,15.6231"/>
    <path id="_510934344" class="fil1 str0" d="M121.442 116.75c-3.6534,-4.1426 0.2996,-9.2384 7.0039,-14.679"/>
    <path id="_510934056" class="fil1 str0" d="M118.347 119.848c-2.2731,-6.819 -0.1037,-11.6922 6.5079,-14.62"/>
   </g>
   <g>
    <path id="_510934728" class="fil0 str0" d="M109.296 157.223c-4.7412,-6.2692 -3.7505,-11.9065 2.9724,-16.9122 5.7392,-5.474 12.2969,-6.2859 17.8658,-6.663 3.0053,-1.4295 3.3413,10.3347 -6.0264,13.2128 -6.3797,1.7062 -12.2789,3.9948 -14.8118,10.3624z"/>
    <path id="_510934440" class="fil1 str0" d="M129.572 133.687c-1.1607,5.6353 -4.0886,10.3524 -8.7843,14.1514"/>
    <path id="_510934584" class="fil1 str0" d="M126.483 133.986c-2.0053,6.5603 -5.3131,11.409 -9.3521,15.2977"/>
    <path id="_510934560" class="fil1 str0" d="M122.614 134.694c-2.6687,6.5169 -7.9676,9.7339 -8.9962,16.7374"/>
    <path id="_510934680" class="fil1 str0" d="M112.829 152.099c-4.0948,-3.7069 -0.7382,-9.2138 5.3139,-15.3718"/>
    <path id="_510934176" class="fil1 str0" d="M110.101 155.525c-3.0234,-6.5211 -1.414,-11.6069 4.8276,-15.2575"/>
   </g>
   <g>
    <path id="_510934080" class="fil0 str0" d="M111.047 143.224c-4.0084,-6.7613 -2.3918,-12.2519 4.8499,-16.4723 6.3168,-4.7959 12.9242,-4.8674 18.5002,-4.6178 3.1466,-1.0835 2.1615,10.6441 -7.4699,12.4538 -6.5307,0.9802 -12.6493,2.5928 -15.8802,8.6363z"/>
    <path id="_510934152" class="fil1 str0" d="M133.835 122.11c-1.7853,5.4697 -5.2236,9.8287 -10.3157,13.0772"/>
    <path id="_510934320" class="fil1 str0" d="M130.731 122.06c-2.7282,6.2941 -6.5588,10.7414 -11.0083,14.1527"/>
    <path id="_510933840" class="fil1 str0" d="M126.808 122.33c-3.3825,6.1765 -9.0088,8.7791 -10.8161,15.6231"/>
    <path id="_510933792" class="fil1 str0" d="M115.133 138.528c-3.6533,-4.1427 0.2996,-9.2385 7.0039,-14.679"/>
    <path id="_510933768" class="fil1 str0" d="M112.038 141.627c-2.2731,-6.8191 -0.1036,-11.6923 6.5079,-14.6201"/>
   </g>
   <g>
    <path id="_510933384" class="fil0 str0" d="M109.432 183.502c-5.7885,-5.3173 -5.8247,-11.0409 -0.1085,-17.171 4.6646,-6.4144 10.9705,-8.3891 16.3815,-9.7586 2.7002,-1.9453 5.1403,9.5679 -3.5595,14.0792 -5.9703,2.8226 -11.3635,6.1319 -12.7135,12.8504z"/>
    <path id="_510933696" class="fil1 str0" d="M125.16 156.712c-0.1314,5.7522 -2.166,10.9178 -6.1043,15.4972"/>
    <path id="_510933240" class="fil1 str0" d="M122.174 157.559c-0.7964,6.8136 -3.1811,12.1769 -6.4573,16.7268"/>
    <path id="_510933888" class="fil1 str0" d="M118.495 158.95c-1.4568,6.8897 -6.093,11.0048 -5.849,18.0792"/>
    <path id="_510933960" class="fil1 str0" d="M111.99 177.827c-4.6931,-2.9125 -2.3783,-8.9321 2.4713,-16.0755"/>
    <path id="_510933360" class="fil1 str0" d="M109.92 181.687c-4.1437,-5.8733 -3.4724,-11.1652 2.0134,-15.8759"/>
   </g>
   <g>
    <path id="_510933336" class="fil0 str0" d="M108.645 169.415c-5.1559,-5.9329 -4.5501,-11.6244 1.8174,-17.075 5.3544,-5.8509 11.8419,-7.1061 17.3723,-7.8603 2.9013,-1.6303 4.0351,10.084 -5.1156,13.5914 -6.2491,2.1353 -11.9794,4.8191 -14.0741,11.3439z"/>
    <path id="_510933624" class="fil1 str0" d="M127.277 144.558c-0.7755,5.7012 -3.3764,10.6061 -7.8034,14.715"/>
    <path id="_510933264" class="fil1 str0" d="M124.215 145.065c-1.5553,6.6813 -4.5264,11.7434 -8.292,15.8973"/>
    <path id="_510933936" class="fil1 str0" d="M120.403 146.035c-2.2201,6.6829 -7.2885,10.2522 -7.8393,17.3094"/>
    <path id="_510933504" class="fil1 str0" d="M111.823 164.064c-4.3369,-3.4204 -1.3618,-9.1425 4.2582,-15.6971"/>
    <path id="_510933600" class="fil1 str0" d="M109.333 167.667c-3.459,-6.3009 -2.1986,-11.4841 3.7808,-15.5501"/>
   </g>
   <g>
    <path id="_510932616" class="fil0 str0" d="M107.075 205.444c-5.7886,-5.3174 -5.8248,-11.0409 -0.1085,-17.1711 4.6646,-6.4144 10.9704,-8.389 16.3814,-9.7586 2.7002,-1.9453 5.1404,9.5679 -3.5594,14.0793 -5.9703,2.8225 -11.3635,6.1318 -12.7135,12.8504z"/>
    <path id="_510932856" class="fil1 str0" d="M122.802 178.654c-0.1314,5.7522 -2.166,10.9178 -6.1044,15.4973"/>
    <path id="_510932568" class="fil1 str0" d="M119.817 179.501c-0.7965,6.8135 -3.1812,12.1768 -6.4574,16.7267"/>
    <path id="_510933144" class="fil1 str0" d="M116.138 180.892c-1.4568,6.8898 -6.093,11.0048 -5.849,18.0793"/>
    <path id="_510933096" class="fil1 str0" d="M109.633 199.769c-4.6932,-2.9125 -2.3784,-8.9321 2.4713,-16.0755"/>
    <path id="_510932928" class="fil1 str0" d="M107.563 203.629c-4.1438,-5.8733 -3.4725,-11.1652 2.0133,-15.876"/>
   </g>
   <g>
    <path id="_510933072" class="fil0 str0" d="M106.288 191.357c-5.1559,-5.9329 -4.5501,-11.6243 1.8175,-17.0749 5.3544,-5.8509 11.8418,-7.1061 17.3723,-7.8604 2.9013,-1.6302 4.0351,10.084 -5.1156,13.5915 -6.2492,2.1353 -11.9794,4.819 -14.0742,11.3438z"/>
    <path id="_510933000" class="fil1 str0" d="M124.92 166.5c-0.7755,5.7012 -3.3765,10.6061 -7.8035,14.7151"/>
    <path id="_510932904" class="fil1 str0" d="M121.858 167.007c-1.5554,6.6813 -4.5264,11.7433 -8.2921,15.8972"/>
    <path id="_510932688" class="fil1 str0" d="M118.046 167.977c-2.2201,6.683 -7.2884,10.2522 -7.8392,17.3094"/>
    <path id="_510932664" class="fil1 str0" d="M109.465 186.005c-4.337,-3.4204 -1.3619,-9.1424 4.2582,-15.697"/>
    <path id="_510933120" class="fil1 str0" d="M106.976 189.609c-3.4591,-6.3009 -2.1987,-11.4842 3.7807,-15.5501"/>
   </g>
   <g>
    <path id="_510933024" class="fil0 str0" d="M181.639 51.1436c1.3527,-7.7428 6.1517,-10.8621 14.3974,-9.3579 7.9175,0.4654 12.983,4.7085 17.0561,8.5248 3.0949,1.2234 -5.281,9.491 -13.7739,4.6015 -5.5983,-3.5031 -11.2948,-6.2576 -17.6796,-3.7684z"/>
    <path id="_510932640" class="fil1 str0" d="M212.68 49.9264c-4.9135,2.9936 -10.3603,4.0684 -16.3411,3.2242"/>
    <path id="_510932712" class="fil1 str0" d="M210.355 47.8703c-6.166,3.0066 -11.9682,3.8933 -17.5667,3.5906"/>
    <path id="_510932112" class="fil1 str0" d="M207.199 45.5236c-6.5866,2.4917 -12.5529,0.8094 -18.3771,4.8326"/>
    <path id="_510931968" class="fil1 str0" d="M187.796 50.2343c-0.0808,-5.5228 6.2362,-6.8226 14.8673,-6.5948"/>
    <path id="_510931896" class="fil1 str0" d="M183.43 50.5749c2.7083,-6.6581 7.5258,-8.9488 14.4521,-6.8727"/>
   </g>
   <g>
    <path id="_510931872" class="fil0 str0" d="M196.501 46.3076c2.2124,-7.5424 7.3308,-10.1039 15.3559,-7.6847 7.8154,1.3503 12.3731,6.1345 15.9927,10.3835 2.9382,1.5627 -6.3119,8.839 -14.203,3.0281 -5.1702,-4.1087 -10.522,-7.4846 -17.1456,-5.7269z"/>
    <path id="_510931848" class="fil1 str0" d="M227.484 48.5785c-5.2183,2.4238 -10.7512,2.8811 -16.5996,1.3716"/>
    <path id="_510932184" class="fil1 str0" d="M225.404 46.2747c-6.4643,2.2963 -12.3293,2.5268 -17.8586,1.5983"/>
    <path id="_510931728" class="fil1 str0" d="M222.531 43.5889c-6.8243,1.7375 -12.5644,-0.6032 -18.803,2.7416"/>
    <path id="_510931680" class="fil1 str0" d="M202.722 46.0944c0.539,-5.497 6.9619,-6.0804 15.513,-4.8863"/>
    <path id="_510932208" class="fil1 str0" d="M198.345 45.9433c3.4379,-6.3125 8.4818,-8.0486 15.1317,-5.2089"/>
   </g>
   <g>
    <path id="_510932136" class="fil0 str0" d="M159.632 64.9724c-0.8544,-7.8135 2.8875,-12.1446 11.2263,-12.9934 7.7344,-1.7552 13.7802,0.9115 18.7542,3.4442 3.313,0.3143 -2.4327,10.5854 -11.9505,8.2512 -6.3517,-1.8077 -12.5896,-2.8689 -18.03,1.298z"/>
    <path id="_510932280" class="fil1 str0" d="M189.11 55.1688c-3.887,4.2423 -8.8199,6.7897 -14.7994,7.6424"/>
    <path id="_510932256" class="fil1 str0" d="M186.305 53.8406c-5.0864,4.603 -10.4129,7.0686 -15.8747,8.3351"/>
    <path id="_510932160" class="fil1 str0" d="M182.62 52.4645c-5.6335,4.2254 -11.8324,4.269 -16.3076,9.7535"/>
    <path id="_510932352" class="fil1 str0" d="M165.293 62.3863c-1.6137,-5.2824 4.0924,-8.288 12.4462,-10.47"/>
    <path id="_510931824" class="fil1 str0" d="M161.195 63.9279c0.7494,-7.1487 4.7396,-10.689 11.9701,-10.6214"/>
   </g>
   <g>
    <path id="_510931248" class="fil0 str0" d="M171.75 52.1937c2.2123,-7.5424 7.3308,-10.1039 15.3559,-7.6847 7.8153,1.3503 12.3731,6.1345 15.9927,10.3835 2.9382,1.5627 -6.3119,8.839 -14.2031,3.0281 -5.1701,-4.1087 -10.5219,-7.4846 -17.1455,-5.7269z"/>
    <path id="_510930960" class="fil1 str0" d="M202.732 54.4646c-5.2182,2.4238 -10.7512,2.8811 -16.5995,1.3716"/>
    <path id="_510931368" class="fil1 str0" d="M200.652 52.1608c-6.4642,2.2963 -12.3292,2.5268 -17.8585,1.5983"/>
    <path id="_510931104" class="fil1 str0" d="M197.779 49.475c-6.8244,1.7375 -12.5645,-0.6032 -18.803,2.7416"/>
    <path id="_510931464" class="fil1 str0" d="M177.97 51.9805c0.539,-5.497 6.9618,-6.0804 15.513,-4.8862"/>
    <path id="_510931200" class="fil1 str0" d="M173.594 51.8294c3.4378,-6.3125 8.4817,-8.0486 15.1316,-5.2089"/>
   </g>
   <g>
    <path id="_510931224" class="fil0 str0" d="M136.469 85.8426c-2.2416,-7.5337 0.663,-12.4656 8.7144,-14.7959 7.2943,-3.1137 13.7203,-1.5744 19.0678,0.0253 3.3157,-0.2849 -0.495,10.8501 -10.2772,10.2604 -6.5729,-0.6393 -12.9,-0.5648 -17.505,4.5102z"/>
    <path id="_510931560" class="fil1 str0" d="M163.712 70.912c-3.0632,4.8704 -7.4593,8.2612 -13.189,10.1722"/>
    <path id="_510931320" class="fil1 str0" d="M160.714 70.1082c-4.1786,5.4405 -8.9767,8.8213 -14.1228,11.0467"/>
    <path id="_510931536" class="fil1 str0" d="M156.842 69.4151c-4.7845,5.1672 -10.8751,6.3216 -14.2943,12.5197"/>
    <path id="_510931632" class="fil1 str0" d="M141.575 82.2832c-2.5348,-4.9075 2.5399,-8.8876 10.367,-12.5322"/>
    <path id="_510931080" class="fil1 str0" d="M137.819 84.5348c-0.5446,-7.1672 2.746,-11.3657 9.8715,-12.5957"/>
   </g>
   <g>
    <path id="_510931272" class="fil0 str0" d="M145.962 75.1052c-1.3828,-7.7376 2.0565,-12.3126 10.3184,-13.7255 7.5974,-2.2762 13.8103,-0.0261 18.9447,2.1631 3.3268,0.0887 -1.7084,10.7261 -11.3628,9.0434 -6.4597,-1.3723 -12.7553,-2.0077 -17.9003,2.519z"/>
    <path id="_510931512" class="fil1 str0" d="M174.707 63.3232c-3.59,4.4963 -8.3386,7.3728 -14.2464,8.6293"/>
    <path id="_510930576" class="fil1 str0" d="M171.818 62.1884c-4.7622,4.9377 -9.9091,7.7592 -15.2723,9.3935"/>
    <path id="_510930504" class="fil1 str0" d="M168.048 61.0656c-5.3337,4.5981 -11.5153,5.0624 -15.6079,10.838"/>
    <path id="_510930168" class="fil1 str0" d="M151.435 72.1407c-1.9686,-5.1607 3.5203,-8.5467 11.7068,-11.2907"/>
    <path id="_510930288" class="fil1 str0" d="M147.45 73.957c0.2625,-7.1831 4.0031,-10.9861 11.2215,-11.4094"/>
   </g>
   <g>
    <path id="_510930528" class="fil0 str0" d="M121.647 110.228c-3.0863,-7.2289 -0.7631,-12.4598 6.9699,-15.6933 6.8916,-3.9253 13.4512,-3.129 18.9462,-2.1497 3.2616,-0.6612 0.7458,10.8357 -9.0398,11.3657 -6.6029,0.1145 -12.8802,0.9102 -16.8763,6.4773z"/>
    <path id="_510930264" class="fil1 str0" d="M147.009 92.2877c-2.4878,5.1881 -6.4684,9.0581 -11.9428,11.6102"/>
    <path id="_510930696" class="fil1 str0" d="M143.939 91.8311c-3.5308,5.8816 -7.9119,9.7876 -12.7706,12.5854"/>
    <path id="_510930432" class="fil1 str0" d="M140.013 91.5841c-4.1639,5.6792 -10.0831,7.5208 -12.773,14.0684"/>
    <path id="_510930864" class="fil1 str0" d="M126.314 106.11c-3.078,-4.5862 1.5096,-9.1192 8.8699,-13.6327"/>
    <path id="_510930216" class="fil1 str0" d="M122.839 108.775c-1.3585,-7.0583 1.4317,-11.6047 8.3704,-13.6394"/>
   </g>
   <g>
    <path id="_510930480" class="fil0 str0" d="M126.729 97.0666c-2.2564,-7.5293 0.6387,-12.4668 8.6855,-14.8128 7.2882,-3.1279 13.7172,-1.6011 19.0678,-0.0118 3.3152,-0.2914 -0.4739,10.851 -10.2571,10.2804 -6.5742,-0.6266 -12.9011,-0.5397 -17.4962,4.5442z"/>
    <path id="_510930672" class="fil1 str0" d="M153.942 82.083c-3.0538,4.8764 -7.4433,8.2757 -13.1693,10.1979"/>
    <path id="_510930384" class="fil1 str0" d="M150.942 81.285c-4.1679,5.4486 -8.9594,8.8388 -14.1012,11.0742"/>
    <path id="_510930840" class="fil1 str0" d="M147.069 80.5995c-4.7744,5.1765 -10.8627,6.3428 -14.2699,12.5475"/>
    <path id="_510930648" class="fil1 str0" d="M131.828 93.4973c-2.5444,-4.9025 2.5225,-8.8925 10.3425,-12.5523"/>
    <path id="_510929952" class="fil1 str0" d="M128.076 95.7562c-0.5586,-7.1661 2.7239,-11.371 9.8469,-12.6149"/>
   </g>
   <polygon id="_510929664" class="fil0 str0" points="113.086,195.99 105.349,197.632 93.8597,206.776 94.3286,209.824 95.2665,213.81 91.2805,219.672 93.3907,221.782 98.3146,217.093 89.8736,238.43 91.7494,241.009 90.8115,243.588 87.5289,257.657 90.1081,258.36 93.6252,245.464 95.9699,241.947 97.1423,244.761 96.6733,248.512 99.2525,247.809 99.487,237.961 102.301,228.816 100.894,233.389 104.88,234.444 103.473,238.195 99.3698,242.885 100.894,255.077 102.535,257.657 103.004,251.091 105.349,255.781 105.818,263.284 108.866,265.863 111.68,265.394 110.976,257.422 114.728,256.953 111.68,265.394 115.666,266.332 116.838,258.36 116.252,262.346 121.059,262.581 122.465,257.422 125.982,247.809 129.031,256.719 133.017,266.801 136.299,265.394 130.672,254.608 136.299,265.394 140.989,263.519 132.079,251.56 129.5,240.071 133.486,246.636 137.941,246.871 136.534,241.713 140.754,241.713 142.864,244.761 147.085,244.761 149.43,247.809 154.823,254.843 158.574,254.14 153.65,246.636 155.995,245.23 147.788,236.32 148.492,231.396 152.712,236.554 156.464,235.382 160.215,237.257 163.264,235.851 168.422,240.54 171.705,239.837 164.202,232.099 156.933,224.831 150.837,218.969 144.74,210.059 135.361,203.493 126.92,198.57 119.652,196.694 "/>
   <polyline id="_510929616" class="fil1 str0" points="116.094,198.447 109.839,204.881 109.839,221.063 109.482,232.584 109.482,245.094 110.976,257.422 "/>
   <polyline id="_510929472" class="fil1 str0" points="112.52,197.911 107.152,203.988 107.152,221.063 106.265,229.903 106.265,237.945 105.907,245.273 105.349,255.781 "/>
   <line id="_510930096" class="fil1 str0" x1="105.55" y1="205.417" x2="98.222" y2= "212.03" />
   <polyline id="_510929592" class="fil1 str0" points="109.218,196.811 105.728,200.771 101.26,204.167 96.971,208.635 94.3286,209.824 "/>
   <polyline id="_510929688" class="fil1 str0" points="117.882,201.128 112.877,208.456 112.877,222.039 112.341,233.12 112.341,241.52 112.341,253.494 112.852,257.188 "/>
   <polyline id="_510929904" class="fil1 str0" points="116.988,206.132 115.022,213.639 114.665,226.328 113.95,240.09 114.665,254.566 "/>
   <polyline id="_510929448" class="fil1 str0" points="120.026,201.664 119.133,206.847 118.775,215.605 117.256,231.601 116.988,248.668 117.703,256.354 "/>
   <polyline id="_510929568" class="fil1 str0" points="125.416,198.181 137.72,208.456 147.013,216.498 149.694,223.826 157.737,230.26 162.026,233.656 "/>
   <polyline id="_510929976" class="fil1 str0" points="125.03,200.413 130.035,206.132 132.179,219.179 136.29,221.063 142.545,236.873 143.618,241.52 "/>
   <polyline id="_510930120" class="fil1 str0" points="122.707,201.486 126.997,206.669 129.677,221.063 133.252,224.541 138.971,238.303 "/>
   <polyline id="_510929424" class="fil1 str0" points="122.171,205.06 123.78,219.358 123.065,229.009 122.35,238.839 122.171,248.49 122.465,257.422 "/>
   <polyline id="_510929496" class="fil1 str0" points="120.92,211.494 120.384,227.043 119.49,244.737 118.954,259.928 "/>
   <polyline id="_510929376" class="fil1 str0" points="124.316,210.064 126.46,219.179 132.179,231.69 136.647,239.018 "/>
   <polyline id="_510930024" class="fil1 str0" points="125.388,223.469 129.677,233.656 133.967,240.983 "/>
   <line id="_510929184" class="fil1 str0" x1="125.03" y1="229.188" x2="129.5" y2= "240.071" />
   <polyline id="_510929136" class="fil1 str0" points="124.137,236.337 126.997,241.698 128.784,249.205 130.672,254.608 "/>
   <line id="_510929064" class="fil1 str0" x1="124.852" y1="240.983" x2="125.982" y2= "247.809" />
   <polyline id="_510928872" class="fil1 str0" points="128.605,200.844 137.72,208.456 144.154,218.643 148.801,225.613 155.771,233.298 "/>
   <polyline id="_510929040" class="fil1 str0" points="133.162,204.65 132.179,208.098 135.218,211.852 138.792,216.141 143.439,223.29 146.656,228.473 148.492,231.396 "/>
   <polyline id="_510928992" class="fil1 str0" points="133.43,213.996 138.256,219.894 141.652,225.256 144.69,231.511 148.817,237.436 "/>
   <polyline id="_510928800" class="fil1 str0" points="144.154,235.264 148.265,241.162 153.65,246.636 "/>
   <polyline id="_510928752" class="fil1 str0" points="105.447,209.019 101.187,216.931 95.5058,229.307 92.6654,238.437 "/>
   <polyline id="_510929280" class="fil1 str0" points="105.853,215.511 101.592,223.626 98.3462,231.539 95.7087,238.843 "/>
   <line id="_510929328" class="fil1 str0" x1="105.042" y1="222.409" x2="102.301" y2= "228.816" />
   <line id="_510928776" class="fil1 str0" x1="106.086" y1="241.609" x2="103.004" y2= "251.091" />
   <line id="_510929256" class="fil1 str0" x1="103.473" y1="238.195" x2="101.592" y2= "247.567" />
   <line id="_510928944" class="fil1 str0" x1="102.887" y1="233.916" x2="104.636" y2= "227.684" />
   <rect id="_510928656" class="fil2 str0" x="103.283" y="187.865" width="23.1685" height="9.76687"/>
  </g>
 </g>
</svg>
