<?xml version="1.0" encoding="UTF-8"?>
<!DOCTYPE svg PUBLIC "-//W3C//DTD SVG 1.1//EN" "http://www.w3.org/Graphics/SVG/1.1/DTD/svg11.dtd">
<!-- Creator: CorelDRAW -->
<svg xmlns="http://www.w3.org/2000/svg" xml:space="preserve" width="420mm" height="420mm" style="shape-rendering:geometricPrecision; text-rendering:geometricPrecision; image-rendering:optimizeQuality; fill-rule:evenodd; clip-rule:evenodd"
viewBox="0 0 420 420">
 <defs>
  <style type="text/css">
   <![CDATA[
    .str0 {stroke:#0A0B0C;stroke-width:0.0762}
    .fil1 {fill:none}
    .fil0 {fill:#9E4D0A}
   ]]>
  </style>
 </defs>
 <g id="Capa_x0020_1">
  <metadata id="CorelCorpID_0Corel-Layer"/>
  <g id="_273992200">
   <path id="_274014376" class="fil0 str0" d="M217.12 76.5315l-7.481 1.1969 -8.9772 3.5909 -10.1742 8.3788 -10.1742 12.2688 -7.481 10.7727 -8.678 12.8674 -1.7954 20.6476 0.2992 11.3711 -3.5909 0.5985 -0.3097 -12.3401 3.0192 -21.2934 4.7672 -8.8988 5.8795 -10.8056 -8.1042 8.1042 -7.3097 4.4494 -5.8795 2.0658c0,0 -5.4028,4.9261 -6.3562,5.5617 -0.9535,0.6356 -9.0577,10.3289 -9.0577,10.3289l-6.5151 -0.9535 9.8521 -10.6467 5.8796 -7.9453 7.6274 -3.6548 -11.4412 3.1781 -4.2904 4.6083c0,0 -4.7672,5.085 -5.5618,6.3562 -0.7945,1.2713 -6.9918,7.1508 -6.9918,7.1508l-8.7398 11.2823 -3.0192 -3.337 11.1234 -14.6193 3.9726 -4.6083 -8.7398 5.5617 -3.337 -2.2247 8.8987 -8.422 7.3097 -4.4494 8.2631 -4.7672 -10.4878 2.3836 -4.7672 3.0193 -6.0384 5.2438 -5.2439 4.4494 -5.8795 5.7206 -2.2247 -3.4959 5.2439 -5.085 7.3097 -6.674 6.3562 -4.1316 5.4028 -3.9726 -4.9261 0.1589 -3.9726 3.337 -3.8138 2.0658 -0.9534 -2.3836 6.674 -4.4494 -7.3096 1.9069 -3.3371 3.8137 -8.8987 6.5152 -4.6083 4.1315 -3.0192 -3.0192 4.7672 -3.9726 5.5617 -4.2905 10.3289 -7.9453 8.8987 -6.3562 5.2439 -4.7672 -4.7672 1.1123 -7.7864 5.4028 -5.7206 3.0192 -6.5151 5.085 -4.1316 3.8138 -9.2165 8.7398 -2.5425 -2.7014 6.674 -7.4686 9.5344 -6.9918 8.2631 -7.4686 5.8795 -3.337 -7.6275 1.9068 -7.4685 3.8138 -6.9919 5.2439 -4.6083 -3.6549 5.8796 -2.7014 10.9645 -4.6082 5.2439 -3.0193 -5.2439 0.6357 -6.1974 1.7479 -9.6932 3.9727 -4.6083 3.0192 0.4767 -3.8137 5.085 -4.7672 10.4878 -4.2905 6.0384 -1.589 9.2166 -2.5425 -6.0385 -0.9535 -6.5151 0.3178 -6.833 0.9535 -3.9726 3.0192 -4.4494 1.1123 2.5425 -5.7206 3.8138 -3.4959 7.4685 -3.9727 8.2632 -1.7479 -11.9974 3.7343 -5.1645 0.715 -0.3178 -2.8603 3.1781 -1.7479 6.5152 -2.3836 9.2165 -2.7014 4.4494 -2.3836 1.9068 -2.0658 -3.8137 0.3178 -7.4686 1.2713 -7.1507 1.7479 -4.6083 0.7946 -1.748 -3.6549 4.7672 -2.5425 9.6933 -3.0192 5.2439 -1.2712 -7.4167 1.948 -7.5205 2.3424 -4.4494 -1.9068 0.7946 -3.0192 5.5617 -0.6357 5.085 -1.7479 -4.7672 -0.1589 -5.5617 -0.4768 -5.085 -1.589 2.5425 -3.496 8.1042 1.2713 7.3097 -0.1589 7.9452 -2.7014 -8.5809 0.4767 -4.7671 -0.9534 -0.4768 -1.748 8.7399 -3.4959 9.8521 -2.3836 12.2358 -3.6548 4.2904 -2.7014 -6.9918 0 -7.3097 0.7945 -8.422 2.5425 -11.1234 2.3836 -6.3563 3.0192 -2.8603 -4.6083 15.8906 -2.8603 8.422 -2.5425 12.0769 -2.8603 9.8522 -1.4302 8.7398 0.9535 -6.3563 -2.3836 7.7864 -2.7014 6.9919 -2.5425 7.1508 -0.1589 8.2631 2.3836 1.9068 -2.7014 4.1316 1.9069 2.7014 -2.0658 3.6548 -4.6083 5.7206 -4.1316c0,0 11.4413,3.6549 12.2358,3.8138 0.7945,0.1589 4.2905,2.7014 4.2905,2.7014l0.3178 6.9919 -1.2713 5.2438 2.7014 3.6549 -1.2712 8.422 1.7479 5.4028 0.6357 7.4686 0.3178 7.1507 -1.748 4.4494 3.337 5.4028 0.2029 10.1004z"/>
   <polyline id="_274004080" class="fil1 str0" points="205.469,36.9206 209.63,28.3671 208.706,20.9694 204.082,17.5017 203.157,12.4158 194.141,13.1093 190.674,14.2652 "/>
   <polyline id="_274003000" class="fil1 str0" points="198.996,32.0659 202.695,23.5123 195.76,19.5823 184.432,19.8135 "/>
   <polyline id="_274002880" class="fil1 str0" points="197.84,29.7541 193.564,25.8241 186.262,19.7762 178.462,15.9785 "/>
   <polyline id="_274000624" class="fil1 str0" points="175.684,16.8031 180.271,20.0447 189.055,28.5982 195.066,35.7647 202.233,40.3883 205.382,40.1507 209.285,39.9141 211.769,39.7958 "/>
   <polyline id="_274000504" class="fil1 str0" points="213.529,42.8183 210.473,42.3626 203.138,42.8446 194.141,39.9259 185.588,31.8347 180.271,23.7435 174.491,20.507 161.314,18.8888 152.834,18.4341 "/>
   <polyline id="_274000936" class="fil1 str0" points="211.147,45.5906 199.227,45.243 190.443,39.6948 181.196,31.8347 176.572,27.4423 169.868,23.05 157.384,22.1253 "/>
   <polyline id="_274000480" class="fil1 str0" points="213.792,47.6515 206.565,48.426 199.458,48.2483 192.292,44.3183 183.97,39.2324 175.416,32.9906 166.631,27.9047 156.228,24.8994 "/>
   <polyline id="_274000816" class="fil1 str0" points="215.01,49.4282 207.504,51.4438 201.077,52.1783 193.217,49.173 181.658,41.7753 173.336,36.6894 162.933,33.453 155.535,32.0659 146.981,32.7594 137.503,35.0712 125.228,33.6965 "/>
   <polyline id="_274000984" class="fil1 str0" points="164.551,29.7541 156.228,28.1359 149.293,26.7488 141.755,27.3403 "/>
   <path id="_274000288" class="fil1 str0" d="M214.104 52.3771c0,0 -4.4696,1.4942 -5.7479,1.6026 -2.6175,0.2221 -6.7337,0.5863 -7.5102,0.7416 -1.1559,0.2311 -10.403,-3.0053 -10.403,-3.0053l-9.2471 -7.3977c0,0 -6.9353,-3.93 -8.0912,-3.93 -1.1559,0 -11.7901,-2.543 -11.7901,-2.543l-12.9459 -1.1559 -14.1018 2.7742 -10.8654 2.0806"/>
   <path id="_274000240" class="fil1 str0" d="M112.536 48.7107l9.9406 -2.7742c0,0 10.6342,-3.2364 12.2524,-3.2364 1.6183,0 12.946,-0.4624 14.333,-0.4624 1.3871,0 9.2471,2.0806 10.6342,2.0806 1.3871,0 10.6342,1.6182 11.79,2.3118 1.1559,0.6935 11.3277,2.3118 11.3277,2.3118"/>
   <polyline id="_273999760" class="fil1 str0" points="122.476,51.4848 136.347,46.6301 153.454,45.7054 "/>
   <path id="_274000072" class="fil1 str0" d="M123.004 58.4858l14.037 -5.6139 13.1771 -2.3118 9.2471 1.1559 7.3977 0.9247 9.0159 1.6182c0,0 8.5536,0.9247 9.7095,1.1559 1.1559,0.2312 15.72,1.8494 15.72,1.8494l4.3876 -3.0528"/>
   <polyline id="_274000312" class="fil1 str0" points="115.217,68.1791 127.562,63.506 138.197,60.2695 150.68,57.4954 156.228,56.5707 171.948,57.4954 186.281,59.1137 193.443,56.376 "/>
   <path id="_273999592" class="fil1 str0" d="M101.551 78.9847c-1.4991,-1.3768 11.2157,-7.6186 11.2157,-7.6186l9.0159 -3.0053c0,0 14.333,-1.6183 15.9512,-1.8495 1.6183,-0.2311 16.5962,-4.2337 16.5962,-4.2337l14.844 -2.0081 14.5642 0.6936 12.9459 -0.2312 13.6098 -3.3523 4.9317 -3.0995"/>
   <polyline id="_273999400" class="fil1 str0" points="111.642,77.8723 122.476,72.2908 133.342,70.2102 147.444,67.8984 160.852,65.3554 174.723,64.6619 185.819,65.1243 197.378,65.3554 207.319,62.3501 213.58,61.0283 "/>
   <polyline id="_273998896" class="fil1 str0" points="120.938,78.6669 131.261,74.8337 146.75,73.4467 162.611,69.4503 171.948,68.5919 184.663,69.0543 194.604,69.0543 201.77,66.7425 211.617,61.4427 "/>
   <polyline id="_273999328" class="fil1 str0" points="115.376,86.2943 123.632,81.5379 133.804,77.839 146.057,76.6831 158.078,74.6025 173.336,71.3661 185.588,71.5972 197.378,72.0596 208.243,68.1296 212.173,66.5113 216.917,66.4311 "/>
   <polyline id="_273999232" class="fil1 str0" points="119.984,89.3136 124.557,85.2367 140.508,81.3067 153.377,81.9766 162.933,75.7584 174.491,73.909 192.523,75.0649 204.776,73.909 214.545,66.4713 "/>
   <polyline id="_273998272" class="fil1 str0" points="140.007,107.905 155.766,98.4138 162.933,88.0108 172.411,82.0002 181.196,79.4573 195.459,74.788 "/>
   <polyline id="_273998632" class="fil1 str0" points="129.678,105.363 137.734,101.188 148.6,96.1021 152.761,91.0161 159.465,85.9302 170.099,79.9196 183.507,74.487 "/>
   <polyline id="_273998512" class="fil1 str0" points="124.752,105.522 130.799,100.726 138.428,95.8709 142.82,91.0161 148.831,86.6238 156.691,84.312 167.265,77.8925 "/>
   <polyline id="_273998392" class="fil1 str0" points="122.686,104.092 128.718,96.7956 134.96,93.0967 140.739,88.7044 146.288,86.1614 "/>
   <polyline id="_273998680" class="fil1 str0" points="130.313,90.1081 134.498,87.0861 142.126,85.4679 152.761,85.4679 "/>
   <polyline id="_273998656" class="fil1 str0" points="152.56,112.196 158.078,110.435 168.018,103.962 171.486,99.8009 177.034,92.8656 187.9,84.7744 195.76,78.9949 208.012,75.7584 217.018,71.4813 "/>
   <polyline id="_273997744" class="fil1 str0" points="172.423,104.886 174.491,103.5 180.04,98.1826 184.789,91.8387 187.9,87.5485 195.297,82.0002 205.509,76.4198 "/>
   <polyline id="_273997600" class="fil1 str0" points="148.746,114.024 158.309,104.193 167.094,98.8762 173.104,91.9409 178.19,86.6238 187.9,84.7744 "/>
   <polyline id="_273997936" class="fil1 str0" points="127.612,122.207 131.724,118.526 135.422,114.827 143.745,110.435 150.911,106.967 154.379,103.269 159.696,99.5697 164.551,94.4838 168.712,88.7044 175.416,84.5432 183.045,82.2314 191.83,81.8847 "/>
   <path id="_273997456" class="fil1 str0" d="M143.167 98.645c-1.2716,-2.5429 6.5885,-8.7847 6.5885,-8.7847"/>
   <polyline id="_273997408" class="fil1 str0" points="134.763,109.097 145.594,101.881 151.142,98.1826 155.304,93.5591 159.927,88.7044 "/>
   <polyline id="_273997480" class="fil1 str0" points="106.875,40.45 118.315,39.0012 127.1,38.0765 138.535,38.6239 "/>
   <polyline id="_273996784" class="fil1 str0" points="99.0883,60.79 115.772,55.1836 125.482,53.103 137.965,48.5951 149.136,50.75 "/>
   <polyline id="_273997168" class="fil1 str0" points="202.636,33.9416 205.18,29.0361 206.27,25.5841 205.361,21.587 202.273,19.7701 199.002,17.0449 193.915,16.3181 189.918,16.4998 184.898,15.5018 "/>
   <polyline id="_273996592" class="fil1 str0" points="189.903,9.8606 196.095,11.0492 199.729,10.1408 205.361,10.8676 208.632,12.321 208.995,15.0463 208.706,20.9694 "/>
   <polyline id="_273997144" class="fil1 str0" points="198.065,37.2119 201.881,33.7599 204.603,28.1348 "/>
   <polyline id="_273996616" class="fil1 str0" points="156.125,47.3863 164.846,47.9313 174.657,49.5665 183.741,51.02 190.443,51.716 "/>
   <polyline id="_273996280" class="fil1 str0" points="182.693,45.5165 175.02,43.7526 165.936,42.1174 154.126,39.7555 144.315,38.4837 "/>
   <path id="_273996136" class="fil1 str0" d="M117.861 62.2852l13.0095 -2.5443 7.2675 -3.9971c0,0 7.6307,-0.5451 8.5392,-0.9084 0.9084,-0.3634 9.6293,-0.5451 9.6293,-0.5451l8.0432 0.2327 7.0209 -1.0731"/>
   <path id="_273995968" class="fil0 str0" d="M205.817 76.5315l7.481 1.1969 8.9772 3.5909 10.1742 8.3788 10.1742 12.2688 7.481 10.7727 8.678 12.8674 1.7954 20.6476 -0.2992 11.3711 3.5909 0.5985 0.3097 -12.3401 -3.0192 -21.2934 -4.7672 -8.8988 -5.8795 -10.8056 8.1042 8.1042 7.3097 4.4494 5.8795 2.0658c0,0 5.4028,4.9261 6.3563,5.5617 0.9534,0.6356 9.0576,10.3289 9.0576,10.3289l6.5151 -0.9535 -9.8521 -10.6467 -5.8796 -7.9453 -7.6274 -3.6548 11.4412 3.1781 4.2904 4.6083c0,0 4.7672,5.085 5.5618,6.3562 0.7945,1.2713 6.9918,7.1508 6.9918,7.1508l8.7398 11.2823 3.0193 -3.337 -11.1235 -14.6193 -3.9726 -4.6083 8.7398 5.5617 3.337 -2.2247 -8.8987 -8.422 -7.3097 -4.4494 -8.2631 -4.7672 10.4878 2.3836 4.7672 3.0193 6.0384 5.2438 5.2439 4.4494 5.8795 5.7206 2.2247 -3.4959 -5.2439 -5.085 -7.3096 -6.674 -6.3563 -4.1316 -5.4028 -3.9726 4.9261 0.1589 3.9726 3.337 3.8138 2.0658 0.9534 -2.3836 -6.674 -4.4494 7.3096 1.9069 3.3371 3.8137 8.8987 6.5152 4.6083 4.1315 3.0192 -3.0192 -4.7672 -3.9726 -5.5617 -4.2905 -10.3289 -7.9453 -8.8987 -6.3562 -5.2439 -4.7672 4.7672 1.1123 7.7864 5.4028 5.7206 3.0192 6.5151 5.085 4.1316 3.8138 9.2165 8.7398 2.5425 -2.7014 -6.674 -7.4686 -9.5344 -6.9918 -8.2631 -7.4686 -5.8795 -3.337 7.6275 1.9068 7.4685 3.8138 6.9919 5.2439 4.6083 -3.6549 -5.8796 -2.7014 -10.9645 -4.6082 -5.2439 -3.0193 5.2439 0.6357 6.1974 1.7479 9.6932 3.9727 4.6083 3.0192 -0.4767 -3.8137 -5.085 -4.7672 -10.4878 -4.2905 -6.0384 -1.589 -9.2166 -2.5425 6.0385 -0.9535 6.5151 0.3178 6.833 0.9535 3.9726 3.0192 4.4494 1.1123 -2.5425 -5.7206 -3.8138 -3.4959 -7.4685 -3.9727 -8.2631 -1.7479 11.9973 3.7343 5.1645 0.715 0.3178 -2.8603 -3.1781 -1.7479 -6.5152 -2.3836 -9.2165 -2.7014 -4.4494 -2.3836 -1.9068 -2.0658 3.8137 0.3178 7.4686 1.2713 7.1507 1.7479 4.6083 0.7946 1.748 -3.6549 -4.7672 -2.5425 -9.6933 -3.0192 -5.2438 -1.2712 7.4166 1.948 7.5205 2.3424 4.4494 -1.9068 -0.7946 -3.0192 -5.5617 -0.6357 -5.085 -1.7479 4.7672 -0.1589 5.5617 -0.4768 5.085 -1.589 -2.5425 -3.496 -8.1042 1.2713 -7.3096 -0.1589 -7.9453 -2.7014 8.5809 0.4767 4.7672 -0.9534 0.4767 -1.748 -8.7399 -3.4959 -9.8521 -2.3836 -12.2358 -3.6548 -4.2904 -2.7014 6.9918 0 7.3097 0.7945 8.422 2.5425 11.1234 2.3836 6.3563 3.0192 2.8603 -4.6083 -15.8906 -2.8603 -8.422 -2.5425 -12.0769 -2.8603 -9.8522 -1.4302 -8.7398 0.9535 6.3563 -2.3836 -7.7864 -2.7014 -6.9919 -2.5425 -7.1508 -0.1589 -8.2631 2.3836 -1.9068 -2.7014 -4.1316 1.9069 -2.7014 -2.0658 -3.6548 -4.6083 -5.7206 -4.1316c0,0 -11.4413,3.6549 -12.2358,3.8138 -0.7945,0.1589 -4.2905,2.7014 -4.2905,2.7014l-0.3178 6.9919 1.2713 5.2438 -2.7014 3.6549 1.2712 8.422 -1.7479 5.4028 -0.6357 7.4686 -0.3178 7.1507 1.748 4.4494 -3.337 5.4028 -0.2029 10.1004z"/>
   <polyline id="_273995824" class="fil1 str0" points="217.468,36.9206 213.307,28.3671 214.231,20.9694 218.855,17.5017 219.779,12.4158 228.795,13.1093 232.263,14.2652 "/>
   <polyline id="_273996208" class="fil1 str0" points="223.941,32.0659 220.242,23.5123 227.177,19.5823 238.505,19.8135 "/>
   <polyline id="_273996496" class="fil1 str0" points="225.096,29.7541 229.373,25.8241 236.675,19.7762 244.475,15.9785 "/>
   <polyline id="_273996376" class="fil1 str0" points="247.252,16.8031 242.666,20.0447 233.881,28.5982 227.871,35.7647 220.704,40.3883 217.555,40.1507 213.652,39.9141 211.168,39.7958 "/>
   <polyline id="_273995608" class="fil1 str0" points="209.408,42.8183 212.464,42.3626 219.799,42.8446 228.795,39.9259 237.349,31.8347 242.666,23.7435 248.446,20.507 261.623,18.8888 270.103,18.4341 "/>
   <polyline id="_273995464" class="fil1 str0" points="211.79,45.5906 223.709,45.243 232.494,39.6948 241.741,31.8347 246.365,27.4423 253.069,23.05 265.553,22.1253 "/>
   <polyline id="_273995152" class="fil1 str0" points="209.145,47.6515 216.372,48.426 223.478,48.2483 230.645,44.3183 238.967,39.2324 247.521,32.9906 256.305,27.9047 266.709,24.8994 "/>
   <polyline id="_273995080" class="fil1 str0" points="207.927,49.4282 215.433,51.4438 221.86,52.1783 229.72,49.173 241.279,41.7753 249.601,36.6894 260.004,33.453 267.402,32.0659 275.956,32.7594 285.434,35.0712 297.709,33.6965 "/>
   <polyline id="_273995368" class="fil1 str0" points="258.386,29.7541 266.709,28.1359 273.644,26.7488 281.182,27.3403 "/>
   <path id="_273994936" class="fil1 str0" d="M208.833 52.3771c0,0 4.4696,1.4942 5.7479,1.6026 2.6175,0.2221 6.7337,0.5863 7.5102,0.7416 1.1559,0.2311 10.403,-3.0053 10.403,-3.0053l9.2471 -7.3977c0,0 6.9353,-3.93 8.0912,-3.93 1.1559,0 11.7901,-2.543 11.7901,-2.543l12.9459 -1.1559 14.1018 2.7742 10.8654 2.0806"/>
   <path id="_273994480" class="fil1 str0" d="M310.401 48.7107l-9.9406 -2.7742c0,0 -10.6342,-3.2364 -12.2524,-3.2364 -1.6183,0 -12.946,-0.4624 -14.333,-0.4624 -1.3871,0 -9.2471,2.0806 -10.6342,2.0806 -1.3871,0 -10.6342,1.6182 -11.79,2.3118 -1.1559,0.6935 -11.3277,2.3118 -11.3277,2.3118"/>
   <polyline id="_273994648" class="fil1 str0" points="300.46,51.4848 286.59,46.6301 269.483,45.7054 "/>
   <path id="_273994384" class="fil1 str0" d="M299.933 58.4858l-14.037 -5.6139 -13.1771 -2.3118 -9.2471 1.1559 -7.3977 0.9247 -9.0159 1.6182c0,0 -8.5536,0.9247 -9.7095,1.1559 -1.1559,0.2312 -15.72,1.8494 -15.72,1.8494l-4.3876 -3.0528"/>
   <polyline id="_273994888" class="fil1 str0" points="307.72,68.1791 295.375,63.506 284.74,60.2695 272.257,57.4954 266.709,56.5707 250.988,57.4954 236.655,59.1137 229.493,56.376 "/>
   <path id="_273994432" class="fil1 str0" d="M321.385 78.9847c1.4991,-1.3768 -11.2157,-7.6186 -11.2157,-7.6186l-9.0159 -3.0053c0,0 -14.333,-1.6183 -15.9512,-1.8495 -1.6183,-0.2311 -16.5962,-4.2337 -16.5962,-4.2337l-14.844 -2.0081 -14.5641 0.6936 -12.946 -0.2312 -13.6098 -3.3523 -4.9317 -3.0995"/>
   <polyline id="_273994864" class="fil1 str0" points="311.295,77.8723 300.46,72.2908 289.595,70.2102 275.493,67.8984 262.085,65.3554 248.214,64.6619 237.118,65.1243 225.559,65.3554 215.618,62.3501 209.357,61.0283 "/>
   <polyline id="_273994960" class="fil1 str0" points="301.999,78.6669 291.676,74.8337 276.187,73.4467 260.326,69.4503 250.988,68.5919 238.274,69.0543 228.333,69.0543 221.167,66.7425 211.32,61.4427 "/>
   <polyline id="_273994528" class="fil1 str0" points="307.561,86.2943 299.305,81.5379 289.133,77.839 276.88,76.6831 264.859,74.6025 249.601,71.3661 237.349,71.5972 225.559,72.0596 214.694,68.1296 210.763,66.5113 206.02,66.4311 "/>
   <polyline id="_273994120" class="fil1 str0" points="302.952,89.3136 298.38,85.2367 282.428,81.3067 269.56,81.9766 260.004,75.7584 248.446,73.909 230.414,75.0649 218.161,73.909 208.392,66.4713 "/>
   <polyline id="_273994000" class="fil1 str0" points="282.93,107.905 267.171,98.4138 260.004,88.0108 250.526,82.0002 241.741,79.4573 227.478,74.788 "/>
   <polyline id="_273993952" class="fil1 str0" points="293.259,105.363 285.203,101.188 274.337,96.1021 270.176,91.0161 263.472,85.9302 252.838,79.9196 239.429,74.487 "/>
   <polyline id="_273993784" class="fil1 str0" points="298.185,105.522 292.138,100.726 284.509,95.8709 280.117,91.0161 274.106,86.6238 266.246,84.312 255.672,77.8925 "/>
   <polyline id="_273993616" class="fil1 str0" points="300.251,104.092 294.219,96.7956 287.977,93.0967 282.197,88.7044 276.649,86.1614 "/>
   <polyline id="_273993280" class="fil1 str0" points="292.624,90.1081 288.439,87.0861 280.81,85.4679 270.176,85.4679 "/>
   <polyline id="_273993232" class="fil1 str0" points="270.377,112.196 264.859,110.435 254.918,103.962 251.451,99.8009 245.903,92.8656 235.037,84.7744 227.177,78.9949 214.925,75.7584 205.918,71.4813 "/>
   <polyline id="_273993160" class="fil1 str0" points="250.513,104.886 248.446,103.5 242.897,98.1826 238.148,91.8387 235.037,87.5485 227.64,82.0002 217.428,76.4198 "/>
   <polyline id="_273993328" class="fil1 str0" points="274.19,114.024 264.628,104.193 255.843,98.8762 249.833,91.9409 244.747,86.6238 235.037,84.7744 "/>
   <polyline id="_273993016" class="fil1 str0" points="295.325,122.207 291.213,118.526 287.514,114.827 279.192,110.435 272.026,106.967 268.558,103.269 263.241,99.5697 258.386,94.4838 254.225,88.7044 247.521,84.5432 239.892,82.2314 231.107,81.8847 "/>
   <path id="_273993064" class="fil1 str0" d="M279.77 98.645c1.2715,-2.5429 -6.5886,-8.7847 -6.5886,-8.7847"/>
   <polyline id="_273993184" class="fil1 str0" points="288.174,109.097 277.343,101.881 271.794,98.1826 267.633,93.5591 263.01,88.7044 "/>
   <polyline id="_273992872" class="fil1 str0" points="316.062,40.45 304.622,39.0012 295.837,38.0765 284.402,38.6239 "/>
   <polyline id="_273992824" class="fil1 str0" points="323.849,60.79 307.164,55.1836 297.455,53.103 284.971,48.5951 273.801,50.75 "/>
   <polyline id="_273992776" class="fil1 str0" points="220.301,33.9416 217.757,29.0361 216.667,25.5841 217.575,21.587 220.664,19.7701 223.934,17.0449 229.022,16.3181 233.019,16.4998 238.039,15.5018 "/>
   <polyline id="_273993088" class="fil1 str0" points="233.034,9.8606 226.841,11.0492 223.208,10.1408 217.575,10.8676 214.305,12.321 213.942,15.0463 214.231,20.9694 "/>
   <polyline id="_273992152" class="fil1 str0" points="215.577,37.2119 211.762,33.7599 209.039,28.1348 "/>
   <polyline id="_273992056" class="fil1 str0" points="266.812,47.3863 258.091,47.9313 248.28,49.5665 239.196,51.02 232.494,51.716 "/>
   <polyline id="_273992320" class="fil1 str0" points="240.244,45.5165 247.917,43.7526 257.001,42.1174 268.811,39.7555 278.622,38.4837 "/>
   <path id="_273991984" class="fil1 str0" d="M305.076 62.2852l-13.0095 -2.5443 -7.2674 -3.9971c0,0 -7.6308,-0.5451 -8.5393,-0.9084 -0.9084,-0.3634 -9.6293,-0.5451 -9.6293,-0.5451l-8.0431 0.2327 -7.021 -1.0731"/>
  </g>
 </g>
</svg>
