<?xml version="1.0" encoding="UTF-8"?>
<!DOCTYPE svg PUBLIC "-//W3C//DTD SVG 1.1//EN" "http://www.w3.org/Graphics/SVG/1.1/DTD/svg11.dtd">
<!-- Creator: CorelDRAW -->
<svg xmlns="http://www.w3.org/2000/svg" xml:space="preserve" width="420mm" height="420mm" style="shape-rendering:geometricPrecision; text-rendering:geometricPrecision; image-rendering:optimizeQuality; fill-rule:evenodd; clip-rule:evenodd"
viewBox="0 0 420 420">
 <defs>
  <style type="text/css">
   <![CDATA[
    .str0 {stroke:#C2C1C1;stroke-width:0.0762}
    .fil1 {fill:none}
    .fil0 {fill:#0A0B0C}
   ]]>
  </style>
 </defs>
 <g id="Capa_x0020_1">
  <metadata id="CorelCorpID_0Corel-Layer"/>
  <g id="_510946032">
   <path id="_510950928" class="fil0 str0" d="M215.439 78.569l-7.481 1.1969 -8.9772 3.5909 -10.1742 8.3788 -10.1742 12.2688 -7.481 10.7727 -8.678 12.8674 -1.7954 20.6476 0.2992 11.3711 -3.5909 0.5985 -0.3097 -12.3401 3.0192 -21.2934 4.7672 -8.8988 5.8795 -10.8056 -8.1042 8.1042 -7.3097 4.4494 -5.8795 2.0658c0,0 -5.4028,4.9261 -6.3562,5.5617 -0.9535,0.6356 -9.0577,10.3289 -9.0577,10.3289l-6.5151 -0.9535 9.8521 -10.6467 5.8796 -7.9453 7.6274 -3.6548 -11.4412 3.1781 -4.2904 4.6083c0,0 -4.7672,5.085 -5.5618,6.3562 -0.7945,1.2713 -6.9918,7.1508 -6.9918,7.1508l-8.7398 11.2823 -3.0192 -3.337 11.1234 -14.6193 3.9726 -4.6083 -8.7398 5.5617 -3.337 -2.2247 8.8987 -8.422 7.3097 -4.4494 8.2631 -4.7672 -10.4878 2.3836 -4.7672 3.0193 -6.0384 5.2438 -5.2439 4.4494 -5.8795 5.7206 -2.2247 -3.4959 5.2439 -5.085 7.3097 -6.674 6.3562 -4.1316 5.4028 -3.9726 -4.9261 0.1589 -3.9726 3.337 -3.8138 2.0658 -0.9534 -2.3836 6.674 -4.4494 -7.3096 1.9069 -3.3371 3.8137 -8.8987 6.5152 -4.6083 4.1315 -3.0192 -3.0192 4.7672 -3.9726 5.5617 -4.2905 10.3289 -7.9453 8.8987 -6.3562 5.2439 -4.7672 -4.7672 1.1123 -7.7864 5.4028 -5.7206 3.0192 -6.5151 5.085 -4.1316 3.8138 -9.2165 8.7398 -2.5425 -2.7014 6.674 -7.4686 9.5344 -6.9918 8.2631 -7.4686 5.8795 -3.337 -7.6275 1.9068 -7.4685 3.8138 -6.9919 5.2439 -4.6083 -3.6549 5.8796 -2.7014 10.9645 -4.6082 5.2439 -3.0193 -5.2439 0.6357 -6.1974 1.7479 -9.6932 3.9727 -4.6083 3.0192 0.4767 -3.8137 5.085 -4.7672 10.4878 -4.2905 6.0384 -1.589 9.2166 -2.5425 -6.0385 -0.9535 -6.5151 0.3178 -6.833 0.9535 -3.9726 3.0192 -4.4494 1.1123 2.5425 -5.7206 3.8138 -3.4959 7.4685 -3.9727 8.2632 -1.7479 -11.9974 3.7343 -5.1645 0.715 -0.3178 -2.8603 3.1781 -1.7479 6.5152 -2.3836 9.2165 -2.7014 4.4494 -2.3836 1.9068 -2.0658 -3.8137 0.3178 -7.4686 1.2713 -7.1507 1.7479 -4.6083 0.7946 -1.748 -3.6549 4.7672 -2.5425 9.6933 -3.0192 5.2439 -1.2712 -7.4167 1.948 -7.5205 2.3424 -4.4494 -1.9068 0.7946 -3.0192 5.5617 -0.6357 5.085 -1.7479 -4.7672 -0.1589 -5.5617 -0.4768 -5.085 -1.589 2.5425 -3.496 8.1042 1.2713 7.3097 -0.1589 7.9452 -2.7014 -8.5809 0.4767 -4.7671 -0.9534 -0.4768 -1.748 8.7399 -3.4959 9.8521 -2.3836 12.2358 -3.6548 4.2904 -2.7014 -6.9918 0 -7.3097 0.7945 -8.422 2.5425 -11.1234 2.3836 -6.3563 3.0192 -2.8603 -4.6083 15.8906 -2.8603 8.422 -2.5425 12.0769 -2.8603 9.8522 -1.4302 8.7398 0.9535 -6.3563 -2.3836 7.7864 -2.7014 6.9919 -2.5425 7.1508 -0.1589 8.2631 2.3836 1.9068 -2.7014 4.1316 1.9069 2.7014 -2.0658 3.6548 -4.6083 5.7206 -4.1316c0,0 11.4413,3.6549 12.2358,3.8138 0.7945,0.1589 4.2905,2.7014 4.2905,2.7014l0.3178 6.9919 -1.2713 5.2438 2.7014 3.6549 -1.2712 8.422 1.7479 5.4028 0.6357 7.4686 0.3178 7.1507 -1.748 4.4494 3.337 5.4028 0.2029 10.1004z"/>
   <polyline id="_510951432" class="fil1 str0" points="203.788,38.9581 207.949,30.4046 207.024,23.0069 202.401,19.5392 201.476,14.4533 192.46,15.1468 188.992,16.3027 "/>
   <polyline id="_510951168" class="fil1 str0" points="197.315,34.1034 201.014,25.5498 194.078,21.6198 182.751,21.851 "/>
   <polyline id="_510950880" class="fil1 str0" points="196.159,31.7916 191.882,27.8616 184.58,21.8137 176.78,18.016 "/>
   <polyline id="_510951216" class="fil1 str0" points="174.003,18.8406 178.589,22.0822 187.374,30.6357 193.385,37.8022 200.551,42.4258 203.7,42.1882 207.604,41.9516 210.088,41.8333 "/>
   <polyline id="_510951048" class="fil1 str0" points="211.848,44.8558 208.792,44.4001 201.457,44.8821 192.46,41.9634 183.906,33.8722 178.589,25.781 172.81,22.5445 159.633,20.9263 151.153,20.4716 "/>
   <polyline id="_510950640" class="fil1 str0" points="209.465,47.6281 197.546,47.2805 188.761,41.7323 179.514,33.8722 174.891,29.4798 168.186,25.0875 155.703,24.1628 "/>
   <polyline id="_510950568" class="fil1 str0" points="212.111,49.689 204.883,50.4635 197.777,50.2858 190.611,46.3558 182.288,41.2699 173.735,35.0281 164.95,29.9422 154.547,26.9369 "/>
   <polyline id="_510950520" class="fil1 str0" points="213.329,51.4657 205.822,53.4813 199.395,54.2158 191.535,51.2105 179.976,43.8128 171.654,38.7269 161.251,35.4905 153.853,34.1034 145.3,34.7969 135.822,37.1087 123.547,35.734 "/>
   <polyline id="_510950352" class="fil1 str0" points="162.869,31.7916 154.547,30.1734 147.612,28.7863 140.073,29.3778 "/>
   <path id="_510950424" class="fil1 str0" d="M212.422 54.4146c0,0 -4.4696,1.4942 -5.7479,1.6026 -2.6175,0.2221 -6.7337,0.5863 -7.5102,0.7416 -1.1559,0.2311 -10.403,-3.0053 -10.403,-3.0053l-9.2471 -7.3977c0,0 -6.9353,-3.93 -8.0912,-3.93 -1.1559,0 -11.7901,-2.543 -11.7901,-2.543l-12.9459 -1.1559 -14.1018 2.7742 -10.8654 2.0806"/>
   <path id="_510950808" class="fil1 str0" d="M110.854 50.7482l9.9406 -2.7742c0,0 10.6342,-3.2364 12.2524,-3.2364 1.6183,0 12.946,-0.4624 14.333,-0.4624 1.3871,0 9.2471,2.0806 10.6342,2.0806 1.3871,0 10.6342,1.6182 11.79,2.3118 1.1559,0.6935 11.3277,2.3118 11.3277,2.3118"/>
   <polyline id="_510950256" class="fil1 str0" points="120.795,53.5223 134.666,48.6676 151.773,47.7429 "/>
   <path id="_510950232" class="fil1 str0" d="M121.322 60.5233l14.037 -5.6139 13.1771 -2.3118 9.2471 1.1559 7.3977 0.9247 9.0159 1.6182c0,0 8.5536,0.9247 9.7095,1.1559 1.1559,0.2312 15.72,1.8494 15.72,1.8494l4.3876 -3.0528"/>
   <polyline id="_510950760" class="fil1 str0" points="113.536,70.2166 125.881,65.5435 136.515,62.307 148.999,59.5329 154.547,58.6082 170.267,59.5329 184.6,61.1512 191.762,58.4135 "/>
   <path id="_510950448" class="fil1 str0" d="M99.8699 81.0222c-1.4991,-1.3768 11.2157,-7.6186 11.2157,-7.6186l9.0159 -3.0053c0,0 14.333,-1.6183 15.9512,-1.8495 1.6183,-0.2311 16.5962,-4.2337 16.5962,-4.2337l14.844 -2.0081 14.5642 0.6936 12.9459 -0.2312 13.6098 -3.3523 4.9317 -3.0995"/>
   <polyline id="_510950832" class="fil1 str0" points="109.961,79.9098 120.795,74.3283 131.66,72.2477 145.762,69.9359 159.171,67.3929 173.041,66.6994 184.138,67.1618 195.696,67.3929 205.637,64.3876 211.899,63.0658 "/>
   <polyline id="_510949920" class="fil1 str0" points="119.257,80.7044 129.58,76.8712 145.069,75.4842 160.93,71.4878 170.267,70.6294 182.982,71.0918 192.922,71.0918 200.089,68.78 209.936,63.4802 "/>
   <polyline id="_510949680" class="fil1 str0" points="113.695,88.3318 121.951,83.5754 132.123,79.8765 144.375,78.7206 156.396,76.64 171.654,73.4036 183.906,73.6347 195.696,74.0971 206.562,70.1671 210.492,68.5488 215.236,68.4686 "/>
   <polyline id="_510950088" class="fil1 str0" points="118.303,91.3511 122.876,87.2742 138.827,83.3442 151.695,84.0141 161.251,77.7959 172.81,75.9465 190.842,77.1024 203.094,75.9465 212.864,68.5088 "/>
   <polyline id="_510949896" class="fil1 str0" points="138.325,109.943 154.085,100.451 161.251,90.0483 170.729,84.0377 179.514,81.4948 193.777,76.8255 "/>
   <polyline id="_510949704" class="fil1 str0" points="127.996,107.401 136.053,103.226 146.918,98.1396 151.079,93.0536 157.783,87.9677 168.418,81.9571 181.826,76.5245 "/>
   <polyline id="_510950040" class="fil1 str0" points="123.07,107.56 129.117,102.763 136.746,97.9084 141.139,93.0536 147.149,88.6613 155.009,86.3495 165.583,79.93 "/>
   <polyline id="_510949848" class="fil1 str0" points="121.004,106.129 127.037,98.8331 133.279,95.1342 139.058,90.7419 144.606,88.1989 "/>
   <polyline id="_510950064" class="fil1 str0" points="128.632,92.1456 132.816,89.1236 140.445,87.5054 151.079,87.5054 "/>
   <polyline id="_510949416" class="fil1 str0" points="150.879,114.233 156.396,112.473 166.337,106 169.805,101.838 175.353,94.9031 186.218,86.8119 194.078,81.0324 206.331,77.7959 215.337,73.5188 "/>
   <polyline id="_510950016" class="fil1 str0" points="170.742,106.924 172.81,105.537 178.358,100.22 183.108,93.8762 186.218,89.586 193.616,84.0377 203.827,78.4573 "/>
   <polyline id="_510949080" class="fil1 str0" points="147.065,116.061 156.628,106.231 165.412,100.914 171.423,93.9784 176.509,88.6613 186.218,86.8119 "/>
   <polyline id="_510948600" class="fil1 str0" points="125.93,124.245 130.042,120.564 133.741,116.865 142.063,112.473 149.23,109.005 152.697,105.306 158.015,101.607 162.869,96.5213 167.03,90.7419 173.735,86.5807 181.363,84.2689 190.148,83.9222 "/>
   <path id="_510949056" class="fil1 str0" d="M141.486 100.682c-1.2716,-2.5429 6.5885,-8.7847 6.5885,-8.7847"/>
   <polyline id="_510948840" class="fil1 str0" points="133.081,111.135 143.913,103.919 149.461,100.22 153.622,95.5966 158.246,90.7419 "/>
   <polyline id="_510948816" class="fil1 str0" points="105.193,42.4875 116.634,41.0387 125.419,40.114 136.854,40.6614 "/>
   <polyline id="_510948768" class="fil1 str0" points="97.4069,62.8275 114.091,57.2211 123.8,55.1405 136.284,50.6326 147.454,52.7875 "/>
   <polyline id="_510949248" class="fil1 str0" points="200.955,35.9791 203.498,31.0736 204.588,27.6216 203.68,23.6245 200.591,21.8076 197.321,19.0824 192.234,18.3556 188.237,18.5373 183.216,17.5393 "/>
   <polyline id="_510948696" class="fil1 str0" points="188.222,11.8981 194.414,13.0867 198.048,12.1783 203.68,12.9051 206.95,14.3585 207.314,17.0838 207.024,23.0069 "/>
   <polyline id="_510949152" class="fil1 str0" points="196.384,39.2494 200.199,35.7974 202.922,30.1723 "/>
   <polyline id="_510948648" class="fil1 str0" points="154.443,49.4238 163.164,49.9688 172.975,51.604 182.059,53.0575 188.761,53.7535 "/>
   <polyline id="_510949296" class="fil1 str0" points="181.012,47.554 173.339,45.7901 164.254,44.1549 152.445,41.793 142.634,40.5212 "/>
   <path id="_510947952" class="fil1 str0" d="M116.179 64.3227l13.0095 -2.5443 7.2675 -3.9971c0,0 7.6307,-0.5451 8.5392,-0.9084 0.9084,-0.3634 9.6293,-0.5451 9.6293,-0.5451l8.0432 0.2327 7.0209 -1.0731"/>
   <path id="_510948528" class="fil0 str0" d="M204.136 78.569l7.481 1.1969 8.9772 3.5909 10.1742 8.3788 10.1742 12.2688 7.481 10.7727 8.678 12.8674 1.7954 20.6476 -0.2992 11.3711 3.5909 0.5985 0.3097 -12.3401 -3.0192 -21.2934 -4.7672 -8.8988 -5.8795 -10.8056 8.1042 8.1042 7.3097 4.4494 5.8795 2.0658c0,0 5.4028,4.9261 6.3563,5.5617 0.9534,0.6356 9.0576,10.3289 9.0576,10.3289l6.5151 -0.9535 -9.8521 -10.6467 -5.8796 -7.9453 -7.6274 -3.6548 11.4412 3.1781 4.2904 4.6083c0,0 4.7672,5.085 5.5618,6.3562 0.7945,1.2713 6.9918,7.1508 6.9918,7.1508l8.7398 11.2823 3.0193 -3.337 -11.1235 -14.6193 -3.9726 -4.6083 8.7398 5.5617 3.337 -2.2247 -8.8987 -8.422 -7.3097 -4.4494 -8.2631 -4.7672 10.4878 2.3836 4.7672 3.0193 6.0384 5.2438 5.2439 4.4494 5.8795 5.7206 2.2247 -3.4959 -5.2439 -5.085 -7.3096 -6.674 -6.3563 -4.1316 -5.4028 -3.9726 4.9261 0.1589 3.9726 3.337 3.8138 2.0658 0.9534 -2.3836 -6.674 -4.4494 7.3096 1.9069 3.3371 3.8137 8.8987 6.5152 4.6083 4.1315 3.0192 -3.0192 -4.7672 -3.9726 -5.5617 -4.2905 -10.3289 -7.9453 -8.8987 -6.3562 -5.2439 -4.7672 4.7672 1.1123 7.7864 5.4028 5.7206 3.0192 6.5151 5.085 4.1316 3.8138 9.2165 8.7398 2.5425 -2.7014 -6.674 -7.4686 -9.5344 -6.9918 -8.2631 -7.4686 -5.8795 -3.337 7.6275 1.9068 7.4685 3.8138 6.9919 5.2439 4.6083 -3.6549 -5.8796 -2.7014 -10.9645 -4.6082 -5.2439 -3.0193 5.2439 0.6357 6.1974 1.7479 9.6932 3.9727 4.6083 3.0192 -0.4767 -3.8137 -5.085 -4.7672 -10.4878 -4.2905 -6.0384 -1.589 -9.2166 -2.5425 6.0385 -0.9535 6.5151 0.3178 6.833 0.9535 3.9726 3.0192 4.4494 1.1123 -2.5425 -5.7206 -3.8138 -3.4959 -7.4685 -3.9727 -8.2631 -1.7479 11.9973 3.7343 5.1645 0.715 0.3178 -2.8603 -3.1781 -1.7479 -6.5152 -2.3836 -9.2165 -2.7014 -4.4494 -2.3836 -1.9068 -2.0658 3.8137 0.3178 7.4686 1.2713 7.1507 1.7479 4.6083 0.7946 1.748 -3.6549 -4.7672 -2.5425 -9.6933 -3.0192 -5.2438 -1.2712 7.4166 1.948 7.5205 2.3424 4.4494 -1.9068 -0.7946 -3.0192 -5.5617 -0.6357 -5.085 -1.7479 4.7672 -0.1589 5.5617 -0.4768 5.085 -1.589 -2.5425 -3.496 -8.1042 1.2713 -7.3096 -0.1589 -7.9453 -2.7014 8.5809 0.4767 4.7672 -0.9534 0.4767 -1.748 -8.7399 -3.4959 -9.8521 -2.3836 -12.2358 -3.6548 -4.2904 -2.7014 6.9918 0 7.3097 0.7945 8.422 2.5425 11.1234 2.3836 6.3563 3.0192 2.8603 -4.6083 -15.8906 -2.8603 -8.422 -2.5425 -12.0769 -2.8603 -9.8522 -1.4302 -8.7398 0.9535 6.3563 -2.3836 -7.7864 -2.7014 -6.9919 -2.5425 -7.1508 -0.1589 -8.2631 2.3836 -1.9068 -2.7014 -4.1316 1.9069 -2.7014 -2.0658 -3.6548 -4.6083 -5.7206 -4.1316c0,0 -11.4413,3.6549 -12.2358,3.8138 -0.7945,0.1589 -4.2905,2.7014 -4.2905,2.7014l-0.3178 6.9919 1.2713 5.2438 -2.7014 3.6549 1.2712 8.422 -1.7479 5.4028 -0.6357 7.4686 -0.3178 7.1507 1.748 4.4494 -3.337 5.4028 -0.2029 10.1004z"/>
   <polyline id="_510948408" class="fil1 str0" points="215.786,38.9581 211.625,30.4046 212.55,23.0069 217.173,19.5392 218.098,14.4533 227.114,15.1468 230.582,16.3027 "/>
   <polyline id="_510948240" class="fil1 str0" points="222.259,34.1034 218.56,25.5498 225.496,21.6198 236.823,21.851 "/>
   <polyline id="_510947832" class="fil1 str0" points="223.415,31.7916 227.692,27.8616 234.994,21.8137 242.794,18.016 "/>
   <polyline id="_510948312" class="fil1 str0" points="245.571,18.8406 240.985,22.0822 232.2,30.6357 226.189,37.8022 219.023,42.4258 215.874,42.1882 211.97,41.9516 209.486,41.8333 "/>
   <polyline id="_510948000" class="fil1 str0" points="207.726,44.8558 210.782,44.4001 218.117,44.8821 227.114,41.9634 235.667,33.8722 240.985,25.781 246.764,22.5445 259.941,20.9263 268.421,20.4716 "/>
   <polyline id="_510947808" class="fil1 str0" points="210.109,47.6281 222.028,47.2805 230.813,41.7323 240.06,33.8722 244.684,29.4798 251.388,25.0875 263.871,24.1628 "/>
   <polyline id="_510947976" class="fil1 str0" points="207.463,49.689 214.691,50.4635 221.797,50.2858 228.963,46.3558 237.286,41.2699 245.839,35.0281 254.624,29.9422 265.027,26.9369 "/>
   <polyline id="_510948096" class="fil1 str0" points="206.245,51.4657 213.752,53.4813 220.179,54.2158 228.039,51.2105 239.598,43.8128 247.92,38.7269 258.323,35.4905 265.721,34.1034 274.274,34.7969 283.752,37.1087 296.027,35.734 "/>
   <polyline id="_510948456" class="fil1 str0" points="256.705,31.7916 265.027,30.1734 271.962,28.7863 279.501,29.3778 "/>
   <path id="_510947664" class="fil1 str0" d="M207.152 54.4146c0,0 4.4696,1.4942 5.7479,1.6026 2.6175,0.2221 6.7337,0.5863 7.5102,0.7416 1.1559,0.2311 10.403,-3.0053 10.403,-3.0053l9.2471 -7.3977c0,0 6.9353,-3.93 8.0912,-3.93 1.1559,0 11.7901,-2.543 11.7901,-2.543l12.9459 -1.1559 14.1018 2.7742 10.8654 2.0806"/>
   <path id="_510947472" class="fil1 str0" d="M308.72 50.7482l-9.9406 -2.7742c0,0 -10.6342,-3.2364 -12.2524,-3.2364 -1.6183,0 -12.946,-0.4624 -14.333,-0.4624 -1.3871,0 -9.2471,2.0806 -10.6342,2.0806 -1.3871,0 -10.6342,1.6182 -11.79,2.3118 -1.1559,0.6935 -11.3277,2.3118 -11.3277,2.3118"/>
   <polyline id="_510947136" class="fil1 str0" points="298.779,53.5223 284.908,48.6676 267.801,47.7429 "/>
   <path id="_510947784" class="fil1 str0" d="M298.252 60.5233l-14.037 -5.6139 -13.1771 -2.3118 -9.2471 1.1559 -7.3977 0.9247 -9.0159 1.6182c0,0 -8.5536,0.9247 -9.7095,1.1559 -1.1559,0.2312 -15.72,1.8494 -15.72,1.8494l-4.3876 -3.0528"/>
   <polyline id="_510947448" class="fil1 str0" points="306.038,70.2166 293.693,65.5435 283.059,62.307 270.575,59.5329 265.027,58.6082 249.307,59.5329 234.974,61.1512 227.812,58.4135 "/>
   <path id="_510947616" class="fil1 str0" d="M319.704 81.0222c1.4991,-1.3768 -11.2157,-7.6186 -11.2157,-7.6186l-9.0159 -3.0053c0,0 -14.333,-1.6183 -15.9512,-1.8495 -1.6183,-0.2311 -16.5962,-4.2337 -16.5962,-4.2337l-14.844 -2.0081 -14.5641 0.6936 -12.946 -0.2312 -13.6098 -3.3523 -4.9317 -3.0995"/>
   <polyline id="_510947736" class="fil1 str0" points="309.613,79.9098 298.779,74.3283 287.914,72.2477 273.812,69.9359 260.404,67.3929 246.533,66.6994 235.436,67.1618 223.878,67.3929 213.937,64.3876 207.675,63.0658 "/>
   <polyline id="_510947376" class="fil1 str0" points="300.318,80.7044 289.994,76.8712 274.505,75.4842 258.644,71.4878 249.307,70.6294 236.592,71.0918 226.652,71.0918 219.485,68.78 209.638,63.4802 "/>
   <polyline id="_510947040" class="fil1 str0" points="305.879,88.3318 297.623,83.5754 287.451,79.8765 275.199,78.7206 263.178,76.64 247.92,73.4036 235.667,73.6347 223.878,74.0971 213.012,70.1671 209.082,68.5488 204.338,68.4686 "/>
   <polyline id="_510947256" class="fil1 str0" points="301.271,91.3511 296.698,87.2742 280.747,83.3442 267.879,84.0141 258.323,77.7959 246.764,75.9465 228.732,77.1024 216.48,75.9465 206.71,68.5088 "/>
   <polyline id="_510946776" class="fil1 str0" points="281.249,109.943 265.489,100.451 258.323,90.0483 248.845,84.0377 240.06,81.4948 225.797,76.8255 "/>
   <polyline id="_510946656" class="fil1 str0" points="291.578,107.401 283.521,103.226 272.656,98.1396 268.495,93.0536 261.791,87.9677 251.156,81.9571 237.748,76.5245 "/>
   <polyline id="_510946584" class="fil1 str0" points="296.504,107.56 290.457,102.763 282.828,97.9084 278.435,93.0536 272.425,88.6613 264.565,86.3495 253.991,79.93 "/>
   <polyline id="_510946488" class="fil1 str0" points="298.57,106.129 292.537,98.8331 286.295,95.1342 280.516,90.7419 274.968,88.1989 "/>
   <polyline id="_510946992" class="fil1 str0" points="290.942,92.1456 286.758,89.1236 279.129,87.5054 268.495,87.5054 "/>
   <polyline id="_510946368" class="fil1 str0" points="268.695,114.233 263.178,112.473 253.237,106 249.769,101.838 244.221,94.9031 233.356,86.8119 225.496,81.0324 213.243,77.7959 204.237,73.5188 "/>
   <polyline id="_510946416" class="fil1 str0" points="248.832,106.924 246.764,105.537 241.216,100.22 236.466,93.8762 233.356,89.586 225.958,84.0377 215.747,78.4573 "/>
   <polyline id="_510946440" class="fil1 str0" points="272.509,116.061 262.947,106.231 254.162,100.914 248.151,93.9784 243.065,88.6613 233.356,86.8119 "/>
   <polyline id="_510946872" class="fil1 str0" points="293.644,124.245 289.532,120.564 285.833,116.865 277.511,112.473 270.344,109.005 266.877,105.306 261.559,101.607 256.705,96.5213 252.543,90.7419 245.839,86.5807 238.211,84.2689 229.426,83.9222 "/>
   <path id="_510946824" class="fil1 str0" d="M278.089 100.682c1.2715,-2.5429 -6.5886,-8.7847 -6.5886,-8.7847"/>
   <polyline id="_510946728" class="fil1 str0" points="286.493,111.135 275.661,103.919 270.113,100.22 265.952,95.5966 261.328,90.7419 "/>
   <polyline id="_510945984" class="fil1 str0" points="314.381,42.4875 302.94,41.0387 294.155,40.114 282.72,40.6614 "/>
   <polyline id="_510945552" class="fil1 str0" points="322.167,62.8275 305.483,57.2211 295.774,55.1405 283.29,50.6326 272.12,52.7875 "/>
   <polyline id="_510945816" class="fil1 str0" points="218.619,35.9791 216.076,31.0736 214.986,27.6216 215.894,23.6245 218.983,21.8076 222.253,19.0824 227.34,18.3556 231.337,18.5373 236.358,17.5393 "/>
   <polyline id="_510945768" class="fil1 str0" points="231.352,11.8981 225.16,13.0867 221.526,12.1783 215.894,12.9051 212.624,14.3585 212.26,17.0838 212.55,23.0069 "/>
   <polyline id="_510946248" class="fil1 str0" points="213.896,39.2494 210.08,35.7974 207.358,30.1723 "/>
   <polyline id="_510946200" class="fil1 str0" points="265.131,49.4238 256.41,49.9688 246.599,51.604 237.515,53.0575 230.813,53.7535 "/>
   <polyline id="_510946008" class="fil1 str0" points="238.562,47.554 246.236,45.7901 255.32,44.1549 267.129,41.793 276.94,40.5212 "/>
   <path id="_510945528" class="fil1 str0" d="M303.394 64.3227l-13.0095 -2.5443 -7.2674 -3.9971c0,0 -7.6308,-0.5451 -8.5393,-0.9084 -0.9084,-0.3634 -9.6293,-0.5451 -9.6293,-0.5451l-8.0431 0.2327 -7.021 -1.0731"/>
  </g>
 </g>
</svg>
