<?xml version="1.0" encoding="UTF-8"?>
<!DOCTYPE svg PUBLIC "-//W3C//DTD SVG 1.1//EN" "http://www.w3.org/Graphics/SVG/1.1/DTD/svg11.dtd">
<!-- Creator: CorelDRAW -->
<svg xmlns="http://www.w3.org/2000/svg" xml:space="preserve" width="420mm" height="420mm" style="shape-rendering:geometricPrecision; text-rendering:geometricPrecision; image-rendering:optimizeQuality; fill-rule:evenodd; clip-rule:evenodd"
viewBox="0 0 420 420">
 <defs>
  <style type="text/css">
   <![CDATA[
    .str0 {stroke:#1F1A17;stroke-width:0.0762}
    .fil1 {fill:none}
    .fil0 {fill:fuchsia}
   ]]>
  </style>
 </defs>
 <g id="Capa_x0020_1">
  <metadata id="CorelCorpID_0Corel-Layer"/>
  <g id="_510951624">
   <g>
    <path id="_510953184" class="fil0 str0" d="M209.916 71.1998c-0.3594,1.4377 -6.1825,1.6968 -6.1825,1.6968l-5.8744 0.7098 -7.1073 0.7698 -4.1295 2.3294 -11.8586 5.294 -9.7409 5.7175 -4.0235 -2.1176 7.4116 -4.2352 10.3763 -3.8117 6.5646 -4.2352 -6.3528 -1.2706 -5.7176 -0.2117 -10.3762 1.4823 -6.3528 1.4823 -2.1176 -4.2352 9.1056 -2.3294 8.2587 -0.4235 4.447 -0.2117 -23.2937 0.6352 -8.4704 1.9059 -6.9881 0.847 0 -4.6587 11.4351 -1.4823 9.3174 -1.0588 10.1645 -1.2706 9.9528 -0.6353 -17.1526 -0.6353 -8.6822 0.4236 -10.3762 0.847 -0.6353 -4.0234 9.5292 -0.2118 14.1879 -2.1176 5.5058 -1.4823 -6.9881 -2.7529 -6.3528 -3.3882 -9.3175 -3.1764 -7.1998 -2.9646 0 -2.9647 7.6234 1.6941 6.7763 3.1764 10.3763 2.1176 8.8939 1.9059 -17.1526 -7.8352 -11.0115 -3.1764 -6.9881 -2.3293 -0.8471 -3.3882 15.6703 4.2352 7.6234 2.5411 12.9173 4.6588 -10.3762 -5.9293 -11.8586 -5.7176 -0.847 -3.8116 6.141 2.7528 12.7056 5.9293 8.894 3.1764 -8.894 -6.5645 -10.3762 -6.9881 1.9058 -2.3294 10.1645 6.5646 9.3175 6.141 -8.6822 -13.7644 -4.6587 -4.6587 1.0588 -3.3882 3.3881 2.9647 5.5058 6.988 7.4116 10.7998 -3.3881 -11.2233 -5.7176 -8.2586 -3.5999 -5.7176 -1.4823 -3.3881 2.5411 -1.2706 2.3294 4.0235 5.9293 7.1998 6.141 7.8351 3.5999 8.2587 -4.6587 -12.9174 -5.0822 -8.0469 1.4823 -3.8117 2.9646 4.8705 4.447 5.0823 1.9058 8.4704 0.4236 -6.7763 -1.6941 -5.294 2.1176 -1.6941 2.1176 9.3174 0.2117 5.294 0.4236 -12.7056 0.6352 -3.3882 3.3882 0 -1.6941 13.9762 2.7529 5.5058 -0.6353 -7.4116 -0.4235 -12.0704 4.8705 -0.6352 -1.0588 10.3762 1.2706 8.0469 1.0588 4.0235 0 -13.5527 0.6352 -9.9527 2.5412 0.2117 -1.0588 9.9528 1.4823 6.9881 0.847 7.6233 2.3294 5.294 0.6353 8.0469 -1.2706 9.3175 -1.0588 6.7763 -1.9058 7.6234z"/>
    <polyline id="_510953496" class="fil1 str0" points="207.019,72.5312 200.447,69.4982 192.633,68.5729 186.054,68.1616 178.754,67.8532 "/>
    <polyline id="_510953352" class="fil1 str0" points="209.391,68.4701 204.559,66.4139 197.98,64.5633 192.325,62.9183 184.717,62.3015 179.782,61.7874 "/>
    <path id="_510953472" class="fil1 str0" d="M206.924 66.2083c-1.0281,-0.6169 -4.4208,-2.0562 -5.0377,-2.6731 -0.6169,-0.6169 -10.795,-4.8321 -10.795,-4.8321l-10.4866 -0.514 -10.795 0.1028 -5.8602 0.3084"/>
    <polyline id="_510953928" class="fil1 str0" points="209.186,65.8998 206.307,63.4324 201.784,59.9369 196.026,56.4413 191.4,53.1514 180.708,45.5435 175.67,43.6929 "/>
    <path id="_510953280" class="fil1 str0" d="M206.821 65.1802l-5.4489 -3.2899 -6.5799 -4.1124c0,0 -4.4208,-1.645 -4.9348,-1.8506 -0.5141,-0.2056 -8.0192,-2.6731 -8.0192,-2.6731l-7.2862 -4.9245"/>
    <polyline id="_510953904" class="fil1 str0" points="187.801,56.9554 181.016,55.1048 176.39,53.9739 168.782,51.8149 164.258,50.5812 "/>
    <path id="_510953400" class="fil1 str0" d="M210.214 63.124c-0.1028,-0.5141 0,-8.2248 0,-8.2248l-1.1309 -6.477 -0.2056 -7.2995 0 -4.4208 -2.1376 -3.8307"/>
    <path id="_510953592" class="fil1 str0" d="M208.569 62.7127l-0.514 -4.0096c0,0 -2.2618,-5.0376 -2.5703,-5.9629 -0.3084,-0.9253 -0.7196,-5.2433 -0.7196,-5.2433l0.514 -5.8602 -0.2056 -4.6264 -1.6449 -4.4208"/>
    <path id="_510952896" class="fil1 str0" d="M206.513 61.8903l-1.8505 -4.0096 -2.2618 -4.5237c0,0 -0.6169,-5.5517 -0.5141,-6.1685 0.1028,-0.6169 -0.6169,-6.5799 -0.6169,-6.5799l0 -4.7292 -2.3646 -2.8787 -1.9534 -4.9349"/>
    <polyline id="_510952752" class="fil1 str0" points="203.84,60.4509 200.653,56.8526 197.054,50.8896 198.494,42.4592 197.671,38.8609 193.867,34.2344 "/>
    <polyline id="_510952680" class="fil1 str0" points="185.642,37.6272 190.063,42.2536 194.278,46.9828 196.232,49.5531 "/>
    <polyline id="_510952608" class="fil1 str0" points="181.324,37.4215 184.717,39.9918 189.138,44.1042 191.708,48.2166 194.998,51.8149 197.877,55.516 "/>
    <polyline id="_510952536" class="fil1 str0" points="180.81,40.6086 186.773,45.6463 193.353,51.3008 "/>
    <polyline id="_510952416" class="fil1 str0" points="185.231,45.9547 181.016,42.9733 175.156,39.4777 170.529,36.2593 "/>
    <polyline id="_510953088" class="fil1 str0" points="187.699,53.4599 181.119,49.2447 175.823,46.5298 166.931,42.6648 "/>
    <path id="_510953040" class="fil1 str0" d="M179.988 52.6374c-0.0148,-0.644 -6.2714,-2.5703 -6.2714,-2.5703l-11.1034 -2.8786 -9.0473 -3.0843"/>
    <path id="_510952512" class="fil1 str0" d="M177.829 56.7498c-1.5421,-0.4113 -4.832,-0.9253 -4.832,-0.9253l-7.7621 0.3403"/>
    <polyline id="_510952944" class="fil1 str0" points="198.183,44.2805 194.38,41.4299 191.089,36.7464 188.178,30.2908 186.279,25.4807 183.368,21.4302 "/>
    <polyline id="_510953112" class="fil1 str0" points="197.774,46.6744 191.975,42.8223 187.924,37.6325 185.564,35.2005 "/>
   </g>
   <g>
    <path id="_510952440" class="fil0 str0" d="M212.171 71.1998c0.3594,1.4377 6.1825,1.6968 6.1825,1.6968l5.8744 0.7098 7.1074 0.7698 4.1294 2.3294 11.8586 5.294 9.7409 5.7175 4.0235 -2.1176 -7.4116 -4.2352 -10.3763 -3.8117 -6.5646 -4.2352 6.3529 -1.2706 5.7175 -0.2117 10.3762 1.4823 6.3529 1.4823 2.1176 -4.2352 -9.1057 -2.3294 -8.2587 -0.4235 -4.447 -0.2117 23.2937 0.6352 8.4704 1.9059 6.9881 0.847 0 -4.6587 -11.4351 -1.4823 -9.3174 -1.0588 -10.1645 -1.2706 -9.9528 -0.6353 17.1526 -0.6353 8.6822 0.4236 10.3763 0.847 0.6352 -4.0234 -9.5292 -0.2118 -14.1879 -2.1176 -5.5058 -1.4823 6.9881 -2.7529 6.3528 -3.3882 9.3175 -3.1764 7.1998 -2.9646 0 -2.9647 -7.6234 1.6941 -6.7763 3.1764 -10.3762 2.1176 -8.894 1.9059 17.1526 -7.8352 11.0115 -3.1764 6.9881 -2.3293 0.8471 -3.3882 -15.6703 4.2352 -7.6234 2.5411 -12.9173 4.6588 10.3762 -5.9293 11.8586 -5.7176 0.847 -3.8116 -6.141 2.7528 -12.7056 5.9293 -8.894 3.1764 8.894 -6.5645 10.3762 -6.9881 -1.9058 -2.3294 -10.1645 6.5646 -9.3175 6.141 8.6822 -13.7644 4.6587 -4.6587 -1.0588 -3.3882 -3.3881 2.9647 -5.5058 6.988 -7.4116 10.7998 3.3882 -11.2233 5.7175 -8.2586 3.5999 -5.7176 1.4823 -3.3881 -2.5411 -1.2706 -2.3294 4.0235 -5.9292 7.1998 -6.1411 7.8351 -3.5999 8.2587 4.6587 -12.9174 5.0823 -8.0469 -1.4824 -3.8117 -2.9646 4.8705 -4.447 5.0823 -1.9058 8.4704 -0.4235 -6.7763 1.694 -5.294 -2.1176 -1.6941 -2.1176 9.3174 -0.2117 5.294 -0.4236 -12.7056 -0.6352 -3.3882 -3.3882 0 1.6941 13.9762 -2.7529 5.5058 0.6353 -7.4116 0.4235 -12.0704 -4.8705 -0.6352 1.0588 10.3762 -1.2705 8.0469 -1.0588 4.0235 0 -13.5527 -0.6353 -9.9527 -2.5412 0.2117 1.0588 9.9528 -1.4823 6.9881 -0.847 7.6233 -2.3294 5.294 -0.6353 8.0469 1.2706 9.3175 1.0588 6.7763 1.9058 7.6234z"/>
    <polyline id="_510952872" class="fil1 str0" points="215.068,72.5312 221.64,69.4982 229.454,68.5729 236.033,68.1616 243.333,67.8532 "/>
    <polyline id="_510952824" class="fil1 str0" points="212.696,68.4701 217.528,66.4139 224.107,64.5633 229.762,62.9183 237.37,62.3015 242.305,61.7874 "/>
    <path id="_510952848" class="fil1 str0" d="M215.163 66.2083c1.0281,-0.6169 4.4208,-2.0562 5.0377,-2.6731 0.6169,-0.6169 10.795,-4.8321 10.795,-4.8321l10.4866 -0.514 10.795 0.1028 5.8602 0.3084"/>
    <polyline id="_510951864" class="fil1 str0" points="212.901,65.8998 215.78,63.4324 220.303,59.9369 226.061,56.4413 230.687,53.1514 241.38,45.5435 246.417,43.6929 "/>
    <path id="_510952248" class="fil1 str0" d="M215.266 65.1802l5.449 -3.2899 6.5798 -4.1124c0,0 4.4208,-1.645 4.9348,-1.8506 0.5141,-0.2056 8.0192,-2.6731 8.0192,-2.6731l7.2862 -4.9245"/>
    <polyline id="_510951792" class="fil1 str0" points="234.286,56.9554 241.071,55.1048 245.697,53.9739 253.305,51.8149 257.829,50.5812 "/>
    <path id="_510951840" class="fil1 str0" d="M211.873 63.124c0.1028,-0.5141 0,-8.2248 0,-8.2248l1.1309 -6.477 0.2056 -7.2995 0 -4.4208 2.1377 -3.8307"/>
    <path id="_510952152" class="fil1 str0" d="M213.518 62.7127l0.514 -4.0096c0,0 2.2618,-5.0376 2.5703,-5.9629 0.3084,-0.9253 0.7196,-5.2433 0.7196,-5.2433l-0.514 -5.8602 0.2056 -4.6264 1.645 -4.4208"/>
    <path id="_510951648" class="fil1 str0" d="M215.574 61.8903l1.8505 -4.0096 2.2619 -4.5237c0,0 0.6168,-5.5517 0.514,-6.1685 -0.1028,-0.6169 0.6169,-6.5799 0.6169,-6.5799l0 -4.7292 2.3646 -2.8787 1.9534 -4.9349"/>
    <polyline id="_510952392" class="fil1 str0" points="218.247,60.4509 221.434,56.8526 225.033,50.8896 223.593,42.4592 224.416,38.8609 228.22,34.2344 "/>
    <polyline id="_510952320" class="fil1 str0" points="236.445,37.6272 232.024,42.2536 227.809,46.9828 225.855,49.5531 "/>
    <polyline id="_510952296" class="fil1 str0" points="240.763,37.4215 237.37,39.9918 232.949,44.1042 230.379,48.2166 227.089,51.8149 224.21,55.516 "/>
    <polyline id="_510951888" class="fil1 str0" points="241.277,40.6086 235.314,45.6463 228.734,51.3008 "/>
    <polyline id="_510952080" class="fil1 str0" points="236.856,45.9547 241.071,42.9733 246.931,39.4777 251.558,36.2593 "/>
    <polyline id="_510951720" class="fil1 str0" points="234.388,53.4599 240.968,49.2447 246.264,46.5298 255.156,42.6648 "/>
    <path id="_510951816" class="fil1 str0" d="M242.099 52.6374c0.0148,-0.644 6.2714,-2.5703 6.2714,-2.5703l11.1034 -2.8786 9.0473 -3.0843"/>
    <path id="_510952056" class="fil1 str0" d="M244.258 56.7498c1.5421,-0.4113 4.832,-0.9253 4.832,-0.9253l7.7621 0.3403"/>
    <polyline id="_510952224" class="fil1 str0" points="223.904,44.2805 227.707,41.4299 230.998,36.7464 233.91,30.2908 235.808,25.4807 238.72,21.4302 "/>
    <polyline id="_510952272" class="fil1 str0" points="224.313,46.6744 230.112,42.8223 234.163,37.6325 236.523,35.2005 "/>
   </g>
  </g>
 </g>
</svg>
