<?xml version="1.0" encoding="UTF-8"?>
<!DOCTYPE svg PUBLIC "-//W3C//DTD SVG 1.1//EN" "http://www.w3.org/Graphics/SVG/1.1/DTD/svg11.dtd">
<!-- Creator: CorelDRAW -->
<svg xmlns="http://www.w3.org/2000/svg" xml:space="preserve" width="420mm" height="420mm" style="shape-rendering:geometricPrecision; text-rendering:geometricPrecision; image-rendering:optimizeQuality; fill-rule:evenodd; clip-rule:evenodd"
viewBox="0 0 420 420">
 <defs>
  <style type="text/css">
   <![CDATA[
    .str0 {stroke:#FFF500;stroke-width:0.3528;stroke-linejoin:bevel}
    .fil1 {fill:none}
    .fil2 {fill:#0093DD}
    .fil0 {fill:#42929D}
    .fil7 {fill:#DA251D}
    .fil6 {fill:#33FF00}
    .fil3 {fill:#6600FF}
    .fil4 {fill:#FF66FF}
    .fil5 {fill:#5E3812}
   ]]>
  </style>
 </defs>
 <g id="Capa_x0020_1">
  <metadata id="CorelCorpID_0Corel-Layer"/>
  <g id="_273988048">
   <path id="_275225192" class="fil0 str0" d="M201.055 47.4884l-0.5636 -5.9176 2.2543 -3.3815 5.6358 -1.9725 4.2269 1.1271 3.3815 1.9726 1.9725 -5.3541 7.3266 -1.4089 3.945 1.9725 5.9176 3.9451c0,0 6.4812,-0.2818 8.4537,0 1.9725,0.2818 9.8627,0.2818 9.8627,0.2818l8.1719 3.0997 12.6805 4.7904c0,0 3.3815,0.5636 5.0723,4.7904 1.6907,4.2269 17.1892,18.5982 17.1892,18.5982l9.299 10.9898 5.6358 4.7904 3.3815 7.8902 7.8902 9.5808 7.8901 7.6084 4.5086 4.7904 4.7905 5.9176 -4.7905 2.2543 -6.3291 -3.954 3.2294 7.8991 -3.6632 3.6632 -8.172 -10.708 14.3713 22.2614 -5.0722 3.0997 -3.945 -4.7904 -3.9451 1.6907 -4.5087 -5.9175 -4.7904 1.6907 7.3266 17.7528 -7.0448 2.8179 -8.4537 -18.0346 4.2269 9.0173 -5.6359 1.9725 -3.0996 -9.0173 6.1993 19.7253 -5.9176 1.409 -7.6083 -20.5707 -6.4812 -11.2716 -7.0447 -5.354 7.8901 15.2167 1.9725 10.9898 -4.2268 -0.5636 -3.0997 -9.2991 -7.8901 -16.9074 1.1271 23.1068 -4.2268 -1.6907 -2.5361 -21.6979 -2.8179 -10.9898 -0.5636 30.9969 -7.0448 -1.6907 2.8179 -30.4334 -3.945 -6.7629 -1.6908 -4.2269 -1.9725 -5.354 -1.409 -10.1444 1.9726 -7.0448 -7.3266 -4.2268 -9.299 -10.4263 -7.0448 -5.0722 -16.3438 -5.354 -9.2991 0.8454 -2.8179 -9.0173z"/>
   <path id="_275225168" class="fil1 str0" d="M211.068 55.8517c2.1036,-0.1914 -3.1292,-8.9765 -3.1292,-8.9765l-1.028 -5.9112 7.3879 -2.6337"/>
   <polyline id="_275225264" class="fil1 str0" points="218.734,56.1277 215.393,47.9033 213.336,41.992 214.299,38.3303 "/>
   <path id="_275224976" class="fil2 str0" d="M214.364 44.9478l7.4533 -4.4979 7.4534 -0.514 8.4814 3.3412 12.3365 1.028 6.6823 2.5701c0,0 10.0235,7.1964 11.5655,7.9674 1.5421,0.771 8.7384,6.9393 9.7665,9.2524 1.028,2.3131 9.5094,13.3646 9.5094,13.3646l5.9113 8.9954 8.2244 10.7945 7.9673 13.8786 10.5364 9.6257 14.3713 22.2614 -4.0716 2.4884 -8.4995 -9.7023 -10.2805 -14.6497 -4.8832 -4.1122 -4.8832 -10.5375 -5.6543 -10.7945 -8.4814 -8.7383 -5.1402 -7.9674 -10.2805 -11.8225 -8.4814 -8.9954 -8.9954 -4.1122 -10.7944 -4.3692 -9.7665 -3.5982 -10.2805 -2.8271 -9.7664 1.6707z"/>
   <path id="_273989632" class="fil3 str0" d="M215.93 49.2271l6.4016 -1.5808 11.8225 2.0561c0,0 9.2524,3.8551 10.5375,4.3692 1.285,0.514 12.3365,5.9112 12.3365,5.9112l5.9113 4.8833 5.3972 7.7103 8.4814 9.5094 6.6823 7.7104 5.9113 10.0234 5.6543 6.9393 6.4252 7.1964 7.839 5.1402 5.0116 10.5375 2.8105 7.4647 -4.7904 1.6907 -5.2164 -12.4966 -2.8271 -4.8832c0,0 -5.9113,-4.8832 -7.1964,-6.4253 -1.285,-1.5421 -6.9393,-5.9112 -6.9393,-5.9112l-5.3972 -8.9955c0,0 -4.6262,-6.4252 -5.1402,-7.7103 -0.5141,-1.2851 -5.6543,-7.9674 -5.6543,-7.9674l-7.9674 -7.9673 -8.2243 -7.1963 -12.8506 -8.7384 -9.5094 -5.3973 -7.7104 -3.0841 -12.3365 -4.1122 0.5377 1.3238z"/>
   <path id="_273990304" class="fil4 str0" d="M217.063 52.0155l15.806 6.4253c0,0 10.7945,-0.7711 12.0796,2.0561 1.285,2.8271 12.8506,13.6216 12.8506,13.6216 0,0 8.9954,9.2524 11.3085,11.3085 2.3131,2.0561 8.7384,11.0515 8.7384,11.0515l5.9112 10.0234 5.9113 8.9954 6.6823 9.2525 8.2244 10.2804 1.7282 10.8029 -4.4391 3.8149 -2.1831 -6.351 -5.9005 -12.636 -4.8832 -9.7664 -5.9113 -8.2244 -4.8832 -8.7384 -5.6543 -7.1963 -8.2243 -7.7104 -6.6823 -8.4813 -10.2805 -8.9954 -5.9113 -7.1964 -6.9393 -3.0841 -12.0795 -5.3973 -5.2686 -3.8551z"/>
   <polygon id="_273989992" class="fil5 str0" points="253.186,80.7396 259.856,90.8242 270.393,104.703 277.075,116.011 284.015,126.292 285.874,132.589 278.829,127.235 272.963,117.81 265.767,107.016 260.627,97.2495 "/>
   <path id="_273989968" class="fil6 str0" d="M251.918 92.8566c-0.2075,-1.4936 6.9092,9.7902 6.9092,9.7902l3.3412 6.1682 2.5701 3.3412 0.2528 4.8927 -0.252 13.8494 -2.8279 9.7862 -4.4987 4.0215 0.5636 -6.085 1.7311 -18.6967 0.5232 -5.6517 -6.6219 -13.6666 -1.6907 -7.7494z"/>
   <path id="_273989800" class="fil7 str0" d="M215.99 39.3165l9.5547 0.8764c0,0 8.3003,2.8585 7.9674,1.4137 -0.3329,-1.4448 15.0213,-2.902 15.0213,-2.902l9.0208 1.5983 10.2852 9.158 8.6503 4.9715 6.9549 8.6947 7.6423 9.5537 8.1646 10.2066 4.9388 9.4056 11.143 10.6986 4.5358 5.6706 6.0752 7.5946 7.4444 6.4732 4.1939 -0.0036 -6.904 -11.8352 -11.8352 -12.3988 -7.3266 -12.6806 -12.3987 -7.0447 -3.8025 -9.9241 -11.4941 -11.5613 -7.2466 -6.4118 -8.0752 -6.4259 -15.0316 -5.6911 -18.3164 -0.2818 -13.8148 -2.4391 -5.3469 3.2845z"/>
   <path id="_273990088" class="fil0 str0" d="M218.896 47.4884l0.5635 -5.9176 -2.2543 -3.3815 -5.6358 -1.9725 -4.2268 1.1271 -3.3815 1.9726 -1.9726 -5.3541 -7.3265 -1.4089 -3.9451 1.9725 -5.9176 3.9451c0,0 -6.4811,-0.2818 -8.4537,0 -1.9725,0.2818 -9.8626,0.2818 -9.8626,0.2818l-8.1719 3.0997 -12.6806 4.7904c0,0 -3.3815,0.5636 -5.0722,4.7904 -1.6908,4.2269 -17.1892,18.5982 -17.1892,18.5982l-9.2991 10.9898 -5.6358 4.7904 -3.3815 7.8902 -7.8901 9.5808 -7.8901 7.6084 -4.5087 4.7904 -4.7904 5.9176 4.7904 2.2543 6.3291 -3.954 -3.2294 7.8991 3.6633 3.6632 8.1719 -10.708 -14.3713 22.2614 5.0722 3.0997 3.9451 -4.7904 3.9451 1.6907 4.5086 -5.9175 4.7904 1.6907 -7.3265 17.7528 7.0447 2.8179 8.4538 -18.0346 -4.2269 9.0173 5.6358 1.9725 3.0997 -9.0173 -6.1994 19.7253 5.9176 1.409 7.6083 -20.5707 6.4812 -11.2716 7.0448 -5.354 -7.8902 15.2167 -1.9725 10.9898 4.2269 -0.5636 3.0997 -9.2991 7.8901 -16.9074 -1.1272 23.1068 4.2269 -1.6907 2.5361 -21.6979 2.8179 -10.9898 0.5636 30.9969 7.0447 -1.6907 -2.8179 -30.4334 3.9451 -6.7629 1.6907 -4.2269 1.9726 -5.354 1.4089 -10.1444 -1.9725 -7.0448 7.3265 -4.2268 9.2991 -10.4263 7.0447 -5.0722 16.3439 -5.354 9.2991 0.8454 2.8179 -9.0173z"/>
   <path id="_273989344" class="fil1 str0" d="M208.882 55.8517c-2.1035,-0.1914 3.1292,-8.9765 3.1292,-8.9765l1.0281 -5.9112 -7.388 -2.6337"/>
   <polyline id="_273988096" class="fil1 str0" points="201.217,56.1277 204.558,47.9033 206.614,41.992 205.651,38.3303 "/>
   <path id="_273988744" class="fil2 str0" d="M205.586 44.9478l-7.4533 -4.4979 -7.4533 -0.514 -8.4814 3.3412 -12.3366 1.028 -6.6823 2.5701c0,0 -10.0234,7.1964 -11.5655,7.9674 -1.5421,0.771 -8.7384,6.9393 -9.7664,9.2524 -1.0281,2.3131 -9.5095,13.3646 -9.5095,13.3646l-5.9112 8.9954 -8.2244 10.7945 -7.9674 13.8786 -10.5364 9.6257 -14.3713 22.2614 4.0716 2.4884 8.4996 -9.7023 10.2804 -14.6497 4.8833 -4.1122 4.8832 -10.5375 5.6542 -10.7945 8.4814 -8.7383 5.1403 -7.9674 10.2804 -11.8225 8.4814 -8.9954 8.9954 -4.1122 10.7945 -4.3692 9.7664 -3.5982 10.2805 -2.8271 9.7664 1.6707z"/>
   <path id="_273988816" class="fil3 str0" d="M204.02 49.2271l-6.4016 -1.5808 -11.8225 2.0561c0,0 -9.2525,3.8551 -10.5375,4.3692 -1.2851,0.514 -12.3366,5.9112 -12.3366,5.9112l-5.9113 4.8833 -5.3972 7.7103 -8.4814 9.5094 -6.6823 7.7104 -5.9112 10.0234 -5.6543 6.9393 -6.4253 7.1964 -7.839 5.1402 -5.0116 10.5375 -2.8105 7.4647 4.7904 1.6907 5.2165 -12.4966 2.8271 -4.8832c0,0 5.9112,-4.8832 7.1963,-6.4253 1.2851,-1.5421 6.9393,-5.9112 6.9393,-5.9112l5.3973 -8.9955c0,0 4.6262,-6.4252 5.1402,-7.7103 0.514,-1.2851 5.6542,-7.9674 5.6542,-7.9674l7.9674 -7.9673 8.2244 -7.1963 12.8506 -8.7384 9.5094 -5.3973 7.7103 -3.0841 12.3366 -4.1122 -0.5377 1.3238z"/>
   <path id="_273988120" class="fil4 str0" d="M202.887 52.0155l-15.8061 6.4253c0,0 -10.7945,-0.7711 -12.0795,2.0561 -1.2851,2.8271 -12.8506,13.6216 -12.8506,13.6216 0,0 -8.9954,9.2524 -11.3085,11.3085 -2.3131,2.0561 -8.7384,11.0515 -8.7384,11.0515l-5.9113 10.0234 -5.9113 8.9954 -6.6823 9.2525 -8.2243 10.2804 -1.7282 10.8029 4.439 3.8149 2.1832 -6.351 5.9005 -12.636 4.8832 -9.7664 5.9112 -8.2244 4.8833 -8.7384 5.6542 -7.1963 8.2244 -7.7104 6.6823 -8.4813 10.2805 -8.9954 5.9112 -7.1964 6.9393 -3.0841 12.0796 -5.3973 5.2686 -3.8551z"/>
   <polygon id="_273988624" class="fil5 str0" points="166.764,80.7396 160.095,90.8242 149.557,104.703 142.875,116.011 135.936,126.292 134.077,132.589 141.121,127.235 146.987,117.81 154.184,107.016 159.324,97.2495 "/>
   <path id="_273988504" class="fil6 str0" d="M168.032 92.8566c0.2075,-1.4936 -6.9093,9.7902 -6.9093,9.7902l-3.3411 6.1682 -2.5701 3.3412 -0.2528 4.8927 0.252 13.8494 2.8279 9.7862 4.4986 4.0215 -0.5636 -6.085 -1.731 -18.6967 -0.5233 -5.6517 6.622 -13.6666 1.6907 -7.7494z"/>
   <path id="_273987448" class="fil7 str0" d="M203.961 39.3165l-9.5548 0.8764c0,0 -8.3003,2.8585 -7.9674,1.4137 0.333,-1.4448 -15.0213,-2.902 -15.0213,-2.902l-9.0207 1.5983 -10.2852 9.158 -8.6504 4.9715 -6.9548 8.6947 -7.6424 9.5537 -8.1645 10.2066 -4.9388 9.4056 -11.143 10.6986 -4.5358 5.6706 -6.0752 7.5946 -7.4444 6.4732 -4.1939 -0.0036 6.904 -11.8352 11.8352 -12.3988 7.3265 -12.6806 12.3988 -7.0447 3.8024 -9.9241 11.4941 -11.5613 7.2467 -6.4118 8.0752 -6.4259 15.0316 -5.6911 18.3163 -0.2818 13.8149 -2.4391 5.3469 3.2845z"/>
  </g>
 </g>
</svg>
