<?xml version="1.0" encoding="UTF-8"?>
<!DOCTYPE svg PUBLIC "-//W3C//DTD SVG 1.1//EN" "http://www.w3.org/Graphics/SVG/1.1/DTD/svg11.dtd">
<!-- Creator: CorelDRAW -->
<svg xmlns="http://www.w3.org/2000/svg" xml:space="preserve" width="420mm" height="420mm" style="shape-rendering:geometricPrecision; text-rendering:geometricPrecision; image-rendering:optimizeQuality; fill-rule:evenodd; clip-rule:evenodd"
viewBox="0 0 420 420">
 <defs>
  <style type="text/css">
   <![CDATA[
    .str0 {stroke:#00CCFF;stroke-width:0.3528}
    .fil0 {fill:#00CCFF}
   ]]>
  </style>
 </defs>
 <g id="Capa_x0020_1">
  <metadata id="CorelCorpID_0Corel-Layer"/>
  <g id="_214369432">
   <path id="_215979672" class="fil0 str0" d="M108.116 89.4028l9.8802 0.4472c-0.8417,-55.2741 21.3956,-64.2747 56.5794,-47.3173l-7.2722 -5.4306c-41.6432,-20.0063 -55.4496,7.5465 -59.1874,52.3007z"/>
   <path id="_215979624" class="fil0 str0" d="M139.514 91.8579l6.5611 0.248c-0.8321,-36.6894 13.8856,-42.7744 37.3261,-31.6913l-4.8545 -3.5691c-27.7436,-13.0751 -36.7728,5.284 -39.0327,35.0124z"/>
   <path id="_215980128" class="fil0 str0" d="M128.322 90.3929l7.8843 -0.2448c-4.028,-43.905 13.1091,-52.4139 42.119,-41.0666l-6.1131 -3.8767c-34.332,-13.3794 -43.6372,9.3706 -43.8902,45.1881z"/>
   <path id="_215979960" class="fil0 str0" d="M151.676 94.035l5.1595 0.8955c3.254,-29.088 15.5356,-32.3285 32.8813,-21.0693l-3.4564 -3.3386c-20.5346,-13.2925 -29.6286,0.2559 -34.5844,23.5124z"/>
   <path id="_214370152" class="fil0 str0" d="M162.287 98.4555l3.6365 0.7607c3.0162,-20.5457 11.8035,-22.544 23.8282,-14.1379l-2.3694 -2.4515c-14.2362,-9.9256 -21.0146,-0.5406 -25.0953,15.8287z"/>
   <path id="_214369912" class="fil0 str0" d="M177.325 38.4017c15.1088,-69.9536 68.7014,5.259 116.415,7.1347l-3.3526 4.6837c-63.4418,-2.221 -78.7357,-70.2559 -113.062,-11.8184z"/>
   <path id="_214369840" class="fil0 str0" d="M179.469 46.9236c14.5024,-62.0649 63.7907,4.2009 108.105,5.5446l-3.1458 4.1711c-58.9245,-1.5449 -72.68,-61.7077 -104.959,-9.7157z"/>
   <path id="_214369720" class="fil0 str0" d="M184.667 57.1275c13.7064,-61.9451 61.6823,4.5182 104.524,6.0836l-3.0198 4.1521c-56.9653,-1.8397 -70.5638,-62.0262 -101.505,-10.2357z"/>
   <path id="_214369624" class="fil0 str0" d="M189.909 67.6283c14.5007,-56.6675 61.4992,3.3018 104.235,4.161l-3.0689 3.8262c-56.8271,-0.922 -69.6002,-55.6236 -101.166,-7.9872z"/>
   <path id="_214369696" class="fil0 str0" d="M195.109 77.8436c13.8153,-61.2216 61.6572,4.3514 104.485,5.82l-3.0266 4.1074c-56.9463,-1.7139 -70.4317,-61.1484 -101.458,-9.9274z"/>
   <path id="_214369960" class="fil0 str0" d="M196.679 88.2782c13.7064,-61.9451 61.6823,4.5182 104.524,6.0836l-3.0199 4.1521c-56.9652,-1.8397 -70.5638,-62.0262 -101.504,-10.2357z"/>
  </g>
 </g>
</svg>
