<?xml version="1.0" encoding="UTF-8"?>
<!DOCTYPE svg PUBLIC "-//W3C//DTD SVG 1.1//EN" "http://www.w3.org/Graphics/SVG/1.1/DTD/svg11.dtd">
<!-- Creator: CorelDRAW -->
<svg xmlns="http://www.w3.org/2000/svg" xml:space="preserve" width="420mm" height="420mm" style="shape-rendering:geometricPrecision; text-rendering:geometricPrecision; image-rendering:optimizeQuality; fill-rule:evenodd; clip-rule:evenodd"
viewBox="0 0 420 420">
 <defs>
  <style type="text/css">
   <![CDATA[
    .str0 {stroke:#00CCFF;stroke-width:0.3528}
    .str2 {stroke:lime;stroke-width:0.3528}
    .str1 {stroke:#F5E326;stroke-width:0.3528}
    .fil1 {fill:#1F1A17}
    .fil2 {fill:#C2C1C1}
    .fil0 {fill:#0066FF}
    .fil9 {fill:#00A6D6}
    .fil3 {fill:#00AB59}
    .fil4 {fill:#6600A1}
    .fil6 {fill:#82B8C9}
    .fil7 {fill:#BA1FB5}
    .fil8 {fill:#ED6E00}
    .fil5 {fill:#F7D917}
   ]]>
  </style>
 </defs>
 <g id="Capa_x0020_1">
  <metadata id="CorelCorpID_0Corel-Layer"/>
  <g id="_217925760">
   <path id="_217931064" class="fil0 str0" d="M277.141 81.2235l-6.8061 1.3415c-5.1865,-38.4257 -21.5498,-42.3471 -44.1828,-26.9126l4.477 -4.5258c26.795,-18.2235 39.2474,-0.5543 46.5119,30.0969z"/>
   <path id="_217929720" class="fil1 str0" d="M255.62 86.2041l-4.5249 0.8569c-3.253,-25.5345 -14.0963,-28.2186 -29.1976,-18.0844l2.9945 -2.9823c17.8779,-11.9651 26.057,-0.1738 30.728,20.2098z"/>
   <path id="_217928832" class="fil2 str1" d="M263.229 84.0195l-5.494 0.6533c-1.7896,-30.8728 -14.5641,-34.9855 -33.5006,-24.0867l3.8353 -3.327c22.4158,-12.8639 31.2448,1.944 35.1593,26.7604z"/>
   <path id="_217926984" class="fil3 str0" d="M247.411 88.9837l-3.4851 1.1597c-5.2935,-19.8356 -14.1503,-20.8011 -25.0058,-11.181l2.0488 -2.6765c12.8551,-11.3632 20.577,-2.9154 26.4421,12.6978z"/>
   <path id="_217926768" class="fil4 str0" d="M240.513 93.1574l-2.4429 0.9073c-4.2368,-13.9356 -10.5403,-14.4043 -18.003,-7.3185l1.3875 -1.9477c8.838,-8.3705 14.5192,-2.5688 19.0584,8.3589z"/>
   <path id="_217927080" class="fil4 str0" d="M223.814 53.0742c-17.782,-46.9423 -47.102,10.8195 -80,17.1014l2.8143 2.8986c43.7711,-8.1633 47.2765,-56.9486 77.1857,-20z"/>
   <path id="_217926360" class="fil5 str0" d="M223.217 59.2087c-16.5379,-41.5339 -43.8064,9.573 -74.4025,15.1312l2.6174 2.5646c40.7085,-7.2228 43.9686,-50.3874 71.7851,-17.6958z"/>
   <path id="_217926600" class="fil6 str0" d="M220.677 66.8287c-15.9733,-41.5339 -42.3109,9.573 -71.8625,15.1312l2.528 2.5646c39.3188,-7.2228 42.4677,-50.3874 69.3345,-17.6958z"/>
   <path id="_217926096" class="fil7 str0" d="M218.137 74.6594c-15.9733,-37.7906 -42.3109,8.7101 -71.8625,13.7673l2.528 2.3335c39.3188,-6.5718 42.4677,-45.846 69.3345,-16.1008z"/>
   <path id="_217925544" class="fil8 str2" d="M215.597 82.2874c-15.9733,-41.0208 -42.3109,9.4547 -71.8625,14.9441l2.528 2.533c39.3188,-7.1335 42.4677,-49.7648 69.3345,-17.4771z"/>
   <path id="_217925664" class="fil9 str0" d="M215.597 89.6887c-15.9733,-41.5339 -42.3109,9.573 -71.8625,15.1312l2.528 2.5646c39.3188,-7.2228 42.4677,-50.3874 69.3345,-17.6958z"/>
  </g>
 </g>
</svg>
