<?xml version="1.0" encoding="UTF-8"?>
<!DOCTYPE svg PUBLIC "-//W3C//DTD SVG 1.1//EN" "http://www.w3.org/Graphics/SVG/1.1/DTD/svg11.dtd">
<!-- Creator: CorelDRAW -->
<svg xmlns="http://www.w3.org/2000/svg" xml:space="preserve" width="420mm" height="420mm" style="shape-rendering:geometricPrecision; text-rendering:geometricPrecision; image-rendering:optimizeQuality; fill-rule:evenodd; clip-rule:evenodd"
viewBox="0 0 420 420">
 <defs>
  <style type="text/css">
   <![CDATA[
    .fil0 {fill:#0A0B0C}
   ]]>
  </style>
 </defs>
 <g id="Capa_x0020_1">
  <metadata id="CorelCorpID_0Corel-Layer"/>
  <g id="_215979792">
   <path id="_217097080" class="fil0" d="M216.29 68.5699l6.9371 0c-2.3426,-38.7033 12.9534,-45.7152 38.1441,-34.9491l-5.2678 -3.5746c-29.8134,-12.6975 -38.6137,7.0463 -39.8134,38.5237z"/>
   <path id="_217097008" class="fil0" d="M201.463 68.5699l-6.9371 0c2.3426,-38.7033 -12.9534,-45.7152 -38.1441,-34.9491l5.2678 -3.5746c29.8134,-12.6975 38.6137,7.0463 39.8134,38.5237z"/>
   <g>
    <path id="_217098088" class="fil0" d="M233.63 75.618l7.9333 0c-2.6791,-21.4998 14.8135,-25.3949 43.6217,-19.4143l-6.0242 -1.9857c-34.0948,-7.0535 -44.1588,3.9142 -45.5308,21.4z"/>
    <path id="_217095408" class="fil0" d="M184.123 75.618l-7.9333 0c2.6791,-21.4998 -14.8135,-25.3949 -43.6217,-19.4143l6.0242 -1.9857c34.0948,-7.0535 44.1589,3.9142 45.5308,21.4z"/>
   </g>
   <polygon id="_217095120" class="fil0" points="204.987,65.0459 208.744,11.0952 212.766,65.0459 "/>
   <g>
    <path id="_217095048" class="fil0" d="M226.14 72.094l5.5327 0c-1.8684,-30.8682 10.3311,-36.4606 30.4221,-27.874l-4.2013 -2.8509c-23.778,-10.127 -30.7967,5.6198 -31.7535,30.7249z"/>
    <path id="_217096008" class="fil0" d="M191.613 72.094l-5.5327 0c1.8684,-30.8682 -10.3311,-36.4606 -30.4221,-27.874l4.2013 -2.8509c23.778,-10.127 30.7967,5.6198 31.7535,30.7249z"/>
   </g>
  </g>
 </g>
</svg>
