<?xml version="1.0" encoding="UTF-8"?>
<!DOCTYPE svg PUBLIC "-//W3C//DTD SVG 1.1//EN" "http://www.w3.org/Graphics/SVG/1.1/DTD/svg11.dtd">
<!-- Creator: CorelDRAW -->
<svg xmlns="http://www.w3.org/2000/svg" xml:space="preserve" width="420mm" height="420mm" style="shape-rendering:geometricPrecision; text-rendering:geometricPrecision; image-rendering:optimizeQuality; fill-rule:evenodd; clip-rule:evenodd"
viewBox="0 0 420 420">
 <defs>
  <style type="text/css">
   <![CDATA[
    .str1 {stroke:#1F1A17;stroke-width:0.7056}
    .str0 {stroke:#1F1A17;stroke-width:2.8222}
    .fil2 {fill:#00923F}
    .fil0 {fill:#DA251D}
    .fil1 {fill:white}
   ]]>
  </style>
 </defs>
 <g id="Capa_x0020_1">
  <metadata id="CorelCorpID_0Corel-Layer"/>
  <path class="fil0 str0" d="M123.32 119.86c8.1333,-4.8516 19.1785,-8.7911 33.1351,-11.8188 20.1677,28.3703 64.5021,31.1967 138.002,3.1943 17.1771,13.9099 51.639,17.8139 51.5848,2.4796 3.0383,-9.7692 -21.3656,-15.6922 -54.0705,-24.8821l-11.3509 -42.4411c-3.5189,-8.161 -9.2272,-13.8773 -16.7496,-17.5684 -17.6905,-8.2782 -38.1424,-13.442 -62.6291,-14.0548 -19.4804,3.0864 -39.8712,9.901 -62.2649,24.9153 -21.2411,17.063 -25.4888,44.3741 -15.6572,80.176z"/>
  <path class="fil1 str0" d="M156.455 108.042c33.1331,-1.9473 64.2338,-17.7632 97.3672,-22.187 15.1068,-0.9423 29.0655,1.8019 38.1494,2.9788l-11.3509 -42.4411c-1.6039,-9.3471 -7.6557,-14.7924 -16.7496,-17.5684 -18.3185,-9.4519 -39.312,-13.9195 -62.6291,-14.0548 -16.7926,5.3954 -33.1068,13.0973 -48.6499,24.5162 -4.6263,7.1174 -8.0219,15.1943 -7.023,26.6973l10.8859 42.059z"/>
  <path class="fil0 str1" d="M187.727 17.5237c-3.2338,-8.3082 20.9221,-14.4632 22.0336,-2.5055 -7.758,-0.6404 -15.0322,0.448 -22.0336,2.5055z"/>
  <path class="fil2 str1" d="M294.457 111.236c26.0998,-8.235 45.1736,-9.7602 48.7912,3.4736 -2.7411,14.7678 -31.1739,8.4202 -48.7912,-3.4736z"/>
 </g>
</svg>
