<?xml version="1.0" encoding="UTF-8"?>
<!DOCTYPE svg PUBLIC "-//W3C//DTD SVG 1.1//EN" "http://www.w3.org/Graphics/SVG/1.1/DTD/svg11.dtd">
<!-- Creator: CorelDRAW -->
<svg xmlns="http://www.w3.org/2000/svg" xml:space="preserve" width="420mm" height="420mm" style="shape-rendering:geometricPrecision; text-rendering:geometricPrecision; image-rendering:optimizeQuality; fill-rule:evenodd; clip-rule:evenodd"
viewBox="0 0 420 420">
 <defs>
  <style type="text/css">
   <![CDATA[
    .str1 {stroke:#1F1A17;stroke-width:0.7056}
    .str0 {stroke:#1F1A17;stroke-width:2.8222}
    .fil2 {fill:#00923F}
    .fil0 {fill:#0A0B0C}
    .fil1 {fill:white}
   ]]>
  </style>
 </defs>
 <g id="Capa_x0020_1">
  <metadata id="CorelCorpID_0Corel-Layer"/>
  <g id="_279349736">
   <path id="_510951360" class="fil0 str0" d="M300.86 123.14c-8.1334,-4.8517 -19.1785,-8.7911 -33.1351,-11.8188 -20.1677,28.3703 -64.5021,31.1967 -138.002,3.1943 -17.1772,13.9099 -51.6391,17.8139 -51.5848,2.4796 -3.0383,-9.7692 21.3656,-15.6922 54.0705,-24.8821l11.3509 -42.4411c3.5189,-8.161 9.2272,-13.8773 16.7496,-17.5684 17.6905,-8.2782 38.1423,-13.442 62.629,-14.0548 19.4804,3.0864 39.8713,9.9009 62.2649,24.9153 21.2412,17.063 25.4889,44.3741 15.6573,80.176z"/>
   <path id="_510951480" class="fil1 str0" d="M267.725 111.321c-33.1331,-1.9473 -64.2338,-17.7632 -97.3672,-22.187 -15.1068,-0.9423 -29.0655,1.8019 -38.1494,2.9788l11.3509 -42.4411c1.6039,-9.3471 7.6557,-14.7924 16.7496,-17.5684 18.3185,-9.4519 39.3119,-13.9195 62.629,-14.0548 16.7927,5.3954 33.1068,13.0973 48.65,24.5162 4.6263,7.1174 8.0219,15.1943 7.023,26.6973l-10.8859 42.059z"/>
   <path id="_510951240" class="fil0 str1" d="M236.453 20.8035c3.2338,-8.3082 -20.9221,-14.4632 -22.0337,-2.5055 7.7581,-0.6404 15.0322,0.448 22.0337,2.5055z"/>
   <path id="_510951312" class="fil2 str1" d="M129.723 114.516c-26.0998,-8.235 -45.1736,-9.7602 -48.7912,3.4736 2.741,14.7678 31.1738,8.4202 48.7912,-3.4736z"/>
  </g>
 </g>
</svg>
