<?xml version="1.0" encoding="UTF-8"?>
<!DOCTYPE svg PUBLIC "-//W3C//DTD SVG 1.1//EN" "http://www.w3.org/Graphics/SVG/1.1/DTD/svg11.dtd">
<!-- Creator: CorelDRAW -->
<svg xmlns="http://www.w3.org/2000/svg" xml:space="preserve" width="420mm" height="420mm" style="shape-rendering:geometricPrecision; text-rendering:geometricPrecision; image-rendering:optimizeQuality; fill-rule:evenodd; clip-rule:evenodd"
viewBox="0 0 420 420">
 <defs>
  <style type="text/css">
   <![CDATA[
    .str1 {stroke:#1F1A17;stroke-width:0.0762}
    .str0 {stroke:#1F1A17;stroke-width:0.7056}
    .fil2 {fill:#0A0B0C}
    .fil1 {fill:#6B300D}
    .fil3 {fill:#85360F}
    .fil0 {fill:#BA5205}
   ]]>
  </style>
 </defs>
 <g id="Capa_x0020_1">
  <metadata id="CorelCorpID_0Corel-Layer"/>
  <g id="_215422568">
   <path id="_215423312" class="fil0 str0" d="M209.666 15.0113c-6.2488,0.7084 -13.6065,-1.6824 -21.7261,-6.1954 -7.3859,-4.9935 -15.7065,-1.8952 -24.9619,9.2931 -8.3917,16.5695 -15.494,36.4405 -17.0318,56.1437 20.8649,8.4671 33.9458,12.9297 63.2659,13.0756l0.8464 0.0911c29.32,-0.1459 42.4009,-4.6084 63.2659,-13.0755 -1.5379,-19.7032 -8.6402,-39.5742 -17.0319,-56.1438 -9.2554,-11.1883 -17.576,-14.2865 -24.9619,-9.293 -8.0933,4.4985 -15.4293,6.8877 -21.6652,6.2018l0.0006 -0.0976z"/>
   <path id="_215423216" class="fil0 str0" d="M209.072 86.4058c27.1535,0.4607 56.5434,-9.8792 93.0162,-30.471 25.7283,-9.7349 33.0777,4.5275 27.5031,14.1085 -9.8432,20.6422 -36.9204,29.9588 -64.1738,25.1809l-50.0608 15.1468c-5.1066,1.7354 -7.8552,1.3734 -12.1461,0.1303l-0.4328 -0.1309 -23.248 -7.0341 -26.4229 -7.9941c-27.2534,4.7779 -54.3307,-4.5387 -64.1738,-25.1809 -5.5746,-9.5811 1.7748,-23.8434 27.503,-14.1085 36.674,20.6454 66.446,31.1006 92.6379,30.5155l-0.002 -0.1625z"/>
   <path id="_215423072" class="fil1 str0" d="M153.107 95.3422c-36.7828,8.6146 -85.3909,-21.4038 -58.5704,-41.4823 14.7737,-3.7064 36.2232,23.8836 58.5704,41.4823z"/>
   <path id="_215423360" class="fil1 str1" d="M182.102 15.5133c4.3531,13.0214 0.6223,22.397 -9.8073,28.7527 -6.3249,-7.084 3.7666,-31.3125 9.8073,-28.7527z"/>
   <path id="_215423480" class="fil2 str1" d="M182.102 15.5133c4.3531,13.0214 0.6223,22.397 -9.8073,28.7527 3.8146,-7.8129 7.2393,-16.8914 9.8073,-28.7527z"/>
   <path id="_215422208" class="fil3 str0" d="M265.418 95.2242c36.7828,8.6146 85.3909,-21.4038 58.5704,-41.4823 -14.7737,-3.7064 -36.2232,23.8836 -58.5704,41.4823z"/>
   <path id="_215422712" class="fil1 str1" d="M244.733 15.5133c-4.3531,13.0214 -0.6224,22.397 9.8072,28.7527 6.325,-7.084 -3.7665,-31.3125 -9.8072,-28.7527z"/>
   <path id="_215422256" class="fil2 str1" d="M244.733 15.5133c-4.3531,13.0214 -0.6224,22.397 9.8072,28.7527 -3.8145,-7.8129 -7.2392,-16.8914 -9.8072,-28.7527z"/>
   <path id="_215422400" class="fil1 str0" d="M148.4 58.2967l-2.0898 13.7035c41.4111,19.1942 83.7647,18.9717 127.06,-0.6655l-2.075 -13.2177c-40.8829,18.8193 -81.8484,18.8789 -122.895,0.1797z"/>
  </g>
 </g>
</svg>
