<?xml version="1.0" encoding="UTF-8"?>
<!DOCTYPE svg PUBLIC "-//W3C//DTD SVG 1.1//EN" "http://www.w3.org/Graphics/SVG/1.1/DTD/svg11.dtd">
<!-- Creator: CorelDRAW -->
<svg xmlns="http://www.w3.org/2000/svg" xml:space="preserve" width="420mm" height="420mm" style="shape-rendering:geometricPrecision; text-rendering:geometricPrecision; image-rendering:optimizeQuality; fill-rule:evenodd; clip-rule:evenodd"
viewBox="0 0 420 420">
 <defs>
  <style type="text/css">
   <![CDATA[
    .str1 {stroke:#1F1A17;stroke-width:0.0762}
    .str0 {stroke:#1F1A17;stroke-width:0.7056}
    .fil2 {fill:#0A0B0C}
    .fil1 {fill:#4D4948}
    .fil0 {fill:#72706F}
   ]]>
  </style>
 </defs>
 <g id="Capa_x0020_1">
  <metadata id="CorelCorpID_0Corel-Layer"/>
  <g id="_510941400">
   <path id="_510942168" class="fil0 str0" d="M211.981 16.246c-6.2488,0.7085 -13.6065,-1.6824 -21.7261,-6.1953 -7.3859,-4.9935 -15.7065,-1.8953 -24.9619,9.293 -8.3917,16.5696 -15.4939,36.4406 -17.0318,56.1437 20.865,8.4672 33.9458,12.9297 63.2659,13.0756l0.8464 0.0912c29.32,-0.1459 42.4009,-4.6085 63.2659,-13.0756 -1.5379,-19.7032 -8.6401,-39.5742 -17.0318,-56.1437 -9.2554,-11.1883 -17.5761,-14.2866 -24.9619,-9.2931 -8.0934,4.4985 -15.4293,6.8878 -21.6653,6.2018l0.0006 -0.0976z"/>
   <path id="_510942024" class="fil0 str0" d="M211.387 87.6406c27.1534,0.4606 56.5433,-9.8792 93.0162,-30.4711 25.7283,-9.7349 33.0776,4.5275 27.503,14.1085 -9.8431,20.6422 -36.9204,29.9589 -64.1738,25.1809l-50.0608 15.1468c-5.1066,1.7355 -7.8552,1.3735 -12.1461,0.1303l-0.4328 -0.1308 -23.248 -7.0342 -26.4229 -7.9941c-27.2533,4.7779 -54.3306,-4.5387 -64.1738,-25.1809 -5.5746,-9.581 1.7748,-23.8434 27.5031,-14.1085 36.6739,20.6455 66.446,31.1007 92.6378,30.5156l-0.0019 -0.1625z"/>
   <path id="_510941736" class="fil1 str0" d="M155.422 96.5769c-36.7828,8.6146 -85.3909,-21.4037 -58.5703,-41.4823 14.7736,-3.7064 36.2232,23.8836 58.5703,41.4823z"/>
   <path id="_510942336" class="fil2 str1" d="M184.417 16.748c4.353,13.0214 0.6223,22.397 -9.8073,28.7527 -6.325,-7.084 3.7665,-31.3125 9.8073,-28.7527z"/>
   <path id="_510941928" class="fil2 str1" d="M184.417 16.748c4.353,13.0214 0.6223,22.397 -9.8073,28.7527 3.8146,-7.8128 7.2392,-16.8913 9.8073,-28.7527z"/>
   <path id="_510941808" class="fil1 str0" d="M267.733 96.4589c36.7828,8.6146 85.3909,-21.4037 58.5704,-41.4823 -14.7737,-3.7064 -36.2232,23.8836 -58.5704,41.4823z"/>
   <path id="_510941136" class="fil2 str1" d="M247.048 16.748c-4.353,13.0214 -0.6223,22.397 9.8073,28.7527 6.325,-7.084 -3.7666,-31.3125 -9.8073,-28.7527z"/>
   <path id="_510941184" class="fil2 str1" d="M247.048 16.748c-4.353,13.0214 -0.6223,22.397 9.8073,28.7527 -3.8146,-7.8128 -7.2393,-16.8913 -9.8073,-28.7527z"/>
   <path id="_510940968" class="fil2 str0" d="M150.715 59.5314l-2.0898 13.7036c41.4112,19.1942 83.7647,18.9716 127.06,-0.6656l-2.075 -13.2177c-40.8829,18.8194 -81.8484,18.8789 -122.895,0.1797z"/>
  </g>
 </g>
</svg>
