<?xml version="1.0" encoding="UTF-8"?>
<!DOCTYPE svg PUBLIC "-//W3C//DTD SVG 1.1//EN" "http://www.w3.org/Graphics/SVG/1.1/DTD/svg11.dtd">
<!-- Creator: CorelDRAW -->
<svg xmlns="http://www.w3.org/2000/svg" xml:space="preserve" width="420mm" height="420mm" style="shape-rendering:geometricPrecision; text-rendering:geometricPrecision; image-rendering:optimizeQuality; fill-rule:evenodd; clip-rule:evenodd"
viewBox="0 0 420 420">
 <defs>
  <style type="text/css">
   <![CDATA[
    .str0 {stroke:#FFF974;stroke-width:0.3528}
    .fil1 {fill:none}
    .fil0 {fill:#DA251D}
   ]]>
  </style>
 </defs>
 <g id="Capa_x0020_1">
  <metadata id="CorelCorpID_0Corel-Layer"/>
  <g id="_273783272">
   <path id="_217924464" class="fil0 str0" d="M225.85 44.1771l11.7308 -4.2657 10.1311 -3.1993 13.3304 6.9318 14.3969 9.5979 14.3969 10.6644c0,0 1.5997,0.5332 6.3986,11.1976 4.799,10.6643 11.7308,23.4616 12.7972,26.6609 1.0665,3.1993 3.1993,9.0647 4.2658,14.3968 1.0664,5.3322 2.6661,15.9966 2.6661,15.9966 0,0 1.0664,1.0664 1.0664,11.7308 0,10.6643 1.0664,34.6591 1.0664,38.3917 0,3.7325 2.6661,13.3304 1.5997,20.7954 -1.0664,7.4651 2.1329,12.7973 0.5332,22.9284 -1.5996,10.1311 -6.9318,37.8585 -6.9318,37.8585l3.7325 17.0629 -12.7972 3.1994 -5.3322 -7.9983 -6.9318 14.3969 -12.264 -1.5997 -3.1993 -11.1976 -6.3987 12.7973 -15.9965 -5.3322 1.0664 -13.3305 -7.9982 15.4634 -9.5979 -2.1329 -7.9983 -3.1993c0,0 2.6661,-15.9966 5.3322,-17.063 2.6661,-1.0664 8.5315,-24.528 8.5315,-24.528 0,0 5.3321,-19.1958 5.3321,-21.8619 0,-2.6661 4.799,-18.6627 4.799,-18.6627l4.2657 -13.3304 8.5315 -23.9948 5.3322 -19.1958c0,0 2.1329,-16.5298 1.0664,-19.7291 -1.0664,-3.1993 -6.3986,-19.7291 -6.3986,-19.7291l-5.3322 -17.5962 -10.6643 -11.7307 -9.5979 -3.1993 -19.7291 -3.7326 -7.9983 -4.7989 2.6661 -18.6627 10.1312 0z"/>
   <path id="_217924368" class="fil1 str0" d="M237.58 39.9114l12.0842 0.2007 18.0545 12.1592 25.4237 26.1606 7.3692 22.8445c0,0 7.7377,24.3183 8.1061,28.0029 0.3685,3.6846 3.3162,28.0029 3.3162,30.9506 0,2.9477 2.5792,24.6868 2.5792,24.6868l-0.3685 16.9491c0,0 -1.1053,18.7915 -1.4738,21.0022 -0.3685,2.2108 -0.7369,13.633 -0.7369,13.633l-4.0531 15.4753 -1.1053 13.2646 2.5792 9.5799 1.2761 7.7047"/>
   <path id="_217925040" class="fil1 str0" d="M301.567 280.126l-3.2652 -16.359c0,0 3.3161,-19.5283 3.6846,-21.7391 0.3684,-2.2108 2.9477,-20.6337 2.9477,-24.3183 0,-3.6846 1.1053,-14.0015 1.4738,-17.3176 0.3685,-3.3162 2.2107,-20.2653 2.2107,-20.2653 0,0 -1.4738,-30.2137 -2.9476,-34.6352 -1.4739,-4.4215 -5.1585,-20.2653 -5.1585,-20.2653l-7.7376 -20.2652c0,0 -2.5792,-7.7377 -2.9477,-10.3169 -0.3684,-2.5792 -5.8953,-13.633 -5.8953,-13.633l-7.7377 -11.7907 -7.3692 -8.1061 -10.3168 -6.6323 -8.8431 -6.2638 -12.0842 -8.3068"/>
   <path id="_217925016" class="fil1 str0" d="M229.699 42.7782l11.8596 6.1769 15.1069 9.9484 9.5799 11.4223c0,0 7.3692,9.2115 7.7377,11.0538 0.3684,1.8423 8.1061,15.4753 8.843,19.1599 0.7369,3.6846 9.2115,16.5806 9.2115,16.5806l6.2638 23.9499 4.4215 15.1068c0,0 1.8423,17.3176 0.7369,21.3707 -1.1054,4.053 -5.1584,23.2129 -5.1584,23.2129l0.7369 24.6868 -3.6846 18.7915c0,0 -3.6846,13.633 -4.79,15.8437 -1.1053,2.2108 -2.2107,16.5807 -2.2107,16.5807l-2.5163 13.0608"/>
   <polyline id="_273786296" class="fil1 str0" points="220.784,44.1771 239.869,52.9543 253.882,62.7207 263.648,73.761 270.017,87.7737 276.812,103.485 287.427,119.196 289.126,130.661 291.673,146.372 295.071,155.714 297.618,168.878 295.495,186.712 292.098,199.875 290.824,213.463 290.824,229.174 285.304,244.886 281.483,258.049 276.505,277.726 "/>
   <path id="_273786536" class="fil1 str0" d="M214.964 49.4576l9.6181 4.3459 9.3418 4.6709 9.7664 7.2187 14.4374 10.6157 8.9171 15.7112 15.0747 19.3209 0.2119 16.7724c0,0 13.1634,17.4097 9.3418,18.2589 -3.8216,0.8493 -0.4246,27.1762 -0.4246,27.1762l-1.6985 16.1358 -4.6709 23.3545 -2.9724 16.9851c0,0 -5.5202,11.8895 -5.9448,14.4373 -0.4246,2.5477 -3.8216,21.2313 -3.8216,21.2313l-6.7941 13.5881 -3.2382 8.5772"/>
   <polyline id="_273786512" class="fil1 str0" points="213.759,57.8993 230.915,69.505 250.378,74.5706 262.081,89.7291 273.839,113.251 278.935,136.181 283.181,147.646 284.455,168.028 284.03,179.918 282.332,194.355 277.661,215.162 272.141,230.873 265.771,247.858 261.95,259.323 255.177,271.861 "/>
   <path id="_273786176" class="fil1 str0" d="M272.287 138.318l2.401 10.1776 1.3585 12.723c0,0 2.4632,11.9053 0.7647,16.5762 -1.6986,4.6709 -4.2463,19.9575 -4.2463,19.9575l-2.5478 18.259 -7.2186 16.9851 -5.5202 18.2589 -7.2187 15.7112 -7.6807 19.2917"/>
   <polyline id="_273786128" class="fil1 str0" points="268.447,155.089 266.756,166.251 267.045,172.274 266.196,195.629 264.497,206.245 256.854,227.476 253.882,240.215 247.512,254.652 236.047,275.884 233.581,283.592 "/>
   <polyline id="_273785576" class="fil1 str0" points="256.392,191.082 255.58,208.792 251.014,219.341 243.446,240.401 "/>
   <path id="_273785360" class="fil0 str0" d="M193.756 44.1771l-11.7307 -4.2657 -10.1312 -3.1993 -13.3304 6.9318 -14.3969 9.5979 -14.3969 10.6644c0,0 -1.5996,0.5332 -6.3986,11.1976 -4.799,10.6643 -11.7308,23.4616 -12.7972,26.6609 -1.0665,3.1993 -3.1993,9.0647 -4.2658,14.3968 -1.0664,5.3322 -2.6661,15.9966 -2.6661,15.9966 0,0 -1.0664,1.0664 -1.0664,11.7308 0,10.6643 -1.0664,34.6591 -1.0664,38.3917 0,3.7325 -2.6661,13.3304 -1.5997,20.7954 1.0664,7.4651 -2.1329,12.7973 -0.5332,22.9284 1.5996,10.1311 6.9318,37.8585 6.9318,37.8585l-3.7325 17.0629 12.7972 3.1994 5.3322 -7.9983 6.9318 14.3969 12.264 -1.5997 3.1994 -11.1976 6.3986 12.7973 15.9965 -5.3322 -1.0664 -13.3305 7.9982 15.4634 9.598 -2.1329 7.9982 -3.1993c0,0 -2.6661,-15.9966 -5.3322,-17.063 -2.666,-1.0664 -8.5314,-24.528 -8.5314,-24.528 0,0 -5.3322,-19.1958 -5.3322,-21.8619 0,-2.6661 -4.799,-18.6627 -4.799,-18.6627l-4.2657 -13.3304 -8.5315 -23.9948 -5.3322 -19.1958c0,0 -2.1329,-16.5298 -1.0664,-19.7291 1.0664,-3.1993 6.3986,-19.7291 6.3986,-19.7291l5.3322 -17.5962 10.6643 -11.7307 9.5979 -3.1993 19.7291 -3.7326 7.9983 -4.7989 -2.6661 -18.6627 -10.1312 0z"/>
   <path id="_273785072" class="fil1 str0" d="M182.025 39.9114l-12.0843 0.2007 -18.0545 12.1592 -25.4237 26.1606 -7.3692 22.8445c0,0 -7.7377,24.3183 -8.1061,28.0029 -0.3685,3.6846 -3.3162,28.0029 -3.3162,30.9506 0,2.9477 -2.5792,24.6868 -2.5792,24.6868l0.3685 16.9491c0,0 1.1053,18.7915 1.4738,21.0022 0.3685,2.2108 0.7369,13.633 0.7369,13.633l4.0531 15.4753 1.1054 13.2646 -2.5793 9.5799 -1.2761 7.7047"/>
   <path id="_273785744" class="fil1 str0" d="M118.039 280.126l3.2652 -16.359c0,0 -3.3161,-19.5283 -3.6846,-21.7391 -0.3684,-2.2108 -2.9476,-20.6337 -2.9476,-24.3183 0,-3.6846 -1.1054,-14.0015 -1.4739,-17.3176 -0.3684,-3.3162 -2.2107,-20.2653 -2.2107,-20.2653 0,0 1.4738,-30.2137 2.9476,-34.6352 1.4739,-4.4215 5.1585,-20.2653 5.1585,-20.2653l7.7376 -20.2652c0,0 2.5792,-7.7377 2.9477,-10.3169 0.3685,-2.5792 5.8953,-13.633 5.8953,-13.633l7.7377 -11.7907 7.3692 -8.1061 10.3169 -6.6323 8.843 -6.2638 12.0843 -8.3068"/>
   <path id="_273785624" class="fil1 str0" d="M189.907 42.7782l-11.8596 6.1769 -15.1069 9.9484 -9.5799 11.4223c0,0 -7.3692,9.2115 -7.7376,11.0538 -0.3685,1.8423 -8.1062,15.4753 -8.8431,19.1599 -0.7369,3.6846 -9.2115,16.5806 -9.2115,16.5806l-6.2638 23.9499 -4.4215 15.1068c0,0 -1.8423,17.3176 -0.7369,21.3707 1.1054,4.053 5.1584,23.2129 5.1584,23.2129l-0.7369 24.6868 3.6846 18.7915c0,0 3.6846,13.633 4.79,15.8437 1.1054,2.2108 2.2107,16.5807 2.2107,16.5807l2.5163 13.0608"/>
   <polyline id="_273785648" class="fil1 str0" points="198.822,44.1771 179.737,52.9543 165.724,62.7207 155.958,73.761 149.588,87.7737 142.794,103.485 132.178,119.196 130.48,130.661 127.932,146.372 124.535,155.714 121.987,168.878 124.111,186.712 127.508,199.875 128.781,213.463 128.781,229.174 134.302,244.886 138.123,258.049 143.101,277.726 "/>
   <path id="_273785096" class="fil1 str0" d="M204.641 49.4576l-9.6181 4.3459 -9.3418 4.6709 -9.7664 7.2187 -14.4374 10.6157 -8.9171 15.7112 -15.0747 19.3209 -0.2119 16.7724c0,0 -13.1634,17.4097 -9.3418,18.2589 3.8216,0.8493 0.4246,27.1762 0.4246,27.1762l1.6985 16.1358 4.6709 23.3545 2.9724 16.9851c0,0 5.5202,11.8895 5.9448,14.4373 0.4246,2.5477 3.8216,21.2313 3.8216,21.2313l6.7941 13.5881 3.2382 8.5772"/>
   <polyline id="_273785144" class="fil1 str0" points="205.847,57.8993 188.691,69.505 169.228,74.5706 157.525,89.7291 145.767,113.251 140.671,136.181 136.425,147.646 135.151,168.028 135.575,179.918 137.274,194.355 141.945,215.162 147.465,230.873 153.834,247.858 157.656,259.323 164.429,271.861 "/>
   <path id="_273784232" class="fil1 str0" d="M147.318 138.318l-2.401 10.1776 -1.3585 12.723c0,0 -2.4632,11.9053 -0.7646,16.5762 1.6985,4.6709 4.2462,19.9575 4.2462,19.9575l2.5478 18.259 7.2186 16.9851 5.5202 18.2589 7.2187 15.7112 7.6807 19.2917"/>
   <polyline id="_273784016" class="fil1 str0" points="151.159,155.089 152.85,166.251 152.561,172.274 153.41,195.629 155.108,206.245 162.752,227.476 165.724,240.215 172.093,254.652 183.558,275.884 186.024,283.592 "/>
   <polyline id="_273783080" class="fil1 str0" points="163.214,191.082 164.025,208.792 168.592,219.341 176.16,240.401 "/>
  </g>
 </g>
</svg>
