<?xml version="1.0" encoding="UTF-8"?>
<!DOCTYPE svg PUBLIC "-//W3C//DTD SVG 1.1//EN" "http://www.w3.org/Graphics/SVG/1.1/DTD/svg11.dtd">
<!-- Creator: CorelDRAW -->
<svg xmlns="http://www.w3.org/2000/svg" xml:space="preserve" width="420mm" height="420mm" style="shape-rendering:geometricPrecision; text-rendering:geometricPrecision; image-rendering:optimizeQuality; fill-rule:evenodd; clip-rule:evenodd"
viewBox="0 0 420 420">
 <defs>
  <style type="text/css">
   <![CDATA[
    .str0 {stroke:#DA251D;stroke-width:0.3528}
    .fil1 {fill:none}
    .fil0 {fill:#33FF99}
   ]]>
  </style>
 </defs>
 <g id="Capa_x0020_1">
  <metadata id="CorelCorpID_0Corel-Layer"/>
  <g id="_274014664">
   <path id="_273987928" class="fil0 str0" d="M226.593 42.1736l11.7308 -4.2657 10.1311 -3.1993 13.3305 6.9318 14.3968 9.5979 14.3969 10.6644c0,0 1.5997,0.5332 6.3986,11.1976 4.799,10.6643 11.7308,23.4615 12.7973,26.6608 1.0664,3.1993 3.1993,9.0647 4.2657,14.3969 1.0664,5.3322 2.6661,15.9966 2.6661,15.9966 0,0 1.0664,1.0664 1.0664,11.7307 0,10.6644 1.0665,34.6592 1.0665,38.3917 0,3.7326 2.6661,13.3305 1.5996,20.7955 -1.0664,7.4651 2.1329,12.7972 0.5332,22.9284 -1.5996,10.1311 -6.9318,37.8585 -6.9318,37.8585l3.7325 17.0629 -12.7972 3.1993 -5.3322 -7.9982 -6.9318 14.3968 -12.264 -1.5996 -3.1993 -11.1976 -6.3986 12.7972 -15.9966 -5.3321 1.0665 -13.3305 -7.9983 15.4633 -9.5979 -2.1328 -7.9983 -3.1993c0,0 2.6661,-15.9966 5.3322,-17.063 2.6661,-1.0664 8.5315,-24.528 8.5315,-24.528 0,0 5.3322,-19.1959 5.3322,-21.862 0,-2.6661 4.7989,-18.6626 4.7989,-18.6626l4.2658 -13.3304 8.5314 -23.9948 5.3322 -19.1959c0,0 2.1329,-16.5297 1.0665,-19.729 -1.0665,-3.1993 -6.3987,-19.7291 -6.3987,-19.7291l-5.3321 -17.5962 -10.6644 -11.7308 -9.5979 -3.1993 -19.7291 -3.7325 -7.9982 -4.799 2.6661 -18.6626 10.1311 0z"/>
   <path id="_273987856" class="fil1 str0" d="M238.324 37.9079l12.0843 0.2007 18.0545 12.1591 25.4237 26.1607 7.3692 22.8445c0,0 7.7376,24.3183 8.1061,28.0029 0.3684,3.6846 3.3161,28.0029 3.3161,30.9506 0,2.9477 2.5792,24.6868 2.5792,24.6868l-0.3684 16.9491c0,0 -1.1054,18.7914 -1.4739,21.0022 -0.3684,2.2107 -0.7369,13.633 -0.7369,13.633l-4.053 15.4753 -1.1054 13.2645 2.5792 9.58 1.2761 7.7047"/>
   <path id="_273987496" class="fil1 str0" d="M302.31 278.123l-3.2652 -16.359c0,0 3.3161,-19.5284 3.6846,-21.7391 0.3685,-2.2108 2.9477,-20.6337 2.9477,-24.3183 0,-3.6846 1.1054,-14.0015 1.4738,-17.3176 0.3685,-3.3162 2.2108,-20.2653 2.2108,-20.2653 0,0 -1.4739,-30.2137 -2.9477,-34.6352 -1.4738,-4.4215 -5.1584,-20.2653 -5.1584,-20.2653l-7.7377 -20.2652c0,0 -2.5792,-7.7377 -2.9477,-10.3169 -0.3684,-2.5792 -5.8953,-13.633 -5.8953,-13.633l-7.7377 -11.7907 -7.3692 -8.1061 -10.3168 -6.6323 -8.843 -6.2638 -12.0843 -8.3068"/>
   <path id="_273986584" class="fil1 str0" d="M230.442 40.7747l11.8596 6.1769 15.1069 9.9484 9.5799 11.4223c0,0 7.3692,9.2114 7.7377,11.0537 0.3684,1.8423 8.1061,15.4753 8.843,19.1599 0.7369,3.6846 9.2115,16.5807 9.2115,16.5807l6.2638 23.9499 4.4215 15.1068c0,0 1.8423,17.3176 0.7369,21.3707 -1.1053,4.053 -5.1584,23.2129 -5.1584,23.2129l0.7369 24.6868 -3.6846 18.7914c0,0 -3.6846,13.633 -4.7899,15.8438 -1.1054,2.2108 -2.2108,16.5807 -2.2108,16.5807l-2.5163 13.0608"/>
   <polyline id="_273986800" class="fil1 str0" points="221.527,42.1736 240.612,50.9507 254.625,60.7172 264.391,71.7575 270.761,85.7702 277.555,101.481 288.17,117.193 289.869,128.658 292.417,144.369 295.814,153.711 298.361,166.874 296.238,184.708 292.841,197.872 291.567,211.46 291.567,227.171 286.047,242.882 282.226,256.046 277.248,275.723 "/>
   <path id="_273987232" class="fil1 str0" d="M215.707 47.4541l9.6181 4.3459 9.3418 4.6709 9.7665 7.2187 14.4373 10.6156 8.9172 15.7112 15.0746 19.3209 0.2119 16.7724c0,0 13.1635,17.4097 9.3418,18.259 -3.8216,0.8493 -0.4246,27.1761 -0.4246,27.1761l-1.6985 16.1359 -4.6709 23.3545 -2.9724 16.985c0,0 -5.5201,11.8896 -5.9448,14.4374 -0.4246,2.5477 -3.8216,21.2313 -3.8216,21.2313l-6.7941 13.5881 -3.2382 8.5772"/>
   <polyline id="_273987304" class="fil1 str0" points="214.502,55.8957 231.658,67.5015 251.121,72.567 262.824,87.7255 274.582,111.248 279.678,134.178 283.924,145.643 285.198,166.025 284.773,177.914 283.075,192.352 278.404,213.158 272.884,228.87 266.514,245.855 262.693,257.32 255.92,269.858 "/>
   <path id="_273986824" class="fil1 str0" d="M273.031 136.314l2.4009 10.1775 1.3586 12.7231c0,0 2.4631,11.9053 0.7646,16.5762 -1.6985,4.6709 -4.2463,19.9575 -4.2463,19.9575l-2.5478 18.2589 -7.2186 16.9851 -5.5202 18.259 -7.2186 15.7112 -7.6808 19.2917"/>
   <polyline id="_273986536" class="fil1 str0" points="269.19,153.086 267.499,164.248 267.788,170.271 266.939,193.625 265.241,204.241 257.597,225.473 254.625,238.211 248.255,252.649 236.791,273.88 234.324,281.588 "/>
   <polyline id="_273986392" class="fil1 str0" points="257.135,189.079 256.323,206.789 251.757,217.337 244.189,238.398 "/>
   <path id="_273986200" class="fil0 str0" d="M194.499 42.1736l-11.7308 -4.2657 -10.1312 -3.1993 -13.3304 6.9318 -14.3969 9.5979 -14.3969 10.6644c0,0 -1.5996,0.5332 -6.3986,11.1976 -4.7989,10.6643 -11.7308,23.4615 -12.7972,26.6608 -1.0664,3.1993 -3.1993,9.0647 -4.2658,14.3969 -1.0664,5.3322 -2.666,15.9966 -2.666,15.9966 0,0 -1.0665,1.0664 -1.0665,11.7307 0,10.6644 -1.0664,34.6592 -1.0664,38.3917 0,3.7326 -2.6661,13.3305 -1.5997,20.7955 1.0665,7.4651 -2.1328,12.7972 -0.5332,22.9284 1.5997,10.1311 6.9318,37.8585 6.9318,37.8585l-3.7325 17.0629 12.7973 3.1993 5.3321 -7.9982 6.9319 14.3968 12.264 -1.5996 3.1993 -11.1976 6.3986 12.7972 15.9965 -5.3321 -1.0664 -13.3305 7.9983 15.4633 9.5979 -2.1328 7.9982 -3.1993c0,0 -2.666,-15.9966 -5.3321,-17.063 -2.6661,-1.0664 -8.5315,-24.528 -8.5315,-24.528 0,0 -5.3322,-19.1959 -5.3322,-21.862 0,-2.6661 -4.799,-18.6626 -4.799,-18.6626l-4.2657 -13.3304 -8.5315 -23.9948 -5.3322 -19.1959c0,0 -2.1328,-16.5297 -1.0664,-19.729 1.0664,-3.1993 6.3986,-19.7291 6.3986,-19.7291l5.3322 -17.5962 10.6643 -11.7308 9.598 -3.1993 19.729 -3.7325 7.9983 -4.799 -2.6661 -18.6626 -10.1311 0z"/>
   <path id="_273985912" class="fil1 str0" d="M182.768 37.9079l-12.0843 0.2007 -18.0545 12.1591 -25.4237 26.1607 -7.3692 22.8445c0,0 -7.7377,24.3183 -8.1061,28.0029 -0.3685,3.6846 -3.3162,28.0029 -3.3162,30.9506 0,2.9477 -2.5792,24.6868 -2.5792,24.6868l0.3685 16.9491c0,0 1.1054,18.7914 1.4738,21.0022 0.3685,2.2107 0.7369,13.633 0.7369,13.633l4.0531 15.4753 1.1054 13.2645 -2.5792 9.58 -1.2762 7.7047"/>
   <path id="_273986080" class="fil1 str0" d="M118.782 278.123l3.2653 -16.359c0,0 -3.3162,-19.5284 -3.6846,-21.7391 -0.3685,-2.2108 -2.9477,-20.6337 -2.9477,-24.3183 0,-3.6846 -1.1054,-14.0015 -1.4739,-17.3176 -0.3684,-3.3162 -2.2107,-20.2653 -2.2107,-20.2653 0,0 1.4738,-30.2137 2.9477,-34.6352 1.4738,-4.4215 5.1584,-20.2653 5.1584,-20.2653l7.7376 -20.2652c0,0 2.5793,-7.7377 2.9477,-10.3169 0.3685,-2.5792 5.8954,-13.633 5.8954,-13.633l7.7376 -11.7907 7.3692 -8.1061 10.3169 -6.6323 8.843 -6.2638 12.0843 -8.3068"/>
   <path id="_273985936" class="fil1 str0" d="M190.65 40.7747l-11.8596 6.1769 -15.1068 9.9484 -9.58 11.4223c0,0 -7.3692,9.2114 -7.7376,11.0537 -0.3685,1.8423 -8.1061,15.4753 -8.8431,19.1599 -0.7369,3.6846 -9.2114,16.5807 -9.2114,16.5807l-6.2638 23.9499 -4.4216 15.1068c0,0 -1.8423,17.3176 -0.7369,21.3707 1.1054,4.053 5.1585,23.2129 5.1585,23.2129l-0.737 24.6868 3.6846 18.7914c0,0 3.6846,13.633 4.79,15.8438 1.1054,2.2108 2.2108,16.5807 2.2108,16.5807l2.5163 13.0608"/>
   <polyline id="_273986320" class="fil1 str0" points="199.565,42.1736 180.48,50.9507 166.467,60.7172 156.701,71.7575 150.331,85.7702 143.537,101.481 132.922,117.193 131.223,128.658 128.675,144.369 125.278,153.711 122.73,166.874 124.854,184.708 128.251,197.872 129.525,211.46 129.525,227.171 135.045,242.882 138.866,256.046 143.844,275.723 "/>
   <path id="_274015432" class="fil1 str0" d="M205.385 47.4541l-9.6182 4.3459 -9.3418 4.6709 -9.7664 7.2187 -14.4373 10.6156 -8.9172 15.7112 -15.0746 19.3209 -0.212 16.7724c0,0 -13.1634,17.4097 -9.3418,18.259 3.8217,0.8493 0.4247,27.1761 0.4247,27.1761l1.6985 16.1359 4.6709 23.3545 2.9724 16.985c0,0 5.5201,11.8896 5.9447,14.4374 0.4247,2.5477 3.8217,21.2313 3.8217,21.2313l6.794 13.5881 3.2383 8.5772"/>
   <polyline id="_274015384" class="fil1 str0" points="206.59,55.8957 189.434,67.5015 169.971,72.567 158.268,87.7255 146.51,111.248 141.414,134.178 137.168,145.643 135.894,166.025 136.319,177.914 138.017,192.352 142.688,213.158 148.208,228.87 154.578,245.855 158.399,257.32 165.172,269.858 "/>
   <path id="_274015264" class="fil1 str0" d="M148.061 136.314l-2.401 10.1775 -1.3585 12.7231c0,0 -2.4631,11.9053 -0.7646,16.5762 1.6985,4.6709 4.2462,19.9575 4.2462,19.9575l2.5478 18.2589 7.2187 16.9851 5.5201 18.259 7.2187 15.7112 7.6807 19.2917"/>
   <polyline id="_274015672" class="fil1 str0" points="151.902,153.086 153.593,164.248 153.304,170.271 154.153,193.625 155.851,204.241 163.495,225.473 166.467,238.211 172.837,252.649 184.302,273.88 186.768,281.588 "/>
   <polyline id="_274014688" class="fil1 str0" points="163.957,189.079 164.769,206.789 169.335,217.337 176.903,238.398 "/>
  </g>
 </g>
</svg>
