<?xml version="1.0" encoding="UTF-8"?>
<!DOCTYPE svg PUBLIC "-//W3C//DTD SVG 1.1//EN" "http://www.w3.org/Graphics/SVG/1.1/DTD/svg11.dtd">
<!-- Creator: CorelDRAW -->
<svg xmlns="http://www.w3.org/2000/svg" xml:space="preserve" width="420mm" height="420mm" style="shape-rendering:geometricPrecision; text-rendering:geometricPrecision; image-rendering:optimizeQuality; fill-rule:evenodd; clip-rule:evenodd"
viewBox="0 0 420 420">
 <defs>
  <style type="text/css">
   <![CDATA[
    .str0 {stroke:#1F1A17;stroke-width:0.0762}
    .fil1 {fill:none}
    .fil0 {fill:white}
   ]]>
  </style>
 </defs>
 <g id="Capa_x0020_1">
  <metadata id="CorelCorpID_0Corel-Layer"/>
  <g id="_510943272">
   <g>
    <path id="_510945672" class="fil0 str0" d="M209.371 68.8016c-0.337,1.3482 -5.7974,1.5912 -5.7974,1.5912l-5.5085 0.6655 -6.6646 0.7219 -3.8722 2.1843 -11.12 4.9642 -9.1342 5.3614 -3.7728 -1.9857 6.9499 -3.9714 9.73 -3.5743 6.1556 -3.9714 -5.9571 -1.1914 -5.3613 -0.1986 -9.73 1.39 -5.9571 1.39 -1.9857 -3.9714 8.5385 -2.1842 7.7443 -0.3972 4.1699 -0.1986 -21.8427 0.5958 -7.9428 1.7871 -6.5528 0.7943 0 -4.3686 10.7228 -1.39 8.7371 -0.9928 9.5313 -1.1914 9.3328 -0.5957 -16.0841 -0.5958 -8.1414 0.3972 -9.7299 0.7943 -0.5958 -3.7729 8.9357 -0.1985 13.3042 -1.9857 5.1628 -1.39 -6.5528 -2.5814 -5.9571 -3.1772 -8.7371 -2.9785 -6.7514 -2.78 0 -2.78 7.1486 1.5886 6.3542 2.9785 9.7299 1.9857 8.34 1.7872 -16.0842 -7.3471 -10.3256 -2.9786 -6.5529 -2.1842 -0.7942 -3.1772 14.6941 3.9714 7.1486 2.3829 12.1127 4.3685 -9.7299 -5.5599 -11.1199 -5.3614 -0.7943 -3.5743 5.7585 2.5814 11.9142 5.56 8.34 2.9785 -8.34 -6.1556 -9.7299 -6.5529 1.7871 -2.1842 9.5314 6.1556 8.7371 5.7586 -8.1414 -12.9071 -4.3685 -4.3685 0.9928 -3.1771 3.1771 2.7799 5.1629 6.5528 6.9499 10.1271 -3.1771 -10.5242 -5.3614 -7.7442 -3.3757 -5.3614 -1.39 -3.1771 2.3829 -1.1915 2.1842 3.7729 5.56 6.7514 5.7585 7.347 3.3757 7.7443 -4.3685 -12.1128 -4.7657 -7.5457 1.39 -3.5742 2.78 4.5671 4.1699 4.7657 1.7872 7.9428 0.3971 -6.3543 -1.5885 -4.9642 1.9857 -1.5886 1.9857 8.7371 0.1985 4.9643 0.3972 -11.9142 0.5957 -3.1772 3.1771 0 -1.5886 13.1057 2.5814 5.1628 -0.5957 -6.95 -0.3971 -11.3185 4.5671 -0.5957 -0.9928 9.73 1.1914 7.5456 0.9928 3.7729 0 -12.7085 0.5957 -9.3328 2.3829 0.1985 -0.9929 9.3328 1.39 6.5528 0.7943 7.1486 2.1843 4.9642 0.5957 7.5457 -1.1914 8.7371 -0.9929 6.3542 -1.7871 7.1485z"/>
    <polyline id="_510945840" class="fil1 str0" points="206.654,70.0501 200.492,67.206 193.165,66.3384 186.995,65.9527 180.15,65.6635 "/>
    <polyline id="_510945504" class="fil1 str0" points="208.879,66.242 204.348,64.3138 198.178,62.5785 192.876,61.036 185.742,60.4576 181.114,59.9756 "/>
    <path id="_510945912" class="fil1 str0" d="M206.566 64.121c-0.9641,-0.5784 -4.1455,-1.9281 -4.7239,-2.5065 -0.5784,-0.5785 -10.1226,-4.5311 -10.1226,-4.5311l-9.8334 -0.482 -10.1226 0.0964 -5.4952 0.2892"/>
    <polyline id="_510945168" class="fil1 str0" points="208.687,63.8318 205.987,61.5181 201.745,58.2403 196.347,54.9625 192.008,51.8775 181.982,44.7434 177.258,43.0081 "/>
    <path id="_510945072" class="fil1 str0" d="M206.469 63.157l-5.1095 -3.085 -6.17 -3.8563c0,0 -4.1455,-1.5424 -4.6275,-1.7353 -0.482,-0.1928 -7.5197,-2.5065 -7.5197,-2.5065l-6.8323 -4.6178"/>
    <polyline id="_510945024" class="fil1 str0" points="188.634,55.4445 182.271,53.7092 177.933,52.6487 170.799,50.6242 166.557,49.4673 "/>
    <path id="_510944760" class="fil1 str0" d="M209.651 61.2289c-0.0964,-0.4821 0,-7.7125 0,-7.7125l-1.0605 -6.0736 -0.1928 -6.8448 0 -4.1455 -2.0045 -3.592"/>
    <path id="_510945192" class="fil1 str0" d="M208.108 60.8432l-0.4821 -3.7598c0,0 -2.1209,-4.7239 -2.4101,-5.5915 -0.2892,-0.8677 -0.6748,-4.9167 -0.6748,-4.9167l0.482 -5.4952 -0.1928 -4.3382 -1.5425 -4.1455"/>
    <path id="_510945480" class="fil1 str0" d="M206.18 60.072l-1.7354 -3.7598 -2.1209 -4.2419c0,0 -0.5784,-5.2059 -0.482,-5.7844 0.0964,-0.5784 -0.5784,-6.1699 -0.5784,-6.1699l0 -4.4347 -2.2174 -2.6994 -1.8317 -4.6274"/>
    <polyline id="_510945432" class="fil1 str0" points="203.673,58.7223 200.685,55.3481 197.311,49.7566 198.66,41.8513 197.889,38.4771 194.322,34.1388 "/>
    <polyline id="_510945360" class="fil1 str0" points="186.61,37.3202 190.755,41.6585 194.708,46.0931 196.539,48.5033 "/>
    <polyline id="_510945144" class="fil1 str0" points="182.56,37.1274 185.742,39.5375 189.887,43.3938 192.298,47.25 195.382,50.6242 198.082,54.0948 "/>
    <polyline id="_510945384" class="fil1 str0" points="182.078,40.116 187.67,44.8399 193.84,50.1422 "/>
    <polyline id="_510944904" class="fil1 str0" points="186.224,45.1291 182.271,42.3333 176.776,39.0555 172.437,36.0376 "/>
    <polyline id="_510944808" class="fil1 str0" points="188.538,52.1667 182.368,48.2141 177.402,45.6683 169.064,42.0441 "/>
    <path id="_510945408" class="fil1 str0" d="M181.307 51.3955c-0.0139,-0.6039 -5.8807,-2.4102 -5.8807,-2.4102l-10.4118 -2.6994 -8.4838 -2.8921"/>
    <path id="_510945000" class="fil1 str0" d="M179.283 55.2517c-1.4461,-0.3856 -4.5311,-0.8677 -4.5311,-0.8677l-7.2785 0.3192"/>
    <polyline id="_510945336" class="fil1 str0" points="198.369,43.5591 194.803,40.8861 191.717,36.4943 188.987,30.4408 187.206,25.9304 184.476,22.1321 "/>
    <polyline id="_510945096" class="fil1 str0" points="197.986,45.8039 192.548,42.1918 188.749,37.3252 186.536,35.0447 "/>
   </g>
   <g>
    <path id="_510944712" class="fil0 str0" d="M211.486 68.8016c0.337,1.3482 5.7974,1.5912 5.7974,1.5912l5.5085 0.6655 6.6646 0.7219 3.8722 2.1843 11.12 4.9642 9.1342 5.3614 3.7728 -1.9857 -6.9499 -3.9714 -9.73 -3.5743 -6.1557 -3.9714 5.9571 -1.1914 5.3614 -0.1986 9.73 1.39 5.9571 1.39 1.9857 -3.9714 -8.5385 -2.1842 -7.7443 -0.3972 -4.1699 -0.1986 21.8427 0.5958 7.9428 1.7871 6.5528 0.7943 0 -4.3686 -10.7228 -1.39 -8.7371 -0.9928 -9.5313 -1.1914 -9.3328 -0.5957 16.0841 -0.5958 8.1414 0.3972 9.7299 0.7943 0.5958 -3.7729 -8.9357 -0.1985 -13.3042 -1.9857 -5.1628 -1.39 6.5528 -2.5814 5.9571 -3.1772 8.7371 -2.9785 6.7514 -2.78 0 -2.78 -7.1486 1.5886 -6.3542 2.9785 -9.7299 1.9857 -8.34 1.7872 16.0842 -7.3471 10.3256 -2.9786 6.5529 -2.1842 0.7942 -3.1772 -14.6942 3.9714 -7.1485 2.3829 -12.1127 4.3685 9.7299 -5.5599 11.1199 -5.3614 0.7943 -3.5743 -5.7585 2.5814 -11.9142 5.56 -8.34 2.9785 8.34 -6.1556 9.7299 -6.5529 -1.7871 -2.1842 -9.5314 6.1556 -8.7371 5.7586 8.1414 -12.9071 4.3685 -4.3685 -0.9928 -3.1771 -3.1771 2.7799 -5.1629 6.5528 -6.9499 10.1271 3.1771 -10.5242 5.3614 -7.7442 3.3757 -5.3614 1.39 -3.1771 -2.3829 -1.1915 -2.1842 3.7729 -5.56 6.7514 -5.7585 7.347 -3.3757 7.7443 4.3685 -12.1128 4.7657 -7.5457 -1.39 -3.5742 -2.78 4.5671 -4.1699 4.7657 -1.7872 7.9428 -0.3971 -6.3543 1.5885 -4.9642 -1.9857 -1.5886 -1.9857 8.7371 -0.1985 4.9643 -0.3972 -11.9142 -0.5957 -3.1772 -3.1771 0 1.5886 13.1057 -2.5814 5.1628 0.5957 -6.95 0.3971 -11.3185 -4.5671 -0.5957 0.9928 9.73 -1.1914 7.5456 -0.9928 3.7729 0 -12.7085 -0.5957 -9.3328 -2.3829 0.1985 0.9929 9.3328 -1.39 6.5528 -0.7943 7.1486 -2.1843 4.9642 -0.5957 7.5457 1.1914 8.7371 0.9929 6.3542 1.7871 7.1485z"/>
    <polyline id="_510944016" class="fil1 str0" points="214.203,70.0501 220.365,67.206 227.692,66.3384 233.862,65.9527 240.707,65.6635 "/>
    <polyline id="_510944160" class="fil1 str0" points="211.978,66.242 216.509,64.3138 222.679,62.5785 227.981,61.036 235.115,60.4576 239.743,59.9756 "/>
    <path id="_510944640" class="fil1 str0" d="M214.291 64.121c0.9641,-0.5784 4.1455,-1.9281 4.7239,-2.5065 0.5784,-0.5785 10.1226,-4.5311 10.1226,-4.5311l9.8334 -0.482 10.1226 0.0964 5.4952 0.2892"/>
    <polyline id="_510944304" class="fil1 str0" points="212.171,63.8318 214.87,61.5181 219.112,58.2403 224.51,54.9625 228.849,51.8775 238.875,44.7434 243.599,43.0081 "/>
    <path id="_510944616" class="fil1 str0" d="M214.388 63.157l5.1095 -3.085 6.17 -3.8563c0,0 4.1455,-1.5424 4.6275,-1.7353 0.482,-0.1928 7.5197,-2.5065 7.5197,-2.5065l6.8323 -4.6178"/>
    <polyline id="_510944424" class="fil1 str0" points="232.223,55.4445 238.586,53.7092 242.924,52.6487 250.058,50.6242 254.3,49.4673 "/>
    <path id="_510944400" class="fil1 str0" d="M211.206 61.2289c0.0964,-0.4821 0,-7.7125 0,-7.7125l1.0605 -6.0736 0.1928 -6.8448 0 -4.1455 2.0045 -3.592"/>
    <path id="_510944112" class="fil1 str0" d="M212.749 60.8432l0.4821 -3.7598c0,0 2.1209,-4.7239 2.4101,-5.5915 0.2892,-0.8677 0.6748,-4.9167 0.6748,-4.9167l-0.482 -5.4952 0.1928 -4.3382 1.5425 -4.1455"/>
    <path id="_510944592" class="fil1 str0" d="M214.677 60.072l1.7353 -3.7598 2.121 -4.2419c0,0 0.5784,-5.2059 0.482,-5.7844 -0.0964,-0.5784 0.5784,-6.1699 0.5784,-6.1699l0 -4.4347 2.2174 -2.6994 1.8317 -4.6274"/>
    <polyline id="_510944352" class="fil1 str0" points="217.184,58.7223 220.172,55.3481 223.546,49.7566 222.197,41.8513 222.968,38.4771 226.535,34.1388 "/>
    <polyline id="_510944328" class="fil1 str0" points="234.247,37.3202 230.102,41.6585 226.149,46.0931 224.318,48.5033 "/>
    <polyline id="_510944256" class="fil1 str0" points="238.297,37.1274 235.115,39.5375 230.97,43.3938 228.56,47.25 225.475,50.6242 222.775,54.0948 "/>
    <polyline id="_510944664" class="fil1 str0" points="238.779,40.116 233.187,44.8399 227.017,50.1422 "/>
    <polyline id="_510944064" class="fil1 str0" points="234.633,45.1291 238.586,42.3333 244.081,39.0555 248.42,36.0376 "/>
    <polyline id="_510943752" class="fil1 str0" points="232.319,52.1667 238.489,48.2141 243.455,45.6683 251.793,42.0441 "/>
    <path id="_510943632" class="fil1 str0" d="M239.55 51.3955c0.0139,-0.6039 5.8807,-2.4102 5.8807,-2.4102l10.4118 -2.6994 8.4838 -2.8921"/>
    <path id="_510943584" class="fil1 str0" d="M241.574 55.2517c1.4461,-0.3856 4.5311,-0.8677 4.5311,-0.8677l7.2785 0.3192"/>
    <polyline id="_510943344" class="fil1 str0" points="222.488,43.5591 226.054,40.8861 229.14,36.4943 231.87,30.4408 233.651,25.9304 236.381,22.1321 "/>
    <polyline id="_510943392" class="fil1 str0" points="222.872,45.8039 228.309,42.1918 232.108,37.3252 234.321,35.0447 "/>
   </g>
  </g>
 </g>
</svg>
