<?xml version="1.0" encoding="UTF-8"?>
<!DOCTYPE svg PUBLIC "-//W3C//DTD SVG 1.1//EN" "http://www.w3.org/Graphics/SVG/1.1/DTD/svg11.dtd">
<!-- Creator: CorelDRAW -->
<svg xmlns="http://www.w3.org/2000/svg" xml:space="preserve" width="215.9mm" height="279.4mm" style="shape-rendering:geometricPrecision; text-rendering:geometricPrecision; image-rendering:optimizeQuality; fill-rule:evenodd; clip-rule:evenodd"
viewBox="0 0 215.9 279.4">
 <defs>
  <style type="text/css">
   <![CDATA[
    .str4 {stroke:#1F1A17;stroke-width:0.0762}
    .str3 {stroke:#660099;stroke-width:0.7056}
    .str0 {stroke:#1F1A17;stroke-width:1.4111}
    .str1 {stroke:#1F1A17;stroke-width:1.4111;stroke-linejoin:bevel}
    .str2 {stroke:#660099;stroke-width:1.4111}
    .fil2 {fill:none}
    .fil4 {fill:#6600FF}
    .fil1 {fill:#FFCC99}
    .fil0 {fill:#F57D00}
    .fil3 {fill:#6600FF;fill-rule:nonzero}
    .fil5 {fill:#990033;fill-rule:nonzero}
   ]]>
  </style>
 </defs>
 <g id="base" visibility="hidden">
  <metadata id="CorelCorpID_0Corel-Layer"/>
  <rect class="fil0" x="5" y="4.4" width="205" height="270" rx="33.8081" ry="33.8081"/>
 </g>
 <g id="brazo" visibility="hidden">
  <metadata id="CorelCorpID_1Corel-Layer"/>
  <path class="fil1 str0" d="M70.919 234.284c25.702,4.9426 50.8507,5.7824 75.8014,0l4.0057 34.6912c-28.8691,4.036 -56.8668,4.2963 -83.8128,0l4.0057 -34.6912z"/>
  <polyline class="fil2 str1" points="70.791,266.241 94.3462,264.318 72.2332,259.751 95.0673,258.069 73.1946,253.502 95.3077,251.339 73.1946,247.493 95.7884,245.81 "/>
 </g>
 <g id="cuerpo">
  <metadata id="CorelCorpID_2Corel-Layer"/>
  <g id="_382262024">
   <path id="_382262936" class="fil3 str2" d="M70.6786 174.447l75.8014 0 4.0057 54.6707 -83.8128 0 4.0057 -54.6707zm37.9007 0m39.9036 27.3354m-39.9036 27.3353m-39.9035 -27.3353"/>
   <path id="_382262768" class="fil4 str2" d="M71.6802 179.161c-21.8188,-23.4414 -29.309,-47.3512 -22.4706,-71.7295 -4.6036,-16.2591 3.1753,-27.2943 17.9001,-35.3986 24.7874,-24.3438 53.1362,-26.007 85.784,-0.2972 15.5624,9.5166 26.1204,19.8296 16.566,39.2206 7.3324,19.1299 -7.2887,80.8842 -51.69,68.2047 -4.6313,2.8305 -27.4348,8.6136 -46.0895,0z"/>
   <path id="_382262576" class="fil4 str3" d="M69.4898 204.206c-1.0973,-1.0088 -2.1259,-0.3883 -3.0537,2.6133l-0.6877 28.5375 2.6739 1.9002c35.1501,11.325 58.1678,10.9079 81.3497,-0.8787l2.3345 -3.9471 -1.0964 -26.7917c-0.4588,-1.9089 -3.297,-1.4837 -4.3668,-1.4658 -25.574,11.4518 -49.5376,8.779 -77.1535,0.0323z"/>
   <line id="_382262552" class="fil2 str3" x1="70.9429" y1="206.698" x2="69.0127" y2= "235.932" />
   <line id="_382262720" class="fil2 str3" x1="76.1817" y1="209.174" x2="74.7812" y2= "238.017" />
   <line id="_382262624" class="fil2 str3" x1="81.4222" y1="210.15" x2="80.8949" y2= "239.384" />
   <line id="_382263008" class="fil2 str3" x1="86.6593" y1="211.651" x2="86.7117" y2= "241.338" />
   <line id="_382263104" class="fil2 str3" x1="91.8996" y1="212.519" x2="91.9515" y2= "241.957" />
   <line id="_382263224" class="fil2 str3" x1="97.1384" y1="212.518" x2="97.1922" y2= "243.022" />
   <line id="_382262144" class="fil2 str3" x1="144.341" y1="206.698" x2="144.288" y2= "237.107" />
   <line id="_382261976" class="fil2 str3" x1="139.103" y1="209.174" x2="139.05" y2= "238.921" />
   <line id="_382262312" class="fil2 str3" x1="133.861" y1="210.693" x2="133.809" y2= "240.545" />
   <line id="_382261784" class="fil2 str3" x1="128.625" y1="211.651" x2="128.572" y2= "241.819" />
   <line id="_382261736" class="fil2 str3" x1="123.383" y1="213.385" x2="123.331" y2= "243.022" />
   <line id="_382262192" class="fil2 str3" x1="118.148" y1="212.934" x2="118.097" y2= "242.912" />
   <line id="_382262288" class="fil2 str3" x1="102.376" y1="212.934" x2="102.427" y2= "243.333" />
   <line id="_382262000" class="fil2 str3" x1="107.614" y1="214.127" x2="107.667" y2= "243.694" />
   <line id="_382262240" class="fil2 str3" x1="112.853" y1="214.127" x2="112.905" y2= "243.453" />
   <line id="_382261880" class="fil2 str3" x1="148.297" y1="205.718" x2="149.526" y2= "235.051" />
   <path id="_382261856" class="fil5 str4" d="M87.4036 96.8204c0.0501,-0.2003 0.1002,-0.3004 0.2004,-0.3004 0.1105,0 0.2002,0.1794 0.2002,0.4005 0,0.4006 -0.2002,0.8011 -0.4006,1.2016 -0.2002,-0.4005 -0.4004,-0.801 -0.4004,-1.2016 0,-0.2211 0.0896,-0.4005 0.2002,-0.4005 0.1001,0 0.1502,0.1001 0.2002,0.3004zm0.0814 -0.2254m0.2605 0.0423m-0.0665 0.884m-0.5507 0m-0.0665 -0.884m0.2605 -0.0423"/>
  </g>
 </g>
</svg>
