<?xml version="1.0" encoding="UTF-8"?>
<!DOCTYPE svg PUBLIC "-//W3C//DTD SVG 1.1//EN" "http://www.w3.org/Graphics/SVG/1.1/DTD/svg11.dtd">
<!-- Creator: CorelDRAW -->
<svg xmlns="http://www.w3.org/2000/svg" xml:space="preserve" width="250mm" height="250mm" style="shape-rendering:geometricPrecision; text-rendering:geometricPrecision; image-rendering:optimizeQuality; fill-rule:evenodd; clip-rule:evenodd"
viewBox="0 0 250 250">
 <defs>
  <style type="text/css">
   <![CDATA[
    .str6 {stroke:#1F1A17;stroke-width:0.0762}
    .str4 {stroke:#EBAD14;stroke-width:0.0762}
    .str5 {stroke:#1F1A17;stroke-width:1.4111}
    .str2 {stroke:#FFF500;stroke-width:2.8222}
    .str0 {stroke:yellow;stroke-width:5.6444}
    .str1 {stroke:#E6B012;stroke-width:5.6444}
    .str3 {stroke:#EBAD14;stroke-width:5.6444}
    .fil3 {fill:none;fill-rule:nonzero}
    .fil5 {fill:#0A0B0C}
    .fil10 {fill:white}
    .fil8 {fill:black}
    .fil11 {fill:#CC0000}
    .fil9 {fill:white}
    .fil7 {fill:#DE8703}
    .fil6 {fill:#EDBD3D}
    .fil0 {fill:#F7E017}
    .fil1 {fill:#FCBD30}
    .fil4 {fill:#1F1A17;fill-rule:nonzero}
    .fil2 {fill:#AB7305;fill-rule:nonzero}
   ]]>
  </style>
 </defs>
 <g id="Capa_x0020_1">
  <metadata id="CorelCorpID_0Corel-Layer"/>
  <ellipse class="fil0 str0" cx="125.107" cy="124.481" rx="115.322" ry="115.322"/>
  <ellipse class="fil1 str1" cx="125.107" cy="124.481" rx="89.5837" ry="89.5838"/>
  <path class="fil2" d="M72.7422 110.683c4.7209,0 8.4236,0.6908 11.1233,2.0656 2.0443,1.5474 3.0701,3.3504 3.0701,5.4021 0,2.7632 -1.4733,5.7268 -4.4277,8.8838 -1.3113,0.8359 -3.5638,0.5734 -6.7572,-0.7875 -5.8934,-0.9326 -10.4368,0.2349 -13.6457,3.5024 -0.7714,1.9688 0.0539,2.7563 2.4838,2.3695 2.0441,0 5.2454,-0.4767 9.5805,-1.4231 6.7496,-0.9119 11.9564,-0.5457 15.6127,1.1191 4.1886,2.86 6.1942,6.4038 6.0167,10.6454 -0.077,2.9912 -1.1107,6.1827 -3.1008,9.5677 -1.9594,2.5767 -4.1115,4.7942 -6.4642,6.6387 -4.5743,3.3504 -12.6815,6.4729 -24.3138,9.3743 -3.1319,0.525 -5.6157,0.7875 -7.4594,0.7875 -4.6359,0 -8.269,-0.5803 -10.8918,-1.7408 -2.9081,-1.4438 -4.3583,-3.461 -4.3583,-6.0515 0,-2.632 0.27,-4.9048 0.81,-6.8183 0.3008,-1.7547 1.211,-3.8755 2.7384,-6.3555 1.3961,-1.5957 2.5841,-2.3902 3.5483,-2.3902 1.0105,-0.1865 5.0295,0.3385 12.0643,1.582 5.0604,0.4559 9.9124,-0.0691 14.556,-1.582 5.5771,-2.3487 8.2923,-4.1448 8.1612,-5.4021 0,-1.1053 -1.2496,-1.4783 -3.7335,-1.1122 -2.7846,0.3247 -7.5749,1.3816 -14.3708,3.1777 -2.3989,0.525 -4.7594,0.7875 -7.0967,0.7875 -3.5252,0.2004 -6.225,-0.7806 -8.0918,-2.9566 -1.5658,-2.5491 -2.4143,-5.5334 -2.5531,-8.946 0,-6.9496 3.4249,-12.2481 10.2824,-15.9025 1.1571,-1.0707 4.1808,-2.2313 9.0637,-3.4816 3.1781,-0.6356 5.8934,-0.9534 8.1534,-0.9534z"/>
  <path class="fil2" d="M114.011 130.537c5.7082,0.6079 9.5574,3.7787 11.5475,9.5125 1.4888,7.3364 1.1879,13.6435 -0.9025,18.9213 -2.669,5.3123 -6.3715,7.8476 -11.1001,7.585 -5.7236,-0.2901 -9.9971,-3.8201 -12.8127,-10.5832 -1.8358,-8.041 -1.2496,-14.3619 1.7665,-18.9627 3.2784,-4.131 7.1122,-6.2864 11.5013,-6.4729zm-0.8639 13.8784c-1.7434,0.7322 -2.6228,2.6734 -2.6382,5.8304 0.1621,3.0258 1.3963,4.6215 3.7027,4.7942 2.2446,-0.2556 3.394,-2.3487 3.4326,-6.2932 -0.5554,-3.1709 -2.0519,-4.6146 -4.4971,-4.3314z"/>
  <path class="fil2" d="M152.426 112.97c3.6486,-0.1934 6.3716,0.2004 8.1611,1.1744 1.0568,0.7806 1.6431,1.8928 1.7665,3.3366 0.2237,2.7287 -0.2931,5.9824 -1.5427,9.775 -0.9026,3.2122 -2.1059,4.8702 -3.6101,4.9807l-1.8822 -0.3661c-4.5048,-0.4836 -8.4929,0.7184 -11.9718,3.6198 -2.021,2.0794 -2.9313,4.3176 -2.7383,6.7216 0.3933,2.7149 2.1212,4.3383 5.1759,4.8771 2.3681,0.0691 4.8982,-1.3056 7.5904,-4.131l0.4782 -0.0138c1.1879,0.0898 2.4993,2.4247 3.934,6.9979l-0.0231 0.4075c-1.4193,2.8462 -3.3092,5.112 -5.6774,6.7976 -3.6563,2.9429 -7.4746,4.4005 -11.4549,4.3728 -3.5406,0.0415 -6.7342,-2.3073 -9.5806,-7.0462 -1.2033,-2.6804 -1.9825,-6.0653 -2.3295,-10.1549 -0.2084,-4.214 0.4859,-8.345 2.0827,-12.407 1.3267,-3.3228 2.8155,-6.01 4.474,-8.0755 5.2839,-6.4798 11.0075,-10.0997 17.1478,-10.8665z"/>
  <path class="fil2" d="M180.928 101.613c4.4277,0 7.0967,3.0188 7.9992,9.0634 0.5862,13.7679 0.9411,21.9747 1.0567,24.6343 0.031,0.2142 0.1544,0.3247 0.3626,0.3247 0.5477,-0.2418 2.1445,-1.7823 4.7904,-4.6146 2.7152,-4.0205 4.6668,-6.7216 5.8547,-8.0963 0.6634,-0.6356 1.373,-0.9533 2.1289,-0.9533 1.8668,0 4.0575,1.8513 6.5722,5.5472 0.7869,1.7961 1.2496,3.3849 1.4039,4.7735 0,2.7149 -1.2342,4.5179 -3.7103,5.409 -4.3969,1.3056 -8.4388,3.2606 -12.1338,5.865 1.8667,-0.7944 4.1346,-1.3195 6.8036,-1.5751l1.4193 0c3.7103,0 6.2482,1.3195 7.6212,3.9653 0.4475,1.0638 0.6326,2.0793 0.54,3.0326 -0.4628,2.9843 -2.5378,6.9565 -6.2174,11.9234l-1.2419 1.5751 0 0.1658c3.6641,-0.9603 5.9166,-1.4369 6.7573,-1.4369 1.0106,0.0967 1.4271,0.6839 1.2419,1.7616 -0.6865,4.2208 -2.4683,7.6058 -5.3302,10.1549 -3.5406,2.9428 -7.4438,4.3244 -11.7094,4.1517 -1.9671,-0.1589 -3.5639,-1.1467 -4.7904,-2.9566 -0.4011,-0.9257 -0.4628,-1.9067 -0.1774,-2.9291 0,-1.8375 1.2959,-4.808 3.8878,-8.9114 2.6612,-4.7735 3.9108,-7.896 3.7257,-9.3674 -0.7483,-0.9602 -1.751,-1.4369 -3.0006,-1.4369 -3.7875,0.4559 -5.6774,0.9395 -5.6774,1.4369 -0.725,8.0963 -1.6122,13.9267 -2.669,17.4844 -1.7896,4.6561 -3.7411,6.9841 -5.847,6.9841 -2.8079,0 -6.0553,-0.8981 -9.7657,-2.6942 -1.2958,-0.6424 -2.2446,-1.8652 -2.8464,-3.6613l-0.1851 -0.7875c2.5764,-8.566 3.88,-17.9472 3.9109,-28.1298 0,-8.4486 -1.1802,-16.8212 -3.5484,-25.1178 -0.7019,-1.8376 -1.1801,-3.6406 -1.4193,-5.4022 0,-2.9014 3.0161,-5.713 9.0637,-8.4209 1.9439,-1.0155 3.6487,-1.6027 5.1297,-1.7616z"/>
  <path class="fil3 str2" d="M72.7422 110.683c4.7209,0 8.4236,0.6908 11.1233,2.0656 2.0443,1.5474 3.0701,3.3504 3.0701,5.4021 0,2.7632 -1.4733,5.7268 -4.4277,8.8838 -1.3113,0.8359 -3.5638,0.5734 -6.7572,-0.7875 -5.8934,-0.9326 -10.4368,0.2349 -13.6457,3.5024 -0.7714,1.9688 0.0539,2.7563 2.4838,2.3695 2.0441,0 5.2454,-0.4767 9.5805,-1.4231 6.7496,-0.9119 11.9564,-0.5457 15.6127,1.1191 4.1886,2.86 6.1942,6.4038 6.0167,10.6454 -0.077,2.9912 -1.1107,6.1827 -3.1008,9.5677 -1.9594,2.5767 -4.1115,4.7942 -6.4642,6.6387 -4.5743,3.3504 -12.6815,6.4729 -24.3138,9.3743 -3.1319,0.525 -5.6157,0.7875 -7.4594,0.7875 -4.6359,0 -8.269,-0.5803 -10.8918,-1.7408 -2.9081,-1.4438 -4.3583,-3.461 -4.3583,-6.0515 0,-2.632 0.27,-4.9048 0.81,-6.8183 0.3008,-1.7547 1.211,-3.8755 2.7384,-6.3555 1.3961,-1.5957 2.5841,-2.3902 3.5483,-2.3902 1.0105,-0.1865 5.0295,0.3385 12.0643,1.582 5.0604,0.4559 9.9124,-0.0691 14.556,-1.582 5.5771,-2.3487 8.2923,-4.1448 8.1612,-5.4021 0,-1.1053 -1.2496,-1.4783 -3.7335,-1.1122 -2.7846,0.3247 -7.5749,1.3816 -14.3708,3.1777 -2.3989,0.525 -4.7594,0.7875 -7.0967,0.7875 -3.5252,0.2004 -6.225,-0.7806 -8.0918,-2.9566 -1.5658,-2.5491 -2.4143,-5.5334 -2.5531,-8.946 0,-6.9496 3.4249,-12.2481 10.2824,-15.9025 1.1571,-1.0707 4.1808,-2.2313 9.0637,-3.4816 3.1781,-0.6356 5.8934,-0.9534 8.1534,-0.9534z"/>
  <path class="fil3 str2" d="M114.011 130.537c5.7082,0.6079 9.5574,3.7787 11.5475,9.5125 1.4888,7.3364 1.1879,13.6435 -0.9025,18.9213 -2.669,5.3123 -6.3715,7.8476 -11.1001,7.585 -5.7236,-0.2901 -9.9971,-3.8201 -12.8127,-10.5832 -1.8358,-8.041 -1.2496,-14.3619 1.7665,-18.9627 3.2784,-4.131 7.1122,-6.2864 11.5013,-6.4729zm-0.8639 13.8784c-1.7434,0.7322 -2.6228,2.6734 -2.6382,5.8304 0.1621,3.0258 1.3963,4.6215 3.7027,4.7942 2.2446,-0.2556 3.394,-2.3487 3.4326,-6.2932 -0.5554,-3.1709 -2.0519,-4.6146 -4.4971,-4.3314z"/>
  <path class="fil3 str2" d="M152.426 112.97c3.6486,-0.1934 6.3716,0.2004 8.1611,1.1744 1.0568,0.7806 1.6431,1.8928 1.7665,3.3366 0.2237,2.7287 -0.2931,5.9824 -1.5427,9.775 -0.9026,3.2122 -2.1059,4.8702 -3.6101,4.9807l-1.8822 -0.3661c-4.5048,-0.4836 -8.4929,0.7184 -11.9718,3.6198 -2.021,2.0794 -2.9313,4.3176 -2.7383,6.7216 0.3933,2.7149 2.1212,4.3383 5.1759,4.8771 2.3681,0.0691 4.8982,-1.3056 7.5904,-4.131l0.4782 -0.0138c1.1879,0.0898 2.4993,2.4247 3.934,6.9979l-0.0231 0.4075c-1.4193,2.8462 -3.3092,5.112 -5.6774,6.7976 -3.6563,2.9429 -7.4746,4.4005 -11.4549,4.3728 -3.5406,0.0415 -6.7342,-2.3073 -9.5806,-7.0462 -1.2033,-2.6804 -1.9825,-6.0653 -2.3295,-10.1549 -0.2084,-4.214 0.4859,-8.345 2.0827,-12.407 1.3267,-3.3228 2.8155,-6.01 4.474,-8.0755 5.2839,-6.4798 11.0075,-10.0997 17.1478,-10.8665z"/>
  <path class="fil3 str2" d="M180.928 101.613c4.4277,0 7.0967,3.0188 7.9992,9.0634 0.5862,13.7679 0.9411,21.9747 1.0567,24.6343 0.031,0.2142 0.1544,0.3247 0.3626,0.3247 0.5477,-0.2418 2.1445,-1.7823 4.7904,-4.6146 2.7152,-4.0205 4.6668,-6.7216 5.8547,-8.0963 0.6634,-0.6356 1.373,-0.9533 2.1289,-0.9533 1.8668,0 4.0575,1.8513 6.5722,5.5472 0.7869,1.7961 1.2496,3.3849 1.4039,4.7735 0,2.7149 -1.2342,4.5179 -3.7103,5.409 -4.3969,1.3056 -8.4388,3.2606 -12.1338,5.865 1.8667,-0.7944 4.1346,-1.3195 6.8036,-1.5751l1.4193 0c3.7103,0 6.2482,1.3195 7.6212,3.9653 0.4475,1.0638 0.6326,2.0793 0.54,3.0326 -0.4628,2.9843 -2.5378,6.9565 -6.2174,11.9234l-1.2419 1.5751 0 0.1658c3.6641,-0.9603 5.9166,-1.4369 6.7573,-1.4369 1.0106,0.0967 1.4271,0.6839 1.2419,1.7616 -0.6865,4.2208 -2.4683,7.6058 -5.3302,10.1549 -3.5406,2.9428 -7.4438,4.3244 -11.7094,4.1517 -1.9671,-0.1589 -3.5639,-1.1467 -4.7904,-2.9566 -0.4011,-0.9257 -0.4628,-1.9067 -0.1774,-2.9291 0,-1.8375 1.2959,-4.808 3.8878,-8.9114 2.6612,-4.7735 3.9108,-7.896 3.7257,-9.3674 -0.7483,-0.9602 -1.751,-1.4369 -3.0006,-1.4369 -3.7875,0.4559 -5.6774,0.9395 -5.6774,1.4369 -0.725,8.0963 -1.6122,13.9267 -2.669,17.4844 -1.7896,4.6561 -3.7411,6.9841 -5.847,6.9841 -2.8079,0 -6.0553,-0.8981 -9.7657,-2.6942 -1.2958,-0.6424 -2.2446,-1.8652 -2.8464,-3.6613l-0.1851 -0.7875c2.5764,-8.566 3.88,-17.9472 3.9109,-28.1298 0,-8.4486 -1.1802,-16.8212 -3.5484,-25.1178 -0.7019,-1.8376 -1.1801,-3.6406 -1.4193,-5.4022 0,-2.9014 3.0161,-5.713 9.0637,-8.4209 1.9439,-1.0155 3.6487,-1.6027 5.1297,-1.7616z"/>
  <path class="fil4" d="M98.9831 190.103c0,0.907 -0.4445,1.6346 -1.3336,2.1826 -0.889,0.548 -2.0402,0.822 -3.4536,0.822 -1.0486,0 -1.9262,-0.1795 -2.6329,-0.5386 -0.7067,-0.359 -1.288,-1.0488 -1.744,-2.0692 -0.3647,-0.7937 -0.9801,-1.5212 -1.8464,-2.1826 -0.8663,-0.6614 -1.8921,-0.9921 -3.0775,-0.9921 -1.1854,0 -2.1998,0.2929 -3.0433,0.8787 -0.8435,0.5858 -1.5615,1.3323 -2.1541,2.2393 -0.5928,0.9071 -1.0602,1.937 -1.402,3.0897 -0.342,1.1527 -0.6042,2.296 -0.7866,3.4298 -0.1822,1.1338 -0.3077,2.2015 -0.3761,3.203 -0.0683,1.0016 -0.1025,1.8236 -0.1025,2.4661 0,0.6047 0.0342,1.3228 0.1025,2.1543 0.0684,0.8314 0.2167,1.6912 0.4445,2.5794 0.228,0.8882 0.5244,1.7763 0.8891,2.6645 0.3648,0.8881 0.8435,1.6724 1.4361,2.3527 0.5928,0.6803 1.3108,1.2377 2.1543,1.6724 0.8435,0.4346 1.8351,0.6519 2.9749,0.6519 1.6868,0 3.0091,-0.359 3.9664,-1.0771 0.9575,-0.7181 1.5502,-1.6441 1.7782,-2.7779 0.228,-1.3228 0.661,-2.2676 1.2993,-2.8345 0.6384,-0.567 1.8237,-0.8504 3.5563,-0.8504 1.5501,0 2.667,0.3968 3.351,1.1905 0.6839,0.7937 1.0258,1.6251 1.0258,2.4944 0,1.5496 -0.3762,2.9479 -1.1284,4.1952 -0.7523,1.2472 -1.7895,2.3054 -3.1116,3.1747 -1.3223,0.8692 -2.9066,1.5401 -4.7531,2.0125 -1.8464,0.4724 -3.8411,0.7086 -5.9839,0.7086 -3.8753,0 -7.044,-0.5763 -9.506,-1.7291 -2.462,-1.1527 -4.3768,-2.6455 -5.7445,-4.4785 -1.3679,-1.8331 -2.3025,-3.8739 -2.804,-6.1227 -0.5015,-2.2487 -0.7523,-4.4691 -0.7523,-6.6612 0,-1.3984 0.1026,-2.8912 0.3078,-4.4786 0.2052,-1.5873 0.5585,-3.1463 1.06,-4.677 0.5016,-1.5307 1.1968,-3.0046 2.0858,-4.4219 0.8891,-1.4173 2.0175,-2.655 3.3852,-3.7133 1.3678,-1.0582 3.0319,-1.9086 4.9924,-2.5511 1.9604,-0.6425 4.24,-0.9637 6.8388,-0.9637 2.7811,0 5.3228,0.4063 7.6252,1.2188 2.3024,0.8126 4.1148,2.1259 5.437,3.9401 0.2734,0.4535 0.5129,0.9826 0.718,1.5873 0.2052,0.6047 0.3078,1.3417 0.3078,2.211z"/>
  <path class="fil4" d="M102.06 201.668c0,-1.4362 0.114,-2.948 0.342,-4.5353 0.228,-1.5874 0.6155,-3.1464 1.1627,-4.6771 0.5471,-1.5306 1.2537,-2.9857 2.12,-4.3652 0.8663,-1.3795 1.9148,-2.5889 3.1459,-3.6282 1.2309,-1.0393 2.6898,-1.8708 4.3768,-2.4944 1.6869,-0.6236 3.6017,-0.9354 5.7446,-0.9354 3.237,0 5.9498,0.6708 8.1382,2.0125 2.1884,1.3417 3.9437,3.033 5.2658,5.0739 1.3222,2.0409 2.2683,4.2896 2.8382,6.7462 0.5698,2.4566 0.8548,4.7999 0.8548,7.0297 0,1.096 -0.1026,2.3432 -0.3078,3.7416 -0.2052,1.3984 -0.5585,2.8157 -1.06,4.2519 -0.5014,1.4361 -1.174,2.8345 -2.0174,4.1951 -0.8435,1.3606 -1.9035,2.57 -3.18,3.6282 -1.2767,1.0583 -2.7812,1.9086 -4.5136,2.5511 -1.7326,0.6425 -3.7614,0.9638 -6.0866,0.9638 -2.2796,0 -4.2857,-0.3118 -6.0182,-0.9354 -1.7324,-0.6236 -3.2256,-1.4551 -4.4794,-2.4944 -1.2538,-1.0394 -2.291,-2.2393 -3.1117,-3.5999 -0.8207,-1.3606 -1.4703,-2.7684 -1.9491,-4.2235 -0.4786,-1.4551 -0.8092,-2.9007 -0.9916,-4.3369 -0.1824,-1.4361 -0.2736,-2.7589 -0.2736,-3.9683zm10.4635 0.17c0,0.9449 0.0684,2.1732 0.2052,3.6849 0.1367,1.5118 0.4331,2.9669 0.8889,4.3653 0.456,1.3983 1.1058,2.6078 1.9491,3.6282 0.8435,1.0204 1.9491,1.5307 3.3169,1.5307 0.9574,0 1.778,-0.2363 2.4619,-0.7087 0.684,-0.4724 1.2767,-1.0866 1.7781,-1.8424 0.5015,-0.7559 0.9119,-1.6157 1.231,-2.5795 0.3192,-0.9637 0.57,-1.9275 0.7522,-2.8912 0.1824,-0.9638 0.3079,-1.8992 0.3763,-2.8062 0.0683,-0.9071 0.1025,-1.6819 0.1025,-2.3244 0,-0.9826 -0.0684,-2.296 -0.2052,-3.94 -0.1368,-1.6441 -0.433,-3.2692 -0.889,-4.8754 -0.4559,-1.6063 -1.117,-2.9952 -1.9832,-4.1668 -0.8663,-1.1717 -2.0516,-1.7575 -3.5562,-1.7575 -0.9574,0 -1.7896,0.274 -2.4962,0.8221 -0.7067,0.548 -1.2994,1.2566 -1.778,2.1259 -0.4788,0.8692 -0.855,1.8519 -1.1284,2.9479 -0.2736,1.096 -0.4902,2.1826 -0.6498,3.2597 -0.1596,1.0772 -0.2621,2.1071 -0.3077,3.0897 -0.0456,0.9827 -0.0684,1.7952 -0.0684,2.4377z"/>
  <path class="fil4" d="M139.332 183.244c0,-1.1716 0.4673,-2.2015 1.402,-3.0896 0.9345,-0.8882 2.3593,-1.3323 4.2743,-1.3323 1.7324,0 3.1344,0.3969 4.2058,1.1906 1.0714,0.7936 1.6071,1.7952 1.6071,3.0046 0,0.5669 -0.1368,1.1149 -0.4103,1.644 -0.2736,0.5291 -0.6497,1.0016 -1.1284,1.4173 -0.4788,0.4157 -1.0714,0.7464 -1.7781,0.9921 -0.7067,0.2457 -1.516,0.3685 -2.4279,0.3685 -1.6868,0 -3.066,-0.3969 -4.1374,-1.1905 -1.0714,-0.7937 -1.6071,-1.7952 -1.6071,-3.0047zm5.6079 5.7258c1.9604,0 3.3168,0.4158 4.069,1.2472 0.7523,0.8315 1.1284,2.0031 1.1284,3.5149 0,1.2094 -0.0114,2.2298 -0.0342,3.0613 -0.0228,0.8315 -0.0455,1.5779 -0.0683,2.2393 -0.0228,0.6614 -0.0456,1.2945 -0.0684,1.8992 -0.0228,0.6047 -0.0343,1.285 -0.0343,2.0408l0 3.4015 -0.0684 5.9526 0 3.4014c0,3.1747 -1.778,4.7621 -5.3342,4.7621 -1.1398,0 -2.0403,-0.2268 -2.7014,-0.6803 -0.661,-0.4535 -1.1512,-1.0393 -1.4702,-1.7574 -0.3192,-0.7181 -0.513,-1.4929 -0.5814,-2.3244 -0.0684,-0.8314 -0.1025,-1.6062 -0.1025,-2.3243 0,-1.6251 0,-2.9952 0,-4.1101 0,-1.1149 0.0227,-2.1448 0.0683,-3.0897l0.1368 -3.5715c0.0456,-0.9449 0.0684,-1.9747 0.0684,-3.0897 0,-1.1149 0,-2.4849 0,-4.1101 0,-0.7936 0.0342,-1.5779 0.1026,-2.3526 0.0683,-0.7748 0.2622,-1.4646 0.5812,-2.0693 0.3192,-0.6047 0.8094,-1.096 1.4704,-1.4739 0.6611,-0.378 1.6071,-0.567 2.8382,-0.567z"/>
  <path class="fil4" d="M158.618 220.49c-1.0941,0 -1.949,-0.1323 -2.5645,-0.3968 -0.6155,-0.2646 -1.06,-0.6236 -1.3336,-1.0772 -0.2735,-0.4535 -0.4445,-0.9921 -0.5129,-1.6157 -0.0684,-0.6236 -0.1026,-1.2944 -0.1026,-2.0125l0 -7.71 0.2052 -15.4767 0 -7.71c0,-0.5669 0.1482,-1.0393 0.4446,-1.4172 0.2962,-0.378 0.6838,-0.6992 1.1625,-0.9638 0.4787,-0.2645 1.0144,-0.4535 1.6072,-0.5669 0.5927,-0.1134 1.1853,-0.1701 1.778,-0.1701 1.3221,0 2.348,0.1701 3.0775,0.5103 0.7294,0.3401 1.3905,1.0015 1.9833,1.9841 0.8661,1.4362 1.8008,3.0614 2.8039,4.8755 1.003,1.8141 2.0174,3.666 3.0432,5.5557 1.0258,1.8897 2.0402,3.7416 3.0433,5.5557 1.0031,1.8142 1.9377,3.4582 2.8039,4.9322 0,-1.4362 -0.0228,-3.0425 -0.0684,-4.8188 -0.0455,-1.7763 -0.0798,-3.5904 -0.1026,-5.4423 -0.0228,-1.8519 -0.0569,-3.6755 -0.1025,-5.4707 -0.0456,-1.7952 -0.0684,-3.4109 -0.0684,-4.8471 0,-0.5291 0.1596,-0.9732 0.4787,-1.3322 0.3192,-0.3591 0.7181,-0.6425 1.1968,-0.8504 0.4788,-0.2079 1.003,-0.3591 1.5729,-0.4535 0.5699,-0.0945 1.1056,-0.1418 1.6072,-0.1418 1.4589,0 2.6329,0.2173 3.5219,0.652 0.889,0.4346 1.3336,1.2944 1.3336,2.5794 0,2.57 -0.0114,5.3573 -0.0342,8.362 -0.0228,3.0046 -0.0456,5.9714 -0.0684,8.9005 -0.0228,2.929 -0.0456,5.688 -0.0684,8.2769 -0.0228,2.5889 -0.0342,4.7526 -0.0342,6.4911 0,1.1338 -0.3534,2.0503 -1.06,2.7495 -0.7067,0.6992 -1.8351,1.0488 -3.3852,1.0488 -0.8663,0 -1.6414,-0.1039 -2.3252,-0.3118 -0.6839,-0.2079 -1.2538,-0.463 -1.7098,-0.7653 -0.7294,-0.5669 -1.6412,-1.6063 -2.7354,-3.118 -1.0943,-1.5118 -2.234,-3.2125 -3.4194,-5.1022 -1.1854,-1.8897 -2.405,-3.855 -3.6588,-5.8959 -1.2538,-2.0409 -2.4278,-3.9117 -3.522,-5.6124 0.0456,2.381 0.057,4.9132 0.0342,7.5966 -0.0228,2.6833 -0.0342,5.2156 -0.0342,7.5966 0,0.7937 -0.0342,1.5306 -0.1026,2.2109 -0.0683,0.6803 -0.2622,1.2756 -0.5812,1.7858 -0.3192,0.5102 -0.7979,0.9071 -1.4362,1.1905 -0.6384,0.2835 -1.5273,0.4252 -2.6672,0.4252z"/>
  <ellipse class="fil0 str3" cx="125.107" cy="124.481" rx="115.322" ry="115.322"/>
  <ellipse class="fil1 str3" cx="125.107" cy="124.481" rx="89.5837" ry="89.5838"/>
  <g id="_216683864">
   <path id="_217336696" class="fil5" d="M88.8602 218.122c-3.1092,-1.1455 -7.0039,-0.72 -10.2441,-0.6218 -2.7492,-0.4583 -5.433,-1.2437 -7.9858,-2.3893 -1.4074,-0.0981 -2.7493,-0.3927 -4.0912,-0.72 -1.0146,-0.5564 -2.0619,-1.2764 -3.2074,-1.6037 0,-0.0982 0,-0.1637 0,-0.2291 -1.211,-0.4909 -1.211,-0.4909 -5.1384,-1.571 -2.2256,-1.1782 -2.2256,-1.1782 -4.713,-2.7819 0,-0.6874 -4.7784,-2.9456 -5.4984,-3.4039 -2.0947,-1.9637 -3.4038,-4.0256 -4.9421,-6.3494 -0.8182,-0.2291 -1.1128,-1.6364 -1.8983,-1.8982 -1.2764,-2.4547 -1.2764,-5.2039 -2.3892,-7.6259 -0.4582,-0.4909 -0.8836,-0.9491 -1.3091,-1.4073 -1.5056,-2.5201 -0.8837,-5.2693 -2.6183,-7.5276 -0.2291,-0.5564 -0.4582,-1.1128 -0.6873,-1.6692 0,-1.9637 0.1963,-3.862 0.3272,-5.793 -0.1963,-0.4255 -0.3927,-0.8182 -0.5563,-1.211 0,-1.6692 -0.0328,-3.5347 0.5891,-5.073 0.6546,-0.6218 1.8983,-1.5382 2.0946,-1.5709 0,-0.0982 0,-0.1637 0,-0.2291 0.6546,-0.5564 2.1601,-1.4728 2.4547,-2.3565 -0.0655,-5.5967 -0.6873,-11.7497 1.4073,-17.0518 1.571,-2.5855 2.5202,-2.8147 5.433,-3.4365 3.0438,-0.2291 3.0438,-0.2291 11.6515,-0.4582 1.1455,-0.2618 1.8001,-2.3238 2.9456,-2.8801 0.2291,-0.3273 0.4582,-0.6546 0.72,-0.9819 0,-0.6546 -0.2291,-1.5055 -0.6545,-5.0075 -0.0655,-4.3202 -0.6873,-9.4914 1.44,-13.4516 0.1637,0 1.2437,-1.2764 1.3419,-1.5055 0.8837,-0.5237 1.8001,-1.0473 2.7165,-1.571 3.8947,-1.1128 7.8877,-2.2256 11.6842,-3.6656 0.4255,-1.0801 2.5856,-5.0076 1.7346,-6.1203 -2.0946,-1.3747 -4.1565,-2.7493 -6.2184,-4.1239 -0.0982,-0.2291 -1.8001,-1.6364 -3.4038,-3.3383 -1.6365,-2.1929 -2.1274,-4.9421 -1.1128,-7.5604 0.3273,-0.5891 0.6873,-1.1782 1.0473,-1.7346 0.0655,0 0.1309,0 0.1964,0 0.3273,-0.4582 1.6364,-2.6511 2.5201,-2.8474 0,-0.9164 6.2185,-4.8439 6.7421,-5.0076 0,-0.0981 0,-0.1636 0,-0.2291 0.3601,-0.1963 0.7201,-0.3927 1.1128,-0.5563 0.36,-2.2256 0.8837,-4.4839 1.0146,-6.7422 -2.4874,-4.9093 -2.4874,-4.9093 -4.2547,-8.7386 -0.3601,-1.5055 -0.7201,-3.0111 -1.0801,-4.4839 -0.36,-3.7965 -0.4582,-7.6258 1.571,-10.9641 3.5347,-3.8948 8.575,-3.6002 13.5498,-4.1566 1.7346,-0.0982 3.5019,-0.1964 5.2693,-0.2618 2.9456,-2.291 2.9456,-2.291 3.2402,-2.3892 0,-0.491 1.5709,-1.4401 1.9637,-1.7347 1.211,-5.5311 3.142,-14.3352 8.5095,-17.5426 0.7528,-0.1964 0.7528,-0.1964 1.7346,-0.6546 1.571,-0.1964 4.9421,-1.0146 6.3167,-0.1964 3.7638,0.4582 7.9204,2.5529 10.8005,4.9748 0.1964,0.6873 4.5821,-0.1964 5.073,-0.36 0.3927,-1.211 1.3092,-2.291 2.0292,-3.3711 0.0654,0 0.1309,0 0.1964,0 2.5528,-3.502 5.793,-5.5639 10.0477,-6.8076 1.211,0 2.4547,0 3.6984,0 2.4547,0.4909 4.4184,1.571 6.5458,2.8147 0.5564,0.4909 3.371,2.4547 3.7311,3.4692 0.0654,0 0.1309,0 0.1963,0 0.1637,0.4255 0.5891,1.0146 1.0146,1.1456 1.3746,1.8328 1.3746,1.8328 2.5856,3.7638 0.8837,0.2291 1.6037,0.4255 2.5201,0.4582 0.4255,0.2291 2.1929,0.6546 5.793,1.7673 1.9965,0.7201 3.993,1.4401 5.9894,2.1601 4.0257,1.8329 7.7568,4.6803 10.9969,7.6586 4.0584,-0.7528 6.7094,-0.0982 10.2114,1.9965 2.2256,2.2255 4.3857,4.9748 5.2366,8.084 0.0655,1.1128 0.131,2.2583 0.1964,3.4038 1.4728,1.7346 2.6838,3.6329 3.8948,5.5639 0.0654,0 0.1309,0 0.2291,0 1.1455,1.9965 2.291,3.9929 3.4692,6.0221 1.1455,2.6838 2.3238,5.433 3.1093,8.2477 0.2291,1.6364 0.2291,1.6364 0.5564,7.5276 -0.2291,2.6183 -0.4582,5.2367 -0.6546,7.855 -0.8837,3.9274 -1.1128,4.3856 -1.211,5.2366 -0.8837,2.0946 -0.8837,2.0946 -1.08,2.9456 -0.5892,1.1782 -1.6038,4.0584 -2.6838,4.7129 -1.5383,1.9965 -1.8983,2.2583 -2.291,2.7493 -2.5202,1.931 -4.9748,3.1747 -7.9531,4.222 -0.1637,1.6692 -0.0982,3.6002 -0.9819,5.0075 -2.0619,1.0146 -2.0619,1.0146 -4.1566,1.8001 -1.4401,0.2946 -2.8147,0.6873 -4.2547,0.8509 -0.2291,0.0655 -0.4582,0.1637 -0.6873,0.2619 -0.5892,4.0584 -2.5529,7.0694 -4.5494,10.6041 -0.0654,0 -0.1309,0 -0.1963,0 -0.5237,1.2765 -2.6838,2.8474 -3.6657,3.7966 -1.7019,1.4073 -3.6001,2.3892 -5.4984,3.4692 -0.6546,0.0982 -0.6546,0.0982 -2.0619,0.6546 -1.2437,0.2291 -2.4874,0.4909 -3.7311,0.7528 -3.7311,0 -7.4295,0.0654 -11.1278,-0.4255 -1.0801,-0.1964 -5.2367,-1.6037 -6.3494,-1.1782 -0.7855,3.862 -2.3565,7.8222 -3.7966,11.5205 -2.5201,4.0584 -2.5201,4.0584 -2.7165,4.5493 -0.5236,0 -0.4909,0.7201 -0.9164,0.851 -1.211,1.5055 -2.6838,3.2401 -4.3202,4.2875 0,0.0654 0,0.1309 0,0.1963 -0.7528,0.3601 -1.7346,1.4074 -2.1601,2.0947 -0.5237,0.4909 -2.8801,2.1274 -3.1747,3.0438 -0.0982,0 -0.1637,0 -0.2291,0 -0.0982,0.2291 -0.3273,0.3273 -1.0146,1.1455 -1.4073,2.1601 -1.4073,2.1601 -2.0619,3.3711 -0.5891,1.7019 -1.9638,3.1092 -2.3892,4.8766 -0.0655,0 -0.1309,0 -0.1964,0 -0.0327,0.1309 -0.0655,0.2618 -0.0655,0.4254 -4.9748,9.1969 -8.9022,18.9173 -13.7134,28.1796 -0.3927,1.0473 -0.7855,2.0946 -1.1782,3.142 -0.0655,0 -0.1309,0 -0.1964,0 -0.3927,0.9818 -0.3927,0.9818 -3.3383,6.5457 -2.422,3.9275 -2.422,3.9275 -2.4547,4.1239 -0.0982,0 -0.1636,0 -0.2291,0 -1.3091,1.8983 -1.3091,1.8983 -2.5856,3.502 -1.5055,1.1128 -2.7819,0.9164 -4.6147,0.9164 -3.0765,-1.211 -6.4804,-0.1309 -9.4914,0.5236 -1.1782,0.0982 -2.3238,0.1964 -3.4693,0.2946z"/>
   <path id="_217336576" class="fil6 str4" d="M88.2057 216.486c-2.1274,-0.1964 -4.2221,-0.6219 -6.3494,-0.7201 -4.2875,0.5891 -7.9532,-0.6218 -11.8806,-2.291 -0.851,-0.0655 -1.6692,-0.1309 -2.4874,-0.1964 -1.9965,-0.6546 -3.862,-1.8328 -5.6948,-2.8474 -2.8475,-0.4255 -4.4839,-1.3091 -6.9386,-2.7819 -0.7855,-0.6219 -1.5382,-1.2437 -2.291,-1.8656 -2.5528,-1.1128 -4.0911,-1.8001 -5.793,-4.0584 -0.6218,0 -1.8983,-3.5674 -3.0765,-4.222 -0.0982,-0.2291 -0.36,-0.4255 -0.4255,-0.6546 -0.0982,0 -0.1636,0 -0.2291,0 -1.211,-2.4219 -1.1782,-5.2693 -2.3237,-7.5931 -2.3238,-2.3237 -2.6183,-3.7311 -2.8802,-6.9058 -0.0654,-0.2291 -0.1309,-0.4582 -0.1964,-0.6545 -0.4254,-0.6219 -0.8182,-1.2437 -1.2109,-1.8656 -0.6546,-2.1274 -1.0146,-5.6621 0.36,-7.5931 0.2946,-0.2618 1.1455,-1.3419 1.571,-1.3419 0,-0.6873 1.2437,-1.08 1.5055,-1.7346 1.1783,-0.72 2.291,-1.7346 3.1747,-2.8474 0.0655,0 0.1309,0 0.2291,0 0.0655,-0.36 0.2946,-0.7528 0.6546,-0.851 0,-0.1636 0,-0.3272 0,-0.4909 -0.7528,0 -1.0146,0.5564 -1.4401,1.1128 -1.1782,0.9491 -2.3565,1.931 -3.502,2.9129 -0.1636,0.4909 -2.7819,3.011 -3.371,3.1092 0.0981,-2.3237 -0.5892,-5.5639 2.4219,-6.2185 0,-0.5564 0.9164,-1.2764 1.4073,-1.44 0.0655,-0.2292 0.0655,-0.2292 2.7493,-2.7165 4.6475,-5.5312 5.3348,-6.2185 5.433,-6.4476 0.0654,0 0.1309,0 0.2291,0 0.0654,-0.2619 0.0654,-0.2619 2.8146,-3.4693 0.6873,-0.5891 1.2765,-1.2764 1.8656,-1.9637 0.0654,0 0.1309,0 0.2291,0 0,-0.0982 0.0327,-0.1964 0.0654,-0.2946 3.3057,-3.7311 7.004,-7.6913 9.9496,-11.586 0.7201,-0.36 1.571,-2.3238 2.2583,-1.9965 -0.36,1.1128 -0.36,1.1128 -0.4582,1.8656 0.1964,0 0.3928,0 0.5891,0.0327 1.3092,-1.1128 2.3892,-3.6002 2.9129,-5.2039 2.6183,-4.7784 2.8147,-5.3021 3.4693,-6.2839 0.6873,-1.4074 1.7346,-2.5529 2.6183,-3.8293 1.2437,-2.0947 2.5528,-4.3202 3.502,-6.5785 0.9164,-0.7855 1.4728,-5.0075 2.4874,-4.6802 0.1309,1.0146 0.0981,5.5966 1.9637,3.2074 -0.1637,-1.931 -0.3928,-4.0911 -0.7528,-5.9894 0,-2.6183 -0.2291,-6.1203 -0.3273,-15.8735 0.0982,-4.4184 0.6219,-8.935 1.211,-13.3206 0.4255,-0.2619 0.9819,-5.3348 1.0801,-6.3167 0.2291,-0.7528 0.4254,-2.7165 0.6545,-3.3384 0.7201,-3.3056 1.3746,-6.8076 3.0438,-9.7532 0.3928,-1.3746 1.0473,-2.4546 2.0619,-3.4692 2.6183,-4.6475 6.2512,-8.4768 10.6369,-11.4551 0.8837,-0.7528 1.7674,-1.5056 2.6511,-2.2256 1.9964,-1.3746 4.3856,-3.3711 6.7421,-4.1566 1.1455,-1.0146 2.4874,-1.7346 3.9602,-2.291 2.2256,-1.1782 5.0075,-2.8147 7.4949,-3.3711 3.3711,-2.1928 7.9859,-2.291 11.6515,-3.6001 1.2764,-0.0328 2.5856,-0.1309 3.8293,-0.4255 4.4838,-0.2291 4.4838,-0.2291 4.7129,-0.36 5.1712,0 10.1787,0.0654 15.2844,0.36 0.5891,0.1964 0.5891,0.1964 3.9275,0.5237 5.0402,0.8836 9.8841,1.8982 14.728,3.6001 0.9818,0.4582 0.9818,0.4582 5.6948,2.1929 2.5856,1.5382 2.5856,1.5382 2.6838,1.7346 0.9491,0.6546 4.582,2.6838 5.1384,4.1238 -4.0584,1.0801 -5.8258,5.4003 -6.9385,9.0332 -0.0982,0.851 -0.1637,1.7346 -0.2291,2.6183 -0.131,0.2618 -0.2291,0.5237 -0.3273,0.7855 0,5.6948 5.1057,10.7023 10.1132,12.6988 3.7965,0.36 6.2512,-0.1636 9.5241,-2.1274 0.5564,-0.72 0.5564,-0.72 1.1782,-1.2109 0.7855,-1.1128 1.6365,-2.1601 2.0947,-3.4366 0.6873,-0.6873 1.0146,-2.8801 1.3091,-3.7965 0.0655,0 0.131,0 0.1964,0 5.0403,7.9858 5.0403,7.9858 5.2694,8.1822 1.5709,3.5675 2.9783,7.004 3.9274,10.8005 0.3273,5.4658 0.3273,5.4658 0.3273,7.4622 -0.4909,2.782 -0.0982,6.3494 -1.211,8.935 -0.4254,3.142 -2.0946,6.3167 -3.4365,9.1313 -0.7528,0.851 -1.5055,1.702 -2.2583,2.5856 -2.6837,2.2256 -6.2512,4.3857 -9.7532,4.8112 -0.0982,0.0654 -0.1964,0.1309 -0.2945,0.2291 -10.0805,3.2729 -20.652,3.4692 -31.027,1.5055 -6.0549,-0.7528 -12.2733,-2.1601 -17.9682,-4.4511 -4.3529,-1.1128 -8.4113,-3.862 -12.6006,-5.4657 -0.36,-0.3601 -0.8509,-0.5237 -1.3419,-0.7201 -3.011,-1.8001 -3.011,-1.8001 -5.0402,-3.2074 0,-0.1637 0,-0.3273 0,-0.4909 0.0982,-0.0328 0.1964,-0.0655 0.3273,-0.0655 1.08,-1.3419 6.3494,-7.5604 3.1092,-9.1641 -0.1636,0.0982 -0.2945,0.2291 -0.4255,0.36 0,4.8112 -4.1565,8.575 -8.0185,10.7678 -1.2437,0.3928 -2.2583,0.7201 -3.3384,1.3746 0,0.131 0,0.2619 0.0328,0.4255 2.1928,0.9492 5.0402,-0.8509 6.8403,-2.1601 0.0982,-0.36 0.2946,-0.36 0.6546,-0.3927 0.4254,0.8836 1.0473,1.4728 1.5382,2.2255 2.782,3.0111 5.5639,5.8912 8.7059,8.575 1.7346,1.7674 1.7346,1.7674 1.8656,2.0292 2.2255,1.6692 4.4183,3.4038 6.5457,5.2039 3.5347,2.7492 7.5931,4.7457 11.8479,6.0548 4.3856,0.9164 9.3604,2.2256 13.8116,1.1128 3.7638,-1.3419 3.7638,-1.3419 5.2039,-2.0292 1.7673,-1.6037 3.1092,-3.502 3.9274,-5.6948 0.0327,-0.4582 0.0655,-0.9164 0.1309,-1.3419 3.0765,-0.3273 3.0765,-0.3273 4.2221,-0.2946 0.1309,1.6692 0.2291,2.7493 1.2109,4.1239 0.7528,0.5236 0.6546,1.2109 0.5237,2.0619 -2.1928,5.5312 -4.9093,9.7205 -9.8187,13.1897 -3.0765,1.7019 -5.6621,2.4874 -9.0659,3.0765 -2.0619,0.0328 -4.1238,0.0655 -6.153,0.0982 -6.9713,-0.4909 -13.5498,-2.8146 -20.0955,-5.2366 -0.7201,-0.36 -4.1893,-2.1928 -4.5821,-1.8001 0,2.291 7.5604,4.2221 9.5569,5.1712 1.0146,0.3273 2.0619,0.6546 3.1092,1.0146 0.0327,0.4582 0.0655,0.9164 0.0982,1.4073 -0.0982,0.0655 -0.1637,0.1637 -0.2291,0.2619 -0.7855,3.5347 -2.3238,7.1676 -3.6984,10.5059 -0.3273,0.36 -1.3091,2.0947 -3.2729,4.8112 -3.4038,3.8292 -7.6585,6.9712 -10.9969,10.866 -0.6218,0.9818 -1.2437,1.9964 -1.8655,3.011 -0.4582,1.8656 -2.0947,4.2875 -3.0765,5.9567 -3.4366,6.9712 -6.7749,14.0079 -9.9169,21.1101 -4.0911,8.084 -7.5276,16.8554 -13.3206,23.8593 -0.4255,0.0982 -0.8182,0.1964 -1.211,0.3273 -3.4692,0 -7.2985,-1.0473 -10.6041,0.2291 -1.7019,0.2946 -3.4038,0.3928 -5.1057,0.491z"/>
   <path id="_217336432" class="fil7" d="M89.8421 215.733c-0.5564,-0.8182 0.8509,-2.1601 1.0146,-3.0111 0.2291,-0.2945 2.3892,-5.2039 2.5201,-5.793 0.1964,-0.2945 0.1964,-0.2945 0.4255,-1.1782 1.2437,-2.4219 2.3237,-4.8439 3.142,-7.4622 1.7019,-4.2547 3.3056,-8.2804 4.8111,-12.6006 0.8182,-1.5383 2.1274,-3.4365 2.5856,-5.1384 0.8182,-0.3928 0.7528,-2.5202 1.6037,-3.0766 0.0982,0.0328 0.1964,0.0655 0.2946,0.131 0,0.1963 0,0.3927 0,0.5891 -1.8001,4.6475 -4.8439,8.7386 -5.8912,13.6806 -0.5564,0.7201 -1.1783,2.5529 -1.3092,3.502 -0.2291,0.2946 -0.2291,0.2946 -1.571,3.7311 -0.4909,2.1929 -1.6364,4.8112 -2.8801,6.6767 -0.6546,2.6183 -2.2256,5.5312 -3.3056,7.9204 -0.3928,0.72 -0.6873,1.6692 -1.4401,2.0292z"/>
   <path id="_217336336" class="fil7" d="M79.6961 214.62c-0.4582,-0.6873 0.0982,-1.7673 0.3601,-2.4547 2.4219,-4.8438 4.5165,-9.9495 7.2003,-14.6625 0.7528,-2.9456 2.422,-6.2185 3.9275,-8.8368 1.1128,-2.6183 2.0292,-5.3021 3.502,-7.7567 0.1309,-0.6219 0.1636,-1.1128 0.6545,-1.4728 1.1456,0.7527 -1.44,4.582 -1.8655,5.433 -1.4073,3.7965 -3.2402,7.4294 -4.9093,11.1278 -1.4074,4.582 -4.713,8.6077 -6.1203,13.2552 -0.5891,1.08 -1.1783,2.1928 -1.7347,3.3056 -0.1963,0.6218 -0.4582,1.7019 -1.0146,2.0619z"/>
   <path id="_217336288" class="fil7" d="M99.8571 213.115c-0.2618,-0.1964 -0.2618,-0.1964 -0.3927,-0.4582 3.0438,-7.0695 5.9239,-14.5971 9.5895,-21.372 0.2619,-0.9164 0.4582,-1.2109 1.2765,-3.3056 0.2945,-0.1309 0.3273,-0.5891 0.4254,-0.9164 1.1783,-2.1928 2.422,-4.6475 3.3384,-6.9712 0.1636,-0.0655 0.3273,-0.0982 0.4909,-0.131 0.0655,0.6873 -0.0982,1.4074 -0.6218,1.8656 -0.8182,1.8983 -1.4728,4.2875 -2.6838,5.9239 -1.6692,4.1238 -1.8655,4.3202 -2.0946,5.1057 -1.6365,3.4038 -3.9275,7.1676 -4.9094,10.8005 -1.3746,3.0438 -2.5201,6.7749 -4.4184,9.4587z"/>
   <path id="_217336144" class="fil7" d="M69.1247 211.805c-0.0327,-0.2291 -0.0654,-0.4582 -0.0982,-0.6545 3.1747,-6.3495 6.6767,-12.5352 10.1787,-18.721 0.1964,-0.1963 1.0473,-2.1273 2.9129,-5.2693 0.4582,-0.9164 1.0146,-2.7165 1.8983,-3.142 0.8836,0.4255 -2.3565,5.4985 -2.9784,6.4476 -1.3419,2.8474 -3.502,5.5639 -4.582,8.5095 -0.2291,0.1964 -0.4255,0.851 -1.3092,2.4219 -2.1928,3.142 -3.6983,6.7422 -5.4657,10.1133 -0.1964,0.0982 -0.3927,0.1963 -0.5564,0.2945z"/>
   <path id="_217336648" class="fil7" d="M60.2879 208.434c-0.6873,-1.0474 1.5383,-3.2729 2.1274,-4.0912 1.5055,-2.6183 3.6329,-5.0075 5.0075,-7.6585 0.7201,-0.9491 1.3746,-1.9637 1.9638,-3.0438 0.5891,-0.6873 3.9274,-5.793 6.5457,-9.4586 1.211,-2.4874 2.9456,-4.713 4.0257,-7.2331 2.8801,-4.222 5.3675,-8.7386 8.1822,-12.9934 1.4073,-1.7019 2.3565,-3.9602 3.7965,-5.7275 0.0982,-0.0328 0.1964,-0.0328 0.3273,-0.0328 0.1309,0.2291 0.1309,0.2291 0.0982,0.5237 -1.7673,2.782 -3.6329,5.433 -5.1711,8.3131 -1.4401,1.8656 -2.8802,4.0257 -3.7966,6.2185 -3.3383,4.8766 -6.0548,10.0805 -9.3277,15.0226 -2.3892,3.0438 -4.1566,6.8403 -6.644,9.7859 -2.0292,3.3711 -4.8439,6.5785 -6.5785,10.0805 -0.1964,0.0982 -0.3927,0.1964 -0.5564,0.2946z"/>
   <path id="_217336120" class="fil7" d="M52.7603 203.296c-0.0327,-0.1636 -0.0655,-0.2945 -0.0982,-0.4255 0.8837,-1.2109 1.7674,-2.3892 2.651,-3.5674 0.2291,0 0.2291,0 0.4255,0.1309 0,0.9164 -2.1601,3.6984 -2.9783,3.862z"/>
   <path id="_217336456" class="fil7" d="M112.196 202.314c0,-1.8656 1.6692,-5.0076 2.3565,-6.8404 0.1636,-0.2945 0.3273,-0.5564 0.5237,-0.8182 1.7673,-4.3529 3.5674,-8.6404 5.4657,-12.8952 0.2618,-0.2618 0.36,-0.4582 0.7527,-0.4582 0,0.7855 -1.08,3.7311 -1.6691,4.1239 -1.571,3.862 -3.142,7.8549 -4.8766,11.6514 -0.2619,1.1128 -1.4074,5.0076 -2.5529,5.2367z"/>
   <path id="_217336528" class="fil7" d="M45.8872 197.634c-0.0327,-0.2618 -0.0654,-0.4909 -0.0654,-0.72 0.4582,-0.4255 0.5891,-0.7528 0.8182,-0.8837 2.7165,-3.3711 5.4984,-6.7094 8.4113,-9.9496 0.3273,0.0328 0.36,0.2946 0.36,0.5892 -2.651,3.3056 -5.6621,6.3821 -8.1822,9.7859 -0.4582,0.4255 -0.7855,1.08 -1.3419,1.1782z"/>
   <path id="_217335232" class="fil7" d="M58.5206 196.194c-0.1637,-0.1964 -0.1637,-0.1964 -0.1964,-0.7528 2.291,-2.9129 4.582,-5.793 6.9058,-8.6732 0.1636,0 0.3273,0 0.4909,0 0.4255,0.6873 -2.8147,4.3203 -3.6002,5.0076 -0.2945,0.7855 -3.2401,4.3202 -3.6001,4.4184z"/>
   <path id="_217335592" class="fil7" d="M41.9598 188.993c-0.1637,-0.2618 -0.1964,-0.4255 -0.0655,-0.6873 4.7457,-4.8439 6.0548,-6.0221 6.3167,-6.4476 3.4038,-3.3711 6.7094,-7.004 10.0805,-10.4405 0,-0.1309 0.0327,-0.2618 0.0654,-0.36 2.9456,-2.8802 5.9894,-5.8912 8.4441,-9.1968 0.2618,-0.1637 0.3273,-0.3273 0.3927,-0.6219 3.0111,-3.8947 5.9239,-7.8549 8.5095,-12.0115 0.2291,-0.1963 0.4582,-0.8509 0.6546,-1.08 0.1309,0 0.2618,0 0.4255,0 -0.0328,0.2618 -0.0655,0.5564 -0.0982,0.8509 -2.5201,3.9275 -5.073,7.7895 -7.9204,11.4879 -0.3927,0.1309 -0.3927,0.4582 -0.5237,0.7527 -1.0473,1.4074 -1.0473,1.4074 -3.2728,4.0257 -2.9129,3.011 -5.7603,6.1857 -8.7387,9.1641 -3.011,3.3383 -6.1857,6.9057 -9.4913,9.9495 -1.0801,1.2437 -3.2729,4.0257 -4.7784,4.6148z"/>
   <path id="_217335640" class="fil7" d="M57.3423 184.215c-0.0982,-0.0655 -0.1636,-0.0982 -0.2291,-0.1309 0.4582,-2.422 4.6148,-4.0584 5.1712,-6.3822 0.0654,-0.0327 0.1636,-0.0654 0.2618,-0.0654 0,-0.5891 2.291,-2.5201 2.782,-3.142 2.1274,-3.5347 5.0402,-6.6767 7.2985,-10.1459 0.4255,-0.4582 0.6546,-0.9819 2.3238,-3.1093 0.4254,-0.2945 0.4254,-0.2945 0.9164,-0.8837 0.9491,-1.5055 0.9491,-1.5055 3.6656,-5.1384 0.1636,0 0.3273,0 0.5237,0.0327 0,0.1637 0,0.3273 0,0.5237 -0.3273,0.2618 -0.3273,0.2618 -3.6002,5.1057 -0.2291,0.0982 -0.2291,0.0982 -2.3892,2.8474 -2.7165,4.1239 -5.9239,8.084 -8.8368,12.1097 -2.5201,2.6183 -4.9093,5.6621 -7.4622,8.2149 -0.1636,0.0328 -0.2946,0.0982 -0.4255,0.1637z"/>
   <path id="_217335208" class="fil7" d="M69.1247 182.349c-0.7855,-0.7854 2.1601,-3.731 2.291,-3.9274 0.9165,-1.3746 0.9165,-1.3746 1.6692,-2.291 2.0292,-4.7457 5.4003,-8.8368 8.4441,-12.9607 1.8982,-3.1747 2.4546,-3.862 4.0256,-6.4148 0.1637,0.0327 0.3273,0.0654 0.4909,0.0982 0,0.1636 0,0.36 0,0.5563 -2.651,4.1239 -5.4657,8.2477 -8.1822,12.3061 -0.8836,0.4255 -2.7165,3.6984 -3.0438,4.222 -1.2109,2.782 -3.011,5.2694 -4.8111,7.6913 -0.6873,0.6546 -0.6873,0.6546 -0.8837,0.72z"/>
   <path id="_217335616" class="fil7" d="M85.3582 182.251c-0.2291,-0.0655 -0.36,-0.1637 -0.4254,-0.3928 1.8982,-3.6329 3.9929,-7.1676 5.793,-10.866 0.0982,-0.8837 0.6546,-1.5382 1.1128,-2.291 0.2618,-0.5564 2.2583,-6.153 3.6001,-6.153 0,0.2291 0,0.4909 0,0.7527 -2.6183,4.713 -4.582,9.8842 -7.5276,14.3353 -0.4909,1.1128 -0.9819,2.1601 -1.7019,3.142 -0.1309,0.4582 -0.5237,1.1455 -0.851,1.4728z"/>
   <path id="_217335808" class="fil7" d="M38.2287 181.466c-0.1637,-0.1964 -0.1637,-0.1964 -0.1964,-0.4255 0.5237,-0.6873 1.7019,-2.3238 2.5856,-2.651 0.0654,-0.2292 2.3565,-2.5856 3.9929,-4.4839 0.5237,-0.1964 1.2437,-1.2437 1.571,-1.6692 3.3056,-3.2074 6.5785,-6.5458 9.9496,-9.7205 2.8146,-3.011 5.6621,-6.0221 8.5095,-9.0331 0.2945,-0.3928 1.5382,-3.0111 2.4546,-2.4874 0,0.8837 -3.7965,5.2039 -4.2874,5.4002 -0.0982,0.2292 -0.3273,0.3273 -3.6984,4.1566 -0.2291,0.0982 -0.3273,0.3273 -0.8837,0.7528 -2.0619,2.7165 -5.1384,4.7784 -7.2658,7.4294 -3.5347,3.3057 -6.9058,6.9713 -10.2114,10.506 -0.6219,0.5564 -1.7674,2.0619 -2.5201,2.2256z"/>
   <path id="_217335904" class="fil7" d="M95.8315 178.651c-0.1637,-1.931 1.4401,-4.8766 2.6837,-6.3167 0.0982,0.0327 0.1964,0.0655 0.2946,0.1309 -0.2291,2.0292 -1.7674,4.2875 -2.651,6.1203 -0.1309,0 -0.2291,0.0328 -0.3273,0.0655z"/>
   <path id="_217335712" class="fil7" d="M116.123 176.229c-0.0327,-0.1963 -0.0655,-0.36 -0.0982,-0.5236 1.4073,-3.0438 2.8147,-6.0549 4.222,-9.0659 0.2291,-0.0327 0.4582,-0.0655 0.7201,-0.0655 -0.2946,1.571 -1.4074,3.0111 -1.8656,4.5821 -0.3273,0.6873 -1.8001,4.7784 -2.9783,5.0729z"/>
   <path id="_217335280" class="fil7" d="M107.516 174.265c-0.5891,-0.5891 0.6218,-2.291 0.9164,-2.8474 0.5891,-2.651 1.6364,-5.1384 2.651,-7.6913 0.1637,0.0327 0.3273,0.0982 0.491,0.1637 -0.1637,1.3091 -0.7855,2.9783 -1.4074,4.1238 -0.4582,1.6037 -1.2109,5.3021 -2.651,6.2512z"/>
   <path id="_217335376" class="fil7" d="M124.077 173.84c-0.4582,-1.4073 1.5055,-4.4184 2.3565,-5.6293 0.4255,0 0.4255,0 0.5236,0.1309 0,0.36 -2.4219,5.3675 -2.8801,5.4984z"/>
   <path id="_217335448" class="fil7" d="M46.5418 162.81c-0.0655,-0.0654 -0.1309,-0.1309 -0.1964,-0.1964 0.2619,-1.08 4.0584,-4.6475 5.2366,-4.6475 0,0.6546 -0.5236,1.0801 -1.08,1.3419 -0.8182,0.7855 -2.8474,3.2402 -3.9602,3.502z"/>
   <path id="_217334536" class="fil7" d="M40.6506 160.65c-0.0327,-3.7638 0.0655,-7.3967 0.2618,-11.1605 0.1964,-0.5237 0.1964,-0.5237 0.4255,-2.422 1.2764,-2.4874 1.571,-3.3711 4.3857,-3.9602 3.502,-0.2618 7.004,-0.4909 10.5387,-0.5236 0,0.4909 -1.7019,2.3892 -2.2583,2.4874 -2.1929,-1.4728 -6.153,-1.0474 -8.6404,-0.3601 0.0327,0.3273 0.0327,0.3273 0.2618,0.5892 1.0146,-0.0982 2.0292,-0.1637 3.0765,-0.2291 1.6365,0.2291 3.2729,0.4582 4.9421,0.6873 0,0.1963 0,0.1963 -0.851,1.2764 -4.0911,4.2875 -8.084,9.0004 -11.9133,13.517 -0.0982,0.0327 -0.1636,0.0655 -0.2291,0.0982z"/>
   <path id="_217334440" class="fil7" d="M53.5131 156.068c-0.0328,-0.2946 -0.0655,-0.5564 -0.0655,-0.8183 0.72,-0.4909 0.72,-0.4909 0.9164,-0.5236 0,-0.0982 0.0327,-0.1964 0.0655,-0.2619 3.4692,-3.5347 8.1822,-7.5931 11.0296,-11.8805 0.4582,0 0.4255,0.1963 0.4255,0.5564 -3.2402,4.1238 -6.8731,8.0185 -10.7351,11.5532 -0.3928,0.491 -1.0146,1.2437 -1.6364,1.3747z"/>
   <path id="_217334752" class="fil7" d="M87.4202 154.857c-0.0328,-0.2618 -0.0328,-0.4909 -0.0328,-0.72 0.8183,-0.8183 1.2437,-2.7165 2.3565,-2.7165 0,1.0473 -1.3746,3.2728 -2.3237,3.4365z"/>
   <path id="_217334728" class="fil8" d="M137.594 152.239c-0.4582,-0.6546 0.0982,-1.6692 0.9164,-1.2764 0,0.5891 -0.4254,1.0473 -0.9164,1.2764z"/>
   <path id="_217335064" class="fil8" d="M140.441 148.868c0,-0.6873 -0.0654,-0.8509 0.2619,-1.4728 0.1963,0 0.3927,0 0.6218,0 0,0.72 -0.2618,1.1782 -0.8837,1.4728z"/>
   <path id="_217335112" class="fil7" d="M68.3392 148.54c0,-0.2291 0,-0.4582 0,-0.6546 0.0655,0 0.1309,0 0.2291,0 1.2765,-2.0946 2.9784,-3.9929 4.4184,-5.9566 0.1637,0 0.3273,0 0.5237,0 0,0.1636 0,0.3273 0,0.5237 -1.0473,1.4073 -3.5347,5.6293 -5.1712,6.0875z"/>
   <path id="_216647504" class="fil8" d="M142.503 146.348c-0.2619,-0.5564 -0.131,-1.0146 0.0327,-1.5383 0.1964,-0.0327 0.3927,-0.0654 0.6218,-0.0982 -0.0327,0.7528 -0.0982,1.1783 -0.6545,1.6365z"/>
   <path id="_216647456" class="fil8" d="M144.27 144.613c-0.0327,-1.211 -0.0654,-2.3893 -0.0654,-3.5675 1.1455,0 1.1782,3.3711 0.0654,3.5675z"/>
   <path id="_216647816" class="fil8" d="M146.332 142.649c-0.0654,-1.1128 -0.1309,-2.2255 -0.1963,-3.3383 -0.2946,-0.5237 -0.3928,-0.7528 -0.3928,-1.3746 0.1637,-0.0328 0.3273,-0.0328 0.5237,-0.0328 0.6873,1.4074 0.9491,3.0766 0.4254,4.6475 -0.1309,0.0328 -0.2618,0.0655 -0.36,0.0982z"/>
   <path id="_216284304" class="fil7" d="M62.6771 135.645c-1.0473,-4.9093 -0.8182,-10.375 0.491,-15.2189 1.2437,-1.44 2.1928,-2.1601 3.8292,-3.1747 3.2075,-1.0146 6.4149,-1.9964 9.6551,-2.9783 -1.5383,2.9783 -3.0111,5.9566 -4.8766,8.7713 -1.0801,0.5237 -3.8293,6.0221 -4.713,7.855 -1.3419,1.6691 -2.8147,3.2401 -4.3857,4.7456z"/>
   <path id="_216284328" class="fil8" d="M136.415 128.576c-0.5891,-0.3927 -0.9492,-1.931 -0.9492,-2.6838 0.1964,-0.1963 0.2291,-0.2291 0.5237,-0.2291 0.4909,0.6873 0.7855,1.8983 0.7855,2.7493 -0.1309,0.0327 -0.2618,0.0982 -0.36,0.1636z"/>
   <path id="_214001232" class="fil8" d="M133.993 128.118c-0.2945,-0.36 -0.6218,-1.6364 -0.2291,-2.0292 0.851,0.0655 0.6546,1.211 0.6873,1.8656 -0.1636,0.0327 -0.3272,0.0981 -0.4582,0.1636z"/>
   <path id="_216650168" class="fil8" d="M132.488 127.79c-0.5236,-0.5236 -0.6218,-0.6546 -0.6218,-1.3419 0.1963,0 0.4254,0 0.6545,0 0.1964,0.4255 0.4255,0.8183 0.4255,1.2765 -0.1636,0 -0.3273,0.0327 -0.4582,0.0654z"/>
   <path id="_214001184" class="fil7" d="M65.2954 120.917c-0.0981,-0.0328 -0.1636,-0.0655 -0.2291,-0.0982 0,-1.6365 6.5785,-3.8948 8.0186,-3.6657 1.3092,1.3092 -3.2074,1.931 -3.8293,2.2911 -1.5055,0.2291 -2.5528,0.9164 -3.9602,1.4728z"/>
   <path id="_216650720" class="fil9" d="M171.861 115.91c-1.8982,-0.3273 -3.8292,-0.6545 -5.5966,-1.4073 -0.4255,-1.2764 -0.6873,-2.5529 -0.7528,-3.8947 4.1566,0.6545 8.1495,1.5055 12.437,1.6037 -0.36,0.9818 -0.72,1.9637 -1.0473,2.9456 -1.3092,0.9491 -3.5347,0.72 -5.0403,0.7527z"/>
   <path id="_216650792" class="fil9" d="M188.422 115.026c-0.3928,-2.8147 -0.3928,-2.8147 -0.3601,-3.2075 1.8001,-0.3273 3.6329,-0.6545 5.4658,-0.9818 4.8438,-1.3092 4.8438,-1.3092 5.2366,-1.5383 0,1.0473 -0.1637,2.0947 -0.36,3.142 -1.4074,1.4073 -5.793,2.1601 -7.5604,2.5201 -0.8182,0 -1.6365,0.0327 -2.4219,0.0655z"/>
   <path id="_45149512" class="fil7" d="M79.1398 104.356c-3.3711,-2.2582 -5.9894,-4.0911 -8.4768,-7.233 -0.1964,-0.5237 -0.1964,-0.5237 -0.4255,-0.7201 -0.2946,-1.7673 -0.3927,-3.2729 0.1636,-5.0075 1.7674,-2.1601 1.7674,-2.1601 2.0292,-2.6838 2.3238,-2.1273 4.5821,-4.0911 7.2004,-5.8912 0.1636,-0.0327 0.3273,-0.0654 0.4909,-0.0654 -0.7527,7.1349 -0.9491,14.4662 -0.3273,21.601 -0.2291,0 -0.4582,0 -0.6545,0z"/>
   <path id="_216702240" class="fil8" d="M198.567 99.1198c0,-0.3273 -0.0982,-0.3927 0.0982,-0.72 0.5564,0 0.6546,0.0982 0.5891,0.6546 -0.2291,0 -0.4582,0.0327 -0.6873,0.0654z"/>
   <path id="_216702144" class="fil7" d="M83.6236 98.3671c-0.3927,-0.5892 -0.1309,-1.0801 0.1637,-1.6365 0.2291,-0.0327 0.4582,-0.0654 0.72,-0.0654 -0.0655,0.6218 -0.3928,1.3091 -0.8837,1.7019z"/>
   <path id="_216701928" class="fil8" d="M201.84 98.0398c-0.72,-0.5564 -0.3273,-1.0474 0.3927,-1.0474 0.0328,0.1637 0.0655,0.3601 0.0982,0.5564 -0.1636,0.1637 -0.3273,0.3273 -0.4909,0.491z"/>
   <path id="_216701784" class="fil8" d="M204.589 95.9451c-0.2291,-0.4909 -0.3273,-1.2437 0.36,-1.2437 0.4255,0.491 0.0655,0.9819 -0.36,1.2437z"/>
   <path id="_216702024" class="fil7" d="M71.2848 94.1123c0,-0.7855 0,-1.0473 0.2946,-1.8001 0.1964,0 0.3927,0 0.6218,0 0,0.7855 -0.0654,1.0801 -0.4582,1.7347 -0.1636,0 -0.3273,0.0327 -0.4582,0.0654z"/>
   <path id="_216702192" class="fil7" d="M83.6236 93.785c-0.5236,-0.7855 1.571,-3.7311 2.3238,-3.6656 0,0.9491 -1.5383,3.2729 -2.3238,3.6656z"/>
   <path id="_216702384" class="fil8" d="M206.651 92.9013c-0.1963,-0.36 -0.1963,-0.36 -0.2618,-1.1455 0.1964,0 0.3928,0 0.6219,0 0.0654,0.6219 0.2945,0.9819 -0.3601,1.1455z"/>
   <path id="_216702360" class="fil7" d="M72.9213 91.5922c-0.6873,-1.3746 4.0256,-5.3348 5.5312,-4.9748 0,0.2291 0.0327,0.4909 0.0654,0.7528 -2.3237,1.44 -2.3237,1.44 -2.9456,1.9637 -0.6218,0.72 -1.7346,2.0292 -2.651,2.2583z"/>
   <path id="_216702336" class="fil8" d="M208.059 89.9557c-0.2619,-0.4254 -0.4582,-0.8836 -0.36,-1.3746 0.8509,-0.4254 0.72,0.7528 0.72,1.3092 -0.1309,0 -0.2618,0.0327 -0.36,0.0654z"/>
   <path id="_216647792" class="fil7" d="M113.93 89.3012c-1.2109,-0.6873 -1.44,-0.9819 -1.3418,-2.4547 1.6037,-1.7346 4.3202,-3.9275 5.6621,-0.851 0,1.8001 -1.3747,2.422 -2.8475,3.2402 -0.4909,0 -0.9818,0.0327 -1.4728,0.0655z"/>
   <path id="_216702312" class="fil7" d="M113.93 88.0902c-0.8182,-0.9819 1.0146,-2.1928 1.6038,-2.6838 2.651,0 0.9164,1.7674 -0.3928,2.5202 -0.4255,0.0327 -0.8182,0.0981 -1.211,0.1636z"/>
   <path id="_216701856" class="fil8" d="M209.499 87.7629c-0.1636,-0.3273 -2.0619,-2.291 -0.7527,-2.1274 0.8509,0.7528 1.0146,0.9819 1.1128,2.062 -0.1309,0 -0.2619,0.0327 -0.3601,0.0654z"/>
   <path id="_216702408" class="fil7" d="M85.3582 87.6647c-0.6545,-0.9818 0.0328,-1.5055 0.9819,-1.6364 -0.0654,0.6546 -0.4909,1.2437 -0.9819,1.6364z"/>
   <path id="_214965392" class="fil8" d="M210.579 86.0283c-0.2946,-0.2946 -0.3927,-0.5564 -0.5891,-0.9492 -0.5237,-0.2618 -1.1128,-0.4254 -0.7855,-1.08 1.1128,0 1.6364,0.9819 1.6364,1.9637 -0.0982,0 -0.1963,0.0327 -0.2618,0.0655z"/>
   <path id="_216711440" class="fil7" d="M86.0128 83.5082c-0.3273,-0.5564 -0.36,-0.7855 0.1637,-1.1783 0.0982,0.0327 0.1963,0.0982 0.3273,0.1637 0,0.3927 0,0.9164 -0.491,1.0146z"/>
   <path id="_216711152" class="fil7" d="M125.713 81.348c-1.2109,-0.72 -1.4728,-0.6545 -1.6037,-2.1928 0.9164,-1.6692 2.0292,-2.8474 4.0584,-2.6838 0.3928,0.2291 0.7855,0.4583 1.211,0.7201 0.7527,2.4219 -1.571,3.8947 -3.6657,4.1565z"/>
   <path id="_216711128" class="fil7" d="M86.4383 81.1189c-0.1309,-0.0654 -0.2618,-0.1309 -0.36,-0.1963 0,-0.6546 0.0327,-0.6219 0.6218,-0.6219 0,0.1964 0,0.3928 0,0.6219 -0.0982,0.0654 -0.1963,0.1309 -0.2618,0.1963z"/>
   <path id="_216711416" class="fil7" d="M125.615 80.1371c0,-1.3746 1.1127,-3.2074 2.651,-2.4547 0,1.6037 -1.2437,1.931 -2.651,2.4547z"/>
   <path id="_216711200" class="fil7" d="M114.389 78.1733c-1.1128,-0.6218 -2.062,-1.2764 -1.4728,-2.6837 1.9964,-1.9965 3.6329,-3.0765 5.8584,-0.851 0,0.4255 0,0.851 0,1.3092 -1.6037,1.4728 -2.2255,1.7346 -4.3856,2.2255z"/>
   <path id="_216711104" class="fil8" d="M210.906 78.1733c-0.2618,-0.1636 -0.5237,-0.2945 -0.7855,-0.4254 -0.0327,-0.1637 -0.0327,-0.3273 -0.0327,-0.491 0.4582,0 0.7527,0.0655 1.08,0.3273 0,0.1637 0,0.3273 0,0.5237 -0.0982,0 -0.1964,0.0327 -0.2618,0.0654z"/>
   <path id="_216710912" class="fil7" d="M114.258 77.0933c-0.0982,-1.7019 0.3273,-1.7019 1.5056,-2.6838 0.4909,0.0328 0.9818,0.0655 1.4728,0.0982 0.2618,0.2618 0.2291,0.4582 0.2291,0.851 -1.0146,1.0146 -1.931,1.2109 -3.2075,1.7346z"/>
   <path id="_216711080" class="fil8" d="M210.252 71.5294c-0.2618,-0.1964 -0.72,-0.2946 -0.8182,-0.4582 0,-0.8837 0.5564,-0.6219 1.1128,-0.2946 0,0.1964 0.0327,0.4255 0.0654,0.6546 -0.1309,0.0327 -0.2618,0.0655 -0.36,0.0982z"/>
   <path id="_216683576" class="fil7" d="M81.7581 70.973c-0.3928,-0.7855 -0.3928,-0.7855 -0.9164,-1.5055 -1.3419,-3.0765 -1.3419,-3.0765 -1.5383,-3.3056 -1.0801,-3.6984 -1.0801,-3.6984 -1.3092,-4.0912 -0.4254,-2.4546 -0.3272,-4.9093 -0.3272,-7.3967 0.1963,-0.4909 0.1963,-0.4909 0.3272,-1.7673 0.4255,-0.8837 0.851,-1.7674 1.3092,-2.6183 1.0146,-0.7201 1.9637,-1.4728 3.1092,-1.9965 0.8837,-0.2291 1.7674,-0.4255 2.6838,-0.6219 8.215,-0.8836 8.4441,-1.0146 9.2296,-0.9818 0,0.1309 0,0.2618 0,0.4255 -3.6002,2.7492 -5.7931,7.0367 -8.2477,10.735 -0.9819,2.2256 -2.5529,4.713 -2.7492,7.1676 -0.6546,0.3273 -1.3092,5.4003 -1.3419,5.9567 -0.0982,0 -0.1637,0 -0.2291,0z"/>
   <path id="_216683552" class="fil8" d="M170.65 63.2163c-2.8474,-1.7019 0.2618,-4.4184 2.3565,-1.8656 -0.1964,1.4728 -1.0146,1.7019 -2.3565,1.8656z"/>
   <path id="_216683096" class="fil8" d="M193.233 59.6161c-1.7019,-1.1455 -0.6873,-2.4874 0.9819,-2.6838 0.36,0.2291 0.7527,0.4582 1.1455,0.6873 0,1.5055 -0.7855,1.8001 -2.1274,1.9965z"/>
   <path id="_216683528" class="fil9" d="M193.462 58.4378c0.0655,-0.1963 0.1309,-0.3927 0.2291,-0.5564 0.1636,-0.0327 0.3273,-0.0654 0.5237,-0.0981 -0.0982,0.1636 -0.1964,0.36 -0.2946,0.5564 -0.1636,0.0327 -0.3273,0.0654 -0.4582,0.0981z"/>
   <path id="_216683072" class="fil8" d="M161.715 56.6705c-3.2074,-0.6219 -0.0327,-5.3676 1.9965,-1.9965 -0.1637,1.5383 -0.5237,1.7019 -1.9965,1.9965z"/>
   <path id="_216683000" class="fil8" d="M168.686 55.034c-1.0145,-0.6218 -1.1782,-1.0146 -0.8509,-2.1601 1.5055,-1.0473 1.8328,-0.8509 3.2074,0.2946 0,1.6692 -0.9164,1.7674 -2.3565,1.8655z"/>
   <path id="_216683504" class="fil9" d="M169.013 54.1831c-0.2618,-0.3928 -0.36,-0.4582 -0.0327,-0.9492 0.2291,0 0.4582,0 0.72,0 0,0.4255 -0.2945,0.7201 -0.6873,0.9492z"/>
   <path id="_216683120" class="fil8" d="M192.251 51.7612c-0.72,-0.5237 -1.6364,-1.702 -0.1309,-2.1929 0,-0.0982 0.0327,-0.1964 0.0655,-0.2618 1.3091,-0.5237 2.9783,0.9164 1.7673,2.1274 -0.3927,0.1636 -0.3927,0.1636 -1.7019,0.3273z"/>
   <path id="_216683624" class="fil9" d="M192.578 50.6811c-0.0654,-0.0982 -0.1309,-0.1636 -0.1964,-0.2291 0.2292,-0.3273 0.2292,-0.3273 0.4583,-0.36 0.0654,0.0982 0.1309,0.2291 0.2291,0.36 -0.1637,0.0655 -0.3273,0.1309 -0.491,0.2291z"/>
   <path id="_216683672" class="fil8" d="M198.142 50.6811c-1.3419,-1.0801 -0.6218,-2.5856 0.9819,-2.5856 0.5891,0.2946 0.5891,0.2946 1.2437,0.8837 0,1.571 -0.9164,1.6037 -2.2256,1.7019z"/>
   <path id="_216683456" class="fil7" d="M83.6236 50.452c-0.1964,-0.1964 -0.2291,-0.36 -0.1636,-0.6873 1.5382,-0.9491 4.6147,-1.1783 6.2185,-0.4582 0.0981,0.1309 0.1963,0.2618 0.3272,0.3927 -0.0327,0.2619 -0.0327,0.2619 -0.1636,0.36 -1.8655,0 -4.4184,-0.2618 -6.2185,0.3928z"/>
   <path id="_216683432" class="fil9" d="M198.371 49.601c0,-0.1636 0.0328,-0.3272 0.0655,-0.4909 0.2291,-0.0327 0.4582,-0.0654 0.6873,-0.0654 -0.2291,0.3272 -0.3273,0.4909 -0.7528,0.5563z"/>
   <path id="_216683192" class="fil7" d="M100.086 49.3719c-0.0327,-0.0981 -0.0654,-0.1963 -0.0982,-0.2945 0.491,-0.8182 1.8983,-0.4582 2.7493,-0.4255 0,0.1637 0,0.3273 0,0.5237 -0.7855,0.1309 -0.7855,0.1309 -2.6511,0.1963z"/>
   <path id="_216683648" class="fil7" d="M102.279 47.9646c-0.0982,-0.0655 -0.1637,-0.0982 -0.2291,-0.1309 0.0654,-0.1964 0.1636,-0.3928 0.2618,-0.5891 1.0146,-0.1637 1.6692,-0.1964 2.7165,0 0.0327,0.1309 0.0655,0.2618 0.1309,0.3927 -0.2618,0.2618 -2.2583,0.2291 -2.8801,0.3273z"/>
   <path id="_216683408" class="fil8" d="M185.476 46.6554c-0.5237,-1.08 1.2109,-2.6183 1.931,-3.3383 0.1963,0 0.3927,0 0.6218,0 0,0.5891 -2.4547,3.3056 -2.5528,3.3383z"/>
   <path id="_216683384" class="fil7" d="M105.094 45.4445c-0.0328,-0.2619 -0.0328,-0.491 -0.0328,-0.7201 0.6873,-0.1963 1.6365,-0.1963 2.1601,0.3273 -0.0327,0.0982 -0.0654,0.1964 -0.0982,0.3273 -0.6873,0 -1.3746,0.0327 -2.0291,0.0655z"/>
   <path id="_216683168" class="fil7" d="M108.367 43.0553c-0.36,-0.1637 -0.6218,-0.2291 -0.36,-0.6873 0.6219,-0.1637 1.3092,-0.2619 1.931,-0.0328 0,0.1964 0.0328,0.3928 0.0655,0.5892 -0.5564,0.0327 -1.1128,0.0654 -1.6365,0.1309z"/>
   <path id="_216683360" class="fil7" d="M111.312 41.2879c-0.1309,-0.0654 -0.2618,-0.1309 -0.36,-0.1964 0,-0.1636 0,-0.3273 0.0327,-0.4909 1.0474,0 1.8656,0.5237 0.3273,0.6873z"/>
   <path id="_216683336" class="fil7" d="M114.258 40.1097c-0.1636,-0.3273 -0.1636,-0.3273 -0.1636,-0.7201 0.8509,0 0.8509,0 0.9819,0.131 -0.0328,0.1636 -0.0655,0.3272 -0.0982,0.4909 -0.2619,0.0327 -0.491,0.0654 -0.7201,0.0982z"/>
   <path id="_216682976" class="fil7" d="M104.014 39.4551c-0.0655,-0.3928 0.2618,-2.4547 0.5891,-2.651 1.2437,-4.5494 2.9129,-10.3424 7.5931,-12.4043 5.8585,-1.0473 11.2915,-0.0327 15.7753,3.9275 -0.2291,0.5891 -3.9602,1.3419 -4.582,1.4728 -5.793,2.3565 -5.793,2.3565 -7.2004,2.8147 -3.5347,2.3564 -7.9531,3.5347 -11.2914,6.3166 -0.36,0.1309 -0.6219,0.4255 -0.8837,0.5237z"/>
   <path id="_216683720" class="fil7" d="M117.203 38.5714c-0.1963,-0.0982 -0.3927,-0.1964 -0.5891,-0.2945 0,-0.1637 0,-0.2946 0,-0.4255 0.4255,-0.0982 0.6873,-0.0327 1.0801,0.1309 0.0327,0.1309 0.0654,0.2618 0.0982,0.4255 -0.1964,0.0327 -0.3928,0.0982 -0.5892,0.1636z"/>
   <path id="_216683312" class="fil7" d="M118.84 37.6877c-0.0982,-0.3273 -0.1964,-0.3273 -0.0328,-0.6545 0.4255,0 0.5237,-0.0655 0.851,0.1636 0,0.1309 0,0.2618 0,0.4255 -0.2946,0 -0.5564,0.0327 -0.8182,0.0654z"/>
   <path id="_216683480" class="fil7" d="M121.36 36.7059c-0.1636,-0.1964 -0.1636,-0.1964 -0.1636,-0.5892 0.1309,-0.1309 0.1309,-0.1309 0.9491,-0.0981 0.1309,0.2291 0.1309,0.2291 0.1309,0.5236 -0.3273,0.0328 -0.6218,0.0982 -0.9164,0.1637z"/>
   <path id="_216683264" class="fil7" d="M124.535 35.724c-0.1964,-0.36 -0.1964,-0.36 -0.1636,-0.5237 0.2945,-0.0981 0.5563,-0.2618 0.8509,-0.0654 0,0.1636 0,0.3273 0,0.5236 -0.2291,0 -0.4582,0.0328 -0.6873,0.0655z"/>
   <path id="_216683240" class="fil7" d="M123.226 28.7528c-1.8,-1.0146 -3.0437,-1.8001 -5.0729,-2.4874 -0.1309,-0.2291 -0.1309,-0.2291 -0.1309,-0.6219 2.3564,0 3.8947,1.0146 5.7602,2.3892 0,0.5891 -0.0981,0.6546 -0.5564,0.7201z"/>
   <path id="_216683600" class="fil7" d="M161.944 28.0982c-6.7094,-1.4728 -13.6807,-1.3746 -20.521,-1.3746 -1.7346,0.2291 -1.7346,0.2291 -5.3348,0.3927 0,-1.1128 2.7492,-3.8293 3.2729,-4.4838 2.0946,-1.5383 2.0946,-1.5383 3.9274,-2.6838 3.2729,-1.5383 5.6949,-1.6037 9.2623,-0.9819 1.6037,0.9164 3.2074,1.8001 4.6802,2.9129 0,0.0654 0,0.1309 0,0.2291 0.4255,0 1.2765,1.08 1.571,1.3746 2.6838,3.3384 2.6838,3.3384 3.4366,4.4184 -0.0982,0.0655 -0.1964,0.1309 -0.2946,0.1964z"/>
   <path id="_216683216" class="fil7" d="M157.231 26.5599c-0.3927,-0.1964 -0.3927,-0.1964 -0.6873,-0.4909 -0.36,-1.4728 -2.8801,-3.3711 -4.3202,-4.1239 -0.0982,-0.1309 -0.1963,-0.2618 -0.2945,-0.36 0.6218,-1.8982 5.5311,3.6002 5.8912,4.2548 0,0.1636 0,0.36 0,0.5564 -0.1964,0.0327 -0.3928,0.0982 -0.5892,0.1636z"/>
   <path id="_216683024" class="fil7" d="M114.814 26.1344c-0.1963,-0.0981 -0.3927,-0.1636 -0.5564,-0.2291 0.0655,-0.5891 0.0655,-0.5891 0.1964,-0.72 2.1601,0.0327 2.1601,0.0327 2.3565,0.1637 -0.0327,0.1963 -0.0655,0.3927 -0.0982,0.5891 -0.4909,0.1309 -0.4909,0.1309 -1.8983,0.1963z"/>
   <ellipse id="_216683696" class="fil10 str5" cx="163.384" cy="60.381" rx="15.8931" ry="22.2503"/>
   <ellipse id="_216683048" class="fil5 str6" cx="171.061" cy="62.6271" rx="7.67656" ry="12.9759"/>
   <ellipse id="_216683144" class="fil10 str5" cx="192.769" cy="55.3099" rx="12.2582" ry="17.1615"/>
   <ellipse id="_216683288" class="fil5 str6" cx="198.69" cy="57.0423" rx="5.92085" ry="10.0082"/>
   <path id="_216683768" class="fil11 str6" d="M132.532 98.7016c9.8131,9.2855 15.1904,15.7425 25.5193,19.7034 14.6507,4.6199 21.5737,0.9901 24.4464,-6.1609l-3.53 -0.0253 -2.0028 3.8003 -4.9441 0.8188 -6.4146 -1.7777 -0.5629 -4.5165c-11.5336,-1.5378 -21.9659,-5.8593 -32.5113,-11.8421z"/>
  </g>
  <path class="fil2" d="M61.855 112.013c5.7023,0 10.1747,0.8344 13.4358,2.4949 2.4693,1.8692 3.7085,4.047 3.7085,6.5253 0,3.3378 -1.7797,6.9175 -5.3483,10.7309 -1.584,1.0096 -4.3048,0.6926 -8.1622,-0.9513 -7.1186,-1.1265 -12.6067,0.2837 -16.4828,4.2306 -0.9317,2.3782 0.0653,3.3294 3.0003,2.8621 2.4691,0 6.3359,-0.5757 11.5724,-1.7189 8.1529,-1.1015 14.4422,-0.6592 18.8588,1.3518 5.0595,3.4545 7.482,7.7352 7.2677,12.8586 -0.0932,3.6132 -1.3417,7.4683 -3.7457,11.557 -2.3666,3.1124 -4.9662,5.791 -7.8081,8.0189 -5.5253,4.0471 -15.3181,7.8187 -29.369,11.3233 -3.7829,0.6342 -6.7832,0.9513 -9.0101,0.9513 -5.5998,0 -9.9884,-0.7009 -13.1564,-2.1028 -3.5128,-1.744 -5.2644,-4.1805 -5.2644,-7.3096 0,-3.1793 0.3262,-5.9246 0.9784,-8.2359 0.3633,-2.1195 1.4628,-4.6812 3.3077,-7.6769 1.6864,-1.9275 3.1214,-2.8871 4.286,-2.8871 1.2206,-0.2253 6.0752,0.4089 14.5727,1.9109 6.1123,0.5507 11.9731,-0.0835 17.5822,-1.9109 6.7367,-2.8371 10.0164,-5.0066 9.8581,-6.5253 0,-1.3351 -1.5095,-1.7857 -4.5097,-1.3434 -3.3637,0.3921 -9.1499,1.6688 -17.3587,3.8384 -2.8978,0.6341 -5.7489,0.9512 -8.5722,0.9512 -4.258,0.242 -7.5192,-0.9429 -9.774,-3.5714 -1.8915,-3.079 -2.9165,-6.6838 -3.0842,-10.8059 0,-8.3945 4.137,-14.7946 12.4203,-19.2088 1.3977,-1.2933 5.0502,-2.6952 10.9482,-4.2055 3.8389,-0.7677 7.1186,-1.1515 9.8487,-1.1515z"/>
  <path class="fil2" d="M111.704 135.994c6.895,0.7343 11.5445,4.5643 13.9484,11.4902 1.7983,8.8617 1.4349,16.4801 -1.0901,22.8552 -3.224,6.4168 -7.6964,9.4792 -13.4081,9.1621 -6.9136,-0.3505 -12.0755,-4.6144 -15.4765,-12.7836 -2.2175,-9.7128 -1.5093,-17.3479 2.1338,-22.9053 3.96,-4.9899 8.5908,-7.5933 13.8925,-7.8186zm-1.0435 16.7638c-2.1058,0.8845 -3.168,3.2293 -3.1867,7.0426 0.1957,3.6549 1.6865,5.5824 4.4725,5.791 2.7114,-0.3087 4.0997,-2.837 4.1462,-7.6017 -0.6707,-3.83 -2.4784,-5.574 -5.432,-5.2319z"/>
  <path class="fil2" d="M158.105 114.775c4.4073,-0.2336 7.6964,0.242 9.8581,1.4186 1.2764,0.9429 1.9846,2.2863 2.1336,4.0303 0.2703,3.296 -0.354,7.2262 -1.8635,11.8073 -1.09,3.8801 -2.5437,5.8828 -4.3605,6.0163l-2.2735 -0.4423c-5.4416,-0.5841 -10.2587,0.8678 -14.4609,4.3725 -2.4412,2.5116 -3.5407,5.2152 -3.3078,8.1191 0.4752,3.2793 2.5624,5.2402 6.2521,5.8911 2.8605,0.0834 5.9167,-1.5771 9.1685,-4.99l0.5777 -0.0166c1.435,0.1084 3.0189,2.9288 4.752,8.4528l-0.028 0.4923c-1.7144,3.4379 -3.9972,6.1748 -6.8577,8.2109 -4.4166,3.5547 -9.0287,5.3153 -13.8366,5.282 -4.2768,0.05 -8.1342,-2.7871 -11.5724,-8.5113 -1.4535,-3.2376 -2.3946,-7.3264 -2.8139,-12.2662 -0.2516,-5.0901 0.587,-10.08 2.5158,-14.9865 1.6025,-4.0136 3.4009,-7.2596 5.4041,-9.7546 6.3826,-7.827 13.2962,-12.1994 20.7129,-13.1257z"/>
  <path class="fil2" d="M192.534 101.057c5.3483,0 8.5722,3.6465 9.6624,10.9478 0.708,16.6303 1.1367,26.5434 1.2764,29.756 0.0373,0.2587 0.1864,0.3922 0.438,0.3922 0.6616,-0.292 2.5902,-2.1528 5.7862,-5.574 3.2798,-4.8564 5.6371,-8.1191 7.072,-9.7796 0.8014,-0.7677 1.6585,-1.1515 2.5717,-1.1515 2.2548,0 4.901,2.2362 7.9385,6.7005 0.9504,2.1695 1.5095,4.0887 1.6959,5.7659 0,3.2794 -1.4908,5.4573 -4.4818,6.5337 -5.3111,1.5771 -10.1934,3.9385 -14.6566,7.0843 2.2549,-0.9596 4.9942,-1.5937 8.2182,-1.9025l1.7143 0c4.4819,0 7.5473,1.5938 9.2059,4.7897 0.5403,1.285 0.764,2.5117 0.6522,3.6632 -0.5591,3.6047 -3.0655,8.4028 -7.51,14.4024l-1.5001 1.9025 0 0.2002c4.4258,-1.1598 7.1466,-1.7356 8.1621,-1.7356 1.2206,0.1168 1.7238,0.8261 1.5002,2.1278 -0.8293,5.0984 -2.9816,9.1872 -6.4385,12.2662 -4.2767,3.5547 -8.9914,5.2236 -14.144,5.015 -2.3759,-0.1919 -4.3047,-1.3852 -5.7862,-3.5714 -0.4846,-1.1181 -0.559,-2.303 -0.2143,-3.538 0,-2.2196 1.5653,-5.8077 4.6961,-10.7642 3.2145,-5.766 4.7239,-9.5376 4.5003,-11.315 -0.9038,-1.1599 -2.1151,-1.7356 -3.6246,-1.7356 -4.5749,0.5507 -6.8576,1.1348 -6.8576,1.7356 -0.8759,9.7796 -1.9474,16.8222 -3.224,21.1196 -2.1616,5.6241 -4.519,8.4362 -7.0626,8.4362 -3.3917,0 -7.3143,-1.0848 -11.7961,-3.2544 -1.5653,-0.776 -2.7114,-2.2529 -3.4381,-4.4225l-0.2237 -0.9512c3.1121,-10.347 4.6867,-21.6787 4.724,-33.9783 0,-10.2051 -1.4256,-20.3185 -4.286,-30.3401 -0.848,-2.2196 -1.4256,-4.3975 -1.7145,-6.5253 0,-3.5046 3.6432,-6.9008 10.9481,-10.1718 2.348,-1.2266 4.4072,-1.9359 6.1962,-2.1278z"/>
  <path class="fil3 str2" d="M61.855 112.013c5.7023,0 10.1747,0.8344 13.4358,2.4949 2.4693,1.8692 3.7085,4.047 3.7085,6.5253 0,3.3378 -1.7797,6.9175 -5.3483,10.7309 -1.584,1.0096 -4.3048,0.6926 -8.1622,-0.9513 -7.1186,-1.1265 -12.6067,0.2837 -16.4828,4.2306 -0.9317,2.3782 0.0653,3.3294 3.0003,2.8621 2.4691,0 6.3359,-0.5757 11.5724,-1.7189 8.1529,-1.1015 14.4422,-0.6592 18.8588,1.3518 5.0595,3.4545 7.482,7.7352 7.2677,12.8586 -0.0932,3.6132 -1.3417,7.4683 -3.7457,11.557 -2.3666,3.1124 -4.9662,5.791 -7.8081,8.0189 -5.5253,4.0471 -15.3181,7.8187 -29.369,11.3233 -3.7829,0.6342 -6.7832,0.9513 -9.0101,0.9513 -5.5998,0 -9.9884,-0.7009 -13.1564,-2.1028 -3.5128,-1.744 -5.2644,-4.1805 -5.2644,-7.3096 0,-3.1793 0.3262,-5.9246 0.9784,-8.2359 0.3633,-2.1195 1.4628,-4.6812 3.3077,-7.6769 1.6864,-1.9275 3.1214,-2.8871 4.286,-2.8871 1.2206,-0.2253 6.0752,0.4089 14.5727,1.9109 6.1123,0.5507 11.9731,-0.0835 17.5822,-1.9109 6.7367,-2.8371 10.0164,-5.0066 9.8581,-6.5253 0,-1.3351 -1.5095,-1.7857 -4.5097,-1.3434 -3.3637,0.3921 -9.1499,1.6688 -17.3587,3.8384 -2.8978,0.6341 -5.7489,0.9512 -8.5722,0.9512 -4.258,0.242 -7.5192,-0.9429 -9.774,-3.5714 -1.8915,-3.079 -2.9165,-6.6838 -3.0842,-10.8059 0,-8.3945 4.137,-14.7946 12.4203,-19.2088 1.3977,-1.2933 5.0502,-2.6952 10.9482,-4.2055 3.8389,-0.7677 7.1186,-1.1515 9.8487,-1.1515z"/>
  <path class="fil3 str2" d="M111.704 135.994c6.895,0.7343 11.5445,4.5643 13.9484,11.4902 1.7983,8.8617 1.4349,16.4801 -1.0901,22.8552 -3.224,6.4168 -7.6964,9.4792 -13.4081,9.1621 -6.9136,-0.3505 -12.0755,-4.6144 -15.4765,-12.7836 -2.2175,-9.7128 -1.5093,-17.3479 2.1338,-22.9053 3.96,-4.9899 8.5908,-7.5933 13.8925,-7.8186zm-1.0435 16.7638c-2.1058,0.8845 -3.168,3.2293 -3.1867,7.0426 0.1957,3.6549 1.6865,5.5824 4.4725,5.791 2.7114,-0.3087 4.0997,-2.837 4.1462,-7.6017 -0.6707,-3.83 -2.4784,-5.574 -5.432,-5.2319z"/>
  <path class="fil3 str2" d="M158.105 114.775c4.4073,-0.2336 7.6964,0.242 9.8581,1.4186 1.2764,0.9429 1.9846,2.2863 2.1336,4.0303 0.2703,3.296 -0.354,7.2262 -1.8635,11.8073 -1.09,3.8801 -2.5437,5.8828 -4.3605,6.0163l-2.2735 -0.4423c-5.4416,-0.5841 -10.2587,0.8678 -14.4609,4.3725 -2.4412,2.5116 -3.5407,5.2152 -3.3078,8.1191 0.4752,3.2793 2.5624,5.2402 6.2521,5.8911 2.8605,0.0834 5.9167,-1.5771 9.1685,-4.99l0.5777 -0.0166c1.435,0.1084 3.0189,2.9288 4.752,8.4528l-0.028 0.4923c-1.7144,3.4379 -3.9972,6.1748 -6.8577,8.2109 -4.4166,3.5547 -9.0287,5.3153 -13.8366,5.282 -4.2768,0.05 -8.1342,-2.7871 -11.5724,-8.5113 -1.4535,-3.2376 -2.3946,-7.3264 -2.8139,-12.2662 -0.2516,-5.0901 0.587,-10.08 2.5158,-14.9865 1.6025,-4.0136 3.4009,-7.2596 5.4041,-9.7546 6.3826,-7.827 13.2962,-12.1994 20.7129,-13.1257z"/>
  <path class="fil3 str2" d="M192.534 101.057c5.3483,0 8.5722,3.6465 9.6624,10.9478 0.708,16.6303 1.1367,26.5434 1.2764,29.756 0.0373,0.2587 0.1864,0.3922 0.438,0.3922 0.6616,-0.292 2.5902,-2.1528 5.7862,-5.574 3.2798,-4.8564 5.6371,-8.1191 7.072,-9.7796 0.8014,-0.7677 1.6585,-1.1515 2.5717,-1.1515 2.2548,0 4.901,2.2362 7.9385,6.7005 0.9504,2.1695 1.5095,4.0887 1.6959,5.7659 0,3.2794 -1.4908,5.4573 -4.4818,6.5337 -5.3111,1.5771 -10.1934,3.9385 -14.6566,7.0843 2.2549,-0.9596 4.9942,-1.5937 8.2182,-1.9025l1.7143 0c4.4819,0 7.5473,1.5938 9.2059,4.7897 0.5403,1.285 0.764,2.5117 0.6522,3.6632 -0.5591,3.6047 -3.0655,8.4028 -7.51,14.4024l-1.5001 1.9025 0 0.2002c4.4258,-1.1598 7.1466,-1.7356 8.1621,-1.7356 1.2206,0.1168 1.7238,0.8261 1.5002,2.1278 -0.8293,5.0984 -2.9816,9.1872 -6.4385,12.2662 -4.2767,3.5547 -8.9914,5.2236 -14.144,5.015 -2.3759,-0.1919 -4.3047,-1.3852 -5.7862,-3.5714 -0.4846,-1.1181 -0.559,-2.303 -0.2143,-3.538 0,-2.2196 1.5653,-5.8077 4.6961,-10.7642 3.2145,-5.766 4.7239,-9.5376 4.5003,-11.315 -0.9038,-1.1599 -2.1151,-1.7356 -3.6246,-1.7356 -4.5749,0.5507 -6.8576,1.1348 -6.8576,1.7356 -0.8759,9.7796 -1.9474,16.8222 -3.224,21.1196 -2.1616,5.6241 -4.519,8.4362 -7.0626,8.4362 -3.3917,0 -7.3143,-1.0848 -11.7961,-3.2544 -1.5653,-0.776 -2.7114,-2.2529 -3.4381,-4.4225l-0.2237 -0.9512c3.1121,-10.347 4.6867,-21.6787 4.724,-33.9783 0,-10.2051 -1.4256,-20.3185 -4.286,-30.3401 -0.848,-2.2196 -1.4256,-4.3975 -1.7145,-6.5253 0,-3.5046 3.6432,-6.9008 10.9481,-10.1718 2.348,-1.2266 4.4072,-1.9359 6.1962,-2.1278z"/>
  <path class="fil4" d="M102.437 196.757c0,0.7871 -0.3858,1.4185 -1.1573,1.894 -0.7716,0.4756 -1.7706,0.7134 -2.997,0.7134 -0.9101,0 -1.6718,-0.1558 -2.2849,-0.4674 -0.6133,-0.3116 -1.1178,-0.9101 -1.5135,-1.7957 -0.3164,-0.6887 -0.8506,-1.3201 -1.6024,-1.8941 -0.7516,-0.5739 -1.6419,-0.8609 -2.6707,-0.8609 -1.0286,0 -1.909,0.2542 -2.6409,0.7626 -0.732,0.5083 -1.3552,1.1561 -1.8694,1.9432 -0.5144,0.7872 -0.92,1.6809 -1.2167,2.6813 -0.2968,1.0003 -0.5242,1.9925 -0.6824,2.9764 -0.1583,0.9839 -0.2671,1.9105 -0.3265,2.7796 -0.0593,0.8692 -0.089,1.5825 -0.089,2.1401 0,0.5248 0.0297,1.1479 0.089,1.8695 0.0594,0.7216 0.188,1.4677 0.3858,2.2385 0.1977,0.7707 0.4549,1.5415 0.7715,2.3122 0.3165,0.7708 0.732,1.4514 1.2463,2.0417 0.5143,0.5904 1.1375,1.0742 1.8695,1.4513 0.7319,0.3772 1.5925,0.5658 2.5815,0.5658 1.464,0 2.6114,-0.3116 3.4423,-0.9347 0.8308,-0.6232 1.3452,-1.4268 1.543,-2.4107 0.1978,-1.1479 0.5737,-1.9679 1.1276,-2.4599 0.5539,-0.4919 1.5827,-0.7379 3.0861,-0.7379 1.3452,0 2.3146,0.3444 2.9081,1.0331 0.5934,0.6888 0.8902,1.4103 0.8902,2.1647 0,1.3447 -0.3265,2.5582 -0.9792,3.6406 -0.6529,1.0823 -1.553,2.0007 -2.7004,2.755 -1.1474,0.7544 -2.5223,1.3365 -4.1247,1.7465 -1.6023,0.41 -3.3333,0.615 -5.193,0.615 -3.363,0 -6.1128,-0.5002 -8.2493,-1.5005 -2.1366,-1.0004 -3.7983,-2.2959 -4.9852,-3.8866 -1.187,-1.5907 -1.998,-3.3618 -2.4333,-5.3133 -0.4352,-1.9515 -0.6528,-3.8784 -0.6528,-5.7807 0,-1.2135 0.089,-2.509 0.267,-3.8865 0.1781,-1.3775 0.4847,-2.7305 0.92,-4.0588 0.4352,-1.3283 1.0385,-2.6074 1.8101,-3.8374 0.7716,-1.2299 1.7507,-2.304 2.9376,-3.2224 1.1871,-0.9183 2.6312,-1.6563 4.3325,-2.2138 1.7014,-0.5576 3.6796,-0.8364 5.9347,-0.8364 2.4135,0 4.6193,0.3526 6.6174,1.0578 1.998,0.7051 3.5708,1.8448 4.7181,3.4191 0.2375,0.3936 0.4452,0.8528 0.6232,1.3776 0.1781,0.5247 0.2671,1.1643 0.2671,1.9187z"/>
  <path class="fil4" d="M105.107 206.794c0,-1.2464 0.0988,-2.5583 0.2966,-3.9358 0.1978,-1.3775 0.5342,-2.7304 1.009,-4.0588 0.4748,-1.3283 1.088,-2.591 1.8398,-3.7881 0.7517,-1.1972 1.6617,-2.2467 2.73,-3.1487 1.0682,-0.9019 2.3343,-1.6235 3.7983,-2.1646 1.4638,-0.5412 3.1256,-0.8118 4.9851,-0.8118 2.8092,0 5.1633,0.5822 7.0625,1.7465 1.8991,1.1643 3.4223,2.6321 4.5698,4.4032 1.1473,1.7711 1.9684,3.7225 2.4628,5.8544 0.4946,2.1319 0.7419,4.1654 0.7419,6.1005 0,0.9511 -0.089,2.0334 -0.2671,3.247 -0.178,1.2135 -0.4847,2.4434 -0.9198,3.6897 -0.4352,1.2464 -1.0189,2.4599 -1.7507,3.6406 -0.732,1.1808 -1.652,2.2303 -2.7598,3.1486 -1.1078,0.9184 -2.4135,1.6563 -3.9169,2.2139 -1.5035,0.5576 -3.2642,0.8364 -5.282,0.8364 -1.9783,0 -3.7192,-0.2706 -5.2226,-0.8118 -1.5035,-0.5412 -2.7993,-1.2627 -3.8873,-2.1647 -1.0881,-0.9019 -1.9881,-1.9432 -2.7004,-3.124 -0.7122,-1.1807 -1.2759,-2.4024 -1.6913,-3.6652 -0.4155,-1.2627 -0.7024,-2.5172 -0.8606,-3.7635 -0.1583,-1.2464 -0.2373,-2.3943 -0.2373,-3.4438zm9.0801 0.1476c0,0.8199 0.0594,1.8858 0.1781,3.1978 0.1187,1.3119 0.3759,2.5746 0.7716,3.7881 0.3955,1.2136 0.9594,2.2631 1.6914,3.1487 0.7318,0.8855 1.6913,1.3283 2.8783,1.3283 0.8309,0 1.5431,-0.205 2.1365,-0.615 0.5935,-0.41 1.1079,-0.9429 1.5431,-1.5989 0.4351,-0.656 0.7913,-1.4021 1.0682,-2.2385 0.277,-0.8363 0.4946,-1.6727 0.6529,-2.509 0.1583,-0.8364 0.2671,-1.6481 0.3264,-2.4353 0.0594,-0.7871 0.0891,-1.4595 0.0891,-2.017 0,-0.8528 -0.0594,-1.9925 -0.1781,-3.4192 -0.1187,-1.4268 -0.3759,-2.8371 -0.7716,-4.231 -0.3956,-1.3939 -0.9694,-2.5992 -1.721,-3.616 -0.7518,-1.0167 -1.7805,-1.5251 -3.0862,-1.5251 -0.8308,0 -1.5529,0.2378 -2.1662,0.7134 -0.6132,0.4755 -1.1276,1.0905 -1.543,1.8449 -0.4155,0.7543 -0.7418,1.6071 -0.9792,2.5582 -0.2374,0.9511 -0.4253,1.8941 -0.5638,2.8288 -0.1385,0.9348 -0.2275,1.8285 -0.2671,2.6813 -0.0396,0.8527 -0.0594,1.5579 -0.0594,2.1155z"/>
  <path class="fil4" d="M137.452 190.805c0,-1.0167 0.4056,-1.9105 1.2166,-2.6812 0.8111,-0.7708 2.0475,-1.1562 3.7094,-1.1562 1.5034,0 2.72,0.3444 3.6498,1.0332 0.9297,0.6887 1.3947,1.5579 1.3947,2.6074 0,0.492 -0.1187,0.9676 -0.3561,1.4267 -0.2375,0.4592 -0.5638,0.8692 -0.9792,1.23 -0.4155,0.3607 -0.9299,0.6477 -1.543,0.8609 -0.6133,0.2132 -1.3157,0.3198 -2.1069,0.3198 -1.464,0 -2.6608,-0.3444 -3.5906,-1.0331 -0.9298,-0.6888 -1.3947,-1.558 -1.3947,-2.6075zm4.8666 4.9689c1.7013,0 2.8783,0.3608 3.5312,1.0823 0.6528,0.7216 0.9791,1.7383 0.9791,3.0503 0,1.0495 -0.0098,1.9351 -0.0296,2.6566 -0.0198,0.7216 -0.0396,1.3693 -0.0594,1.9433 -0.0198,0.574 -0.0395,1.1233 -0.0592,1.6481 -0.0198,0.5248 -0.0297,1.1151 -0.0297,1.7711l0 2.9518 -0.0593 5.1657 0 2.9518c0,2.7551 -1.5432,4.1326 -4.6292,4.1326 -0.9892,0 -1.7705,-0.1968 -2.3443,-0.5904 -0.5737,-0.3935 -0.999,-0.9019 -1.2759,-1.5251 -0.277,-0.6231 -0.4451,-1.2955 -0.5045,-2.0171 -0.0593,-0.7215 -0.089,-1.3939 -0.089,-2.017 0,-1.4104 0,-2.5993 0,-3.5668 0,-0.9676 0.0198,-1.8613 0.0593,-2.6813l0.1187 -3.0994c0.0396,-0.8199 0.0594,-1.7137 0.0594,-2.6812 0,-0.9676 0,-2.1565 0,-3.5668 0,-0.6888 0.0297,-1.3693 0.089,-2.0417 0.0594,-0.6724 0.2275,-1.2709 0.5044,-1.7957 0.277,-0.5248 0.7023,-0.9511 1.276,-1.2791 0.5738,-0.328 1.3947,-0.492 2.463,-0.492z"/>
  <path class="fil4" d="M154.188 223.127c-0.9495,0 -1.6914,-0.1148 -2.2254,-0.3444 -0.5342,-0.2296 -0.92,-0.5411 -1.1574,-0.9347 -0.2374,-0.3936 -0.3858,-0.861 -0.4451,-1.4021 -0.0594,-0.5412 -0.089,-1.1234 -0.089,-1.7465l0 -6.6908 0.178 -13.4309 0 -6.6908c0,-0.4919 0.1286,-0.9019 0.3858,-1.2299 0.2572,-0.328 0.5935,-0.6067 1.009,-0.8363 0.4153,-0.2296 0.8802,-0.3936 1.3946,-0.492 0.5144,-0.0984 1.0286,-0.1476 1.543,-0.1476 1.1475,0 2.0376,0.1476 2.6707,0.4428 0.6331,0.2952 1.2067,0.8691 1.7211,1.7219 0.7518,1.2463 1.5628,2.6566 2.4333,4.2309 0.8703,1.5743 1.7507,3.1814 2.641,4.8213 0.8901,1.6399 1.7705,3.247 2.6409,4.8214 0.8705,1.5743 1.6815,3.001 2.4333,4.2801 0,-1.2463 -0.0198,-2.6402 -0.0594,-4.1817 -0.0395,-1.5416 -0.0692,-3.1159 -0.089,-4.723 -0.0198,-1.6071 -0.0495,-3.1896 -0.089,-4.7475 -0.0396,-1.5579 -0.0594,-2.96 -0.0594,-4.2063 0,-0.4592 0.1385,-0.8446 0.4155,-1.1562 0.277,-0.3116 0.6232,-0.5575 1.0385,-0.7379 0.4155,-0.1804 0.8705,-0.3116 1.3651,-0.3936 0.4946,-0.082 0.9594,-0.123 1.3946,-0.123 1.2661,0 2.2849,0.1886 3.0565,0.5658 0.7715,0.3771 1.1572,1.1233 1.1572,2.2384 0,2.2303 -0.0098,4.6492 -0.0296,7.2566 -0.0198,2.6075 -0.0396,5.1821 -0.0594,7.724 -0.0198,2.5418 -0.0396,4.9361 -0.0593,7.1827 -0.0198,2.2467 -0.0297,4.1244 -0.0297,5.6331 0,0.9839 -0.3067,1.7793 -0.9198,2.3861 -0.6133,0.6067 -1.5926,0.9101 -2.9378,0.9101 -0.7518,0 -1.4243,-0.0902 -2.0178,-0.2706 -0.5936,-0.1804 -1.088,-0.4018 -1.4837,-0.6641 -0.6331,-0.492 -1.4244,-1.394 -2.3739,-2.7059 -0.9497,-1.3119 -1.9387,-2.7878 -2.9675,-4.4277 -1.0286,-1.6399 -2.0871,-3.3454 -3.1751,-5.1165 -1.0881,-1.7711 -2.1068,-3.3946 -3.0564,-4.8705 0.0395,2.0662 0.0494,4.2637 0.0296,6.5924 -0.0197,2.3286 -0.0296,4.5261 -0.0296,6.5924 0,0.6887 -0.0297,1.3283 -0.0891,1.9187 -0.0593,0.5903 -0.2273,1.1069 -0.5043,1.5497 -0.277,0.4428 -0.6925,0.7871 -1.2464,1.0331 -0.5538,0.246 -1.3254,0.369 -2.3146,0.369z"/>
 </g>
</svg>
