<?xml version="1.0" encoding="UTF-8"?>
<!DOCTYPE svg PUBLIC "-//W3C//DTD SVG 1.1//EN" "http://www.w3.org/Graphics/SVG/1.1/DTD/svg11.dtd">
<!-- Creator: CorelDRAW -->
<svg xmlns="http://www.w3.org/2000/svg" xml:space="preserve" width="250mm" height="250mm" style="shape-rendering:geometricPrecision; text-rendering:geometricPrecision; image-rendering:optimizeQuality; fill-rule:evenodd; clip-rule:evenodd"
viewBox="0 0 250 250">
 <defs>
  <style type="text/css">
   <![CDATA[
    .str3 {stroke:#1F1A17;stroke-width:0.0762}
    .str1 {stroke:#EBAD14;stroke-width:0.0762}
    .str2 {stroke:#1F1A17;stroke-width:1.4111}
    .str4 {stroke:#FFF500;stroke-width:2.8222}
    .str0 {stroke:#0A0B0C;stroke-width:5.6444}
    .fil0 {fill:none}
    .fil10 {fill:none;fill-rule:nonzero}
    .fil2 {fill:#0A0B0C}
    .fil7 {fill:white}
    .fil6 {fill:black}
    .fil8 {fill:#CC0000}
    .fil1 {fill:white}
    .fil5 {fill:#245E36}
    .fil3 {fill:#66D43D}
    .fil4 {fill:#DE8703}
    .fil11 {fill:#1F1A17;fill-rule:nonzero}
    .fil9 {fill:#AB7305;fill-rule:nonzero}
   ]]>
  </style>
 </defs>
 <g id="Capa_x0020_1">
  <metadata id="CorelCorpID_0Corel-Layer"/>
  <circle id="_357884616" class="fil0" cx="124.947" cy="124.769" r="117.376"/>
  <circle id="_354059760" class="fil1 str0" cx="124.947" cy="124.769" r="117.086"/>
  <path class="fil2" d="M91.1362 212.116c-2.9002,-1.0685 -6.5332,-0.6717 -9.5555,-0.5801 -2.5644,-0.4274 -5.0678,-1.1601 -7.449,-2.2286 -1.3128,-0.0916 -2.5644,-0.3663 -3.8161,-0.6716 -0.9464,-0.519 -1.9233,-1.1906 -2.9918,-1.4959 0,-0.0916 0,-0.1527 0,-0.2137 -1.1296,-0.458 -1.1296,-0.458 -4.7931,-1.4654 -2.0759,-1.099 -2.0759,-1.099 -4.3961,-2.595 0,-0.6411 -4.4572,-2.7476 -5.1289,-3.175 -1.9538,-1.8317 -3.1749,-3.755 -4.6098,-5.9225 -0.7632,-0.2137 -1.038,-1.5265 -1.7707,-1.7707 -1.1906,-2.2897 -1.1906,-4.8541 -2.2286,-7.1132 -0.4274,-0.4579 -0.8242,-0.8853 -1.2211,-1.3128 -1.4043,-2.3507 -0.8243,-4.9151 -2.4423,-7.0216 -0.2137,-0.519 -0.4274,-1.038 -0.6411,-1.5569 0,-1.8318 0.1831,-3.6024 0.3053,-5.4036 -0.1832,-0.3969 -0.3664,-0.7633 -0.519,-1.1296 0,-1.557 -0.0306,-3.2971 0.5495,-4.732 0.6106,-0.58 1.7707,-1.4348 1.9538,-1.4653 0,-0.0916 0,-0.1527 0,-0.2137 0.6106,-0.519 2.0149,-1.3738 2.2897,-2.1981 -0.0611,-5.2204 -0.6411,-10.9599 1.3127,-15.9055 1.4654,-2.4118 2.3507,-2.6255 5.0678,-3.2055 2.8392,-0.2137 2.8392,-0.2137 10.8683,-0.4274 1.0685,-0.2443 1.679,-2.1676 2.7475,-2.6866 0.2137,-0.3053 0.4274,-0.6106 0.6717,-0.9158 0,-0.6106 -0.2137,-1.4044 -0.6106,-4.6709 -0.0611,-4.0298 -0.6411,-8.8534 1.3433,-12.5474 0.1526,0 1.1601,-1.1906 1.2517,-1.4043 0.8242,-0.4885 1.679,-0.9769 2.5338,-1.4654 3.633,-1.038 7.3575,-2.0759 10.8988,-3.4192 0.3969,-1.0075 2.4118,-4.6709 1.618,-5.7089 -1.9538,-1.2822 -3.8771,-2.5644 -5.8004,-3.8466 -0.0916,-0.2137 -1.6791,-1.5265 -3.175,-3.114 -1.5265,-2.0454 -1.9844,-4.6098 -1.038,-7.0521 0.3053,-0.5495 0.6411,-1.099 0.9769,-1.618 0.0611,0 0.1221,0 0.1832,0 0.3053,-0.4274 1.5264,-2.4729 2.3507,-2.656 0,-0.8548 5.8005,-4.5183 6.2889,-4.6709 0,-0.0916 0,-0.1527 0,-0.2137 0.3359,-0.1832 0.6717,-0.3664 1.038,-0.519 0.3358,-2.076 0.8243,-4.1825 0.9464,-6.289 -2.3202,-4.5793 -2.3202,-4.5793 -3.9687,-8.1511 -0.3358,-1.4044 -0.6717,-2.8087 -1.0075,-4.1825 -0.3358,-3.5413 -0.4274,-7.1132 1.4654,-10.2271 3.2971,-3.633 7.9985,-3.3582 12.6389,-3.8772 1.618,-0.0916 3.2666,-0.1832 4.9152,-0.2442 2.7475,-2.137 2.7475,-2.137 3.0223,-2.2286 0,-0.4579 1.4654,-1.3433 1.8317,-1.618 1.1296,-5.1594 2.9308,-13.3717 7.9375,-16.3635 0.7022,-0.1831 0.7022,-0.1831 1.618,-0.6105 1.4654,-0.1832 4.6099,-0.9464 5.8921,-0.1832 3.5108,0.4274 7.388,2.3812 10.0745,4.6404 0.1832,0.6411 4.274,-0.1832 4.732,-0.3359 0.3663,-1.1295 1.2211,-2.137 1.8927,-3.1444 0.0611,0 0.1222,0 0.1832,0 2.3813,-3.2666 5.4036,-5.1899 9.3724,-6.35 1.1295,0 2.2896,0 3.4497,0 2.2897,0.4579 4.1214,1.4654 6.1058,2.6255 0.519,0.4579 3.1444,2.2896 3.4802,3.236 0.0611,0 0.1222,0 0.1832,0 0.1527,0.3969 0.5495,0.9464 0.9464,1.0685 1.2822,1.7096 1.2822,1.7096 2.4118,3.5108 0.8243,0.2137 1.4959,0.3969 2.3507,0.4274 0.3969,0.2137 2.0454,0.6106 5.4036,1.6486 1.8623,0.6716 3.7245,1.3433 5.5868,2.0149 3.755,1.7096 7.2353,4.3656 10.2576,7.1437 3.7856,-0.7021 6.2584,-0.0916 9.525,1.8623 2.076,2.0759 4.0909,4.6404 4.8846,7.5406 0.0611,1.038 0.1221,2.1065 0.1832,3.175 1.3738,1.618 2.5034,3.3887 3.6329,5.1899 0.0611,0 0.1221,0 0.2137,0 1.0685,1.8622 2.137,3.7245 3.2361,5.6173 1.0685,2.5033 2.1675,5.0678 2.9002,7.6932 0.2137,1.5265 0.2137,1.5265 0.519,7.0216 -0.2137,2.4424 -0.4274,4.8847 -0.6106,7.327 -0.8243,3.6634 -1.038,4.0908 -1.1295,4.8846 -0.8243,1.9538 -0.8243,1.9538 -1.0075,2.7476 -0.5495,1.099 -1.4959,3.7855 -2.5034,4.3961 -1.4348,1.8623 -1.7706,2.1065 -2.137,2.5644 -2.3507,1.8012 -4.6403,2.9613 -7.4185,3.9382 -0.1526,1.557 -0.0916,3.3582 -0.9158,4.6709 -1.9233,0.9464 -1.9233,0.9464 -3.8772,1.6791 -1.3433,0.2748 -2.6255,0.6411 -3.9687,0.7938 -0.2137,0.061 -0.4274,0.1526 -0.6411,0.2442 -0.5495,3.7856 -2.3813,6.5942 -4.2435,9.8913 -0.0611,0 -0.1221,0 -0.1832,0 -0.4885,1.1906 -2.5034,2.656 -3.4192,3.5414 -1.5875,1.3127 -3.3582,2.2286 -5.1289,3.236 -0.6105,0.0916 -0.6105,0.0916 -1.9233,0.6106 -1.1601,0.2137 -2.3202,0.4579 -3.4803,0.7022 -3.4802,0 -6.93,0.061 -10.3797,-0.3969 -1.0075,-0.1832 -4.8847,-1.4959 -5.9226,-1.0991 -0.7327,3.6024 -2.1981,7.2964 -3.5414,10.7462 -2.3507,3.7855 -2.3507,3.7855 -2.5339,4.2435 -0.4884,0 -0.4579,0.6716 -0.8548,0.7937 -1.1295,1.4043 -2.5033,3.0224 -4.0298,3.9993 0,0.0611 0,0.1221 0,0.1832 -0.7021,0.3358 -1.618,1.3127 -2.0149,1.9538 -0.4884,0.4579 -2.6865,1.9844 -2.9613,2.8392 -0.0915,0 -0.1526,0 -0.2137,0 -0.0915,0.2137 -0.3052,0.3053 -0.9464,1.0685 -1.3127,2.0149 -1.3127,2.0149 -1.9233,3.1445 -0.5495,1.5875 -1.8317,2.9002 -2.2286,4.5487 -0.061,0 -0.1221,0 -0.1831,0 -0.0306,0.1222 -0.0611,0.2443 -0.0611,0.3969 -4.6404,8.5786 -8.3038,17.6457 -12.7916,26.2853 -0.3663,0.9769 -0.7326,1.9539 -1.099,2.9308 -0.0611,0 -0.1221,0 -0.1832,0 -0.3663,0.9158 -0.3663,0.9158 -3.1139,6.1057 -2.2591,3.6635 -2.2591,3.6635 -2.2897,3.8467 -0.0915,0 -0.1526,0 -0.2137,0 -1.2211,1.7706 -1.2211,1.7706 -2.4117,3.2665 -1.4044,1.038 -2.595,0.8548 -4.3046,0.8548 -2.8697,-1.1295 -6.0447,-0.1221 -8.8533,0.4885 -1.0991,0.0916 -2.1676,0.1832 -3.2361,0.2748z"/>
  <path class="fil3 str1" d="M90.5256 210.589c-1.9843,-0.1831 -3.9382,-0.58 -5.9226,-0.6716 -3.9992,0.5495 -7.4185,-0.5801 -11.0819,-2.137 -0.7938,-0.0611 -1.557,-0.1221 -2.3202,-0.1832 -1.8622,-0.6106 -3.6024,-1.7096 -5.312,-2.656 -2.656,-0.3969 -4.1824,-1.2212 -6.4721,-2.5949 -0.7327,-0.5801 -1.4349,-1.1601 -2.137,-1.7402 -2.3813,-1.038 -3.8161,-1.6791 -5.4036,-3.7856 -0.5801,0 -1.7707,-3.3276 -2.8697,-3.9382 -0.0916,-0.2137 -0.3358,-0.3968 -0.3969,-0.6105 -0.0916,0 -0.1526,0 -0.2137,0 -1.1296,-2.2592 -1.099,-4.9152 -2.1675,-7.0827 -2.1676,-2.1676 -2.4423,-3.4803 -2.6866,-6.4416 -0.061,-0.2137 -0.1221,-0.4274 -0.1831,-0.6106 -0.3969,-0.58 -0.7633,-1.1601 -1.1296,-1.7401 -0.6106,-1.9844 -0.9464,-5.2815 0.3358,-7.0827 0.2748,-0.2442 1.0685,-1.2517 1.4654,-1.2517 0,-0.6411 1.1601,-1.0074 1.4043,-1.618 1.099,-0.6716 2.137,-1.618 2.9613,-2.656 0.0611,0 0.1221,0 0.2137,0 0.0611,-0.3358 0.2748,-0.7022 0.6106,-0.7938 0,-0.1526 0,-0.3052 0,-0.4579 -0.7022,0 -0.9464,0.519 -1.3433,1.038 -1.099,0.8853 -2.1981,1.8012 -3.2666,2.7171 -0.1526,0.4579 -2.5949,2.8086 -3.1444,2.9002 0.0916,-2.1676 -0.5495,-5.1899 2.2591,-5.8005 0,-0.519 0.8548,-1.1906 1.3127,-1.3432 0.0611,-0.2137 0.0611,-0.2137 2.5645,-2.5339 4.335,-5.1594 4.9761,-5.8005 5.0677,-6.0142 0.0611,0 0.1221,0 0.2137,0 0.0611,-0.2442 0.0611,-0.2442 2.6255,-3.2361 0.6411,-0.5495 1.1906,-1.1906 1.7402,-1.8317 0.061,0 0.1221,0 0.2137,0 0,-0.0916 0.0305,-0.1832 0.061,-0.2747 3.0834,-3.4803 6.5332,-7.1743 9.2808,-10.8072 0.6716,-0.3359 1.4653,-2.1676 2.1064,-1.8623 -0.3358,1.038 -0.3358,1.038 -0.4274,1.7402 0.1832,0 0.3664,0 0.5496,0.0305 1.2211,-1.038 2.2286,-3.3582 2.717,-4.8541 2.4423,-4.4572 2.6255,-4.9457 3.2361,-5.8615 0.6411,-1.3128 1.618,-2.3813 2.4423,-3.5719 1.1601,-1.9538 2.3812,-4.0298 3.2666,-6.1363 0.8548,-0.7327 1.3738,-4.6709 2.3201,-4.3656 0.1222,0.9464 0.0916,5.2204 1.8318,2.9918 -0.1527,-1.8012 -0.3664,-3.8161 -0.7022,-5.5867 0,-2.4423 -0.2137,-5.7089 -0.3053,-14.8065 0.0916,-4.1214 0.5801,-8.3344 1.1296,-12.4252 0.3969,-0.2443 0.9159,-4.9762 1.0074,-5.8921 0.2137,-0.7021 0.3969,-2.5339 0.6106,-3.1139 0.6716,-3.0834 1.2822,-6.35 2.8392,-9.0976 0.3663,-1.2822 0.9769,-2.2896 1.9233,-3.236 2.4423,-4.3351 5.831,-7.907 9.9219,-10.6851 0.8242,-0.7022 1.6485,-1.4043 2.4728,-2.076 1.8622,-1.2822 4.0908,-3.1444 6.2889,-3.8771 1.0685,-0.9464 2.3202,-1.6181 3.694,-2.137 2.076,-1.0991 4.6709,-2.6255 6.9911,-3.1445 3.1445,-2.0454 7.449,-2.137 10.8682,-3.3582 1.1907,-0.0305 2.4118,-0.1221 3.5719,-0.3969 4.1825,-0.2137 4.1825,-0.2137 4.3962,-0.3358 4.8235,0 9.4944,0.0611 14.2569,0.3358 0.5495,0.1832 0.5495,0.1832 3.6635,0.4885 4.7014,0.8243 9.2196,1.7707 13.7379,3.3582 0.9159,0.4274 0.9159,0.4274 5.312,2.0454 2.4118,1.4349 2.4118,1.4349 2.5034,1.618 0.8853,0.6106 4.274,2.5034 4.793,3.8467 -3.7856,1.0074 -5.4341,5.0372 -6.4721,8.4259 -0.0916,0.7938 -0.1526,1.618 -0.2137,2.4423 -0.1221,0.2442 -0.2137,0.4885 -0.3053,0.7327 0,5.312 4.7625,9.9829 9.4334,11.8452 3.5413,0.3358 5.831,-0.1527 8.8839,-1.9844 0.519,-0.6716 0.519,-0.6716 1.099,-1.1296 0.7327,-1.0379 1.5265,-2.0149 1.9539,-3.2055 0.6411,-0.6411 0.9463,-2.6865 1.2211,-3.5413 0.0611,0 0.1221,0 0.1832,0 4.7014,7.449 4.7014,7.449 4.9151,7.6322 1.4654,3.3276 2.7781,6.5331 3.6635,10.0745 0.3053,5.0983 0.3053,5.0983 0.3053,6.9605 -0.458,2.595 -0.0916,5.9226 -1.1296,8.3344 -0.3969,2.9307 -1.9538,5.892 -3.2055,8.5175 -0.7022,0.7938 -1.4044,1.5875 -2.1065,2.4118 -2.5034,2.0759 -5.831,4.0908 -9.0976,4.4877 -0.0916,0.0611 -0.1832,0.1221 -0.2748,0.2137 -9.4028,3.0529 -19.2636,3.2361 -28.9412,1.4043 -5.6479,-0.7021 -11.4483,-2.0149 -16.7603,-4.1519 -4.0604,-1.0379 -7.8459,-3.6024 -11.7536,-5.0983 -0.3358,-0.3358 -0.7938,-0.4884 -1.2517,-0.6716 -2.8087,-1.6791 -2.8087,-1.6791 -4.7014,-2.9918 0,-0.1527 0,-0.3053 0,-0.458 0.0915,-0.0305 0.1831,-0.061 0.3052,-0.061 1.0075,-1.2517 5.9226,-7.0522 2.9003,-8.5481 -0.1527,0.0916 -0.2748,0.2137 -0.3969,0.3358 0,4.4878 -3.8772,7.9986 -7.4795,10.044 -1.1601,0.3664 -2.1065,0.6716 -3.114,1.2822 0,0.1221 0,0.2442 0.0305,0.3969 2.0455,0.8853 4.7015,-0.7938 6.3806,-2.0149 0.0915,-0.3358 0.2747,-0.3358 0.6105,-0.3664 0.3969,0.8243 0.977,1.3738 1.4349,2.076 2.5949,2.8087 5.1899,5.4952 8.1206,7.9985 1.6181,1.6486 1.6181,1.6486 1.7402,1.8928 2.0759,1.557 4.1214,3.175 6.1057,4.8541 3.2972,2.5644 7.0827,4.4267 11.0515,5.6478 4.0908,0.8548 8.7312,2.076 12.8831,1.038 3.5108,-1.2517 3.5108,-1.2517 4.8541,-1.8928 1.6485,-1.4959 2.9002,-3.2666 3.6634,-5.312 0.0306,-0.4274 0.0611,-0.8548 0.1222,-1.2517 2.8697,-0.3052 2.8697,-0.3052 3.9382,-0.2747 0.1221,1.5569 0.2137,2.5644 1.1295,3.8466 0.7022,0.4885 0.6106,1.1296 0.4885,1.9233 -2.0454,5.1594 -4.5793,9.0671 -9.1586,12.3031 -2.8697,1.5875 -5.2815,2.3202 -8.4565,2.8697 -1.9233,0.0306 -3.8466,0.0611 -5.7394,0.0916 -6.5027,-0.4579 -12.6389,-2.6255 -18.7447,-4.8846 -0.6716,-0.3358 -3.9077,-2.0454 -4.274,-1.6791 0,2.137 7.0521,3.9382 8.9144,4.8236 0.9464,0.3053 1.9233,0.6105 2.9002,0.9464 0.0305,0.4274 0.0611,0.8548 0.0916,1.3127 -0.0916,0.0611 -0.1526,0.1526 -0.2137,0.2442 -0.7327,3.2971 -2.1675,6.6858 -3.4498,9.7998 -0.3052,0.3358 -1.2211,1.9538 -3.0528,4.4877 -3.175,3.5719 -7.1438,6.5026 -10.2577,10.1356 -0.5801,0.9158 -1.1601,1.8622 -1.7401,2.8086 -0.4274,1.7402 -1.9539,3.9993 -2.8698,5.5562 -3.2055,6.5027 -6.3194,13.0664 -9.2502,19.6911 -3.8161,7.5406 -7.0216,15.7223 -12.4252,22.2555 -0.3969,0.0916 -0.7632,0.1832 -1.1296,0.3053 -3.236,0 -6.8079,-0.9769 -9.8913,0.2137 -1.5875,0.2748 -3.175,0.3663 -4.7625,0.4579z"/>
  <path class="fil4" d="M92.0521 209.887c-0.519,-0.7633 0.7937,-2.0149 0.9464,-2.8087 0.2137,-0.2747 2.2286,-4.8541 2.3507,-5.4036 0.1831,-0.2747 0.1831,-0.2747 0.3969,-1.099 1.16,-2.2591 2.1675,-4.5183 2.9307,-6.9606 1.5875,-3.9687 3.0834,-7.7238 4.4877,-11.7536 0.7633,-1.4348 1.9844,-3.2055 2.4118,-4.793 0.7632,-0.3663 0.7022,-2.3507 1.4959,-2.8697 0.0916,0.0305 0.1832,0.0611 0.2748,0.1221 0,0.1832 0,0.3664 0,0.5495 -1.6791,4.3351 -4.5183,8.1512 -5.4952,12.7611 -0.519,0.6716 -1.099,2.3812 -1.2211,3.2666 -0.2137,0.2747 -0.2137,0.2747 -1.4654,3.4802 -0.458,2.0455 -1.5265,4.4878 -2.6866,6.2279 -0.6105,2.4423 -2.0759,5.1594 -3.0834,7.388 -0.3663,0.6716 -0.6411,1.5569 -1.3432,1.8928z"/>
  <path class="fil4" d="M82.5881 208.849c-0.4274,-0.6411 0.0916,-1.6486 0.3359,-2.2897 2.2591,-4.5182 4.2129,-9.2807 6.7163,-13.6769 0.7022,-2.7476 2.2591,-5.8004 3.6634,-8.2427 1.038,-2.4423 1.8928,-4.9457 3.2666,-7.2354 0.1221,-0.58 0.1527,-1.0379 0.6106,-1.3738 1.0685,0.7022 -1.3433,4.2741 -1.7401,5.0678 -1.3128,3.5414 -3.0224,6.9301 -4.5794,10.3798 -1.3127,4.274 -4.3961,8.0291 -5.7088,12.3642 -0.5496,1.0074 -1.0991,2.0454 -1.6181,3.0834 -0.1831,0.58 -0.4274,1.5875 -0.9464,1.9233z"/>
  <path class="fil4" d="M101.394 207.445c-0.2443,-0.1832 -0.2443,-0.1832 -0.3664,-0.4274 2.8392,-6.5943 5.5257,-13.6159 8.945,-19.9353 0.2442,-0.8548 0.4274,-1.1296 1.1906,-3.0834 0.2747,-0.1222 0.3053,-0.5496 0.3969,-0.8549 1.099,-2.0454 2.2591,-4.335 3.1139,-6.5026 0.1526,-0.061 0.3053,-0.0916 0.4579,-0.1221 0.0611,0.6411 -0.0916,1.3127 -0.58,1.7401 -0.7632,1.7707 -1.3738,3.9993 -2.5034,5.5257 -1.5569,3.8467 -1.7401,4.0298 -1.9538,4.7625 -1.5265,3.175 -3.6635,6.6858 -4.5793,10.0745 -1.2822,2.8392 -2.3508,6.3195 -4.1214,8.8229z"/>
  <path class="fil4" d="M72.7273 206.223c-0.0305,-0.2137 -0.061,-0.4274 -0.0915,-0.6106 2.9613,-5.9226 6.2278,-11.6925 9.4944,-17.4624 0.1832,-0.1832 0.9769,-1.9844 2.7171,-4.9152 0.4274,-0.8548 0.9464,-2.5339 1.7706,-2.9307 0.8243,0.3968 -2.198,5.1288 -2.7781,6.0141 -1.2517,2.656 -3.2666,5.1899 -4.274,7.9375 -0.2137,0.1832 -0.3969,0.7938 -1.2212,2.2592 -2.0454,2.9307 -3.4497,6.2889 -5.0983,9.4333 -0.1831,0.0916 -0.3663,0.1832 -0.519,0.2748z"/>
  <path class="fil4" d="M64.4846 203.079c-0.6411,-0.9769 1.4348,-3.0528 1.9843,-3.8161 1.4044,-2.4423 3.3887,-4.6709 4.6709,-7.1437 0.6717,-0.8853 1.2823,-1.8317 1.8318,-2.8392 0.5495,-0.6411 3.6634,-5.4036 6.1057,-8.8228 1.1296,-2.3202 2.7476,-4.3961 3.7551,-6.7469 2.6865,-3.9382 5.0067,-8.1511 7.6322,-12.1199 1.3127,-1.5875 2.198,-3.694 3.5413,-5.3425 0.0916,-0.0305 0.1832,-0.0305 0.3053,-0.0305 0.1221,0.2137 0.1221,0.2137 0.0916,0.4884 -1.6486,2.595 -3.3887,5.0678 -4.8236,7.7543 -1.3432,1.7402 -2.6865,3.7551 -3.5413,5.8005 -3.1139,4.5488 -5.6478,9.4029 -8.7007,14.0127 -2.2286,2.8392 -3.8772,6.3805 -6.1974,9.1281 -1.8927,3.1445 -4.5182,6.1363 -6.1362,9.4029 -0.1832,0.0916 -0.3664,0.1832 -0.519,0.2747z"/>
  <path class="fil4" d="M57.463 198.286c-0.0306,-0.1526 -0.0611,-0.2747 -0.0916,-0.3969 0.8242,-1.1295 1.6485,-2.2286 2.4728,-3.3276 0.2137,0 0.2137,0 0.3969,0.1221 0,0.8548 -2.0149,3.4498 -2.7781,3.6024z"/>
  <path class="fil4" d="M112.903 197.37c0,-1.7402 1.557,-4.6709 2.1981,-6.3806 0.1526,-0.2747 0.3053,-0.5189 0.4885,-0.7632 1.6485,-4.0603 3.3276,-8.0596 5.0983,-12.0283 0.2442,-0.2442 0.3358,-0.4274 0.7021,-0.4274 0,0.7327 -1.0074,3.4803 -1.5569,3.8466 -1.4654,3.6024 -2.9308,7.3269 -4.5488,10.8683 -0.2443,1.0379 -1.3128,4.6709 -2.3813,4.8846z"/>
  <path class="fil4" d="M51.0519 193.004c-0.0305,-0.2442 -0.0611,-0.4579 -0.0611,-0.6716 0.4275,-0.3969 0.5496,-0.7022 0.7633,-0.8243 2.5339,-3.1444 5.1288,-6.2584 7.8459,-9.2807 0.3053,0.0305 0.3358,0.2747 0.3358,0.5495 -2.4728,3.0834 -5.2815,5.9531 -7.6322,9.1281 -0.4274,0.3969 -0.7327,1.0075 -1.2517,1.099z"/>
  <path class="fil4" d="M62.836 191.661c-0.1526,-0.1832 -0.1526,-0.1832 -0.1832,-0.7022 2.1371,-2.717 4.2741,-5.4036 6.4416,-8.0901 0.1527,0 0.3053,0 0.458,0 0.3968,0.6411 -2.6255,4.0298 -3.3582,4.6709 -0.2748,0.7327 -3.0224,4.0298 -3.3582,4.1214z"/>
  <path class="fil4" d="M47.3885 184.945c-0.1527,-0.2442 -0.1832,-0.3968 -0.0611,-0.6411 4.4267,-4.5182 5.6478,-5.6173 5.8921,-6.0141 3.1749,-3.1445 6.2584,-6.5332 9.4028,-9.7387 0,-0.1221 0.0305,-0.2442 0.0611,-0.3358 2.7476,-2.6866 5.5867,-5.4952 7.8764,-8.5786 0.2442,-0.1527 0.3053,-0.3053 0.3663,-0.5801 2.8087,-3.6329 5.5258,-7.3269 7.9375,-11.204 0.2137,-0.1832 0.4274,-0.7938 0.6106,-1.0075 0.1221,0 0.2442,0 0.3969,0 -0.0305,0.2442 -0.0611,0.519 -0.0916,0.7938 -2.3507,3.6634 -4.732,7.2658 -7.388,10.7156 -0.3663,0.1221 -0.3663,0.4274 -0.4884,0.7021 -0.977,1.3128 -0.977,1.3128 -3.0529,3.7551 -2.7171,2.8086 -5.3731,5.7699 -8.1512,8.548 -2.8086,3.114 -5.7699,6.4416 -8.8533,9.2808 -1.0075,1.1601 -3.0529,3.755 -4.4572,4.3045z"/>
  <path class="fil4" d="M61.737 180.488c-0.0916,-0.061 -0.1527,-0.0915 -0.2137,-0.1221 0.4274,-2.2591 4.3045,-3.7855 4.8235,-5.9531 0.0611,-0.0305 0.1527,-0.061 0.2443,-0.061 0,-0.5496 2.137,-2.3508 2.5949,-2.9308 1.9844,-3.2971 4.7014,-6.2279 6.8079,-9.4639 0.3969,-0.4274 0.6106,-0.9159 2.1676,-2.9003 0.3968,-0.2747 0.3968,-0.2747 0.8548,-0.8242 0.8853,-1.4044 0.8853,-1.4044 3.4192,-4.7931 0.1526,0 0.3053,0 0.4885,0.0306 0,0.1526 0,0.3053 0,0.4884 -0.3053,0.2443 -0.3053,0.2443 -3.3582,4.7625 -0.2137,0.0916 -0.2137,0.0916 -2.2286,2.656 -2.5339,3.8466 -5.5257,7.5406 -8.2428,11.2957 -2.3507,2.4423 -4.5793,5.2815 -6.9605,7.6627 -0.1527,0.0305 -0.2748,0.0916 -0.3969,0.1526z"/>
  <path class="fil4" d="M72.7273 178.748c-0.7326,-0.7327 2.0149,-3.4803 2.1371,-3.6635 0.8548,-1.2822 0.8548,-1.2822 1.5569,-2.137 1.8928,-4.4266 5.0373,-8.2427 7.8765,-12.0894 1.7706,-2.9613 2.2896,-3.6024 3.755,-5.9836 0.1526,0.0305 0.3053,0.061 0.4579,0.0916 0,0.1526 0,0.3358 0,0.519 -2.4728,3.8466 -5.0983,7.6932 -7.6322,11.4788 -0.8242,0.3969 -2.5339,3.4497 -2.8391,3.9382 -1.1296,2.5949 -2.8087,4.9151 -4.4878,7.1743 -0.6411,0.6105 -0.6411,0.6105 -0.8243,0.6716z"/>
  <path class="fil4" d="M87.8696 178.656c-0.2137,-0.061 -0.3358,-0.1526 -0.3969,-0.3663 1.7707,-3.3887 3.7246,-6.6858 5.4036,-10.1356 0.0916,-0.8243 0.6106,-1.4348 1.038,-2.137 0.2443,-0.519 2.1065,-5.7394 3.3582,-5.7394 0,0.2137 0,0.4579 0,0.7021 -2.4423,4.3962 -4.274,9.2197 -7.0216,13.3717 -0.458,1.0379 -0.9159,2.0149 -1.5875,2.9307 -0.1221,0.4274 -0.4885,1.0685 -0.7938,1.3738z"/>
  <path class="fil4" d="M43.9082 177.923c-0.1527,-0.1832 -0.1527,-0.1832 -0.1832,-0.3969 0.4885,-0.6411 1.5875,-2.1675 2.4118,-2.4728 0.061,-0.2137 2.198,-2.4118 3.7245,-4.1824 0.4884,-0.1832 1.1601,-1.1601 1.4654,-1.557 3.0834,-2.9918 6.1363,-6.1058 9.2807,-9.067 2.6255,-2.8087 5.2815,-5.6173 7.9375,-8.426 0.2748,-0.3663 1.4349,-2.8086 2.2897,-2.3202 0,0.8243 -3.5414,4.8541 -3.9993,5.0373 -0.0916,0.2137 -0.3053,0.3053 -3.4498,3.8771 -0.2137,0.0916 -0.3053,0.3053 -0.8242,0.7022 -1.9234,2.5339 -4.7931,4.4572 -6.7774,6.93 -3.2971,3.0834 -6.4416,6.5027 -9.525,9.7998 -0.5801,0.519 -1.6486,1.9233 -2.3507,2.0759z"/>
  <path class="fil4" d="M97.6388 175.298c-0.1526,-1.8012 1.3433,-4.5487 2.5034,-5.892 0.0916,0.0305 0.1832,0.061 0.2748,0.1221 -0.2137,1.8928 -1.6486,3.9993 -2.4729,5.7089 -0.1221,0 -0.2137,0.0305 -0.3053,0.061z"/>
  <path class="fil4" d="M116.567 173.039c-0.0305,-0.1832 -0.0611,-0.3358 -0.0916,-0.4884 1.3127,-2.8392 2.6255,-5.6479 3.9382,-8.4565 0.2137,-0.0305 0.4274,-0.0611 0.6716,-0.0611 -0.2747,1.4654 -1.3127,2.8087 -1.7401,4.2741 -0.3053,0.6411 -1.6791,4.4572 -2.7781,4.7319z"/>
  <path class="fil4" d="M108.538 171.207c-0.5495,-0.5495 0.5801,-2.137 0.8548,-2.656 0.5495,-2.4728 1.5265,-4.793 2.4728,-7.1743 0.1527,0.0305 0.3053,0.0916 0.458,0.1527 -0.1527,1.2211 -0.7327,2.7781 -1.3128,3.8466 -0.4274,1.4959 -1.1295,4.9457 -2.4728,5.831z"/>
  <path class="fil4" d="M123.985 170.81c-0.4274,-1.3127 1.4043,-4.1214 2.198,-5.2509 0.3969,0 0.3969,0 0.4885,0.1221 0,0.3358 -2.2591,5.0067 -2.6865,5.1288z"/>
  <path class="fil4" d="M51.6625 160.522c-0.0611,-0.061 -0.1221,-0.1221 -0.1832,-0.1832 0.2442,-1.0074 3.7856,-4.335 4.8846,-4.335 0,0.6105 -0.4884,1.0074 -1.0074,1.2516 -0.7633,0.7327 -2.656,3.0224 -3.694,3.2666z"/>
  <path class="fil5" d="M46.1673 158.507c-0.0305,-3.5108 0.0611,-6.8995 0.2442,-10.4103 0.1832,-0.4885 0.1832,-0.4885 0.3969,-2.2591 1.1906,-2.3202 1.4654,-3.1445 4.0909,-3.694 3.2665,-0.2442 6.5331,-0.4579 9.8302,-0.4885 0,0.458 -1.5875,2.2286 -2.1065,2.3202 -2.0454,-1.3738 -5.7394,-0.9769 -8.0596,-0.3358 0.0306,0.3053 0.0306,0.3053 0.2443,0.5495 0.9464,-0.0916 1.8928,-0.1526 2.8697,-0.2137 1.5264,0.2137 3.0529,0.4274 4.6098,0.6411 0,0.1832 0,0.1832 -0.7937,1.1906 -3.8161,3.9993 -7.5406,8.3955 -11.1125,12.6084 -0.0916,0.0306 -0.1526,0.0611 -0.2137,0.0916z"/>
  <path class="fil4" d="M58.1651 154.233c-0.0305,-0.2748 -0.061,-0.519 -0.061,-0.7632 0.6716,-0.458 0.6716,-0.458 0.8548,-0.4885 0,-0.0916 0.0305,-0.1832 0.061,-0.2442 3.2361,-3.2971 7.6322,-7.0827 10.2882,-11.082 0.4274,0 0.3969,0.1832 0.3969,0.519 -3.0224,3.8466 -6.411,7.4796 -10.0134,10.7767 -0.3664,0.4579 -0.9464,1.1601 -1.5265,1.2822z"/>
  <path class="fil4" d="M89.7929 153.103c-0.0305,-0.2442 -0.0305,-0.4579 -0.0305,-0.6716 0.7632,-0.7632 1.1601,-2.5339 2.1981,-2.5339 0,0.9769 -1.2822,3.0529 -2.1676,3.2055z"/>
  <path class="fil6" d="M136.594 150.661c-0.4274,-0.6106 0.0916,-1.557 0.8548,-1.1906 0,0.5495 -0.3969,0.9769 -0.8548,1.1906z"/>
  <path class="fil6" d="M139.25 147.517c0,-0.6412 -0.0611,-0.7938 0.2442,-1.3738 0.1832,0 0.3663,0 0.58,0 0,0.6716 -0.2442,1.099 -0.8242,1.3738z"/>
  <path class="fil4" d="M71.9947 147.211c0,-0.2137 0,-0.4274 0,-0.6106 0.061,0 0.1221,0 0.2137,0 1.1906,-1.9539 2.7781,-3.7245 4.1213,-5.5563 0.1527,0 0.3053,0 0.4885,0 0,0.1527 0,0.3053 0,0.4885 -0.9769,1.3127 -3.2971,5.251 -4.8235,5.6784z"/>
  <path class="fil6" d="M141.173 145.166c-0.2442,-0.519 -0.1221,-0.9464 0.0305,-1.4348 0.1832,-0.0305 0.3664,-0.0611 0.5801,-0.0916 -0.0306,0.7022 -0.0916,1.099 -0.6106,1.5264z"/>
  <path class="fil6" d="M142.821 143.548c-0.0305,-1.1296 -0.061,-2.2286 -0.061,-3.3276 1.0685,0 1.099,3.1444 0.061,3.3276z"/>
  <path class="fil6" d="M144.745 141.716c-0.0611,-1.038 -0.1222,-2.076 -0.1832,-3.114 -0.2748,-0.4884 -0.3664,-0.7021 -0.3664,-1.2822 0.1527,-0.0305 0.3053,-0.0305 0.4885,-0.0305 0.6411,1.3127 0.8853,2.8697 0.3969,4.3351 -0.1221,0.0305 -0.2443,0.0611 -0.3358,0.0916z"/>
  <path class="fil5" d="M66.7132 135.183c-0.9769,-4.5793 -0.7632,-9.6776 0.4579,-14.1959 1.1601,-1.3432 2.0454,-2.0149 3.5719,-2.9613 2.9918,-0.9463 5.9836,-1.8622 9.006,-2.7781 -1.4349,2.7781 -2.8087,5.5563 -4.5488,8.1817 -1.0075,0.4885 -3.5719,5.6173 -4.3962,7.3269 -1.2516,1.557 -2.6254,3.0224 -4.0908,4.4267z"/>
  <path class="fil6" d="M135.494 128.589c-0.5495,-0.3663 -0.8853,-1.8012 -0.8853,-2.5034 0.1832,-0.1831 0.2137,-0.2137 0.4885,-0.2137 0.4579,0.6411 0.7326,1.7707 0.7326,2.5645 -0.1221,0.0305 -0.2442,0.0915 -0.3358,0.1526z"/>
  <path class="fil6" d="M133.235 128.161c-0.2748,-0.3358 -0.58,-1.5264 -0.2137,-1.8928 0.7937,0.0611 0.6106,1.1296 0.6411,1.7402 -0.1526,0.0305 -0.3053,0.0915 -0.4274,0.1526z"/>
  <path class="fil6" d="M131.831 127.856c-0.4885,-0.4884 -0.5801,-0.6106 -0.5801,-1.2517 0.1832,0 0.3969,0 0.6106,0 0.1832,0.3969 0.3969,0.7633 0.3969,1.1907 -0.1527,0 -0.3053,0.0305 -0.4274,0.061z"/>
  <path class="fil4" d="M69.1555 121.445c-0.0916,-0.0306 -0.1527,-0.0611 -0.2137,-0.0916 0,-1.5265 6.1363,-3.6329 7.4795,-3.4192 1.2212,1.2211 -2.9918,1.8012 -3.5718,2.137 -1.4044,0.2137 -2.3813,0.8548 -3.694,1.3738z"/>
  <path class="fil1" d="M168.557 116.774c-1.7707,-0.3053 -3.5719,-0.6106 -5.2204,-1.3128 -0.3969,-1.1906 -0.6411,-2.3812 -0.7022,-3.6329 3.8772,0.6106 7.6017,1.4043 11.601,1.4959 -0.3359,0.9159 -0.6717,1.8317 -0.977,2.7476 -1.2211,0.8853 -3.2971,0.6716 -4.7014,0.7022z"/>
  <path class="fil1" d="M184.005 115.95c-0.3664,-2.6255 -0.3664,-2.6255 -0.3358,-2.9918 1.679,-0.3053 3.3886,-0.6106 5.0983,-0.9159 4.5182,-1.2212 4.5182,-1.2212 4.8846,-1.4349 0,0.977 -0.1527,1.9539 -0.3358,2.9308 -1.3128,1.3127 -5.4036,2.0149 -7.0522,2.3507 -0.7632,0 -1.5264,0.0306 -2.2591,0.0611z"/>
  <path class="fil5" d="M82.0692 105.997c-3.1445,-2.1065 -5.5868,-3.8161 -7.907,-6.7469 -0.1832,-0.4884 -0.1832,-0.4884 -0.3969,-0.6716 -0.2747,-1.6485 -0.3663,-3.0529 0.1527,-4.6709 1.6485,-2.0149 1.6485,-2.0149 1.8928,-2.5034 2.1675,-1.9843 4.274,-3.8161 6.7163,-5.4951 0.1526,-0.0306 0.3053,-0.0611 0.4579,-0.0611 -0.7021,6.6553 -0.8853,13.4937 -0.3053,20.149 -0.2137,0 -0.4274,0 -0.6105,0z"/>
  <path class="fil6" d="M193.469 101.113c0,-0.3053 -0.0916,-0.3663 0.0916,-0.6716 0.519,0 0.6106,0.0915 0.5495,0.6105 -0.2137,0 -0.4274,0.0306 -0.6411,0.0611z"/>
  <path class="fil4" d="M86.2516 100.411c-0.3663,-0.5495 -0.1221,-1.0074 0.1526,-1.5264 0.2137,-0.0305 0.4274,-0.0611 0.6717,-0.0611 -0.0611,0.5801 -0.3664,1.2212 -0.8243,1.5875z"/>
  <path class="fil6" d="M196.522 100.105c-0.6717,-0.5189 -0.3053,-0.9769 0.3663,-0.9769 0.0305,0.1527 0.0611,0.3358 0.0916,0.519 -0.1526,0.1527 -0.3053,0.3053 -0.4579,0.4579z"/>
  <path class="fil6" d="M199.086 98.1515c-0.2137,-0.4579 -0.3053,-1.1601 0.3358,-1.1601 0.3969,0.4579 0.0611,0.9159 -0.3358,1.1601z"/>
  <path class="fil4" d="M74.7422 96.4419c0,-0.7327 0,-0.9769 0.2748,-1.6791 0.1832,0 0.3663,0 0.5801,0 0,0.7327 -0.0611,1.0075 -0.4275,1.618 -0.1526,0 -0.3052,0.0306 -0.4274,0.0611z"/>
  <path class="fil4" d="M86.2516 96.1366c-0.4885,-0.7327 1.4654,-3.4803 2.1675,-3.4192 0,0.8853 -1.4348,3.0529 -2.1675,3.4192z"/>
  <path class="fil6" d="M201.009 95.3123c-0.1832,-0.3358 -0.1832,-0.3358 -0.2442,-1.0685 0.1831,0 0.3663,0 0.58,0 0.0611,0.5801 0.2748,0.9159 -0.3358,1.0685z"/>
  <path class="fil4" d="M76.2687 94.0912c-0.6411,-1.2822 3.755,-4.9762 5.1593,-4.6404 0,0.2137 0.0306,0.4579 0.0611,0.7022 -2.1675,1.3432 -2.1675,1.3432 -2.7476,1.8317 -0.58,0.6716 -1.618,1.8928 -2.4728,2.1065z"/>
  <path class="fil6" d="M202.322 92.5647c-0.2442,-0.3968 -0.4274,-0.8242 -0.3358,-1.2822 0.7938,-0.3968 0.6717,0.7022 0.6717,1.2212 -0.1222,0 -0.2443,0.0305 -0.3359,0.061z"/>
  <path class="fil4" d="M114.521 91.9542c-1.1296,-0.6411 -1.3433,-0.9159 -1.2517,-2.2897 1.4959,-1.618 4.0298,-3.6635 5.2815,-0.7937 0,1.679 -1.2823,2.2591 -2.6561,3.0223 -0.4579,0 -0.9158,0.0305 -1.3737,0.0611z"/>
  <path class="fil4" d="M114.521 90.8246c-0.7633,-0.9159 0.9463,-2.0454 1.4959,-2.5034 2.4728,0 0.8548,1.6486 -0.3664,2.3508 -0.3969,0.0305 -0.7632,0.0915 -1.1295,0.1526z"/>
  <path class="fil6" d="M203.665 90.5193c-0.1526,-0.3053 -1.9233,-2.137 -0.7022,-1.9844 0.7938,0.7022 0.9464,0.9159 1.038,1.9233 -0.1221,0 -0.2442,0.0306 -0.3358,0.0611z"/>
  <path class="fil4" d="M87.8696 90.4277c-0.6106,-0.9158 0.0306,-1.4043 0.9159,-1.5264 -0.0611,0.6106 -0.4579,1.1601 -0.9159,1.5264z"/>
  <path class="fil6" d="M204.673 88.9013c-0.2748,-0.2748 -0.3664,-0.519 -0.5496,-0.8854 -0.4884,-0.2442 -1.0379,-0.3968 -0.7326,-1.0074 1.0379,0 1.5264,0.9159 1.5264,1.8317 -0.0916,0 -0.1832,0.0306 -0.2442,0.0611z"/>
  <path class="fil4" d="M88.4802 86.5506c-0.3053,-0.519 -0.3358,-0.7327 0.1526,-1.0991 0.0916,0.0306 0.1832,0.0916 0.3053,0.1527 0,0.3663 0,0.8548 -0.4579,0.9464z"/>
  <path class="fil4" d="M125.512 84.5357c-1.1295,-0.6717 -1.3738,-0.6106 -1.4959,-2.0455 0.8548,-1.5569 1.8928,-2.656 3.7856,-2.5033 0.3663,0.2137 0.7327,0.4274 1.1295,0.6716 0.7022,2.2591 -1.4653,3.6329 -3.4192,3.8772z"/>
  <path class="fil4" d="M88.8771 84.322c-0.1221,-0.0611 -0.2443,-0.1222 -0.3358,-0.1832 0,-0.6106 0.0305,-0.5801 0.58,-0.5801 0,0.1832 0,0.3664 0,0.5801 -0.0916,0.061 -0.1832,0.1221 -0.2442,0.1832z"/>
  <path class="fil4" d="M125.42 83.4061c0,-1.2822 1.038,-2.9918 2.4729,-2.2897 0,1.496 -1.1601,1.8012 -2.4729,2.2897z"/>
  <path class="fil4" d="M114.949 81.5744c-1.038,-0.5801 -1.9234,-1.1906 -1.3738,-2.5034 1.8622,-1.8622 3.3887,-2.8697 5.4646,-0.7937 0,0.3968 0,0.7937 0,1.2211 -1.4959,1.3738 -2.0759,1.618 -4.0908,2.076z"/>
  <path class="fil6" d="M204.978 81.5744c-0.2442,-0.1527 -0.4884,-0.2748 -0.7326,-0.3969 -0.0306,-0.1526 -0.0306,-0.3053 -0.0306,-0.4579 0.4274,0 0.7022,0.061 1.0075,0.3053 0,0.1526 0,0.3052 0,0.4884 -0.0916,0 -0.1832,0.0305 -0.2443,0.0611z"/>
  <path class="fil4" d="M114.827 80.5669c-0.0915,-1.5875 0.3053,-1.5875 1.4044,-2.5033 0.4579,0.0305 0.9158,0.061 1.3738,0.0915 0.2442,0.2443 0.2137,0.4275 0.2137,0.7938 -0.9464,0.9464 -1.8012,1.1296 -2.9919,1.618z"/>
  <path class="fil6" d="M204.368 75.377c-0.2443,-0.1831 -0.6717,-0.2747 -0.7632,-0.4274 0,-0.8243 0.5189,-0.58 1.0379,-0.2747 0,0.1831 0.0306,0.3968 0.0611,0.6105 -0.1221,0.0306 -0.2442,0.0611 -0.3358,0.0916z"/>
  <path class="fil5" d="M84.5115 74.858c-0.3664,-0.7327 -0.3664,-0.7327 -0.8548,-1.4043 -1.2517,-2.8697 -1.2517,-2.8697 -1.4349,-3.0834 -1.0075,-3.4497 -1.0075,-3.4497 -1.2212,-3.8161 -0.3968,-2.2896 -0.3052,-4.5793 -0.3052,-6.8995 0.1831,-0.4579 0.1831,-0.4579 0.3052,-1.6486 0.3969,-0.8242 0.7938,-1.6485 1.2212,-2.4423 0.9464,-0.6716 1.8317,-1.3737 2.9002,-1.8622 0.8243,-0.2137 1.6486,-0.3969 2.5034,-0.5801 7.6627,-0.8242 7.8764,-0.9463 8.6091,-0.9158 0,0.1221 0,0.2442 0,0.3969 -3.3582,2.5644 -5.4036,6.5636 -7.6932,10.0134 -0.9159,2.076 -2.3813,4.3961 -2.5645,6.6858 -0.6105,0.3053 -1.2211,5.0373 -1.2516,5.5562 -0.0916,0 -0.1527,0 -0.2137,0z"/>
  <path class="fil6" d="M167.428 67.6227c-2.656,-1.5875 0.2443,-4.1214 2.1981,-1.7401 -0.1832,1.3738 -0.9464,1.5875 -2.1981,1.7401z"/>
  <path class="fil6" d="M188.493 64.2646c-1.5875,-1.0686 -0.6411,-2.3202 0.9159,-2.5034 0.3358,0.2137 0.7021,0.4274 1.0685,0.6411 0,1.4043 -0.7327,1.6791 -1.9844,1.8623z"/>
  <path class="fil1" d="M188.706 63.1655c0.0611,-0.1832 0.1221,-0.3663 0.2137,-0.519 0.1526,-0.0305 0.3053,-0.061 0.4885,-0.0916 -0.0916,0.1527 -0.1832,0.3359 -0.2748,0.519 -0.1526,0.0306 -0.3053,0.0611 -0.4274,0.0916z"/>
  <path class="fil6" d="M159.093 61.517c-2.9918,-0.5801 -0.0305,-5.0068 1.8622,-1.8623 -0.1526,1.4349 -0.4884,1.5875 -1.8622,1.8623z"/>
  <path class="fil6" d="M165.596 59.9905c-0.9464,-0.58 -1.099,-0.9464 -0.7937,-2.0149 1.4043,-0.9769 1.7096,-0.7937 2.9918,0.2748 0,1.5569 -0.8548,1.6485 -2.1981,1.7401z"/>
  <path class="fil1" d="M165.901 59.1968c-0.2442,-0.3664 -0.3358,-0.4274 -0.0305,-0.8854 0.2137,0 0.4274,0 0.6716,0 0,0.3969 -0.2748,0.6717 -0.6411,0.8854z"/>
  <path class="fil6" d="M187.577 56.9376c-0.6716,-0.4884 -1.5264,-1.5875 -0.1221,-2.0454 0,-0.0916 0.0306,-0.1832 0.0611,-0.2442 1.2211,-0.4885 2.7781,0.8548 1.6485,1.9844 -0.3663,0.1526 -0.3663,0.1526 -1.5875,0.3052z"/>
  <path class="fil1" d="M187.882 55.9302c-0.061,-0.0916 -0.1221,-0.1527 -0.1831,-0.2137 0.2137,-0.3053 0.2137,-0.3053 0.4274,-0.3358 0.061,0.0916 0.1221,0.2137 0.2137,0.3358 -0.1527,0.061 -0.3053,0.1221 -0.458,0.2137z"/>
  <path class="fil6" d="M193.072 55.9302c-1.2517,-1.0075 -0.58,-2.4118 0.9159,-2.4118 0.5495,0.2748 0.5495,0.2748 1.1601,0.8243 0,1.4654 -0.8548,1.4959 -2.076,1.5875z"/>
  <path class="fil4" d="M86.2516 55.7165c-0.1832,-0.1832 -0.2137,-0.3358 -0.1526,-0.6411 1.4348,-0.8853 4.3045,-1.099 5.8004,-0.4274 0.0916,0.1221 0.1832,0.2442 0.3053,0.3663 -0.0305,0.2443 -0.0305,0.2443 -0.1526,0.3358 -1.7402,0 -4.1214,-0.2442 -5.8005,0.3664z"/>
  <path class="fil1" d="M193.286 54.9227c0,-0.1526 0.0306,-0.3052 0.0611,-0.4579 0.2137,-0.0305 0.4274,-0.061 0.6411,-0.061 -0.2137,0.3052 -0.3053,0.4579 -0.7022,0.5189z"/>
  <path class="fil4" d="M101.608 54.709c-0.0306,-0.0915 -0.0611,-0.1831 -0.0916,-0.2747 0.4579,-0.7632 1.7707,-0.4274 2.5644,-0.3969 0,0.1527 0,0.3053 0,0.4885 -0.7327,0.1221 -0.7327,0.1221 -2.4728,0.1831z"/>
  <path class="fil4" d="M103.653 53.3963c-0.0916,-0.0611 -0.1526,-0.0916 -0.2137,-0.1221 0.0611,-0.1832 0.1526,-0.3664 0.2442,-0.5495 0.9464,-0.1527 1.557,-0.1832 2.5339,0 0.0306,0.1221 0.0611,0.2442 0.1221,0.3663 -0.2442,0.2442 -2.1064,0.2137 -2.6865,0.3053z"/>
  <path class="fil6" d="M181.257 52.1752c-0.4885,-1.0075 1.1295,-2.4424 1.8012,-3.114 0.1832,0 0.3663,0 0.58,0 0,0.5495 -2.2896,3.0834 -2.3812,3.114z"/>
  <path class="fil4" d="M106.278 51.0456c-0.0305,-0.2442 -0.0305,-0.4579 -0.0305,-0.6716 0.6411,-0.1832 1.5264,-0.1832 2.0149,0.3052 -0.0306,0.0916 -0.0611,0.1832 -0.0916,0.3053 -0.6411,0 -1.2822,0.0306 -1.8928,0.0611z"/>
  <path class="fil4" d="M109.331 48.817c-0.3359,-0.1527 -0.5801,-0.2137 -0.3359,-0.6411 0.5801,-0.1527 1.2212,-0.2442 1.8012,-0.0305 0,0.1831 0.0306,0.3663 0.0611,0.5495 -0.519,0.0305 -1.038,0.061 -1.5264,0.1221z"/>
  <path class="fil4" d="M112.079 47.1684c-0.1222,-0.061 -0.2443,-0.1221 -0.3359,-0.1831 0,-0.1527 0,-0.3053 0.0306,-0.458 0.9769,0 1.7401,0.4885 0.3053,0.6411z"/>
  <path class="fil4" d="M114.827 46.0694c-0.1526,-0.3053 -0.1526,-0.3053 -0.1526,-0.6716 0.7937,0 0.7937,0 0.9159,0.1221 -0.0306,0.1526 -0.0611,0.3053 -0.0916,0.4579 -0.2443,0.0305 -0.458,0.0611 -0.6717,0.0916z"/>
  <path class="fil5" d="M105.271 45.4588c-0.061,-0.3663 0.2443,-2.2896 0.5495,-2.4728 1.1601,-4.2435 2.7171,-9.6471 7.0827,-11.5704 5.4647,-0.9769 10.5325,-0.0306 14.7149,3.6634 -0.2137,0.5495 -3.694,1.2517 -4.274,1.3738 -5.4036,2.1981 -5.4036,2.1981 -6.7164,2.6255 -3.2971,2.1981 -7.4185,3.2971 -10.5324,5.8921 -0.3358,0.1221 -0.58,0.3968 -0.8243,0.4884z"/>
  <path class="fil4" d="M117.574 44.6345c-0.1831,-0.0915 -0.3663,-0.1831 -0.5495,-0.2747 0,-0.1527 0,-0.2748 0,-0.3969 0.3969,-0.0916 0.6411,-0.0305 1.0075,0.1221 0.0305,0.1221 0.061,0.2443 0.0916,0.3969 -0.1832,0.0305 -0.3664,0.0916 -0.5496,0.1526z"/>
  <path class="fil4" d="M119.101 43.8103c-0.0916,-0.3053 -0.1832,-0.3053 -0.0306,-0.6106 0.3969,0 0.4885,-0.0611 0.7938,0.1526 0,0.1221 0,0.2443 0,0.3969 -0.2748,0 -0.519,0.0305 -0.7632,0.0611z"/>
  <path class="fil4" d="M121.451 42.8944c-0.1527,-0.1832 -0.1527,-0.1832 -0.1527,-0.5495 0.1222,-0.1221 0.1222,-0.1221 0.8854,-0.0916 0.1221,0.2137 0.1221,0.2137 0.1221,0.4885 -0.3053,0.0305 -0.5801,0.0915 -0.8548,0.1526z"/>
  <path class="fil4" d="M124.413 41.9785c-0.1832,-0.3358 -0.1832,-0.3358 -0.1527,-0.4884 0.2748,-0.0916 0.519,-0.2443 0.7938,-0.0611 0,0.1527 0,0.3053 0,0.4885 -0.2137,0 -0.4274,0.0305 -0.6411,0.061z"/>
  <path class="fil4" d="M123.191 35.4759c-1.6791,-0.9464 -2.8391,-1.6791 -4.7319,-2.3202 -0.1221,-0.2137 -0.1221,-0.2137 -0.1221,-0.58 2.198,0 3.6329,0.9464 5.373,2.2286 0,0.5495 -0.0916,0.6105 -0.519,0.6716z"/>
  <path class="fil5" d="M159.307 34.8653c-6.2584,-1.3738 -12.761,-1.2822 -19.1416,-1.2822 -1.618,0.2137 -1.618,0.2137 -4.9762,0.3664 0,-1.038 2.5645,-3.5719 3.0529,-4.1825 1.9539,-1.4348 1.9539,-1.4348 3.6635,-2.5033 3.0529,-1.4349 5.312,-1.4959 8.6396,-0.9159 1.4959,0.8548 2.9918,1.6791 4.3656,2.7171 0,0.061 0,0.1221 0,0.2137 0.3969,0 1.1907,1.0074 1.4654,1.2822 2.5034,3.1139 2.5034,3.1139 3.2055,4.1214 -0.0915,0.061 -0.1831,0.1221 -0.2747,0.1831z"/>
  <path class="fil4" d="M154.911 33.4305c-0.3663,-0.1832 -0.3663,-0.1832 -0.6411,-0.458 -0.3358,-1.3738 -2.6865,-3.1444 -4.0298,-3.8466 -0.0916,-0.1221 -0.1831,-0.2442 -0.2747,-0.3358 0.58,-1.7707 5.1593,3.3582 5.4952,3.9687 0,0.1527 0,0.3359 0,0.519 -0.1832,0.0306 -0.3664,0.0916 -0.5496,0.1527z"/>
  <path class="fil4" d="M115.346 33.0336c-0.1831,-0.0916 -0.3663,-0.1526 -0.519,-0.2137 0.0611,-0.5495 0.0611,-0.5495 0.1832,-0.6716 2.0149,0.0305 2.0149,0.0305 2.1981,0.1526 -0.0305,0.1832 -0.0611,0.3664 -0.0916,0.5495 -0.4579,0.1221 -0.4579,0.1221 -1.7707,0.1832z"/>
  <ellipse class="fil7 str2" cx="160.651" cy="64.9781" rx="14.8247" ry="20.7546"/>
  <ellipse class="fil2 str3" cx="167.811" cy="67.0732" rx="7.16053" ry="12.1036"/>
  <ellipse class="fil7 str2" cx="188.061" cy="60.2479" rx="11.4342" ry="16.0078"/>
  <ellipse class="fil2 str3" cx="193.583" cy="61.8638" rx="5.52285" ry="9.33541"/>
  <path class="fil8 str3" d="M131.872 100.723c9.1535,8.6613 14.1693,14.6842 23.8039,18.3789 13.6658,4.3093 20.1234,0.9235 22.803,-5.7468l-3.2927 -0.0236 -1.8681 3.5449 -4.6118 0.7637 -5.9834 -1.6582 -0.5251 -4.2129c-10.7583,-1.4344 -20.4893,-5.4654 -30.3258,-11.046z"/>
  <path class="fil9" d="M65.947 113.138c5.3191,0 9.4909,0.7784 12.5329,2.3273 2.3031,1.7435 3.4591,3.775 3.4591,6.0867 0,3.1134 -1.66,6.4525 -4.9888,10.0096 -1.4775,0.9418 -4.0154,0.646 -7.6136,-0.8873 -6.6402,-1.0508 -11.7593,0.2646 -15.3749,3.9462 -0.8691,2.2183 0.0608,3.1056 2.7986,2.6697 2.3032,0 5.9101,-0.537 10.7946,-1.6034 7.6049,-1.0274 13.4714,-0.6149 17.5911,1.261 4.7195,3.2223 6.9792,7.2153 6.7793,11.9943 -0.087,3.3703 -1.2516,6.9663 -3.4939,10.7802 -2.2076,2.9032 -4.6325,5.4017 -7.2834,7.4799 -5.1539,3.775 -14.2885,7.2932 -27.3949,10.5622 -3.5287,0.5916 -6.3273,0.8873 -8.4044,0.8873 -5.2235,0 -9.3171,-0.6538 -12.2721,-1.9614 -3.2767,-1.6267 -4.9106,-3.8995 -4.9106,-6.8183 0,-2.9656 0.3041,-5.5263 0.9126,-7.6824 0.3389,-1.977 1.3645,-4.3665 3.0854,-7.1608 1.5731,-1.798 2.9116,-2.6931 3.9979,-2.6931 1.1387,-0.2101 5.6668,0.3814 13.5932,1.7825 5.7015,0.5137 11.1683,-0.0779 16.4005,-1.7825 6.2837,-2.6464 9.3431,-4.6701 9.1954,-6.0867 0,-1.2453 -1.408,-1.6656 -4.2066,-1.2531 -3.1375,0.3658 -8.5349,1.5567 -16.1919,3.5804 -2.7029,0.5915 -5.3625,0.8873 -7.996,0.8873 -3.9718,0.2257 -7.0139,-0.8795 -9.1172,-3.3313 -1.7642,-2.8721 -2.7203,-6.2346 -2.8767,-10.0797 0,-7.8302 3.8589,-13.8001 11.5854,-17.9176 1.3037,-1.2064 4.7108,-2.514 10.2123,-3.9229 3.5808,-0.716 6.6401,-1.0741 9.1867,-1.0741z"/>
  <path class="fil9" d="M112.445 135.508c6.4316,0.685 10.7686,4.2576 13.0109,10.7179 1.6774,8.2661 1.3385,15.3724 -1.0168,21.319 -3.0072,5.9855 -7.1791,8.842 -12.5068,8.5463 -6.449,-0.3269 -11.2639,-4.3043 -14.4363,-11.9243 -2.0685,-9.06 -1.4079,-16.1819 1.9903,-21.3658 3.6938,-4.6545 8.0134,-7.0829 12.9587,-7.2931zm-0.9734 15.6371c-1.9642,0.825 -2.955,3.0122 -2.9724,6.5692 0.1825,3.4092 1.5731,5.2072 4.1718,5.4018 2.5292,-0.288 3.8241,-2.6464 3.8677,-7.0908 -0.6259,-3.5726 -2.312,-5.1994 -5.0671,-4.8802z"/>
  <path class="fil9" d="M155.728 115.715c4.111,-0.218 7.1791,0.2257 9.1954,1.3232 1.1907,0.8795 1.8512,2.1326 1.9902,3.7594 0.2522,3.0745 -0.3301,6.7405 -1.7382,11.0136 -1.0168,3.6194 -2.3726,5.4874 -4.0674,5.6119l-2.1208 -0.4125c-5.0757,-0.5448 -9.569,0.8095 -13.4888,4.0786 -2.2772,2.3428 -3.3027,4.8647 -3.0854,7.5733 0.4432,3.0589 2.39,4.8881 5.8318,5.4952 2.6682,0.0778 5.519,-1.4711 8.5523,-4.6546l0.5388 -0.0155c1.3385,0.1012 2.816,2.732 4.4325,7.8847l-0.026 0.4592c-1.5992,3.2068 -3.7286,5.7598 -6.3968,7.6589 -4.1197,3.3158 -8.4219,4.9581 -12.9066,4.927 -3.9893,0.0467 -7.5875,-2.5997 -10.7946,-7.9392 -1.3558,-3.02 -2.2337,-6.8339 -2.6247,-11.4417 -0.2347,-4.7479 0.5476,-9.4025 2.3466,-13.9792 1.4949,-3.7438 3.1723,-6.7716 5.041,-9.0989 5.9536,-7.3009 12.4024,-11.3795 19.3207,-12.2434z"/>
  <path class="fil9" d="M187.842 102.919c4.9889,0 7.9961,3.4014 9.0129,10.2119 0.6606,15.5126 1.0603,24.7594 1.1907,27.756 0.0348,0.2413 0.1738,0.3658 0.4085,0.3658 0.6171,-0.2724 2.4162,-2.0081 5.3972,-5.1994 3.0594,-4.5299 5.2584,-7.5733 6.5968,-9.1222 0.7474,-0.7161 1.547,-1.0741 2.3988,-1.0741 2.1033,0 4.5716,2.0859 7.4049,6.2501 0.8865,2.0237 1.408,3.8139 1.5819,5.3784 0,3.0589 -1.3907,5.0904 -4.1806,6.0945 -4.954,1.4711 -9.5082,3.6738 -13.6713,6.6082 2.1032,-0.8951 4.6585,-1.4867 7.6656,-1.7747l1.5993 0c4.1805,0 7.0399,1.4867 8.587,4.4678 0.504,1.1986 0.7127,2.3428 0.6083,3.4169 -0.5215,3.3625 -2.8594,7.838 -7.0052,13.4344l-1.3992 1.7746 0 0.1868c4.1284,-1.0819 6.6661,-1.619 7.6136,-1.619 1.1385,0.109 1.6078,0.7706 1.3993,1.9848 -0.7735,4.7557 -2.7812,8.5697 -6.0057,11.4418 -3.9893,3.3157 -8.3871,4.8724 -13.1935,4.6778 -2.2161,-0.179 -4.0152,-1.292 -5.3972,-3.3313 -0.452,-1.043 -0.5215,-2.1482 -0.1999,-3.3002 0,-2.0704 1.4601,-5.4173 4.3805,-10.0407 2.9984,-5.3784 4.4064,-8.8965 4.1978,-10.5544 -0.843,-1.0819 -1.973,-1.619 -3.3809,-1.619 -4.2674,0.5137 -6.3968,1.0586 -6.3968,1.619 -0.817,9.1222 -1.8165,15.6915 -3.0071,19.7 -2.0164,5.2461 -4.2153,7.8691 -6.588,7.8691 -3.1637,0 -6.8228,-1.0118 -11.0032,-3.0355 -1.4602,-0.7239 -2.5292,-2.1016 -3.2072,-4.1253l-0.2086 -0.8873c2.9029,-9.6516 4.3718,-20.2215 4.4066,-31.6944 0,-9.5192 -1.3298,-18.9529 -3.998,-28.3008 -0.7909,-2.0704 -1.3298,-4.1019 -1.5992,-6.0867 0,-3.2691 3.3982,-6.437 10.2122,-9.4881 2.1903,-1.1442 4.111,-1.8058 5.7797,-1.9848z"/>
  <path class="fil10 str4" d="M65.947 113.138c5.3191,0 9.4909,0.7784 12.5329,2.3273 2.3031,1.7435 3.4591,3.775 3.4591,6.0867 0,3.1134 -1.66,6.4525 -4.9888,10.0096 -1.4775,0.9418 -4.0154,0.646 -7.6136,-0.8873 -6.6402,-1.0508 -11.7593,0.2646 -15.3749,3.9462 -0.8691,2.2183 0.0608,3.1056 2.7986,2.6697 2.3032,0 5.9101,-0.537 10.7946,-1.6034 7.6049,-1.0274 13.4714,-0.6149 17.5911,1.261 4.7195,3.2223 6.9792,7.2153 6.7793,11.9943 -0.087,3.3703 -1.2516,6.9663 -3.4939,10.7802 -2.2076,2.9032 -4.6325,5.4017 -7.2834,7.4799 -5.1539,3.775 -14.2885,7.2932 -27.3949,10.5622 -3.5287,0.5916 -6.3273,0.8873 -8.4044,0.8873 -5.2235,0 -9.3171,-0.6538 -12.2721,-1.9614 -3.2767,-1.6267 -4.9106,-3.8995 -4.9106,-6.8183 0,-2.9656 0.3041,-5.5263 0.9126,-7.6824 0.3389,-1.977 1.3645,-4.3665 3.0854,-7.1608 1.5731,-1.798 2.9116,-2.6931 3.9979,-2.6931 1.1387,-0.2101 5.6668,0.3814 13.5932,1.7825 5.7015,0.5137 11.1683,-0.0779 16.4005,-1.7825 6.2837,-2.6464 9.3431,-4.6701 9.1954,-6.0867 0,-1.2453 -1.408,-1.6656 -4.2066,-1.2531 -3.1375,0.3658 -8.5349,1.5567 -16.1919,3.5804 -2.7029,0.5915 -5.3625,0.8873 -7.996,0.8873 -3.9718,0.2257 -7.0139,-0.8795 -9.1172,-3.3313 -1.7642,-2.8721 -2.7203,-6.2346 -2.8767,-10.0797 0,-7.8302 3.8589,-13.8001 11.5854,-17.9176 1.3037,-1.2064 4.7108,-2.514 10.2123,-3.9229 3.5808,-0.716 6.6401,-1.0741 9.1867,-1.0741z"/>
  <path class="fil10 str4" d="M112.445 135.508c6.4316,0.685 10.7686,4.2576 13.0109,10.7179 1.6774,8.2661 1.3385,15.3724 -1.0168,21.319 -3.0072,5.9855 -7.1791,8.842 -12.5068,8.5463 -6.449,-0.3269 -11.2639,-4.3043 -14.4363,-11.9243 -2.0685,-9.06 -1.4079,-16.1819 1.9903,-21.3658 3.6938,-4.6545 8.0134,-7.0829 12.9587,-7.2931zm-0.9734 15.6371c-1.9642,0.825 -2.955,3.0122 -2.9724,6.5692 0.1825,3.4092 1.5731,5.2072 4.1718,5.4018 2.5292,-0.288 3.8241,-2.6464 3.8677,-7.0908 -0.6259,-3.5726 -2.312,-5.1994 -5.0671,-4.8802z"/>
  <path class="fil10 str4" d="M155.728 115.715c4.111,-0.218 7.1791,0.2257 9.1954,1.3232 1.1907,0.8795 1.8512,2.1326 1.9902,3.7594 0.2522,3.0745 -0.3301,6.7405 -1.7382,11.0136 -1.0168,3.6194 -2.3726,5.4874 -4.0674,5.6119l-2.1208 -0.4125c-5.0757,-0.5448 -9.569,0.8095 -13.4888,4.0786 -2.2772,2.3428 -3.3027,4.8647 -3.0854,7.5733 0.4432,3.0589 2.39,4.8881 5.8318,5.4952 2.6682,0.0778 5.519,-1.4711 8.5523,-4.6546l0.5388 -0.0155c1.3385,0.1012 2.816,2.732 4.4325,7.8847l-0.026 0.4592c-1.5992,3.2068 -3.7286,5.7598 -6.3968,7.6589 -4.1197,3.3158 -8.4219,4.9581 -12.9066,4.927 -3.9893,0.0467 -7.5875,-2.5997 -10.7946,-7.9392 -1.3558,-3.02 -2.2337,-6.8339 -2.6247,-11.4417 -0.2347,-4.7479 0.5476,-9.4025 2.3466,-13.9792 1.4949,-3.7438 3.1723,-6.7716 5.041,-9.0989 5.9536,-7.3009 12.4024,-11.3795 19.3207,-12.2434z"/>
  <path class="fil10 str4" d="M187.842 102.919c4.9889,0 7.9961,3.4014 9.0129,10.2119 0.6606,15.5126 1.0603,24.7594 1.1907,27.756 0.0348,0.2413 0.1738,0.3658 0.4085,0.3658 0.6171,-0.2724 2.4162,-2.0081 5.3972,-5.1994 3.0594,-4.5299 5.2584,-7.5733 6.5968,-9.1222 0.7474,-0.7161 1.547,-1.0741 2.3988,-1.0741 2.1033,0 4.5716,2.0859 7.4049,6.2501 0.8865,2.0237 1.408,3.8139 1.5819,5.3784 0,3.0589 -1.3907,5.0904 -4.1806,6.0945 -4.954,1.4711 -9.5082,3.6738 -13.6713,6.6082 2.1032,-0.8951 4.6585,-1.4867 7.6656,-1.7747l1.5993 0c4.1805,0 7.0399,1.4867 8.587,4.4678 0.504,1.1986 0.7127,2.3428 0.6083,3.4169 -0.5215,3.3625 -2.8594,7.838 -7.0052,13.4344l-1.3992 1.7746 0 0.1868c4.1284,-1.0819 6.6661,-1.619 7.6136,-1.619 1.1385,0.109 1.6078,0.7706 1.3993,1.9848 -0.7735,4.7557 -2.7812,8.5697 -6.0057,11.4418 -3.9893,3.3157 -8.3871,4.8724 -13.1935,4.6778 -2.2161,-0.179 -4.0152,-1.292 -5.3972,-3.3313 -0.452,-1.043 -0.5215,-2.1482 -0.1999,-3.3002 0,-2.0704 1.4601,-5.4173 4.3805,-10.0407 2.9984,-5.3784 4.4064,-8.8965 4.1978,-10.5544 -0.843,-1.0819 -1.973,-1.619 -3.3809,-1.619 -4.2674,0.5137 -6.3968,1.0586 -6.3968,1.619 -0.817,9.1222 -1.8165,15.6915 -3.0071,19.7 -2.0164,5.2461 -4.2153,7.8691 -6.588,7.8691 -3.1637,0 -6.8228,-1.0118 -11.0032,-3.0355 -1.4602,-0.7239 -2.5292,-2.1016 -3.2072,-4.1253l-0.2086 -0.8873c2.9029,-9.6516 4.3718,-20.2215 4.4066,-31.6944 0,-9.5192 -1.3298,-18.9529 -3.998,-28.3008 -0.7909,-2.0704 -1.3298,-4.1019 -1.5992,-6.0867 0,-3.2691 3.3982,-6.437 10.2122,-9.4881 2.1903,-1.1442 4.111,-1.8058 5.7797,-1.9848z"/>
  <path class="fil11" d="M103.8 192.187c0,0.7343 -0.3599,1.3232 -1.0796,1.7668 -0.7196,0.4436 -1.6515,0.6654 -2.7955,0.6654 -0.8489,0 -1.5593,-0.1453 -2.1314,-0.436 -0.572,-0.2906 -1.0426,-0.8489 -1.4116,-1.6749 -0.2952,-0.6425 -0.7934,-1.2314 -1.4947,-1.7668 -0.7012,-0.5354 -1.5316,-0.8031 -2.4912,-0.8031 -0.9595,0 -1.7806,0.2371 -2.4634,0.7113 -0.6828,0.4742 -1.264,1.0784 -1.7438,1.8127 -0.4798,0.7342 -0.858,1.5679 -1.1349,2.501 -0.2767,0.9331 -0.4889,1.8585 -0.6366,2.7763 -0.1476,0.9178 -0.2491,1.7821 -0.3044,2.5928 -0.0554,0.8108 -0.0831,1.4762 -0.0831,1.9963 0,0.4894 0.0277,1.0707 0.0831,1.7438 0.0553,0.673 0.1752,1.369 0.3598,2.088 0.1845,0.7189 0.4244,1.4379 0.7196,2.1568 0.2953,0.719 0.6828,1.3538 1.1625,1.9045 0.4798,0.5507 1.0611,1.0019 1.7439,1.3537 0.6828,0.3519 1.4855,0.5278 2.4081,0.5278 1.3655,0 2.4358,-0.2907 3.2107,-0.8719 0.7751,-0.5813 1.2549,-1.3309 1.4394,-2.2487 0.1845,-1.0707 0.5352,-1.8356 1.0518,-2.2945 0.5167,-0.4589 1.4762,-0.6883 2.8787,-0.6883 1.2548,0 2.159,0.3212 2.7126,0.9637 0.5535,0.6424 0.8304,1.3155 0.8304,2.0191 0,1.2544 -0.3045,2.3863 -0.9134,3.3959 -0.609,1.0096 -1.4486,1.8662 -2.5189,2.5699 -1.0702,0.7036 -2.3528,1.2466 -3.8474,1.6291 -1.4947,0.3824 -3.1093,0.5736 -4.8439,0.5736 -3.137,0 -5.702,-0.4666 -7.6948,-1.3997 -1.993,-0.9331 -3.543,-2.1415 -4.6502,-3.6253 -1.1072,-1.4838 -1.8638,-3.1358 -2.2697,-4.9561 -0.4059,-1.8203 -0.609,-3.6177 -0.609,-5.3921 0,-1.132 0.083,-2.3404 0.2491,-3.6254 0.1662,-1.2849 0.4522,-2.5469 0.8581,-3.7859 0.4059,-1.239 0.9688,-2.4322 1.6884,-3.5794 0.7197,-1.1473 1.6331,-2.1492 2.7403,-3.0058 1.1072,-0.8567 2.4543,-1.545 4.0412,-2.0651 1.5869,-0.5201 3.4322,-0.7801 5.5358,-0.7801 2.2513,0 4.3088,0.3288 6.1726,0.9866 1.8636,0.6578 3.3307,1.7209 4.4009,3.1894 0.2215,0.3671 0.4152,0.7954 0.5813,1.2849 0.1662,0.4895 0.2492,1.0861 0.2492,1.7897z"/>
  <path class="fil11" d="M106.291 201.548c0,-1.1625 0.0922,-2.3863 0.2768,-3.6712 0.1846,-1.2849 0.4982,-2.5469 0.9411,-3.7859 0.4428,-1.2391 1.0149,-2.4169 1.7161,-3.5336 0.7012,-1.1166 1.55,-2.0956 2.5466,-2.937 0.9964,-0.8413 2.1774,-1.5143 3.5428,-2.0191 1.3656,-0.5048 2.9156,-0.7572 4.6502,-0.7572 2.6203,0 4.8163,0.543 6.5876,1.6291 1.7715,1.0861 3.1925,2.4551 4.2627,4.1072 1.0703,1.652 1.836,3.4723 2.2973,5.4609 0.4615,1.9886 0.6921,3.8854 0.6921,5.6904 0,0.8872 -0.0831,1.8968 -0.2491,3.0287 -0.1661,1.132 -0.4521,2.2792 -0.858,3.4418 -0.4061,1.1626 -0.9504,2.2945 -1.6332,3.3959 -0.6828,1.1013 -1.5408,2.0803 -2.5742,2.9369 -1.0333,0.8567 -2.2512,1.545 -3.6536,2.0651 -1.4025,0.5201 -3.0448,0.7801 -4.927,0.7801 -1.8453,0 -3.4692,-0.2524 -4.8715,-0.7571 -1.4025,-0.5048 -2.6111,-1.1779 -3.626,-2.0192 -1.0149,-0.8413 -1.8545,-1.8127 -2.5188,-2.914 -0.6643,-1.1014 -1.1903,-2.241 -1.5778,-3.4189 -0.3874,-1.1778 -0.655,-2.348 -0.8027,-3.5106 -0.1476,-1.1625 -0.2214,-2.2333 -0.2214,-3.2123zm8.4698 0.1377c0,0.7648 0.0554,1.7591 0.1662,2.9829 0.1107,1.2237 0.3505,2.4015 0.7196,3.5335 0.3691,1.132 0.895,2.1109 1.5777,2.937 0.6828,0.826 1.5777,1.239 2.6849,1.239 0.7751,0 1.4394,-0.1912 1.993,-0.5736 0.5536,-0.3824 1.0333,-0.8796 1.4393,-1.4915 0.4059,-0.6118 0.7381,-1.3078 0.9964,-2.088 0.2584,-0.7801 0.4614,-1.5602 0.6089,-2.3404 0.1477,-0.7801 0.2492,-1.5373 0.3045,-2.2715 0.0554,-0.7343 0.0831,-1.3614 0.0831,-1.8815 0,-0.7954 -0.0553,-1.8586 -0.1661,-3.1894 -0.1107,-1.3308 -0.3505,-2.6463 -0.7197,-3.9465 -0.369,-1.3003 -0.9041,-2.4246 -1.6054,-3.373 -0.7012,-0.9484 -1.6607,-1.4226 -2.8786,-1.4226 -0.775,0 -1.4486,0.2218 -2.0206,0.6654 -0.5721,0.4436 -1.0518,1.0173 -1.4393,1.7209 -0.3876,0.7037 -0.6921,1.4991 -0.9134,2.3863 -0.2215,0.8872 -0.3968,1.7668 -0.526,2.6387 -0.1291,0.8719 -0.2122,1.7056 -0.2491,2.501 -0.0369,0.7954 -0.0554,1.4532 -0.0554,1.9733z"/>
  <path class="fil11" d="M136.462 186.634c0,-0.9484 0.3782,-1.7821 1.1348,-2.501 0.7566,-0.719 1.9099,-1.0784 3.46,-1.0784 1.4024,0 2.5373,0.3212 3.4045,0.9637 0.8673,0.6424 1.3009,1.4532 1.3009,2.4321 0,0.4589 -0.1107,0.9026 -0.3321,1.3309 -0.2215,0.4283 -0.5259,0.8107 -0.9134,1.1472 -0.3875,0.3365 -0.8674,0.6042 -1.4394,0.8031 -0.572,0.1989 -1.2271,0.2983 -1.9652,0.2983 -1.3655,0 -2.4819,-0.3213 -3.3492,-0.9637 -0.8673,-0.6425 -1.3009,-1.4532 -1.3009,-2.4322zm4.5395 4.6349c1.5869,0 2.6848,0.3365 3.2937,1.0096 0.609,0.6731 0.9134,1.6215 0.9134,2.8452 0,0.979 -0.0091,1.805 -0.0276,2.4781 -0.0184,0.673 -0.0369,1.2772 -0.0553,1.8126 -0.0185,0.5354 -0.037,1.0479 -0.0554,1.5373 -0.0185,0.4895 -0.0278,1.0402 -0.0278,1.6521l0 2.7534 -0.0552 4.8185 0 2.7534c0,2.5698 -1.4394,3.8548 -4.3181,3.8548 -0.9226,0 -1.6514,-0.1836 -2.1866,-0.5507 -0.5351,-0.3671 -0.9319,-0.8413 -1.1902,-1.4226 -0.2583,-0.5813 -0.4153,-1.2085 -0.4705,-1.8815 -0.0554,-0.6731 -0.0831,-1.3002 -0.0831,-1.8815 0,-1.3155 0,-2.4245 0,-3.327 0,-0.9026 0.0184,-1.7362 0.0553,-2.5011l0.1108 -2.891c0.0369,-0.7649 0.0554,-1.5986 0.0554,-2.5011 0,-0.9025 0,-2.0115 0,-3.327 0,-0.6425 0.0276,-1.2773 0.0829,-1.9044 0.0554,-0.6272 0.2122,-1.1855 0.4706,-1.675 0.2583,-0.4895 0.6551,-0.8872 1.1902,-1.1932 0.5351,-0.3059 1.3009,-0.4589 2.2975,-0.4589z"/>
  <path class="fil11" d="M152.073 216.784c-0.8857,0 -1.5776,-0.1071 -2.076,-0.3213 -0.4982,-0.2141 -0.858,-0.5048 -1.0794,-0.8719 -0.2215,-0.3671 -0.3599,-0.8031 -0.4152,-1.3078 -0.0554,-0.5048 -0.083,-1.0479 -0.083,-1.6292l0 -6.241 0.166 -12.528 0 -6.2411c0,-0.4589 0.12,-0.8413 0.3598,-1.1473 0.24,-0.3059 0.5536,-0.5659 0.9412,-0.7801 0.3875,-0.2142 0.8211,-0.3671 1.3009,-0.4589 0.4798,-0.0918 0.9595,-0.1377 1.4393,-0.1377 1.0702,0 1.9007,0.1377 2.4912,0.413 0.5905,0.2754 1.1256,0.8108 1.6054,1.6062 0.7012,1.1625 1.4577,2.4781 2.2697,3.9466 0.8119,1.4684 1.6331,2.9675 2.4634,4.4972 0.8304,1.5297 1.6516,3.0287 2.4635,4.4972 0.8119,1.4685 1.5685,2.7993 2.2697,3.9925 0,-1.1626 -0.0185,-2.4628 -0.0554,-3.9007 -0.0369,-1.4379 -0.0645,-2.9064 -0.083,-4.4054 -0.0185,-1.4991 -0.0461,-2.9753 -0.083,-4.4284 -0.0369,-1.4532 -0.0554,-2.7611 -0.0554,-3.9237 0,-0.4283 0.1292,-0.7877 0.3875,-1.0784 0.2584,-0.2906 0.5813,-0.5201 0.9688,-0.6883 0.3875,-0.1683 0.8119,-0.2907 1.2733,-0.3672 0.4613,-0.0764 0.895,-0.1147 1.3009,-0.1147 1.181,0 2.1313,0.1759 2.8509,0.5278 0.7197,0.3518 1.0796,1.0478 1.0796,2.088 0,2.0803 -0.0093,4.3366 -0.0278,6.7688 -0.0184,2.4321 -0.0369,4.8337 -0.0552,7.2047 -0.0185,2.371 -0.037,4.6043 -0.0554,6.7 -0.0185,2.0956 -0.0278,3.8471 -0.0278,5.2544 0,0.9178 -0.286,1.6597 -0.858,2.2257 -0.5721,0.566 -1.4855,0.849 -2.7402,0.849 -0.7012,0 -1.3286,-0.0842 -1.8822,-0.2524 -0.5536,-0.1683 -1.0149,-0.3748 -1.3841,-0.6195 -0.5905,-0.4589 -1.3285,-1.3003 -2.2143,-2.524 -0.8857,-1.2237 -1.8084,-2.6005 -2.7679,-4.1301 -0.9595,-1.5297 -1.9468,-3.1206 -2.9617,-4.7726 -1.0149,-1.6521 -1.9652,-3.1664 -2.851,-4.5431 0.0369,1.9274 0.0462,3.9771 0.0277,6.1493 -0.0184,2.1721 -0.0277,4.2218 -0.0277,6.1492 0,0.6425 -0.0276,1.2391 -0.083,1.7898 -0.0554,0.5506 -0.2122,1.0325 -0.4706,1.4455 -0.2583,0.413 -0.6457,0.7342 -1.1625,0.9637 -0.5167,0.2294 -1.2363,0.3442 -2.159,0.3442z"/>
 </g>
</svg>
