<?xml version="1.0" encoding="UTF-8"?>
<!DOCTYPE svg PUBLIC "-//W3C//DTD SVG 1.1//EN" "http://www.w3.org/Graphics/SVG/1.1/DTD/svg11.dtd">
<!-- Creator: CorelDRAW -->
<svg xmlns="http://www.w3.org/2000/svg" xml:space="preserve" width="875mm" height="850mm" style="shape-rendering:geometricPrecision; text-rendering:geometricPrecision; image-rendering:optimizeQuality; fill-rule:evenodd; clip-rule:evenodd"
viewBox="0 0 875 850">
 <defs>
  <style type="text/css">
   <![CDATA[
    .str9 {stroke:#1F1A17;stroke-width:0.0762}
    .str6 {stroke:#00923F;stroke-width:2.8222}
    .str10 {stroke:#0A0B0C;stroke-width:2.8222}
    .str8 {stroke:#1F1A17;stroke-width:2.8222}
    .str5 {stroke:#00923F;stroke-width:5.6444}
    .str1 {stroke:#AB8C0A;stroke-width:8.4667}
    .str2 {stroke:#F7D117;stroke-width:8.4667}
    .str3 {stroke:white;stroke-width:16.9333}
    .str0 {stroke:white;stroke-width:22.5778}
    .str7 {stroke:#00923F;stroke-width:5.6444;stroke-dasharray:5 5}
    .str4 {stroke:white;stroke-width:16.9333;stroke-dasharray:16 16}
    .fil5 {fill:none}
    .fil2 {fill:none;fill-rule:nonzero}
    .fil9 {fill:#00923F}
    .fil8 {fill:#0A0B0C}
    .fil0 {fill:white}
    .fil7 {fill:#66CC00}
    .fil6 {fill:#66FF00}
    .fil3 {fill:#E0AD12}
    .fil4 {fill:#F7E354}
    .fil15 {fill:#1F1A17;fill-rule:nonzero}
    .fil10 {fill:#F8C300;fill-rule:nonzero}
    .fil1 {fill:white;fill-rule:nonzero}
    .fil14 {fill:#66FF00;fill-rule:nonzero}
    .fil13 {fill:#9900FF;fill-rule:nonzero}
    .fil11 {fill:#ED00A3;fill-rule:nonzero}
    .fil12 {fill:#ED6E00;fill-rule:nonzero}
   ]]>
  </style>
 </defs>
 <g id="Capa_x0020_1">
  <metadata id="CorelCorpID_0Corel-Layer"/>
  <g id="_336840208">
   <g>
    <ellipse id="_739608136" class="fil0 str0" cx="435.111" cy="295.737" rx="250" ry="250"/>
    <g>
     <polygon id="_739601296" class="fil1 str0" points="721.267,499.498 758.753,398.009 852.469,417.765 773.509,556.585 846.145,621.8 775.801,703.334 730.432,621.8 737.535,681.794 664.35,701.947 664.35,415.254 716.18,423.381 "/>
     <path id="_739600552" class="fil1 str0" d="M653.58 654.308c-34.5077,30.8564 -66.2658,46.3176 -95.1826,46.3176 -28.9626,0 -53.7091,-15.0648 -74.148,-45.1282 -20.4846,-30.0635 -30.704,-66.3378 -30.704,-108.823 0,-42.4192 10.2194,-78.6275 30.704,-108.691 20.4389,-29.9974 45.1854,-44.9961 74.148,-44.9961 28.9168,0 53.6175,15.0648 74.1481,45.1282 10.2652,14.9327 18.6515,33.9618 25.0673,56.8893l-68.7405 29.4688c-2.6579,-12.1575 -6.2324,-21.5399 -10.7235,-28.0812 -7.5155,-10.9682 -16.4976,-16.4523 -26.992,-16.4523 -10.4485,0 -19.4765,5.4841 -26.9921,16.5183 -7.5156,11.0343 -11.2734,24.3151 -11.2734,39.7763 0,15.5273 3.7578,28.742 11.2734,39.7762 7.5156,11.0343 16.5436,16.5845 26.9921,16.5845 17.46,1.6518 37.7155,-9.1842 60.8124,-32.5082l41.6108 94.2208z"/>
     <path id="_739580464" class="fil1 str0" d="M332.837 700.625c-31.3915,0 -58.246,-13.8755 -80.6096,-41.5603 -22.3177,-27.6848 -33.4995,-61.2501 -33.4995,-100.762 0,-39.4458 11.1818,-73.0772 33.4995,-100.762 22.3636,-27.6848 49.2181,-41.4942 80.6096,-41.4942 31.3457,0 58.2002,13.8094 80.5179,41.4942 22.3178,27.6848 33.4996,61.3162 33.4996,100.762 0,39.512 -11.1818,73.0773 -33.4996,100.762 -22.3177,27.6848 -49.1722,41.5603 -80.5179,41.5603zm-7.5156 -98.1853c11.7317,0 21.722,-5.0215 29.8792,-15.1969 8.203,-10.1092 12.2816,-22.1346 12.2816,-36.0761 0,-13.9415 -4.0786,-25.9669 -12.2816,-36.1422 -8.1572,-10.1092 -18.1475,-15.1969 -29.8792,-15.1969 -11.7776,0 -21.8137,5.0877 -29.9708,15.1969 -8.2031,10.1753 -12.2816,22.2007 -12.2816,36.1422 0,13.9415 4.0785,25.9669 12.2816,36.0761 8.1571,10.1754 18.1932,15.1969 29.9708,15.1969z"/>
     <path id="_739580536" class="fil1 str0" d="M82.2098 592.199c-28.1835,-5.5502 -42.2982,-30.4599 -42.2982,-74.7292 0,-5.6823 0.2749,-11.695 0.8249,-17.972 4.0328,-55.3696 48.3474,-88.0099 133.036,-97.987l13.1523 101.621c-4.5368,-0.1322 -8.8446,-0.1982 -12.8774,-0.1982 -32.3996,0 -49.4472,4.559 -51.1428,13.545 -0.1833,0.6608 -0.275,1.3215 -0.275,1.9822 0,9.1182 15.3062,14.7344 45.9186,16.8488 31.7581,2.1804 47.66,31.8474 47.66,89.001l0 4.0965c-0.8249,59.9948 -46.881,91.9743 -138.168,96.0048l-27.4962 -106.444c21.0346,3.3037 37.624,5.0216 49.8139,5.0216 14.9396,0 23.2343,-2.5108 24.9757,-7.5984 0.1375,-0.7269 0.2291,-1.5197 0.2291,-2.3126 0,-7.9949 -14.4354,-14.9326 -43.3523,-20.8792z"/>
     <path id="_739580608" class="fil1" d="M583.74 786.885c0.1591,3.7005 -2.1075,7.3115 -6.7997,10.833 -4.692,3.5215 -10.418,6.3267 -17.1779,8.4157 -6.7598,2.089 -13.48,3.3723 -20.1603,3.8498 -12.5654,0.7162 -23.1028,-1.7906 -31.6123,-7.5205 -8.5095,-5.7298 -14.0367,-13.6084 -16.5815,-23.6356 -0.9545,-3.3424 -1.7497,-9.2513 -2.3859,-17.7267 -0.6362,-8.4754 -0.3579,-18.3535 0.835,-29.6341 1.193,-11.2807 3.8572,-19.5472 7.9925,-24.7995 0.3182,-0.4775 1.0737,-1.4623 2.2666,-2.9545 1.193,-1.4921 2.1076,-2.656 2.7438,-3.4916 0.6361,-0.8356 1.5507,-1.9995 2.7436,-3.4916 1.193,-1.4922 2.3063,-2.6859 3.3402,-3.5812 1.0338,-0.8953 2.2267,-1.9398 3.5788,-3.1335 1.352,-1.1937 2.7039,-2.1487 4.0559,-2.8649 1.3519,-0.7163 2.863,-1.4325 4.5331,-2.1487 1.6701,-0.7163 3.3799,-1.2534 5.1295,-1.6116 1.7496,-0.3581 3.5788,-0.5371 5.4875,-0.5371 20.0409,0 33.6402,2.8649 40.7977,8.5947 2.2268,1.91 4.1354,5.6702 5.7261,11.2807 1.5905,5.6105 2.3857,10.6539 2.3857,15.1304 0,4.4764 -0.5567,7.5503 -1.6701,9.2215 -2.0677,1.5518 -7.9528,2.9544 -17.6552,4.2078 -9.7023,1.2534 -15.4283,1.1042 -17.1779,-0.4476 -0.7953,-0.7162 -1.4713,-2.1189 -2.028,-4.2079 -0.5567,-2.089 -1.1929,-3.79 -1.9087,-5.1031 -0.7158,-1.3131 -1.7893,-1.8503 -3.2209,-1.6115 -1.9086,0.2387 -4.1353,10.2063 -6.6803,29.9026 -0.318,3.1037 -0.3579,5.9985 -0.1192,8.6843 0.2385,2.6859 0.7157,5.133 1.4314,7.3414 0.7158,2.2084 1.5905,4.1482 2.6245,5.8194 1.0338,1.6712 2.1472,3.044 3.3402,4.1183 1.1929,1.0744 2.346,1.8801 3.4594,2.4173 1.1133,0.5372 2.0678,0.7461 2.863,0.6267 1.9087,-0.1194 3.8968,-0.955 5.9646,-2.5068 2.0677,-1.5518 3.7775,-3.1932 5.1295,-4.9241 1.352,-1.7309 2.9027,-3.4319 4.6523,-5.1031 1.7497,-1.6713 3.2608,-2.6859 4.5331,-3.044 1.2725,-0.3581 3.0221,0.4178 5.2489,2.3277 2.2268,1.91 4.374,4.2377 6.4418,6.9833 2.0677,2.7455 3.857,5.5209 5.3681,8.3262 1.511,2.8052 2.346,4.8047 2.5051,5.9984z"/>
     <path id="_739580608" class="fil1" d="M690.148 749.104c0.3182,2.0293 0.5567,4.2675 0.7158,6.7147 0.1591,2.4471 0.1591,5.6701 0,9.6691 -0.1591,3.999 -0.5567,7.8189 -1.1929,11.4597 -0.6363,3.6408 -1.8689,7.4607 -3.6981,11.4597 -1.8291,3.999 -4.0956,7.4607 -6.7995,10.3854 -2.7041,2.9246 -6.3226,5.3717 -10.8557,7.3413 -4.533,1.9697 -9.8216,3.0739 -15.8657,3.3126 -15.4284,0.4775 -28.6301,-1.1937 -39.6048,-5.0136 -10.9749,-3.8199 -17.9734,-9.6095 -20.9954,-17.3686 -2.2267,-5.4911 -3.698,-12.4446 -4.4138,-20.8603 -0.7158,-8.4157 -0.0397,-16.9806 2.028,-25.6948 2.0677,-8.7141 5.5669,-14.9215 10.4976,-18.622 13.8379,-10.3854 33.9585,-13.31 60.3617,-8.7738 7.3165,1.313 13.798,5.7596 19.4445,13.3398 5.6464,7.5801 9.106,15.1304 10.3783,22.6508zm-48.1938 31.3351c1.7496,-0.1193 3.1413,-1.3131 4.1753,-3.5811 1.0338,-2.2681 1.6701,-5.1032 1.9086,-8.5053 0.2386,-3.4021 0.3579,-6.2372 0.3579,-8.5052 0,-2.2681 0,-4.2974 0,-6.088 -0.1591,-2.7456 -0.8748,-5.4016 -2.1472,-7.9681 -1.2725,-2.5665 -2.6245,-4.0885 -4.056,-4.566 -1.2725,-0.5968 -3.1016,-0.2387 -5.4874,1.0744 -2.3858,1.3131 -4.2945,3.1037 -5.726,5.3717 -1.4315,2.0294 -2.2267,5.6702 -2.3858,10.9226 -0.1591,5.2523 0.1591,9.311 0.9543,12.1759 0.4771,3.1037 1.9882,5.5508 4.533,7.3414 2.545,1.7906 5.1694,2.5665 7.8733,2.3277z"/>
     <path id="_739580608" class="fil1" d="M736.195 724.752c1.9087,0.5969 3.3004,4.0288 4.1752,10.2958 0.8749,6.2671 1.2724,12.6236 1.1929,19.0697 -0.0795,6.4461 -0.4373,10.9225 -1.0735,13.4294 -0.6363,3.1036 -0.9545,7.6099 -0.9545,13.5188 0,5.9089 -0.0795,11.1613 -0.2385,15.7571 -0.1591,4.5958 -0.8749,7.5503 -2.1472,8.8634 -0.9544,1.0743 -7.3167,1.4921 -19.0868,1.2534 -11.77,-0.2387 -17.8937,-0.8356 -18.3708,-1.7906 -0.3182,-0.7162 -0.6362,-2.3874 -0.9544,-5.0136 -0.3181,-2.6262 -0.676,-6.7147 -1.0736,-12.2655 -0.3977,-5.5508 -0.3579,-12.0267 0.1193,-19.4278 0.4771,-9.311 1.3122,-18.3534 2.5051,-27.1272 1.1929,-8.7739 2.5847,-13.9964 4.1752,-15.6676 0.7953,-0.7162 5.8851,-1.1937 15.2693,-1.4325 9.3844,-0.2387 14.8718,-0.0596 16.4623,0.5372zm1.9087 -31.1561c5.0898,3.8199 6.5212,9.4304 4.2944,16.8315 -0.318,1.0743 -1.1133,2.1188 -2.3858,3.1335 -1.2724,1.0147 -2.7835,1.8503 -4.5331,2.5068 -1.7495,0.6566 -3.539,1.2236 -5.3681,1.7011 -1.8291,0.4774 -3.6185,0.8356 -5.3681,1.0743 -1.2724,0.3581 -3.4992,0.4477 -6.6804,0.2686 -3.181,-0.1791 -6.4019,-0.4477 -9.6625,-0.8058 -3.2606,-0.3581 -6.2032,-1.4026 -8.8277,-3.1335 -2.6244,-1.7309 -4.0161,-4.0288 -4.1752,-6.8937 -0.1591,-4.2974 0.6761,-7.9979 2.5051,-11.1016 1.8292,-3.1037 4.6525,-5.0733 8.4698,-5.9089 3.4993,-1.0744 8.9866,-1.4623 16.4623,-1.1639 7.4756,0.2984 12.5654,1.4623 15.2693,3.4916z"/>
     <path id="_739580608" class="fil1" d="M838.309 725.11c2.545,4.2974 4.0559,12.7728 4.5331,25.4263 0.4771,12.6534 0.3182,24.2026 -0.4772,34.6477 -0.7953,10.445 -1.4314,16.2644 -1.9087,17.4581 -0.4771,1.1937 -5.7259,2.2382 -15.7464,3.1335 -10.0205,0.8953 -15.9852,0.6267 -17.8937,-0.8057 -0.3182,-0.3582 -0.7555,-1.7309 -1.3122,-4.1184 -0.5567,-2.3874 -0.9545,-5.6105 -1.193,-9.6691 -0.2386,-4.0586 -0.2783,-7.9979 -0.1193,-11.8178 0.3181,-5.6105 0.4374,-11.0121 0.3578,-16.2048 -0.0795,-5.1926 -0.2385,-9.5796 -0.4771,-13.1607 -0.2385,-3.5812 -0.4374,-5.4911 -0.5964,-5.7299 -0.9544,-1.5518 -2.7438,-1.8801 -5.3681,-0.9848 -2.6245,0.8953 -4.4138,2.1785 -5.3681,3.8498 -0.9545,1.4324 -1.3918,10.6837 -1.3124,27.7539 0.0796,17.0702 -0.5964,26.9184 -2.0278,29.5446 -0.9544,1.5518 -7.1973,2.1188 -18.7289,1.701 -11.5315,-0.4178 -17.7744,-1.2832 -18.7287,-2.5963 -0.7953,-0.7162 -1.3123,-1.7309 -1.5508,-3.044 -0.2387,-1.3131 -0.3182,-3.4021 -0.2387,-6.267 0.0796,-2.8649 0.1988,-5.7896 0.3579,-8.7739 0.1591,-2.9843 0.3976,-7.4905 0.7158,-13.5188 0.3181,-6.0283 0.5567,-11.9074 0.7158,-17.6372 0.159,-5.2524 0.0794,-10.4749 -0.2386,-15.6676 -0.3181,-5.1927 -0.676,-9.2513 -1.0737,-12.1759 -0.3976,-2.9246 -0.5964,-5.6404 -0.5964,-8.1472 0,-2.5068 0.3976,-4.4167 1.1929,-5.7298 0.7952,-1.0744 6.9985,-1.7906 18.6095,-2.1487 11.6111,-0.3581 18.2119,-0.1194 19.8024,0.7162 1.7496,0.8356 2.6642,2.1487 2.7438,3.9393 0.0795,1.7906 -0.1988,3.1932 -0.8351,4.2079 -0.6362,1.0146 -0.5567,1.6413 0.2385,1.8801 0.1591,-0.2388 0.3579,-0.5969 0.5966,-1.0744 0.2385,-0.4775 0.9146,-1.3131 2.0279,-2.5068 1.1134,-1.1937 2.3461,-2.2681 3.6981,-3.223 1.3519,-0.955 3.2207,-1.7906 5.6066,-2.5069 2.3859,-0.7162 4.9308,-1.0743 7.6347,-1.0743 3.3402,0 6.4815,0.4178 9.4241,1.2534 2.9424,0.8356 5.3283,1.7906 7.1575,2.8649 1.8291,1.0744 3.5787,2.3576 5.2488,3.8498 1.6701,1.4921 2.8232,2.7157 3.4594,3.6707 0.6363,0.9549 1.193,1.8502 1.6701,2.6858z"/>
     <path id="_739580608" class="fil2 str0" d="M583.74 786.885c0.1591,3.7005 -2.1075,7.3115 -6.7997,10.833 -4.692,3.5215 -10.418,6.3267 -17.1779,8.4157 -6.7598,2.089 -13.48,3.3723 -20.1603,3.8498 -12.5654,0.7162 -23.1028,-1.7906 -31.6123,-7.5205 -8.5095,-5.7298 -14.0367,-13.6084 -16.5815,-23.6356 -0.9545,-3.3424 -1.7497,-9.2513 -2.3859,-17.7267 -0.6362,-8.4754 -0.3579,-18.3535 0.835,-29.6341 1.193,-11.2807 3.8572,-19.5472 7.9925,-24.7995 0.3182,-0.4775 1.0737,-1.4623 2.2666,-2.9545 1.193,-1.4921 2.1076,-2.656 2.7438,-3.4916 0.6361,-0.8356 1.5507,-1.9995 2.7436,-3.4916 1.193,-1.4922 2.3063,-2.6859 3.3402,-3.5812 1.0338,-0.8953 2.2267,-1.9398 3.5788,-3.1335 1.352,-1.1937 2.7039,-2.1487 4.0559,-2.8649 1.3519,-0.7163 2.863,-1.4325 4.5331,-2.1487 1.6701,-0.7163 3.3799,-1.2534 5.1295,-1.6116 1.7496,-0.3581 3.5788,-0.5371 5.4875,-0.5371 20.0409,0 33.6402,2.8649 40.7977,8.5947 2.2268,1.91 4.1354,5.6702 5.7261,11.2807 1.5905,5.6105 2.3857,10.6539 2.3857,15.1304 0,4.4764 -0.5567,7.5503 -1.6701,9.2215 -2.0677,1.5518 -7.9528,2.9544 -17.6552,4.2078 -9.7023,1.2534 -15.4283,1.1042 -17.1779,-0.4476 -0.7953,-0.7162 -1.4713,-2.1189 -2.028,-4.2079 -0.5567,-2.089 -1.1929,-3.79 -1.9087,-5.1031 -0.7158,-1.3131 -1.7893,-1.8503 -3.2209,-1.6115 -1.9086,0.2387 -4.1353,10.2063 -6.6803,29.9026 -0.318,3.1037 -0.3579,5.9985 -0.1192,8.6843 0.2385,2.6859 0.7157,5.133 1.4314,7.3414 0.7158,2.2084 1.5905,4.1482 2.6245,5.8194 1.0338,1.6712 2.1472,3.044 3.3402,4.1183 1.1929,1.0744 2.346,1.8801 3.4594,2.4173 1.1133,0.5372 2.0678,0.7461 2.863,0.6267 1.9087,-0.1194 3.8968,-0.955 5.9646,-2.5068 2.0677,-1.5518 3.7775,-3.1932 5.1295,-4.9241 1.352,-1.7309 2.9027,-3.4319 4.6523,-5.1031 1.7497,-1.6713 3.2608,-2.6859 4.5331,-3.044 1.2725,-0.3581 3.0221,0.4178 5.2489,2.3277 2.2268,1.91 4.374,4.2377 6.4418,6.9833 2.0677,2.7455 3.857,5.5209 5.3681,8.3262 1.511,2.8052 2.346,4.8047 2.5051,5.9984z"/>
     <path id="_739580608" class="fil2 str0" d="M690.148 749.104c0.3182,2.0293 0.5567,4.2675 0.7158,6.7147 0.1591,2.4471 0.1591,5.6701 0,9.6691 -0.1591,3.999 -0.5567,7.8189 -1.1929,11.4597 -0.6363,3.6408 -1.8689,7.4607 -3.6981,11.4597 -1.8291,3.999 -4.0956,7.4607 -6.7995,10.3854 -2.7041,2.9246 -6.3226,5.3717 -10.8557,7.3413 -4.533,1.9697 -9.8216,3.0739 -15.8657,3.3126 -15.4284,0.4775 -28.6301,-1.1937 -39.6048,-5.0136 -10.9749,-3.8199 -17.9734,-9.6095 -20.9954,-17.3686 -2.2267,-5.4911 -3.698,-12.4446 -4.4138,-20.8603 -0.7158,-8.4157 -0.0397,-16.9806 2.028,-25.6948 2.0677,-8.7141 5.5669,-14.9215 10.4976,-18.622 13.8379,-10.3854 33.9585,-13.31 60.3617,-8.7738 7.3165,1.313 13.798,5.7596 19.4445,13.3398 5.6464,7.5801 9.106,15.1304 10.3783,22.6508zm-48.1938 31.3351c1.7496,-0.1193 3.1413,-1.3131 4.1753,-3.5811 1.0338,-2.2681 1.6701,-5.1032 1.9086,-8.5053 0.2386,-3.4021 0.3579,-6.2372 0.3579,-8.5052 0,-2.2681 0,-4.2974 0,-6.088 -0.1591,-2.7456 -0.8748,-5.4016 -2.1472,-7.9681 -1.2725,-2.5665 -2.6245,-4.0885 -4.056,-4.566 -1.2725,-0.5968 -3.1016,-0.2387 -5.4874,1.0744 -2.3858,1.3131 -4.2945,3.1037 -5.726,5.3717 -1.4315,2.0294 -2.2267,5.6702 -2.3858,10.9226 -0.1591,5.2523 0.1591,9.311 0.9543,12.1759 0.4771,3.1037 1.9882,5.5508 4.533,7.3414 2.545,1.7906 5.1694,2.5665 7.8733,2.3277z"/>
     <path id="_739580608" class="fil2 str0" d="M736.195 724.752c1.9087,0.5969 3.3004,4.0288 4.1752,10.2958 0.8749,6.2671 1.2724,12.6236 1.1929,19.0697 -0.0795,6.4461 -0.4373,10.9225 -1.0735,13.4294 -0.6363,3.1036 -0.9545,7.6099 -0.9545,13.5188 0,5.9089 -0.0795,11.1613 -0.2385,15.7571 -0.1591,4.5958 -0.8749,7.5503 -2.1472,8.8634 -0.9544,1.0743 -7.3167,1.4921 -19.0868,1.2534 -11.77,-0.2387 -17.8937,-0.8356 -18.3708,-1.7906 -0.3182,-0.7162 -0.6362,-2.3874 -0.9544,-5.0136 -0.3181,-2.6262 -0.676,-6.7147 -1.0736,-12.2655 -0.3977,-5.5508 -0.3579,-12.0267 0.1193,-19.4278 0.4771,-9.311 1.3122,-18.3534 2.5051,-27.1272 1.1929,-8.7739 2.5847,-13.9964 4.1752,-15.6676 0.7953,-0.7162 5.8851,-1.1937 15.2693,-1.4325 9.3844,-0.2387 14.8718,-0.0596 16.4623,0.5372zm1.9087 -31.1561c5.0898,3.8199 6.5212,9.4304 4.2944,16.8315 -0.318,1.0743 -1.1133,2.1188 -2.3858,3.1335 -1.2724,1.0147 -2.7835,1.8503 -4.5331,2.5068 -1.7495,0.6566 -3.539,1.2236 -5.3681,1.7011 -1.8291,0.4774 -3.6185,0.8356 -5.3681,1.0743 -1.2724,0.3581 -3.4992,0.4477 -6.6804,0.2686 -3.181,-0.1791 -6.4019,-0.4477 -9.6625,-0.8058 -3.2606,-0.3581 -6.2032,-1.4026 -8.8277,-3.1335 -2.6244,-1.7309 -4.0161,-4.0288 -4.1752,-6.8937 -0.1591,-4.2974 0.6761,-7.9979 2.5051,-11.1016 1.8292,-3.1037 4.6525,-5.0733 8.4698,-5.9089 3.4993,-1.0744 8.9866,-1.4623 16.4623,-1.1639 7.4756,0.2984 12.5654,1.4623 15.2693,3.4916z"/>
     <path id="_739580608" class="fil2 str0" d="M838.309 725.11c2.545,4.2974 4.0559,12.7728 4.5331,25.4263 0.4771,12.6534 0.3182,24.2026 -0.4772,34.6477 -0.7953,10.445 -1.4314,16.2644 -1.9087,17.4581 -0.4771,1.1937 -5.7259,2.2382 -15.7464,3.1335 -10.0205,0.8953 -15.9852,0.6267 -17.8937,-0.8057 -0.3182,-0.3582 -0.7555,-1.7309 -1.3122,-4.1184 -0.5567,-2.3874 -0.9545,-5.6105 -1.193,-9.6691 -0.2386,-4.0586 -0.2783,-7.9979 -0.1193,-11.8178 0.3181,-5.6105 0.4374,-11.0121 0.3578,-16.2048 -0.0795,-5.1926 -0.2385,-9.5796 -0.4771,-13.1607 -0.2385,-3.5812 -0.4374,-5.4911 -0.5964,-5.7299 -0.9544,-1.5518 -2.7438,-1.8801 -5.3681,-0.9848 -2.6245,0.8953 -4.4138,2.1785 -5.3681,3.8498 -0.9545,1.4324 -1.3918,10.6837 -1.3124,27.7539 0.0796,17.0702 -0.5964,26.9184 -2.0278,29.5446 -0.9544,1.5518 -7.1973,2.1188 -18.7289,1.701 -11.5315,-0.4178 -17.7744,-1.2832 -18.7287,-2.5963 -0.7953,-0.7162 -1.3123,-1.7309 -1.5508,-3.044 -0.2387,-1.3131 -0.3182,-3.4021 -0.2387,-6.267 0.0796,-2.8649 0.1988,-5.7896 0.3579,-8.7739 0.1591,-2.9843 0.3976,-7.4905 0.7158,-13.5188 0.3181,-6.0283 0.5567,-11.9074 0.7158,-17.6372 0.159,-5.2524 0.0794,-10.4749 -0.2386,-15.6676 -0.3181,-5.1927 -0.676,-9.2513 -1.0737,-12.1759 -0.3976,-2.9246 -0.5964,-5.6404 -0.5964,-8.1472 0,-2.5068 0.3976,-4.4167 1.1929,-5.7298 0.7952,-1.0744 6.9985,-1.7906 18.6095,-2.1487 11.6111,-0.3581 18.2119,-0.1194 19.8024,0.7162 1.7496,0.8356 2.6642,2.1487 2.7438,3.9393 0.0795,1.7906 -0.1988,3.1932 -0.8351,4.2079 -0.6362,1.0146 -0.5567,1.6413 0.2385,1.8801 0.1591,-0.2388 0.3579,-0.5969 0.5966,-1.0744 0.2385,-0.4775 0.9146,-1.3131 2.0279,-2.5068 1.1134,-1.1937 2.3461,-2.2681 3.6981,-3.223 1.3519,-0.955 3.2207,-1.7906 5.6066,-2.5069 2.3859,-0.7162 4.9308,-1.0743 7.6347,-1.0743 3.3402,0 6.4815,0.4178 9.4241,1.2534 2.9424,0.8356 5.3283,1.7906 7.1575,2.8649 1.8291,1.0744 3.5787,2.3576 5.2488,3.8498 1.6701,1.4921 2.8232,2.7157 3.4594,3.6707 0.6363,0.9549 1.193,1.8502 1.6701,2.6858z"/>
     <path id="_739580872" class="fil1" d="M48.1824 794.885l3.7196 13.6597 -28.0889 5.5953 -4.8899 -66.2301c10.8059,-1.7476 20.3452,-2.6294 28.6019,-2.6294 25.3153,0 38.7986,8.1766 40.498,24.5137 0,16.7219 -13.1466,25.0908 -39.4078,25.0908l-0.4329 0zm-6.4771 -28.137l1.7796 6.2046c14.0124,0 21.0025,-1.491 21.0025,-4.4731 0,-0.1122 -0.016,-0.2725 -0.0481,-0.4649 -0.4328,-1.8758 -3.1263,-2.8217 -8.0803,-2.8217 -3.6554,0 -8.5453,0.529 -14.6537,1.5551z"/>
     <path id="_739580872" class="fil1" d="M93.5062 747.765l28.3775 5.5472c-3.912,11.9923 -5.8679,21.1629 -5.8679,27.5278 0,7.1344 2.4369,10.7738 7.3268,10.902 7.7597,-0.0641 11.6396,-6.1725 11.6396,-18.3251 0,-5.6755 -0.8497,-12.6336 -2.5332,-20.9063l26.1169 -8.2567c1.443,8.882 2.1644,16.9303 2.1644,24.1449 0,29.9646 -12.4893,45.0993 -37.4358,45.4199 -22.9585,-0.2244 -34.4377,-12.0564 -34.4377,-35.5119 0,-8.6094 1.5551,-18.79 4.6494,-30.5418z"/>
     <path id="_739580872" class="fil1" d="M191.016 794.885l3.7196 13.6597 -28.0889 5.5953 -4.8899 -66.2301c10.8059,-1.7476 20.3452,-2.6294 28.6019,-2.6294 25.3153,0 38.7986,8.1766 40.498,24.5137 0,16.7219 -13.1466,25.0908 -39.4078,25.0908l-0.4329 0zm-6.4771 -28.137l1.7796 6.2046c14.0124,0 21.0025,-1.491 21.0025,-4.4731 0,-0.1122 -0.016,-0.2725 -0.0481,-0.4649 -0.4328,-1.8758 -3.1263,-2.8217 -8.0803,-2.8217 -3.6554,0 -8.5453,0.529 -14.6537,1.5551z"/>
     <path id="_739580872" class="fil1" d="M259.49 794.885l3.7196 13.6597 -28.0889 5.5953 -4.8899 -66.2301c10.8059,-1.7476 20.3452,-2.6294 28.6019,-2.6294 25.3153,0 38.7986,8.1766 40.498,24.5137 0,16.7219 -13.1466,25.0908 -39.4078,25.0908l-0.4329 0zm-6.4771 -28.137l1.7796 6.2046c14.0124,0 21.0025,-1.491 21.0025,-4.4731 0,-0.1122 -0.016,-0.2725 -0.0481,-0.4649 -0.4328,-1.8758 -3.1263,-2.8217 -8.0803,-2.8217 -3.6554,0 -8.5453,0.529 -14.6537,1.5551z"/>
     <polygon id="_739580872" class="fil1" points="350.346,735.981 351.757,764.311 322.53,767.453 322.722,769.89 339.3,767.966 340.102,787.173 323.797,788.776 323.893,791.165 352.03,789.065 356.92,813.771 297.215,815.791 303.179,744.959 "/>
     <polygon id="_739580872" class="fil1" points="395.382,768.255 397.642,807.711 368.655,815.166 373.064,766.699 353.858,765.064 355.653,744.623 413.755,741.144 416.047,770.403 "/>
     <path id="_739580872" class="fil1" d="M433.186 787.51c-9.8599,-1.3468 -14.7979,-7.391 -14.7979,-18.1328 0,-1.3787 0.0962,-2.8377 0.2886,-4.3608 1.4108,-13.4352 16.9142,-21.3552 46.5422,-23.7761l4.6013 24.6579c-1.5872,-0.0321 -3.0942,-0.0481 -4.5051,-0.0481 -11.335,0 -17.299,1.1062 -17.8922,3.2867 -0.0642,0.1603 -0.0962,0.3206 -0.0962,0.4809 0,2.2125 5.3548,3.5753 16.0645,4.0883 11.1105,0.5291 16.6738,7.7277 16.6738,21.5957l0 0.9941c-0.2886,14.5574 -16.4012,22.3172 -48.3379,23.2951l-9.6195 -25.8283c7.3589,0.8017 13.1627,1.2185 17.4273,1.2185 5.2266,0 8.1285,-0.6092 8.7377,-1.8437 0.0481,-0.1764 0.0802,-0.3688 0.0802,-0.5612 0,-1.9399 -5.0503,-3.6233 -15.1668,-5.0662z"/>
     <path id="_739580872" class="fil2 str0" d="M48.1824 794.885l3.7196 13.6597 -28.0889 5.5953 -4.8899 -66.2301c10.8059,-1.7476 20.3452,-2.6294 28.6019,-2.6294 25.3153,0 38.7986,8.1766 40.498,24.5137 0,16.7219 -13.1466,25.0908 -39.4078,25.0908l-0.4329 0zm-6.4771 -28.137l1.7796 6.2046c14.0124,0 21.0025,-1.491 21.0025,-4.4731 0,-0.1122 -0.016,-0.2725 -0.0481,-0.4649 -0.4328,-1.8758 -3.1263,-2.8217 -8.0803,-2.8217 -3.6554,0 -8.5453,0.529 -14.6537,1.5551z"/>
     <path id="_739580872" class="fil2 str0" d="M93.5062 747.765l28.3775 5.5472c-3.912,11.9923 -5.8679,21.1629 -5.8679,27.5278 0,7.1344 2.4369,10.7738 7.3268,10.902 7.7597,-0.0641 11.6396,-6.1725 11.6396,-18.3251 0,-5.6755 -0.8497,-12.6336 -2.5332,-20.9063l26.1169 -8.2567c1.443,8.882 2.1644,16.9303 2.1644,24.1449 0,29.9646 -12.4893,45.0993 -37.4358,45.4199 -22.9585,-0.2244 -34.4377,-12.0564 -34.4377,-35.5119 0,-8.6094 1.5551,-18.79 4.6494,-30.5418z"/>
     <path id="_739580872" class="fil2 str0" d="M191.016 794.885l3.7196 13.6597 -28.0889 5.5953 -4.8899 -66.2301c10.8059,-1.7476 20.3452,-2.6294 28.6019,-2.6294 25.3153,0 38.7986,8.1766 40.498,24.5137 0,16.7219 -13.1466,25.0908 -39.4078,25.0908l-0.4329 0zm-6.4771 -28.137l1.7796 6.2046c14.0124,0 21.0025,-1.491 21.0025,-4.4731 0,-0.1122 -0.016,-0.2725 -0.0481,-0.4649 -0.4328,-1.8758 -3.1263,-2.8217 -8.0803,-2.8217 -3.6554,0 -8.5453,0.529 -14.6537,1.5551z"/>
     <path id="_739580872" class="fil2 str0" d="M259.49 794.885l3.7196 13.6597 -28.0889 5.5953 -4.8899 -66.2301c10.8059,-1.7476 20.3452,-2.6294 28.6019,-2.6294 25.3153,0 38.7986,8.1766 40.498,24.5137 0,16.7219 -13.1466,25.0908 -39.4078,25.0908l-0.4329 0zm-6.4771 -28.137l1.7796 6.2046c14.0124,0 21.0025,-1.491 21.0025,-4.4731 0,-0.1122 -0.016,-0.2725 -0.0481,-0.4649 -0.4328,-1.8758 -3.1263,-2.8217 -8.0803,-2.8217 -3.6554,0 -8.5453,0.529 -14.6537,1.5551z"/>
     <polygon id="_739580872" class="fil2 str0" points="350.346,735.981 351.757,764.311 322.53,767.453 322.722,769.89 339.3,767.966 340.102,787.173 323.797,788.776 323.893,791.165 352.03,789.065 356.92,813.771 297.215,815.791 303.179,744.959 "/>
     <polygon id="_739580872" class="fil2 str0" points="395.382,768.255 397.642,807.711 368.655,815.166 373.064,766.699 353.858,765.064 355.653,744.623 413.755,741.144 416.047,770.403 "/>
     <path id="_739580872" class="fil2 str0" d="M433.186 787.51c-9.8599,-1.3468 -14.7979,-7.391 -14.7979,-18.1328 0,-1.3787 0.0962,-2.8377 0.2886,-4.3608 1.4108,-13.4352 16.9142,-21.3552 46.5422,-23.7761l4.6013 24.6579c-1.5872,-0.0321 -3.0942,-0.0481 -4.5051,-0.0481 -11.335,0 -17.299,1.1062 -17.8922,3.2867 -0.0642,0.1603 -0.0962,0.3206 -0.0962,0.4809 0,2.2125 5.3548,3.5753 16.0645,4.0883 11.1105,0.5291 16.6738,7.7277 16.6738,21.5957l0 0.9941c-0.2886,14.5574 -16.4012,22.3172 -48.3379,23.2951l-9.6195 -25.8283c7.3589,0.8017 13.1627,1.2185 17.4273,1.2185 5.2266,0 8.1285,-0.6092 8.7377,-1.8437 0.0481,-0.1764 0.0802,-0.3688 0.0802,-0.5612 0,-1.9399 -5.0503,-3.6233 -15.1668,-5.0662z"/>
    </g>
   </g>
   <ellipse id="_336864664" class="fil3 str1" cx="435.111" cy="295.737" rx="250" ry="250"/>
   <circle id="_739606912" class="fil4 str2" cx="435.111" cy="295.737" r="196.282"/>
   <g>
    <g>
     <g>
      <path id="_336839584" class="fil0 str3" d="M334.508 476.794c3.0719,-29.9122 12.8068,-67.5472 1.5143,-96.8942 -18.2723,-32.1553 -34.1922,-59.5768 -43.0434,-92.4376 -4.4486,-11.8644 -6.7426,-23.5277 -5.206,-34.1643 -0.9864,-32.3444 -4.2445,-70.2513 38.0182,-79.6629 9.2808,-8.8291 23.3437,-23.9578 35.9471,-27.3406 11.3746,-17.7999 52.6299,-23.648 73.3726,-16.6076 20.7426,-7.0402 61.9981,-1.1925 73.3725,16.6074 12.6027,3.3826 26.6675,18.512 35.948,27.3408 42.2626,9.4116 39.0045,47.3185 38.0181,79.6629 1.5366,10.6366 -0.7573,22.2999 -5.2059,34.1643 -8.8512,32.8608 -24.7712,60.2823 -43.0435,92.4376 -11.2925,29.347 -1.5576,66.982 1.5143,96.8942l-7.0704 0 -2.0319 0 -1.0005 0 -2.0334 0 -0.9989 0 -2.0355 0 -0.9968 0 -2.0371 0 -0.9948 0 -2.0392 0 -0.9932 0 -2.0407 0 -0.9917 0 -2.0427 0 -0.9897 0 -2.0442 0 -0.9882 0 -2.0457 0 -0.9872 0 -2.0468 0 -0.9856 0 -2.0483 0 -0.9844 0 -2.0495 0 -0.9829 0 -2.051 0 -0.9819 0 -2.052 0 -0.9807 0 -2.0533 0 -0.9796 0 -2.0543 0 -0.9783 0 -2.0556 0 -0.9776 0 -2.0563 0 -0.9766 0 -2.0574 0 -0.9757 0 -2.0582 0 -0.9747 0 -2.0592 0 -0.9742 0 -2.0592 0 -0.9737 0 -2.0602 0 -0.9732 0 -2.0604 0 -0.9725 0 -2.0614 0 -0.972 0 -2.0614 0 -0.972 0 -2.062 0 -0.9714 0 -2.062 0 -0.9711 0 -2.0624 0 -0.9711 0 -2.0624 0 -0.9711 0 -2.0626 0 -0.9708 0 -2.0626 0 -0.9708 0 -2.0626 0 -0.9713 0 -2.0621 0 -0.9713 0 -2.0621 0 -0.9717 0 -2.0617 0 -0.9717 0 -2.0618 0 -0.9721 0 -2.0609 0 -0.9727 0 -2.0607 0 -0.9732 0 -2.0601 0 -0.9733 0 -2.0601 0 -0.9738 0 -2.0591 0 -0.9748 0 -2.0583 0 -0.9757 0 -2.0572 0 -0.9763 0 -2.0566 0 -0.9774 0 -2.0554 0 -0.9785 0 -2.0544 0 -0.9795 0 -2.0534 0 -0.9802 0 -2.0527 0 -0.9815 0 -2.0513 0 -0.9827 0 -2.0502 0 -0.9837 0 -2.0487 0 -0.9852 0 -2.0473 0 -0.9868 0 -2.0456 0 -0.9883 0 -2.0443 0 -0.9896 0 -2.0427 0 -0.9913 0 -2.0411 0 -0.9933 0 -2.039 0 -0.9949 0 -2.0374 0 -0.9965 0 -2.0354 0 -0.9985 0 -2.0337 0 -1.0006 0 -2.0313 0 -7.0705 0z"/>
      <g>
       <rect id="_336839656" class="fil0 str3" x="328.649" y="435.494" width="212.925" height="68.1359" rx="6.9605" ry="6.9605"/>
       <rect id="_336839944" class="fil0 str3" x="342.844" y="435.494" width="14.195" height="68.1359"/>
       <rect id="_336839800" class="fil0 str3" x="357.039" y="435.494" width="14.195" height="68.1359"/>
       <rect id="_336839632" class="fil0 str3" x="371.234" y="435.494" width="14.195" height="68.1359"/>
       <rect id="_336839968" class="fil0 str3" x="385.429" y="435.494" width="14.195" height="68.1359"/>
       <rect id="_336839080" class="fil0 str3" x="399.624" y="435.494" width="14.195" height="68.1359"/>
       <rect id="_336838768" class="fil0 str3" x="413.818" y="435.494" width="14.195" height="68.1359"/>
       <rect id="_336838144" class="fil0 str3" x="428.013" y="435.494" width="14.195" height="68.1359"/>
       <rect id="_336837160" class="fil0 str3" x="442.208" y="435.494" width="14.195" height="68.1359"/>
       <rect id="_336836464" class="fil0 str3" x="456.403" y="435.494" width="14.195" height="68.1359"/>
       <rect id="_336867352" class="fil0 str3" x="470.598" y="435.494" width="14.195" height="68.1359"/>
       <rect id="_336867160" class="fil0 str3" x="484.793" y="435.494" width="14.195" height="68.1359"/>
       <rect id="_336867280" class="fil0 str3" x="498.988" y="435.494" width="14.195" height="68.1359"/>
       <rect id="_336866920" class="fil0 str3" x="513.183" y="435.494" width="14.195" height="68.1359"/>
      </g>
      <polyline id="_336866704" class="fil5 str4" points="287.311,252.536 320.659,310.696 435.051,344.653 550.618,310.696 582.808,249.995 "/>
     </g>
     <circle id="_336866584" class="fil0 str3" cx="384.468" cy="133.705" r="45.8617"/>
     <circle id="_336866416" class="fil0 str3" cx="383.993" cy="134.656" r="32.5547"/>
     <path id="_336866968" class="fil0 str3" d="M383.993 134.656l-2.8657 32.4274c-9.471,-0.8345 -18.1194,-5.7828 -23.6399,-13.525l26.5056 -18.9024z"/>
     <circle id="_336866560" class="fil0 str3" cx="382.682" cy="133.345" r="22.7573"/>
     <circle id="_336866536" class="fil0 str3" cx="391.618" cy="131.128" r="6.01527"/>
     <path id="_336865912" class="fil0 str3" d="M338.606 133.705c29.7075,-16.5054 60.6084,-15.406 91.7235,0 0.5669,-20.3349 -14.2891,-44.5483 -47.3799,-45.8371 -26.9304,0.2457 -46.2813,24.4936 -44.3436,45.8371z"/>
     <circle id="_336865840" class="fil0 str3" cx="488.457" cy="133.705" r="45.8617"/>
     <circle id="_336865744" class="fil0 str3" cx="487.982" cy="134.656" r="32.5547"/>
     <path id="_336866056" class="fil0 str3" d="M487.982 134.656l-2.8656 32.4274c-9.4711,-0.8345 -18.1195,-5.7828 -23.64,-13.525l26.5056 -18.9024z"/>
     <circle id="_336865960" class="fil0 str3" cx="486.671" cy="133.345" r="22.7573"/>
     <circle id="_336866104" class="fil0 str3" cx="495.607" cy="131.128" r="6.01527"/>
     <path id="_336865240" class="fil0 str3" d="M442.595 133.705c29.7074,-16.5054 60.6083,-15.406 91.7234,0 0.5669,-20.3349 -14.2891,-44.5483 -47.3799,-45.8371 -26.9303,0.2457 -46.2812,24.4936 -44.3435,45.8371z"/>
    </g>
    <g>
     <path id="_336864544" class="fil6 str5" d="M334.508 476.794c3.0719,-29.9122 12.8068,-67.5472 1.5143,-96.8942 -18.2723,-32.1553 -34.1922,-59.5768 -43.0434,-92.4376 -4.4486,-11.8644 -6.7426,-23.5277 -5.206,-34.1643 -0.9864,-32.3444 -4.2445,-70.2513 38.0182,-79.6629 9.2808,-8.8291 23.3437,-23.9578 35.9471,-27.3406 11.3746,-17.7999 52.6299,-23.648 73.3726,-16.6076 20.7426,-7.0402 61.9981,-1.1925 73.3725,16.6074 12.6027,3.3826 26.6675,18.512 35.948,27.3408 42.2626,9.4116 39.0045,47.3185 38.0181,79.6629 1.5366,10.6366 -0.7573,22.2999 -5.2059,34.1643 -8.8512,32.8608 -24.7712,60.2823 -43.0435,92.4376 -11.2925,29.347 -1.5576,66.982 1.5143,96.8942l-7.0704 0 -2.0319 0 -1.0005 0 -2.0334 0 -0.9989 0 -2.0355 0 -0.9968 0 -2.0371 0 -0.9948 0 -2.0392 0 -0.9932 0 -2.0407 0 -0.9917 0 -2.0427 0 -0.9897 0 -2.0442 0 -0.9882 0 -2.0457 0 -0.9872 0 -2.0468 0 -0.9856 0 -2.0483 0 -0.9844 0 -2.0495 0 -0.9829 0 -2.051 0 -0.9819 0 -2.052 0 -0.9807 0 -2.0533 0 -0.9796 0 -2.0543 0 -0.9783 0 -2.0556 0 -0.9776 0 -2.0563 0 -0.9766 0 -2.0574 0 -0.9757 0 -2.0582 0 -0.9747 0 -2.0592 0 -0.9742 0 -2.0592 0 -0.9737 0 -2.0602 0 -0.9732 0 -2.0604 0 -0.9725 0 -2.0614 0 -0.972 0 -2.0614 0 -0.972 0 -2.062 0 -0.9714 0 -2.062 0 -0.9711 0 -2.0624 0 -0.9711 0 -2.0624 0 -0.9711 0 -2.0626 0 -0.9708 0 -2.0626 0 -0.9708 0 -2.0626 0 -0.9713 0 -2.0621 0 -0.9713 0 -2.0621 0 -0.9717 0 -2.0617 0 -0.9717 0 -2.0618 0 -0.9721 0 -2.0609 0 -0.9727 0 -2.0607 0 -0.9732 0 -2.0601 0 -0.9733 0 -2.0601 0 -0.9738 0 -2.0591 0 -0.9748 0 -2.0583 0 -0.9757 0 -2.0572 0 -0.9763 0 -2.0566 0 -0.9774 0 -2.0554 0 -0.9785 0 -2.0544 0 -0.9795 0 -2.0534 0 -0.9802 0 -2.0527 0 -0.9815 0 -2.0513 0 -0.9827 0 -2.0502 0 -0.9837 0 -2.0487 0 -0.9852 0 -2.0473 0 -0.9868 0 -2.0456 0 -0.9883 0 -2.0443 0 -0.9896 0 -2.0427 0 -0.9913 0 -2.0411 0 -0.9933 0 -2.039 0 -0.9949 0 -2.0374 0 -0.9965 0 -2.0354 0 -0.9985 0 -2.0337 0 -1.0006 0 -2.0313 0 -7.0705 0z"/>
     <g>
      <rect id="_336863824" class="fil6 str6" x="328.649" y="435.494" width="212.925" height="68.1359" rx="6.9605" ry="6.9605"/>
      <rect id="_336863584" class="fil6 str6" x="342.844" y="435.494" width="14.195" height="68.1359"/>
      <rect id="_336863248" class="fil6 str6" x="357.039" y="435.494" width="14.195" height="68.1359"/>
      <rect id="_336863128" class="fil6 str6" x="371.234" y="435.494" width="14.195" height="68.1359"/>
      <rect id="_336862912" class="fil6 str6" x="385.429" y="435.494" width="14.195" height="68.1359"/>
      <rect id="_336863056" class="fil6 str6" x="399.624" y="435.494" width="14.195" height="68.1359"/>
      <rect id="_336862624" class="fil6 str6" x="413.818" y="435.494" width="14.195" height="68.1359"/>
      <rect id="_336862960" class="fil6 str6" x="428.013" y="435.494" width="14.195" height="68.1359"/>
      <rect id="_336862720" class="fil6 str6" x="442.208" y="435.494" width="14.195" height="68.1359"/>
      <rect id="_336862240" class="fil6 str6" x="456.403" y="435.494" width="14.195" height="68.1359"/>
      <rect id="_336861928" class="fil6 str6" x="470.598" y="435.494" width="14.195" height="68.1359"/>
      <rect id="_336862000" class="fil6 str6" x="484.793" y="435.494" width="14.195" height="68.1359"/>
      <rect id="_336861976" class="fil6 str6" x="498.988" y="435.494" width="14.195" height="68.1359"/>
      <rect id="_336862120" class="fil6 str6" x="513.183" y="435.494" width="14.195" height="68.1359"/>
     </g>
     <polyline id="_336861904" class="fil5 str7" points="287.311,252.536 320.659,310.696 435.051,344.653 550.618,310.696 582.808,249.995 "/>
    </g>
    <circle id="_336861016" class="fil0 str8" cx="384.468" cy="133.705" r="45.8617"/>
    <circle id="_336861688" class="fil6" cx="383.993" cy="134.656" r="32.5547"/>
    <path id="_336860968" class="fil7" d="M383.993 134.656l-2.8657 32.4274c-9.471,-0.8345 -18.1194,-5.7828 -23.6399,-13.525l26.5056 -18.9024z"/>
    <circle id="_336861592" class="fil8 str9" cx="382.682" cy="133.345" r="22.7573"/>
    <circle id="_336861448" class="fil0 str9" cx="391.618" cy="131.128" r="6.01527"/>
    <path id="_336861400" class="fil9 str10" d="M338.606 133.705c29.7075,-16.5054 60.6084,-15.406 91.7235,0 0.5669,-20.3349 -14.2891,-44.5483 -47.3799,-45.8371 -26.9304,0.2457 -46.2813,24.4936 -44.3436,45.8371z"/>
    <circle id="_336861496" class="fil0 str8" cx="488.457" cy="133.705" r="45.8617"/>
    <circle id="_336861232" class="fil6" cx="487.982" cy="134.656" r="32.5547"/>
    <path id="_336860488" class="fil7" d="M487.982 134.656l-2.8656 32.4274c-9.4711,-0.8345 -18.1195,-5.7828 -23.64,-13.525l26.5056 -18.9024z"/>
    <circle id="_336860200" class="fil8 str9" cx="486.671" cy="133.345" r="22.7573"/>
    <circle id="_336860464" class="fil0 str9" cx="495.607" cy="131.128" r="6.01527"/>
    <path id="_336860800" class="fil9 str10" d="M442.595 133.705c29.7074,-16.5054 60.6083,-15.406 91.7234,0 0.5669,-20.3349 -14.2891,-44.5483 -47.3799,-45.8371 -26.9303,0.2457 -46.2812,24.4936 -44.3435,45.8371z"/>
   </g>
   <g>
    <polygon id="_739602976" class="fil10 str5" points="721.267,499.498 758.753,398.009 852.469,417.765 773.509,556.585 846.145,621.8 775.801,703.334 730.432,621.8 737.535,681.794 664.35,701.947 664.35,415.254 716.18,423.381 "/>
    <path id="_739603192" class="fil11 str5" d="M653.58 654.308c-34.5077,30.8564 -66.2658,46.3176 -95.1826,46.3176 -28.9626,0 -53.7091,-15.0648 -74.148,-45.1282 -20.4846,-30.0635 -30.704,-66.3378 -30.704,-108.823 0,-42.4192 10.2194,-78.6275 30.704,-108.691 20.4389,-29.9974 45.1854,-44.9961 74.148,-44.9961 28.9168,0 53.6175,15.0648 74.1481,45.1282 10.2652,14.9327 18.6515,33.9618 25.0673,56.8893l-68.7405 29.4688c-2.6579,-12.1575 -6.2324,-21.5399 -10.7235,-28.0812 -7.5155,-10.9682 -16.4976,-16.4523 -26.992,-16.4523 -10.4485,0 -19.4765,5.4841 -26.9921,16.5183 -7.5156,11.0343 -11.2734,24.3151 -11.2734,39.7763 0,15.5273 3.7578,28.742 11.2734,39.7762 7.5156,11.0343 16.5436,16.5845 26.9921,16.5845 17.46,1.6518 37.7155,-9.1842 60.8124,-32.5082l41.6108 94.2208z"/>
    <path id="_739603120" class="fil12 str5" d="M332.837 700.625c-31.3915,0 -58.246,-13.8755 -80.6096,-41.5603 -22.3177,-27.6848 -33.4995,-61.2501 -33.4995,-100.762 0,-39.4458 11.1818,-73.0772 33.4995,-100.762 22.3636,-27.6848 49.2181,-41.4942 80.6096,-41.4942 31.3457,0 58.2002,13.8094 80.5179,41.4942 22.3178,27.6848 33.4996,61.3162 33.4996,100.762 0,39.512 -11.1818,73.0773 -33.4996,100.762 -22.3177,27.6848 -49.1722,41.5603 -80.5179,41.5603zm-7.5156 -98.1853c11.7317,0 21.722,-5.0215 29.8792,-15.1969 8.203,-10.1092 12.2816,-22.1346 12.2816,-36.0761 0,-13.9415 -4.0786,-25.9669 -12.2816,-36.1422 -8.1572,-10.1092 -18.1475,-15.1969 -29.8792,-15.1969 -11.7776,0 -21.8137,5.0877 -29.9708,15.1969 -8.2031,10.1753 -12.2816,22.2007 -12.2816,36.1422 0,13.9415 4.0785,25.9669 12.2816,36.0761 8.1571,10.1754 18.1932,15.1969 29.9708,15.1969z"/>
    <path id="_739603072" class="fil13 str5" d="M82.2098 592.199c-28.1835,-5.5502 -42.2982,-30.4599 -42.2982,-74.7292 0,-5.6823 0.2749,-11.695 0.8249,-17.972 4.0328,-55.3696 48.3474,-88.0099 133.036,-97.987l13.1523 101.621c-4.5368,-0.1322 -8.8446,-0.1982 -12.8774,-0.1982 -32.3996,0 -49.4472,4.559 -51.1428,13.545 -0.1833,0.6608 -0.275,1.3215 -0.275,1.9822 0,9.1182 15.3062,14.7344 45.9186,16.8488 31.7581,2.1804 47.66,31.8474 47.66,89.001l0 4.0965c-0.8249,59.9948 -46.881,91.9743 -138.168,96.0048l-27.4962 -106.444c21.0346,3.3037 37.624,5.0216 49.8139,5.0216 14.9396,0 23.2343,-2.5108 24.9757,-7.5984 0.1375,-0.7269 0.2291,-1.5197 0.2291,-2.3126 0,-7.9949 -14.4354,-14.9326 -43.3523,-20.8792z"/>
    <path id="_336145536" class="fil14" d="M583.74 786.885c0.1591,3.7005 -2.1075,7.3115 -6.7997,10.833 -4.692,3.5215 -10.418,6.3267 -17.1779,8.4157 -6.7598,2.089 -13.48,3.3723 -20.1603,3.8498 -12.5654,0.7162 -23.1028,-1.7906 -31.6123,-7.5205 -8.5095,-5.7298 -14.0367,-13.6084 -16.5815,-23.6356 -0.9545,-3.3424 -1.7497,-9.2513 -2.3859,-17.7267 -0.6362,-8.4754 -0.3579,-18.3535 0.835,-29.6341 1.193,-11.2807 3.8572,-19.5472 7.9925,-24.7995 0.3182,-0.4775 1.0737,-1.4623 2.2666,-2.9545 1.193,-1.4921 2.1076,-2.656 2.7438,-3.4916 0.6361,-0.8356 1.5507,-1.9995 2.7436,-3.4916 1.193,-1.4922 2.3063,-2.6859 3.3402,-3.5812 1.0338,-0.8953 2.2267,-1.9398 3.5788,-3.1335 1.352,-1.1937 2.7039,-2.1487 4.0559,-2.8649 1.3519,-0.7163 2.863,-1.4325 4.5331,-2.1487 1.6701,-0.7163 3.3799,-1.2534 5.1295,-1.6116 1.7496,-0.3581 3.5788,-0.5371 5.4875,-0.5371 20.0409,0 33.6402,2.8649 40.7977,8.5947 2.2268,1.91 4.1354,5.6702 5.7261,11.2807 1.5905,5.6105 2.3857,10.6539 2.3857,15.1304 0,4.4764 -0.5567,7.5503 -1.6701,9.2215 -2.0677,1.5518 -7.9528,2.9544 -17.6552,4.2078 -9.7023,1.2534 -15.4283,1.1042 -17.1779,-0.4476 -0.7953,-0.7162 -1.4713,-2.1189 -2.028,-4.2079 -0.5567,-2.089 -1.1929,-3.79 -1.9087,-5.1031 -0.7158,-1.3131 -1.7893,-1.8503 -3.2209,-1.6115 -1.9086,0.2387 -4.1353,10.2063 -6.6803,29.9026 -0.318,3.1037 -0.3579,5.9985 -0.1192,8.6843 0.2385,2.6859 0.7157,5.133 1.4314,7.3414 0.7158,2.2084 1.5905,4.1482 2.6245,5.8194 1.0338,1.6712 2.1472,3.044 3.3402,4.1183 1.1929,1.0744 2.346,1.8801 3.4594,2.4173 1.1133,0.5372 2.0678,0.7461 2.863,0.6267 1.9087,-0.1194 3.8968,-0.955 5.9646,-2.5068 2.0677,-1.5518 3.7775,-3.1932 5.1295,-4.9241 1.352,-1.7309 2.9027,-3.4319 4.6523,-5.1031 1.7497,-1.6713 3.2608,-2.6859 4.5331,-3.044 1.2725,-0.3581 3.0221,0.4178 5.2489,2.3277 2.2268,1.91 4.374,4.2377 6.4418,6.9833 2.0677,2.7455 3.857,5.5209 5.3681,8.3262 1.511,2.8052 2.346,4.8047 2.5051,5.9984z"/>
    <path id="_336145536" class="fil14" d="M690.148 749.104c0.3182,2.0293 0.5567,4.2675 0.7158,6.7147 0.1591,2.4471 0.1591,5.6701 0,9.6691 -0.1591,3.999 -0.5567,7.8189 -1.1929,11.4597 -0.6363,3.6408 -1.8689,7.4607 -3.6981,11.4597 -1.8291,3.999 -4.0956,7.4607 -6.7995,10.3854 -2.7041,2.9246 -6.3226,5.3717 -10.8557,7.3413 -4.533,1.9697 -9.8216,3.0739 -15.8657,3.3126 -15.4284,0.4775 -28.6301,-1.1937 -39.6048,-5.0136 -10.9749,-3.8199 -17.9734,-9.6095 -20.9954,-17.3686 -2.2267,-5.4911 -3.698,-12.4446 -4.4138,-20.8603 -0.7158,-8.4157 -0.0397,-16.9806 2.028,-25.6948 2.0677,-8.7141 5.5669,-14.9215 10.4976,-18.622 13.8379,-10.3854 33.9585,-13.31 60.3617,-8.7738 7.3165,1.313 13.798,5.7596 19.4445,13.3398 5.6464,7.5801 9.106,15.1304 10.3783,22.6508zm-48.1938 31.3351c1.7496,-0.1193 3.1413,-1.3131 4.1753,-3.5811 1.0338,-2.2681 1.6701,-5.1032 1.9086,-8.5053 0.2386,-3.4021 0.3579,-6.2372 0.3579,-8.5052 0,-2.2681 0,-4.2974 0,-6.088 -0.1591,-2.7456 -0.8748,-5.4016 -2.1472,-7.9681 -1.2725,-2.5665 -2.6245,-4.0885 -4.056,-4.566 -1.2725,-0.5968 -3.1016,-0.2387 -5.4874,1.0744 -2.3858,1.3131 -4.2945,3.1037 -5.726,5.3717 -1.4315,2.0294 -2.2267,5.6702 -2.3858,10.9226 -0.1591,5.2523 0.1591,9.311 0.9543,12.1759 0.4771,3.1037 1.9882,5.5508 4.533,7.3414 2.545,1.7906 5.1694,2.5665 7.8733,2.3277z"/>
    <path id="_336145536" class="fil14" d="M736.195 724.752c1.9087,0.5969 3.3004,4.0288 4.1752,10.2958 0.8749,6.2671 1.2724,12.6236 1.1929,19.0697 -0.0795,6.4461 -0.4373,10.9225 -1.0735,13.4294 -0.6363,3.1036 -0.9545,7.6099 -0.9545,13.5188 0,5.9089 -0.0795,11.1613 -0.2385,15.7571 -0.1591,4.5958 -0.8749,7.5503 -2.1472,8.8634 -0.9544,1.0743 -7.3167,1.4921 -19.0868,1.2534 -11.77,-0.2387 -17.8937,-0.8356 -18.3708,-1.7906 -0.3182,-0.7162 -0.6362,-2.3874 -0.9544,-5.0136 -0.3181,-2.6262 -0.676,-6.7147 -1.0736,-12.2655 -0.3977,-5.5508 -0.3579,-12.0267 0.1193,-19.4278 0.4771,-9.311 1.3122,-18.3534 2.5051,-27.1272 1.1929,-8.7739 2.5847,-13.9964 4.1752,-15.6676 0.7953,-0.7162 5.8851,-1.1937 15.2693,-1.4325 9.3844,-0.2387 14.8718,-0.0596 16.4623,0.5372zm1.9087 -31.1561c5.0898,3.8199 6.5212,9.4304 4.2944,16.8315 -0.318,1.0743 -1.1133,2.1188 -2.3858,3.1335 -1.2724,1.0147 -2.7835,1.8503 -4.5331,2.5068 -1.7495,0.6566 -3.539,1.2236 -5.3681,1.7011 -1.8291,0.4774 -3.6185,0.8356 -5.3681,1.0743 -1.2724,0.3581 -3.4992,0.4477 -6.6804,0.2686 -3.181,-0.1791 -6.4019,-0.4477 -9.6625,-0.8058 -3.2606,-0.3581 -6.2032,-1.4026 -8.8277,-3.1335 -2.6244,-1.7309 -4.0161,-4.0288 -4.1752,-6.8937 -0.1591,-4.2974 0.6761,-7.9979 2.5051,-11.1016 1.8292,-3.1037 4.6525,-5.0733 8.4698,-5.9089 3.4993,-1.0744 8.9866,-1.4623 16.4623,-1.1639 7.4756,0.2984 12.5654,1.4623 15.2693,3.4916z"/>
    <path id="_336145536" class="fil14" d="M838.309 725.11c2.545,4.2974 4.0559,12.7728 4.5331,25.4263 0.4771,12.6534 0.3182,24.2026 -0.4772,34.6477 -0.7953,10.445 -1.4314,16.2644 -1.9087,17.4581 -0.4771,1.1937 -5.7259,2.2382 -15.7464,3.1335 -10.0205,0.8953 -15.9852,0.6267 -17.8937,-0.8057 -0.3182,-0.3582 -0.7555,-1.7309 -1.3122,-4.1184 -0.5567,-2.3874 -0.9545,-5.6105 -1.193,-9.6691 -0.2386,-4.0586 -0.2783,-7.9979 -0.1193,-11.8178 0.3181,-5.6105 0.4374,-11.0121 0.3578,-16.2048 -0.0795,-5.1926 -0.2385,-9.5796 -0.4771,-13.1607 -0.2385,-3.5812 -0.4374,-5.4911 -0.5964,-5.7299 -0.9544,-1.5518 -2.7438,-1.8801 -5.3681,-0.9848 -2.6245,0.8953 -4.4138,2.1785 -5.3681,3.8498 -0.9545,1.4324 -1.3918,10.6837 -1.3124,27.7539 0.0796,17.0702 -0.5964,26.9184 -2.0278,29.5446 -0.9544,1.5518 -7.1973,2.1188 -18.7289,1.701 -11.5315,-0.4178 -17.7744,-1.2832 -18.7287,-2.5963 -0.7953,-0.7162 -1.3123,-1.7309 -1.5508,-3.044 -0.2387,-1.3131 -0.3182,-3.4021 -0.2387,-6.267 0.0796,-2.8649 0.1988,-5.7896 0.3579,-8.7739 0.1591,-2.9843 0.3976,-7.4905 0.7158,-13.5188 0.3181,-6.0283 0.5567,-11.9074 0.7158,-17.6372 0.159,-5.2524 0.0794,-10.4749 -0.2386,-15.6676 -0.3181,-5.1927 -0.676,-9.2513 -1.0737,-12.1759 -0.3976,-2.9246 -0.5964,-5.6404 -0.5964,-8.1472 0,-2.5068 0.3976,-4.4167 1.1929,-5.7298 0.7952,-1.0744 6.9985,-1.7906 18.6095,-2.1487 11.6111,-0.3581 18.2119,-0.1194 19.8024,0.7162 1.7496,0.8356 2.6642,2.1487 2.7438,3.9393 0.0795,1.7906 -0.1988,3.1932 -0.8351,4.2079 -0.6362,1.0146 -0.5567,1.6413 0.2385,1.8801 0.1591,-0.2388 0.3579,-0.5969 0.5966,-1.0744 0.2385,-0.4775 0.9146,-1.3131 2.0279,-2.5068 1.1134,-1.1937 2.3461,-2.2681 3.6981,-3.223 1.3519,-0.955 3.2207,-1.7906 5.6066,-2.5069 2.3859,-0.7162 4.9308,-1.0743 7.6347,-1.0743 3.3402,0 6.4815,0.4178 9.4241,1.2534 2.9424,0.8356 5.3283,1.7906 7.1575,2.8649 1.8291,1.0744 3.5787,2.3576 5.2488,3.8498 1.6701,1.4921 2.8232,2.7157 3.4594,3.6707 0.6363,0.9549 1.193,1.8502 1.6701,2.6858z"/>
    <path id="_336145536" class="fil2 str8" d="M583.74 786.885c0.1591,3.7005 -2.1075,7.3115 -6.7997,10.833 -4.692,3.5215 -10.418,6.3267 -17.1779,8.4157 -6.7598,2.089 -13.48,3.3723 -20.1603,3.8498 -12.5654,0.7162 -23.1028,-1.7906 -31.6123,-7.5205 -8.5095,-5.7298 -14.0367,-13.6084 -16.5815,-23.6356 -0.9545,-3.3424 -1.7497,-9.2513 -2.3859,-17.7267 -0.6362,-8.4754 -0.3579,-18.3535 0.835,-29.6341 1.193,-11.2807 3.8572,-19.5472 7.9925,-24.7995 0.3182,-0.4775 1.0737,-1.4623 2.2666,-2.9545 1.193,-1.4921 2.1076,-2.656 2.7438,-3.4916 0.6361,-0.8356 1.5507,-1.9995 2.7436,-3.4916 1.193,-1.4922 2.3063,-2.6859 3.3402,-3.5812 1.0338,-0.8953 2.2267,-1.9398 3.5788,-3.1335 1.352,-1.1937 2.7039,-2.1487 4.0559,-2.8649 1.3519,-0.7163 2.863,-1.4325 4.5331,-2.1487 1.6701,-0.7163 3.3799,-1.2534 5.1295,-1.6116 1.7496,-0.3581 3.5788,-0.5371 5.4875,-0.5371 20.0409,0 33.6402,2.8649 40.7977,8.5947 2.2268,1.91 4.1354,5.6702 5.7261,11.2807 1.5905,5.6105 2.3857,10.6539 2.3857,15.1304 0,4.4764 -0.5567,7.5503 -1.6701,9.2215 -2.0677,1.5518 -7.9528,2.9544 -17.6552,4.2078 -9.7023,1.2534 -15.4283,1.1042 -17.1779,-0.4476 -0.7953,-0.7162 -1.4713,-2.1189 -2.028,-4.2079 -0.5567,-2.089 -1.1929,-3.79 -1.9087,-5.1031 -0.7158,-1.3131 -1.7893,-1.8503 -3.2209,-1.6115 -1.9086,0.2387 -4.1353,10.2063 -6.6803,29.9026 -0.318,3.1037 -0.3579,5.9985 -0.1192,8.6843 0.2385,2.6859 0.7157,5.133 1.4314,7.3414 0.7158,2.2084 1.5905,4.1482 2.6245,5.8194 1.0338,1.6712 2.1472,3.044 3.3402,4.1183 1.1929,1.0744 2.346,1.8801 3.4594,2.4173 1.1133,0.5372 2.0678,0.7461 2.863,0.6267 1.9087,-0.1194 3.8968,-0.955 5.9646,-2.5068 2.0677,-1.5518 3.7775,-3.1932 5.1295,-4.9241 1.352,-1.7309 2.9027,-3.4319 4.6523,-5.1031 1.7497,-1.6713 3.2608,-2.6859 4.5331,-3.044 1.2725,-0.3581 3.0221,0.4178 5.2489,2.3277 2.2268,1.91 4.374,4.2377 6.4418,6.9833 2.0677,2.7455 3.857,5.5209 5.3681,8.3262 1.511,2.8052 2.346,4.8047 2.5051,5.9984z"/>
    <path id="_336145536" class="fil2 str8" d="M690.148 749.104c0.3182,2.0293 0.5567,4.2675 0.7158,6.7147 0.1591,2.4471 0.1591,5.6701 0,9.6691 -0.1591,3.999 -0.5567,7.8189 -1.1929,11.4597 -0.6363,3.6408 -1.8689,7.4607 -3.6981,11.4597 -1.8291,3.999 -4.0956,7.4607 -6.7995,10.3854 -2.7041,2.9246 -6.3226,5.3717 -10.8557,7.3413 -4.533,1.9697 -9.8216,3.0739 -15.8657,3.3126 -15.4284,0.4775 -28.6301,-1.1937 -39.6048,-5.0136 -10.9749,-3.8199 -17.9734,-9.6095 -20.9954,-17.3686 -2.2267,-5.4911 -3.698,-12.4446 -4.4138,-20.8603 -0.7158,-8.4157 -0.0397,-16.9806 2.028,-25.6948 2.0677,-8.7141 5.5669,-14.9215 10.4976,-18.622 13.8379,-10.3854 33.9585,-13.31 60.3617,-8.7738 7.3165,1.313 13.798,5.7596 19.4445,13.3398 5.6464,7.5801 9.106,15.1304 10.3783,22.6508zm-48.1938 31.3351c1.7496,-0.1193 3.1413,-1.3131 4.1753,-3.5811 1.0338,-2.2681 1.6701,-5.1032 1.9086,-8.5053 0.2386,-3.4021 0.3579,-6.2372 0.3579,-8.5052 0,-2.2681 0,-4.2974 0,-6.088 -0.1591,-2.7456 -0.8748,-5.4016 -2.1472,-7.9681 -1.2725,-2.5665 -2.6245,-4.0885 -4.056,-4.566 -1.2725,-0.5968 -3.1016,-0.2387 -5.4874,1.0744 -2.3858,1.3131 -4.2945,3.1037 -5.726,5.3717 -1.4315,2.0294 -2.2267,5.6702 -2.3858,10.9226 -0.1591,5.2523 0.1591,9.311 0.9543,12.1759 0.4771,3.1037 1.9882,5.5508 4.533,7.3414 2.545,1.7906 5.1694,2.5665 7.8733,2.3277z"/>
    <path id="_336145536" class="fil2 str8" d="M736.195 724.752c1.9087,0.5969 3.3004,4.0288 4.1752,10.2958 0.8749,6.2671 1.2724,12.6236 1.1929,19.0697 -0.0795,6.4461 -0.4373,10.9225 -1.0735,13.4294 -0.6363,3.1036 -0.9545,7.6099 -0.9545,13.5188 0,5.9089 -0.0795,11.1613 -0.2385,15.7571 -0.1591,4.5958 -0.8749,7.5503 -2.1472,8.8634 -0.9544,1.0743 -7.3167,1.4921 -19.0868,1.2534 -11.77,-0.2387 -17.8937,-0.8356 -18.3708,-1.7906 -0.3182,-0.7162 -0.6362,-2.3874 -0.9544,-5.0136 -0.3181,-2.6262 -0.676,-6.7147 -1.0736,-12.2655 -0.3977,-5.5508 -0.3579,-12.0267 0.1193,-19.4278 0.4771,-9.311 1.3122,-18.3534 2.5051,-27.1272 1.1929,-8.7739 2.5847,-13.9964 4.1752,-15.6676 0.7953,-0.7162 5.8851,-1.1937 15.2693,-1.4325 9.3844,-0.2387 14.8718,-0.0596 16.4623,0.5372zm1.9087 -31.1561c5.0898,3.8199 6.5212,9.4304 4.2944,16.8315 -0.318,1.0743 -1.1133,2.1188 -2.3858,3.1335 -1.2724,1.0147 -2.7835,1.8503 -4.5331,2.5068 -1.7495,0.6566 -3.539,1.2236 -5.3681,1.7011 -1.8291,0.4774 -3.6185,0.8356 -5.3681,1.0743 -1.2724,0.3581 -3.4992,0.4477 -6.6804,0.2686 -3.181,-0.1791 -6.4019,-0.4477 -9.6625,-0.8058 -3.2606,-0.3581 -6.2032,-1.4026 -8.8277,-3.1335 -2.6244,-1.7309 -4.0161,-4.0288 -4.1752,-6.8937 -0.1591,-4.2974 0.6761,-7.9979 2.5051,-11.1016 1.8292,-3.1037 4.6525,-5.0733 8.4698,-5.9089 3.4993,-1.0744 8.9866,-1.4623 16.4623,-1.1639 7.4756,0.2984 12.5654,1.4623 15.2693,3.4916z"/>
    <path id="_336145536" class="fil2 str8" d="M838.309 725.11c2.545,4.2974 4.0559,12.7728 4.5331,25.4263 0.4771,12.6534 0.3182,24.2026 -0.4772,34.6477 -0.7953,10.445 -1.4314,16.2644 -1.9087,17.4581 -0.4771,1.1937 -5.7259,2.2382 -15.7464,3.1335 -10.0205,0.8953 -15.9852,0.6267 -17.8937,-0.8057 -0.3182,-0.3582 -0.7555,-1.7309 -1.3122,-4.1184 -0.5567,-2.3874 -0.9545,-5.6105 -1.193,-9.6691 -0.2386,-4.0586 -0.2783,-7.9979 -0.1193,-11.8178 0.3181,-5.6105 0.4374,-11.0121 0.3578,-16.2048 -0.0795,-5.1926 -0.2385,-9.5796 -0.4771,-13.1607 -0.2385,-3.5812 -0.4374,-5.4911 -0.5964,-5.7299 -0.9544,-1.5518 -2.7438,-1.8801 -5.3681,-0.9848 -2.6245,0.8953 -4.4138,2.1785 -5.3681,3.8498 -0.9545,1.4324 -1.3918,10.6837 -1.3124,27.7539 0.0796,17.0702 -0.5964,26.9184 -2.0278,29.5446 -0.9544,1.5518 -7.1973,2.1188 -18.7289,1.701 -11.5315,-0.4178 -17.7744,-1.2832 -18.7287,-2.5963 -0.7953,-0.7162 -1.3123,-1.7309 -1.5508,-3.044 -0.2387,-1.3131 -0.3182,-3.4021 -0.2387,-6.267 0.0796,-2.8649 0.1988,-5.7896 0.3579,-8.7739 0.1591,-2.9843 0.3976,-7.4905 0.7158,-13.5188 0.3181,-6.0283 0.5567,-11.9074 0.7158,-17.6372 0.159,-5.2524 0.0794,-10.4749 -0.2386,-15.6676 -0.3181,-5.1927 -0.676,-9.2513 -1.0737,-12.1759 -0.3976,-2.9246 -0.5964,-5.6404 -0.5964,-8.1472 0,-2.5068 0.3976,-4.4167 1.1929,-5.7298 0.7952,-1.0744 6.9985,-1.7906 18.6095,-2.1487 11.6111,-0.3581 18.2119,-0.1194 19.8024,0.7162 1.7496,0.8356 2.6642,2.1487 2.7438,3.9393 0.0795,1.7906 -0.1988,3.1932 -0.8351,4.2079 -0.6362,1.0146 -0.5567,1.6413 0.2385,1.8801 0.1591,-0.2388 0.3579,-0.5969 0.5966,-1.0744 0.2385,-0.4775 0.9146,-1.3131 2.0279,-2.5068 1.1134,-1.1937 2.3461,-2.2681 3.6981,-3.223 1.3519,-0.955 3.2207,-1.7906 5.6066,-2.5069 2.3859,-0.7162 4.9308,-1.0743 7.6347,-1.0743 3.3402,0 6.4815,0.4178 9.4241,1.2534 2.9424,0.8356 5.3283,1.7906 7.1575,2.8649 1.8291,1.0744 3.5787,2.3576 5.2488,3.8498 1.6701,1.4921 2.8232,2.7157 3.4594,3.6707 0.6363,0.9549 1.193,1.8502 1.6701,2.6858z"/>
    <path id="_336148128" class="fil15" d="M48.1824 794.885l3.7196 13.6597 -28.0889 5.5953 -4.8899 -66.2301c10.8059,-1.7476 20.3452,-2.6294 28.6019,-2.6294 25.3153,0 38.7986,8.1766 40.498,24.5137 0,16.7219 -13.1466,25.0908 -39.4078,25.0908l-0.4329 0zm-6.4771 -28.137l1.7796 6.2046c14.0124,0 21.0025,-1.491 21.0025,-4.4731 0,-0.1122 -0.016,-0.2725 -0.0481,-0.4649 -0.4328,-1.8758 -3.1263,-2.8217 -8.0803,-2.8217 -3.6554,0 -8.5453,0.529 -14.6537,1.5551z"/>
    <path id="_336148128" class="fil15" d="M93.5062 747.765l28.3775 5.5472c-3.912,11.9923 -5.8679,21.1629 -5.8679,27.5278 0,7.1344 2.4369,10.7738 7.3268,10.902 7.7597,-0.0641 11.6396,-6.1725 11.6396,-18.3251 0,-5.6755 -0.8497,-12.6336 -2.5332,-20.9063l26.1169 -8.2567c1.443,8.882 2.1644,16.9303 2.1644,24.1449 0,29.9646 -12.4893,45.0993 -37.4358,45.4199 -22.9585,-0.2244 -34.4377,-12.0564 -34.4377,-35.5119 0,-8.6094 1.5551,-18.79 4.6494,-30.5418z"/>
    <path id="_336148128" class="fil15" d="M191.016 794.885l3.7196 13.6597 -28.0889 5.5953 -4.8899 -66.2301c10.8059,-1.7476 20.3452,-2.6294 28.6019,-2.6294 25.3153,0 38.7986,8.1766 40.498,24.5137 0,16.7219 -13.1466,25.0908 -39.4078,25.0908l-0.4329 0zm-6.4771 -28.137l1.7796 6.2046c14.0124,0 21.0025,-1.491 21.0025,-4.4731 0,-0.1122 -0.016,-0.2725 -0.0481,-0.4649 -0.4328,-1.8758 -3.1263,-2.8217 -8.0803,-2.8217 -3.6554,0 -8.5453,0.529 -14.6537,1.5551z"/>
    <path id="_336148128" class="fil15" d="M259.49 794.885l3.7196 13.6597 -28.0889 5.5953 -4.8899 -66.2301c10.8059,-1.7476 20.3452,-2.6294 28.6019,-2.6294 25.3153,0 38.7986,8.1766 40.498,24.5137 0,16.7219 -13.1466,25.0908 -39.4078,25.0908l-0.4329 0zm-6.4771 -28.137l1.7796 6.2046c14.0124,0 21.0025,-1.491 21.0025,-4.4731 0,-0.1122 -0.016,-0.2725 -0.0481,-0.4649 -0.4328,-1.8758 -3.1263,-2.8217 -8.0803,-2.8217 -3.6554,0 -8.5453,0.529 -14.6537,1.5551z"/>
    <polygon id="_336148128" class="fil15" points="350.346,735.981 351.757,764.311 322.53,767.453 322.722,769.89 339.3,767.966 340.102,787.173 323.797,788.776 323.893,791.165 352.03,789.065 356.92,813.771 297.215,815.791 303.179,744.959 "/>
    <polygon id="_336148128" class="fil15" points="395.382,768.255 397.642,807.711 368.655,815.166 373.064,766.699 353.858,765.064 355.653,744.623 413.755,741.144 416.047,770.403 "/>
    <path id="_336148128" class="fil15" d="M433.186 787.51c-9.8599,-1.3468 -14.7979,-7.391 -14.7979,-18.1328 0,-1.3787 0.0962,-2.8377 0.2886,-4.3608 1.4108,-13.4352 16.9142,-21.3552 46.5422,-23.7761l4.6013 24.6579c-1.5872,-0.0321 -3.0942,-0.0481 -4.5051,-0.0481 -11.335,0 -17.299,1.1062 -17.8922,3.2867 -0.0642,0.1603 -0.0962,0.3206 -0.0962,0.4809 0,2.2125 5.3548,3.5753 16.0645,4.0883 11.1105,0.5291 16.6738,7.7277 16.6738,21.5957l0 0.9941c-0.2886,14.5574 -16.4012,22.3172 -48.3379,23.2951l-9.6195 -25.8283c7.3589,0.8017 13.1627,1.2185 17.4273,1.2185 5.2266,0 8.1285,-0.6092 8.7377,-1.8437 0.0481,-0.1764 0.0802,-0.3688 0.0802,-0.5612 0,-1.9399 -5.0503,-3.6233 -15.1668,-5.0662z"/>
   </g>
  </g>
 </g>
</svg>
