<?xml version="1.0" encoding="UTF-8"?>
<!DOCTYPE svg PUBLIC "-//W3C//DTD SVG 1.1//EN" "http://www.w3.org/Graphics/SVG/1.1/DTD/svg11.dtd">
<!-- Creator: CorelDRAW -->
<svg xmlns="http://www.w3.org/2000/svg" xml:space="preserve" width="830mm" height="830mm" style="shape-rendering:geometricPrecision; text-rendering:geometricPrecision; image-rendering:optimizeQuality; fill-rule:evenodd; clip-rule:evenodd"
viewBox="0 0 830 830">
 <defs>
  <style type="text/css">
   <![CDATA[
    .str8 {stroke:#1F1A17;stroke-width:0.0762}
    .str5 {stroke:#00923F;stroke-width:2.8222}
    .str9 {stroke:#0A0B0C;stroke-width:2.8222}
    .str7 {stroke:#1F1A17;stroke-width:2.8222}
    .str4 {stroke:#00923F;stroke-width:5.6444}
    .str0 {stroke:#AB8C0A;stroke-width:8.4667}
    .str1 {stroke:#F7D117;stroke-width:8.4667}
    .str2 {stroke:white;stroke-width:16.9333}
    .str6 {stroke:#00923F;stroke-width:5.6444;stroke-dasharray:5 5}
    .str3 {stroke:white;stroke-width:16.9333;stroke-dasharray:16 16}
    .fil4 {fill:none}
    .fil12 {fill:#00923F}
    .fil11 {fill:#0A0B0C}
    .fil8 {fill:white}
    .fil3 {fill:#5EE045}
    .fil0 {fill:#6633CC}
    .fil10 {fill:#66CC00}
    .fil9 {fill:#66FF00}
    .fil2 {fill:#DA251D}
    .fil1 {fill:#FFC91C}
    .fil5 {fill:white}
    .fil6 {fill:#E0AD12}
    .fil7 {fill:#F7E354}
   ]]>
  </style>
 </defs>
 <g id="Capa_x0020_1">
  <metadata id="CorelCorpID_0Corel-Layer"/>
  <circle id="_357884304" class="fil0" cx="412.704" cy="415.928" r="399.471"/>
  <path id="_354063144" class="fil1" d="M412.704 415.925l162.498 -364.941c144.114,64.1317 236.971,207.172 236.971,364.941l-399.471 0 0.0013 0z"/>
  <path id="_354062568" class="fil2" d="M412.704 415.925l-83.0552 -390.741c27.2627,-5.7544 55.1576,-8.7296 83.0552,-8.7296 55.9387,0 111.437,11.8017 162.498,34.5293l-162.498 364.941 0 0.0007z"/>
  <path id="_354062976" class="fil3" d="M412.704 415.925l-296.86 -267.305c56.377,-62.6195 131.334,-105.927 213.804,-123.435l83.0552 390.741 0 -0.0013z"/>
  <circle id="_357884616" class="fil4" cx="412.704" cy="415.929" r="272.325"/>
  <circle id="_354059760" class="fil5" cx="412.704" cy="415.929" r="271.654"/>
  <g id="_742260832">
   <path id="_742260088" class="fil6 str0" d="M412.948 168.962c138.048,0 250,111.952 250,250 0,138.048 -111.952,250 -250,250 -138.048,0 -250,-111.952 -250,-250 0,-138.048 111.952,-250 250,-250z"/>
   <path id="_742259992" class="fil7 str1" d="M412.947 222.68c108.385,0 196.282,87.8967 196.282,196.282 0,108.385 -87.8966,196.282 -196.282,196.282 -108.385,0 -196.282,-87.8967 -196.282,-196.282 0,-108.385 87.8966,-196.282 196.282,-196.282z"/>
   <g>
    <g>
     <g>
      <path id="_742260016" class="fil8 str2" d="M312.344 600.019c3.0719,-29.9122 12.8069,-67.5472 1.5143,-96.8942 -18.2723,-32.1553 -34.1922,-59.5768 -43.0434,-92.4376 -4.4486,-11.8644 -6.7426,-23.5277 -5.206,-34.1643 -0.9864,-32.3444 -4.2445,-70.2513 38.0182,-79.6629 9.2808,-8.8291 23.3437,-23.9578 35.9471,-27.3406 11.3746,-17.7999 52.6299,-23.648 73.3726,-16.6076 20.7426,-7.0402 61.9981,-1.1925 73.3725,16.6074 12.6028,3.3826 26.6675,18.512 35.948,27.3408 42.2626,9.4116 39.0045,47.3185 38.0181,79.6629 1.5366,10.6366 -0.7573,22.2999 -5.2059,34.1643 -8.8512,32.8608 -24.7712,60.2823 -43.0435,92.4376 -11.2925,29.347 -1.5576,66.982 1.5143,96.8942l-7.0704 0 -2.0318 0 -1.0006 0 -2.0334 0 -0.9988 0 -2.0356 0 -0.9968 0 -2.0371 0 -0.9948 0 -2.0391 0 -0.9933 0 -2.0407 0 -0.9917 0 -2.0427 0 -0.9897 0 -2.0442 0 -0.9882 0 -2.0457 0 -0.9872 0 -2.0468 0 -0.9855 0 -2.0484 0 -0.9844 0 -2.0495 0 -0.9829 0 -2.051 0 -0.9819 0 -2.052 0 -0.9807 0 -2.0533 0 -0.9796 0 -2.0543 0 -0.9782 0 -2.0557 0 -0.9776 0 -2.0563 0 -0.9766 0 -2.0573 0 -0.9757 0 -2.0583 0 -0.9746 0 -2.0593 0 -0.9742 0 -2.0592 0 -0.9737 0 -2.0602 0 -0.9732 0 -2.0604 0 -0.9725 0 -2.0614 0 -0.972 0 -2.0614 0 -0.972 0 -2.0619 0 -0.9715 0 -2.062 0 -0.9711 0 -2.0624 0 -0.9711 0 -2.0623 0 -0.9712 0 -2.0626 0 -0.9708 0 -2.0626 0 -0.9708 0 -2.0626 0 -0.9713 0 -2.0621 0 -0.9713 0 -2.0621 0 -0.9717 0 -2.0617 0 -0.9717 0 -2.0618 0 -0.9721 0 -2.0609 0 -0.9727 0 -2.0607 0 -0.9732 0 -2.0601 0 -0.9733 0 -2.0601 0 -0.9738 0 -2.0591 0 -0.9748 0 -2.0582 0 -0.9758 0 -2.0571 0 -0.9764 0 -2.0565 0 -0.9775 0 -2.0554 0 -0.9785 0 -2.0544 0 -0.9795 0 -2.0534 0 -0.9802 0 -2.0527 0 -0.9815 0 -2.0513 0 -0.9827 0 -2.0502 0 -0.9837 0 -2.0487 0 -0.9852 0 -2.0473 0 -0.9868 0 -2.0456 0 -0.9883 0 -2.0443 0 -0.9896 0 -2.0427 0 -0.9913 0 -2.0411 0 -0.9933 0 -2.039 0 -0.9949 0 -2.0374 0 -0.9965 0 -2.0354 0 -0.9985 0 -2.0337 0 -1.0006 0 -2.0313 0 -7.0705 0z"/>
      <g>
       <path id="_742260400" class="fil8 str2" d="M318.342 558.719l189.212 0c6.5211,0 11.8565,5.3354 11.8565,11.8565l0 44.4229c0,6.5211 -5.3354,11.8565 -11.8565,11.8565l-189.212 0c-6.5211,0 -11.8565,-5.3354 -11.8565,-11.8565l0 -44.4229c0,-6.5211 5.3354,-11.8565 11.8565,-11.8565z"/>
       <polygon id="_742260136" class="fil8 str2" points="320.68,558.719 334.875,558.719 334.875,626.855 320.68,626.855 "/>
       <polygon id="_742260472" class="fil8 str2" points="334.875,558.719 349.07,558.719 349.07,626.855 334.875,626.855 "/>
       <polygon id="_742260208" class="fil8 str2" points="349.07,558.719 363.265,558.719 363.265,626.855 349.07,626.855 "/>
       <polygon id="_742260448" class="fil8 str2" points="363.265,558.719 377.46,558.719 377.46,626.855 363.265,626.855 "/>
       <polygon id="_742260568" class="fil8 str2" points="377.46,558.719 391.655,558.719 391.655,626.855 377.46,626.855 "/>
       <polygon id="_742260328" class="fil8 str2" points="391.655,558.719 405.85,558.719 405.85,626.855 391.655,626.855 "/>
       <polygon id="_742260640" class="fil8 str2" points="405.85,558.719 420.045,558.719 420.045,626.855 405.85,626.855 "/>
       <polygon id="_742259224" class="fil8 str2" points="420.045,558.719 434.24,558.719 434.24,626.855 420.045,626.855 "/>
       <polygon id="_742259320" class="fil8 str2" points="434.24,558.719 448.435,558.719 448.435,626.855 434.24,626.855 "/>
       <polygon id="_742259920" class="fil8 str2" points="448.435,558.719 462.63,558.719 462.63,626.855 448.435,626.855 "/>
       <polygon id="_742259656" class="fil8 str2" points="462.63,558.719 476.825,558.719 476.825,626.855 462.63,626.855 "/>
       <polygon id="_742259872" class="fil8 str2" points="476.825,558.719 491.02,558.719 491.02,626.855 476.825,626.855 "/>
       <polygon id="_742259560" class="fil8 str2" points="491.02,558.719 505.215,558.719 505.215,626.855 491.02,626.855 "/>
      </g>
      <polyline id="_742259464" class="fil4 str3" points="265.147,375.762 298.496,433.922 412.887,467.878 528.455,433.922 560.645,373.22 "/>
     </g>
     <path id="_742259632" class="fil8 str2" d="M362.305 211.069c25.3245,0 45.8617,20.5374 45.8617,45.8618 0,25.3244 -20.5372,45.8617 -45.8617,45.8617 -25.3246,0 -45.8618,-20.5373 -45.8618,-45.8617 0,-25.3244 20.5372,-45.8618 45.8618,-45.8618z"/>
     <path id="_742259584" class="fil8 str2" d="M361.83 225.327c17.9764,0 32.5547,14.5783 32.5547,32.5547 0,17.9763 -14.5783,32.5547 -32.5547,32.5547 -17.9765,0 -32.5548,-14.5784 -32.5548,-32.5547 0,-17.9764 14.5783,-32.5547 32.5548,-32.5547z"/>
     <path id="_742259704" class="fil8 str2" d="M361.83 257.881l-2.8657 32.4275c-9.4711,-0.8346 -18.1194,-5.7829 -23.6399,-13.525l26.5056 -18.9025z"/>
     <path id="_742259128" class="fil8 str2" d="M360.519 233.813c12.5664,0 22.7573,10.191 22.7573,22.7573 0,12.5663 -10.1909,22.7573 -22.7573,22.7573 -12.5664,0 -22.7573,-10.191 -22.7573,-22.7573 0,-12.5663 10.1909,-22.7573 22.7573,-22.7573z"/>
     <path id="_742258864" class="fil8 str2" d="M369.454 248.338c3.3216,0 6.0153,2.6937 6.0153,6.0153 0,3.3215 -2.6937,6.0152 -6.0153,6.0152 -3.3216,0 -6.0152,-2.6937 -6.0152,-6.0152 0,-3.3216 2.6936,-6.0153 6.0152,-6.0153z"/>
     <path id="_742259080" class="fil8 str2" d="M316.443 256.931c29.7075,-16.5053 60.6084,-15.4059 91.7235,0 0.5669,-20.3348 -14.2891,-44.5482 -47.3799,-45.837 -26.9304,0.2457 -46.2813,24.4936 -44.3436,45.837z"/>
     <path id="_742258432" class="fil8 str2" d="M466.294 211.069c25.3245,0 45.8617,20.5374 45.8617,45.8618 0,25.3244 -20.5372,45.8617 -45.8617,45.8617 -25.3245,0 -45.8618,-20.5373 -45.8618,-45.8617 0,-25.3244 20.5373,-45.8618 45.8618,-45.8618z"/>
     <path id="_742258408" class="fil8 str2" d="M465.819 225.327c17.9765,0 32.5547,14.5783 32.5547,32.5547 0,17.9763 -14.5782,32.5547 -32.5547,32.5547 -17.9765,0 -32.5547,-14.5784 -32.5547,-32.5547 0,-17.9764 14.5782,-32.5547 32.5547,-32.5547z"/>
     <path id="_742258576" class="fil8 str2" d="M465.819 257.881l-2.8656 32.4275c-9.4711,-0.8346 -18.1195,-5.7829 -23.64,-13.525l26.5056 -18.9025z"/>
     <path id="_742258816" class="fil8 str2" d="M464.508 233.813c12.5664,0 22.7573,10.191 22.7573,22.7573 0,12.5663 -10.1909,22.7573 -22.7573,22.7573 -12.5664,0 -22.7573,-10.191 -22.7573,-22.7573 0,-12.5663 10.1909,-22.7573 22.7573,-22.7573z"/>
     <path id="_742259152" class="fil8 str2" d="M473.443 248.338c3.3215,0 6.0152,2.6937 6.0152,6.0153 0,3.3215 -2.6937,6.0152 -6.0152,6.0152 -3.3216,0 -6.0153,-2.6937 -6.0153,-6.0152 0,-3.3216 2.6937,-6.0153 6.0153,-6.0153z"/>
     <path id="_742258648" class="fil8 str2" d="M420.432 256.931c29.7074,-16.5053 60.6083,-15.4059 91.7235,0 0.5668,-20.3348 -14.2891,-44.5482 -47.38,-45.837 -26.9303,0.2457 -46.2812,24.4936 -44.3435,45.837z"/>
    </g>
    <g>
     <path id="_742258480" class="fil9 str4" d="M312.344 600.019c3.0719,-29.9122 12.8069,-67.5472 1.5143,-96.8942 -18.2723,-32.1553 -34.1922,-59.5768 -43.0434,-92.4376 -4.4486,-11.8644 -6.7426,-23.5277 -5.206,-34.1643 -0.9864,-32.3444 -4.2445,-70.2513 38.0182,-79.6629 9.2808,-8.8291 23.3437,-23.9578 35.9471,-27.3406 11.3746,-17.7999 52.6299,-23.648 73.3726,-16.6076 20.7426,-7.0402 61.9981,-1.1925 73.3725,16.6074 12.6028,3.3826 26.6675,18.512 35.948,27.3408 42.2626,9.4116 39.0045,47.3185 38.0181,79.6629 1.5366,10.6366 -0.7573,22.2999 -5.2059,34.1643 -8.8512,32.8608 -24.7712,60.2823 -43.0435,92.4376 -11.2925,29.347 -1.5576,66.982 1.5143,96.8942l-7.0704 0 -2.0318 0 -1.0006 0 -2.0334 0 -0.9988 0 -2.0356 0 -0.9968 0 -2.0371 0 -0.9948 0 -2.0391 0 -0.9933 0 -2.0407 0 -0.9917 0 -2.0427 0 -0.9897 0 -2.0442 0 -0.9882 0 -2.0457 0 -0.9872 0 -2.0468 0 -0.9855 0 -2.0484 0 -0.9844 0 -2.0495 0 -0.9829 0 -2.051 0 -0.9819 0 -2.052 0 -0.9807 0 -2.0533 0 -0.9796 0 -2.0543 0 -0.9782 0 -2.0557 0 -0.9776 0 -2.0563 0 -0.9766 0 -2.0573 0 -0.9757 0 -2.0583 0 -0.9746 0 -2.0593 0 -0.9742 0 -2.0592 0 -0.9737 0 -2.0602 0 -0.9732 0 -2.0604 0 -0.9725 0 -2.0614 0 -0.972 0 -2.0614 0 -0.972 0 -2.0619 0 -0.9715 0 -2.062 0 -0.9711 0 -2.0624 0 -0.9711 0 -2.0623 0 -0.9712 0 -2.0626 0 -0.9708 0 -2.0626 0 -0.9708 0 -2.0626 0 -0.9713 0 -2.0621 0 -0.9713 0 -2.0621 0 -0.9717 0 -2.0617 0 -0.9717 0 -2.0618 0 -0.9721 0 -2.0609 0 -0.9727 0 -2.0607 0 -0.9732 0 -2.0601 0 -0.9733 0 -2.0601 0 -0.9738 0 -2.0591 0 -0.9748 0 -2.0582 0 -0.9758 0 -2.0571 0 -0.9764 0 -2.0565 0 -0.9775 0 -2.0554 0 -0.9785 0 -2.0544 0 -0.9795 0 -2.0534 0 -0.9802 0 -2.0527 0 -0.9815 0 -2.0513 0 -0.9827 0 -2.0502 0 -0.9837 0 -2.0487 0 -0.9852 0 -2.0473 0 -0.9868 0 -2.0456 0 -0.9883 0 -2.0443 0 -0.9896 0 -2.0427 0 -0.9913 0 -2.0411 0 -0.9933 0 -2.039 0 -0.9949 0 -2.0374 0 -0.9965 0 -2.0354 0 -0.9985 0 -2.0337 0 -1.0006 0 -2.0313 0 -7.0705 0z"/>
     <g>
      <path id="_742257760" class="fil9 str5" d="M318.342 558.719l189.212 0c6.5211,0 11.8565,5.3354 11.8565,11.8565l0 44.4229c0,6.5211 -5.3354,11.8565 -11.8565,11.8565l-189.212 0c-6.5211,0 -11.8565,-5.3354 -11.8565,-11.8565l0 -44.4229c0,-6.5211 5.3354,-11.8565 11.8565,-11.8565z"/>
      <polygon id="_742257880" class="fil9 str5" points="320.68,558.719 334.875,558.719 334.875,626.855 320.68,626.855 "/>
      <polygon id="_742258288" class="fil9 str5" points="334.875,558.719 349.07,558.719 349.07,626.855 334.875,626.855 "/>
      <polygon id="_742258192" class="fil9 str5" points="349.07,558.719 363.265,558.719 363.265,626.855 349.07,626.855 "/>
      <polygon id="_742258096" class="fil9 str5" points="363.265,558.719 377.46,558.719 377.46,626.855 363.265,626.855 "/>
      <polygon id="_742257664" class="fil9 str5" points="377.46,558.719 391.655,558.719 391.655,626.855 377.46,626.855 "/>
      <polygon id="_742257712" class="fil9 str5" points="391.655,558.719 405.85,558.719 405.85,626.855 391.655,626.855 "/>
      <polygon id="_742258168" class="fil9 str5" points="405.85,558.719 420.045,558.719 420.045,626.855 405.85,626.855 "/>
      <polygon id="_742257952" class="fil9 str5" points="420.045,558.719 434.24,558.719 434.24,626.855 420.045,626.855 "/>
      <polygon id="_742257832" class="fil9 str5" points="434.24,558.719 448.435,558.719 448.435,626.855 434.24,626.855 "/>
      <polygon id="_742258144" class="fil9 str5" points="448.435,558.719 462.63,558.719 462.63,626.855 448.435,626.855 "/>
      <polygon id="_742257352" class="fil9 str5" points="462.63,558.719 476.825,558.719 476.825,626.855 462.63,626.855 "/>
      <polygon id="_742257112" class="fil9 str5" points="476.825,558.719 491.02,558.719 491.02,626.855 476.825,626.855 "/>
      <polygon id="_742256896" class="fil9 str5" points="491.02,558.719 505.215,558.719 505.215,626.855 491.02,626.855 "/>
     </g>
     <polyline id="_742257088" class="fil4 str6" points="265.147,375.762 298.496,433.922 412.887,467.878 528.455,433.922 560.645,373.22 "/>
    </g>
    <path id="_742257040" class="fil8 str7" d="M362.305 211.069c25.3245,0 45.8617,20.5374 45.8617,45.8618 0,25.3244 -20.5372,45.8617 -45.8617,45.8617 -25.3246,0 -45.8618,-20.5373 -45.8618,-45.8617 0,-25.3244 20.5372,-45.8618 45.8618,-45.8618z"/>
    <path id="_742257592" class="fil9" d="M361.83 225.327c17.9764,0 32.5547,14.5783 32.5547,32.5547 0,17.9763 -14.5783,32.5547 -32.5547,32.5547 -17.9765,0 -32.5548,-14.5784 -32.5548,-32.5547 0,-17.9764 14.5783,-32.5547 32.5548,-32.5547z"/>
    <path id="_742257208" class="fil10" d="M361.83 257.881l-2.8657 32.4275c-9.4711,-0.8346 -18.1194,-5.7829 -23.6399,-13.525l26.5056 -18.9025z"/>
    <path id="_742257184" class="fil11 str8" d="M360.519 233.813c12.5664,0 22.7573,10.191 22.7573,22.7573 0,12.5663 -10.1909,22.7573 -22.7573,22.7573 -12.5664,0 -22.7573,-10.191 -22.7573,-22.7573 0,-12.5663 10.1909,-22.7573 22.7573,-22.7573z"/>
    <path id="_742257160" class="fil8 str8" d="M369.454 248.338c3.3216,0 6.0153,2.6937 6.0153,6.0153 0,3.3215 -2.6937,6.0152 -6.0153,6.0152 -3.3216,0 -6.0152,-2.6937 -6.0152,-6.0152 0,-3.3216 2.6936,-6.0153 6.0152,-6.0153z"/>
    <path id="_742257424" class="fil12 str9" d="M316.443 256.931c29.7075,-16.5053 60.6084,-15.4059 91.7235,0 0.5669,-20.3348 -14.2891,-44.5482 -47.3799,-45.837 -26.9304,0.2457 -46.2813,24.4936 -44.3436,45.837z"/>
    <path id="_742257232" class="fil8 str7" d="M466.294 211.069c25.3245,0 45.8617,20.5374 45.8617,45.8618 0,25.3244 -20.5372,45.8617 -45.8617,45.8617 -25.3245,0 -45.8618,-20.5373 -45.8618,-45.8617 0,-25.3244 20.5373,-45.8618 45.8618,-45.8618z"/>
    <path id="_742256584" class="fil9" d="M465.819 225.327c17.9765,0 32.5547,14.5783 32.5547,32.5547 0,17.9763 -14.5782,32.5547 -32.5547,32.5547 -17.9765,0 -32.5547,-14.5784 -32.5547,-32.5547 0,-17.9764 14.5782,-32.5547 32.5547,-32.5547z"/>
    <path id="_742256824" class="fil10" d="M465.819 257.881l-2.8656 32.4275c-9.4711,-0.8346 -18.1195,-5.7829 -23.64,-13.525l26.5056 -18.9025z"/>
    <path id="_742256752" class="fil11 str8" d="M464.508 233.813c12.5664,0 22.7573,10.191 22.7573,22.7573 0,12.5663 -10.1909,22.7573 -22.7573,22.7573 -12.5664,0 -22.7573,-10.191 -22.7573,-22.7573 0,-12.5663 10.1909,-22.7573 22.7573,-22.7573z"/>
    <path id="_742256656" class="fil8 str8" d="M473.443 248.338c3.3215,0 6.0152,2.6937 6.0152,6.0153 0,3.3215 -2.6937,6.0152 -6.0152,6.0152 -3.3216,0 -6.0153,-2.6937 -6.0153,-6.0152 0,-3.3216 2.6937,-6.0153 6.0153,-6.0153z"/>
    <path id="_742256560" class="fil12 str9" d="M420.432 256.931c29.7074,-16.5053 60.6083,-15.4059 91.7235,0 0.5668,-20.3348 -14.2891,-44.5482 -47.38,-45.837 -26.9303,0.2457 -46.2812,24.4936 -44.3435,45.837z"/>
   </g>
  </g>
 </g>
</svg>
