<?xml version="1.0" encoding="UTF-8"?>
<!DOCTYPE svg PUBLIC "-//W3C//DTD SVG 1.1//EN" "http://www.w3.org/Graphics/SVG/1.1/DTD/svg11.dtd">
<!-- Creator: CorelDRAW -->
<svg xmlns="http://www.w3.org/2000/svg" xml:space="preserve" width="250mm" height="250mm" style="shape-rendering:geometricPrecision; text-rendering:geometricPrecision; image-rendering:optimizeQuality; fill-rule:evenodd; clip-rule:evenodd"
viewBox="0 0 250 250">
 <defs>
  <style type="text/css">
   <![CDATA[
    .str2 {stroke:#1F1A17;stroke-width:0.0762}
    .str0 {stroke:#EBAD14;stroke-width:0.0762}
    .str1 {stroke:#1F1A17;stroke-width:1.4111}
    .str3 {stroke:#FFF500;stroke-width:2.8222}
    .fil4 {fill:none}
    .fil14 {fill:none;fill-rule:nonzero}
    .fil6 {fill:#0A0B0C}
    .fil11 {fill:white}
    .fil10 {fill:black}
    .fil0 {fill:#6633CC}
    .fil12 {fill:#CC0000}
    .fil2 {fill:#DA251D}
    .fil5 {fill:white}
    .fil9 {fill:#245E36}
    .fil3 {fill:#5EE045}
    .fil7 {fill:#66D43D}
    .fil8 {fill:#DE8703}
    .fil1 {fill:#FFC91C}
    .fil15 {fill:#1F1A17;fill-rule:nonzero}
    .fil13 {fill:#AB7305;fill-rule:nonzero}
   ]]>
  </style>
 </defs>
 <g id="Capa_x0020_1">
  <metadata id="CorelCorpID_0Corel-Layer"/>
  <circle id="_357884304" class="fil0" cx="125.674" cy="122.957" r="120.304"/>
  <path id="_354063144" class="fil1" d="M125.674 122.956l48.9378 -109.905c43.4012,19.3138 71.3658,62.3915 71.3658,109.905l-120.304 0z"/>
  <path id="_354062568" class="fil2" d="M125.674 122.956l-25.0128 -117.675c8.2104,-1.733 16.6112,-2.629 25.0128,-2.629 16.8464,0 33.5602,3.5542 48.9378,10.3988l-48.9378 109.905z"/>
  <path id="_354062976" class="fil3" d="M125.674 122.956l-89.4018 -80.5011c16.9784,-18.8584 39.5525,-31.9008 64.389,-37.1735l25.0128 117.675z"/>
  <circle id="_357884616" class="fil4" cx="125.674" cy="122.957" r="82.0129"/>
  <circle id="_354059760" class="fil5" cx="125.674" cy="122.957" r="81.8108"/>
  <path class="fil6" d="M102.05 183.987c-2.0265,-0.7466 -4.5649,-0.4693 -6.6767,-0.4053 -1.7918,-0.2986 -3.5409,-0.8106 -5.2048,-1.5572 -0.9172,-0.064 -1.7918,-0.2559 -2.6663,-0.4692 -0.6613,-0.3627 -1.3439,-0.832 -2.0905,-1.0453 0,-0.064 0,-0.1066 0,-0.1493 -0.7892,-0.32 -0.7892,-0.32 -3.349,-1.0239 -1.4505,-0.7679 -1.4505,-0.7679 -3.0717,-1.8131 0,-0.448 -3.1143,-1.9198 -3.5836,-2.2185 -1.3652,-1.2798 -2.2184,-2.6237 -3.221,-4.1382 -0.5333,-0.1493 -0.7253,-1.0666 -1.2372,-1.2372 -0.8319,-1.5999 -0.8319,-3.3917 -1.5572,-4.9702 -0.2986,-0.3199 -0.5759,-0.6186 -0.8532,-0.9172 -0.9813,-1.6425 -0.576,-3.4343 -1.7065,-4.9062 -0.1493,-0.3626 -0.2986,-0.7252 -0.448,-1.0879 0,-1.2798 0.128,-2.517 0.2133,-3.7756 -0.1279,-0.2773 -0.2559,-0.5332 -0.3626,-0.7892 0,-1.0879 -0.0213,-2.3038 0.384,-3.3063 0.4266,-0.4053 1.2372,-1.0026 1.3652,-1.0239 0,-0.064 0,-0.1067 0,-0.1494 0.4266,-0.3626 1.4078,-0.9599 1.5998,-1.5358 -0.0427,-3.6476 -0.4479,-7.6579 0.9172,-11.1135 1.0239,-1.6852 1.6425,-1.8345 3.541,-2.2398 1.9838,-0.1493 1.9838,-0.1493 7.5939,-0.2986 0.7466,-0.1707 1.1732,-1.5145 1.9198,-1.8772 0.1493,-0.2133 0.2986,-0.4266 0.4693,-0.6399 0,-0.4266 -0.1493,-0.9812 -0.4266,-3.2637 -0.0427,-2.8157 -0.448,-6.186 0.9385,-8.7671 0.1067,0 0.8106,-0.8319 0.8746,-0.9812 0.5759,-0.3413 1.1732,-0.6826 1.7705,-1.0239 2.5384,-0.7252 5.1408,-1.4505 7.6152,-2.3891 0.2773,-0.7039 1.6852,-3.2636 1.1306,-3.9889 -1.3652,-0.8959 -2.7091,-1.7918 -4.053,-2.6877 -0.064,-0.1493 -1.1732,-1.0666 -2.2184,-2.1758 -1.0666,-1.4292 -1.3865,-3.221 -0.7253,-4.9275 0.2134,-0.3839 0.448,-0.7679 0.6826,-1.1305 0.0427,0 0.0854,0 0.128,0 0.2133,-0.2987 1.0666,-1.7278 1.6425,-1.8558 0,-0.5973 4.0529,-3.157 4.3942,-3.2637 0,-0.064 0,-0.1067 0,-0.1493 0.2347,-0.128 0.4693,-0.256 0.7253,-0.3626 0.2346,-1.4506 0.5759,-2.9224 0.6613,-4.3943 -1.6212,-3.1996 -1.6212,-3.1996 -2.7731,-5.6954 -0.2346,-0.9812 -0.4693,-1.9624 -0.7039,-2.9223 -0.2347,-2.4744 -0.2987,-4.9702 1.0239,-7.146 2.3037,-2.5384 5.5887,-2.3464 8.8311,-2.709 1.1305,-0.064 2.2824,-0.128 3.4343,-0.1707 1.9198,-1.4931 1.9198,-1.4931 2.1118,-1.5571 0,-0.32 1.0239,-0.9386 1.2798,-1.1306 0.7893,-3.605 2.0478,-9.343 5.5461,-11.4335 0.4906,-0.128 0.4906,-0.128 1.1306,-0.4266 1.0239,-0.128 3.221,-0.6613 4.1169,-0.128 2.4531,0.2987 5.1621,1.6638 7.0393,3.2423 0.1279,0.448 2.9863,-0.1279 3.3063,-0.2346 0.256,-0.7892 0.8532,-1.4932 1.3225,-2.1971 0.0427,0 0.0853,0 0.128,0 1.6638,-2.2824 3.7756,-3.6263 6.5487,-4.4369 0.7892,0 1.5998,0 2.4104,0 1.5998,0.32 2.8797,1.0239 4.2662,1.8345 0.3626,0.32 2.1971,1.5998 2.4317,2.2611 0.0427,0 0.0854,0 0.128,0 0.1067,0.2773 0.384,0.6613 0.6613,0.7466 0.8959,1.1945 0.8959,1.1945 1.6852,2.4531 0.5759,0.1493 1.0452,0.2773 1.6425,0.2986 0.2773,0.1493 1.4291,0.4266 3.7756,1.1519 1.3012,0.4693 2.6024,0.9386 3.9036,1.4078 2.6237,1.1946 5.0554,3.0504 7.1672,4.9915 2.6451,-0.4906 4.3729,-0.064 6.6553,1.3012 1.4506,1.4505 2.8584,3.2424 3.413,5.2688 0.0427,0.7253 0.0853,1.4719 0.128,2.2185 0.9599,1.1305 1.7492,2.3677 2.5384,3.6262 0.0427,0 0.0853,0 0.1493,0 0.7466,1.3012 1.4932,2.6024 2.2611,3.925 0.7466,1.7491 1.5145,3.5409 2.0265,5.3754 0.1493,1.0666 0.1493,1.0666 0.3626,4.9062 -0.1493,1.7065 -0.2986,3.413 -0.4266,5.1194 -0.576,2.5598 -0.7253,2.8584 -0.7893,3.413 -0.5759,1.3652 -0.5759,1.3652 -0.7039,1.9198 -0.3839,0.768 -1.0452,2.6451 -1.7491,3.0717 -1.0026,1.3012 -1.2372,1.4719 -1.4932,1.7918 -1.6425,1.2586 -3.2424,2.0691 -5.1835,2.7517 -0.1066,1.0879 -0.064,2.3465 -0.6399,3.2637 -1.3439,0.6613 -1.3439,0.6613 -2.7091,1.1732 -0.9385,0.192 -1.8345,0.448 -2.773,0.5546 -0.1493,0.0427 -0.2987,0.1067 -0.448,0.1707 -0.3839,2.645 -1.6638,4.6075 -2.965,6.9113 -0.0427,0 -0.0853,0 -0.128,0 -0.3413,0.8319 -1.7491,1.8558 -2.3891,2.4744 -1.1092,0.9172 -2.3464,1.5571 -3.5836,2.2611 -0.4266,0.064 -0.4266,0.064 -1.3439,0.4266 -0.8105,0.1493 -1.6211,0.32 -2.4317,0.4906 -2.4318,0 -4.8422,0.0427 -7.2526,-0.2773 -0.7039,-0.128 -3.413,-1.0452 -4.1382,-0.7679 -0.512,2.5171 -1.5359,5.0981 -2.4745,7.5085 -1.6424,2.6451 -1.6424,2.6451 -1.7704,2.9651 -0.3413,0 -0.32,0.4693 -0.5973,0.5546 -0.7893,0.9812 -1.7492,2.1118 -2.8157,2.7944 0,0.0426 0,0.0853 0,0.1279 -0.4906,0.2347 -1.1306,0.9173 -1.4079,1.3652 -0.3413,0.32 -1.8771,1.3866 -2.0691,1.9838 -0.064,0 -0.1066,0 -0.1493,0 -0.064,0.1494 -0.2133,0.2133 -0.6613,0.7466 -0.9172,1.4079 -0.9172,1.4079 -1.3438,2.1971 -0.384,1.1093 -1.2799,2.0265 -1.5572,3.1784 -0.0427,0 -0.0853,0 -0.128,0 -0.0213,0.0853 -0.0427,0.1706 -0.0427,0.2773 -3.2423,5.994 -5.802,12.3294 -8.9377,18.3661 -0.256,0.6826 -0.5119,1.3652 -0.7679,2.0478 -0.0427,0 -0.0853,0 -0.128,0 -0.256,0.6399 -0.256,0.6399 -2.1758,4.2662 -1.5785,2.5597 -1.5785,2.5597 -1.5998,2.6877 -0.064,0 -0.1067,0 -0.1493,0 -0.8533,1.2372 -0.8533,1.2372 -1.6852,2.2824 -0.9812,0.7253 -1.8131,0.5973 -3.0077,0.5973 -2.0051,-0.7892 -4.2235,-0.0853 -6.186,0.3413 -0.7679,0.064 -1.5145,0.128 -2.2611,0.192z"/>
  <path class="fil7 str0" d="M101.623 182.921c-1.3866,-0.1279 -2.7518,-0.4052 -4.1383,-0.4692 -2.7944,0.3839 -5.1834,-0.4053 -7.7432,-1.4932 -0.5546,-0.0427 -1.0879,-0.0853 -1.6211,-0.128 -1.3012,-0.4266 -2.5171,-1.1946 -3.7117,-1.8558 -1.8558,-0.2773 -2.9223,-0.8533 -4.5222,-1.8132 -0.5119,-0.4053 -1.0025,-0.8105 -1.4931,-1.2158 -1.6639,-0.7253 -2.6664,-1.1732 -3.7756,-2.6451 -0.4053,0 -1.2373,-2.3251 -2.0052,-2.7517 -0.064,-0.1493 -0.2346,-0.2773 -0.2773,-0.4266 -0.064,0 -0.1066,0 -0.1493,0 -0.7892,-1.5785 -0.7679,-3.4343 -1.5145,-4.9489 -1.5145,-1.5145 -1.7065,-2.4317 -1.8771,-4.5008 -0.0427,-0.1493 -0.0854,-0.2987 -0.128,-0.4266 -0.2773,-0.4053 -0.5333,-0.8106 -0.7893,-1.2159 -0.4266,-1.3865 -0.6612,-3.6903 0.2347,-4.9488 0.1919,-0.1707 0.7465,-0.8746 1.0239,-0.8746 0,-0.448 0.8105,-0.704 0.9812,-1.1306 0.7679,-0.4693 1.4932,-1.1305 2.0691,-1.8558 0.0427,0 0.0853,0 0.1493,0 0.0427,-0.2346 0.192,-0.4906 0.4266,-0.5546 0,-0.1066 0,-0.2133 0,-0.32 -0.4906,0 -0.6612,0.3627 -0.9385,0.7253 -0.7679,0.6186 -1.5359,1.2585 -2.2825,1.8985 -0.1066,0.3199 -1.8131,1.9624 -2.1971,2.0264 0.064,-1.5145 -0.3839,-3.6263 1.5785,-4.0529 0,-0.3626 0.5973,-0.8319 0.9173,-0.9386 0.0426,-0.1493 0.0426,-0.1493 1.7918,-1.7704 3.029,-3.605 3.477,-4.053 3.541,-4.2023 0.0426,0 0.0853,0 0.1493,0 0.0426,-0.1706 0.0426,-0.1706 1.8345,-2.2611 0.4479,-0.3839 0.8319,-0.8319 1.2158,-1.2798 0.0427,0 0.0854,0 0.1494,0 0,-0.064 0.0213,-0.128 0.0426,-0.192 2.1545,-2.4318 4.5649,-5.0128 6.4847,-7.5512 0.4693,-0.2347 1.0239,-1.5146 1.4718,-1.3012 -0.2346,0.7252 -0.2346,0.7252 -0.2986,1.2158 0.128,0 0.256,0 0.3839,0.0214 0.8533,-0.7253 1.5572,-2.3465 1.8985,-3.3917 1.7065,-3.1143 1.8345,-3.4556 2.2611,-4.0956 0.448,-0.9172 1.1306,-1.6638 1.7065,-2.4957 0.8106,-1.3652 1.6638,-2.8157 2.2824,-4.2876 0.5973,-0.5119 0.9599,-3.2636 1.6212,-3.0503 0.0853,0.6613 0.064,3.6476 1.2799,2.0904 -0.1067,-1.2585 -0.256,-2.6664 -0.4906,-3.9036 0,-1.7064 -0.1494,-3.9889 -0.2134,-10.3456 0.064,-2.8797 0.4053,-5.8234 0.7893,-8.6817 0.2773,-0.1707 0.6399,-3.477 0.7039,-4.1169 0.1493,-0.4907 0.2773,-1.7705 0.4266,-2.1758 0.4693,-2.1545 0.896,-4.4369 1.9838,-6.3567 0.256,-0.8959 0.6826,-1.5998 1.3439,-2.2611 1.7065,-3.029 4.0743,-5.5248 6.9326,-7.4659 0.576,-0.4906 1.1519,-0.9812 1.7278,-1.4505 1.3012,-0.8959 2.8584,-2.1971 4.3943,-2.7091 0.7465,-0.6612 1.6211,-1.1305 2.581,-1.4931 1.4505,-0.768 3.2637,-1.8345 4.8849,-2.1971 2.1971,-1.4292 5.2047,-1.4932 7.5938,-2.3465 0.832,-0.0213 1.6852,-0.0853 2.4958,-0.2773 2.9223,-0.1493 2.9223,-0.1493 3.0717,-0.2346 3.3703,0 6.6339,0.0426 9.9616,0.2346 0.384,0.128 0.384,0.128 2.5597,0.3413 3.285,0.576 6.442,1.2372 9.599,2.3465 0.64,0.2986 0.64,0.2986 3.7117,1.4291 1.6851,1.0026 1.6851,1.0026 1.7491,1.1306 0.6186,0.4266 2.9864,1.7491 3.349,2.6877 -2.6451,0.7039 -3.7969,3.5196 -4.5222,5.8874 -0.064,0.5546 -0.1067,1.1306 -0.1493,1.7065 -0.0853,0.1706 -0.1493,0.3413 -0.2133,0.5119 0,3.7117 3.3276,6.9753 6.5913,8.2765 2.4744,0.2347 4.0742,-0.1066 6.2074,-1.3865 0.3626,-0.4693 0.3626,-0.4693 0.7679,-0.7893 0.5119,-0.7252 1.0665,-1.4078 1.3652,-2.2397 0.4479,-0.448 0.6612,-1.8772 0.8532,-2.4744 0.0427,0 0.0853,0 0.128,0 3.285,5.2048 3.285,5.2048 3.4343,5.3327 1.0239,2.3251 1.9411,4.5649 2.5597,7.0393 0.2134,3.5623 0.2134,3.5623 0.2134,4.8635 -0.32,1.8132 -0.064,4.1383 -0.7893,5.8234 -0.2773,2.0478 -1.3652,4.1169 -2.2398,5.9514 -0.4906,0.5546 -0.9812,1.1092 -1.4718,1.6852 -1.7492,1.4505 -4.0743,2.8583 -6.3567,3.1356 -0.064,0.0427 -0.128,0.0854 -0.192,0.1494 -6.57,2.1331 -13.4599,2.2611 -20.2219,0.9812 -3.9462,-0.4906 -7.9992,-1.4079 -11.7108,-2.901 -2.837,-0.7253 -5.4821,-2.5171 -8.2125,-3.5623 -0.2346,-0.2347 -0.5546,-0.3413 -0.8745,-0.4693 -1.9625,-1.1732 -1.9625,-1.1732 -3.285,-2.0905 0,-0.1066 0,-0.2133 0,-0.3199 0.064,-0.0214 0.128,-0.0427 0.2133,-0.0427 0.7039,-0.8746 4.1382,-4.9275 2.0264,-5.9727 -0.1066,0.064 -0.1919,0.1493 -0.2773,0.2346 0,3.1357 -2.709,5.5888 -5.2261,7.018 -0.8106,0.2559 -1.4718,0.4692 -2.1758,0.8959 0,0.0853 0,0.1706 0.0214,0.2773 1.4291,0.6186 3.285,-0.5546 4.4582,-1.4079 0.064,-0.2346 0.1919,-0.2346 0.4266,-0.256 0.2773,0.576 0.6826,0.9599 1.0026,1.4506 1.8131,1.9624 3.6262,3.8396 5.674,5.5887 1.1306,1.1519 1.1306,1.1519 1.2159,1.3225 1.4505,1.0879 2.8797,2.2185 4.2662,3.3917 2.3038,1.7918 4.9489,3.093 7.7219,3.9463 2.8584,0.5972 6.1007,1.4505 9.0017,0.7252 2.4531,-0.8746 2.4531,-0.8746 3.3917,-1.3225 1.1519,-1.0452 2.0265,-2.2824 2.5597,-3.7116 0.0214,-0.2987 0.0427,-0.5973 0.0854,-0.8746 2.0051,-0.2133 2.0051,-0.2133 2.7517,-0.192 0.0853,1.0879 0.1493,1.7918 0.7892,2.6877 0.4906,0.3413 0.4266,0.7893 0.3413,1.3439 -1.4292,3.605 -3.1996,6.3353 -6.3993,8.5964 -2.0051,1.1093 -3.6903,1.6212 -5.9087,2.0052 -1.3439,0.0213 -2.6878,0.0426 -4.0103,0.064 -4.5435,-0.32 -8.8311,-1.8345 -13.0973,-3.413 -0.4693,-0.2347 -2.7304,-1.4292 -2.9864,-1.1732 0,1.4931 4.9275,2.7517 6.2287,3.3703 0.6613,0.2133 1.3439,0.4266 2.0265,0.6612 0.0213,0.2987 0.0426,0.5973 0.064,0.9173 -0.064,0.0427 -0.1067,0.1066 -0.1493,0.1706 -0.512,2.3038 -1.5146,4.6716 -2.4105,6.8473 -0.2133,0.2347 -0.8532,1.3652 -2.1331,3.1357 -2.2184,2.4957 -4.9915,4.5435 -7.1672,7.0819 -0.4053,0.64 -0.8106,1.3012 -1.2159,1.9625 -0.2986,1.2159 -1.3652,2.7944 -2.0051,3.8823 -2.2398,4.5435 -4.4156,9.1297 -6.4634,13.7586 -2.6664,5.2687 -4.9061,10.9855 -8.6817,15.5503 -0.2773,0.064 -0.5333,0.128 -0.7893,0.2134 -2.2611,0 -4.7568,-0.6826 -6.9113,0.1493 -1.1092,0.192 -2.2184,0.2559 -3.3276,0.3199z"/>
  <path class="fil8" d="M102.69 182.43c-0.3626,-0.5333 0.5546,-1.4078 0.6613,-1.9624 0.1493,-0.192 1.5572,-3.3917 1.6425,-3.7756 0.128,-0.192 0.128,-0.192 0.2773,-0.768 0.8106,-1.5785 1.5145,-3.157 2.0478,-4.8635 1.1092,-2.773 2.1544,-5.3967 3.1357,-8.2125 0.5332,-1.0025 1.3865,-2.2397 1.6851,-3.3489 0.5333,-0.256 0.4906,-1.6425 1.0452,-2.0052 0.064,0.0214 0.128,0.0427 0.192,0.0854 0,0.1279 0,0.2559 0,0.3839 -1.1732,3.029 -3.157,5.6954 -3.8396,8.9164 -0.3626,0.4693 -0.7679,1.6639 -0.8532,2.2825 -0.1493,0.1919 -0.1493,0.1919 -1.0239,2.4317 -0.32,1.4292 -1.0666,3.1357 -1.8772,4.3516 -0.4266,1.7065 -1.4505,3.6049 -2.1544,5.1621 -0.256,0.4693 -0.448,1.0879 -0.9386,1.3225z"/>
  <path class="fil8" d="M96.0771 181.705c-0.2987,-0.448 0.064,-1.1519 0.2346,-1.5999 1.5785,-3.157 2.9437,-6.4846 4.6929,-9.5563 0.4906,-1.9198 1.5785,-4.0529 2.5597,-5.7594 0.7253,-1.7065 1.3225,-3.4557 2.2824,-5.0555 0.0854,-0.4053 0.1067,-0.7253 0.4267,-0.9599 0.7465,0.4906 -0.9386,2.9864 -1.2159,3.541 -0.9173,2.4744 -2.1118,4.8421 -3.1997,7.2526 -0.9172,2.9863 -3.0717,5.61 -3.9889,8.6391 -0.384,0.7039 -0.7679,1.4291 -1.1306,2.1544 -0.128,0.4053 -0.2986,1.1092 -0.6612,1.3439z"/>
  <path class="fil8" d="M109.217 180.724c-0.1706,-0.128 -0.1706,-0.128 -0.2559,-0.2986 1.9838,-4.6075 3.8609,-9.5137 6.25,-13.9292 0.1706,-0.5973 0.2986,-0.7893 0.8319,-2.1545 0.192,-0.0853 0.2133,-0.3839 0.2773,-0.5972 0.7679,-1.4292 1.5785,-3.0291 2.1758,-4.5436 0.1066,-0.0426 0.2133,-0.064 0.32,-0.0853 0.0426,0.448 -0.064,0.9172 -0.4053,1.2159 -0.5333,1.2372 -0.9599,2.7944 -1.7492,3.8609 -1.0879,2.6877 -1.2159,2.8157 -1.3652,3.3277 -1.0665,2.2184 -2.5597,4.6715 -3.1996,7.0392 -0.896,1.9838 -1.6425,4.4156 -2.8798,6.1647z"/>
  <path class="fil8" d="M89.1871 179.87c-0.0213,-0.1493 -0.0426,-0.2986 -0.064,-0.4266 2.0691,-4.1383 4.3516,-8.1699 6.634,-12.2014 0.128,-0.128 0.6826,-1.3866 1.8985,-3.4344 0.2986,-0.5972 0.6612,-1.7704 1.2372,-2.0477 0.5759,0.2773 -1.5359,3.5836 -1.9412,4.2022 -0.8745,1.8558 -2.2824,3.6263 -2.9863,5.5461 -0.1493,0.128 -0.2773,0.5546 -0.8533,1.5785 -1.4291,2.0478 -2.4104,4.3942 -3.5623,6.5913 -0.1279,0.064 -0.2559,0.128 -0.3626,0.192z"/>
  <path class="fil8" d="M83.4277 177.673c-0.4479,-0.6826 1.0026,-2.1331 1.3865,-2.6664 0.9813,-1.7065 2.3678,-3.2637 3.2637,-4.9915 0.4693,-0.6186 0.8959,-1.2799 1.2799,-1.9838 0.3839,-0.4479 2.5597,-3.7756 4.2662,-6.1647 0.7892,-1.6211 1.9198,-3.0717 2.6237,-4.7142 1.8772,-2.7517 3.4983,-5.6954 5.3328,-8.4684 0.9172,-1.1092 1.5358,-2.5811 2.4744,-3.733 0.064,-0.0213 0.128,-0.0213 0.2133,-0.0213 0.0854,0.1493 0.0854,0.1493 0.064,0.3413 -1.1519,1.8131 -2.3677,3.541 -3.3703,5.4181 -0.9386,1.2159 -1.8771,2.6237 -2.4744,4.0529 -2.1758,3.1784 -3.9463,6.57 -6.0794,9.791 -1.5572,1.9838 -2.709,4.4582 -4.3302,6.378 -1.3225,2.1971 -3.157,4.2876 -4.2876,6.57 -0.1279,0.064 -0.2559,0.128 -0.3626,0.192z"/>
  <path class="fil8" d="M78.5216 174.324c-0.0214,-0.1067 -0.0427,-0.192 -0.064,-0.2773 0.5759,-0.7893 1.1518,-1.5572 1.7278,-2.3251 0.1493,0 0.1493,0 0.2773,0.0853 0,0.5973 -1.4079,2.4104 -1.9411,2.5171z"/>
  <path class="fil8" d="M117.259 173.684c0,-1.2159 1.0879,-3.2637 1.5358,-4.4582 0.1067,-0.192 0.2133,-0.3627 0.3413,-0.5333 1.1519,-2.8371 2.3251,-5.6314 3.5623,-8.4045 0.1707,-0.1706 0.2347,-0.2986 0.4906,-0.2986 0,0.5119 -0.7039,2.4317 -1.0878,2.6877 -1.0239,2.5171 -2.0478,5.1195 -3.1784,7.5939 -0.1706,0.7252 -0.9172,3.2636 -1.6638,3.413z"/>
  <path class="fil8" d="M74.042 170.634c-0.0213,-0.1706 -0.0426,-0.32 -0.0426,-0.4693 0.2986,-0.2773 0.3839,-0.4906 0.5332,-0.5759 1.7705,-2.1971 3.5837,-4.3729 5.4821,-6.4847 0.2133,0.0214 0.2347,0.192 0.2347,0.384 -1.7278,2.1544 -3.6903,4.1596 -5.3328,6.378 -0.2986,0.2773 -0.512,0.7039 -0.8746,0.7679z"/>
  <path class="fil8" d="M82.2758 169.695c-0.1066,-0.1279 -0.1066,-0.1279 -0.128,-0.4906 1.4932,-1.8984 2.9864,-3.7756 4.5009,-5.6527 0.1067,0 0.2133,0 0.32,0 0.2773,0.4479 -1.8345,2.8157 -2.3464,3.2636 -0.192,0.512 -2.1118,2.8157 -2.3465,2.8797z"/>
  <path class="fil8" d="M71.4823 165.003c-0.1067,-0.1707 -0.128,-0.2773 -0.0427,-0.448 3.093,-3.157 3.9463,-3.9249 4.1169,-4.2022 2.2185,-2.1971 4.3729,-4.5649 6.57,-6.8046 0,-0.0853 0.0213,-0.1707 0.0427,-0.2347 1.9198,-1.8771 3.9036,-3.8396 5.5034,-5.994 0.1707,-0.1067 0.2133,-0.2133 0.256,-0.4053 1.9624,-2.5384 3.8609,-5.1195 5.5461,-7.8285 0.1493,-0.128 0.2986,-0.5546 0.4266,-0.704 0.0853,0 0.1706,0 0.2773,0 -0.0213,0.1707 -0.0427,0.3627 -0.064,0.5547 -1.6425,2.5597 -3.3063,5.0768 -5.1621,7.4872 -0.256,0.0853 -0.256,0.2986 -0.3413,0.4906 -0.6826,0.9172 -0.6826,0.9172 -2.1331,2.6237 -1.8985,1.9625 -3.7543,4.0316 -5.6954,5.9727 -1.9625,2.1758 -4.0316,4.5009 -6.1861,6.4847 -0.7039,0.8106 -2.1331,2.6237 -3.1143,3.0077z"/>
  <path class="fil8" d="M81.5079 161.888c-0.064,-0.0426 -0.1066,-0.0639 -0.1493,-0.0853 0.2986,-1.5785 3.0077,-2.645 3.3703,-4.1595 0.0427,-0.0214 0.1067,-0.0427 0.1707,-0.0427 0,-0.384 1.4931,-1.6425 1.8131,-2.0478 1.3865,-2.3038 3.285,-4.3515 4.7568,-6.6126 0.2774,-0.2987 0.4267,-0.64 1.5146,-2.0265 0.2773,-0.192 0.2773,-0.192 0.5972,-0.5759 0.6186,-0.9813 0.6186,-0.9813 2.3891,-3.349 0.1067,0 0.2133,0 0.3413,0.0213 0,0.1067 0,0.2133 0,0.3413 -0.2133,0.1706 -0.2133,0.1706 -2.3464,3.3277 -0.1493,0.0639 -0.1493,0.0639 -1.5572,1.8558 -1.7705,2.6877 -3.8609,5.2687 -5.7594,7.8925 -1.6425,1.7065 -3.1997,3.6903 -4.8635,5.3541 -0.1066,0.0213 -0.192,0.064 -0.2773,0.1066z"/>
  <path class="fil8" d="M89.1871 160.672c-0.5119,-0.512 1.4079,-2.4318 1.4932,-2.5598 0.5973,-0.8959 0.5973,-0.8959 1.0879,-1.4931 1.3225,-3.0931 3.5196,-5.7594 5.5034,-8.4472 1.2372,-2.0691 1.5998,-2.517 2.6237,-4.1809 0.1067,0.0214 0.2134,0.0427 0.32,0.064 0,0.1067 0,0.2347 0,0.3627 -1.7278,2.6877 -3.5623,5.3754 -5.3328,8.0205 -0.5759,0.2773 -1.7705,2.4104 -1.9838,2.7517 -0.7892,1.8131 -1.9624,3.4343 -3.1356,5.0128 -0.448,0.4266 -0.448,0.4266 -0.576,0.4693z"/>
  <path class="fil8" d="M99.7674 160.608c-0.1494,-0.0427 -0.2347,-0.1067 -0.2773,-0.256 1.2372,-2.3677 2.6024,-4.6715 3.7756,-7.0819 0.064,-0.576 0.4266,-1.0026 0.7252,-1.4932 0.1707,-0.3626 1.4719,-4.0103 2.3464,-4.0103 0,0.1494 0,0.32 0,0.4907 -1.7064,3.0716 -2.9863,6.442 -4.9061,9.343 -0.32,0.7252 -0.6399,1.4078 -1.1092,2.0478 -0.0854,0.2986 -0.3413,0.7466 -0.5546,0.9599z"/>
  <path class="fil8" d="M69.0505 160.096c-0.1066,-0.128 -0.1066,-0.128 -0.128,-0.2773 0.3413,-0.4479 1.1093,-1.5145 1.6852,-1.7278 0.0427,-0.1493 1.5358,-1.6852 2.6024,-2.9224 0.3413,-0.1279 0.8106,-0.8105 1.0239,-1.0878 2.1544,-2.0905 4.2876,-4.2663 6.4847,-6.3354 1.8344,-1.9625 3.6902,-3.9249 5.5461,-5.8874 0.1919,-0.256 1.0025,-1.9624 1.5998,-1.6212 0,0.576 -2.4744,3.3917 -2.7944,3.5197 -0.064,0.1493 -0.2133,0.2133 -2.4104,2.709 -0.1493,0.064 -0.2133,0.2134 -0.576,0.4907 -1.3438,1.7704 -3.3489,3.1143 -4.7355,4.8421 -2.3037,2.1545 -4.5008,4.5436 -6.6553,6.8473 -0.4053,0.3626 -1.1519,1.3439 -1.6425,1.4505z"/>
  <path class="fil8" d="M106.593 158.262c-0.1066,-1.2586 0.9386,-3.1784 1.7492,-4.117 0.064,0.0214 0.128,0.0427 0.192,0.0854 -0.1494,1.3225 -1.1519,2.7943 -1.7279,3.9889 -0.0853,0 -0.1493,0.0213 -0.2133,0.0427z"/>
  <path class="fil8" d="M119.819 156.683c-0.0213,-0.128 -0.0426,-0.2347 -0.064,-0.3413 0.9173,-1.9838 1.8345,-3.9463 2.7517,-5.9088 0.1494,-0.0213 0.2987,-0.0426 0.4693,-0.0426 -0.192,1.0239 -0.9172,1.9624 -1.2158,2.9863 -0.2134,0.448 -1.1733,3.1144 -1.9412,3.3064z"/>
  <path class="fil8" d="M114.209 155.404c-0.3839,-0.384 0.4053,-1.4932 0.5973,-1.8558 0.384,-1.7278 1.0666,-3.349 1.7278,-5.0128 0.1067,0.0213 0.2133,0.064 0.32,0.1066 -0.1067,0.8533 -0.512,1.9411 -0.9172,2.6877 -0.2987,1.0453 -0.7893,3.4557 -1.7279,4.0743z"/>
  <path class="fil8" d="M125.002 155.126c-0.2987,-0.9173 0.9812,-2.8797 1.5358,-3.669 0.2773,0 0.2773,0 0.3413,0.0853 0,0.2347 -1.5785,3.4984 -1.8771,3.5837z"/>
  <path class="fil8" d="M74.4686 147.938c-0.0426,-0.0427 -0.0853,-0.0853 -0.128,-0.128 0.1707,-0.7039 2.6451,-3.029 3.413,-3.029 0,0.4266 -0.3413,0.7039 -0.7039,0.8746 -0.5333,0.5119 -1.8558,2.1117 -2.5811,2.2824z"/>
  <path class="fil9" d="M70.629 146.53c-0.0213,-2.453 0.0427,-4.8208 0.1707,-7.2739 0.128,-0.3413 0.128,-0.3413 0.2773,-1.5785 0.8319,-1.6212 1.0239,-2.1971 2.8584,-2.5811 2.2824,-0.1706 4.5648,-0.3199 6.8686,-0.3413 0,0.32 -1.1092,1.5572 -1.4719,1.6212 -1.4292,-0.9599 -4.0102,-0.6826 -5.6314,-0.2346 0.0213,0.2133 0.0213,0.2133 0.1707,0.3839 0.6612,-0.064 1.3225,-0.1066 2.0051,-0.1493 1.0665,0.1493 2.1331,0.2987 3.221,0.448 0,0.128 0,0.128 -0.5546,0.8319 -2.6664,2.7944 -5.2688,5.866 -7.7646,8.8097 -0.0639,0.0214 -0.1066,0.0427 -0.1493,0.064z"/>
  <path class="fil8" d="M79.0122 143.543c-0.0214,-0.192 -0.0427,-0.3627 -0.0427,-0.5333 0.4693,-0.32 0.4693,-0.32 0.5973,-0.3413 0,-0.064 0.0213,-0.128 0.0426,-0.1707 2.2611,-2.3037 5.3328,-4.9488 7.1886,-7.7432 0.2987,0 0.2773,0.128 0.2773,0.3627 -2.1117,2.6877 -4.4795,5.2261 -6.9966,7.5299 -0.256,0.3199 -0.6612,0.8105 -1.0665,0.8959z"/>
  <path class="fil8" d="M101.111 142.754c-0.0213,-0.1706 -0.0213,-0.3199 -0.0213,-0.4693 0.5333,-0.5332 0.8106,-1.7704 1.5358,-1.7704 0,0.6826 -0.8959,2.1331 -1.5145,2.2397z"/>
  <path class="fil10" d="M133.812 141.048c-0.2986,-0.4266 0.064,-1.0879 0.5973,-0.8319 0,0.384 -0.2773,0.6826 -0.5973,0.8319z"/>
  <path class="fil10" d="M135.668 138.851c0,-0.4479 -0.0427,-0.5546 0.1706,-0.9599 0.128,0 0.256,0 0.4053,0 0,0.4693 -0.1707,0.7679 -0.5759,0.9599z"/>
  <path class="fil8" d="M88.6752 138.637c0,-0.1493 0,-0.2986 0,-0.4266 0.0426,0 0.0853,0 0.1493,0 0.8319,-1.3652 1.9411,-2.6024 2.8797,-3.8823 0.1066,0 0.2133,0 0.3413,0 0,0.1067 0,0.2133 0,0.3413 -0.6826,0.9173 -2.3038,3.669 -3.3703,3.9676z"/>
  <path class="fil10" d="M137.012 137.208c-0.1706,-0.3626 -0.0853,-0.6612 0.0213,-1.0025 0.128,-0.0214 0.256,-0.0427 0.4053,-0.064 -0.0213,0.4906 -0.064,0.7679 -0.4266,1.0665z"/>
  <path class="fil10" d="M138.163 136.077c-0.0213,-0.7893 -0.0427,-1.5572 -0.0427,-2.3251 0.7466,0 0.768,2.1971 0.0427,2.3251z"/>
  <path class="fil10" d="M139.507 134.798c-0.0427,-0.7252 -0.0854,-1.4505 -0.128,-2.1758 -0.192,-0.3413 -0.256,-0.4906 -0.256,-0.8959 0.1066,-0.0213 0.2133,-0.0213 0.3413,-0.0213 0.4479,0.9172 0.6186,2.0051 0.2773,3.029 -0.0853,0.0213 -0.1707,0.0427 -0.2346,0.064z"/>
  <path class="fil9" d="M84.9849 130.233c-0.6826,-3.1996 -0.5333,-6.7619 0.3199,-9.9189 0.8106,-0.9386 1.4292,-1.4079 2.4958,-2.0691 2.0904,-0.6613 4.1809,-1.3012 6.2927,-1.9412 -1.0026,1.9412 -1.9625,3.8823 -3.1784,5.7168 -0.7039,0.3413 -2.4957,3.9249 -3.0716,5.1194 -0.8746,1.0879 -1.8345,2.1118 -2.8584,3.093z"/>
  <path class="fil10" d="M133.044 125.625c-0.3839,-0.2559 -0.6186,-1.2585 -0.6186,-1.7491 0.128,-0.128 0.1493,-0.1493 0.3413,-0.1493 0.32,0.4479 0.512,1.2372 0.512,1.7918 -0.0854,0.0213 -0.1707,0.064 -0.2347,0.1066z"/>
  <path class="fil10" d="M131.465 125.327c-0.192,-0.2347 -0.4053,-1.0666 -0.1493,-1.3225 0.5546,0.0426 0.4266,0.7892 0.448,1.2158 -0.1067,0.0214 -0.2134,0.064 -0.2987,0.1067z"/>
  <path class="fil10" d="M130.484 125.113c-0.3413,-0.3413 -0.4053,-0.4266 -0.4053,-0.8746 0.128,0 0.2773,0 0.4266,0 0.128,0.2773 0.2773,0.5333 0.2773,0.8319 -0.1066,0 -0.2133,0.0213 -0.2986,0.0427z"/>
  <path class="fil8" d="M86.6914 120.634c-0.064,-0.0213 -0.1067,-0.0426 -0.1493,-0.064 0,-1.0665 4.2875,-2.5384 5.2261,-2.389 0.8532,0.8532 -2.0905,1.2585 -2.4958,1.4931 -0.9812,0.1494 -1.6638,0.5973 -2.581,0.9599z"/>
  <path class="fil5" d="M156.146 117.37c-1.2372,-0.2133 -2.4957,-0.4266 -3.6476,-0.9173 -0.2773,-0.8319 -0.4479,-1.6638 -0.4906,-2.5384 2.7091,0.4267 5.3114,0.9813 8.1058,1.0453 -0.2346,0.6399 -0.4693,1.2798 -0.6826,1.9198 -0.8532,0.6186 -2.3037,0.4692 -3.285,0.4906z"/>
  <path class="fil5" d="M166.939 116.794c-0.256,-1.8344 -0.256,-1.8344 -0.2347,-2.0904 1.1733,-0.2133 2.3678,-0.4266 3.5623,-0.6399 3.1571,-0.8533 3.1571,-0.8533 3.413,-1.0026 0,0.6826 -0.1066,1.3652 -0.2346,2.0478 -0.9173,0.9172 -3.7756,1.4078 -4.9275,1.6425 -0.5333,0 -1.0666,0.0213 -1.5785,0.0426z"/>
  <path class="fil9" d="M95.7144 109.84c-2.1971,-1.4719 -3.9036,-2.6664 -5.5247,-4.7142 -0.128,-0.3413 -0.128,-0.3413 -0.2773,-0.4693 -0.192,-1.1519 -0.256,-2.1331 0.1066,-3.2636 1.1519,-1.4079 1.1519,-1.4079 1.3226,-1.7492 1.5145,-1.3865 2.9863,-2.6664 4.6928,-3.8396 0.1067,-0.0213 0.2133,-0.0427 0.32,-0.0427 -0.4906,4.6502 -0.6186,9.4284 -0.2133,14.0786 -0.1494,0 -0.2987,0 -0.4267,0z"/>
  <path class="fil10" d="M173.552 106.427c0,-0.2133 -0.064,-0.256 0.064,-0.4693 0.3627,0 0.4267,0.064 0.384,0.4266 -0.1493,0 -0.2986,0.0214 -0.448,0.0427z"/>
  <path class="fil8" d="M98.6368 105.937c-0.256,-0.384 -0.0853,-0.7039 0.1067,-1.0666 0.1493,-0.0213 0.2986,-0.0426 0.4692,-0.0426 -0.0426,0.4053 -0.2559,0.8532 -0.5759,1.1092z"/>
  <path class="fil10" d="M175.685 105.723c-0.4693,-0.3627 -0.2134,-0.6826 0.2559,-0.6826 0.0214,0.1066 0.0427,0.2346 0.064,0.3626 -0.1066,0.1067 -0.2133,0.2133 -0.3199,0.32z"/>
  <path class="fil10" d="M177.477 104.358c-0.1494,-0.32 -0.2133,-0.8106 0.2346,-0.8106 0.2773,0.32 0.0427,0.6399 -0.2346,0.8106z"/>
  <path class="fil8" d="M90.595 103.164c0,-0.5119 0,-0.6826 0.192,-1.1732 0.1279,0 0.2559,0 0.4052,0 0,0.512 -0.0426,0.704 -0.2986,1.1306 -0.1066,0 -0.2133,0.0213 -0.2986,0.0426z"/>
  <path class="fil8" d="M98.6368 102.95c-0.3413,-0.5119 1.0239,-2.4317 1.5145,-2.3891 0,0.6186 -1.0025,2.1332 -1.5145,2.3891z"/>
  <path class="fil10" d="M178.821 102.374c-0.128,-0.2347 -0.128,-0.2347 -0.1706,-0.7466 0.128,0 0.256,0 0.4053,0 0.0426,0.4053 0.192,0.6399 -0.2347,0.7466z"/>
  <path class="fil8" d="M91.6615 101.521c-0.4479,-0.8959 2.6238,-3.4769 3.605,-3.2423 0,0.1493 0.0213,0.32 0.0427,0.4906 -1.5146,0.9386 -1.5146,0.9386 -1.9199,1.2799 -0.4052,0.4693 -1.1305,1.3225 -1.7278,1.4718z"/>
  <path class="fil10" d="M179.738 100.455c-0.1707,-0.2773 -0.2987,-0.576 -0.2347,-0.8959 0.5546,-0.2773 0.4693,0.4906 0.4693,0.8532 -0.0853,0 -0.1706,0.0214 -0.2346,0.0427z"/>
  <path class="fil8" d="M118.389 100.028c-0.7892,-0.448 -0.9385,-0.64 -0.8745,-1.5999 1.0452,-1.1305 2.8157,-2.5597 3.6902,-0.5546 0,1.1732 -0.8959,1.5785 -1.8558,2.1118 -0.3199,0 -0.6399,0.0213 -0.9599,0.0427z"/>
  <path class="fil8" d="M118.389 99.2386c-0.5332,-0.6399 0.6613,-1.4292 1.0453,-1.7491 1.7278,0 0.5972,1.1518 -0.256,1.6425 -0.2773,0.0213 -0.5333,0.064 -0.7893,0.1066z"/>
  <path class="fil10" d="M180.676 99.0253c-0.1066,-0.2133 -1.3438,-1.4932 -0.4906,-1.3865 0.5546,0.4906 0.6613,0.6399 0.7253,1.3438 -0.0853,0 -0.1707,0.0214 -0.2347,0.0427z"/>
  <path class="fil8" d="M99.7674 98.9613c-0.4267,-0.6399 0.0213,-0.9812 0.6399,-1.0665 -0.0427,0.4266 -0.32,0.8105 -0.6399,1.0665z"/>
  <path class="fil10" d="M181.38 97.8948c-0.192,-0.192 -0.256,-0.3627 -0.384,-0.6186 -0.3413,-0.1707 -0.7253,-0.2774 -0.5119,-0.704 0.7252,0 1.0665,0.64 1.0665,1.2799 -0.064,0 -0.128,0.0213 -0.1706,0.0427z"/>
  <path class="fil8" d="M100.194 96.2523c-0.2133,-0.3627 -0.2347,-0.512 0.1066,-0.768 0.064,0.0214 0.128,0.064 0.2133,0.1067 0,0.256 0,0.5973 -0.3199,0.6613z"/>
  <path class="fil8" d="M126.069 94.8444c-0.7892,-0.4693 -0.9599,-0.4266 -1.0452,-1.4292 0.5973,-1.0879 1.3225,-1.8558 2.6451,-1.7491 0.2559,0.1493 0.5119,0.2986 0.7892,0.4692 0.4906,1.5786 -1.0239,2.5385 -2.3891,2.7091z"/>
  <path class="fil8" d="M100.471 94.6951c-0.0853,-0.0427 -0.1707,-0.0853 -0.2347,-0.128 0,-0.4266 0.0214,-0.4053 0.4053,-0.4053 0,0.128 0,0.256 0,0.4053 -0.064,0.0427 -0.128,0.0853 -0.1706,0.128z"/>
  <path class="fil8" d="M126.005 94.0552c0,-0.896 0.7253,-2.0905 1.7279,-1.5999 0,1.0452 -0.8106,1.2586 -1.7279,1.5999z"/>
  <path class="fil8" d="M118.688 92.7753c-0.7253,-0.4053 -1.3439,-0.8319 -0.9599,-1.7492 1.3012,-1.3012 2.3677,-2.0051 3.8182,-0.5546 0,0.2773 0,0.5546 0,0.8533 -1.0452,0.9599 -1.4505,1.1305 -2.8583,1.4505z"/>
  <path class="fil10" d="M181.594 92.7753c-0.1707,-0.1067 -0.3413,-0.192 -0.512,-0.2773 -0.0213,-0.1067 -0.0213,-0.2133 -0.0213,-0.32 0.2986,0 0.4906,0.0427 0.7039,0.2133 0,0.1067 0,0.2133 0,0.3413 -0.064,0 -0.128,0.0214 -0.1706,0.0427z"/>
  <path class="fil8" d="M118.603 92.0714c-0.0639,-1.1093 0.2134,-1.1093 0.9813,-1.7492 0.3199,0.0213 0.6399,0.0427 0.9599,0.064 0.1706,0.1706 0.1493,0.2986 0.1493,0.5546 -0.6613,0.6613 -1.2585,0.7893 -2.0905,1.1306z"/>
  <path class="fil10" d="M181.167 88.4451c-0.1707,-0.128 -0.4693,-0.192 -0.5333,-0.2987 0,-0.5759 0.3626,-0.4053 0.7252,-0.192 0,0.128 0.0214,0.2774 0.0427,0.4267 -0.0853,0.0213 -0.1707,0.0426 -0.2346,0.064z"/>
  <path class="fil9" d="M97.4209 88.0824c-0.2559,-0.5119 -0.2559,-0.5119 -0.5972,-0.9812 -0.8746,-2.0051 -0.8746,-2.0051 -1.0026,-2.1544 -0.7039,-2.4105 -0.7039,-2.4105 -0.8532,-2.6664 -0.2774,-1.5999 -0.2134,-3.1997 -0.2134,-4.8209 0.128,-0.3199 0.128,-0.3199 0.2134,-1.1519 0.2773,-0.5759 0.5546,-1.1518 0.8532,-1.7064 0.6613,-0.4693 1.2799,-0.9599 2.0265,-1.3012 0.5759,-0.1494 1.1518,-0.2773 1.7491,-0.4053 5.3541,-0.576 5.5034,-0.6613 6.0154,-0.64 0,0.0854 0,0.1707 0,0.2773 -2.3464,1.7919 -3.7756,4.5862 -5.3755,6.9967 -0.6399,1.4505 -1.6638,3.0716 -1.7918,4.6715 -0.4266,0.2133 -0.8532,3.5196 -0.8745,3.8822 -0.064,0 -0.1067,0 -0.1494,0z"/>
  <path class="fil10" d="M155.356 83.027c-1.8558,-1.1093 0.1706,-2.8797 1.5358,-1.2159 -0.128,0.9599 -0.6612,1.1092 -1.5358,1.2159z"/>
  <path class="fil10" d="M170.075 80.6805c-1.1093,-0.7466 -0.448,-1.6211 0.6399,-1.7491 0.2346,0.1493 0.4906,0.2986 0.7466,0.4479 0,0.9813 -0.512,1.1732 -1.3865,1.3012z"/>
  <path class="fil5" d="M170.224 79.9126c0.0426,-0.128 0.0853,-0.256 0.1493,-0.3626 0.1067,-0.0213 0.2133,-0.0427 0.3413,-0.064 -0.064,0.1066 -0.128,0.2346 -0.192,0.3626 -0.1066,0.0213 -0.2133,0.0427 -0.2986,0.064z"/>
  <path class="fil10" d="M149.533 78.7607c-2.0905,-0.4053 -0.0213,-3.4983 1.3012,-1.3012 -0.1067,1.0026 -0.3413,1.1092 -1.3012,1.3012z"/>
  <path class="fil10" d="M154.076 77.6942c-0.6612,-0.4053 -0.7679,-0.6613 -0.5546,-1.4079 0.9812,-0.6826 1.1946,-0.5546 2.0905,0.192 0,1.0879 -0.5973,1.1519 -1.5359,1.2159z"/>
  <path class="fil5" d="M154.29 77.1396c-0.1706,-0.256 -0.2346,-0.2987 -0.0213,-0.6186 0.1493,0 0.2986,0 0.4693,0 0,0.2773 -0.192,0.4692 -0.448,0.6186z"/>
  <path class="fil10" d="M169.435 75.5611c-0.4693,-0.3413 -1.0665,-1.1093 -0.0853,-1.4292 0,-0.064 0.0213,-0.128 0.0427,-0.1707 0.8532,-0.3413 1.9411,0.5973 1.1518,1.3865 -0.2559,0.1067 -0.2559,0.1067 -1.1092,0.2134z"/>
  <path class="fil5" d="M169.648 74.8571c-0.0426,-0.064 -0.0853,-0.1066 -0.1279,-0.1493 0.1493,-0.2133 0.1493,-0.2133 0.2986,-0.2346 0.0427,0.064 0.0853,0.1493 0.1493,0.2346 -0.1066,0.0427 -0.2133,0.0853 -0.32,0.1493z"/>
  <path class="fil10" d="M173.274 74.8571c-0.8745,-0.7039 -0.4053,-1.6851 0.64,-1.6851 0.3839,0.192 0.3839,0.192 0.8106,0.5759 0,1.0239 -0.5973,1.0452 -1.4506,1.1092z"/>
  <path class="fil8" d="M98.6368 74.7078c-0.128,-0.128 -0.1493,-0.2346 -0.1066,-0.4479 1.0025,-0.6186 3.0076,-0.768 4.0529,-0.2987 0.064,0.0853 0.128,0.1707 0.2133,0.256 -0.0214,0.1706 -0.0214,0.1706 -0.1067,0.2346 -1.2159,0 -2.8797,-0.1706 -4.0529,0.256z"/>
  <path class="fil5" d="M173.424 74.1532c0,-0.1067 0.0213,-0.2133 0.0426,-0.32 0.1493,-0.0213 0.2987,-0.0426 0.448,-0.0426 -0.1493,0.2133 -0.2133,0.3199 -0.4906,0.3626z"/>
  <path class="fil8" d="M109.366 74.0039c-0.0214,-0.064 -0.0427,-0.128 -0.064,-0.192 0.3199,-0.5333 1.2372,-0.2986 1.7918,-0.2773 0,0.1067 0,0.2133 0,0.3413 -0.512,0.0853 -0.512,0.0853 -1.7278,0.128z"/>
  <path class="fil8" d="M110.796 73.0866c-0.064,-0.0426 -0.1067,-0.0639 -0.1494,-0.0853 0.0427,-0.128 0.1067,-0.2559 0.1707,-0.3839 0.6612,-0.1067 1.0879,-0.128 1.7705,0 0.0213,0.0853 0.0426,0.1706 0.0853,0.2559 -0.1707,0.1707 -1.4719,0.1494 -1.8771,0.2133z"/>
  <path class="fil10" d="M165.019 72.2334c-0.3413,-0.7039 0.7892,-1.7065 1.2585,-2.1758 0.128,0 0.256,0 0.4053,0 0,0.384 -1.5998,2.1545 -1.6638,2.1758z"/>
  <path class="fil8" d="M112.63 71.4442c-0.0213,-0.1707 -0.0213,-0.32 -0.0213,-0.4693 0.448,-0.128 1.0666,-0.128 1.4079,0.2133 -0.0214,0.064 -0.0427,0.128 -0.064,0.2133 -0.448,0 -0.8959,0.0213 -1.3226,0.0427z"/>
  <path class="fil8" d="M114.763 69.887c-0.2346,-0.1067 -0.4052,-0.1493 -0.2346,-0.448 0.4053,-0.1066 0.8532,-0.1706 1.2585,-0.0213 0,0.128 0.0214,0.256 0.0427,0.384 -0.3626,0.0213 -0.7253,0.0426 -1.0666,0.0853z"/>
  <path class="fil8" d="M116.683 68.7351c-0.0853,-0.0427 -0.1706,-0.0853 -0.2346,-0.128 0,-0.1066 0,-0.2133 0.0213,-0.32 0.6826,0 1.2159,0.3413 0.2133,0.448z"/>
  <path class="fil8" d="M118.603 67.9672c-0.1066,-0.2133 -0.1066,-0.2133 -0.1066,-0.4693 0.5546,0 0.5546,0 0.6399,0.0853 -0.0213,0.1067 -0.0426,0.2133 -0.064,0.32 -0.1706,0.0213 -0.3199,0.0426 -0.4693,0.064z"/>
  <path class="fil9" d="M111.926 67.5406c-0.0427,-0.256 0.1707,-1.5999 0.384,-1.7279 0.8105,-2.965 1.8984,-6.7406 4.9488,-8.0845 3.8183,-0.6826 7.3592,-0.0213 10.2816,2.5598 -0.1493,0.3839 -2.5811,0.8745 -2.9864,0.9599 -3.7756,1.5358 -3.7756,1.5358 -4.6928,1.8344 -2.3038,1.5359 -5.1835,2.3038 -7.3593,4.117 -0.2346,0.0853 -0.4052,0.2773 -0.5759,0.3413z"/>
  <path class="fil8" d="M120.522 66.9646c-0.1279,-0.064 -0.2559,-0.128 -0.3839,-0.192 0,-0.1066 0,-0.1919 0,-0.2773 0.2773,-0.064 0.4479,-0.0213 0.7039,0.0854 0.0213,0.0853 0.0427,0.1706 0.064,0.2773 -0.128,0.0213 -0.256,0.064 -0.384,0.1066z"/>
  <path class="fil8" d="M121.589 66.3887c-0.064,-0.2133 -0.128,-0.2133 -0.0213,-0.4266 0.2773,0 0.3413,-0.0427 0.5546,0.1066 0,0.0853 0,0.1707 0,0.2773 -0.192,0 -0.3626,0.0213 -0.5333,0.0427z"/>
  <path class="fil8" d="M123.232 65.7487c-0.1067,-0.1279 -0.1067,-0.1279 -0.1067,-0.3839 0.0854,-0.0853 0.0854,-0.0853 0.6186,-0.064 0.0854,0.1493 0.0854,0.1493 0.0854,0.3413 -0.2133,0.0213 -0.4053,0.064 -0.5973,0.1066z"/>
  <path class="fil8" d="M125.301 65.1088c-0.128,-0.2346 -0.128,-0.2346 -0.1066,-0.3413 0.1919,-0.064 0.3626,-0.1706 0.5546,-0.0427 0,0.1067 0,0.2134 0,0.3413 -0.1493,0 -0.2987,0.0214 -0.448,0.0427z"/>
  <path class="fil8" d="M124.448 60.5653c-1.1732,-0.6613 -1.9838,-1.1732 -3.3063,-1.6212 -0.0854,-0.1493 -0.0854,-0.1493 -0.0854,-0.4053 1.5359,0 2.5384,0.6613 3.7543,1.5572 0,0.3839 -0.064,0.4266 -0.3626,0.4693z"/>
  <path class="fil9" d="M149.682 60.1387c-4.3729,-0.9599 -8.9164,-0.896 -13.3746,-0.896 -1.1306,0.1494 -1.1306,0.1494 -3.477,0.256 0,-0.7252 1.7918,-2.4957 2.1331,-2.9223 1.3652,-1.0026 1.3652,-1.0026 2.5598,-1.7492 2.1331,-1.0026 3.7116,-1.0452 6.0367,-0.6399 1.0452,0.5972 2.0904,1.1732 3.0503,1.8984 0,0.0427 0,0.0854 0,0.1494 0.2773,0 0.8319,0.7039 1.0239,0.8959 1.7492,2.1757 1.7492,2.1757 2.2398,2.8797 -0.064,0.0426 -0.128,0.0853 -0.192,0.128z"/>
  <path class="fil8" d="M146.611 59.1361c-0.256,-0.128 -0.256,-0.128 -0.4479,-0.32 -0.2347,-0.9599 -1.8772,-2.1971 -2.8157,-2.6877 -0.064,-0.0853 -0.128,-0.1706 -0.192,-0.2346 0.4053,-1.2372 3.6049,2.3464 3.8396,2.773 0,0.1067 0,0.2346 0,0.3626 -0.128,0.0214 -0.256,0.064 -0.384,0.1067z"/>
  <path class="fil8" d="M118.965 58.8588c-0.128,-0.064 -0.256,-0.1067 -0.3627,-0.1493 0.0427,-0.384 0.0427,-0.384 0.128,-0.4693 1.4079,0.0213 1.4079,0.0213 1.5359,0.1066 -0.0214,0.128 -0.0427,0.256 -0.064,0.384 -0.32,0.0853 -0.32,0.0853 -1.2372,0.128z"/>
  <ellipse class="fil11 str1" cx="150.621" cy="81.1791" rx="10.3584" ry="14.5017"/>
  <ellipse class="fil6 str2" cx="155.624" cy="82.643" rx="5.00322" ry="8.45708"/>
  <ellipse class="fil11 str1" cx="169.773" cy="77.874" rx="7.98931" ry="11.185"/>
  <ellipse class="fil6 str2" cx="173.632" cy="79.0031" rx="3.85893" ry="6.52286"/>
  <path class="fil12 str2" d="M130.513 106.155c6.3957,6.0519 9.9003,10.2602 16.6322,12.8418 9.5487,3.011 14.0607,0.6453 15.933,-4.0154l-2.3007 -0.0165 -1.3053 2.4769 -3.2223 0.5336 -4.1807 -1.1586 -0.3669 -2.9437c-7.5171,-1.0022 -14.3164,-3.8188 -21.1893,-7.7181z"/>
  <path class="fil13" d="M84.4493 114.83c3.7165,0 6.6314,0.5438 8.7569,1.6261 1.6093,1.2182 2.417,2.6377 2.417,4.2529 0,2.1754 -1.16,4.5085 -3.4858,6.9939 -1.0324,0.658 -2.8056,0.4514 -5.3197,-0.62 -4.6396,-0.7342 -8.2165,0.1849 -10.7428,2.7573 -0.6073,1.55 0.0426,2.17 1.9554,1.8654 1.6093,0 4.1296,-0.3753 7.5424,-1.1203 5.3137,-0.7179 9.4128,-0.4297 12.2913,0.881 3.2976,2.2515 4.8765,5.0415 4.7368,8.3807 -0.0608,2.3549 -0.8746,4.8675 -2.4413,7.5323 -1.5425,2.0286 -3.2368,3.7743 -5.0889,5.2264 -3.6013,2.6377 -9.9837,5.0958 -19.1414,7.38 -2.4656,0.4133 -4.421,0.62 -5.8724,0.62 -3.6498,0 -6.51,-0.4568 -8.5748,-1.3705 -2.2894,-1.1366 -3.4311,-2.7247 -3.4311,-4.7641 0,-2.0721 0.2125,-3.8613 0.6376,-5.3678 0.2369,-1.3814 0.9535,-3.051 2.1559,-5.0034 1.0991,-1.2563 2.0344,-1.8817 2.7935,-1.8817 0.7955,-0.1469 3.9594,0.2665 9.4978,1.2454 3.9837,0.3589 7.8035,-0.0544 11.4593,-1.2454 4.3906,-1.8491 6.5283,-3.2631 6.425,-4.2529 0,-0.8702 -0.9838,-1.1638 -2.9392,-0.8756 -2.1923,0.2556 -5.9635,1.0877 -11.3136,2.5017 -1.8886,0.4133 -3.7469,0.62 -5.5869,0.62 -2.7753,0.1577 -4.9008,-0.6146 -6.3704,-2.3277 -1.2328,-2.0068 -1.9007,-4.3562 -2.01,-7.0428 0,-5.4711 2.6963,-9.6424 8.095,-12.5194 0.9108,-0.843 3.2913,-1.7566 7.1354,-2.741 2.502,-0.5003 4.6396,-0.7505 6.419,-0.7505z"/>
  <path class="fil13" d="M116.939 130.46c4.4939,0.4786 7.5242,2.9748 9.091,7.4888 1.1721,5.7756 0.9353,10.741 -0.7105,14.896 -2.1012,4.1822 -5.0162,6.1781 -8.7387,5.9714 -4.506,-0.2284 -7.8703,-3.0074 -10.0869,-8.3317 -1.4453,-6.3304 -0.9838,-11.3066 1.3906,-14.9287 2.581,-3.2522 5.5991,-4.949 9.0545,-5.0958zm-0.6801 10.9259c-1.3725,0.5765 -2.0648,2.1047 -2.0768,4.5901 0.1275,2.382 1.0991,3.6383 2.9148,3.7743 1.7672,-0.2012 2.6721,-1.8491 2.7024,-4.9545 -0.4372,-2.4962 -1.6153,-3.6329 -3.5404,-3.4099z"/>
  <path class="fil13" d="M147.181 116.63c2.8724,-0.1523 5.0161,0.1577 6.425,0.9246 0.832,0.6145 1.2935,1.4901 1.3906,2.6268 0.1762,2.1482 -0.2307,4.7097 -1.2145,7.6954 -0.7105,2.5289 -1.6579,3.8341 -2.8421,3.9212l-1.4817 -0.2883c-3.5465,-0.3807 -6.6861,0.5656 -9.425,2.8498 -1.591,1.637 -2.3076,3.399 -2.1557,5.2916 0.3096,2.1373 1.6699,3.4154 4.0748,3.8396 1.8643,0.0544 3.8562,-1.0279 5.9755,-3.2522l0.3765 -0.0109c0.9353,0.0707 1.9677,1.9089 3.0972,5.5092l-0.0183 0.3209c-1.1173,2.2406 -2.6052,4.0244 -4.4695,5.3514 -2.8785,2.3168 -5.8845,3.4643 -9.018,3.4426 -2.7875,0.0326 -5.3016,-1.8165 -7.5424,-5.5473 -0.9474,-2.1101 -1.5607,-4.775 -1.834,-7.9945 -0.164,-3.3175 0.3826,-6.5697 1.6396,-9.7676 1.0446,-2.6159 2.2166,-4.7314 3.5223,-6.3575 4.1598,-5.1013 8.6658,-7.9511 13.4997,-8.5548z"/>
  <path class="fil13" d="M169.62 107.689c3.4858,0 5.587,2.3766 6.2975,7.1352 0.4615,10.8389 0.7409,17.2999 0.832,19.3937 0.0242,0.1686 0.1214,0.2556 0.2854,0.2556 0.4311,-0.1904 1.6882,-1.4031 3.7712,-3.6329 2.1376,-3.1652 3.674,-5.2917 4.6092,-6.3739 0.5223,-0.5004 1.0809,-0.7505 1.6761,-0.7505 1.4696,0 3.1942,1.4575 5.174,4.3671 0.6194,1.414 0.9837,2.6648 1.1052,3.758 0,2.1373 -0.9717,3.5567 -2.921,4.2583 -3.4615,1.0279 -6.6436,2.567 -9.5525,4.6173 1.4697,-0.6255 3.2551,-1.0388 5.3562,-1.24l1.1175 0c2.921,0 4.9188,1.0387 5.9998,3.1217 0.3522,0.8375 0.4979,1.637 0.4251,2.3875 -0.3643,2.3494 -1.9979,5.4765 -4.8946,9.3868l-0.9777 1.24 0 0.1305c2.8846,-0.756 4.6578,-1.1312 5.3197,-1.1312 0.7955,0.0761 1.1235,0.5384 0.9777,1.3868 -0.5404,3.3229 -1.9432,5.9878 -4.1963,7.9946 -2.7874,2.3168 -5.8603,3.4045 -9.2184,3.2685 -1.5485,-0.1251 -2.8057,-0.9028 -3.7712,-2.3277 -0.3158,-0.7287 -0.3644,-1.501 -0.1397,-2.3059 0,-1.4466 1.0203,-3.7852 3.0607,-7.0156 2.0951,-3.758 3.0789,-6.2162 2.9332,-7.3746 -0.5892,-0.756 -1.3786,-1.1312 -2.3624,-1.1312 -2.9817,0.3589 -4.4695,0.7396 -4.4695,1.1312 -0.5708,6.3739 -1.2693,10.964 -2.1012,13.7648 -1.4089,3.6655 -2.9453,5.4983 -4.6032,5.4983 -2.2105,0 -4.7671,-0.707 -7.6881,-2.121 -1.0203,-0.5058 -1.7672,-1.4684 -2.2408,-2.8824l-0.1459 -0.62c2.0284,-6.7437 3.0547,-14.1292 3.079,-22.1455 0,-6.6513 -0.9291,-13.2427 -2.7935,-19.7743 -0.5526,-1.4467 -0.9291,-2.8661 -1.1174,-4.2529 0,-2.2842 2.3744,-4.4976 7.1355,-6.6295 1.5304,-0.7995 2.8724,-1.2618 4.0384,-1.3868z"/>
  <path class="fil14 str3" d="M84.4493 114.83c3.7165,0 6.6314,0.5438 8.7569,1.6261 1.6093,1.2182 2.417,2.6377 2.417,4.2529 0,2.1754 -1.16,4.5085 -3.4858,6.9939 -1.0324,0.658 -2.8056,0.4514 -5.3197,-0.62 -4.6396,-0.7342 -8.2165,0.1849 -10.7428,2.7573 -0.6073,1.55 0.0426,2.17 1.9554,1.8654 1.6093,0 4.1296,-0.3753 7.5424,-1.1203 5.3137,-0.7179 9.4128,-0.4297 12.2913,0.881 3.2976,2.2515 4.8765,5.0415 4.7368,8.3807 -0.0608,2.3549 -0.8746,4.8675 -2.4413,7.5323 -1.5425,2.0286 -3.2368,3.7743 -5.0889,5.2264 -3.6013,2.6377 -9.9837,5.0958 -19.1414,7.38 -2.4656,0.4133 -4.421,0.62 -5.8724,0.62 -3.6498,0 -6.51,-0.4568 -8.5748,-1.3705 -2.2894,-1.1366 -3.4311,-2.7247 -3.4311,-4.7641 0,-2.0721 0.2125,-3.8613 0.6376,-5.3678 0.2369,-1.3814 0.9535,-3.051 2.1559,-5.0034 1.0991,-1.2563 2.0344,-1.8817 2.7935,-1.8817 0.7955,-0.1469 3.9594,0.2665 9.4978,1.2454 3.9837,0.3589 7.8035,-0.0544 11.4593,-1.2454 4.3906,-1.8491 6.5283,-3.2631 6.425,-4.2529 0,-0.8702 -0.9838,-1.1638 -2.9392,-0.8756 -2.1923,0.2556 -5.9635,1.0877 -11.3136,2.5017 -1.8886,0.4133 -3.7469,0.62 -5.5869,0.62 -2.7753,0.1577 -4.9008,-0.6146 -6.3704,-2.3277 -1.2328,-2.0068 -1.9007,-4.3562 -2.01,-7.0428 0,-5.4711 2.6963,-9.6424 8.095,-12.5194 0.9108,-0.843 3.2913,-1.7566 7.1354,-2.741 2.502,-0.5003 4.6396,-0.7505 6.419,-0.7505z"/>
  <path class="fil14 str3" d="M116.939 130.46c4.4939,0.4786 7.5242,2.9748 9.091,7.4888 1.1721,5.7756 0.9353,10.741 -0.7105,14.896 -2.1012,4.1822 -5.0162,6.1781 -8.7387,5.9714 -4.506,-0.2284 -7.8703,-3.0074 -10.0869,-8.3317 -1.4453,-6.3304 -0.9838,-11.3066 1.3906,-14.9287 2.581,-3.2522 5.5991,-4.949 9.0545,-5.0958zm-0.6801 10.9259c-1.3725,0.5765 -2.0648,2.1047 -2.0768,4.5901 0.1275,2.382 1.0991,3.6383 2.9148,3.7743 1.7672,-0.2012 2.6721,-1.8491 2.7024,-4.9545 -0.4372,-2.4962 -1.6153,-3.6329 -3.5404,-3.4099z"/>
  <path class="fil14 str3" d="M147.181 116.63c2.8724,-0.1523 5.0161,0.1577 6.425,0.9246 0.832,0.6145 1.2935,1.4901 1.3906,2.6268 0.1762,2.1482 -0.2307,4.7097 -1.2145,7.6954 -0.7105,2.5289 -1.6579,3.8341 -2.8421,3.9212l-1.4817 -0.2883c-3.5465,-0.3807 -6.6861,0.5656 -9.425,2.8498 -1.591,1.637 -2.3076,3.399 -2.1557,5.2916 0.3096,2.1373 1.6699,3.4154 4.0748,3.8396 1.8643,0.0544 3.8562,-1.0279 5.9755,-3.2522l0.3765 -0.0109c0.9353,0.0707 1.9677,1.9089 3.0972,5.5092l-0.0183 0.3209c-1.1173,2.2406 -2.6052,4.0244 -4.4695,5.3514 -2.8785,2.3168 -5.8845,3.4643 -9.018,3.4426 -2.7875,0.0326 -5.3016,-1.8165 -7.5424,-5.5473 -0.9474,-2.1101 -1.5607,-4.775 -1.834,-7.9945 -0.164,-3.3175 0.3826,-6.5697 1.6396,-9.7676 1.0446,-2.6159 2.2166,-4.7314 3.5223,-6.3575 4.1598,-5.1013 8.6658,-7.9511 13.4997,-8.5548z"/>
  <path class="fil14 str3" d="M169.62 107.689c3.4858,0 5.587,2.3766 6.2975,7.1352 0.4615,10.8389 0.7409,17.2999 0.832,19.3937 0.0242,0.1686 0.1214,0.2556 0.2854,0.2556 0.4311,-0.1904 1.6882,-1.4031 3.7712,-3.6329 2.1376,-3.1652 3.674,-5.2917 4.6092,-6.3739 0.5223,-0.5004 1.0809,-0.7505 1.6761,-0.7505 1.4696,0 3.1942,1.4575 5.174,4.3671 0.6194,1.414 0.9837,2.6648 1.1052,3.758 0,2.1373 -0.9717,3.5567 -2.921,4.2583 -3.4615,1.0279 -6.6436,2.567 -9.5525,4.6173 1.4697,-0.6255 3.2551,-1.0388 5.3562,-1.24l1.1175 0c2.921,0 4.9188,1.0387 5.9998,3.1217 0.3522,0.8375 0.4979,1.637 0.4251,2.3875 -0.3643,2.3494 -1.9979,5.4765 -4.8946,9.3868l-0.9777 1.24 0 0.1305c2.8846,-0.756 4.6578,-1.1312 5.3197,-1.1312 0.7955,0.0761 1.1235,0.5384 0.9777,1.3868 -0.5404,3.3229 -1.9432,5.9878 -4.1963,7.9946 -2.7874,2.3168 -5.8603,3.4045 -9.2184,3.2685 -1.5485,-0.1251 -2.8057,-0.9028 -3.7712,-2.3277 -0.3158,-0.7287 -0.3644,-1.501 -0.1397,-2.3059 0,-1.4466 1.0203,-3.7852 3.0607,-7.0156 2.0951,-3.758 3.0789,-6.2162 2.9332,-7.3746 -0.5892,-0.756 -1.3786,-1.1312 -2.3624,-1.1312 -2.9817,0.3589 -4.4695,0.7396 -4.4695,1.1312 -0.5708,6.3739 -1.2693,10.964 -2.1012,13.7648 -1.4089,3.6655 -2.9453,5.4983 -4.6032,5.4983 -2.2105,0 -4.7671,-0.707 -7.6881,-2.121 -1.0203,-0.5058 -1.7672,-1.4684 -2.2408,-2.8824l-0.1459 -0.62c2.0284,-6.7437 3.0547,-14.1292 3.079,-22.1455 0,-6.6513 -0.9291,-13.2427 -2.7935,-19.7743 -0.5526,-1.4467 -0.9291,-2.8661 -1.1174,-4.2529 0,-2.2842 2.3744,-4.4976 7.1355,-6.6295 1.5304,-0.7995 2.8724,-1.2618 4.0384,-1.3868z"/>
  <path class="fil15" d="M110.898 170.063c0,0.513 -0.2514,0.9245 -0.7543,1.2345 -0.5028,0.3099 -1.1539,0.4649 -1.9533,0.4649 -0.5931,0 -1.0895,-0.1016 -1.4892,-0.3046 -0.3997,-0.2031 -0.7285,-0.5932 -0.9863,-1.1704 -0.2063,-0.4489 -0.5544,-0.8604 -1.0444,-1.2345 -0.4899,-0.374 -1.0702,-0.5611 -1.7407,-0.5611 -0.6703,0 -1.2442,0.1657 -1.7211,0.497 -0.4771,0.3313 -0.8833,0.7535 -1.2186,1.2666 -0.3352,0.513 -0.5995,1.0955 -0.7929,1.7475 -0.1934,0.6519 -0.3416,1.2986 -0.4448,1.9399 -0.1031,0.6413 -0.174,1.2451 -0.2127,1.8116 -0.0386,0.5665 -0.0581,1.0314 -0.0581,1.3948 0,0.342 0.0195,0.7482 0.0581,1.2185 0.0387,0.4702 0.1225,0.9565 0.2514,1.4589 0.1289,0.5023 0.2966,1.0047 0.5029,1.507 0.2063,0.5024 0.477,0.9459 0.8122,1.3307 0.3352,0.3848 0.7414,0.7001 1.2185,0.9459 0.477,0.2458 1.0379,0.3687 1.6826,0.3687 0.9541,0 1.7019,-0.2031 2.2434,-0.6092 0.5415,-0.4062 0.8768,-0.9299 1.0057,-1.5712 0.129,-0.7481 0.3739,-1.2825 0.7349,-1.6032 0.3611,-0.3206 1.0314,-0.4809 2.0113,-0.4809 0.8768,0 1.5087,0.2244 1.8954,0.6733 0.3868,0.4489 0.5803,0.9192 0.5803,1.4108 0,0.8765 -0.2128,1.6674 -0.6383,2.3728 -0.4255,0.7054 -1.0121,1.304 -1.7599,1.7956 -0.7478,0.4917 -1.644,0.8711 -2.6883,1.1383 -1.0443,0.2672 -2.1726,0.4008 -3.3845,0.4008 -2.1919,0 -3.9842,-0.326 -5.3766,-0.978 -1.3925,-0.6519 -2.4755,-1.4963 -3.2491,-2.533 -0.7737,-1.0368 -1.3023,-2.1911 -1.5859,-3.463 -0.2837,-1.2719 -0.4255,-2.5277 -0.4255,-3.7676 0,-0.7909 0.0579,-1.6353 0.174,-2.5331 0.116,-0.8978 0.3159,-1.7795 0.5995,-2.6453 0.2838,-0.8657 0.677,-1.6994 1.1798,-2.501 0.5028,-0.8016 1.1411,-1.5017 1.9147,-2.1002 0.7736,-0.5985 1.7148,-1.0795 2.8237,-1.4429 1.1088,-0.3634 2.3982,-0.5451 3.8679,-0.5451 1.5731,0 3.0107,0.2298 4.3129,0.6894 1.3023,0.4596 2.3273,1.2024 3.0751,2.2285 0.1547,0.2565 0.2901,0.5557 0.4061,0.8978 0.1161,0.342 0.1741,0.7588 0.1741,1.2505z"/>
  <path class="fil15" d="M112.639 176.604c0,-0.8123 0.0644,-1.6673 0.1933,-2.5651 0.129,-0.8978 0.3482,-1.7796 0.6576,-2.6454 0.3094,-0.8657 0.7092,-1.6887 1.1991,-2.4689 0.49,-0.7802 1.083,-1.4643 1.7793,-2.0521 0.6962,-0.5879 1.5215,-1.0582 2.4756,-1.4109 0.954,-0.3527 2.0371,-0.529 3.2491,-0.529 1.8308,0 3.3652,0.3794 4.603,1.1383 1.2377,0.7588 2.2305,1.7154 2.9783,2.8697 0.7478,1.1543 1.2829,2.4262 1.6052,3.8157 0.3224,1.3894 0.4835,2.7148 0.4835,3.976 0,0.6199 -0.058,1.3253 -0.174,2.1162 -0.1161,0.7909 -0.3159,1.5925 -0.5996,2.4048 -0.2836,0.8123 -0.6639,1.6033 -1.141,2.3728 -0.477,0.7696 -1.0766,1.4536 -1.7987,2.0521 -0.722,0.5986 -1.5729,1.0795 -2.5528,1.4429 -0.9799,0.3634 -2.1275,0.5451 -3.4426,0.5451 -1.2894,0 -2.4239,-0.1763 -3.4038,-0.529 -0.9799,-0.3527 -1.8245,-0.823 -2.5336,-1.4109 -0.7092,-0.5878 -1.2958,-1.2665 -1.76,-2.0361 -0.4642,-0.7695 -0.8316,-1.5658 -1.1023,-2.3888 -0.2709,-0.8229 -0.4577,-1.6406 -0.5609,-2.4529 -0.1032,-0.8123 -0.1547,-1.5605 -0.1547,-2.2445zm5.918 0.0962c0,0.5344 0.0387,1.2291 0.116,2.0842 0.0775,0.855 0.245,1.678 0.5029,2.4689 0.2578,0.791 0.6254,1.475 1.1024,2.0522 0.4771,0.5771 1.1023,0.8657 1.876,0.8657 0.5415,0 1.0057,-0.1336 1.3925,-0.4008 0.3868,-0.2672 0.722,-0.6146 1.0056,-1.0421 0.2838,-0.4275 0.5159,-0.9138 0.6963,-1.4589 0.1805,-0.5451 0.3224,-1.0902 0.4255,-1.6353 0.1031,-0.5451 0.1741,-1.0742 0.2128,-1.5872 0.0386,-0.513 0.0579,-0.9512 0.0579,-1.3146 0,-0.5558 -0.0386,-1.2986 -0.1159,-2.2285 -0.0775,-0.9299 -0.245,-1.8491 -0.5029,-2.7575 -0.2578,-0.9085 -0.6318,-1.6941 -1.1217,-2.3568 -0.49,-0.6626 -1.1605,-0.994 -2.0114,-0.994 -0.5415,0 -1.0121,0.155 -1.4118,0.465 -0.3998,0.3099 -0.735,0.7107 -1.0057,1.2024 -0.2708,0.4916 -0.4835,1.0474 -0.6383,1.6673 -0.1546,0.6199 -0.2772,1.2345 -0.3674,1.8437 -0.0903,0.6092 -0.1483,1.1918 -0.1741,1.7475 -0.0258,0.5558 -0.0387,1.0154 -0.0387,1.3788z"/>
  <path class="fil15" d="M133.72 166.183c0,-0.6627 0.2643,-1.2452 0.793,-1.7475 0.5286,-0.5024 1.3344,-0.7535 2.4174,-0.7535 0.9799,0 1.773,0.2244 2.3789,0.6733 0.606,0.4489 0.909,1.0154 0.909,1.6994 0,0.3207 -0.0773,0.6306 -0.2321,0.9299 -0.1547,0.2993 -0.3674,0.5665 -0.6381,0.8016 -0.2709,0.2351 -0.6061,0.4222 -1.0058,0.5611 -0.3996,0.139 -0.8574,0.2084 -1.3731,0.2084 -0.9541,0 -1.7343,-0.2244 -2.3402,-0.6733 -0.6059,-0.4489 -0.909,-1.0154 -0.909,-1.6994zm3.1718 3.2385c1.1088,0 1.876,0.2351 2.3015,0.7054 0.4255,0.4703 0.6382,1.1329 0.6382,1.988 0,0.684 -0.0065,1.2612 -0.0194,1.7315 -0.0129,0.4702 -0.0257,0.8924 -0.0386,1.2665 -0.0129,0.3741 -0.0258,0.7322 -0.0387,1.0742 -0.0129,0.342 -0.0193,0.7268 -0.0193,1.1543l0 1.9239 -0.0387 3.3667 0 1.9239c0,1.7956 -1.0057,2.6934 -3.0171,2.6934 -0.6446,0 -1.1539,-0.1283 -1.5279,-0.3848 -0.3738,-0.2565 -0.651,-0.5878 -0.8315,-0.994 -0.1806,-0.4061 -0.2901,-0.8443 -0.3289,-1.3146 -0.0387,-0.4703 -0.058,-0.9085 -0.058,-1.3147 0,-0.9191 0,-1.694 0,-2.3246 0,-0.6306 0.0129,-1.2131 0.0387,-1.7475l0.0774 -2.0201c0.0258,-0.5344 0.0387,-1.1169 0.0387,-1.7475 0,-0.6306 0,-1.4055 0,-2.3247 0,-0.4489 0.0193,-0.8924 0.058,-1.3306 0.0386,-0.4383 0.1483,-0.8284 0.3287,-1.1704 0.1805,-0.342 0.4577,-0.6199 0.8317,-0.8337 0.3739,-0.2137 0.9089,-0.3206 1.6052,-0.3206z"/>
  <path class="fil15" d="M144.627 187.249c-0.6188,0 -1.1023,-0.0748 -1.4505,-0.2245 -0.3481,-0.1496 -0.5995,-0.3527 -0.7542,-0.6092 -0.1548,-0.2565 -0.2515,-0.5611 -0.2901,-0.9138 -0.0387,-0.3527 -0.058,-0.7322 -0.058,-1.1383l0 -4.3608 0.116 -8.7535 0 -4.3608c0,-0.3206 0.0837,-0.5879 0.2514,-0.8016 0.1676,-0.2138 0.3868,-0.3955 0.6576,-0.5451 0.2707,-0.1496 0.5737,-0.2565 0.909,-0.3207 0.3352,-0.0641 0.6704,-0.0961 1.0057,-0.0961 0.7478,0 1.328,0.0961 1.7406,0.2885 0.4126,0.1924 0.7864,0.5665 1.1216,1.1223 0.49,0.8123 1.0187,1.7315 1.586,2.7575 0.5673,1.0261 1.1411,2.0735 1.7212,3.1423 0.5802,1.0689 1.154,2.1163 1.7213,3.1423 0.5673,1.0261 1.0959,1.956 1.586,2.7897 0,-0.8123 -0.013,-1.7208 -0.0388,-2.7255 -0.0258,-1.0047 -0.0451,-2.0308 -0.058,-3.0782 -0.0129,-1.0474 -0.0322,-2.0788 -0.058,-3.0942 -0.0258,-1.0154 -0.0387,-1.9292 -0.0387,-2.7415 0,-0.2993 0.0902,-0.5505 0.2708,-0.7535 0.1804,-0.2031 0.4062,-0.3634 0.6769,-0.481 0.2708,-0.1176 0.5673,-0.2031 0.8896,-0.2565 0.3224,-0.0535 0.6254,-0.0802 0.909,-0.0802 0.8251,0 1.4892,0.1229 1.992,0.3688 0.5029,0.2458 0.7543,0.7321 0.7543,1.4589 0,1.4536 -0.0065,3.0301 -0.0194,4.7295 -0.0128,1.6994 -0.0257,3.3774 -0.0386,5.0341 -0.0129,1.6567 -0.0258,3.2171 -0.0387,4.6814 -0.0129,1.4643 -0.0193,2.6881 -0.0193,3.6714 0,0.6413 -0.1999,1.1596 -0.5996,1.5551 -0.3996,0.3955 -1.0379,0.5932 -1.9147,0.5932 -0.49,0 -0.9282,-0.0588 -1.3151,-0.1764 -0.3867,-0.1175 -0.7091,-0.2618 -0.967,-0.4328 -0.4126,-0.3207 -0.9283,-0.9085 -1.5472,-1.7636 -0.6189,-0.855 -1.2635,-1.817 -1.934,-2.8858 -0.6705,-1.0688 -1.3603,-2.1804 -2.0694,-3.3347 -0.7092,-1.1543 -1.3731,-2.2124 -1.9921,-3.1743 0.0258,1.3467 0.0323,2.7789 0.0194,4.2966 -0.0129,1.5177 -0.0194,2.9499 -0.0194,4.2966 0,0.4489 -0.0193,0.8658 -0.058,1.2505 -0.0386,0.3848 -0.1483,0.7215 -0.3287,1.0101 -0.1805,0.2885 -0.4513,0.513 -0.8124,0.6733 -0.3609,0.1603 -0.8638,0.2405 -1.5085,0.2405z"/>
 </g>
</svg>
