<?xml version="1.0" encoding="UTF-8"?>
<!DOCTYPE svg PUBLIC "-//W3C//DTD SVG 1.1//EN" "http://www.w3.org/Graphics/SVG/1.1/DTD/svg11.dtd">
<!-- Creator: CorelDRAW -->
<svg xmlns="http://www.w3.org/2000/svg" xml:space="preserve" width="115mm" height="105mm" style="shape-rendering:geometricPrecision; text-rendering:geometricPrecision; image-rendering:optimizeQuality; fill-rule:evenodd; clip-rule:evenodd"
viewBox="0 0 115 105">
 <defs>
  <style type="text/css">
   <![CDATA[
    .fil0 {fill:#FFFFFF}
   ]]>
  </style>
 </defs>
 <g id="Capa_x0020_1">
  <metadata id="CorelCorpID_0Corel-Layer"/>
  <path class="fil0" d="M70.7017 28.4979c5.4892,-4.0559 10.3226,-5.7696 14.5002,-5.141 1.2766,4.3061 1.6105,8.6122 0.2636,12.9184 11.9602,15.5009 3.3897,39.9808 -18.1911,39.4141 4.8053,4.4337 4.1935,13.653 3.6376,23.2151 -0.2421,3.4382 2.7661,3.9768 5.3543,2.4073 56.7558,-26.3768 33.0457,-100.452 -17.716,-99.4054 -65.6435,1.6308 -65.0959,83.4084 -19.336,99.3538 1.8038,0.586 4.6349,1.9061 6.0495,-1.003l-0.0957 -8.9577c-9.8264,1.0021 -15.0406,-1.349 -17.62,-8.5471 -1.7779,-3.2737 -4.2182,-5.5535 -6.9598,-7.3816 -1.2774,-1.574 -0.221,-2.7602 2.6997,-2.1094 3.7283,1.2699 6.3785,3.0348 7.6345,6.3275 3.5356,4.6716 8.3474,5.6423 14.1304,3.7962 0.7657,-3.2882 2.0312,-5.8893 3.7962,-7.8034 -22.7081,0.7485 -29.4215,-23.9373 -18.5593,-38.8059 -1.3286,-5.4717 -1.1174,-10.0039 0.8651,-13.4551 4.7199,-0.2947 9.1067,1.6098 13.2653,5.0191 8.4669,-2.1215 17.1775,-2.4372 26.2815,0.1581z"/>
 </g>
</svg>
