<?xml version="1.0" encoding="UTF-8"?>
<!DOCTYPE svg PUBLIC "-//W3C//DTD SVG 1.1//EN" "http://www.w3.org/Graphics/SVG/1.1/DTD/svg11.dtd">
<!-- Creator: CorelDRAW 2020 (64-Bit) -->
<svg xmlns="http://www.w3.org/2000/svg" xml:space="preserve" width="31.1484mm" height="33.469mm" version="1.1" style="shape-rendering:geometricPrecision; text-rendering:geometricPrecision; image-rendering:optimizeQuality; fill-rule:evenodd; clip-rule:evenodd"
viewBox="0 0 359.74 386.55"
 xmlns:xlink="http://www.w3.org/1999/xlink"
 xmlns:xodm="http://www.corel.com/coreldraw/odm/2003">
 <defs>
  <style type="text/css">
   <![CDATA[
    .str1 {stroke:#FEFEFE;stroke-width:16.3;stroke-linejoin:bevel;stroke-miterlimit:22.9256}
    .str0 {stroke:#3E4095;stroke-width:32.59;stroke-linejoin:bevel;stroke-miterlimit:22.9256}
    .str2 {stroke:dodgerblue;stroke-width:4.07;stroke-linejoin:bevel;stroke-miterlimit:22.9256}
    .fil0 {fill:dodgerblue}
    .fil1 {fill:#0068C5}
   ]]>
  </style>
 </defs>
 <g id="Capa_x0020_1">
  <metadata id="CorelCorpID_0Corel-Layer"/>
  <path class="fil0 str0" d="M16.62 197.58l224.43 28.09c-30.11,57.97 -93.36,60.66 -121.66,4.34l-102.66 -0.86 0.18 48.59 119.23 60.96 0.04 11.07 44.91 22.17 43.62 -22.49 -0.04 -11.07 118.78 -61.83 -0.32 -87.57 -224.43 -28.09c26.38,-70.8 96.64,-71.21 121.66,-4.34l102.66 -0.37 -0.17 -47.35 -119.23 -60.96 -0.04 -11.07 -44.91 -22.17 -43.62 22.49 0.04 11.07 -118.78 61.83 0.32 87.57z"/>
  <path class="fil0 str1" d="M16.62 197.58l224.43 28.09c-30.11,57.97 -93.36,60.66 -121.66,4.34l-102.66 -0.86 0.18 48.59 119.23 60.96 0.04 11.07 44.91 22.17 43.62 -22.49 -0.04 -11.07 118.78 -61.83 -0.32 -87.57 -224.43 -28.09c26.38,-70.8 96.64,-71.21 121.66,-4.34l102.66 -0.37 -0.17 -47.35 -119.23 -60.96 -0.04 -11.07 -44.91 -22.17 -43.62 22.49 0.04 11.07 -118.78 61.83 0.32 87.57z"/>
  <path class="fil0 str2" d="M16.62 197.58l224.43 28.09c-30.11,57.97 -93.36,60.66 -121.66,4.34l-102.66 -0.86 0.18 48.59 119.23 60.96 0.04 11.07 44.91 22.17 43.62 -22.49 -0.04 -11.07 118.78 -61.83 -0.32 -87.57 -224.43 -28.09c26.38,-70.8 96.64,-71.21 121.66,-4.34l102.66 -0.37 -0.17 -47.35 -119.23 -60.96 -0.04 -11.07 -44.91 -22.17 -43.62 22.49 0.04 11.07 -118.78 61.83 0.32 87.57z"/>
  <path class="fil1" d="M180.27 23.39l-0.5 77.16c25.11,3.38 50.25,13.26 63.63,48.9l93.43 0.61 -0.61 -37.89 -119.18 -59.28 0 -12.83 -36.78 -16.65z"/>
  <path class="fil1" d="M179.88 171.86l-0.3 43.39 65.09 7.64c-10.61,32.43 -33.6,48.36 -64.78,52.25l0 91.67 39.42 -19.86 0.46 -13.14 117.65 -60.05 -0.15 -79.6 -157.37 -22.31z"/>
 </g>
</svg>
