<?xml version="1.0" encoding="UTF-8"?>
<!DOCTYPE svg PUBLIC "-//W3C//DTD SVG 1.1//EN" "http://www.w3.org/Graphics/SVG/1.1/DTD/svg11.dtd">
<!-- Creator: CorelDRAW -->
<svg xmlns="http://www.w3.org/2000/svg" xml:space="preserve" width="520mm" height="520mm" style="shape-rendering:geometricPrecision; text-rendering:geometricPrecision; image-rendering:optimizeQuality; fill-rule:evenodd; clip-rule:evenodd"
viewBox="0 0 520 520">
 <defs>
  <style type="text/css">
   <![CDATA[
    .str6 {stroke:#1F1A17;stroke-width:0.0762}
    .str3 {stroke:#00923F;stroke-width:2.8222}
    .str7 {stroke:#0A0B0C;stroke-width:2.8222}
    .str5 {stroke:#1F1A17;stroke-width:2.8222}
    .str2 {stroke:#00923F;stroke-width:5.6444}
    .str0 {stroke:white;stroke-width:16.9333}
    .str4 {stroke:#00923F;stroke-width:5.6444;stroke-dasharray:5 5}
    .str1 {stroke:white;stroke-width:16.9333;stroke-dasharray:16 16}
    .fil1 {fill:none}
    .fil5 {fill:#00923F}
    .fil4 {fill:#0A0B0C}
    .fil0 {fill:white}
    .fil3 {fill:#66CC00}
    .fil2 {fill:#66FF00}
   ]]>
  </style>
 </defs>
 <g id="Capa_x0020_1">
  <metadata id="CorelCorpID_0Corel-Layer"/>
  <g id="_337455728">
   <g>
    <g>
     <path id="_336839584" class="fil0 str0" d="M158.22 441.604c3.0719,-29.9122 12.8068,-67.5472 1.5143,-96.8942 -18.2723,-32.1553 -34.1922,-59.5768 -43.0434,-92.4376 -4.4486,-11.8644 -6.7426,-23.5277 -5.206,-34.1643 -0.9864,-32.3444 -4.2445,-70.2513 38.0182,-79.6629 9.2808,-8.8291 23.3437,-23.9578 35.9471,-27.3406 11.3746,-17.7999 52.6299,-23.648 73.3726,-16.6076 20.7426,-7.0402 61.9981,-1.1925 73.3725,16.6074 12.6027,3.3826 26.6675,18.512 35.948,27.3408 42.2626,9.4116 39.0045,47.3185 38.0181,79.6629 1.5366,10.6366 -0.7573,22.2999 -5.2059,34.1643 -8.8512,32.8608 -24.7712,60.2823 -43.0435,92.4376 -11.2925,29.347 -1.5576,66.982 1.5143,96.8942l-7.0704 0 -2.0319 0 -1.0005 0 -2.0334 0 -0.9989 0 -2.0355 0 -0.9968 0 -2.0371 0 -0.9948 0 -2.0392 0 -0.9932 0 -2.0407 0 -0.9917 0 -2.0427 0 -0.9897 0 -2.0442 0 -0.9882 0 -2.0457 0 -0.9872 0 -2.0468 0 -0.9856 0 -2.0483 0 -0.9844 0 -2.0495 0 -0.9829 0 -2.051 0 -0.9819 0 -2.052 0 -0.9807 0 -2.0533 0 -0.9796 0 -2.0543 0 -0.9783 0 -2.0556 0 -0.9776 0 -2.0563 0 -0.9766 0 -2.0574 0 -0.9757 0 -2.0582 0 -0.9747 0 -2.0592 0 -0.9742 0 -2.0592 0 -0.9737 0 -2.0602 0 -0.9732 0 -2.0604 0 -0.9725 0 -2.0614 0 -0.972 0 -2.0614 0 -0.972 0 -2.062 0 -0.9714 0 -2.062 0 -0.9711 0 -2.0624 0 -0.9711 0 -2.0624 0 -0.9711 0 -2.0626 0 -0.9708 0 -2.0626 0 -0.9708 0 -2.0626 0 -0.9713 0 -2.0621 0 -0.9713 0 -2.0621 0 -0.9717 0 -2.0617 0 -0.9717 0 -2.0618 0 -0.9721 0 -2.0609 0 -0.9727 0 -2.0607 0 -0.9732 0 -2.0601 0 -0.9733 0 -2.0601 0 -0.9738 0 -2.0591 0 -0.9748 0 -2.0583 0 -0.9757 0 -2.0572 0 -0.9763 0 -2.0566 0 -0.9774 0 -2.0554 0 -0.9785 0 -2.0544 0 -0.9795 0 -2.0534 0 -0.9802 0 -2.0527 0 -0.9815 0 -2.0513 0 -0.9827 0 -2.0502 0 -0.9837 0 -2.0487 0 -0.9852 0 -2.0473 0 -0.9868 0 -2.0456 0 -0.9883 0 -2.0443 0 -0.9896 0 -2.0427 0 -0.9913 0 -2.0411 0 -0.9933 0 -2.039 0 -0.9949 0 -2.0374 0 -0.9965 0 -2.0354 0 -0.9985 0 -2.0337 0 -1.0006 0 -2.0313 0 -7.0705 0z"/>
     <g>
      <rect id="_336839656" class="fil0 str0" x="152.361" y="400.303" width="212.925" height="68.1359" rx="6.9605" ry="6.9605"/>
      <rect id="_336839944" class="fil0 str0" x="166.556" y="400.303" width="14.195" height="68.1359"/>
      <rect id="_336839800" class="fil0 str0" x="180.751" y="400.303" width="14.195" height="68.1359"/>
      <rect id="_336839632" class="fil0 str0" x="194.946" y="400.303" width="14.195" height="68.1359"/>
      <rect id="_336839968" class="fil0 str0" x="209.141" y="400.303" width="14.195" height="68.1359"/>
      <rect id="_336839080" class="fil0 str0" x="223.336" y="400.303" width="14.195" height="68.1359"/>
      <rect id="_336838768" class="fil0 str0" x="237.531" y="400.303" width="14.195" height="68.1359"/>
      <rect id="_336838144" class="fil0 str0" x="251.726" y="400.303" width="14.195" height="68.1359"/>
      <rect id="_336837160" class="fil0 str0" x="265.921" y="400.303" width="14.195" height="68.1359"/>
      <rect id="_336836464" class="fil0 str0" x="280.116" y="400.303" width="14.195" height="68.1359"/>
      <rect id="_336867352" class="fil0 str0" x="294.311" y="400.303" width="14.195" height="68.1359"/>
      <rect id="_336867160" class="fil0 str0" x="308.506" y="400.303" width="14.195" height="68.1359"/>
      <rect id="_336867280" class="fil0 str0" x="322.701" y="400.303" width="14.195" height="68.1359"/>
      <rect id="_336866920" class="fil0 str0" x="336.896" y="400.303" width="14.195" height="68.1359"/>
     </g>
     <polyline id="_336866704" class="fil1 str1" points="111.023,217.346 144.372,275.506 258.763,309.462 374.33,275.506 406.52,214.804 "/>
    </g>
    <circle id="_336866584" class="fil0 str0" cx="208.18" cy="98.5151" r="45.8617"/>
    <circle id="_336866416" class="fil0 str0" cx="207.705" cy="99.4656" r="32.5547"/>
    <path id="_336866968" class="fil0 str0" d="M207.706 99.4656l-2.8657 32.4274c-9.471,-0.8345 -18.1194,-5.7828 -23.6399,-13.525l26.5056 -18.9024z"/>
    <circle id="_336866560" class="fil0 str0" cx="206.395" cy="98.1548" r="22.7573"/>
    <circle id="_336866536" class="fil0 str0" cx="215.33" cy="95.9379" r="6.01527"/>
    <path id="_336865912" class="fil0 str0" d="M162.319 98.5151c29.7075,-16.5054 60.6084,-15.406 91.7235,0 0.5669,-20.3349 -14.2891,-44.5483 -47.3799,-45.8371 -26.9304,0.2457 -46.2813,24.4936 -44.3436,45.8371z"/>
    <circle id="_336865840" class="fil0 str0" cx="312.169" cy="98.5151" r="45.8617"/>
    <circle id="_336865744" class="fil0 str0" cx="311.694" cy="99.4656" r="32.5547"/>
    <path id="_336866056" class="fil0 str0" d="M311.694 99.4656l-2.8656 32.4274c-9.4711,-0.8345 -18.1195,-5.7828 -23.64,-13.525l26.5056 -18.9024z"/>
    <circle id="_336865960" class="fil0 str0" cx="310.384" cy="98.1548" r="22.7573"/>
    <circle id="_336866104" class="fil0 str0" cx="319.319" cy="95.9379" r="6.01527"/>
    <path id="_336865240" class="fil0 str0" d="M266.308 98.5151c29.7074,-16.5054 60.6083,-15.406 91.7234,0 0.5669,-20.3349 -14.2891,-44.5483 -47.3799,-45.8371 -26.9303,0.2457 -46.2812,24.4936 -44.3435,45.8371z"/>
   </g>
   <g>
    <path id="_336864544" class="fil2 str2" d="M158.22 441.604c3.0719,-29.9122 12.8068,-67.5472 1.5143,-96.8942 -18.2723,-32.1553 -34.1922,-59.5768 -43.0434,-92.4376 -4.4486,-11.8644 -6.7426,-23.5277 -5.206,-34.1643 -0.9864,-32.3444 -4.2445,-70.2513 38.0182,-79.6629 9.2808,-8.8291 23.3437,-23.9578 35.9471,-27.3406 11.3746,-17.7999 52.6299,-23.648 73.3726,-16.6076 20.7426,-7.0402 61.9981,-1.1925 73.3725,16.6074 12.6027,3.3826 26.6675,18.512 35.948,27.3408 42.2626,9.4116 39.0045,47.3185 38.0181,79.6629 1.5366,10.6366 -0.7573,22.2999 -5.2059,34.1643 -8.8512,32.8608 -24.7712,60.2823 -43.0435,92.4376 -11.2925,29.347 -1.5576,66.982 1.5143,96.8942l-7.0704 0 -2.0319 0 -1.0005 0 -2.0334 0 -0.9989 0 -2.0355 0 -0.9968 0 -2.0371 0 -0.9948 0 -2.0392 0 -0.9932 0 -2.0407 0 -0.9917 0 -2.0427 0 -0.9897 0 -2.0442 0 -0.9882 0 -2.0457 0 -0.9872 0 -2.0468 0 -0.9856 0 -2.0483 0 -0.9844 0 -2.0495 0 -0.9829 0 -2.051 0 -0.9819 0 -2.052 0 -0.9807 0 -2.0533 0 -0.9796 0 -2.0543 0 -0.9783 0 -2.0556 0 -0.9776 0 -2.0563 0 -0.9766 0 -2.0574 0 -0.9757 0 -2.0582 0 -0.9747 0 -2.0592 0 -0.9742 0 -2.0592 0 -0.9737 0 -2.0602 0 -0.9732 0 -2.0604 0 -0.9725 0 -2.0614 0 -0.972 0 -2.0614 0 -0.972 0 -2.062 0 -0.9714 0 -2.062 0 -0.9711 0 -2.0624 0 -0.9711 0 -2.0624 0 -0.9711 0 -2.0626 0 -0.9708 0 -2.0626 0 -0.9708 0 -2.0626 0 -0.9713 0 -2.0621 0 -0.9713 0 -2.0621 0 -0.9717 0 -2.0617 0 -0.9717 0 -2.0618 0 -0.9721 0 -2.0609 0 -0.9727 0 -2.0607 0 -0.9732 0 -2.0601 0 -0.9733 0 -2.0601 0 -0.9738 0 -2.0591 0 -0.9748 0 -2.0583 0 -0.9757 0 -2.0572 0 -0.9763 0 -2.0566 0 -0.9774 0 -2.0554 0 -0.9785 0 -2.0544 0 -0.9795 0 -2.0534 0 -0.9802 0 -2.0527 0 -0.9815 0 -2.0513 0 -0.9827 0 -2.0502 0 -0.9837 0 -2.0487 0 -0.9852 0 -2.0473 0 -0.9868 0 -2.0456 0 -0.9883 0 -2.0443 0 -0.9896 0 -2.0427 0 -0.9913 0 -2.0411 0 -0.9933 0 -2.039 0 -0.9949 0 -2.0374 0 -0.9965 0 -2.0354 0 -0.9985 0 -2.0337 0 -1.0006 0 -2.0313 0 -7.0705 0z"/>
    <g>
     <rect id="_336863824" class="fil2 str3" x="152.361" y="400.303" width="212.925" height="68.1359" rx="6.9605" ry="6.9605"/>
     <rect id="_336863584" class="fil2 str3" x="166.556" y="400.303" width="14.195" height="68.1359"/>
     <rect id="_336863248" class="fil2 str3" x="180.751" y="400.303" width="14.195" height="68.1359"/>
     <rect id="_336863128" class="fil2 str3" x="194.946" y="400.303" width="14.195" height="68.1359"/>
     <rect id="_336862912" class="fil2 str3" x="209.141" y="400.303" width="14.195" height="68.1359"/>
     <rect id="_336863056" class="fil2 str3" x="223.336" y="400.303" width="14.195" height="68.1359"/>
     <rect id="_336862624" class="fil2 str3" x="237.531" y="400.303" width="14.195" height="68.1359"/>
     <rect id="_336862960" class="fil2 str3" x="251.726" y="400.303" width="14.195" height="68.1359"/>
     <rect id="_336862720" class="fil2 str3" x="265.921" y="400.303" width="14.195" height="68.1359"/>
     <rect id="_336862240" class="fil2 str3" x="280.116" y="400.303" width="14.195" height="68.1359"/>
     <rect id="_336861928" class="fil2 str3" x="294.311" y="400.303" width="14.195" height="68.1359"/>
     <rect id="_336862000" class="fil2 str3" x="308.506" y="400.303" width="14.195" height="68.1359"/>
     <rect id="_336861976" class="fil2 str3" x="322.701" y="400.303" width="14.195" height="68.1359"/>
     <rect id="_336862120" class="fil2 str3" x="336.896" y="400.303" width="14.195" height="68.1359"/>
    </g>
    <polyline id="_336861904" class="fil1 str4" points="111.023,217.346 144.372,275.506 258.763,309.462 374.33,275.506 406.52,214.804 "/>
   </g>
   <circle id="_336861016" class="fil0 str5" cx="208.18" cy="98.5151" r="45.8617"/>
   <circle id="_336861688" class="fil2" cx="207.705" cy="99.4656" r="32.5547"/>
   <path id="_336860968" class="fil3" d="M207.706 99.4656l-2.8657 32.4274c-9.471,-0.8345 -18.1194,-5.7828 -23.6399,-13.525l26.5056 -18.9024z"/>
   <circle id="_336861592" class="fil4 str6" cx="206.395" cy="98.1548" r="22.7573"/>
   <circle id="_336861448" class="fil0 str6" cx="215.33" cy="95.9379" r="6.01527"/>
   <path id="_336861400" class="fil5 str7" d="M162.319 98.5151c29.7075,-16.5054 60.6084,-15.406 91.7235,0 0.5669,-20.3349 -14.2891,-44.5483 -47.3799,-45.8371 -26.9304,0.2457 -46.2813,24.4936 -44.3436,45.8371z"/>
   <circle id="_336861496" class="fil0 str5" cx="312.169" cy="98.5151" r="45.8617"/>
   <circle id="_336861232" class="fil2" cx="311.694" cy="99.4656" r="32.5547"/>
   <path id="_336860488" class="fil3" d="M311.694 99.4656l-2.8656 32.4274c-9.4711,-0.8345 -18.1195,-5.7828 -23.64,-13.525l26.5056 -18.9024z"/>
   <circle id="_336860200" class="fil4 str6" cx="310.384" cy="98.1548" r="22.7573"/>
   <circle id="_336860464" class="fil0 str6" cx="319.319" cy="95.9379" r="6.01527"/>
   <path id="_336860800" class="fil5 str7" d="M266.308 98.5151c29.7074,-16.5054 60.6083,-15.406 91.7234,0 0.5669,-20.3349 -14.2891,-44.5483 -47.3799,-45.8371 -26.9303,0.2457 -46.2812,24.4936 -44.3435,45.8371z"/>
  </g>
 </g>
</svg>
