<?xml version="1.0" encoding="UTF-8"?>
<!DOCTYPE svg PUBLIC "-//W3C//DTD SVG 1.1//EN" "http://www.w3.org/Graphics/SVG/1.1/DTD/svg11.dtd">
<!-- Creator: CorelDRAW -->
<svg xmlns="http://www.w3.org/2000/svg" xml:space="preserve" width="250mm" height="250mm" style="shape-rendering:geometricPrecision; text-rendering:geometricPrecision; image-rendering:optimizeQuality; fill-rule:evenodd; clip-rule:evenodd"
viewBox="0 0 250 250">
 <defs>
  <style type="text/css">
   <![CDATA[
    .str3 {stroke:#1F1A17;stroke-width:0.0762}
    .str1 {stroke:#669933;stroke-width:0.0762}
    .str0 {stroke:#EBAD14;stroke-width:0.0762}
    .str2 {stroke:#1F1A17;stroke-width:1.4111}
    .str4 {stroke:#66FF00;stroke-width:5.6444}
    .fil0 {fill:none}
    .fil2 {fill:#0A0B0C}
    .fil8 {fill:white}
    .fil7 {fill:black}
    .fil5 {fill:#66FF00}
    .fil9 {fill:#CC0000}
    .fil6 {fill:white}
    .fil4 {fill:#245E36}
    .fil3 {fill:#66D43D}
    .fil1 {fill:#B0E8C7}
   ]]>
  </style>
   <clipPath id="id0">
    <path d="M243.456 124.426c0,-32.7299 -13.4366,-62.3592 -34.9515,-83.8742 -21.5151,-21.5151 -51.1801,-34.9754 -83.8506,-34.9754 -32.813,0 -62.49,13.3535 -83.9929,34.8091 -21.5269,21.4792 -34.8091,51.2274 -34.8091,84.0405 0,32.8844 13.1752,62.6441 34.6428,84.1116 21.4675,21.4677 51.2275,34.6428 84.1592,34.6428 32.7893,0 62.5375,-13.2822 84.0168,-34.8091 21.4557,-21.5029 34.7853,-51.2154 34.7853,-83.9453z"/>
   </clipPath>
 </defs>
 <g id="Capa_x0020_1">
  <metadata id="CorelCorpID_0Corel-Layer"/>
  <circle id="_357884616" class="fil0" cx="124.947" cy="124.769" r="117.376"/>
  <path id="_354059760" class="fil1" d="M243.456 124.426c0,-32.7299 -13.4366,-62.3592 -34.9515,-83.8742 -21.5151,-21.5151 -51.1801,-34.9754 -83.8506,-34.9754 -32.813,0 -62.49,13.3535 -83.9929,34.8091 -21.5269,21.4792 -34.8091,51.2274 -34.8091,84.0405 0,32.8844 13.1752,62.6441 34.6428,84.1116 21.4675,21.4677 51.2275,34.6428 84.1592,34.6428 32.7893,0 62.5375,-13.2822 84.0168,-34.8091 21.4557,-21.5029 34.7853,-51.2154 34.7853,-83.9453z"/>
  <g style="clip-path:url(#id0)">
   <g id="_277357168">
    <g>
     <path id="_217336696" class="fil2" d="M50.0017 309.2c-4.4073,-1.6238 -9.9282,-1.0207 -14.5211,-0.8815 -3.8971,-0.6495 -7.7014,-1.763 -11.3201,-3.3867 -1.9949,-0.1392 -3.897,-0.5568 -5.7992,-1.0207 -1.4382,-0.7887 -2.9228,-1.8093 -4.5465,-2.2733 0,-0.1392 0,-0.232 0,-0.3247 -1.7166,-0.6959 -1.7166,-0.6959 -7.2838,-2.2269 -3.1548,-1.6702 -3.1548,-1.6702 -6.6807,-3.9435 0,-0.9742 -6.7735,-4.1754 -7.7941,-4.8249 -2.9692,-2.7836 -4.825,-5.7064 -7.0055,-9.0004 -1.1598,-0.3247 -1.5773,-2.3196 -2.6908,-2.6908 -1.8093,-3.4795 -1.8093,-7.3766 -3.3867,-10.8097 -0.6495,-0.6959 -1.2526,-1.3454 -1.8558,-1.9949 -2.1341,-3.5723 -1.2526,-7.4694 -3.7114,-10.6705 -0.3248,-0.7887 -0.6496,-1.5774 -0.9743,-2.3661 0,-2.7836 0.2784,-5.4745 0.4639,-8.2117 -0.2783,-0.6031 -0.5567,-1.1598 -0.7887,-1.7165 0,-2.3661 -0.0464,-5.0105 0.8351,-7.191 0.9279,-0.8815 2.6908,-2.1805 2.9692,-2.2269 0,-0.1392 0,-0.232 0,-0.3248 0.9279,-0.7887 3.062,-2.0877 3.4795,-3.3403 -0.0928,-7.9333 -0.9742,-16.6553 1.995,-24.1711 2.2268,-3.6651 3.5723,-3.9898 7.7013,-4.8713 4.3146,-0.3248 4.3146,-0.3248 16.5161,-0.6495 1.6238,-0.3712 2.5516,-3.294 4.1754,-4.0827 0.3248,-0.4639 0.6495,-0.9278 1.0207,-1.3918 0,-0.9278 -0.3248,-2.1341 -0.9279,-7.0982 -0.0928,-6.1239 -0.9743,-13.4541 2.0413,-19.0677 0.232,0 1.763,-1.8094 1.9022,-2.1341 1.2526,-0.7423 2.5516,-1.4846 3.8506,-2.2269 5.5209,-1.5774 11.1809,-3.1548 16.5625,-5.1961 0.6032,-1.531 3.6651,-7.0982 2.4589,-8.6756 -2.9692,-1.9485 -5.892,-3.8971 -8.8148,-5.8456 -0.1392,-0.3248 -2.5516,-2.3197 -4.8249,-4.7321 -2.3197,-3.1084 -3.0156,-7.0055 -1.5774,-10.717 0.4639,-0.835 0.9743,-1.6701 1.4846,-2.4588 0.0928,0 0.1856,0 0.2784,0 0.4639,-0.6495 2.3196,-3.7579 3.5723,-4.0363 0,-1.299 8.8147,-6.8662 9.557,-7.0982 0,-0.1392 0,-0.2319 0,-0.3247 0.5104,-0.2784 1.0207,-0.5568 1.5774,-0.7887 0.5103,-3.1548 1.2526,-6.3559 1.4382,-9.5571 -3.5259,-6.959 -3.5259,-6.959 -6.0311,-12.3871 -0.5104,-2.1341 -1.0207,-4.2682 -1.531,-6.3559 -0.5104,-5.3817 -0.6495,-10.8097 2.2269,-15.5419 5.0105,-5.5208 12.1551,-5.1032 19.2069,-5.8919 2.4589,-0.1392 4.9641,-0.2784 7.4694,-0.3712 4.1754,-3.2475 4.1754,-3.2475 4.5929,-3.3867 0,-0.6959 2.2269,-2.0413 2.7836,-2.4589 1.7166,-7.8405 4.4538,-20.3204 12.0624,-24.8669 1.067,-0.2784 1.067,-0.2784 2.4588,-0.9279 2.2269,-0.2784 7.0055,-1.4382 8.954,-0.2784 5.3353,0.6495 11.2272,3.6187 15.3099,7.0519 0.2783,0.9742 6.4951,-0.2784 7.191,-0.5104 0.5567,-1.7165 1.8557,-3.2475 2.8764,-4.7785 0.0928,0 0.1856,0 0.2783,0 3.6187,-4.9641 8.2117,-7.8869 14.2429,-9.6499 1.7165,0 3.4795,0 5.2424,0 3.4796,0.6959 6.2632,2.2269 9.2788,3.9899 0.7886,0.6959 4.7785,3.4795 5.2888,4.9177 0.0928,0 0.1856,0 0.2784,0 0.232,0.6031 0.8351,1.4382 1.4382,1.6238 1.9485,2.598 1.9485,2.598 3.6651,5.3352 1.2526,0.3248 2.2733,0.6031 3.5723,0.6495 0.6031,0.3248 3.1084,0.9279 8.2116,2.5053 2.8301,1.0206 5.6601,2.0413 8.4901,3.062 5.7064,2.598 10.9952,6.6342 15.5882,10.8561 5.7528,-1.0671 9.5107,-0.1392 14.4748,2.83 3.1548,3.1547 6.2167,7.0518 7.423,11.4592 0.0928,1.5774 0.1856,3.2011 0.2783,4.8249 2.0878,2.4589 3.8043,5.1497 5.5209,7.8869 0.0928,0 0.1856,0 0.3247,0 1.6238,2.83 3.2476,5.66 4.9178,8.5364 1.6237,3.8043 3.2939,7.7014 4.4073,11.6912 0.3248,2.3197 0.3248,2.3197 0.7887,10.6705 -0.3247,3.7115 -0.6495,7.423 -0.9278,11.1345 -1.2527,5.5672 -1.5774,6.2167 -1.7166,7.423 -1.2526,2.9692 -1.2526,2.9692 -1.531,4.1754 -0.8351,1.6702 -2.2733,5.7528 -3.8043,6.6807 -2.1805,2.83 -2.6908,3.2011 -3.2475,3.897 -3.5723,2.7373 -7.0518,4.5002 -11.2737,5.9848 -0.2319,2.3661 -0.1391,5.1033 -1.3918,7.0982 -2.9228,1.4382 -2.9228,1.4382 -5.8919,2.5517 -2.0414,0.4175 -3.9899,0.9742 -6.0312,1.2062 -0.3248,0.0928 -0.6495,0.232 -0.9743,0.3711 -0.8351,5.7529 -3.6187,10.0211 -6.4487,15.0316 -0.0928,0 -0.1856,0 -0.2783,0 -0.7423,1.8093 -3.8043,4.0362 -5.1961,5.3816 -2.4125,1.9949 -5.1033,3.3868 -7.7941,4.9177 -0.9279,0.1392 -0.9279,0.1392 -2.9228,0.9279 -1.763,0.3248 -3.526,0.6959 -5.2889,1.0671 -5.2889,0 -10.5313,0.0928 -15.7738,-0.6032 -1.531,-0.2783 -7.423,-2.2732 -9.0004,-1.6701 -1.1134,5.4744 -3.3403,11.088 -5.3816,16.3305 -3.5723,5.7528 -3.5723,5.7528 -3.8507,6.4487 -0.7423,0 -0.6959,1.0207 -1.299,1.2063 -1.7166,2.1341 -3.8043,4.5929 -6.124,6.0775 0,0.0928 0,0.1856 0,0.2784 -1.067,0.5103 -2.4588,1.9949 -3.0619,2.9692 -0.7423,0.6959 -4.0827,3.0155 -4.5002,4.3146 -0.1392,0 -0.232,0 -0.3248,0 -0.1392,0.3247 -0.4639,0.4639 -1.4382,1.6237 -1.9949,3.062 -1.9949,3.062 -2.9228,4.7786 -0.8351,2.4124 -2.7836,4.4074 -3.3867,6.9126 -0.0928,0 -0.1856,0 -0.2784,0 -0.0464,0.1856 -0.0928,0.3712 -0.0928,0.6031 -7.0518,13.0366 -12.619,26.8155 -19.4389,39.9449 -0.5567,1.4846 -1.1134,2.9692 -1.6701,4.4538 -0.0928,0 -0.1856,0 -0.2784,0 -0.5567,1.3918 -0.5567,1.3918 -4.7321,9.2787 -3.4332,5.5672 -3.4332,5.5672 -3.4796,5.8456 -0.1391,0 -0.2319,0 -0.3247,0 -1.8558,2.6908 -1.8558,2.6908 -3.6651,4.9641 -2.1341,1.5774 -3.9435,1.299 -6.5415,1.299 -4.361,-1.7165 -9.1859,-0.1855 -13.4541,0.7423 -1.6702,0.1392 -3.294,0.2784 -4.9178,0.4176z"/>
     <path id="_217336576" class="fil3 str0" d="M1.7988 294.354c-1.1134,-0.8815 -2.1805,-1.7629 -3.2475,-2.6444 -3.6187,-1.5774 -5.7992,-2.5517 -8.2117,-5.7528 -0.8815,0 -2.6908,-5.0569 -4.361,-5.9848 -0.1392,-0.3247 -0.5103,-0.6031 -0.6031,-0.9279 -0.1392,0 -0.232,0 -0.3248,0 -1.7165,-3.4331 -1.6701,-7.4693 -3.2939,-10.7633 -3.2939,-3.2939 -3.7115,-5.2888 -4.0826,-9.789 -0.0928,-0.3248 -0.1856,-0.6495 -0.2784,-0.9279 -0.6031,-0.8815 -1.1598,-1.7629 -1.7166,-2.6444 -0.9278,-3.0156 -1.4382,-8.0261 0.5104,-10.7633 0.4175,-0.3712 1.6237,-1.9022 2.2269,-1.9022 0,-0.9742 1.7629,-1.5309 2.1341,-2.4588 1.6701,-1.0207 3.2475,-2.4589 4.5001,-4.0363 0.0928,0 0.1856,0 0.3248,0 0.0928,-0.5103 0.4175,-1.067 0.9279,-1.2062 0,-0.232 0,-0.4639 0,-0.6959 -1.0671,0 -1.4382,0.7887 -2.0413,1.5774 -1.6702,1.3454 -3.3404,2.7372 -4.9642,4.129 -0.2319,0.6959 -3.9434,4.2682 -4.7785,4.4074 0.1392,-3.2939 -0.8351,-7.8869 3.4331,-8.8148 0,-0.7887 1.299,-1.8093 1.995,-2.0413 0.0927,-0.3247 0.0927,-0.3247 3.897,-3.8507 6.5879,-7.8405 7.5622,-8.8147 7.7013,-9.1395 0.0928,0 0.1856,0 0.3248,0 0.0928,-0.3711 0.0928,-0.3711 3.9898,-4.9177 0.9743,-0.8351 1.8094,-1.8094 2.6445,-2.7836 0.0928,0 0.1856,0 0.3247,0 0,-0.1392 0.0464,-0.2784 0.0928,-0.4176 4.6858,-5.2888 9.9282,-10.9025 14.1037,-16.4233 1.0206,-0.5103 2.2269,-3.2939 3.2011,-2.83 -0.5103,1.5774 -0.5103,1.5774 -0.6495,2.6444 0.2784,0 0.5567,0 0.8351,0.0464 1.8557,-1.5774 3.3867,-5.1033 4.129,-7.3766 3.7115,-6.7734 3.9899,-7.5157 4.9177,-8.9075 0.9743,-1.9949 2.4589,-3.6187 3.7115,-5.4281 1.763,-2.9692 3.6187,-6.1239 4.9641,-9.3251 1.2991,-1.1134 2.0878,-7.0982 3.526,-6.6343 0.1855,1.4382 0.1391,7.9333 2.7836,4.5466 -0.232,-2.7372 -0.5568,-5.7992 -1.0671,-8.49 0,-3.7115 -0.3247,-8.6756 -0.4639,-22.5009 0.1392,-6.2631 0.8815,-12.6654 1.7165,-18.8822 0.6032,-0.3711 1.3919,-7.5621 1.531,-8.9539 0.3248,-1.0671 0.6032,-3.8507 0.9279,-4.7322 1.0207,-4.6857 1.9485,-9.6499 4.3146,-13.8253 0.5567,-1.9485 1.4846,-3.4795 2.9228,-4.9177 3.7115,-6.5879 8.8612,-12.0159 15.0779,-16.2377 1.2526,-1.0671 2.5053,-2.1341 3.7579,-3.1548 2.83,-1.9485 6.2167,-4.7785 9.5571,-5.892 1.6237,-1.4382 3.5259,-2.4588 5.6136,-3.2475 3.1548,-1.6702 7.0982,-3.9899 10.6241,-4.7786 4.7786,-3.1083 11.3201,-3.2475 16.5161,-5.1033 1.8094,-0.0464 3.6651,-0.1855 5.4281,-0.6031 6.3559,-0.3247 6.3559,-0.3247 6.6807,-0.5103 7.3301,0 14.4284,0.0928 21.6658,0.5103 0.835,0.2784 0.835,0.2784 5.5672,0.7423 7.1446,1.2526 14.0108,2.6908 20.8771,5.1033 1.3918,0.6495 1.3918,0.6495 8.0725,3.1084 3.6651,2.1805 3.6651,2.1805 3.8043,2.4588 1.3454,0.9279 6.4951,3.8043 7.2837,5.8456 -5.7528,1.531 -8.258,7.655 -9.8354,12.8046 -0.1392,1.2063 -0.232,2.4589 -0.3247,3.7115 -0.1856,0.3712 -0.3248,0.7423 -0.464,1.1135 0,8.0725 7.2374,15.1707 14.3356,18.0007 5.3817,0.5103 8.8612,-0.232 13.5006,-3.0156 0.7887,-1.0207 0.7887,-1.0207 1.6701,-1.7166 1.1135,-1.5773 2.3197,-3.0619 2.9692,-4.8713 0.9743,-0.9742 1.4382,-4.0826 1.8558,-5.3816 0.0927,0 0.1855,0 0.2783,0 7.1446,11.32 7.1446,11.32 7.4694,11.5984 2.2269,5.0569 4.2218,9.9282 5.5672,15.3098 0.464,7.7478 0.464,7.7478 0.464,10.5778 -0.696,3.9434 -0.1392,9.0003 -1.7166,12.6654 -0.6031,4.4538 -2.9692,8.954 -4.8713,12.9438 -1.0671,1.2063 -2.1341,2.4125 -3.2012,3.6651 -3.8043,3.1548 -8.8612,6.2168 -13.8253,6.8199 -0.1392,0.0928 -0.2783,0.1855 -0.4175,0.3247 -14.2892,4.6394 -29.2744,4.9177 -43.9811,2.1341 -8.5828,-1.067 -17.3976,-3.0619 -25.4701,-6.3095 -6.1703,-1.5774 -11.9232,-5.4744 -17.8615,-7.7477 -0.5104,-0.5104 -1.2063,-0.7423 -1.9022,-1.0207 -4.2682,-2.5516 -4.2682,-2.5516 -7.1446,-4.5466 0,-0.2319 0,-0.4639 0,-0.6959 0.1392,-0.0463 0.2784,-0.0927 0.464,-0.0927 1.5309,-1.9022 9.0003,-10.717 4.4073,-12.9902 -0.2319,0.1391 -0.4175,0.3247 -0.6031,0.5103 0,6.8198 -5.892,12.1551 -11.3664,15.2635 -1.7629,0.5567 -3.2011,1.0206 -4.7321,1.9485 0,0.1856 0,0.3712 0.0464,0.6031 3.1083,1.3454 7.1446,-1.2062 9.6962,-3.062 0.1392,-0.5103 0.4176,-0.5103 0.9279,-0.5567 0.6031,1.2526 1.4846,2.0877 2.1805,3.1548 3.9434,4.2682 7.8869,8.3508 12.3407,12.1551 2.4588,2.5053 2.4588,2.5053 2.6444,2.8764 3.1548,2.3661 6.2631,4.8249 9.2787,7.3766 5.0105,3.897 10.7633,6.727 16.7945,8.5828 6.2167,1.299 13.2686,3.1548 19.5781,1.5774 5.3352,-1.9022 5.3352,-1.9022 7.3766,-2.8764 2.5052,-2.2733 4.4074,-4.9641 5.5672,-8.0725 0.0464,-0.6495 0.0928,-1.299 0.1856,-1.9021 4.361,-0.464 4.361,-0.464 5.9847,-0.4176 0.1856,2.3661 0.3248,3.8971 1.7166,5.8456 1.0671,0.7423 0.9279,1.7166 0.7423,2.9228 -3.1084,7.8405 -6.959,13.7789 -13.9181,18.6966 -4.361,2.4125 -8.0261,3.5259 -12.851,4.361 -2.9228,0.0464 -5.8456,0.0928 -8.722,0.1392 -9.8818,-0.6959 -19.2069,-3.9899 -28.4856,-7.423 -1.0207,-0.5103 -5.9384,-3.1084 -6.4951,-2.5516 0,3.2475 10.7169,5.9847 13.5469,7.3302 1.4382,0.4639 2.9228,0.9278 4.4074,1.4382 0.0464,0.6495 0.0928,1.299 0.1392,1.9949 -0.1392,0.0928 -0.232,0.2319 -0.3248,0.3711 -1.1134,5.0105 -3.2939,10.1602 -5.2425,14.8924 -0.4639,0.5103 -1.8557,2.9692 -4.6393,6.8198 -4.825,5.4281 -10.8561,9.8818 -15.5883,15.4027 -0.8815,1.3918 -1.7629,2.83 -2.6444,4.2682 -0.6495,2.6444 -2.9692,6.0776 -4.361,8.4436 -4.8713,9.8819 -9.6035,19.8565 -14.0573,29.9239 -19.8929,39.3096 -46.5965,48.9067 -90.1427,22.7792z"/>
     <path id="_216284304" class="fil4" d="M12.8869 192.289c-1.4846,-6.9591 -1.1599,-14.7068 0.6959,-21.5731 1.7629,-2.0413 3.1084,-3.0619 5.428,-4.5001 4.5466,-1.4382 9.0932,-2.83 13.6861,-4.2218 -2.1805,4.2218 -4.2682,8.4436 -6.9126,12.4334 -1.531,0.7423 -5.428,8.5365 -6.6807,11.1345 -1.9021,2.3661 -3.9898,4.593 -6.2167,6.7271z"/>
     <path id="_214001184" class="fil5" d="M16.5984 171.411c-0.1392,-0.0464 -0.232,-0.0928 -0.3248,-0.1392 0,-2.3197 9.3251,-5.5209 11.3664,-5.1961 1.8558,1.8557 -4.5465,2.7372 -5.428,3.2475 -2.1341,0.3248 -3.6187,1.2991 -5.6136,2.0878z"/>
     <path id="_216650720" class="fil6" d="M167.656 164.313c-2.6909,-0.4639 -5.4281,-0.9278 -7.9333,-1.9949 -0.6032,-1.8093 -0.9743,-3.6187 -1.0671,-5.5208 5.892,0.9278 11.552,2.1341 17.6296,2.2733 -0.5104,1.3918 -1.0207,2.7836 -1.4846,4.1754 -1.8558,1.3454 -5.0105,1.0206 -7.1446,1.067z"/>
     <path id="_216650792" class="fil6" d="M191.131 163.06c-0.5567,-3.9898 -0.5567,-3.9898 -0.5103,-4.5466 2.5516,-0.4639 5.1497,-0.9278 7.7477,-1.3918 6.8663,-1.8557 6.8663,-1.8557 7.423,-2.1805 0,1.4846 -0.232,2.9692 -0.5104,4.4538 -1.9949,1.9949 -8.2116,3.062 -10.7169,3.5723 -1.1598,0 -2.3196,0.0464 -3.4331,0.0928z"/>
     <path id="_45149512" class="fil4" d="M36.2229 147.936c-4.7786,-3.2012 -8.4901,-5.7992 -12.016,-10.253 -0.2783,-0.7423 -0.2783,-0.7423 -0.6031,-1.0206 -0.4175,-2.5053 -0.5567,-4.6394 0.232,-7.0983 2.5052,-3.0619 2.5052,-3.0619 2.8764,-3.8042 3.2939,-3.0156 6.4951,-5.7992 10.2066,-8.3509 0.2319,-0.0464 0.4639,-0.0928 0.6959,-0.0928 -1.0671,10.1138 -1.3454,20.506 -0.464,30.6198 -0.3247,0 -0.6495,0 -0.9278,0z"/>
     <path id="_216702024" class="fil5" d="M25.0884 133.415c0,-1.1134 0,-1.4846 0.4175,-2.5516 0.2784,0 0.5568,0 0.8815,0 0,1.1134 -0.0928,1.531 -0.6495,2.4588 -0.232,0 -0.4639,0.0464 -0.6495,0.0928z"/>
     <path id="_216702360" class="fil5" d="M27.4081 129.843c-0.9743,-1.9485 5.7064,-7.5621 7.8405,-7.0518 0,0.3247 0.0464,0.6959 0.0928,1.067 -3.294,2.0414 -3.294,2.0414 -4.1754,2.7837 -0.8815,1.0206 -2.4589,2.8764 -3.7579,3.2011z"/>
     <path id="_216647792" class="fil5" d="M85.5392 126.595c-1.7165,-0.9743 -2.0413,-1.3918 -1.9021,-3.4796 2.2733,-2.4588 6.1239,-5.5672 8.0261,-1.2062 0,2.5517 -1.9486,3.4331 -4.0363,4.593 -0.6959,0 -1.3918,0.0464 -2.0877,0.0928z"/>
     <path id="_216702312" class="fil5" d="M85.5392 124.879c-1.1598,-1.3918 1.4382,-3.1084 2.2733,-3.8043 3.7579,0 1.299,2.5053 -0.5567,3.5723 -0.6031,0.0464 -1.1598,0.1392 -1.7166,0.232z"/>
     <path id="_216711152" class="fil5 str1" d="M102.241 115.322c-1.7165,-1.0206 -2.0877,-0.9279 -2.2733,-3.1084 1.299,-2.366 2.8764,-4.0362 5.7528,-3.8042 0.5568,0.3247 1.1135,0.6495 1.7166,1.0206 1.067,3.4332 -2.2269,5.5209 -5.1961,5.892z"/>
     <path id="_216711416" class="fil5" d="M102.102 113.605c0,-1.9486 1.5774,-4.5466 3.7579,-3.4796 0,2.2733 -1.7629,2.7373 -3.7579,3.4796z"/>
     <path id="_216711200" class="fil5" d="M86.1887 110.821c-1.5773,-0.8814 -2.9228,-1.8093 -2.0877,-3.8042 2.83,-2.83 5.1497,-4.361 8.3045,-1.2063 0,0.6032 0,1.2063 0,1.8558 -2.2733,2.0877 -3.1548,2.4588 -6.2168,3.1547z"/>
     <path id="_216710912" class="fil5" d="M86.0032 109.29c-0.1392,-2.4125 0.4639,-2.4125 2.1341,-3.8043 0.6959,0.0464 1.3918,0.0928 2.0877,0.1392 0.3711,0.3711 0.3247,0.6495 0.3247,1.2062 -1.4382,1.4382 -2.7372,1.7166 -4.5465,2.4589z"/>
     <path id="_216683576" class="fil4" d="M39.9343 100.615c-0.5567,-1.1135 -0.5567,-1.1135 -1.299,-2.1341 -1.9021,-4.361 -1.9021,-4.361 -2.1805,-4.6858 -1.531,-5.2425 -1.531,-5.2425 -1.8557,-5.7992 -0.6031,-3.4795 -0.464,-6.959 -0.464,-10.4849 0.2784,-0.6959 0.2784,-0.6959 0.464,-2.5053 0.6031,-1.2526 1.2062,-2.5053 1.8557,-3.7115 1.4382,-1.0206 2.7836,-2.0877 4.4074,-2.83 1.2526,-0.3247 2.5053,-0.6031 3.8043,-0.8815 11.6448,-1.2526 11.9695,-1.4382 13.083,-1.3918 0,0.1856 0,0.3712 0,0.6031 -5.1033,3.8971 -8.2117,9.9747 -11.6912,15.2171 -1.3918,3.1548 -3.6187,6.6807 -3.8971,10.1602 -0.9278,0.464 -1.8557,7.655 -1.9021,8.4437 -0.1392,0 -0.232,0 -0.3248,0z"/>
     <path id="_216683552" class="fil7" d="M165.939 89.6195c-4.0362,-2.4125 0.3711,-6.2632 3.3403,-2.6445 -0.2783,2.0878 -1.4382,2.4125 -3.3403,2.6445z"/>
     <path id="_216683096" class="fil7" d="M197.951 84.5162c-2.4125,-1.6238 -0.9743,-3.5259 1.3918,-3.8043 0.5103,0.3248 1.067,0.6495 1.6237,0.9743 0,2.1341 -1.1134,2.5516 -3.0155,2.83z"/>
     <path id="_216683528" class="fil6" d="M198.276 82.846c0.0928,-0.2783 0.1856,-0.5567 0.3248,-0.7887 0.2319,-0.0464 0.4639,-0.0928 0.7423,-0.1392 -0.1392,0.232 -0.2784,0.5104 -0.4176,0.7887 -0.2319,0.0464 -0.4639,0.0928 -0.6495,0.1392z"/>
     <path id="_216683072" class="fil7" d="M153.274 80.3408c-4.5465,-0.8815 -0.0463,-7.6086 2.8301,-2.83 -0.232,2.1805 -0.7423,2.4124 -2.8301,2.83z"/>
     <path id="_216683000" class="fil7" d="M163.156 78.0211c-1.4382,-0.8815 -1.6702,-1.4382 -1.2063,-3.062 2.1342,-1.4846 2.5981,-1.2062 4.5466,0.4176 0,2.366 -1.299,2.5052 -3.3403,2.6444z"/>
     <path id="_216683504" class="fil6" d="M163.62 76.8149c-0.3711,-0.5568 -0.5103,-0.6496 -0.0464,-1.3455 0.3248,0 0.6495,0 1.0207,0 0,0.6032 -0.4176,1.0207 -0.9743,1.3455z"/>
     <path id="_216683120" class="fil7" d="M196.559 73.3817c-1.0207,-0.7423 -2.3197,-2.4124 -0.1856,-3.1083 0,-0.1392 0.0464,-0.2784 0.0928,-0.3712 1.8557,-0.7423 4.2218,1.299 2.5052,3.0156 -0.5567,0.232 -0.5567,0.232 -2.4124,0.4639z"/>
     <path id="_216683624" class="fil6" d="M197.023 71.8507c-0.0928,-0.1391 -0.1856,-0.2319 -0.2784,-0.3247 0.3248,-0.464 0.3248,-0.464 0.6495,-0.5103 0.0928,0.1391 0.1856,0.3247 0.3248,0.5103 -0.232,0.0928 -0.4639,0.1856 -0.6959,0.3247z"/>
     <path id="_216683672" class="fil7" d="M204.91 71.8507c-1.9021,-1.5309 -0.8815,-3.6651 1.3918,-3.6651 0.8351,0.4176 0.8351,0.4176 1.763,1.2527 0,2.2269 -1.2991,2.2733 -3.1548,2.4124z"/>
     <path id="_216683456" class="fil5" d="M42.5788 71.526c-0.2784,-0.2784 -0.3248,-0.5103 -0.232,-0.9743 2.1805,-1.3454 6.5415,-1.6701 8.8148,-0.6495 0.1392,0.1856 0.2783,0.3712 0.4639,0.5567 -0.0464,0.3712 -0.0464,0.3712 -0.2319,0.5104 -2.6445,0 -6.2632,-0.3712 -8.8148,0.5567z"/>
     <path id="_216683432" class="fil6" d="M205.235 70.3198c0,-0.232 0.0463,-0.464 0.0927,-0.696 0.3248,-0.0463 0.6495,-0.0927 0.9743,-0.0927 -0.3248,0.4639 -0.4639,0.6959 -1.067,0.7887z"/>
     <path id="_216683408" class="fil7" d="M186.956 66.1443c-0.7423,-1.531 1.7165,-3.7115 2.7372,-4.7321 0.2784,0 0.5567,0 0.8815,0 0,0.8351 -3.4795,4.6857 -3.6187,4.7321z"/>
     <path id="_216682976" class="fil4" d="M71.482 55.9377c-0.0928,-0.5567 0.3711,-3.4795 0.8351,-3.7578 1.7629,-6.4487 4.129,-14.6604 10.7633,-17.5832 8.3044,-1.4846 16.0058,-0.0464 22.3617,5.5672 -0.3248,0.8351 -5.6137,1.9022 -6.4951,2.0877 -8.2117,3.3404 -8.2117,3.3404 -10.2066,3.9899 -5.0105,3.3403 -11.2737,5.0105 -16.0058,8.9539 -0.5103,0.1856 -0.8815,0.6032 -1.2526,0.7423z"/>
     <path id="_216683240" class="fil5" d="M98.715 40.767c-2.5516,-1.4382 -4.3146,-2.5516 -7.191,-3.5259 -0.1856,-0.3247 -0.1856,-0.3247 -0.1856,-0.8814 3.3404,0 5.5209,1.4382 8.1653,3.3867 0,0.8351 -0.1392,0.9279 -0.7887,1.0206z"/>
     <path id="_216683600" class="fil4" d="M153.599 39.8392c-9.5107,-2.0877 -19.3925,-1.9486 -29.0888,-1.9486 -2.4588,0.3248 -2.4588,0.3248 -7.5621,0.5568 0,-1.5774 3.897,-5.4281 4.6393,-6.356 2.9692,-2.1805 2.9692,-2.1805 5.5673,-3.8042 4.6393,-2.1805 8.0724,-2.2733 13.1293,-1.3918 2.2733,1.299 4.5466,2.5516 6.6343,4.129 0,0.0928 0,0.1856 0,0.3247 0.6031,0 1.8094,1.531 2.2269,1.9486 3.8043,4.7321 3.8043,4.7321 4.8713,6.2631 -0.1391,0.0928 -0.2783,0.1856 -0.4175,0.2784z"/>
     <path id="_216683216" class="fil5" d="M146.918 37.6587c-0.5567,-0.2784 -0.5567,-0.2784 -0.9742,-0.6959 -0.5104,-2.0877 -4.0827,-4.7786 -6.124,-5.8456 -0.1392,-0.1856 -0.2784,-0.3712 -0.4175,-0.5103 0.8814,-2.6909 7.8405,5.1032 8.3508,6.0311 0,0.232 0,0.5103 0,0.7887 -0.2783,0.0464 -0.5567,0.1392 -0.8351,0.232z"/>
     <path id="_216683024" class="fil5" d="M86.7919 37.0556c-0.2784,-0.1392 -0.5568,-0.232 -0.7887,-0.3248 0.0928,-0.8351 0.0928,-0.8351 0.2783,-1.0207 3.062,0.0464 3.062,0.0464 3.3404,0.232 -0.0464,0.2784 -0.0928,0.5567 -0.1392,0.8351 -0.6959,0.1856 -0.6959,0.1856 -2.6908,0.2784z"/>
     <ellipse id="_216683696" class="fil8 str2" cx="155.641" cy="85.6005" rx="22.5287" ry="31.5401"/>
     <ellipse id="_216683048" class="fil2 str3" cx="166.522" cy="88.7843" rx="10.8816" ry="18.3935"/>
     <ellipse id="_216683144" class="fil8 str2" cx="197.294" cy="78.4122" rx="17.3761" ry="24.3266"/>
     <ellipse id="_216683288" class="fil2 str3" cx="205.687" cy="80.8678" rx="8.39288" ry="14.1867"/>
     <path id="_216683768" class="fil9 str3" d="M111.907 139.92c13.9102,13.1623 21.5326,22.3152 36.174,27.9298 20.7675,6.5488 30.5809,1.4035 34.653,-8.7332l-5.0038 -0.0358 -2.839 5.387 -7.0083 1.1606 -9.0928 -2.5199 -0.7979 -6.4022c-16.349,-2.1798 -31.1369,-8.3056 -46.0852,-16.7863z"/>
    </g>
   </g>
  </g>
  <path class="fil0 str4" d="M243.456 124.426c0,-32.7299 -13.4366,-62.3592 -34.9515,-83.8742 -21.5151,-21.5151 -51.1801,-34.9754 -83.8506,-34.9754 -32.813,0 -62.49,13.3535 -83.9929,34.8091 -21.5269,21.4792 -34.8091,51.2274 -34.8091,84.0405 0,32.8844 13.1752,62.6441 34.6428,84.1116 21.4675,21.4677 51.2275,34.6428 84.1592,34.6428 32.7893,0 62.5375,-13.2822 84.0168,-34.8091 21.4557,-21.5029 34.7853,-51.2154 34.7853,-83.9453z"/>
 </g>
</svg>
