<?xml version="1.0" encoding="UTF-8"?>
<!DOCTYPE svg PUBLIC "-//W3C//DTD SVG 1.1//EN" "http://www.w3.org/Graphics/SVG/1.1/DTD/svg11.dtd">
<!-- Creator: CorelDRAW -->
<svg xmlns="http://www.w3.org/2000/svg" xml:space="preserve" width="120mm" height="165mm" style="shape-rendering:geometricPrecision; text-rendering:geometricPrecision; image-rendering:optimizeQuality; fill-rule:evenodd; clip-rule:evenodd"
viewBox="0 0 120 165">
 <defs>
  <style type="text/css">
   <![CDATA[
    .str3 {stroke:#C97A00;stroke-width:0.3528}
    .str4 {stroke:#78570A;stroke-width:0.7056}
    .str2 {stroke:#C97A00;stroke-width:2.8222}
    .str0 {stroke:#00923F;stroke-width:5.6444}
    .str1 {stroke:#FFF500;stroke-width:1.4111;stroke-dasharray:2 1}
    .fil1 {fill:none}
    .fil5 {fill:none;fill-rule:nonzero}
    .fil0 {fill:#66CC00}
    .fil2 {fill:#F7A30A}
    .fil3 {fill:#FAC93D}
    .fil4 {fill:#FFCC00;fill-rule:nonzero}
    .fil6 {fill:#C97A00;fill-rule:nonzero}
   ]]>
  </style>
 </defs>
 <g id="Capa_x0020_1">
  <metadata id="CorelCorpID_0Corel-Layer"/>
  <path class="fil0 str0" d="M22.5864 5.7494l75.0856 0c9.3253,0 16.955,8.258 16.955,18.3513l0 116.781c0,10.0933 -7.6297,18.3513 -16.955,18.3513l-75.0856 0c-9.3253,0 -16.955,-8.258 -16.955,-18.3513l0 -116.781c0,-10.0933 7.6297,-18.3513 16.955,-18.3513z"/>
  <g id="_341555624">
   <g>
    <rect id="_341555288" class="fil1 str1" transform="matrix(0.682519 -0.682519 0.671144 0.671144 3.81299 17.3929)" width="12.9151" height="13.134"/>
    <rect id="_341555960" class="fil1 str1" transform="matrix(0.682519 -0.682519 0.671144 0.671144 22.2835 17.3929)" width="12.9151" height="13.134"/>
    <rect id="_341556008" class="fil1 str1" transform="matrix(0.682519 -0.682519 0.671144 0.671144 40.7539 17.3929)" width="12.9151" height="13.134"/>
    <rect id="_341554904" class="fil1 str1" transform="matrix(0.682519 -0.682519 0.671144 0.671144 59.2244 17.3929)" width="12.9151" height="13.134"/>
    <rect id="_341554712" class="fil1 str1" transform="matrix(0.682519 -0.682519 0.671144 0.671144 77.6949 17.3929)" width="12.9151" height="13.134"/>
    <rect id="_341554544" class="fil1 str1" transform="matrix(0.682519 -0.682519 0.671144 0.671144 3.81299 35.8633)" width="12.9151" height="13.134"/>
    <rect id="_341555024" class="fil1 str1" transform="matrix(0.682519 -0.682519 0.671144 0.671144 22.2835 35.8633)" width="12.9151" height="13.134"/>
    <rect id="_341555072" class="fil1 str1" transform="matrix(0.682519 -0.682519 0.671144 0.671144 40.7539 35.8633)" width="12.9151" height="13.134"/>
    <rect id="_341555192" class="fil1 str1" transform="matrix(0.682519 -0.682519 0.671144 0.671144 59.2244 35.8633)" width="12.9151" height="13.134"/>
    <rect id="_341555168" class="fil1 str1" transform="matrix(0.682519 -0.682519 0.671144 0.671144 77.6949 35.8633)" width="12.9151" height="13.134"/>
    <rect id="_341554616" class="fil1 str1" transform="matrix(0.682519 -0.682519 0.671144 0.671144 3.81299 54.3338)" width="12.9151" height="13.134"/>
    <rect id="_341554568" class="fil1 str1" transform="matrix(0.682519 -0.682519 0.671144 0.671144 22.2835 54.3338)" width="12.9151" height="13.134"/>
    <rect id="_341554856" class="fil1 str1" transform="matrix(0.682519 -0.682519 0.671144 0.671144 40.7539 54.3338)" width="12.9151" height="13.134"/>
    <rect id="_341554112" class="fil1 str1" transform="matrix(0.682519 -0.682519 0.671144 0.671144 59.2244 54.3338)" width="12.9151" height="13.134"/>
    <rect id="_341553824" class="fil1 str1" transform="matrix(0.682519 -0.682519 0.671144 0.671144 77.6949 54.3338)" width="12.9151" height="13.134"/>
    <rect id="_341554400" class="fil1 str1" transform="matrix(0.682519 -0.682519 0.671144 0.671144 3.81299 72.8043)" width="12.9151" height="13.134"/>
    <rect id="_341554496" class="fil1 str1" transform="matrix(0.682519 -0.682519 0.671144 0.671144 22.2835 72.8043)" width="12.9151" height="13.134"/>
    <rect id="_341554376" class="fil1 str1" transform="matrix(0.682519 -0.682519 0.671144 0.671144 40.7539 72.8043)" width="12.9151" height="13.134"/>
    <rect id="_341553920" class="fil1 str1" transform="matrix(0.682519 -0.682519 0.671144 0.671144 59.2244 72.8043)" width="12.9151" height="13.134"/>
    <rect id="_341553896" class="fil1 str1" transform="matrix(0.682519 -0.682519 0.671144 0.671144 77.6949 72.8043)" width="12.9151" height="13.134"/>
    <rect id="_341554040" class="fil1 str1" transform="matrix(0.682519 -0.682519 0.671144 0.671144 3.81299 91.2748)" width="12.9151" height="13.134"/>
    <rect id="_341553872" class="fil1 str1" transform="matrix(0.682519 -0.682519 0.671144 0.671144 22.2835 91.2748)" width="12.9151" height="13.134"/>
    <rect id="_341554232" class="fil1 str1" transform="matrix(0.682519 -0.682519 0.671144 0.671144 40.7539 91.2748)" width="12.9151" height="13.134"/>
    <rect id="_341554280" class="fil1 str1" transform="matrix(0.682519 -0.682519 0.671144 0.671144 59.2244 91.2748)" width="12.9151" height="13.134"/>
    <rect id="_341553032" class="fil1 str1" transform="matrix(0.682519 -0.682519 0.671144 0.671144 77.6949 91.2748)" width="12.9151" height="13.134"/>
    <rect id="_341553728" class="fil1 str1" transform="matrix(0.682519 -0.682519 0.671144 0.671144 3.81299 109.745)" width="12.9151" height="13.134"/>
    <rect id="_341553680" class="fil1 str1" transform="matrix(0.682519 -0.682519 0.671144 0.671144 22.2835 109.745)" width="12.9151" height="13.134"/>
    <rect id="_341553656" class="fil1 str1" transform="matrix(0.682519 -0.682519 0.671144 0.671144 40.7539 109.745)" width="12.9151" height="13.134"/>
    <rect id="_341553488" class="fil1 str1" transform="matrix(0.682519 -0.682519 0.671144 0.671144 59.2244 109.745)" width="12.9151" height="13.134"/>
    <rect id="_341553584" class="fil1 str1" transform="matrix(0.682519 -0.682519 0.671144 0.671144 77.6949 109.745)" width="12.9151" height="13.134"/>
    <rect id="_341553080" class="fil1 str1" transform="matrix(0.682519 -0.682519 0.671144 0.671144 3.81299 128.216)" width="12.9151" height="13.134"/>
    <rect id="_341553320" class="fil1 str1" transform="matrix(0.682519 -0.682519 0.671144 0.671144 22.2835 128.216)" width="12.9151" height="13.134"/>
    <rect id="_341553536" class="fil1 str1" transform="matrix(0.682519 -0.682519 0.671144 0.671144 40.7539 128.216)" width="12.9151" height="13.134"/>
    <rect id="_341553248" class="fil1 str1" transform="matrix(0.682519 -0.682519 0.671144 0.671144 59.2244 128.216)" width="12.9151" height="13.134"/>
    <rect id="_341553272" class="fil1 str1" transform="matrix(0.682519 -0.682519 0.671144 0.671144 77.6949 128.216)" width="12.9151" height="13.134"/>
    <rect id="_341552912" class="fil1 str1" transform="matrix(0.682519 -0.682519 0.671144 0.671144 3.81299 146.686)" width="12.9151" height="13.134"/>
    <rect id="_341552840" class="fil1 str1" transform="matrix(0.682519 -0.682519 0.671144 0.671144 22.2835 146.686)" width="12.9151" height="13.134"/>
    <rect id="_341552480" class="fil1 str1" transform="matrix(0.682519 -0.682519 0.671144 0.671144 40.7539 146.686)" width="12.9151" height="13.134"/>
    <rect id="_340618000" class="fil1 str1" transform="matrix(0.682519 -0.682519 0.671144 0.671144 59.2244 146.686)" width="12.9151" height="13.134"/>
    <rect id="_338763880" class="fil1 str1" transform="matrix(0.682519 -0.682519 0.671144 0.671144 77.6949 146.686)" width="12.9151" height="13.134"/>
   </g>
   <g>
    <rect id="_338762296" class="fil1 str1" transform="matrix(0.682519 -0.682519 0.671144 0.671144 95.253 17.3929)" width="12.9151" height="13.134"/>
    <rect id="_338761264" class="fil1 str1" transform="matrix(0.682519 -0.682519 0.671144 0.671144 95.253 35.8633)" width="12.9151" height="13.134"/>
    <rect id="_338761072" class="fil1 str1" transform="matrix(0.682519 -0.682519 0.671144 0.671144 95.253 54.3338)" width="12.9151" height="13.134"/>
    <rect id="_338760256" class="fil1 str1" transform="matrix(0.682519 -0.682519 0.671144 0.671144 95.253 72.8043)" width="12.9151" height="13.134"/>
    <rect id="_338760784" class="fil1 str1" transform="matrix(0.682519 -0.682519 0.671144 0.671144 95.253 91.2748)" width="12.9151" height="13.134"/>
    <rect id="_338759512" class="fil1 str1" transform="matrix(0.682519 -0.682519 0.671144 0.671144 95.253 109.745)" width="12.9151" height="13.134"/>
    <rect id="_338760064" class="fil1 str1" transform="matrix(0.682519 -0.682519 0.671144 0.671144 95.253 128.216)" width="12.9151" height="13.134"/>
    <rect id="_338759080" class="fil1 str1" transform="matrix(0.682519 -0.682519 0.671144 0.671144 95.253 146.686)" width="12.9151" height="13.134"/>
   </g>
  </g>
  <ellipse class="fil2 str2" cx="60.1292" cy="77.6211" rx="39.8976" ry="39.8977"/>
  <ellipse class="fil3 str3" cx="60.1292" cy="77.621" rx="32.7169" ry="32.717"/>
  <path class="fil4" d="M23.6227 78.8678c-3.0577,0.4633 -5.0596,-0.9023 -6.0058,-4.1068 -0.1176,-0.4093 -0.2201,-0.8534 -0.2975,-1.3274 -0.762,-4.1306 3.1689,-7.8544 11.7882,-11.1763l3.5394 6.9506c-0.4791,0.1272 -0.9283,0.2546 -1.3476,0.3821 -3.3793,0.9952 -5.0632,1.8441 -5.0467,2.552 -0.0052,0.0498 -0.0005,0.0997 0.0142,0.1447 0.1961,0.6638 1.911,0.6025 5.1496,-0.189 3.3586,-0.8208 5.6481,0.8403 6.8688,4.9733l0.0832 0.2945c1.1997,4.3672 -2.9258,8.0999 -12.3613,11.1935l-5.1399 -6.8538c2.2649,-0.4075 4.0312,-0.7926 5.3041,-1.1701 1.5573,-0.4558 2.372,-0.8954 2.4438,-1.3137 0.0003,-0.0599 -0.0044,-0.1197 -0.0241,-0.1746 -0.1716,-0.579 -1.8261,-0.637 -4.9684,-0.179z"/>
  <path class="fil4" d="M52.0502 78.9092c-3.2744,0.9657 -6.3738,0.7909 -9.293,-0.5293 -2.9193,-1.3153 -4.7981,-3.403 -5.6412,-6.2583 -0.8432,-2.8551 -0.3959,-5.6291 1.3469,-8.317 1.7379,-2.6929 4.2489,-4.5197 7.5234,-5.4854 3.2694,-0.9608 6.3638,-0.7861 9.283,0.5342 2.9194,1.3153 4.7981,3.4031 5.6413,6.2582 0.8382,2.8551 0.3909,5.6292 -1.3469,8.3171 -1.7379,2.6879 -4.244,4.5147 -7.5135,5.4805zm-2.8719 -6.8726c1.2229,-0.3577 2.1534,-1.031 2.7911,-2.0148 0.638,-0.9836 0.8074,-1.9797 0.5083,-2.9881 -0.2941,-1.0082 -0.9782,-1.7542 -2.0475,-2.238 -1.0692,-0.4788 -2.2203,-0.5393 -3.4432,-0.1814 -1.228,0.3627 -2.1633,1.0409 -2.8062,2.0246 -0.6379,0.9838 -0.8073,1.9798 -0.5082,2.9881 0.2941,1.0083 0.9783,1.7544 2.0475,2.2331 1.0743,0.4838 2.2253,0.5393 3.4582,0.1765z"/>
  <path class="fil4" d="M84.4896 65.5713c-2.9471,3.295 -5.9281,5.3837 -8.9429,6.2759 -3.0249,0.8922 -5.9241,0.5639 -8.6977,-0.9849 -2.7786,-1.5439 -4.6163,-3.8557 -5.5233,-6.9256 -0.902,-3.0747 -0.6083,-6.009 0.8858,-8.8077 1.4942,-2.7988 3.7512,-4.6468 6.776,-5.534 3.0149,-0.8922 5.9142,-0.5639 8.6927,0.9849 1.3919,0.7645 2.6723,1.8823 3.8314,3.3434l-6.5404 4.2442c-0.5393,-0.7952 -1.1147,-1.3662 -1.7211,-1.7031 -1.019,-0.5633 -2.0701,-0.6831 -3.1632,-0.3595 -1.0932,0.3185 -1.9139,0.9974 -2.4623,2.0264 -0.5484,1.029 -0.6584,2.1051 -0.3299,3.2231 0.3283,1.1232 1.007,1.9639 2.0261,2.5322 1.0189,0.5682 2.075,0.6881 3.1681,0.3694 1.8562,-0.4145 3.7372,-1.8257 5.6481,-4.2236l6.3526 5.5389z"/>
  <polygon class="fil4" points="88.2192,52.1725 89.9607,43.683 100.161,42.233 94.8806,54.6976 103.85,57.189 98.2477,65.2459 91.7755,60.7431 93.7987,64.8651 86.598,68.5728 80.485,47.8329 86.0624,46.8288 "/>
  <path class="fil5 str4" d="M23.6227 78.8678c-3.0577,0.4633 -5.0596,-0.9023 -6.0058,-4.1068 -0.1176,-0.4093 -0.2201,-0.8534 -0.2975,-1.3274 -0.762,-4.1306 3.1689,-7.8544 11.7882,-11.1763l3.5394 6.9506c-0.4791,0.1272 -0.9283,0.2546 -1.3476,0.3821 -3.3793,0.9952 -5.0632,1.8441 -5.0467,2.552 -0.0052,0.0498 -0.0005,0.0997 0.0142,0.1447 0.1961,0.6638 1.911,0.6025 5.1496,-0.189 3.3586,-0.8208 5.6481,0.8403 6.8688,4.9733l0.0832 0.2945c1.1997,4.3672 -2.9258,8.0999 -12.3613,11.1935l-5.1399 -6.8538c2.2649,-0.4075 4.0312,-0.7926 5.3041,-1.1701 1.5573,-0.4558 2.372,-0.8954 2.4438,-1.3137 0.0003,-0.0599 -0.0044,-0.1197 -0.0241,-0.1746 -0.1716,-0.579 -1.8261,-0.637 -4.9684,-0.179z"/>
  <path class="fil5 str4" d="M52.0502 78.9092c-3.2744,0.9657 -6.3738,0.7909 -9.293,-0.5293 -2.9193,-1.3153 -4.7981,-3.403 -5.6412,-6.2583 -0.8432,-2.8551 -0.3959,-5.6291 1.3469,-8.317 1.7379,-2.6929 4.2489,-4.5197 7.5234,-5.4854 3.2694,-0.9608 6.3638,-0.7861 9.283,0.5342 2.9194,1.3153 4.7981,3.4031 5.6413,6.2582 0.8382,2.8551 0.3909,5.6292 -1.3469,8.3171 -1.7379,2.6879 -4.244,4.5147 -7.5135,5.4805zm-2.8719 -6.8726c1.2229,-0.3577 2.1534,-1.031 2.7911,-2.0148 0.638,-0.9836 0.8074,-1.9797 0.5083,-2.9881 -0.2941,-1.0082 -0.9782,-1.7542 -2.0475,-2.238 -1.0692,-0.4788 -2.2203,-0.5393 -3.4432,-0.1814 -1.228,0.3627 -2.1633,1.0409 -2.8062,2.0246 -0.6379,0.9838 -0.8073,1.9798 -0.5082,2.9881 0.2941,1.0083 0.9783,1.7544 2.0475,2.2331 1.0743,0.4838 2.2253,0.5393 3.4582,0.1765z"/>
  <path class="fil5 str4" d="M84.4896 65.5713c-2.9471,3.295 -5.9281,5.3837 -8.9429,6.2759 -3.0249,0.8922 -5.9241,0.5639 -8.6977,-0.9849 -2.7786,-1.5439 -4.6163,-3.8557 -5.5233,-6.9256 -0.902,-3.0747 -0.6083,-6.009 0.8858,-8.8077 1.4942,-2.7988 3.7512,-4.6468 6.776,-5.534 3.0149,-0.8922 5.9142,-0.5639 8.6927,0.9849 1.3919,0.7645 2.6723,1.8823 3.8314,3.3434l-6.5404 4.2442c-0.5393,-0.7952 -1.1147,-1.3662 -1.7211,-1.7031 -1.019,-0.5633 -2.0701,-0.6831 -3.1632,-0.3595 -1.0932,0.3185 -1.9139,0.9974 -2.4623,2.0264 -0.5484,1.029 -0.6584,2.1051 -0.3299,3.2231 0.3283,1.1232 1.007,1.9639 2.0261,2.5322 1.0189,0.5682 2.075,0.6881 3.1681,0.3694 1.8562,-0.4145 3.7372,-1.8257 5.6481,-4.2236l6.3526 5.5389z"/>
  <polygon class="fil5 str4" points="88.2192,52.1725 89.9607,43.683 100.161,42.233 94.8806,54.6976 103.85,57.189 98.2477,65.2459 91.7755,60.7431 93.7987,64.8651 86.598,68.5728 80.485,47.8329 86.0624,46.8288 "/>
  <path class="fil6" d="M50.0063 97.5021c0.0198,0.4625 -0.2635,0.9138 -0.8499,1.3539 -0.5864,0.4401 -1.3019,0.7907 -2.1468,1.0518 -0.8448,0.261 -1.6846,0.4214 -2.5195,0.4811 -1.5704,0.0895 -2.8874,-0.2238 -3.9508,-0.9399 -1.0636,-0.7161 -1.7543,-1.7007 -2.0723,-2.9539 -0.1193,-0.4177 -0.2187,-1.1562 -0.2982,-2.2154 -0.0795,-1.0592 -0.0447,-2.2938 0.1044,-3.7036 0.149,-1.4098 0.482,-2.4429 0.9988,-3.0993 0.0399,-0.0597 0.1342,-0.1828 0.2833,-0.3693 0.1491,-0.1864 0.2634,-0.3319 0.343,-0.4363 0.0794,-0.1045 0.1937,-0.2499 0.3428,-0.4364 0.1491,-0.1865 0.2882,-0.3357 0.4175,-0.4476 0.1292,-0.1119 0.2783,-0.2424 0.4473,-0.3916 0.1689,-0.1492 0.3379,-0.2685 0.5068,-0.358 0.169,-0.0895 0.3578,-0.1791 0.5666,-0.2686 0.2086,-0.0895 0.4223,-0.1566 0.641,-0.2014 0.2187,-0.0447 0.4473,-0.0671 0.6858,-0.0671 2.5047,0 4.2042,0.358 5.0987,1.0741 0.2784,0.2387 0.5169,0.7087 0.7157,1.4099 0.1988,0.7011 0.2982,1.3314 0.2982,1.8909 0,0.5594 -0.0696,0.9436 -0.2088,1.1525 -0.2584,0.1939 -0.9939,0.3692 -2.2064,0.5258 -1.2127,0.1567 -1.9282,0.138 -2.1468,-0.0559 -0.0994,-0.0895 -0.1839,-0.2648 -0.2536,-0.5259 -0.0696,-0.2611 -0.149,-0.4736 -0.2385,-0.6378 -0.0894,-0.1641 -0.2236,-0.2312 -0.4025,-0.2014 -0.2385,0.0299 -0.5169,1.2756 -0.8349,3.7372 -0.0397,0.3879 -0.0447,0.7496 -0.015,1.0853 0.0299,0.3357 0.0896,0.6415 0.179,0.9175 0.0894,0.276 0.1988,0.5184 0.328,0.7273 0.1291,0.2088 0.2684,0.3804 0.4175,0.5147 0.1489,0.1342 0.2931,0.235 0.4322,0.3021 0.1393,0.0671 0.2585,0.0932 0.3579,0.0783 0.2385,-0.0149 0.487,-0.1193 0.7454,-0.3133 0.2585,-0.1939 0.4721,-0.3991 0.6411,-0.6154 0.169,-0.2163 0.3627,-0.4289 0.5814,-0.6378 0.2186,-0.2088 0.4076,-0.3356 0.5665,-0.3804 0.1591,-0.0447 0.3778,0.0522 0.656,0.2909 0.2783,0.2387 0.5467,0.5296 0.8051,0.8728 0.2585,0.3431 0.482,0.69 0.6708,1.0406 0.189,0.3505 0.2933,0.6004 0.3132,0.7496z"/>
  <path class="fil6" d="M63.3048 92.7804c0.0397,0.2536 0.0696,0.5333 0.0894,0.8391 0.02,0.3059 0.02,0.7087 0,1.2084 -0.0198,0.4998 -0.0695,0.9772 -0.1491,1.4322 -0.0794,0.4551 -0.2335,0.9325 -0.4621,1.4322 -0.2286,0.4998 -0.5119,0.9324 -0.8498,1.298 -0.3379,0.3655 -0.7901,0.6713 -1.3567,0.9175 -0.5665,0.2461 -1.2274,0.3841 -1.9828,0.4139 -1.9281,0.0597 -3.5781,-0.1491 -4.9497,-0.6265 -1.3716,-0.4774 -2.2462,-1.201 -2.6238,-2.1707 -0.2784,-0.6863 -0.4623,-1.5553 -0.5517,-2.607 -0.0895,-1.0518 -0.005,-2.1222 0.2535,-3.2113 0.2583,-1.089 0.6956,-1.8648 1.3119,-2.3273 1.7293,-1.2979 4.2439,-1.6634 7.5437,-1.0965 0.9144,0.1641 1.7244,0.7198 2.4302,1.6671 0.7057,0.9474 1.1379,1.891 1.297,2.8309zm-6.0231 3.9161c0.2186,-0.0149 0.3926,-0.1641 0.5219,-0.4476 0.1291,-0.2834 0.2086,-0.6377 0.2385,-1.0629 0.0298,-0.4252 0.0446,-0.7795 0.0446,-1.063 0,-0.2834 0,-0.537 0,-0.7608 -0.0198,-0.3431 -0.1092,-0.6751 -0.2683,-0.9958 -0.159,-0.3208 -0.3279,-0.511 -0.5069,-0.5707 -0.1589,-0.0746 -0.3876,-0.0298 -0.6858,0.1343 -0.2982,0.1641 -0.5367,0.3879 -0.7155,0.6713 -0.179,0.2537 -0.2783,0.7087 -0.2982,1.3651 -0.0199,0.6564 0.0199,1.1636 0.1192,1.5217 0.0596,0.3879 0.2485,0.6937 0.5666,0.9175 0.3181,0.2238 0.646,0.3207 0.9839,0.2909z"/>
  <path class="fil6" d="M69.0595 89.737c0.2386,0.0745 0.4125,0.5035 0.5219,1.2867 0.1092,0.7832 0.1589,1.5776 0.1489,2.3832 -0.0098,0.8057 -0.0546,1.3651 -0.1341,1.6784 -0.0795,0.3879 -0.1193,0.9511 -0.1193,1.6895 0,0.7385 -0.0099,1.3949 -0.0297,1.9693 -0.02,0.5744 -0.1094,0.9436 -0.2684,1.1077 -0.1193,0.1343 -0.9144,0.1865 -2.3854,0.1567 -1.471,-0.0299 -2.2362,-0.1045 -2.2959,-0.2238 -0.0397,-0.0895 -0.0796,-0.2984 -0.1193,-0.6266 -0.0397,-0.3282 -0.0845,-0.8392 -0.1342,-1.5329 -0.0497,-0.6937 -0.0447,-1.5031 0.015,-2.428 0.0595,-1.1637 0.164,-2.2938 0.3131,-3.3903 0.1489,-1.0965 0.323,-1.7492 0.5218,-1.9581 0.0994,-0.0895 0.7355,-0.1491 1.9083,-0.179 1.1728,-0.0298 1.8586,-0.0074 2.0573,0.0672zm0.2386 -3.8938c0.6361,0.4774 0.8149,1.1786 0.5367,2.1035 -0.0398,0.1343 -0.1392,0.2648 -0.2982,0.3916 -0.1591,0.1268 -0.3479,0.2313 -0.5665,0.3133 -0.2187,0.0821 -0.4423,0.1529 -0.6709,0.2126 -0.2287,0.0597 -0.4523,0.1044 -0.6709,0.1343 -0.1591,0.0447 -0.4373,0.0559 -0.8349,0.0335 -0.3976,-0.0223 -0.8001,-0.0559 -1.2076,-0.1007 -0.4075,-0.0447 -0.7752,-0.1753 -1.1033,-0.3916 -0.3279,-0.2163 -0.5019,-0.5035 -0.5217,-0.8615 -0.0199,-0.5371 0.0844,-0.9996 0.3131,-1.3875 0.2285,-0.3878 0.5813,-0.634 1.0585,-0.7384 0.4373,-0.1343 1.1231,-0.1828 2.0574,-0.1455 0.9342,0.0373 1.5703,0.1828 1.9083,0.4364z"/>
  <path class="fil6" d="M81.8213 89.7817c0.318,0.5371 0.507,1.5963 0.5665,3.1777 0.0597,1.5814 0.0399,3.0247 -0.0595,4.3301 -0.0994,1.3054 -0.179,2.0327 -0.2387,2.1819 -0.0595,0.1492 -0.7155,0.2797 -1.9679,0.3916 -1.2523,0.1119 -1.9977,0.0783 -2.2363,-0.1007 -0.0397,-0.0448 -0.0944,-0.2163 -0.1639,-0.5147 -0.0696,-0.2984 -0.1193,-0.7012 -0.1491,-1.2084 -0.0299,-0.5072 -0.0348,-0.9996 -0.0149,-1.477 0.0397,-0.7011 0.0546,-1.3762 0.0447,-2.0252 -0.01,-0.6489 -0.0298,-1.1972 -0.0597,-1.6448 -0.0298,-0.4475 -0.0546,-0.6862 -0.0744,-0.716 -0.1194,-0.194 -0.343,-0.235 -0.6711,-0.1231 -0.3279,0.1119 -0.5515,0.2722 -0.6708,0.4811 -0.1193,0.179 -0.1739,1.3352 -0.1639,3.4686 0.0098,2.1334 -0.0746,3.3642 -0.2535,3.6924 -0.1193,0.1939 -0.8995,0.2648 -2.3406,0.2126 -1.4412,-0.0523 -2.2215,-0.1604 -2.3407,-0.3245 -0.0994,-0.0895 -0.1641,-0.2163 -0.1939,-0.3805 -0.0297,-0.1641 -0.0397,-0.4251 -0.0297,-0.7832 0.0098,-0.358 0.0248,-0.7235 0.0446,-1.0965 0.02,-0.373 0.0497,-0.9362 0.0896,-1.6895 0.0397,-0.7534 0.0695,-1.4882 0.0894,-2.2043 0.0198,-0.6564 0.01,-1.3091 -0.0299,-1.9581 -0.0397,-0.6489 -0.0845,-1.1561 -0.1342,-1.5217 -0.0497,-0.3655 -0.0744,-0.7049 -0.0744,-1.0182 0,-0.3132 0.0497,-0.5519 0.1491,-0.7161 0.0994,-0.1342 0.8746,-0.2237 2.3257,-0.2685 1.451,-0.0447 2.276,-0.0149 2.4748,0.0895 0.2186,0.1045 0.3329,0.2686 0.3429,0.4923 0.0099,0.2238 -0.0249,0.3991 -0.1043,0.5259 -0.0796,0.1268 -0.0697,0.2052 0.0297,0.235 0.02,-0.0298 0.0448,-0.0746 0.0746,-0.1343 0.0299,-0.0597 0.1143,-0.1641 0.2535,-0.3133 0.1391,-0.1492 0.2931,-0.2834 0.462,-0.4028 0.1691,-0.1193 0.4027,-0.2238 0.7008,-0.3133 0.2982,-0.0895 0.6162,-0.1342 0.9541,-0.1342 0.4175,0 0.8102,0.0522 1.1779,0.1566 0.3678,0.1044 0.6658,0.2238 0.8945,0.3581 0.2286,0.1342 0.4473,0.2946 0.6559,0.4811 0.2088,0.1865 0.3529,0.3394 0.4324,0.4587 0.0796,0.1194 0.1491,0.2313 0.2087,0.3357z"/>
 </g>
</svg>
