<?xml version="1.0" encoding="UTF-8"?>
<!DOCTYPE svg PUBLIC "-//W3C//DTD SVG 1.1//EN" "http://www.w3.org/Graphics/SVG/1.1/DTD/svg11.dtd">
<!-- Creator: CorelDRAW -->
<svg xmlns="http://www.w3.org/2000/svg" xml:space="preserve" width="827mm" height="365mm" style="shape-rendering:geometricPrecision; text-rendering:geometricPrecision; image-rendering:optimizeQuality; fill-rule:evenodd; clip-rule:evenodd"
viewBox="0 0 827 365">
 <defs>
  <style type="text/css">
   <![CDATA[
    .str4 {stroke:#C97A00;stroke-width:0.3528}
    .str5 {stroke:#78570A;stroke-width:0.7056}
    .str1 {stroke:#0A0B0C;stroke-width:2.8222}
    .str6 {stroke:white;stroke-width:2.8222}
    .str3 {stroke:#C97A00;stroke-width:2.8222}
    .str0 {stroke:#00923F;stroke-width:5.6444}
    .str2 {stroke:#FFF500;stroke-width:2.8222;stroke-dasharray:2 2}
    .fil5 {fill:none}
    .fil3 {fill:none;fill-rule:nonzero}
    .fil0 {fill:#FFF500}
    .fil4 {fill:#66CC00}
    .fil6 {fill:#F7A30A}
    .fil7 {fill:#FAC93D}
    .fil1 {fill:#00923F;fill-rule:nonzero}
    .fil10 {fill:#1F1A17;fill-rule:nonzero}
    .fil2 {fill:#33CC00;fill-rule:nonzero}
    .fil9 {fill:#C97A00;fill-rule:nonzero}
    .fil8 {fill:#FFCC00;fill-rule:nonzero}
   ]]>
  </style>
 </defs>
 <g id="Capa_x0020_1">
  <metadata id="CorelCorpID_0Corel-Layer"/>
  <path class="fil0 str0" d="M71.0392 35.2457l138.033 -12.0763c17.1431,-1.4998 32.4973,12.4541 34.1206,31.009l18.7824 214.684c1.6233,18.555 -11.0745,34.9631 -28.2176,36.4629l-138.033 12.0764c-17.1431,1.4998 -32.4972,-12.4541 -34.1206,-31.0091l-18.7823 -214.684c-1.6234,-18.5549 11.0744,-34.9631 28.2175,-36.4629z"/>
  <path class="fil1" d="M57.6779 111.034l18.4306 -64.2239 8.8595 -0.7698 30.863 59.8959 -9.3679 0.8279 -8.8885 -18.1837 -25.983 2.2656 -5.1849 19.4182 -8.7288 0.7698zm15.7002 -27.0868l21.0593 -1.8445 -7.988 -16.6296c-2.4399,-5.0543 -4.2845,-9.2226 -5.5336,-12.5049 -0.4501,4.052 -1.2199,8.1041 -2.3091,12.1563l-5.2286 18.8227z"/>
  <path class="fil2" d="M319.847 125.469l0 -66.3442c0,-6.531 1.6399,-12.1367 4.9197,-16.8173 3.3184,-4.6261 7.2927,-6.9392 11.923,-6.9392l1.2541 0c5.3055,0 9.8393,2.6668 13.6208,7.9733 2.0643,2.9389 3.5692,6.2044 4.5145,9.8237l16.7849 47.4314 16.7848 -47.4314c0.9454,-3.6193 2.4696,-6.8848 4.5725,-9.8237 3.7814,-5.3065 8.3152,-7.9733 13.6401,-7.9733l1.1768 0c4.669,0 8.6433,2.3131 11.9231,6.9392 3.3183,4.6806 4.9775,10.2863 4.9775,16.8173l0 66.3442 -19.2736 0 0 -56.1395c0,-0.898 -0.2508,-1.6871 -0.7331,-2.3674 -0.4823,-0.6531 -1.0612,-0.9797 -1.6978,-0.9797 -0.3473,0 -0.656,0.0816 -0.9646,0.2449 -0.2509,0.1633 -0.5016,0.4082 -0.7332,0.7348l-0.0578 0 -20.74 58.5069 -17.6916 0 -9.6658 -27.1853 -11.132 -31.3216c-0.2315,-0.3266 -0.4823,-0.5715 -0.791,-0.7348 -0.3087,-0.1633 -0.5981,-0.2449 -0.9067,-0.2449 -0.6753,0 -1.2541,0.3266 -1.7557,0.9797 -0.4437,0.6803 -0.6753,1.4694 -0.6753,2.3674l0 56.1395 -19.2736 0z"/>
  <path class="fil2" d="M493.483 105.06c1.312,0 2.4502,-0.6259 3.3956,-1.9049 0.9453,-1.3878 1.4083,-3.0206 1.4083,-4.871 0,-1.8505 -0.463,-3.456 -1.4083,-4.7894 -0.9454,-1.3334 -2.0836,-1.9865 -3.3956,-1.9865l-34.9781 0c-1.3312,0 -2.4695,0.6531 -3.4534,1.9865 -0.9068,1.3334 -1.3505,2.9389 -1.3505,4.7894 0,1.8504 0.4437,3.4832 1.3505,4.871 0.9839,1.279 2.1222,1.9049 3.4534,1.9049l34.9781 0zm-49.4478 20.4094c-2.6817,0 -4.9582,-1.3062 -6.849,-3.9186 -1.8521,-2.694 -2.7782,-5.9051 -2.7782,-9.6332l0 -27.1854c0,-3.7825 0.9261,-6.9936 2.7782,-9.6604 1.8908,-2.6396 4.1673,-3.973 6.849,-3.973l49.4478 0c2.6431,0 4.9004,1.3334 6.7911,3.973 0.1351,0.1633 0.2894,0.3538 0.4438,0.5715l0 -4.5445c0,-3.7826 -0.9647,-6.9937 -2.8747,-9.6605 -1.8907,-2.6396 -4.148,-3.973 -6.7911,-3.973l-55.4479 0 0 -20.4094 65.1137 0c5.3055,0 9.8586,2.6668 13.6208,7.9732 3.7621,5.3065 5.6528,11.7287 5.6528,19.2121l0 61.2282 -19.2736 0 0 -4.5445c-0.1544,0.2177 -0.3087,0.4354 -0.4438,0.6259 -1.8907,2.6124 -4.148,3.9186 -6.7911,3.9186l-49.4478 0z"/>
  <path class="fil2" d="M524.854 125.469l0 -20.4094 26.5085 0c2.6431,0 4.9004,-1.3062 6.7911,-3.9186 1.8714,-2.694 2.8167,-5.9051 2.8167,-9.6332l0 -54.4523 19.3316 0 0 61.2282c0,7.5379 -1.91,13.96 -5.7107,19.212 -3.7622,5.3065 -8.3153,7.9733 -13.6209,7.9733l-36.1163 0z"/>
  <path class="fil2" d="M645.357 105.06c2.6431,0 4.9197,-1.3062 6.849,-3.9186 1.8714,-2.694 2.8168,-5.9051 2.8168,-9.6332l0 -20.4094c0,-3.7826 -0.9454,-6.9937 -2.8168,-9.6605 -1.9293,-2.6396 -4.2059,-3.973 -6.849,-3.973l-26.5085 0c-2.6817,0 -4.9583,1.3334 -6.8297,3.973 -1.8907,2.6668 -2.8361,5.8779 -2.8361,9.6605l0 20.4094c0,3.7281 0.9454,6.9392 2.8361,9.6332 1.8714,2.6124 4.148,3.9186 6.8297,3.9186l26.5085 0zm-36.1743 20.4094c-5.3441,0 -9.8972,-2.6668 -13.6208,-7.9733 -3.7621,-5.3064 -5.6528,-11.7286 -5.6528,-19.212l0 -34.0429c0,-7.4834 1.8907,-13.9056 5.6528,-19.2121 3.7621,-5.3064 8.3153,-7.9732 13.6208,-7.9732l45.8401 0c5.3055,0 9.8586,2.6668 13.6208,7.9732 3.7621,5.3065 5.6528,11.7287 5.6528,19.2121l0 34.0429c0,7.5379 -1.8907,13.96 -5.6528,19.212 -3.7622,5.3065 -8.3153,7.9733 -13.6208,7.9733l-45.8401 0z"/>
  <path class="fil2" d="M739.41 71.0988c1.3119,0 2.4502,-0.6531 3.3955,-1.9866 0.9454,-1.3334 1.4084,-2.9661 1.4084,-4.871 0,-1.8505 -0.463,-3.456 -1.4084,-4.7894 -0.9453,-1.3334 -2.0836,-1.9865 -3.3955,-1.9865l-36.1743 0 0 13.6335 36.1743 0zm27.7626 81.5559l-43.4091 -61.1465 -20.5278 0 0 33.9612 -19.2736 0 0 -88.4135 69.9176 0c2.6431,0 4.9197,1.3334 6.849,3.973 1.8714,2.6668 2.8168,5.8779 2.8168,9.6605l0 27.1853c0,3.7825 -0.9454,6.9936 -2.8168,9.6332 -1.9293,2.6668 -4.2059,4.0003 -6.849,4.0003l-6.0387 0 43.4091 61.1465 -24.0775 0z"/>
  <path class="fil3 str1" d="M319.847 125.469l0 -66.3442c0,-6.531 1.6399,-12.1367 4.9197,-16.8173 3.3184,-4.6261 7.2927,-6.9392 11.923,-6.9392l1.2541 0c5.3055,0 9.8393,2.6668 13.6208,7.9733 2.0643,2.9389 3.5692,6.2044 4.5145,9.8237l16.7849 47.4314 16.7848 -47.4314c0.9454,-3.6193 2.4696,-6.8848 4.5725,-9.8237 3.7814,-5.3065 8.3152,-7.9733 13.6401,-7.9733l1.1768 0c4.669,0 8.6433,2.3131 11.9231,6.9392 3.3183,4.6806 4.9775,10.2863 4.9775,16.8173l0 66.3442 -19.2736 0 0 -56.1395c0,-0.898 -0.2508,-1.6871 -0.7331,-2.3674 -0.4823,-0.6531 -1.0612,-0.9797 -1.6978,-0.9797 -0.3473,0 -0.656,0.0816 -0.9646,0.2449 -0.2509,0.1633 -0.5016,0.4082 -0.7332,0.7348l-0.0578 0 -20.74 58.5069 -17.6916 0 -9.6658 -27.1853 -11.132 -31.3216c-0.2315,-0.3266 -0.4823,-0.5715 -0.791,-0.7348 -0.3087,-0.1633 -0.5981,-0.2449 -0.9067,-0.2449 -0.6753,0 -1.2541,0.3266 -1.7557,0.9797 -0.4437,0.6803 -0.6753,1.4694 -0.6753,2.3674l0 56.1395 -19.2736 0z"/>
  <path class="fil3 str1" d="M493.483 105.06c1.312,0 2.4502,-0.6259 3.3956,-1.9049 0.9453,-1.3878 1.4083,-3.0206 1.4083,-4.871 0,-1.8505 -0.463,-3.456 -1.4083,-4.7894 -0.9454,-1.3334 -2.0836,-1.9865 -3.3956,-1.9865l-34.9781 0c-1.3312,0 -2.4695,0.6531 -3.4534,1.9865 -0.9068,1.3334 -1.3505,2.9389 -1.3505,4.7894 0,1.8504 0.4437,3.4832 1.3505,4.871 0.9839,1.279 2.1222,1.9049 3.4534,1.9049l34.9781 0zm-49.4478 20.4094c-2.6817,0 -4.9582,-1.3062 -6.849,-3.9186 -1.8521,-2.694 -2.7782,-5.9051 -2.7782,-9.6332l0 -27.1854c0,-3.7825 0.9261,-6.9936 2.7782,-9.6604 1.8908,-2.6396 4.1673,-3.973 6.849,-3.973l49.4478 0c2.6431,0 4.9004,1.3334 6.7911,3.973 0.1351,0.1633 0.2894,0.3538 0.4438,0.5715l0 -4.5445c0,-3.7826 -0.9647,-6.9937 -2.8747,-9.6605 -1.8907,-2.6396 -4.148,-3.973 -6.7911,-3.973l-55.4479 0 0 -20.4094 65.1137 0c5.3055,0 9.8586,2.6668 13.6208,7.9732 3.7621,5.3065 5.6528,11.7287 5.6528,19.2121l0 61.2282 -19.2736 0 0 -4.5445c-0.1544,0.2177 -0.3087,0.4354 -0.4438,0.6259 -1.8907,2.6124 -4.148,3.9186 -6.7911,3.9186l-49.4478 0z"/>
  <path class="fil3 str1" d="M524.854 125.469l0 -20.4094 26.5085 0c2.6431,0 4.9004,-1.3062 6.7911,-3.9186 1.8714,-2.694 2.8167,-5.9051 2.8167,-9.6332l0 -54.4523 19.3316 0 0 61.2282c0,7.5379 -1.91,13.96 -5.7107,19.212 -3.7622,5.3065 -8.3153,7.9733 -13.6209,7.9733l-36.1163 0z"/>
  <path class="fil3 str1" d="M645.357 105.06c2.6431,0 4.9197,-1.3062 6.849,-3.9186 1.8714,-2.694 2.8168,-5.9051 2.8168,-9.6332l0 -20.4094c0,-3.7826 -0.9454,-6.9937 -2.8168,-9.6605 -1.9293,-2.6396 -4.2059,-3.973 -6.849,-3.973l-26.5085 0c-2.6817,0 -4.9583,1.3334 -6.8297,3.973 -1.8907,2.6668 -2.8361,5.8779 -2.8361,9.6605l0 20.4094c0,3.7281 0.9454,6.9392 2.8361,9.6332 1.8714,2.6124 4.148,3.9186 6.8297,3.9186l26.5085 0zm-36.1743 20.4094c-5.3441,0 -9.8972,-2.6668 -13.6208,-7.9733 -3.7621,-5.3064 -5.6528,-11.7286 -5.6528,-19.212l0 -34.0429c0,-7.4834 1.8907,-13.9056 5.6528,-19.2121 3.7621,-5.3064 8.3153,-7.9732 13.6208,-7.9732l45.8401 0c5.3055,0 9.8586,2.6668 13.6208,7.9732 3.7621,5.3065 5.6528,11.7287 5.6528,19.2121l0 34.0429c0,7.5379 -1.8907,13.96 -5.6528,19.212 -3.7622,5.3065 -8.3153,7.9733 -13.6208,7.9733l-45.8401 0z"/>
  <path class="fil3 str1" d="M739.41 71.0988c1.3119,0 2.4502,-0.6531 3.3955,-1.9866 0.9454,-1.3334 1.4084,-2.9661 1.4084,-4.871 0,-1.8505 -0.463,-3.456 -1.4084,-4.7894 -0.9453,-1.3334 -2.0836,-1.9865 -3.3955,-1.9865l-36.1743 0 0 13.6335 36.1743 0zm27.7626 81.5559l-43.4091 -61.1465 -20.5278 0 0 33.9612 -19.2736 0 0 -88.4135 69.9176 0c2.6431,0 4.9197,1.3334 6.849,3.973 1.8714,2.6668 2.8168,5.8779 2.8168,9.6605l0 27.1853c0,3.7825 -0.9454,6.9936 -2.8168,9.6332 -1.9293,2.6668 -4.2059,4.0003 -6.849,4.0003l-6.0387 0 43.4091 61.1465 -24.0775 0z"/>
  <path class="fil4 str0" d="M129.535 33.9869l138.033 12.0763c17.1431,1.4998 29.841,17.908 28.2176,36.4629l-18.7824 214.684c-1.6233,18.555 -16.9775,32.5089 -34.1206,31.0091l-138.033 -12.0764c-17.1431,-1.4998 -29.841,-17.9079 -28.2176,-36.4629l18.7823 -214.684c1.6234,-18.5549 16.9776,-32.5088 34.1207,-31.009z"/>
  <g id="_341555624">
   <g>
    <rect id="_341555288" class="fil5 str2" transform="matrix(1.36448 -1.14493 1.12585 1.34174 93.15 52.3721)" width="12.9151" height="13.134"/>
    <rect id="_341555960" class="fil5 str2" transform="matrix(1.36448 -1.14493 1.12585 1.34174 127.105 55.3428)" width="12.9151" height="13.134"/>
    <rect id="_341556008" class="fil5 str2" transform="matrix(1.36448 -1.14493 1.12585 1.34174 161.06 58.3135)" width="12.9151" height="13.134"/>
    <rect id="_341554904" class="fil5 str2" transform="matrix(1.36448 -1.14493 1.12585 1.34174 195.015 61.2842)" width="12.9151" height="13.134"/>
    <rect id="_341554712" class="fil5 str2" transform="matrix(1.36448 -1.14493 1.12585 1.34174 228.97 64.2548)" width="12.9151" height="13.134"/>
    <rect id="_341554544" class="fil5 str2" transform="matrix(1.36448 -1.14493 1.12585 1.34174 90.1793 86.327)" width="12.9151" height="13.134"/>
    <rect id="_341555024" class="fil5 str2" transform="matrix(1.36448 -1.14493 1.12585 1.34174 124.134 89.2977)" width="12.9151" height="13.134"/>
    <rect id="_341555072" class="fil5 str2" transform="matrix(1.36448 -1.14493 1.12585 1.34174 158.089 92.2684)" width="12.9151" height="13.134"/>
    <rect id="_341555192" class="fil5 str2" transform="matrix(1.36448 -1.14493 1.12585 1.34174 192.044 95.2391)" width="12.9151" height="13.134"/>
    <rect id="_341555168" class="fil5 str2" transform="matrix(1.36448 -1.14493 1.12585 1.34174 226 98.2098)" width="12.9151" height="13.134"/>
    <rect id="_341554616" class="fil5 str2" transform="matrix(1.36448 -1.14493 1.12585 1.34174 87.2086 120.282)" width="12.9151" height="13.134"/>
    <rect id="_341554568" class="fil5 str2" transform="matrix(1.36448 -1.14493 1.12585 1.34174 121.164 123.253)" width="12.9151" height="13.134"/>
    <rect id="_341554856" class="fil5 str2" transform="matrix(1.36448 -1.14493 1.12585 1.34174 155.119 126.224)" width="12.9151" height="13.134"/>
    <rect id="_341554112" class="fil5 str2" transform="matrix(1.36448 -1.14493 1.12585 1.34174 189.074 129.194)" width="12.9151" height="13.134"/>
    <rect id="_341553824" class="fil5 str2" transform="matrix(1.36448 -1.14493 1.12585 1.34174 223.029 132.165)" width="12.9151" height="13.134"/>
    <rect id="_341554400" class="fil5 str2" transform="matrix(1.36448 -1.14493 1.12585 1.34174 84.2379 154.237)" width="12.9151" height="13.134"/>
    <rect id="_341554496" class="fil5 str2" transform="matrix(1.36448 -1.14493 1.12585 1.34174 118.193 157.208)" width="12.9151" height="13.134"/>
    <rect id="_341554376" class="fil5 str2" transform="matrix(1.36448 -1.14493 1.12585 1.34174 152.148 160.179)" width="12.9151" height="13.134"/>
    <rect id="_341553920" class="fil5 str2" transform="matrix(1.36448 -1.14493 1.12585 1.34174 186.103 163.149)" width="12.9151" height="13.134"/>
    <rect id="_341553896" class="fil5 str2" transform="matrix(1.36448 -1.14493 1.12585 1.34174 220.058 166.12)" width="12.9151" height="13.134"/>
    <rect id="_341554040" class="fil5 str2" transform="matrix(1.36448 -1.14493 1.12585 1.34174 81.2672 188.192)" width="12.9151" height="13.134"/>
    <rect id="_341553872" class="fil5 str2" transform="matrix(1.36448 -1.14493 1.12585 1.34174 115.222 191.163)" width="12.9151" height="13.134"/>
    <rect id="_341554232" class="fil5 str2" transform="matrix(1.36448 -1.14493 1.12585 1.34174 149.177 194.134)" width="12.9151" height="13.134"/>
    <rect id="_341554280" class="fil5 str2" transform="matrix(1.36448 -1.14493 1.12585 1.34174 183.132 197.104)" width="12.9151" height="13.134"/>
    <rect id="_341553032" class="fil5 str2" transform="matrix(1.36448 -1.14493 1.12585 1.34174 217.087 200.075)" width="12.9151" height="13.134"/>
    <rect id="_341553728" class="fil5 str2" transform="matrix(1.36448 -1.14493 1.12585 1.34174 78.2966 222.147)" width="12.9151" height="13.134"/>
    <rect id="_341553680" class="fil5 str2" transform="matrix(1.36448 -1.14493 1.12585 1.34174 112.252 225.118)" width="12.9151" height="13.134"/>
    <rect id="_341553656" class="fil5 str2" transform="matrix(1.36448 -1.14493 1.12585 1.34174 146.207 228.088)" width="12.9151" height="13.134"/>
    <rect id="_341553488" class="fil5 str2" transform="matrix(1.36448 -1.14493 1.12585 1.34174 180.162 231.059)" width="12.9151" height="13.134"/>
    <rect id="_341553584" class="fil5 str2" transform="matrix(1.36448 -1.14493 1.12585 1.34174 214.117 234.03)" width="12.9151" height="13.134"/>
    <rect id="_341553080" class="fil5 str2" transform="matrix(1.36448 -1.14493 1.12585 1.34174 75.3258 256.103)" width="12.9151" height="13.134"/>
    <rect id="_341553320" class="fil5 str2" transform="matrix(1.36448 -1.14493 1.12585 1.34174 109.281 259.074)" width="12.9151" height="13.134"/>
    <rect id="_341553536" class="fil5 str2" transform="matrix(1.36448 -1.14493 1.12585 1.34174 143.236 262.044)" width="12.9151" height="13.134"/>
    <rect id="_341553248" class="fil5 str2" transform="matrix(1.36448 -1.14493 1.12585 1.34174 177.191 265.015)" width="12.9151" height="13.134"/>
    <rect id="_341553272" class="fil5 str2" transform="matrix(1.36448 -1.14493 1.12585 1.34174 211.146 267.986)" width="12.9151" height="13.134"/>
    <rect id="_341552912" class="fil5 str2" transform="matrix(1.36448 -1.14493 1.12585 1.34174 72.3552 290.057)" width="12.9151" height="13.134"/>
    <rect id="_341552840" class="fil5 str2" transform="matrix(1.36448 -1.14493 1.12585 1.34174 106.31 293.028)" width="12.9151" height="13.134"/>
    <rect id="_341552480" class="fil5 str2" transform="matrix(1.36448 -1.14493 1.12585 1.34174 140.265 295.998)" width="12.9151" height="13.134"/>
    <rect id="_340618000" class="fil5 str2" transform="matrix(1.36448 -1.14493 1.12585 1.34174 174.22 298.969)" width="12.9151" height="13.134"/>
    <rect id="_338763880" class="fil5 str2" transform="matrix(1.36448 -1.14493 1.12585 1.34174 208.175 301.94)" width="12.9151" height="13.134"/>
   </g>
   <g>
    <rect id="_338762296" class="fil5 str2" transform="matrix(1.36448 -1.14493 1.12585 1.34174 261.248 67.0788)" width="12.9151" height="13.134"/>
    <rect id="_338761264" class="fil5 str2" transform="matrix(1.36448 -1.14493 1.12585 1.34174 258.277 101.034)" width="12.9151" height="13.134"/>
    <rect id="_338761072" class="fil5 str2" transform="matrix(1.36448 -1.14493 1.12585 1.34174 255.307 134.989)" width="12.9151" height="13.134"/>
    <rect id="_338760256" class="fil5 str2" transform="matrix(1.36448 -1.14493 1.12585 1.34174 252.336 168.944)" width="12.9151" height="13.134"/>
    <rect id="_338760784" class="fil5 str2" transform="matrix(1.36448 -1.14493 1.12585 1.34174 249.365 202.899)" width="12.9151" height="13.134"/>
    <rect id="_338759512" class="fil5 str2" transform="matrix(1.36448 -1.14493 1.12585 1.34174 246.395 236.854)" width="12.9151" height="13.134"/>
    <rect id="_338760064" class="fil5 str2" transform="matrix(1.36448 -1.14493 1.12585 1.34174 243.424 270.81)" width="12.9151" height="13.134"/>
    <rect id="_338759080" class="fil5 str2" transform="matrix(1.36448 -1.14493 1.12585 1.34174 240.453 304.764)" width="12.9151" height="13.134"/>
   </g>
  </g>
  <ellipse class="fil6 str3" transform="matrix(1.83834 0.160834 -0.160834 1.83834 186.992 172.15)" rx="39.8976" ry="39.8977"/>
  <ellipse class="fil7 str4" transform="matrix(1.83834 0.160834 -0.160834 1.83834 186.992 172.15)" rx="32.7169" ry="32.717"/>
  <path class="fil8" d="M119.68 168.57c-5.6956,0.36 -9.1562,-2.4725 -10.3802,-8.5156 -0.1504,-0.7714 -0.2674,-1.6043 -0.3334,-2.4881 -0.7365,-7.716 7.0888,-13.9294 23.4683,-18.6499l5.3887 13.3468c-0.9012,0.1568 -1.7475,0.3188 -2.5388,0.4857 -6.3724,1.286 -9.6045,2.5758 -9.688,3.8798 -0.0176,0.0907 -0.017,0.1832 0.0028,0.2683 0.2537,1.2518 3.4162,1.4149 9.4971,0.4808 6.3063,-0.9688 10.248,2.4531 11.8274,10.2473l0.1056 0.5548c1.503,8.2214 -6.6814,14.4198 -24.5246,18.5894l-8.3466 -13.4263c4.2292,-0.3849 7.5382,-0.8087 9.9389,-1.298 2.9362,-0.5874 4.5046,-1.2645 4.7039,-2.022 0.0101,-0.11 0.0111,-0.2207 -0.0163,-0.3248 -0.2223,-1.092 -3.2545,-1.4647 -9.1048,-1.1282z"/>
  <path class="fil8" d="M171.932 173.219c-6.1748,1.2486 -11.8444,0.4288 -16.9986,-2.4677 -5.1551,-2.8875 -8.2732,-7.0276 -9.3639,-12.4122 -1.0909,-5.3843 0.1776,-10.4119 3.8137,-15.0729 3.628,-4.6709 8.5379,-7.6254 14.7129,-8.874 6.1648,-1.2405 11.8253,-0.4216 16.9794,2.4751 5.1553,2.8875 8.2732,7.0277 9.3641,12.412 1.0817,5.3835 -0.1868,10.4113 -3.8137,15.073 -3.6272,4.6618 -8.5281,7.617 -14.6939,8.8667zm-4.1742 -13.0961c2.3057,-0.4609 4.1245,-1.549 5.4551,-3.255 1.331,-1.7056 1.8027,-3.5095 1.415,-5.4114 -0.3785,-1.9007 -1.5161,-3.3822 -3.4041,-4.4435 -1.8885,-1.0522 -3.9949,-1.3486 -6.3006,-0.8873 -2.3158,0.4693 -4.1443,1.5656 -5.4843,3.2706 -1.331,1.7059 -1.8026,3.5097 -1.4149,5.4114 0.3785,1.9009 1.5163,3.3825 3.4049,4.4345 1.8971,1.0622 4.0041,1.3493 6.3289,0.8807z"/>
  <path class="fil8" d="M233.712 153.916c-5.9477,5.5833 -11.7637,8.9436 -17.4494,10.0989 -5.7043,1.1537 -10.9813,0.0839 -15.831,-3.2095 -4.8597,-3.2851 -7.8662,-7.8305 -9.0398,-13.6199 -1.1637,-5.7974 -0.1518,-11.1445 3.0449,-16.0491 3.197,-4.9049 7.6434,-7.9391 13.3467,-9.0836 5.6859,-1.1553 10.963,-0.0854 15.8218,3.2087 2.4358,1.6292 4.6098,3.8901 6.5057,6.7625l-12.7061 6.7504c-0.8636,-1.5486 -1.8295,-2.6908 -2.8901,-3.4077 -1.7827,-1.1994 -3.6957,-1.5887 -5.7572,-1.1696 -2.0609,0.4096 -3.6788,1.5257 -4.8525,3.3291 -1.1736,1.8035 -1.5489,3.7641 -1.1248,5.8722 0.4228,2.1176 1.5353,3.7722 3.3174,4.9809 1.7817,1.2084 3.7038,1.5987 5.7646,1.1886 3.479,-0.4635 7.1639,-2.7552 11.0624,-6.856l10.7874 11.2041z"/>
  <polygon class="fil8" points="242.724,129.884 247.291,114.558 266.275,113.533 254.563,135.598 270.652,141.621 259.057,155.531 247.883,146.212 250.939,154.115 237.106,159.773 229.204,120.663 239.618,119.714 "/>
  <path class="fil3 str5" d="M119.68 168.57c-5.6956,0.36 -9.1562,-2.4725 -10.3802,-8.5156 -0.1504,-0.7714 -0.2674,-1.6043 -0.3334,-2.4881 -0.7365,-7.716 7.0888,-13.9294 23.4683,-18.6499l5.3887 13.3468c-0.9012,0.1568 -1.7475,0.3188 -2.5388,0.4857 -6.3724,1.286 -9.6045,2.5758 -9.688,3.8798 -0.0176,0.0907 -0.017,0.1832 0.0028,0.2683 0.2537,1.2518 3.4162,1.4149 9.4971,0.4808 6.3063,-0.9688 10.248,2.4531 11.8274,10.2473l0.1056 0.5548c1.503,8.2214 -6.6814,14.4198 -24.5246,18.5894l-8.3466 -13.4263c4.2292,-0.3849 7.5382,-0.8087 9.9389,-1.298 2.9362,-0.5874 4.5046,-1.2645 4.7039,-2.022 0.0101,-0.11 0.0111,-0.2207 -0.0163,-0.3248 -0.2223,-1.092 -3.2545,-1.4647 -9.1048,-1.1282z"/>
  <path class="fil3 str5" d="M171.932 173.219c-6.1748,1.2486 -11.8444,0.4288 -16.9986,-2.4677 -5.1551,-2.8875 -8.2732,-7.0276 -9.3639,-12.4122 -1.0909,-5.3843 0.1776,-10.4119 3.8137,-15.0729 3.628,-4.6709 8.5379,-7.6254 14.7129,-8.874 6.1648,-1.2405 11.8253,-0.4216 16.9794,2.4751 5.1553,2.8875 8.2732,7.0277 9.3641,12.412 1.0817,5.3835 -0.1868,10.4113 -3.8137,15.073 -3.6272,4.6618 -8.5281,7.617 -14.6939,8.8667zm-4.1742 -13.0961c2.3057,-0.4609 4.1245,-1.549 5.4551,-3.255 1.331,-1.7056 1.8027,-3.5095 1.415,-5.4114 -0.3785,-1.9007 -1.5161,-3.3822 -3.4041,-4.4435 -1.8885,-1.0522 -3.9949,-1.3486 -6.3006,-0.8873 -2.3158,0.4693 -4.1443,1.5656 -5.4843,3.2706 -1.331,1.7059 -1.8026,3.5097 -1.4149,5.4114 0.3785,1.9009 1.5163,3.3825 3.4049,4.4345 1.8971,1.0622 4.0041,1.3493 6.3289,0.8807z"/>
  <path class="fil3 str5" d="M233.712 153.916c-5.9477,5.5833 -11.7637,8.9436 -17.4494,10.0989 -5.7043,1.1537 -10.9813,0.0839 -15.831,-3.2095 -4.8597,-3.2851 -7.8662,-7.8305 -9.0398,-13.6199 -1.1637,-5.7974 -0.1518,-11.1445 3.0449,-16.0491 3.197,-4.9049 7.6434,-7.9391 13.3467,-9.0836 5.6859,-1.1553 10.963,-0.0854 15.8218,3.2087 2.4358,1.6292 4.6098,3.8901 6.5057,6.7625l-12.7061 6.7504c-0.8636,-1.5486 -1.8295,-2.6908 -2.8901,-3.4077 -1.7827,-1.1994 -3.6957,-1.5887 -5.7572,-1.1696 -2.0609,0.4096 -3.6788,1.5257 -4.8525,3.3291 -1.1736,1.8035 -1.5489,3.7641 -1.1248,5.8722 0.4228,2.1176 1.5353,3.7722 3.3174,4.9809 1.7817,1.2084 3.7038,1.5987 5.7646,1.1886 3.479,-0.4635 7.1639,-2.7552 11.0624,-6.856l10.7874 11.2041z"/>
  <polygon class="fil3 str5" points="242.724,129.884 247.291,114.558 266.275,113.533 254.563,135.598 270.652,141.621 259.057,155.531 247.883,146.212 250.939,154.115 237.106,159.773 229.204,120.663 239.618,119.714 "/>
  <path class="fil9" d="M165.185 207.07c-0.038,0.8535 -0.6314,1.6375 -1.7802,2.3523 -1.1488,0.7147 -2.5205,1.2442 -4.1157,1.5883 -1.595,0.3439 -3.1647,0.5037 -4.7091,0.4792 -2.9013,-0.0881 -5.272,-0.8758 -7.1118,-2.3633 -1.84,-1.4875 -2.9514,-3.4086 -3.3345,-5.7636 -0.1521,-0.787 -0.2161,-2.1606 -0.1918,-4.1206 0.0242,-1.96 0.2867,-4.224 0.7875,-6.7917 0.5007,-2.5677 1.279,-4.4134 2.3347,-5.5369 0.0829,-0.1034 0.2761,-0.3145 0.5802,-0.6334 0.304,-0.3187 0.5376,-0.5678 0.7007,-0.7469 0.1627,-0.1793 0.3963,-0.4282 0.7003,-0.7471 0.3041,-0.3189 0.5838,-0.5708 0.8395,-0.7557 0.2556,-0.1849 0.5506,-0.4008 0.8853,-0.6479 0.3345,-0.2472 0.6644,-0.4393 0.9893,-0.5767 0.325,-0.1373 0.6865,-0.2717 1.0848,-0.4026 0.3978,-0.131 0.8015,-0.22 1.2107,-0.2672 0.4093,-0.047 0.8331,-0.0514 1.2716,-0.013 4.6045,0.4028 7.6712,1.3343 9.2004,2.7946 0.4734,0.4836 0.8362,1.386 1.0889,2.707 0.2527,1.3208 0.3341,2.4955 0.2441,3.5241 -0.09,1.0283 -0.2797,1.7234 -0.5692,2.0851 -0.5062,0.3149 -1.8865,0.5188 -4.1407,0.6117 -2.2546,0.093 -3.5669,-0.0564 -3.9376,-0.448 -0.1683,-0.1805 -0.2954,-0.5164 -0.3816,-1.0076 -0.0859,-0.4912 -0.1977,-0.8946 -0.3359,-1.2108 -0.1379,-0.3161 -0.3738,-0.461 -0.7075,-0.435 -0.4432,0.0166 -1.1554,2.2618 -2.1359,6.7359 -0.1354,0.7068 -0.2027,1.3709 -0.2021,1.9928 0.001,0.6219 0.0615,1.1937 0.1815,1.7155 0.1199,0.5217 0.2821,0.9849 0.486,1.3897 0.2037,0.4046 0.4322,0.7425 0.6847,1.0134 0.2521,0.2706 0.501,0.4791 0.7459,0.6249 0.2453,0.1457 0.4603,0.2129 0.6454,0.2015 0.4408,0.0109 0.9145,-0.141 1.4207,-0.4561 0.5064,-0.3149 0.9321,-0.6578 1.2775,-1.0282 0.3455,-0.3705 0.7358,-0.7301 1.1714,-1.079 0.4355,-0.3487 0.8033,-0.5514 1.1026,-0.6082 0.2997,-0.0566 0.6862,0.1567 1.1592,0.6403 0.4732,0.4836 0.9198,1.0615 1.3397,1.734 0.42,0.6723 0.7751,1.346 1.0658,2.0209 0.291,0.6747 0.4426,1.1509 0.4552,1.4283z"/>
  <path class="fil9" d="M190.391 200.529c0.0322,0.4726 0.0422,0.9916 0.0294,1.5569 -0.0125,0.5656 -0.0772,1.3061 -0.1944,2.2215 -0.1168,0.9156 -0.2849,1.7852 -0.5044,2.6089 -0.2192,0.8238 -0.5793,1.6767 -1.0799,2.5585 -0.5006,0.8821 -1.091,1.6318 -1.771,2.2495 -0.6799,0.6176 -1.5604,1.107 -2.6416,1.4685 -1.081,0.3613 -2.3182,0.5087 -3.7116,0.442 -3.5542,-0.2004 -6.5538,-0.8496 -8.9985,-1.9478 -2.4447,-1.0982 -3.9361,-2.5691 -4.4743,-4.4125 -0.4015,-1.3064 -0.5998,-2.9335 -0.595,-4.8813 0.0047,-1.948 0.3322,-3.9021 0.9825,-5.8627 0.65,-1.9604 1.5787,-3.3163 2.7861,-4.0674 3.3878,-2.1078 8.0692,-2.3753 14.0442,-0.8024 1.6546,0.4487 3.0543,1.6006 4.1994,3.4555 1.145,1.8552 1.7878,3.6593 1.9291,5.4128zm-11.7024 6.2304c0.4043,0.0078 0.7481,-0.2385 1.0314,-0.7389 0.2829,-0.5002 0.4861,-1.1388 0.6094,-1.9156 0.1232,-0.7769 0.2074,-1.4258 0.253,-1.947 0.0456,-0.521 0.0864,-0.9872 0.1223,-1.3986 0.0188,-0.6339 -0.0921,-1.2586 -0.333,-1.8738 -0.2407,-0.6153 -0.5206,-0.9921 -0.8401,-1.1306 -0.2801,-0.1627 -0.7077,-0.1172 -1.2823,0.1365 -0.5746,0.2538 -1.0491,0.6268 -1.4233,1.119 -0.3699,0.4376 -0.6256,1.2581 -0.7678,2.4616 -0.1421,1.2035 -0.1505,2.1423 -0.0256,2.8166 0.0472,0.7227 0.3453,1.3152 0.8941,1.7778 0.5487,0.4626 1.1359,0.6934 1.7619,0.693z"/>
  <path class="fil9" d="M201.46 195.859c0.4266,0.1754 0.6773,0.992 0.7525,2.4494 0.0747,1.4573 0.0383,2.9257 -0.1096,4.4051 -0.1476,1.4795 -0.3199,2.5007 -0.5165,3.0639 -0.2085,0.7003 -0.3723,1.7292 -0.491,3.0867 -0.1188,1.3576 -0.2426,2.5627 -0.3714,3.6154 -0.1291,1.0528 -0.3528,1.7171 -0.6715,1.9932 -0.2409,0.2277 -1.711,0.1958 -4.4104,-0.0956 -2.6994,-0.2915 -4.0941,-0.5518 -4.1847,-0.7807 -0.0586,-0.1709 -0.0983,-0.5613 -0.1185,-1.1711 -0.0202,-0.6097 -0.0204,-1.5563 -0.0002,-2.8395 0.0202,-1.2833 0.1596,-2.7704 0.4181,-4.4611 0.2966,-2.1297 0.6704,-4.1904 1.1209,-6.1822 0.4501,-1.9918 0.8751,-3.1637 1.2742,-3.5157 0.1971,-0.1486 1.376,-0.1558 3.5369,-0.0222 2.1608,0.1339 3.4179,0.2853 3.7712,0.4544zm1.0649 -7.1197c1.0925,0.9799 1.3085,2.2977 0.6483,3.9532 -0.0948,0.2405 -0.2985,0.4645 -0.6112,0.672 -0.3129,0.2075 -0.6768,0.3692 -1.0918,0.4848 -0.4153,0.1158 -0.8377,0.21 -1.2675,0.2829 -0.4301,0.073 -0.8483,0.1192 -1.255,0.139 -0.2997,0.0566 -0.8129,0.0325 -1.5402,-0.0727 -0.7274,-0.1049 -1.4619,-0.2314 -2.2038,-0.3793 -0.7419,-0.1477 -1.3969,-0.4469 -1.9653,-0.8973 -0.568,-0.4504 -0.8416,-1.0064 -0.8205,-1.6677 0.0498,-0.9906 0.316,-1.824 0.7988,-2.5003 0.4824,-0.6762 1.1706,-1.072 2.0646,-1.1872 0.8255,-0.1766 2.0941,-0.1554 3.8056,0.0634 1.7114,0.2188 2.8574,0.5886 3.438,1.1092z"/>
  <path class="fil9" d="M224.913 197.994c0.4982,1.0386 0.6753,3.0161 0.5304,5.9329 -0.1446,2.9167 -0.4131,5.5668 -0.8058,7.9506 -0.3927,2.3838 -0.656,3.708 -0.7898,3.9727 -0.1333,0.2647 -1.3603,0.3991 -3.6806,0.4034 -2.3202,0.0043 -3.6851,-0.1774 -4.0949,-0.5448 -0.0658,-0.0888 -0.1388,-0.4128 -0.2185,-0.9726 -0.08,-0.5597 -0.1066,-1.3082 -0.0798,-2.2454 0.0266,-0.9372 0.0968,-1.8432 0.2102,-2.7176 0.1857,-1.2825 0.3217,-2.5212 0.4079,-3.7159 0.086,-1.1945 0.1377,-2.2056 0.1548,-3.0333 0.0172,-0.8274 0.01,-1.2702 -0.0217,-1.3282 -0.1882,-0.3758 -0.5927,-0.4872 -1.2139,-0.3342 -0.6208,0.1529 -1.0576,0.4117 -1.3105,0.7765 -0.2481,0.3099 -0.5344,2.4266 -0.8592,6.3501 -0.3251,3.9235 -0.6782,6.1726 -1.0599,6.7472 -0.2505,0.3372 -1.6961,0.3421 -4.337,0.0143 -2.641,-0.3279 -4.0581,-0.6521 -4.2508,-0.973 -0.1683,-0.1805 -0.2669,-0.424 -0.2953,-0.7306 -0.0282,-0.3065 -0.0046,-0.7879 0.0714,-1.4446 0.0756,-0.6566 0.162,-1.3261 0.2584,-2.0086 0.0967,-0.6825 0.2419,-1.713 0.4364,-3.0914 0.1942,-1.3787 0.3671,-2.7247 0.5189,-4.0379 0.1419,-1.2035 0.2289,-2.405 0.2599,-3.6045 0.0314,-1.1993 0.0306,-2.1389 -0.0019,-2.819 -0.0326,-0.6799 -0.0234,-1.3078 0.027,-1.8838 0.0503,-0.5757 0.1801,-1.0065 0.3892,-1.2924 0.2044,-0.2307 1.6438,-0.2706 4.3187,-0.1196 2.6746,0.1512 4.1864,0.3387 4.5351,0.5626 0.385,0.2273 0.5688,0.5473 0.5512,0.9602 -0.0178,0.413 -0.11,0.7297 -0.2763,0.95 -0.1668,0.2203 -0.1612,0.366 0.0168,0.4368 0.0415,-0.0516 0.0943,-0.13 0.1587,-0.2349 0.0646,-0.105 0.2365,-0.2833 0.5164,-0.5352 0.2797,-0.2519 0.5844,-0.4738 0.9141,-0.6662 0.3301,-0.1921 0.7763,-0.3466 1.3387,-0.4632 0.5626,-0.1166 1.1544,-0.1476 1.7756,-0.0933 0.7675,0.0672 1.481,0.2263 2.1402,0.4774 0.6593,0.251 1.1879,0.5185 1.5868,0.8021 0.3986,0.2835 0.7749,0.6136 1.1283,0.99 0.3539,0.3764 0.5942,0.6806 0.7212,0.9127 0.1271,0.2323 0.2369,0.4492 0.3296,0.6507z"/>
  <path class="fil10" d="M329.12 312.317c-7.7271,0 -14.3105,-3.5944 -19.6945,-10.7466 -5.4396,-7.1523 -8.1734,-15.8083 -8.1734,-25.8947l0 -45.8842c0,-10.0864 2.7338,-18.7424 8.1734,-25.8946 5.4398,-7.1522 12.0232,-10.7467 19.6945,-10.7467l73.2266 0 0 27.5085 -59.2507 0c-3.8776,0 -7.1693,1.7972 -9.8751,5.355 -2.7339,3.5944 -4.1008,7.9224 -4.1008,13.0207l0 27.5085c0,5.0249 1.3669,9.3529 4.1008,12.984 2.7058,3.5211 5.9975,5.2816 9.8751,5.2816l59.2507 0 0 27.5085 -73.2266 0z"/>
  <path class="fil10" d="M496.495 284.808c1.897,0 3.5428,-0.8436 4.9097,-2.5674 1.3669,-1.8706 2.0364,-4.0713 2.0364,-6.5654 0,-2.4941 -0.6695,-4.6581 -2.0364,-6.4553 -1.3669,-1.7973 -3.0127,-2.6775 -4.9097,-2.6775l-50.5751 0c-1.9248,0 -3.5707,0.8802 -4.9934,2.6775 -1.3111,1.7972 -1.9527,3.9612 -1.9527,6.4553 0,2.4941 0.6416,4.6948 1.9527,6.5654 1.4227,1.7238 3.0686,2.5674 4.9934,2.5674l50.5751 0zm-71.497 27.5085c-3.8776,0 -7.1693,-1.7605 -9.903,-5.2816 -2.678,-3.6311 -4.017,-7.9592 -4.017,-12.984l0 -36.6413c0,-5.0983 1.339,-9.4263 4.017,-13.0207 2.7337,-3.5578 6.0254,-5.355 9.903,-5.355l71.497 0c3.8217,0 7.0856,1.7972 9.8193,5.355 0.1953,0.22 0.4185,0.4768 0.6416,0.7702l0 -6.1252c0,-5.0983 -1.3947,-9.4263 -4.1564,-13.0207 -2.7339,-3.5578 -5.9976,-5.355 -9.8194,-5.355l-80.1726 0 0 -27.5085 94.1484 0c7.6714,0 14.2548,3.5945 19.6945,10.7467 5.4397,7.1522 8.1735,15.8082 8.1735,25.8946l0 82.5255 -27.868 0 0 -6.1252c-0.2231,0.2934 -0.4463,0.5868 -0.6416,0.8436 -2.7337,3.5211 -5.9976,5.2816 -9.8193,5.2816l-71.497 0z"/>
  <path class="fil10" d="M628.973 239.034c1.8969,0 3.5428,-0.8803 4.9097,-2.6775 1.3669,-1.7972 2.0364,-3.9979 2.0364,-6.5654 0,-2.4941 -0.6695,-4.6581 -2.0364,-6.4553 -1.3669,-1.7972 -3.0128,-2.6775 -4.9097,-2.6775l-52.3047 0 0 18.3757 52.3047 0zm40.1421 109.924l-62.7656 -82.4154 -29.6812 0 0 45.7741 -27.8679 0 0 -119.167 101.095 0c3.8217,0 7.1134,1.7973 9.903,5.355 2.706,3.5945 4.0728,7.9225 4.0728,13.0207l0 36.6413c0,5.0982 -1.3668,9.4262 -4.0728,12.984 -2.7896,3.5945 -6.0813,5.3917 -9.903,5.3917l-8.7314 0 62.7657 82.4154 -34.8141 0z"/>
  <path class="fil10" d="M750.989 284.808c3.8217,0 7.0855,-1.7605 9.8193,-5.2816 2.7059,-3.6311 4.0728,-7.9591 4.0728,-12.984l0 -27.5085c0,-5.0983 -1.3669,-9.4263 -4.0728,-13.0207 -2.7338,-3.5578 -5.9976,-5.355 -9.8193,-5.355l-45.3587 0 0 64.1498 45.3587 0zm-73.2266 27.5085l0 -119.167 87.1187 0c7.7271,0 14.3105,3.5945 19.6945,10.7467 5.4955,7.1522 8.2571,15.8082 8.2571,25.8946l0 45.8842c0,10.1598 -2.7616,18.8158 -8.2571,25.8947 -5.4397,7.1522 -12.0231,10.7466 -19.6945,10.7466l-87.1187 0z"/>
  <path class="fil3 str6" d="M329.12 312.317c-7.7271,0 -14.3105,-3.5944 -19.6945,-10.7466 -5.4396,-7.1523 -8.1734,-15.8083 -8.1734,-25.8947l0 -45.8842c0,-10.0864 2.7338,-18.7424 8.1734,-25.8946 5.4398,-7.1522 12.0232,-10.7467 19.6945,-10.7467l73.2266 0 0 27.5085 -59.2507 0c-3.8776,0 -7.1693,1.7972 -9.8751,5.355 -2.7339,3.5944 -4.1008,7.9224 -4.1008,13.0207l0 27.5085c0,5.0249 1.3669,9.3529 4.1008,12.984 2.7058,3.5211 5.9975,5.2816 9.8751,5.2816l59.2507 0 0 27.5085 -73.2266 0z"/>
  <path class="fil3 str6" d="M496.495 284.808c1.897,0 3.5428,-0.8436 4.9097,-2.5674 1.3669,-1.8706 2.0364,-4.0713 2.0364,-6.5654 0,-2.4941 -0.6695,-4.6581 -2.0364,-6.4553 -1.3669,-1.7973 -3.0127,-2.6775 -4.9097,-2.6775l-50.5751 0c-1.9248,0 -3.5707,0.8802 -4.9934,2.6775 -1.3111,1.7972 -1.9527,3.9612 -1.9527,6.4553 0,2.4941 0.6416,4.6948 1.9527,6.5654 1.4227,1.7238 3.0686,2.5674 4.9934,2.5674l50.5751 0zm-71.497 27.5085c-3.8776,0 -7.1693,-1.7605 -9.903,-5.2816 -2.678,-3.6311 -4.017,-7.9592 -4.017,-12.984l0 -36.6413c0,-5.0983 1.339,-9.4263 4.017,-13.0207 2.7337,-3.5578 6.0254,-5.355 9.903,-5.355l71.497 0c3.8217,0 7.0856,1.7972 9.8193,5.355 0.1953,0.22 0.4185,0.4768 0.6416,0.7702l0 -6.1252c0,-5.0983 -1.3947,-9.4263 -4.1564,-13.0207 -2.7339,-3.5578 -5.9976,-5.355 -9.8194,-5.355l-80.1726 0 0 -27.5085 94.1484 0c7.6714,0 14.2548,3.5945 19.6945,10.7467 5.4397,7.1522 8.1735,15.8082 8.1735,25.8946l0 82.5255 -27.868 0 0 -6.1252c-0.2231,0.2934 -0.4463,0.5868 -0.6416,0.8436 -2.7337,3.5211 -5.9976,5.2816 -9.8193,5.2816l-71.497 0z"/>
  <path class="fil3 str6" d="M628.973 239.034c1.8969,0 3.5428,-0.8803 4.9097,-2.6775 1.3669,-1.7972 2.0364,-3.9979 2.0364,-6.5654 0,-2.4941 -0.6695,-4.6581 -2.0364,-6.4553 -1.3669,-1.7972 -3.0128,-2.6775 -4.9097,-2.6775l-52.3047 0 0 18.3757 52.3047 0zm40.1421 109.924l-62.7656 -82.4154 -29.6812 0 0 45.7741 -27.8679 0 0 -119.167 101.095 0c3.8217,0 7.1134,1.7973 9.903,5.355 2.706,3.5945 4.0728,7.9225 4.0728,13.0207l0 36.6413c0,5.0982 -1.3668,9.4262 -4.0728,12.984 -2.7896,3.5945 -6.0813,5.3917 -9.903,5.3917l-8.7314 0 62.7657 82.4154 -34.8141 0z"/>
  <path class="fil3 str6" d="M750.989 284.808c3.8217,0 7.0855,-1.7605 9.8193,-5.2816 2.7059,-3.6311 4.0728,-7.9591 4.0728,-12.984l0 -27.5085c0,-5.0983 -1.3669,-9.4263 -4.0728,-13.0207 -2.7338,-3.5578 -5.9976,-5.355 -9.8193,-5.355l-45.3587 0 0 64.1498 45.3587 0zm-73.2266 27.5085l0 -119.167 87.1187 0c7.7271,0 14.3105,3.5945 19.6945,10.7467 5.4955,7.1522 8.2571,15.8082 8.2571,25.8946l0 45.8842c0,10.1598 -2.7616,18.8158 -8.2571,25.8947 -5.4397,7.1522 -12.0231,10.7466 -19.6945,10.7466l-87.1187 0z"/>
 </g>
</svg>
