<?xml version="1.0" encoding="UTF-8"?>
<!DOCTYPE svg PUBLIC "-//W3C//DTD SVG 1.1//EN" "http://www.w3.org/Graphics/SVG/1.1/DTD/svg11.dtd">
<!-- Creator: CorelDRAW -->
<svg xmlns="http://www.w3.org/2000/svg" xml:space="preserve" width="420mm" height="420mm" style="shape-rendering:geometricPrecision; text-rendering:geometricPrecision; image-rendering:optimizeQuality; fill-rule:evenodd; clip-rule:evenodd"
viewBox="0 0 420 420">
 <defs>
  <style type="text/css">
   <![CDATA[
    .str0 {stroke:#1F1A17;stroke-width:0.0762}
    .fil3 {fill:#0A0B0C}
    .fil0 {fill:#969594}
    .fil1 {fill:#FF3300}
    .fil2 {fill:yellow}
   ]]>
  </style>
 </defs>
 <g id="Capa_x0020_1">
  <metadata id="CorelCorpID_0Corel-Layer"/>
  <g id="_273990544">
   <path id="_218240672" class="fil0 str0" d="M209.312 93.6396l0 0.025c-28.7935,1.1085 -53.9523,5.9769 -75.2462,17.5377 -7.2265,5.2674 -12.8684,11.4859 -16.1939,19.0943l0.3509 43.6244c5.3144,5.4298 9.7282,10.1161 14.7621,13.5855 9.2816,6.532 23.3185,10.5118 38.5444,12.8831 4.4604,-0.0092 7.5218,-1.137 9.1846,-3.3838 12.485,-17.8131 21.875,-25.8774 28.9218,-26.5607 7.0468,0.6833 16.437,8.7476 28.922,26.5607 1.6628,2.2468 4.7242,3.3746 9.1846,3.3838 15.2259,-2.3713 29.2628,-6.3511 38.5444,-12.8831 5.0339,-3.4694 9.4477,-8.1557 14.7621,-13.5855l0.3509 -43.6244c-3.3255,-7.6084 -8.9674,-13.8269 -16.1939,-19.0943 -21.2939,-11.5608 -46.4527,-16.4292 -75.2462,-17.5377l0 -0.025 -0.3238 0.0125 -0.3238 -0.0125z"/>
   <path id="_218240888" class="fil1 str0" d="M209.96 103.769l-0.3238 0.0327 -0.3238 -0.0327 0 0.0654 -33.2499 3.3554 -3.4208 -2.0311c-19.8635,1.3025 -32.9788,9.3533 -41.4772,22.0214l0.7483 40.4082c1.4304,16.205 13.6242,23.8624 31.8562,26.725 3.8484,0.3035 8.5433,-1.1796 12.18,-6.36 13.6097,-18.0861 24.4807,-27.7994 33.3634,-27.5609l0 0.0336c0.1076,-0.0089 0.2158,-0.015 0.3239,-0.0209 0.1081,0.0059 0.2161,0.012 0.3237,0.0209l0 -0.0336c8.8827,-0.2386 19.7537,9.4747 33.3634,27.5609 3.6367,5.1804 8.3316,6.6635 12.18,6.36 18.232,-2.8626 30.4258,-10.52 31.8562,-26.725l0.7483 -40.4082c-8.4984,-12.6681 -21.6137,-20.7189 -41.4772,-22.0214l-3.4208 2.0311 -33.2499 -3.3554 0 -0.0654z"/>
   <path id="_218240960" class="fil2 str0" d="M179.205 105.159c-17.1552,1.3025 -28.4822,9.3533 -35.8219,22.0214l0.6463 40.4082c1.2353,16.205 11.7665,23.8624 27.5126,26.725 2.4928,0.2276 5.3968,-0.5498 8.0181,-3.1381 0.8737,-0.8627 -1.135,1.6284 -0.3499,0.3333l-0.0052 -86.3498z"/>
   <path id="_218240984" class="fil2 str0" d="M243.106 105.159c17.1552,1.3025 28.4822,9.3533 35.8219,22.0214l-0.6463 40.4082c-1.2353,16.205 -11.7665,23.8624 -27.5126,26.725 -2.4928,0.2276 -5.3968,-0.5498 -8.0181,-3.1381 -0.8737,-0.8627 1.135,1.6284 0.3499,0.3333l0.0052 -86.3498z"/>
   <path id="_218241056" class="fil3 str0" d="M141.069 119.699l0.0603 2.9472c6.9046,-5.5164 14.9248,-8.7353 24.1857,-11.0553l0.2693 -2.5441c-8.9585,2.3345 -17.2851,4.9463 -24.5153,10.6522z"/>
   <path id="_218239976" class="fil3 str0" d="M278.203 119.699l-0.0603 2.9472c-6.9046,-5.5164 -14.9248,-8.7353 -24.1857,-11.0553l-0.2693 -2.5441c8.9585,2.3345 17.2851,4.9463 24.5153,10.6522z"/>
   <g>
    <rect id="_218239904" class="fil3 str0" x="120.914" y="132.366" width="2.1846" height="39.9186"/>
    <rect id="_218250248" class="fil3 str0" x="296.174" y="132.366" width="2.1846" height="39.9186"/>
   </g>
  </g>
 </g>
</svg>
