<?xml version="1.0" encoding="UTF-8"?>
<!DOCTYPE svg PUBLIC "-//W3C//DTD SVG 1.1//EN" "http://www.w3.org/Graphics/SVG/1.1/DTD/svg11.dtd">
<!-- Creator: CorelDRAW -->
<svg xmlns="http://www.w3.org/2000/svg" xml:space="preserve" width="420mm" height="420mm" style="shape-rendering:geometricPrecision; text-rendering:geometricPrecision; image-rendering:optimizeQuality; fill-rule:evenodd; clip-rule:evenodd"
viewBox="0 0 420 420">
 <defs>
  <style type="text/css">
   <![CDATA[
    .str0 {stroke:#1F1A17;stroke-width:0.0762}
    .fil0 {fill:#0A0B0C}
    .fil1 {fill:#383431}
    .fil2 {fill:#605D5C}
   ]]>
  </style>
 </defs>
 <g id="Capa_x0020_1">
  <metadata id="CorelCorpID_0Corel-Layer"/>
  <g id="_274015768">
   <path id="_273990208" class="fil0 str0" d="M139.555 96.852c-20.4252,6.7535 -21.3296,42.3058 -2.2393,60.744 20.2236,13.0154 47.6529,1.6068 62.3048,-34.7455 4.6618,-12.0131 0.7172,-20.6794 -11.8338,-25.9985 -16.5858,-3.8986 -32.731,-4.4183 -48.2317,0z"/>
   <path id="_273990016" class="fil1 str0" d="M140.73 99.0384c-19.1519,6.3325 -19.9999,39.6685 -2.0997,56.9573 18.9629,12.2041 44.6823,1.5067 58.4209,-32.5795 4.3712,-11.2642 0.6725,-19.3903 -11.0961,-24.3778 -15.5519,-3.6556 -30.6907,-4.1429 -45.2251,0z"/>
   <path id="_273989728" class="fil2 str0" d="M125.806 122.893l25.3541 -26.0395c13.4473,-1.2232 24.9336,-0.3768 34.7953,2.1843l-52.2864 51.1132c-5.9234,-9.5363 -7.9782,-18.5451 -7.863,-27.258z"/>
   <path id="_273989368" class="fil2 str0" d="M138.63 155.996l54.1625 -53.0194c2.6913,2.2088 4.8061,4.8699 5.653,8.5257l-48.9564 48.8686c-5.0664,-0.8066 -8.516,-2.3416 -10.8591,-4.3749z"/>
   <rect id="_273986536" class="fil0 str0" x="120.06" y="123.158" width="3.6725" height="4.6813"/>
   <path id="_273986152" class="fil0 str0" d="M196.726 128.8c-0.035,-1.4212 3.1668,-2.7779 1.9328,1.9328 -1.8475,4.9989 -4.5453,8.9048 -8.0936,11.7176 -3.628,1.9501 -4.5541,1.5072 -2.7784,-1.3288 3.9875,-3.6099 6.9061,-7.7473 8.9392,-12.3216z"/>
   <path id="_273986176" class="fil0 str0" d="M179.2 95.137c19.6801,-3.5093 39.6588,-3.4361 59.9657,0.5717l-2.8393 1.2858c-17.1135,-3.2993 -36.3803,-3.2244 -53.7188,-0.2905l-3.4076 -1.567z"/>
   <path id="_218247320" class="fil0 str0" d="M200.02 107.046c1.1989,-2.709 4.2772,-3.8521 9.2348,-3.4294 4.4638,-0.303 8.1877,0.4131 9.396,4.3065l-1.3311 3.0537c0.0571,-3.93 -2.9542,-5.3928 -8.0649,-5.1678 -4.9956,-0.1689 -8.0152,1.0621 -8.1465,4.3388l-1.0883 -3.1018z"/>
   <path id="_218247272" class="fil0 str0" d="M278.536 96.852c20.4252,6.7535 21.3296,42.3058 2.2393,60.744 -20.2236,13.0154 -47.6529,1.6068 -62.3048,-34.7455 -4.6618,-12.0131 -0.7172,-20.6794 11.8338,-25.9985 16.5858,-3.8986 32.731,-4.4183 48.2317,0z"/>
   <path id="_218247920" class="fil1 str0" d="M277.361 99.0384c19.1519,6.3325 19.9999,39.6685 2.0997,56.9573 -18.9629,12.2041 -44.6823,1.5067 -58.4209,-32.5795 -4.3712,-11.2642 -0.6725,-19.3903 11.0961,-24.3778 15.5519,-3.6556 30.6907,-4.1429 45.2251,0z"/>
   <rect id="_218247992" class="fil0 str0" x="294.359" y="123.158" width="3.6725" height="4.6813"/>
   <path id="_218247824" class="fil0 str0" d="M221.365 128.8c0.035,-1.4212 -3.1668,-2.7779 -1.9328,1.9328 1.8475,4.9989 4.5453,8.9048 8.0936,11.7176 3.628,1.9501 4.5541,1.5072 2.7784,-1.3288 -3.9875,-3.6099 -6.9061,-7.7473 -8.9392,-12.3216z"/>
   <path id="_218247512" class="fil2 str0" d="M222.029 127.594l30.3812 -31.4162c12.6358,-0.15 23.3187,1.3541 30.5204,5.8069l-45.4774 45.482c-6.184,-5.7652 -11.752,-11.9863 -15.4242,-19.8727z"/>
   <path id="_274009456" class="fil2 str0" d="M243.653 152.277l44.898 -44.7911c2.0105,3.3732 3.4402,6.9577 4.1691,10.7969l-40.5151 39.6599c-3.2734,-1.3957 -6.1958,-3.2008 -8.552,-5.6657z"/>
  </g>
 </g>
</svg>
