<?xml version="1.0" encoding="UTF-8"?>
<!DOCTYPE svg PUBLIC "-//W3C//DTD SVG 1.1//EN" "http://www.w3.org/Graphics/SVG/1.1/DTD/svg11.dtd">
<!-- Creator: CorelDRAW -->
<svg xmlns="http://www.w3.org/2000/svg" xml:space="preserve" width="420mm" height="420mm" style="shape-rendering:geometricPrecision; text-rendering:geometricPrecision; image-rendering:optimizeQuality; fill-rule:evenodd; clip-rule:evenodd"
viewBox="0 0 420 420">
 <defs>
  <style type="text/css">
   <![CDATA[
    .fil1 {fill:#211919}
    .fil8 {fill:#423A3A}
    .fil4 {fill:#635A5A}
    .fil6 {fill:#737373}
    .fil3 {fill:#9C9494}
    .fil7 {fill:#ADA5A5}
    .fil0 {fill:#CECECE}
    .fil5 {fill:#DEDEDE}
    .fil2 {fill:white}
   ]]>
  </style>
 </defs>
 <g id="Capa_x0020_1">
  <metadata id="CorelCorpID_0Corel-Layer"/>
  <path class="fil0" d="M142.919 134.106c0,-0.0148 0.0149,-0.0148 0.0297,-0.0148 15.3853,-0.0297 30.7706,-0.0446 46.1558,-0.0594 0.0149,-2.1682 0.0446,-4.3215 0.0743,-6.4749 0,0 0.0148,0 0.0297,0.0149 -0.0149,2.183 -0.0297,4.3661 -0.0446,6.5491 -15.4149,-0.0149 -30.8299,-0.0149 -46.2449,-0.0149z"/>
  <path class="fil1" d="M143.023 136.558c-0.0297,-2.8614 -0.0446,-5.7227 -0.0594,-8.5645 -0.0297,-0.0196 -0.0594,-0.0392 -0.0743,-0.0588 -0.0297,-0.0392 -0.0594,-0.0588 -0.0742,-0.0784 -2.1534,-0.0196 -4.2919,-0.0392 -6.4304,-0.0588 -0.0297,-2.8613 -0.0594,-5.7227 -0.0742,-8.5644 -0.0149,0 -0.0297,0 -0.0297,0 0,-0.0392 0,-0.0784 0,-0.1176 -2.1682,0 -4.3216,0 -6.4749,0 -0.0297,-2.8614 -0.0594,-5.7227 -0.0743,-8.5645 -0.0148,-0.0392 -0.0297,-0.0784 -0.0297,-0.1176 -2.1682,-0.0196 -4.3364,-0.0196 -6.4897,-0.0196 0,-5.7619 0,-11.5042 0,-17.2465 57.1453,0 114.291,0 171.436,0 0,5.7423 0,11.4846 0,17.2465 -2.1533,0.0196 -4.3067,0.0392 -6.4451,0.0784 -0.0149,0 -0.0298,0 -0.0446,0.0196 -0.0446,0 -0.0743,0 -0.104,0 0,2.8614 0,5.7227 0,8.6037 -2.1682,0.0196 -4.3215,0.0392 -6.4748,0.0588 -0.0149,0.0196 -0.0297,0.0392 -0.0297,0.0588 -0.0297,0.0196 -0.0594,0.0391 -0.0743,0.0783 -0.0148,2.8222 -0.0297,5.6444 -0.0445,8.4861 -2.1534,0.0196 -4.3067,0.0392 -6.4452,0.0588 -0.0149,0.0196 -0.0149,0.0392 -0.0149,0.0784 -0.0297,0 -0.0594,0 -0.0742,0.0196 -0.0297,2.8614 -0.0446,5.7227 -0.0594,8.6037 -15.3556,0 -30.6963,0 -46.0371,0 -0.0148,-2.881 -0.0297,-5.7423 -0.0445,-8.6037 -0.0297,-0.0196 -0.0594,-0.0196 -0.0743,-0.0196 -0.0148,-0.0392 -0.0297,-0.0588 -0.0297,-0.0784 -2.1533,-0.0196 -4.2918,-0.0392 -6.4303,-0.0588 -0.0148,-2.8417 -0.0297,-5.6639 -0.0446,-8.4861 -0.0297,-0.0392 -0.0594,-0.0587 -0.0742,-0.0783 -0.0149,-0.0196 -0.0297,-0.0392 -0.0297,-0.0588 -2.1682,-0.0196 -4.3364,-0.0392 -6.4897,-0.0588 -0.0149,-5.7619 -0.0297,-11.5238 -0.0446,-17.2857 -0.0148,0 -0.0297,0 -0.0297,0 -0.0297,-0.0392 -0.0594,-0.0784 -0.0742,-0.098 0,-0.0588 -13.0092,-0.0588 -13.0092,0 -0.0297,0.0196 -0.0594,0.0392 -0.0743,0.0588 -0.0742,0.0588 -0.0742,0.0588 -0.0742,0.1371 -0.0297,5.7228 -0.0446,11.4455 -0.0594,17.1878 -2.1682,0 -4.3216,0 -6.4749,0 0,0.0392 0,0.0784 0,0.1176 -0.0149,0 -0.0297,0 -0.0297,0 -0.0297,2.8417 -0.0594,5.7031 -0.0743,8.5644 -2.1533,0.0196 -4.2918,0.0392 -6.4303,0.0588 -0.0149,0.0196 -0.0297,0.0392 -0.0297,0.0784 -0.0594,0 -0.0594,0 -0.104,0.098 -0.0148,2.8417 -0.0148,5.6835 -0.0148,8.5253 -15.3556,0 -30.6963,0 -46.037,0z"/>
  <path class="fil2" d="M149.527 120.949c0.1485,-0.0594 0.3564,-0.1634 0.49,-0.0297 0.3564,-0.0891 0.7426,0.0297 1.1138,-0.0594 0.0149,0.0148 0.0446,0.0297 0.0743,0.0594 0.3564,-0.0891 0.7425,0.0297 1.1138,-0.0594 0.0148,0.0148 0.0445,0.0297 0.0742,0.0594 0.3564,-0.0891 0.7426,0.0297 1.1138,-0.0594 0.0149,0.0148 0.0446,0.0297 0.0743,0.0594 0.3564,-0.0891 0.7425,0.0297 1.1138,-0.0594 0.0148,0.0148 0.0445,0.0297 0.0742,0.0594 0.401,-0.0891 0.9356,0.0742 1.292,-0.0297 0.0149,0.0148 0.0446,0.0297 0.0743,0.0594 -0.0149,2.0791 -0.0297,4.1582 -0.0297,6.2521 -0.0297,0.0742 -0.0446,0.1485 -0.0594,0.2376 -3.2374,0.0594 -3.2374,0.0594 -6.4006,0.0446 -0.2674,-0.1337 -0.1188,-5.8958 -0.1188,-6.5343z"/>
  <path class="fil2" d="M162.714 120.949c0.3862,-0.1188 0.7871,0 1.1881,-0.0891 0.0148,0.0148 0.0445,0.0297 0.0742,0.0594 0.3565,-0.0891 0.7426,0.0297 1.1138,-0.0594 0.0149,0.0148 0.0446,0.0297 0.0743,0.0594 0.3564,-0.0891 0.7425,0.0297 1.1138,-0.0594 0.0148,0.0148 0.0445,0.0297 0.0742,0.0594 0.3565,-0.0891 0.7426,0.0297 1.1138,-0.0594 0.0149,0.0148 0.0446,0.0297 0.0743,0.0594 0.3564,-0.0891 0.7425,0.0297 1.1138,-0.0594 0.0743,0.0742 0.4901,0.0148 0.6089,0.0148 0,2.1831 0.0148,4.3661 0.0297,6.564 -2.1682,0.0149 -4.3364,0.0297 -6.4898,0.0594 -0.0297,-0.0594 -0.0445,-0.1188 -0.0594,-0.1782 -0.0148,-2.1236 -0.0297,-4.2473 -0.0297,-6.3709z"/>
  <path class="fil2" d="M237.709 120.89c0,-0.0149 0,-0.0297 0,-0.0446 0.3267,0.0743 0.9504,0.104 1.3068,0.0149 0.0891,0.0891 1.6633,0.1039 2.0791,0 0.0149,0.0148 0.0446,0.0297 0.0743,0.0594 0.3564,-0.0891 0.7425,0.0297 1.1138,-0.0594 0.0148,0.0148 0.0445,0.0297 0.0742,0.0594 0.3564,-0.0891 0.7425,0.0297 1.1138,-0.0594 0.0594,0.0594 0.6386,0.0297 0.7425,0.0297 0.0149,0.0742 0.0446,0.1485 0.0743,0.2227 -0.0149,2.0643 -0.0149,4.1285 -0.0149,6.1928 -0.0594,0.0594 -0.1188,0.1188 -0.1633,0.193 -2.1237,-0.0148 -4.2473,-0.0297 -6.3709,-0.0445 -0.1931,-0.1931 -0.2377,-6.2522 -0.0297,-6.564z"/>
  <path class="fil2" d="M250.882 120.89c0,-0.0149 0,-0.0297 0,-0.0446 0.5198,0.0297 1.292,0.1337 1.7969,0.0149 0.0149,0.0148 0.0446,0.0297 0.0743,0.0594 0.3564,-0.0891 0.7425,0.0297 1.1138,-0.0594 0.0148,0.0148 0.0445,0.0297 0.0742,0.0594 0.3564,-0.0891 0.7426,0.0297 1.1138,-0.0594 0.0149,0.0148 0.0446,0.0297 0.0743,0.0594 0.3564,-0.0891 0.7425,0.0297 1.1138,-0.0594 0.0148,0.0148 0.0445,0.0297 0.0742,0.0594 0.2376,-0.0594 1.0247,-0.1337 1.1732,0.0891 -0.0445,0.0742 -0.0445,0.0742 -0.0594,6.3858 -0.0445,0.0297 -0.0891,0.0594 -0.1188,0.0891 -2.1385,-0.0149 -4.277,-0.0297 -6.4155,-0.0297 0.0149,-0.0297 0.0297,-0.0446 0.0594,-0.0594 -0.0594,-0.0297 -0.1039,-0.0446 -0.1485,-0.0594 0,-2.1088 0,-4.2176 0.0149,-6.3264 0.0148,-0.0446 0.0297,-0.0891 0.0594,-0.1188z"/>
  <path class="fil1" d="M149.527 120.949c0,-0.0297 0,-0.0446 0,-0.0594 0,-2.2128 0,-4.4255 0,-6.6234 2.1979,0.0148 4.3957,0.0297 6.6085,0.0445 -0.0297,6.3116 -0.0297,6.3116 -0.0743,6.5789 -0.3564,0.1039 -0.891,-0.0594 -1.292,0.0297 -0.0297,-0.0297 -0.0594,-0.0446 -0.0742,-0.0594 -0.3713,0.0891 -0.7574,-0.0297 -1.1138,0.0594 -0.0297,-0.0297 -0.0594,-0.0446 -0.0743,-0.0594 -0.3712,0.0891 -0.7574,-0.0297 -1.1138,0.0594 -0.0297,-0.0297 -0.0594,-0.0446 -0.0742,-0.0594 -0.3713,0.0891 -0.7574,-0.0297 -1.1138,0.0594 -0.0297,-0.0297 -0.0594,-0.0446 -0.0743,-0.0594 -0.3712,0.0891 -0.7574,-0.0297 -1.1138,0.0594 -0.1336,-0.1337 -0.3415,-0.0297 -0.49,0.0297z"/>
  <path class="fil2" d="M156.136 120.949c-0.0297,-0.0297 -0.0594,-0.0446 -0.0743,-0.0594 0.0446,-0.2673 0.0446,-0.2673 0.0743,-6.5789 0.6831,-0.1039 1.396,0.0446 2.0494,-0.0594 0.5198,0.1485 1.2029,-0.1188 1.7227,0.0446 0.8762,-0.1485 1.8711,0.0891 2.7325,-0.0446 0.0297,0.0446 0.0742,0.0891 0.1188,0.1485 -0.0149,6.3116 -0.0149,6.3116 -0.0594,6.4898 -2.1979,0.0148 -4.381,0.0297 -6.564,0.0594z"/>
  <path class="fil1" d="M237.709 120.845c-0.0297,-0.0594 -0.0446,-0.1188 -0.0594,-0.1782 -0.0149,-2.1236 -0.0149,-4.2473 -0.0149,-6.3561 0.0149,-0.0297 0.0446,-0.0594 0.0743,-0.0742 2.1681,0.0148 4.3512,0.0445 6.5342,0.0742 0.0446,0.1188 0.0446,0.1188 0.0297,6.5789 -0.0297,0 -0.0445,0 -0.0594,0 -0.1039,0 -0.6831,0.0297 -0.7425,-0.0297 -0.3713,0.0891 -0.7574,-0.0297 -1.1138,0.0594 -0.0297,-0.0297 -0.0594,-0.0446 -0.0742,-0.0594 -0.3713,0.0891 -0.7574,-0.0297 -1.1138,0.0594 -0.0297,-0.0297 -0.0594,-0.0446 -0.0743,-0.0594 -0.4158,0.1039 -1.99,0.0891 -2.0791,0 -0.3564,0.0891 -0.9801,0.0594 -1.3068,-0.0149z"/>
  <path class="fil2" d="M142.889 114.266c0,-0.0297 0,-0.0446 0,-0.0594 0.8019,0.2673 1.8712,-0.1485 2.6731,0.0891 0.3119,-0.0446 0.8911,-0.0891 1.1881,0 0.8613,-0.1485 1.9751,0.1782 2.7771,-0.0891 0,0.0148 0,0.0297 0,0.0594 0,2.1979 0,4.4106 0,6.6234 -2.1979,-0.0297 -4.3958,-0.0446 -6.5937,-0.0594 -0.0446,-0.1188 0,-0.2376 -0.0446,-6.564z"/>
  <path class="fil2" d="M231.101 114.266c0.594,0.0297 1.4851,-0.1337 2.0494,0.0297 0.594,-0.104 1.2326,0.0594 1.8266,-0.0446 0.7871,0.2228 1.8564,-0.1633 2.6583,0.0594 0,2.1088 0,4.2325 0.0149,6.3561 0.0148,0.0594 0.0297,0.1188 0.0594,0.1782 0,0.0149 0,0.0297 0,0.0446 -2.1979,-0.0297 -4.3958,-0.0446 -6.5937,-0.0594 -0.0297,-0.0446 -0.0446,-0.0743 -0.0594,-0.104 0.0148,-2.1533 0.0297,-4.3067 0.0445,-6.46z"/>
  <path class="fil2" d="M244.273 120.89c0.0149,-6.4601 0.0149,-6.4601 -0.0297,-6.5789 0.0149,-0.0148 0.0446,-0.0297 0.0743,-0.0445 0.7425,0.0445 1.9009,0.1039 2.6434,-0.0149 0.2673,0.0743 0.9059,0.0446 1.1881,0 0.787,0.2376 1.9008,-0.2227 2.6731,0.104 0.0445,0.2821 0.0148,6.3709 0.0594,6.4897 0,0.0149 0,0.0297 0,0.0446 -2.2128,0 -4.4107,0 -6.6086,0z"/>
  <path class="fil0" d="M215.434 107.776c0,-0.0148 0.0148,-0.0297 0.0297,-0.0297 0.0148,4.3513 0.0445,8.7025 0.0742,13.0686 0,0.0149 0,0.0297 0,0.0594 -0.0445,0 -0.0742,0 -0.1039,0 0,-4.3661 0,-8.7322 0,-13.0983z"/>
  <path class="fil3" d="M215.464 107.747c0,-0.0148 0,-0.0148 0,-0.0148 0.0148,-0.0149 0.0297,-0.0297 0.0445,-0.0297 0,0 0.0149,0 0.0297,0 0,4.3661 0,8.7322 0,13.1131 -0.0297,-4.3661 -0.0594,-8.7173 -0.0742,-13.0686z"/>
  <path class="fil4" d="M215.538 120.815c0,-4.3809 0,-8.747 0,-13.1131 0.0149,4.3661 0.0297,8.7322 0.0446,13.0983 -0.0149,0 -0.0149,0 -0.0149,0.0148 -0.0148,0 -0.0297,0 -0.0297,0z"/>
  <path class="fil2" d="M149.527 114.266c0,-0.0297 0,-0.0446 0,-0.0594 -0.0149,-2.0643 -0.0149,-4.1285 -0.0149,-6.1779 0.0149,-0.104 0.0446,-0.2079 0.0743,-0.3119 2.1682,0 4.3363,0 6.5194,0 0,2.1979 0.0148,4.3958 0.0297,6.5937 -2.2128,-0.0148 -4.4106,-0.0297 -6.6085,-0.0445z"/>
  <path class="fil2" d="M244.244 114.311c-2.183,-0.0297 -4.3661,-0.0594 -6.5342,-0.0742 -0.0297,-0.0594 -0.0446,-0.104 -0.0594,-0.1485 0,-2.1237 0,-4.2325 0,-6.3413 2.1681,-0.0148 4.3512,-0.0297 6.5342,-0.0297 0.0297,0.0446 0.0743,0.0891 0.1188,0.1485 0,2.1237 0,4.2622 0.0149,6.4007 -0.0297,0.0148 -0.0594,0.0297 -0.0743,0.0445z"/>
  <path class="fil2" d="M142.889 114.207c0,0.0148 0,0.0297 0,0.0594 -2.183,-0.0149 -4.3512,-0.0297 -6.5194,-0.0297 -0.0297,-0.0594 -0.0594,-0.104 -0.0891,-0.1485 0.0148,-2.1237 0.0297,-4.2473 0.0445,-6.371 2.1831,-0.0148 4.3661,-0.0148 6.5492,-0.0148 0.0148,0.0445 0.0445,0.1039 0.0742,0.1633 -0.0297,2.1088 -0.0445,4.2176 -0.0594,6.3413z"/>
  <path class="fil2" d="M231.101 114.266c-2.1979,-0.0149 -4.3958,-0.0297 -6.5788,-0.0297 -0.1782,-0.1782 -0.0743,-2.7771 -0.0297,-3.1781 -0.1485,-0.9801 0.1039,-2.0642 -0.0446,-3.0443 0.0149,-0.104 0.0297,-0.208 0.0594,-0.2971 2.1682,0 4.3364,0 6.5046,0 0.0297,2.1831 0.0594,4.3661 0.0891,6.5492z"/>
  <path class="fil5" d="M202.425 107.776c-0.0149,-0.0148 -0.0297,-0.0297 -0.0297,-0.0297 0,-0.0148 0.0148,-0.0148 0.0297,-0.0148 4.3364,0 8.6728,0 13.0092,0 0,0 0.0148,0 0.0297,0 0,0 0,0 0,0.0148 -0.0149,0 -0.0297,0.0149 -0.0297,0.0297 -4.3364,0 -8.6728,0 -13.0092,0z"/>
  <path class="fil6" d="M202.366 107.747c-0.0149,-0.0297 -0.0149,-0.0594 -0.0149,-0.0742 0.0149,-0.0149 0.0446,-0.0297 0.0743,-0.0446 4.3364,0 8.6728,0 13.0092,0 0.0148,0.0149 0.0445,0.0446 0.0742,0.0743 -0.0148,0 -0.0297,0.0148 -0.0445,0.0297 -0.0149,0 -0.0297,0 -0.0297,0 -13.0092,-0.0446 -13.0092,-0.0446 -13.0092,0 -0.0149,0 -0.0297,0 -0.0297,0.0148 -0.0149,0 -0.0297,0 -0.0297,0z"/>
  <path class="fil7" d="M202.425 107.732c0,-0.0446 0,-0.0446 13.0092,0 -4.3364,0 -8.6728,0 -13.0092,0z"/>
  <path class="fil8" d="M202.425 107.628c0,-0.0445 13.0092,-0.0445 13.0092,0 -4.3364,0 -8.6728,0 -13.0092,0z"/>
 </g>
</svg>
