<?xml version="1.0" encoding="UTF-8"?>
<!DOCTYPE svg PUBLIC "-//W3C//DTD SVG 1.1//EN" "http://www.w3.org/Graphics/SVG/1.1/DTD/svg11.dtd">
<!-- Creator: CorelDRAW -->
<svg xmlns="http://www.w3.org/2000/svg" xml:space="preserve" width="420mm" height="420mm" style="shape-rendering:geometricPrecision; text-rendering:geometricPrecision; image-rendering:optimizeQuality; fill-rule:evenodd; clip-rule:evenodd"
viewBox="0 0 420 420">
 <defs>
  <style type="text/css">
   <![CDATA[
    .str0 {stroke:#1F1A17;stroke-width:0.0762}
    .fil0 {fill:#1F1A17}
   ]]>
  </style>
 </defs>
 <g id="Capa_x0020_1">
  <metadata id="CorelCorpID_0Corel-Layer"/>
  <path class="fil0 str0" d="M115.537 84.2901l0.9981 12.5157c3.973,1.4211 6.7776,6.347 7.8752,16.3953 2.6357,5.5801 -3.367,28.8362 33.77,31.9654 17.8736,0.026 34.4343,-4.0276 44.6704,-32.3923 1.3721,-6.5871 4.0876,-10.4253 8.4172,-10.9632 4.3295,0.5379 7.0455,4.3761 8.4176,10.9632 10.2361,28.3647 26.7968,32.4183 44.6704,32.3923 37.137,-3.1292 31.1343,-26.3853 33.77,-31.9654 1.0976,-10.0483 3.9022,-14.9742 7.8752,-16.3953l0.9981 -12.5157c-15.5213,-3.2396 -30.9046,-4.2672 -46.2104,-4.0536 -20.1303,-0.2142 -33.6088,7.1131 -49.5208,9.5089 -15.912,-2.3958 -29.3903,-9.7231 -49.5206,-9.5089 -15.3058,-0.2136 -30.6891,0.814 -46.2104,4.0536zm142.991 -0.4316c28.0707,-2.6257 42.3487,6.4372 36.4683,32.5841 -5.6106,17.0473 -17.5511,25.1752 -35.8209,24.3841 -22.1005,-2.8412 -35.0837,-14.5658 -34.742,-39.2736 -0.9512,-13.2215 13.7423,-17.1406 34.0946,-17.6946zm-94.5188 0c-28.0707,-2.6257 -42.3487,6.4372 -36.4683,32.5841 5.6106,17.0473 17.5511,25.1752 35.8209,24.3841 22.1005,-2.8412 35.0837,-14.5658 34.742,-39.2736 0.9512,-13.2215 -13.7423,-17.1406 -34.0946,-17.6946z"/>
 </g>
</svg>
