<?xml version="1.0" encoding="UTF-8"?>
<!DOCTYPE svg PUBLIC "-//W3C//DTD SVG 1.1//EN" "http://www.w3.org/Graphics/SVG/1.1/DTD/svg11.dtd">
<!-- Creator: CorelDRAW -->
<svg xmlns="http://www.w3.org/2000/svg" xml:space="preserve" width="420mm" height="420mm" style="shape-rendering:geometricPrecision; text-rendering:geometricPrecision; image-rendering:optimizeQuality; fill-rule:evenodd; clip-rule:evenodd"
viewBox="0 0 420 420">
 <defs>
  <style type="text/css">
   <![CDATA[
    .str0 {stroke:#1F1A17;stroke-width:0.0762}
    .fil3 {fill:#0A0B0C}
    .fil2 {fill:#974578}
    .fil0 {fill:#DD137B}
    .fil1 {fill:white}
   ]]>
  </style>
 </defs>
 <g id="Capa_x0020_1">
  <metadata id="CorelCorpID_0Corel-Layer"/>
  <path class="fil0 str0" d="M156.027 97.9845c10.326,-1.2347 20.8816,-2.4051 27.5249,-4.6627 13.8883,4.4112 25.6204,15.8422 23.4639,38.3544 -16.6956,2.6383 -30.2219,4.3227 -40.2383,2.0267 -11.0305,-3.8509 -14.2612,-17.6523 -10.7505,-35.7184z"/>
  <path class="fil1 str0" d="M165.18 113.079c2.0428,22.6678 19.4458,17.2429 39.2763,17.9751 -1.592,-9.7162 -6.1683,-17.6011 -16.0644,-22.2212 -9.6878,0.5795 -17.4872,1.9683 -23.2119,4.2461z"/>
  <ellipse class="fil2 str0" cx="185.88" cy="116.203" rx="12.4198" ry="12.5868"/>
  <ellipse class="fil0 str0" cx="185.615" cy="115.51" rx="10.4914" ry="10.6324"/>
  <ellipse class="fil3 str0" cx="185.237" cy="115.611" rx="6.85832" ry="6.9505"/>
  <ellipse class="fil1 str0" cx="180.971" cy="114.052" rx="3.00411" ry="3.04448"/>
  <polygon class="fil1" points="188.534,116.9 198.361,124.319 200.044,120.339 "/>
  <path class="fil3 str0" d="M146.781 92.8166c7.0515,-9.1731 17.6471,-15.5742 22.8541,-13.5749 13.3457,3.8378 26.1186,9.3938 38.3191,16.668 -0.0931,-4.4605 -2.141,-8.0832 -7.0452,-10.4819 -9.1358,-4.1528 -18.7013,-7.8759 -29.2119,-10.6538 -4.4106,-0.7446 -8.1337,0.1146 -11.1693,2.5775 -7.1966,4.6322 -11.1344,9.9162 -13.7468,15.4651z"/>
  <path class="fil3 str0" d="M207.016 131.676c-2.0034,-12.4093 -5.596,-23.5057 -16.8459,-28.277 -1.3612,-0.0669 -2.709,-0.1039 -4.0436,-0.1117l0.0001 -0.0004c-3.0201,-1.8676 -5.3671,-5.2505 -7.4707,-9.1817 0.0773,3.2796 0.6061,6.4587 2.7475,9.2793l-0.0319 0.002c-0.7207,0.0348 -1.437,0.0789 -2.1496,0.1317l-0.0515 0.0032c-3.4579,-2.1128 -5.1425,-6.6173 -6.7006,-12.2515 -1.3402,4.6864 -0.89,9.0145 3.4986,12.5547l-0.0128 0.0017c-0.8713,0.1003 -1.7361,0.215 -2.5949,0.3433l-0.032 0.0042c-4.266,-2.6702 -6.9293,-7.401 -7.99,-14.1926 -0.8335,5.234 0.0884,10.2484 4.1395,14.8715 -10.5031,-2.4593 -14.7474,-6.9724 -15.4806,-12.6377 -0.5988,4.5909 1.0146,9.4134 7.4945,14.7455l-0.0235 0.0081c-0.7666,0.2513 -1.5278,0.5152 -2.2828,0.7923 -6.0268,-2.4009 -10.1314,-6.5336 -12.9208,-11.8514 -1.0741,8.4468 4.164,13.8789 13.3172,17.4412l1.117 4.21c-7.5826,-1.3351 -11.8118,0.2302 -13.7468,3.7803 5.055,-2.5144 10.11,-2.8155 15.1647,-0.9031l0.0129 0.0322c0.1284,0.3415 0.2645,0.6816 0.4089,1.0204l0.013 0.0322c-7.0595,-0.5607 -10.8561,0.7817 -12.4206,3.4268 3.9651,-1.4768 8.2547,-2.3044 13.4413,-1.3372l0.0048 0.0079c0.2666,0.4808 0.556,0.958 0.8687,1.4311l0.0117 0.0192c-4.266,0.7047 -6.9461,2.077 -8.3123,4.0031 2.4333,-1.3659 5.4346,-2.245 10.0058,-1.7778l0.0302 0.0334c0.1762,0.2022 0.3584,0.4035 0.5458,0.6038l0.0339 0.0374 -4.5265 3.2677c2.1773,-0.3764 4.2794,-0.9031 6.1122,-1.9674l0.0161 0.0069c0.6771,0.3322 1.3998,0.6378 2.1676,0.9175l0.0047 0.0019 -3.7576 3.5057 4.4893 -2.7389 3.7427 0.4772 -2.3321 3.1451c1.5666,-0.5456 3.0757,-1.221 4.1821,-2.8014l0.0007 -0.0006c7.7772,1.2832 18.1272,1.0744 30.1556,-0.1081zm-41.8359 -18.5973c2.0428,22.6678 19.4458,17.2429 39.2763,17.9751 -1.592,-9.7162 -6.1683,-17.6011 -16.0644,-22.2212 -9.6878,0.5795 -17.4872,1.9683 -23.2119,4.2461z"/>
  <path class="fil0 str0" d="M264.018 97.9845c-10.326,-1.2347 -20.8816,-2.4051 -27.5249,-4.6627 -13.8883,4.4112 -25.6204,15.8422 -23.4639,38.3544 16.6956,2.6383 30.2219,4.3227 40.2383,2.0267 11.0305,-3.8509 14.2612,-17.6523 10.7505,-35.7184z"/>
  <path class="fil1 str0" d="M254.865 113.079c-2.0428,22.6678 -19.4458,17.2429 -39.2763,17.9751 1.592,-9.7162 6.1683,-17.6011 16.0643,-22.2212 9.6879,0.5795 17.4873,1.9683 23.212,4.2461z"/>
  <ellipse class="fil2 str0" cx="234.165" cy="116.203" rx="12.4198" ry="12.5868"/>
  <ellipse class="fil0 str0" cx="234.431" cy="115.51" rx="10.4914" ry="10.6324"/>
  <ellipse class="fil3 str0" cx="234.808" cy="115.611" rx="6.85832" ry="6.9505"/>
  <ellipse class="fil1 str0" cx="239.075" cy="114.052" rx="3.00411" ry="3.04448"/>
  <polygon class="fil1" points="231.512,116.9 221.684,124.319 220.001,120.339 "/>
  <path class="fil3 str0" d="M273.265 92.8166c-7.0515,-9.1731 -17.647,-15.5742 -22.854,-13.5749 -13.3457,3.8378 -26.1186,9.3938 -38.3191,16.668 0.0931,-4.4605 2.141,-8.0832 7.0452,-10.4819 9.1358,-4.1528 18.7013,-7.8759 29.2119,-10.6538 4.4106,-0.7446 8.1337,0.1146 11.1693,2.5775 7.1966,4.6322 11.1344,9.9162 13.7467,15.4651z"/>
  <path class="fil3 str0" d="M213.029 131.676c2.0034,-12.4093 5.596,-23.5057 16.8459,-28.277 1.3612,-0.0669 2.709,-0.1039 4.0436,-0.1117l-0.0001 -0.0004c3.0201,-1.8676 5.3671,-5.2505 7.4707,-9.1817 -0.0773,3.2796 -0.6061,6.4587 -2.7475,9.2793l0.0319 0.002c0.7207,0.0348 1.437,0.0789 2.1496,0.1317l0.0515 0.0032c3.4579,-2.1128 5.1425,-6.6173 6.7005,-12.2515 1.3403,4.6864 0.8901,9.0145 -3.4985,12.5547l0.0128 0.0017c0.8713,0.1003 1.7361,0.215 2.5949,0.3433l0.032 0.0042c4.266,-2.6702 6.9293,-7.401 7.99,-14.1926 0.8335,5.234 -0.0884,10.2484 -4.1395,14.8715 10.5031,-2.4593 14.7474,-6.9724 15.4806,-12.6377 0.5988,4.5909 -1.0146,9.4134 -7.4945,14.7455l0.0235 0.0081c0.7666,0.2513 1.5278,0.5152 2.2828,0.7923 6.0268,-2.4009 10.1314,-6.5336 12.9207,-11.8514 1.0742,8.4468 -4.1639,13.8789 -13.3171,17.4412l-1.117 4.21c7.5826,-1.3351 11.8118,0.2302 13.7468,3.7803 -5.055,-2.5144 -10.11,-2.8155 -15.1647,-0.9031l-0.0129 0.0322c-0.1285,0.3415 -0.2645,0.6816 -0.4089,1.0204l-0.013 0.0322c7.0595,-0.5607 10.8561,0.7817 12.4206,3.4268 -3.9651,-1.4768 -8.2547,-2.3044 -13.4413,-1.3372l-0.0048 0.0079c-0.2666,0.4808 -0.556,0.958 -0.8687,1.4311l-0.0117 0.0192c4.266,0.7047 6.9461,2.077 8.3123,4.0031 -2.4333,-1.3659 -5.4346,-2.245 -10.0059,-1.7778l-0.0301 0.0334c-0.1762,0.2022 -0.3584,0.4035 -0.5458,0.6038l-0.0339 0.0374 4.5264 3.2677c-2.1772,-0.3764 -4.2793,-0.9031 -6.1121,-1.9674l-0.0161 0.0069c-0.6771,0.3322 -1.3998,0.6378 -2.1677,0.9175l-0.0046 0.0019 3.7576 3.5057 -4.4893 -2.7389 -3.7427 0.4772 2.3321 3.1451c-1.5667,-0.5456 -3.0757,-1.221 -4.1822,-2.8014l-0.0006 -0.0006c-7.7773,1.2832 -18.1272,1.0744 -30.1556,-0.1081zm41.8359 -18.5973c-2.0428,22.6678 -19.4458,17.2429 -39.2763,17.9751 1.592,-9.7162 6.1683,-17.6011 16.0643,-22.2212 9.6879,0.5795 17.4873,1.9683 23.212,4.2461z"/>
 </g>
</svg>
