<?xml version="1.0" encoding="UTF-8"?>
<!DOCTYPE svg PUBLIC "-//W3C//DTD SVG 1.1//EN" "http://www.w3.org/Graphics/SVG/1.1/DTD/svg11.dtd">
<!-- Creator: CorelDRAW -->
<svg xmlns="http://www.w3.org/2000/svg" xml:space="preserve" width="420mm" height="420mm" style="shape-rendering:geometricPrecision; text-rendering:geometricPrecision; image-rendering:optimizeQuality; fill-rule:evenodd; clip-rule:evenodd"
viewBox="0 0 420 420">
 <defs>
  <style type="text/css">
   <![CDATA[
    .str1 {stroke:#1F1A17;stroke-width:0.0762}
    .str0 {stroke:#72706F;stroke-width:2.8222}
    .fil1 {fill:#0A0B0C}
    .fil0 {fill:white}
   ]]>
  </style>
 </defs>
 <g id="Capa_x0020_1">
  <metadata id="CorelCorpID_0Corel-Layer"/>
  <path class="fil0 str0" d="M170.037 79.7522c18.518,0 33.5352,15.017 33.5352,33.5348 0,18.518 -15.0172,33.5353 -33.5352,33.5353 -18.5176,0 -33.5348,-15.0173 -33.5348,-33.5353 0,-18.5178 15.0172,-33.5348 33.5348,-33.5348z"/>
  <path class="fil1" d="M139.437 127.024c-14.5053,-33.2832 30.3795,-69.0494 58.9916,-31.5903 -25.125,2.821 -47.5728,9.4209 -58.9916,31.5903z"/>
  <circle class="fil1 str1" cx="174.001" cy="123.79" r="15.6012"/>
  <path class="fil0 str1" d="M168.647 117.604l-1.1963 4.8803c-0.1014,-0.025 -0.2043,-0.0534 -0.3045,-0.085 -2.6479,-0.8287 -4.1234,-3.648 -3.2947,-6.2961 0.8287,-2.6477 3.6481,-4.1233 6.2962,-3.2946 0.9103,0.2849 1.722,0.8242 2.3371,1.5522l-3.8378 3.2432z"/>
  <path class="fil0 str0" d="M245.977 65.9852c-22.2914,0 -40.3686,18.077 -40.3686,40.3681 0,22.2914 18.0772,40.3686 40.3686,40.3686 22.2908,0 40.3681,-18.0772 40.3681,-40.3686 0,-22.2911 -18.0773,-40.3681 -40.3681,-40.3681z"/>
  <path class="fil1" d="M282.813 122.89c17.461,-40.0651 -36.5698,-83.1193 -71.0121,-38.0272 30.2446,3.3957 57.2665,11.3405 71.0121,38.0272z"/>
  <circle class="fil1 str1" cx="241.206" cy="118.996" r="18.7803"/>
  <path class="fil0 str1" d="M234.761 111.55l-1.44 5.8748c-0.122,-0.0305 -0.2459,-0.0646 -0.3664,-0.1022 -3.1875,-0.9977 -4.9637,-4.3916 -3.966,-7.5794 0.9977,-3.1875 4.3916,-4.9632 7.5791,-3.966 1.0957,0.343 2.0728,0.9923 2.8136,1.8689l-4.6203 3.9039z"/>
 </g>
</svg>
