<?xml version="1.0" encoding="UTF-8"?>
<!DOCTYPE svg PUBLIC "-//W3C//DTD SVG 1.1//EN" "http://www.w3.org/Graphics/SVG/1.1/DTD/svg11.dtd">
<!-- Creator: CorelDRAW -->
<svg xmlns="http://www.w3.org/2000/svg" xml:space="preserve" width="420mm" height="420mm" style="shape-rendering:geometricPrecision; text-rendering:geometricPrecision; image-rendering:optimizeQuality; fill-rule:evenodd; clip-rule:evenodd"
viewBox="0 0 420 420">
 <defs>
  <style type="text/css">
   <![CDATA[
    .fil0 {fill:#0A0B0C}
    .fil2 {fill:white}
    .fil1 {fill:white}
   ]]>
  </style>
 </defs>
 <g id="Capa_x0020_1">
  <metadata id="CorelCorpID_0Corel-Layer"/>
  <g id="_218240792">
   <path id="_274128504" class="fil0" d="M146.101 98.0342l-23.0948 -0.3222 26.5325 -9.4409c17.9439,-5.3546 19.0636,0.8983 32.7038,10.9638 7.9427,5.9069 16.5963,10.1313 26.6672,7.9608 -1.7242,4.0984 -5.4579,7.9286 -11.2012,11.4914 -1.1838,24.7032 -13.3335,33.9917 -33.4308,35.357 -22.0527,0.3697 -37.7543,-26.3797 -18.1767,-56.0099z"/>
   <path id="_274129128" class="fil1" d="M161.123 97.0193l7.999 6.8412 19.7871 16.9454 5.473 0.2105c-0.9982,15.122 -7.348,26.7348 -25.4706,30.6278 -16.4495,0.6182 -27.0183,-8.9331 -26.4179,-24.9443 -1.2082,-15.8644 8.2583,-23.1368 18.6294,-29.6806z"/>
   <ellipse id="_274128864" class="fil0" cx="173.037" cy="118.452" rx="14.4594" ry="14.5403"/>
   <ellipse id="_274127712" class="fil2" transform="matrix(0.588124 0 -0.165354 0.67823 165.697 113.206)" rx="6.7972" ry="7.353"/>
   <path id="_274128240" class="fil2" d="M152.454 108.496c-4.13,-0.2542 -15.2776,32.3229 4.4229,36.0637 -12.1806,-8.6031 -9.8253,-24.1634 -4.4229,-36.0637z"/>
   <path id="_274128336" class="fil2" d="M167.543 133.015c-1.7543,5.6487 13.4016,3.7892 16.7348,-1.4735 -6.3471,3.2305 -11.8348,3.3996 -16.7348,1.4735z"/>
   <path id="_274128360" class="fil0" d="M274.214 98.0342l23.0948 -0.3222 -26.5325 -9.4409c-17.9439,-5.3546 -19.0636,0.8983 -32.7038,10.9638 -7.9427,5.9069 -16.5963,10.1313 -26.6672,7.9608 1.7242,4.0984 5.4579,7.9286 11.2012,11.4914 1.1838,24.7032 13.3335,33.9917 33.4308,35.357 22.0526,0.3697 37.7543,-26.3797 18.1767,-56.0099z"/>
   <path id="_274128048" class="fil1" d="M259.192 97.0193l-7.999 6.8412 -19.7871 16.9454 -5.473 0.2105c0.9982,15.122 7.348,26.7348 25.4706,30.6278 16.4495,0.6182 27.0183,-8.9331 26.4178,-24.9443 1.2083,-15.8644 -8.2582,-23.1368 -18.6293,-29.6806z"/>
   <ellipse id="_274128384" class="fil0" cx="247.278" cy="118.452" rx="14.4594" ry="14.5403"/>
   <ellipse id="_274128168" class="fil2" transform="matrix(-0.588124 0 0.165354 0.67823 254.617 113.206)" rx="6.7972" ry="7.353"/>
   <path id="_274127808" class="fil2" d="M267.861 108.496c4.13,-0.2542 15.2776,32.3229 -4.423,36.0637 12.1806,-8.6031 9.8253,-24.1634 4.423,-36.0637z"/>
   <path id="_274127904" class="fil2" d="M252.772 133.015c1.7543,5.6487 -13.4016,3.7892 -16.7348,-1.4735 6.3471,3.2305 11.8348,3.3996 16.7348,1.4735z"/>
  </g>
 </g>
</svg>
