<?xml version="1.0" encoding="UTF-8"?>
<!DOCTYPE svg PUBLIC "-//W3C//DTD SVG 1.1//EN" "http://www.w3.org/Graphics/SVG/1.1/DTD/svg11.dtd">
<!-- Creator: CorelDRAW -->
<svg xmlns="http://www.w3.org/2000/svg" xml:space="preserve" width="420mm" height="420mm" style="shape-rendering:geometricPrecision; text-rendering:geometricPrecision; image-rendering:optimizeQuality; fill-rule:evenodd; clip-rule:evenodd"
viewBox="0 0 420 420">
 <defs>
  <style type="text/css">
   <![CDATA[
    .str0 {stroke:#1F1A17;stroke-width:0.0762}
    .str1 {stroke:#1F1A17;stroke-width:1.4111}
    .fil0 {fill:#0A0B0C}
    .fil1 {fill:#EE9A85}
    .fil2 {fill:#F7C5B4}
    .fil3 {fill:#FA6378}
   ]]>
  </style>
 </defs>
 <g id="Capa_x0020_1">
  <metadata id="CorelCorpID_0Corel-Layer"/>
  <path class="fil0 str0" d="M147.735 85.9318c2.8412,-8.997 10.2038,-10.7431 34.5003,-10.3494 14.3521,-0.8256 19.7376,-2.6528 21.512,-7.1037 1.8498,13.0525 -0.6557,13.7994 -22.5267,14.0031 -11.1618,1.15 -24.8387,-1.9187 -33.4856,3.45z"/>
  <path class="fil0 str0" d="M178.999 82.6569c-35.1634,-0.0079 -40.883,38.2561 -20.305,48.3282 24.2009,9.1496 41.5525,-2.5874 42.0091,-27.8032 0.6123,-12.7948 -6.6224,-19.6365 -21.7041,-20.525z"/>
  <path class="fil1 str1" d="M180.438 82.6569c-32.8363,-0.0074 -36.9599,37.2127 -17.7437,46.6182 20.3982,6.5392 36.9398,-6.3694 38.0114,-27.4515 0.5717,-11.9481 -6.1842,-18.337 -20.2677,-19.1667z"/>
  <path class="fil2" d="M183.047 84.6907c-28.6157,-0.0064 -32.2092,32.4295 -15.463,40.626 17.7763,5.6987 32.1917,-5.5506 33.1255,-23.9229 0.4983,-10.4124 -5.3892,-15.98 -17.6625,-16.7031z"/>
  <path class="fil3 str1" d="M200.703 103.182c-18.082,-2.1233 -35.0362,-1.0885 -49.5098,6.893 0.044,2.5408 0.6215,5.3475 1.732,8.4204 13.1266,2.5601 27.8877,1.6868 44.6217,-3.3294 1.613,-3.8239 2.7012,-7.8075 3.1561,-11.984z"/>
  <path class="fil0 str0" d="M175.351 102.753c0.727,18.5296 12.1902,14.2518 12.4214,-0.504 -3.6305,-0.1024 -7.5356,-0.0593 -12.4214,0.504z"/>
  <path class="fil0 str0" d="M200.703 103.182c1.4852,17.5429 -6.5675,30.1721 -19.9714,40.045 9.1991,-9.7598 16.9113,-21.6188 19.9714,-40.045z"/>
  <path class="fil0 str0" d="M271.887 85.9318c-2.8412,-8.997 -10.2038,-10.7431 -34.5003,-10.3494 -14.3521,-0.8256 -19.7376,-2.6528 -21.512,-7.1037 -1.8498,13.0525 0.6557,13.7994 22.5267,14.0031 11.1618,1.15 24.8387,-1.9187 33.4856,3.45z"/>
  <path class="fil0 str0" d="M240.623 82.6569c35.1634,-0.0079 40.883,38.2561 20.305,48.3282 -24.2009,9.1496 -41.5525,-2.5874 -42.0091,-27.8032 -0.6123,-12.7948 6.6224,-19.6365 21.7041,-20.525z"/>
  <path class="fil1 str1" d="M239.184 82.6569c32.8363,-0.0074 36.9599,37.2127 17.7437,46.6182 -20.3982,6.5392 -36.9398,-6.3694 -38.0114,-27.4515 -0.5717,-11.9481 6.1842,-18.337 20.2677,-19.1667z"/>
  <path class="fil2" d="M236.575 84.6907c28.6157,-0.0064 32.2092,32.4295 15.463,40.626 -17.7763,5.6987 -32.1917,-5.5506 -33.1255,-23.9229 -0.4983,-10.4124 5.3892,-15.98 17.6625,-16.7031z"/>
  <path class="fil3 str1" d="M218.919 103.182c18.082,-2.1233 35.0362,-1.0885 49.5098,6.893 -0.044,2.5408 -0.6215,5.3475 -1.732,8.4204 -13.1266,2.5601 -27.8877,1.6868 -44.6217,-3.3294 -1.613,-3.8239 -2.7012,-7.8075 -3.1561,-11.984z"/>
  <path class="fil0 str0" d="M244.271 102.753c-0.727,18.5296 -12.1902,14.2518 -12.4214,-0.504 3.6305,-0.1024 7.5356,-0.0593 12.4214,0.504z"/>
  <path class="fil0 str0" d="M218.919 103.182c-1.4852,17.5429 6.5675,30.1721 19.9714,40.045 -9.1991,-9.7598 -16.9113,-21.6188 -19.9714,-40.045z"/>
 </g>
</svg>
