<?xml version="1.0" encoding="UTF-8"?>
<!DOCTYPE svg PUBLIC "-//W3C//DTD SVG 1.1//EN" "http://www.w3.org/Graphics/SVG/1.1/DTD/svg11.dtd">
<!-- Creator: CorelDRAW -->
<svg xmlns="http://www.w3.org/2000/svg" xml:space="preserve" width="420mm" height="420mm" style="shape-rendering:geometricPrecision; text-rendering:geometricPrecision; image-rendering:optimizeQuality; fill-rule:evenodd; clip-rule:evenodd"
viewBox="0 0 420 420">
 <defs>
  <style type="text/css">
   <![CDATA[
    .str0 {stroke:white;stroke-width:0.7056}
    .str1 {stroke:#1F1A17;stroke-width:2.8222;stroke-linecap:round}
    .fil4 {fill:none}
    .fil1 {fill:#DA251D}
    .fil3 {fill:white}
    .fil0 {fill:#CC0000}
    .fil2 {fill:#FF3300}
   ]]>
  </style>
 </defs>
 <g id="Capa_x0020_1">
  <metadata id="CorelCorpID_0Corel-Layer"/>
  <g id="_273777008">
   <circle id="_218304240" class="fil0" cx="173.061" cy="112.397" r="27.6834"/>
   <circle id="_275227664" class="fil1" cx="173.061" cy="112.397" r="18.4696"/>
   <circle id="_275224736" class="fil2" cx="173.061" cy="112.397" r="13.7891"/>
   <path id="_275225384" class="fil3 str0" d="M181.155 87.8324c7.1065,2.1092 12.4832,6.1515 14.7767,13.64 -3.8728,-5.449 -8.9223,-9.8896 -14.7767,-13.64z"/>
   <path id="_275226248" class="fil3 str0" d="M160.037 116.909c-0.3447,3.2791 2.1527,6.4193 5.8976,7.4747 -2.2331,-2.2222 -4.2233,-4.6983 -5.8976,-7.4747z"/>
   <g>
    <ellipse id="_274111488" class="fil3" cx="169.238" cy="108.574" rx="2.50853" ry="2.50849"/>
    <ellipse id="_273985768" class="fil3" cx="176.884" cy="108.574" rx="2.50853" ry="2.50849"/>
    <ellipse id="_274007728" class="fil3" cx="169.238" cy="116.22" rx="2.50853" ry="2.50849"/>
    <ellipse id="_275225120" class="fil3" cx="176.884" cy="116.22" rx="2.50853" ry="2.50849"/>
   </g>
   <line id="_275225576" class="fil4 str1" x1="169.238" y1="108.574" x2="176.884" y2= "116.22" />
   <line id="_275225936" class="fil4 str1" x1="169.238" y1="116.22" x2="176.884" y2= "108.574" />
   <circle id="_274005520" class="fil0" cx="246.721" cy="112.397" r="27.6834"/>
   <circle id="_274005952" class="fil1" cx="246.721" cy="112.397" r="18.4696"/>
   <circle id="_274006264" class="fil2" cx="246.721" cy="112.397" r="13.7891"/>
   <path id="_274006168" class="fil3 str0" d="M254.815 87.8324c7.1065,2.1092 12.4832,6.1515 14.7767,13.64 -3.8728,-5.449 -8.9223,-9.8896 -14.7767,-13.64z"/>
   <path id="_274003720" class="fil3 str0" d="M233.697 116.909c-0.3447,3.2791 2.1527,6.4193 5.8976,7.4747 -2.2331,-2.2222 -4.2233,-4.6983 -5.8976,-7.4747z"/>
   <g>
    <ellipse id="_274006432" class="fil3" cx="242.898" cy="108.574" rx="2.50853" ry="2.50849"/>
    <ellipse id="_273775952" class="fil3" cx="250.544" cy="108.574" rx="2.50853" ry="2.50849"/>
    <ellipse id="_274114296" class="fil3" cx="242.898" cy="116.22" rx="2.50853" ry="2.50849"/>
    <ellipse id="_274134432" class="fil3" cx="250.544" cy="116.22" rx="2.50853" ry="2.50849"/>
   </g>
   <line id="_273984352" class="fil4 str1" x1="242.898" y1="108.574" x2="250.544" y2= "116.22" />
   <line id="_274128000" class="fil4 str1" x1="242.898" y1="116.22" x2="250.544" y2= "108.574" />
  </g>
 </g>
</svg>
