<?xml version="1.0" encoding="UTF-8"?>
<!DOCTYPE svg PUBLIC "-//W3C//DTD SVG 1.1//EN" "http://www.w3.org/Graphics/SVG/1.1/DTD/svg11.dtd">
<!-- Creator: CorelDRAW -->
<svg xmlns="http://www.w3.org/2000/svg" xml:space="preserve" width="420mm" height="420mm" style="shape-rendering:geometricPrecision; text-rendering:geometricPrecision; image-rendering:optimizeQuality; fill-rule:evenodd; clip-rule:evenodd"
viewBox="0 0 420 420">
 <defs>
  <style type="text/css">
   <![CDATA[
    .str1 {stroke:#1F1A17;stroke-width:0.0762}
    .str2 {stroke:#0A0B0C;stroke-width:1.4111}
    .str0 {stroke:#1F1A17;stroke-width:1.4111}
    .fil2 {fill:#0A0B0C}
    .fil0 {fill:white}
    .fil3 {fill:#66CC00}
    .fil1 {fill:#66FF00}
   ]]>
  </style>
 </defs>
 <g id="Capa_x0020_1">
  <metadata id="CorelCorpID_0Corel-Layer"/>
  <circle class="fil0 str0" cx="244.997" cy="112.32" r="26.8849"/>
  <circle class="fil1" cx="244.719" cy="112.877" r="19.0841"/>
  <circle class="fil2 str1" cx="243.95" cy="112.109" r="13.3407"/>
  <circle class="fil0 str1" cx="249.188" cy="110.809" r="3.52625"/>
  <path class="fil3 str2" d="M218.112 112.32c17.415,-9.6757 35.5296,-9.0312 53.7698,0 0.3323,-11.9206 -8.3765,-26.1149 -27.7749,-26.8704 -15.787,0.144 -27.1308,14.3585 -25.9949,26.8704z"/>
  <path class="fil2 str1" d="M271.705 109.216l0.1774 3.104c-17.8351,-9.0744 -35.7513,-9.8067 -53.7698,0l-0.0236 -3.2249 1.625 -0.6298c-0.6757,-2.3199 -0.5908,-4.6399 -0.348,-6.96 0.7163,1.9371 1.5807,3.8087 3.48,5.22l1.7134 -0.5438c-1.8907,-2.166 -2.2842,-4.8531 -2.4709,-7.9369 1.9731,2.9715 3.9833,5.3151 6.0471,6.7407l1.0075 -0.3526c-1.3975,-2.2932 -1.9768,-5.4731 -2.2603,-8.9738 1.5054,2.9905 3.2746,5.7573 5.9856,7.7256l0.8614 0.1512c-0.9559,-3.0366 -0.9552,-6.3923 -0.7222,-9.8256 0.991,3.0965 2.2855,6.1498 4.6632,9.048l0.9048 -0.2088 -0.3431 -9.5861 4.0782 9.3678 0.8723 -0.1438 1.239 -10.8435 1.2528 10.788 0.7656 0 4.3848 -9.9528 -0.2275 10.4305 1.0486 -0.0417c2.2851,-2.7127 3.4867,-6.1738 4.3848,-9.0848 0.381,3.0103 0.6061,6.4337 -0.7474,10.0017l0.7615 0.1087c2.5035,-2.4626 4.3291,-5.1195 5.8464,-7.8648 0.0445,2.8505 -0.4443,6.1625 -1.9829,8.8149l1.2486 0.2784c2.2829,-1.8515 3.9475,-3.9842 5.1887,-6.3093 0.4973,2.7123 -0.0347,5.253 -1.8096,7.5864l1.3224 0.348c1.487,-1.2276 2.5363,-2.9555 3.3863,-4.9111 0.3364,2.29 0.3887,4.4949 -0.1847,6.5119l2.6446 1.1683z"/>
  <circle class="fil0 str0" cx="173.877" cy="112.32" r="26.8849"/>
  <circle class="fil1" cx="173.599" cy="112.877" r="19.0841"/>
  <circle class="fil2 str1" cx="172.83" cy="112.109" r="13.3407"/>
  <circle class="fil0 str1" cx="178.068" cy="110.809" r="3.52625"/>
  <path class="fil3 str2" d="M146.992 112.32c17.415,-9.6757 35.5296,-9.0312 53.7698,0 0.3323,-11.9206 -8.3765,-26.1149 -27.7749,-26.8704 -15.787,0.144 -27.1308,14.3585 -25.9949,26.8704z"/>
  <path class="fil2 str1" d="M200.585 109.216l0.1774 3.104c-17.8351,-9.0744 -35.7513,-9.8067 -53.7698,0l-0.0236 -3.2249 1.625 -0.6298c-0.6757,-2.3199 -0.5908,-4.6399 -0.348,-6.96 0.7163,1.9371 1.5807,3.8087 3.48,5.22l1.7134 -0.5438c-1.8907,-2.166 -2.2842,-4.8531 -2.4709,-7.9369 1.9731,2.9715 3.9833,5.3151 6.0471,6.7407l1.0075 -0.3526c-1.3975,-2.2932 -1.9768,-5.4731 -2.2603,-8.9738 1.5054,2.9905 3.2746,5.7573 5.9856,7.7256l0.8614 0.1512c-0.9559,-3.0366 -0.9552,-6.3923 -0.7222,-9.8256 0.991,3.0965 2.2855,6.1498 4.6632,9.048l0.9048 -0.2088 -0.3431 -9.5861 4.0782 9.3678 0.8723 -0.1438 1.239 -10.8435 1.2528 10.788 0.7656 0 4.3848 -9.9528 -0.2275 10.4305 1.0486 -0.0417c2.2851,-2.7127 3.4867,-6.1738 4.3848,-9.0848 0.381,3.0103 0.6061,6.4337 -0.7474,10.0017l0.7615 0.1087c2.5035,-2.4626 4.3291,-5.1195 5.8464,-7.8648 0.0445,2.8505 -0.4443,6.1625 -1.9829,8.8149l1.2486 0.2784c2.2829,-1.8515 3.9475,-3.9842 5.1887,-6.3093 0.4973,2.7123 -0.0347,5.253 -1.8096,7.5864l1.3224 0.348c1.487,-1.2276 2.5363,-2.9555 3.3863,-4.9111 0.3364,2.29 0.3887,4.4949 -0.1847,6.5119l2.6446 1.1683z"/>
 </g>
</svg>
