<?xml version="1.0" encoding="UTF-8"?>
<!DOCTYPE svg PUBLIC "-//W3C//DTD SVG 1.1//EN" "http://www.w3.org/Graphics/SVG/1.1/DTD/svg11.dtd">
<!-- Creator: CorelDRAW -->
<svg xmlns="http://www.w3.org/2000/svg" xml:space="preserve" width="420mm" height="420mm" style="shape-rendering:geometricPrecision; text-rendering:geometricPrecision; image-rendering:optimizeQuality; fill-rule:evenodd; clip-rule:evenodd"
viewBox="0 0 420 420">
 <defs>
  <style type="text/css">
   <![CDATA[
    .str1 {stroke:#1F1A17;stroke-width:0.0762}
    .str2 {stroke:#0A0B0C;stroke-width:1.4111}
    .str0 {stroke:#1F1A17;stroke-width:1.4111}
    .fil3 {fill:#0A0B0C}
    .fil0 {fill:white}
    .fil2 {fill:#6633FF}
    .fil1 {fill:#9900FF}
   ]]>
  </style>
 </defs>
 <g id="Capa_x0020_1">
  <metadata id="CorelCorpID_0Corel-Layer"/>
  <ellipse class="fil0 str0" cx="175.551" cy="112.448" rx="26.8849" ry="45.4183"/>
  <ellipse class="fil1" cx="175.273" cy="113.389" rx="19.0841" ry="32.2399"/>
  <path class="fil2" d="M175.273 113.389l-1.6799 32.1138c-5.5521,-0.8264 -10.6219,-5.7269 -13.8581,-13.3942l15.538 -18.7196z"/>
  <ellipse class="fil3 str1" cx="174.504" cy="112.091" rx="13.3407" ry="22.5372"/>
  <ellipse class="fil0 str1" cx="179.742" cy="109.895" rx="3.52625" ry="5.9571"/>
  <path class="fil2 str2" d="M148.666 112.448c17.415,-16.3457 35.5296,-15.2569 53.7698,0 0.3323,-20.1381 -8.3765,-44.1174 -27.7749,-45.3937 -15.787,0.2433 -27.1308,24.2567 -25.9949,45.3937z"/>
  <ellipse class="fil0 str0" cx="244.131" cy="112.448" rx="26.8849" ry="45.4183"/>
  <ellipse class="fil1" cx="243.853" cy="113.389" rx="19.0841" ry="32.2399"/>
  <path class="fil2" d="M243.852 113.389l-1.6799 32.1139c-5.5521,-0.8265 -10.6219,-5.727 -13.8581,-13.3942l15.538 -18.7197z"/>
  <ellipse class="fil3 str1" cx="243.084" cy="112.091" rx="13.3407" ry="22.5372"/>
  <ellipse class="fil0 str1" cx="248.322" cy="109.895" rx="3.52625" ry="5.9571"/>
  <path class="fil2 str2" d="M217.246 112.448c17.415,-16.3457 35.5296,-15.2569 53.7698,0 0.3323,-20.1381 -8.3765,-44.1174 -27.7749,-45.3937 -15.787,0.2433 -27.1308,24.2567 -25.9949,45.3937z"/>
 </g>
</svg>
