<?xml version="1.0" encoding="UTF-8"?>
<!DOCTYPE svg PUBLIC "-//W3C//DTD SVG 1.1//EN" "http://www.w3.org/Graphics/SVG/1.1/DTD/svg11.dtd">
<!-- Creator: CorelDRAW -->
<svg xmlns="http://www.w3.org/2000/svg" xml:space="preserve" width="420mm" height="420mm" style="shape-rendering:geometricPrecision; text-rendering:geometricPrecision; image-rendering:optimizeQuality; fill-rule:evenodd; clip-rule:evenodd"
viewBox="0 0 420 420">
 <defs>
  <style type="text/css">
   <![CDATA[
    .str1 {stroke:#1F1A17;stroke-width:0.0762}
    .str2 {stroke:#0A0B0C;stroke-width:1.4111}
    .str0 {stroke:#1F1A17;stroke-width:1.4111}
    .fil3 {fill:#0A0B0C}
    .fil1 {fill:#E77817}
    .fil0 {fill:white}
    .fil2 {fill:#FFC91C}
   ]]>
  </style>
 </defs>
 <g id="Capa_x0020_1">
  <metadata id="CorelCorpID_0Corel-Layer"/>
  <ellipse class="fil0 str0" cx="171.593" cy="128.336" rx="26.8849" ry="44.0367"/>
  <ellipse class="fil1" cx="171.315" cy="129.249" rx="19.0841" ry="31.2592"/>
  <path class="fil2" d="M171.315 129.249l-1.6799 31.137c-5.5521,-0.8013 -10.6219,-5.5527 -13.8581,-12.9868l15.538 -18.1502z"/>
  <ellipse class="fil3 str1" cx="170.547" cy="127.99" rx="13.3407" ry="21.8517"/>
  <ellipse class="fil0 str1" cx="175.785" cy="125.862" rx="3.52625" ry="5.77589"/>
  <path class="fil2 str2" d="M144.709 128.336c17.415,-15.8486 35.5296,-14.7929 53.7698,0 0.3323,-19.5256 -8.3765,-42.7755 -27.7749,-44.0129 -15.787,0.2358 -27.1308,23.5187 -25.9949,44.0129z"/>
  <path class="fil3 str1" d="M209.937 128.332l0.245 5.0843c-24.6274,-14.8636 -49.3668,-16.0631 -74.2474,0l-0.0326 -5.2823 2.2439 -1.0316c-0.9331,-3.8 -0.8158,-7.6 -0.4806,-11.4003 0.9891,3.1729 2.1827,6.2385 4.8054,8.5502l2.3659 -0.8907c-2.6108,-3.5479 -3.1541,-7.9493 -3.4119,-13.0004 2.7245,4.8672 5.5003,8.7059 8.35,11.041l1.3912 -0.5775c-1.9297,-3.7562 -2.7296,-8.9648 -3.1211,-14.6988 2.0787,4.8983 4.5217,9.4303 8.2652,12.6543l1.1894 0.2476c-1.3199,-4.9738 -1.3189,-10.4704 -0.9972,-16.094 1.3684,5.072 3.1559,10.0732 6.4391,14.8203l1.2494 -0.342 -0.4738 -15.7017 5.6314 15.3442 1.2045 -0.2356 1.7108 -17.7613 1.7299 17.6704 1.0572 0 6.0547 -16.3024 -0.3141 17.0849 1.4479 -0.0683c3.1554,-4.4433 4.8146,-10.1125 6.0547,-14.8806 0.5261,4.9307 0.8369,10.5382 -1.032,16.3824l1.0515 0.1781c3.4569,-4.0337 5.9778,-8.3856 8.0729,-12.8823 0.0615,4.669 -0.6135,10.094 -2.738,14.4385l1.7241 0.456c3.1523,-3.0327 5.4508,-6.526 7.1647,-10.3344 0.6867,4.4427 -0.0479,8.6042 -2.4987,12.4263l1.826 0.57c2.0533,-2.0108 3.5022,-4.841 4.6759,-8.0442 0.4645,3.7509 0.5368,7.3625 -0.255,10.6663l3.6517 1.9136z"/>
  <ellipse class="fil0 str0" cx="245.253" cy="128.336" rx="26.8849" ry="44.0367"/>
  <ellipse class="fil1" cx="244.975" cy="129.249" rx="19.0841" ry="31.2592"/>
  <path class="fil2" d="M244.975 129.249l-1.6799 31.137c-5.5521,-0.8013 -10.6219,-5.5527 -13.8581,-12.9867l15.538 -18.1503z"/>
  <ellipse class="fil3 str1" cx="244.207" cy="127.99" rx="13.3407" ry="21.8517"/>
  <ellipse class="fil0 str1" cx="249.445" cy="125.862" rx="3.52625" ry="5.77589"/>
  <path class="fil2 str2" d="M218.369 128.336c17.415,-15.8486 35.5296,-14.7929 53.7698,0 0.3323,-19.5256 -8.3765,-42.7755 -27.7749,-44.0129 -15.787,0.2358 -27.1308,23.5187 -25.9949,44.0129z"/>
  <path class="fil3 str1" d="M283.597 128.332l0.245 5.0843c-24.6274,-14.8636 -49.3668,-16.0631 -74.2474,0l-0.0326 -5.2823 2.2439 -1.0316c-0.9331,-3.8 -0.8158,-7.6 -0.4806,-11.4003 0.9891,3.1729 2.1827,6.2385 4.8054,8.5502l2.3659 -0.8907c-2.6108,-3.5479 -3.1541,-7.9493 -3.4119,-13.0004 2.7245,4.8672 5.5003,8.7059 8.35,11.041l1.3912 -0.5775c-1.9297,-3.7562 -2.7296,-8.9648 -3.1211,-14.6988 2.0787,4.8983 4.5217,9.4303 8.2652,12.6543l1.1894 0.2476c-1.3199,-4.9738 -1.3189,-10.4704 -0.9972,-16.094 1.3684,5.072 3.1559,10.0732 6.4391,14.8203l1.2494 -0.342 -0.4738 -15.7017 5.6314 15.3442 1.2045 -0.2356 1.7108 -17.7613 1.7299 17.6704 1.0572 0 6.0547 -16.3024 -0.3141 17.0849 1.4479 -0.0683c3.1554,-4.4433 4.8146,-10.1125 6.0547,-14.8806 0.5261,4.9307 0.8369,10.5382 -1.032,16.3824l1.0515 0.1781c3.4569,-4.0337 5.9778,-8.3856 8.0729,-12.8823 0.0615,4.669 -0.6135,10.094 -2.738,14.4385l1.7241 0.456c3.1523,-3.0327 5.4508,-6.526 7.1647,-10.3344 0.6867,4.4427 -0.0479,8.6042 -2.4987,12.4263l1.826 0.57c2.0533,-2.0108 3.5022,-4.841 4.6759,-8.0442 0.4645,3.7509 0.5368,7.3625 -0.255,10.6663l3.6517 1.9136z"/>
 </g>
</svg>
