<?xml version="1.0" encoding="UTF-8"?>
<!DOCTYPE svg PUBLIC "-//W3C//DTD SVG 1.1//EN" "http://www.w3.org/Graphics/SVG/1.1/DTD/svg11.dtd">
<!-- Creator: CorelDRAW -->
<svg xmlns="http://www.w3.org/2000/svg" xml:space="preserve" width="420mm" height="420mm" style="shape-rendering:geometricPrecision; text-rendering:geometricPrecision; image-rendering:optimizeQuality; fill-rule:evenodd; clip-rule:evenodd"
viewBox="0 0 420 420">
 <defs>
  <style type="text/css">
   <![CDATA[
    .str1 {stroke:#1F1A17;stroke-width:0.0762}
    .str0 {stroke:#DA251D;stroke-width:1.4111}
    .str2 {stroke:#D900A6;stroke-width:2.8222}
    .fil2 {fill:#0A0B0C}
    .fil1 {fill:#DA251D}
    .fil3 {fill:white}
    .fil0 {fill:white}
    .fil4 {fill:#D900A6}
   ]]>
  </style>
 </defs>
 <g id="Capa_x0020_1">
  <metadata id="CorelCorpID_0Corel-Layer"/>
  <path class="fil0 str0" d="M191.7 82.2991c17.5712,3.4967 27.8178,26.4464 22.882,51.2494 -4.936,24.8035 -23.1881,42.0822 -40.7593,38.5855 -17.5707,-3.4966 -27.8173,-26.4466 -22.8813,-51.2501 4.9358,-24.803 23.1879,-42.0814 40.7586,-38.5848z"/>
  <path class="fil1" d="M150.064 139.838c-4.8921,-47.319 47.231,-86.7495 64.3955,-31.1734 -24.5922,-0.9658 -47.6514,3.6355 -64.3955,31.1734z"/>
  <ellipse class="fil2 str1" transform="matrix(2.34466 0.328449 -0.700983 2.47959 190.704 125.833)" rx="6.0345" ry="5.67"/>
  <path class="fil3 str1" d="M193.657 119.98l2.4361 4.4425c0.0893,-0.0374 0.1795,-0.0777 0.2662,-0.1205 2.2917,-1.1334 2.9401,-3.9879 1.4479,-6.3744 -1.4921,-2.3865 -4.5606,-3.4027 -6.8524,-2.2695 -0.7877,0.3896 -1.4141,1.006 -1.8039,1.7743l4.5061 2.5476z"/>
  <path class="fil3 str2" d="M191.7 82.2991c17.5712,3.4967 27.8178,26.4464 22.882,51.2494 -4.936,24.8035 -23.1881,42.0822 -40.7593,38.5855 -17.5707,-3.4966 -27.8173,-26.4466 -22.8813,-51.2501 4.9358,-24.803 23.1879,-42.0814 40.7586,-38.5848z"/>
  <path class="fil4" d="M150.064 139.838c-4.8921,-47.319 47.231,-86.7495 64.3955,-31.1734 -24.5922,-0.9658 -47.6514,3.6355 -64.3955,31.1734z"/>
  <ellipse class="fil2 str1" transform="matrix(2.34466 0.328449 -0.700983 2.47959 190.704 125.833)" rx="6.0345" ry="5.67"/>
  <path class="fil3 str1" d="M193.657 119.98l2.4361 4.4425c0.0893,-0.0374 0.1795,-0.0777 0.2662,-0.1205 2.2917,-1.1334 2.9401,-3.9879 1.4479,-6.3744 -1.4921,-2.3865 -4.5606,-3.4027 -6.8524,-2.2695 -0.7877,0.3896 -1.4141,1.006 -1.8039,1.7743l4.5061 2.5476z"/>
  <path class="fil0 str0" d="M230.726 96.0217c14.0331,-4.6232 30.3151,8.971 36.3596,30.3576 6.0447,21.3868 -0.4336,42.4796 -14.4667,47.1028 -14.0328,4.623 -30.3148,-8.9715 -36.3594,-30.3583 -6.0445,-21.3865 0.4338,-42.4791 14.4665,-47.1021z"/>
  <path class="fil1" d="M222.968 158.256c-21.8564,-34.8179 0.4829,-87.3308 34.3926,-51.2118 -18.1191,9.5306 -32.9759,22.7572 -34.3926,51.2118z"/>
  <ellipse class="fil2 str1" transform="matrix(1.81905 -0.724526 0.454523 2.22481 246.868 130.353)" rx="6.0345" ry="5.67"/>
  <path class="fil3 str1" d="M246.732 124.558l3.4781 2.4423c0.0501,-0.0664 0.0995,-0.1357 0.1454,-0.2052 1.2148,-1.8413 0.5771,-4.336 -1.4238,-5.5714 -2.0011,-1.2352 -4.6088,-0.744 -5.8235,1.0971 -0.4176,0.6331 -0.6307,1.3752 -0.6146,2.1368l4.2384 0.1004z"/>
  <path class="fil3 str2" d="M230.726 96.0217c14.0331,-4.6232 30.3151,8.971 36.3596,30.3576 6.0447,21.3868 -0.4336,42.4796 -14.4667,47.1028 -14.0328,4.623 -30.3148,-8.9715 -36.3594,-30.3583 -6.0445,-21.3865 0.4338,-42.4791 14.4665,-47.1021z"/>
  <path class="fil4" d="M222.968 158.256c-21.8564,-34.8179 0.4829,-87.3308 34.3926,-51.2118 -18.1191,9.5306 -32.9759,22.7572 -34.3926,51.2118z"/>
  <ellipse class="fil2 str1" transform="matrix(1.81905 -0.724526 0.454523 2.22481 246.868 130.353)" rx="6.0345" ry="5.67"/>
  <path class="fil3 str1" d="M246.732 124.558l3.4781 2.4423c0.0501,-0.0664 0.0995,-0.1357 0.1454,-0.2052 1.2148,-1.8413 0.5771,-4.336 -1.4238,-5.5714 -2.0011,-1.2352 -4.6088,-0.744 -5.8235,1.0971 -0.4176,0.6331 -0.6307,1.3752 -0.6146,2.1368l4.2384 0.1004z"/>
 </g>
</svg>
