<?xml version="1.0" encoding="UTF-8"?>
<!DOCTYPE svg PUBLIC "-//W3C//DTD SVG 1.1//EN" "http://www.w3.org/Graphics/SVG/1.1/DTD/svg11.dtd">
<!-- Creator: CorelDRAW -->
<svg xmlns="http://www.w3.org/2000/svg" xml:space="preserve" width="420mm" height="420mm" style="shape-rendering:geometricPrecision; text-rendering:geometricPrecision; image-rendering:optimizeQuality; fill-rule:evenodd; clip-rule:evenodd"
viewBox="0 0 420 420">
 <defs>
  <style type="text/css">
   <![CDATA[
    .str0 {stroke:#3F4446;stroke-width:0.7056;stroke-dasharray:0 0}
    .fil0 {fill:none}
    .fil2 {fill:#969594}
    .fil1 {fill:#C2C1C1}
   ]]>
  </style>
 </defs>
 <g id="Capa_x0020_1">
  <metadata id="CorelCorpID_0Corel-Layer"/>
  <g id="_274112952">
   <rect id="_274138032" class="fil0" transform="matrix(0.721914 -0.61269 0.721914 0.61269 165.994 264.832)" width="20" height="20"/>
   <rect id="_274137960" class="fil0" transform="matrix(0.721914 -0.61269 0.721914 0.61269 195.97 264.832)" width="20" height="20"/>
   <rect id="_273791600" class="fil0" transform="matrix(0.721914 -0.61269 0.721914 0.61269 224.671 264.832)" width="20" height="20"/>
   <polygon id="_273791168" class="fil1" points="151.731,252.579 166.17,264.832 151.731,277.086 "/>
   <rect id="_273791576" class="fil2" transform="matrix(0.721914 -0.61269 0.721914 0.61269 165.994 264.832)" width="20" height="20"/>
   <rect id="_273791816" class="fil1" transform="matrix(0.721914 -0.61269 0.721914 0.61269 194.771 264.832)" width="20" height="20"/>
   <rect id="_274110624" class="fil2" transform="matrix(0.721914 -0.61269 0.721914 0.61269 223.664 264.832)" width="20" height="20"/>
   <polygon id="_274110288" class="fil1" points="252.536,264.832 266.975,252.579 266.975,277.086 "/>
   <rect id="_274140504" class="fil0" transform="matrix(0.36291 -0.313593 0.36291 0.313593 158.542 284.145)" width="20" height="20"/>
   <rect id="_274140456" class="fil0" transform="matrix(0.36291 -0.313593 0.36291 0.313593 173.611 284.145)" width="20" height="20"/>
   <rect id="_274140336" class="fil0" transform="matrix(0.36291 -0.313593 0.36291 0.313593 188.039 284.145)" width="20" height="20"/>
   <polygon id="_274140264" class="fil1" points="151.372,277.873 158.63,284.145 151.372,290.417 "/>
   <rect id="_274140408" class="fil2" transform="matrix(0.36291 -0.313593 0.36291 0.313593 158.542 284.145)" width="20" height="20"/>
   <rect id="_274140072" class="fil1" transform="matrix(0.36291 -0.313593 0.36291 0.313593 173.008 284.145)" width="20" height="20"/>
   <rect id="_274140216" class="fil2" transform="matrix(0.36291 -0.313593 0.36291 0.313593 187.533 284.145)" width="20" height="20"/>
   <rect id="_274140192" class="fil0" transform="matrix(0.36291 -0.313593 0.36291 0.313593 202.248 284.145)" width="20" height="20"/>
   <rect id="_274139736" class="fil0" transform="matrix(0.36291 -0.313593 0.36291 0.313593 216.677 284.145)" width="20" height="20"/>
   <rect id="_274139544" class="fil1" transform="matrix(0.36291 -0.313593 0.36291 0.313593 202.047 284.145)" width="20" height="20"/>
   <rect id="_274139448" class="fil2" transform="matrix(0.36291 -0.313593 0.36291 0.313593 216.572 284.145)" width="20" height="20"/>
   <rect id="_274139400" class="fil0" transform="matrix(0.36291 -0.313593 0.36291 0.313593 231.439 284.211)" width="20" height="20"/>
   <rect id="_274139760" class="fil0" transform="matrix(0.36291 -0.313593 0.36291 0.313593 245.868 284.211)" width="20" height="20"/>
   <rect id="_274010632" class="fil1" transform="matrix(0.36291 -0.313593 0.36291 0.313593 230.837 284.211)" width="20" height="20"/>
   <rect id="_274011712" class="fil2" transform="matrix(0.36291 -0.313593 0.36291 0.313593 245.361 284.211)" width="20" height="20"/>
   <polygon id="_274015264" class="fil1" points="259.875,284.212 267.134,277.94 267.134,290.483 "/>
   <rect id="_274015552" class="fil0" transform="matrix(0.36291 -0.313593 0.36291 0.313593 158.542 245.467)" width="20" height="20"/>
   <rect id="_274009864" class="fil0" transform="matrix(0.36291 -0.313593 0.36291 0.313593 173.611 245.467)" width="20" height="20"/>
   <rect id="_274012576" class="fil0" transform="matrix(0.36291 -0.313593 0.36291 0.313593 188.039 245.467)" width="20" height="20"/>
   <polygon id="_274010968" class="fil1" points="151.372,239.196 158.63,245.468 151.372,251.739 "/>
   <rect id="_274013680" class="fil2" transform="matrix(0.36291 -0.313593 0.36291 0.313593 158.542 245.467)" width="20" height="20"/>
   <rect id="_274015864" class="fil1" transform="matrix(0.36291 -0.313593 0.36291 0.313593 173.008 245.467)" width="20" height="20"/>
   <rect id="_274009888" class="fil2" transform="matrix(0.36291 -0.313593 0.36291 0.313593 187.533 245.467)" width="20" height="20"/>
   <rect id="_274014784" class="fil0" transform="matrix(0.36291 -0.313593 0.36291 0.313593 202.248 245.467)" width="20" height="20"/>
   <rect id="_274009912" class="fil0" transform="matrix(0.36291 -0.313593 0.36291 0.313593 216.677 245.467)" width="20" height="20"/>
   <rect id="_274015624" class="fil1" transform="matrix(0.36291 -0.313593 0.36291 0.313593 202.047 245.467)" width="20" height="20"/>
   <rect id="_274009672" class="fil2" transform="matrix(0.36291 -0.313593 0.36291 0.313593 216.572 245.467)" width="20" height="20"/>
   <rect id="_274011568" class="fil0" transform="matrix(0.36291 -0.313593 0.36291 0.313593 231.439 245.534)" width="20" height="20"/>
   <rect id="_274014568" class="fil0" transform="matrix(0.36291 -0.313593 0.36291 0.313593 245.868 245.534)" width="20" height="20"/>
   <rect id="_274011040" class="fil1" transform="matrix(0.36291 -0.313593 0.36291 0.313593 230.837 245.534)" width="20" height="20"/>
   <rect id="_274011856" class="fil2" transform="matrix(0.36291 -0.313593 0.36291 0.313593 245.361 245.534)" width="20" height="20"/>
   <polygon id="_274015960" class="fil1" points="259.875,245.534 267.134,239.262 267.134,251.806 "/>
   <rect id="_274010272" class="fil0 str0" transform="matrix(0.36291 -0.313593 0.36291 0.313593 158.878 258.362)" width="20" height="20"/>
   <rect id="_274011640" class="fil0 str0" transform="matrix(0.36291 -0.313593 0.36291 0.313593 173.947 258.362)" width="20" height="20"/>
   <rect id="_274012456" class="fil0 str0" transform="matrix(0.36291 -0.313593 0.36291 0.313593 188.375 258.362)" width="20" height="20"/>
   <polygon id="_274014904" class="fil0 str0" points="151.708,252.09 158.966,258.362 151.708,264.634 "/>
   <rect id="_274015168" class="fil0 str0" transform="matrix(0.36291 -0.313593 0.36291 0.313593 202.584 258.362)" width="20" height="20"/>
   <rect id="_274012192" class="fil0 str0" transform="matrix(0.36291 -0.313593 0.36291 0.313593 217.012 258.362)" width="20" height="20"/>
   <rect id="_274008952" class="fil0 str0" transform="matrix(0.36291 -0.313593 0.36291 0.313593 246.203 258.428)" width="20" height="20"/>
   <rect id="_274127088" class="fil0 str0" transform="matrix(0.36291 -0.313593 0.36291 0.313593 231.172 258.429)" width="20" height="20"/>
   <polygon id="_217926624" class="fil0 str0" points="260.412,258.428 267.67,252.157 267.67,264.7 "/>
   <rect id="_274131240" class="fil0 str0" transform="matrix(0.36291 -0.313593 0.36291 0.313593 158.878 270.449)" width="20" height="20"/>
   <rect id="_274112784" class="fil0 str0" transform="matrix(0.36291 -0.313593 0.36291 0.313593 173.947 270.449)" width="20" height="20"/>
   <rect id="_274006936" class="fil0 str0" transform="matrix(0.36291 -0.313593 0.36291 0.313593 188.375 270.449)" width="20" height="20"/>
   <polygon id="_274013872" class="fil0 str0" points="151.708,264.177 158.966,270.449 151.708,276.721 "/>
   <rect id="_274111440" class="fil0 str0" transform="matrix(0.36291 -0.313593 0.36291 0.313593 202.584 270.449)" width="20" height="20"/>
   <rect id="_274011424" class="fil0 str0" transform="matrix(0.36291 -0.313593 0.36291 0.313593 217.012 270.449)" width="20" height="20"/>
   <rect id="_274007824" class="fil0 str0" transform="matrix(0.36291 -0.313593 0.36291 0.313593 246.203 270.515)" width="20" height="20"/>
   <rect id="_274010584" class="fil0 str0" transform="matrix(0.36291 -0.313593 0.36291 0.313593 231.172 270.515)" width="20" height="20"/>
   <polygon id="_274013008" class="fil0 str0" points="260.412,270.515 267.67,264.243 267.67,276.787 "/>
  </g>
 </g>
</svg>
