<?xml version="1.0" encoding="UTF-8"?>
<!DOCTYPE svg PUBLIC "-//W3C//DTD SVG 1.1//EN" "http://www.w3.org/Graphics/SVG/1.1/DTD/svg11.dtd">
<!-- Creator: CorelDRAW -->
<svg xmlns="http://www.w3.org/2000/svg" xml:space="preserve" width="420mm" height="420mm" style="shape-rendering:geometricPrecision; text-rendering:geometricPrecision; image-rendering:optimizeQuality; fill-rule:evenodd; clip-rule:evenodd"
viewBox="0 0 420 420">
 <defs>
  <style type="text/css">
   <![CDATA[
    .str0 {stroke:#DEDEDD;stroke-width:16.9333}
    .fil0 {fill:#FFCC66}
   ]]>
  </style>
 </defs>
 <g id="Capa_x0020_1">
  <metadata id="CorelCorpID_0Corel-Layer"/>
  <path class="fil0 str0" d="M267.702 289.974c2.5408,1.0366 4.3437,3.5379 4.3437,6.4399l0 26.0415c0,3.4266 -2.5135,6.2941 -5.7876,6.8517l8.284 55.0195 -129.813 0 8.284 -55.0195c-3.2741,-0.5576 -5.7876,-3.4251 -5.7876,-6.8517l0 -26.0415c0,-2.902 1.8029,-5.4032 4.3436,-6.4398 2.2144,-18.4535 5.7003,-39.6978 -0.0211,-56.7744 -10.7116,-21.6488 -20.0441,-40.1104 -25.2328,-62.2342 -2.6079,-7.9878 -3.9526,-15.8401 -3.0518,-23.0013 -0.5783,-21.7761 -2.4882,-47.2971 22.2868,-53.6336 2.1636,-2.3639 4.5788,-4.3892 7.2936,-5.9743 4.1165,-6.8731 7.6991,-10.5586 13.7792,-12.4329 4.951,-8.8981 14.5042,-12.6858 24.3547,-11.3125 5.6072,-2.4442 12.1128,-2.4199 18.6575,0.1313 6.5449,-2.5512 13.0501,-2.5755 18.6575,-0.1313 9.8503,-1.3733 19.4037,2.4142 24.3547,11.3124 6.0802,1.8743 9.6628,5.56 13.7796,12.4332 2.7146,1.5852 5.1302,3.6103 7.2937,5.9741 24.775,6.3365 22.8651,31.8575 22.2868,53.6336 0.9008,7.1612 -0.444,15.0135 -3.0518,23.0013 -5.1887,22.1238 -14.5212,40.5854 -25.2328,62.2342 -5.7214,17.0766 -2.2355,38.3207 -0.0212,56.7743z"/>
 </g>
</svg>
